<svg width="17" height="17" viewBox="0 0 17 17" fill="none" xmlns="http://www.w3.org/2000/svg">
<path d="M9.71432 1.96875C9.71432 1.31191 9.17169 0.78125 8.50003 0.78125C7.82838 0.78125 7.28575 1.31191 7.28575 1.96875V7.3125H1.82146C1.14981 7.3125 0.607178 7.84316 0.607178 8.5C0.607178 9.15684 1.14981 9.6875 1.82146 9.6875H7.28575V15.0312C7.28575 15.6881 7.82838 16.2188 8.50003 16.2188C9.17169 16.2188 9.71432 15.6881 9.71432 15.0312V9.6875H15.1786C15.8503 9.6875 16.3929 9.15684 16.3929 8.5C16.3929 7.84316 15.8503 7.3125 15.1786 7.3125H9.71432V1.96875Z" fill="#7743DC"/>
</svg>
