<svg width="77" height="76" viewBox="0 0 77 76" fill="none" xmlns="http://www.w3.org/2000/svg">
<g filter="url(#filter0_d_255_642)">
<circle cx="38.4233" cy="37.9292" r="33.8433" fill="white"/>
<circle cx="38.4233" cy="37.9292" r="33.3433" stroke="#263238"/>
</g>
<g clip-path="url(#clip0_255_642)">
<path d="M44.3089 38.946C49.6601 38.946 54.0167 34.5894 54.0167 29.2382C54.0167 23.887 49.6601 19.5229 44.3089 19.5229C38.9577 19.5229 34.6011 23.8796 34.6011 29.2308C34.6011 34.5819 38.9577 38.946 44.3089 38.946ZM44.3089 21.0073C48.8511 21.0073 52.5397 24.6886 52.5397 29.2308C52.5397 33.7729 48.8585 37.4616 44.3163 37.4616C39.7741 37.4616 36.0854 33.7804 36.0854 29.2382C36.0854 29.2382 36.0854 29.2382 36.0854 29.2308C36.0929 24.696 39.7667 21.0147 44.3089 21.0073Z" fill="#7743DC"/>
<path d="M44.3089 32.4149C43.6335 32.4149 43.0917 31.8657 43.0917 31.1978C43.0917 30.7896 42.7577 30.4556 42.3495 30.4556C41.9339 30.4556 41.5999 30.7821 41.5925 31.1978C41.5925 32.4075 42.4312 33.4317 43.4702 33.7731V34.4411C43.4702 34.8493 43.8042 35.1833 44.2124 35.1833C44.6206 35.1833 44.9546 34.8493 44.9546 34.4411V33.8177C46.4019 33.454 47.2776 31.9845 46.914 30.5372C46.6097 29.3423 45.5335 28.4962 44.3015 28.4962C43.6261 28.4962 43.0843 27.947 43.0917 27.2716C43.0991 26.5962 43.6409 26.0544 44.3163 26.0618C44.9843 26.0618 45.5261 26.611 45.5261 27.279C45.5261 27.6872 45.8601 28.0212 46.2683 28.0212C46.669 28.0212 46.9956 27.6946 46.9956 27.2864V27.279C46.9956 26.0396 46.1569 24.9634 44.9546 24.6591V24.3696C44.9546 23.9614 44.6206 23.6274 44.2124 23.6274C43.8042 23.6274 43.4702 23.9614 43.4702 24.3696V24.7036C42.4312 25.0524 41.5925 26.0767 41.5925 27.279C41.5925 28.7708 42.8022 29.9806 44.3015 29.9806C44.9769 29.9806 45.5187 30.5298 45.5112 31.2052C45.5112 31.8657 44.9769 32.4075 44.3089 32.4149ZM55.5011 41.8704C54.5437 40.6903 52.8144 40.5122 51.6269 41.4696C50.1425 42.6794 47.9827 44.4235 46.58 45.5591C45.5929 46.3532 44.3757 46.806 43.1065 46.8505L39.3065 46.9767C39.1507 46.9841 39.0097 46.9024 38.928 46.7763L38.505 46.0489C38.4308 45.9302 38.4233 45.7892 38.4827 45.663C38.5421 45.5368 38.6534 45.4478 38.787 45.4255L42.7132 44.6833C44.0937 44.4235 45.0585 43.1173 44.9026 41.6997C44.7542 40.3341 43.5964 39.3099 42.2308 39.3099C42.1937 39.3099 42.1491 39.3099 42.0972 39.3099L36.8499 39.0946C34.7569 39.0204 32.9608 39.4212 30.8604 40.438L28.1144 41.7665C27.7284 40.9649 26.9194 40.4528 26.0288 40.4528H22.9933C21.7241 40.4454 20.6925 41.4696 20.6851 42.7388V54.0423C20.6925 55.3114 21.7241 56.3356 22.9933 56.3356H26.0288C27.2979 56.3356 28.3222 55.3114 28.3296 54.0423V53.2778L31.2464 52.7435C32.189 52.6024 32.7827 52.5505 33.7847 52.595L41.7632 52.9661C44.6354 53.0923 47.4483 52.1423 49.6526 50.3017L55.1819 45.7149L55.1894 45.7075C56.2952 44.7649 56.4585 43.1099 55.5605 41.9669C55.5456 41.9298 55.5233 41.9001 55.5011 41.8704ZM26.8452 54.0423C26.8452 54.4876 26.4815 54.8513 26.0362 54.8513H22.9784C22.5331 54.8513 22.1694 54.4876 22.1694 54.0423V42.7462C22.1694 42.3009 22.5331 41.9372 22.9784 41.9372H26.0362C26.4815 41.9372 26.8452 42.3009 26.8452 42.7462V54.0423ZM54.2319 44.572L48.7101 49.1513C46.7878 50.7544 44.3312 51.5782 41.83 51.4743L33.8515 51.1032C32.7308 51.0513 32.0479 51.1181 31.0163 51.2665C31.0089 51.2665 31.0015 51.2665 30.994 51.2739L28.3296 51.7638V43.3028L31.5062 41.7665C33.3765 40.861 34.9573 40.5048 36.7905 40.5716L42.0749 40.7868C42.1046 40.7868 42.1417 40.7868 42.1714 40.7868C42.1788 40.7868 42.2085 40.7868 42.2308 40.7868C42.8394 40.7942 43.3589 41.247 43.4331 41.8556C43.5073 42.4939 43.0769 43.0876 42.446 43.2138L38.5198 43.956C37.4882 44.1489 36.8128 45.1509 37.0058 46.1825C37.0503 46.3978 37.1245 46.6056 37.2358 46.7911L37.6589 47.511C38.0151 48.1122 38.6683 48.4685 39.3659 48.4462L43.1659 48.32C44.7542 48.2606 46.2831 47.6892 47.5226 46.7021C48.9253 45.5665 51.0925 43.8224 52.5769 42.6126C53.1112 42.197 53.8757 42.2638 54.3284 42.7685C54.3433 42.7981 54.3655 42.8278 54.3878 42.8575C54.8108 43.3696 54.744 44.1415 54.2319 44.572Z" fill="#7743DC"/>
</g>
<defs>
<filter id="filter0_d_255_642" x="0.580078" y="0.0859375" width="75.6865" height="75.6865" filterUnits="userSpaceOnUse" color-interpolation-filters="sRGB">
<feFlood flood-opacity="0" result="BackgroundImageFix"/>
<feColorMatrix in="SourceAlpha" type="matrix" values="0 0 0 0 0 0 0 0 0 0 0 0 0 0 0 0 0 0 127 0" result="hardAlpha"/>
<feOffset/>
<feGaussianBlur stdDeviation="2"/>
<feComposite in2="hardAlpha" operator="out"/>
<feColorMatrix type="matrix" values="0 0 0 0 0 0 0 0 0 0 0 0 0 0 0 0 0 0 0.25 0"/>
<feBlend mode="normal" in2="BackgroundImageFix" result="effect1_dropShadow_255_642"/>
<feBlend mode="normal" in="SourceGraphic" in2="effect1_dropShadow_255_642" result="shape"/>
</filter>
<clipPath id="clip0_255_642">
<rect width="38" height="38" fill="white" transform="translate(19.4233 18.9292)"/>
</clipPath>
</defs>
</svg>
