<svg width="162" height="162" viewBox="0 0 162 162" fill="none" xmlns="http://www.w3.org/2000/svg">
<g id="1. about-our-team">
<g id="Group">
<path id="Vector" d="M38.9532 24.1128C38.93 24.4992 38.8095 24.8734 38.6027 25.2006C38.3959 25.5277 38.1096 25.7972 37.7706 25.9839C38.0585 26.4718 38.1945 27.0344 38.1613 27.5999C38.1281 28.1654 37.9272 28.7082 37.5843 29.1591C37.2486 29.5989 36.8007 29.94 36.2875 30.1467C35.7744 30.3534 35.215 30.418 34.6683 30.3336C34.5225 30.7305 34.1742 31.419 33.7773 31.5486C33.716 31.5806 33.6479 31.5972 33.5788 31.5972C33.5097 31.5972 33.4416 31.5806 33.3804 31.5486C33.4765 32.1172 33.7448 32.6425 34.1489 33.0539C34.553 33.4652 35.0735 33.7428 35.6403 33.849C37.4952 34.1811 39.2286 33.5736 39.2286 31.6863C39.6725 31.7759 40.1305 31.7679 40.5711 31.663C41.0116 31.5582 41.4241 31.3588 41.7801 31.0788C42.0336 30.8711 42.2435 30.6153 42.3978 30.3262C42.5521 30.037 42.6477 29.7202 42.6792 29.394C42.7602 27.3042 41.3103 25.9191 40.4112 25.9191C41.0673 24.7608 40.6461 23.7564 39.6012 22.995C39.3348 22.8298 39.0368 22.7222 38.7264 22.6791C38.8938 23.1379 38.9708 23.6248 38.9532 24.1128ZM22.7613 24.7122C22.7978 24.7122 22.8328 24.6977 22.8586 24.6719C22.8845 24.6461 22.899 24.611 22.899 24.5745C22.899 24.538 22.8845 24.503 22.8586 24.4771C22.8328 24.4513 22.7978 24.4368 22.7613 24.4368L22.2672 24.3801C22.1133 24.3801 21.8622 24.3801 21.7164 24.3315C21.6221 23.1427 21.6221 21.9482 21.7164 20.7594C21.7147 20.7255 21.7014 20.6933 21.6786 20.6682C21.6557 20.6432 21.6249 20.6268 21.5913 20.622C21.5578 20.6172 21.5236 20.6243 21.4947 20.642C21.4657 20.6596 21.4439 20.6869 21.4329 20.7189C21.0806 21.6207 20.9233 22.5869 20.9712 23.5539C20.9585 23.8884 20.9884 24.2232 21.0603 24.5502C21.2547 25.0605 22.2348 24.8337 22.7613 24.7122ZM19.0029 19.9899C18.6141 20.0952 18.0876 20.4759 18.282 20.6217C18.5676 20.7528 18.893 20.7673 19.1892 20.6622C19.4727 20.5893 19.9425 20.3058 19.9344 20.16C19.9263 20.0142 19.3836 19.8846 19.0029 19.9899ZM24.2517 20.5569C27.1029 21.1482 25.7826 20.0628 24.3813 19.8846C24.0168 19.836 23.1663 19.8846 23.1825 20.0871C23.1987 20.2896 24.033 20.5083 24.2517 20.5569ZM24.8916 21.9177C24.8689 21.8776 24.8385 21.8425 24.8021 21.8142C24.7657 21.786 24.7241 21.7652 24.6797 21.7532C24.6352 21.7411 24.5888 21.738 24.5432 21.744C24.4975 21.75 24.4535 21.765 24.4137 21.7881C24.2112 21.9015 24.2193 22.023 24.2679 22.6791C24.2743 22.7715 24.3172 22.8575 24.3871 22.9183C24.4569 22.979 24.5481 23.0096 24.6405 23.0031C24.7328 22.9967 24.8189 22.9538 24.8796 22.8839C24.9404 22.814 24.9709 22.7229 24.9645 22.6305C24.9766 22.3906 24.952 22.1502 24.8916 21.9177ZM19.1568 22.3632C19.1643 22.2708 19.1348 22.1793 19.0748 22.1086C19.0148 22.038 18.9292 21.9941 18.8368 21.9866C18.7444 21.979 18.6529 22.0085 18.5822 22.0685C18.5116 22.1285 18.4677 22.2141 18.4602 22.3065C18.4448 22.5033 18.4448 22.701 18.4602 22.8978C18.4666 22.9902 18.5095 23.0762 18.5794 23.137C18.6492 23.1977 18.7404 23.2283 18.8328 23.2218C18.9251 23.2154 19.0112 23.1725 19.0719 23.1026C19.1327 23.0327 19.1632 22.9416 19.1568 22.8492C19.173 22.6791 19.1487 22.4604 19.1568 22.3632ZM21.9675 27.6363C21.9675 27.8955 22.9962 27.9603 23.5308 27.4257C23.9277 27.0288 23.9034 26.4213 23.7414 26.3808C23.5794 26.3403 23.6847 26.3808 23.1015 26.883C22.737 27.1908 21.9513 27.4338 21.9675 27.6363Z" fill="black"/>
<path id="Vector_2" d="M157.609 20.9059C157.397 20.8375 157.173 20.8158 156.952 20.8424C156.731 20.869 156.519 20.9431 156.329 21.0598C156.484 20.6889 156.537 20.2835 156.483 19.8853C156.337 19.2292 155.382 18.9295 154.596 19.8853C154.547 19.3669 154.312 19.0105 153.899 18.9376C152.871 18.7432 152.425 20.7034 152.198 21.7321C151.664 21.3352 150.789 20.6629 150.351 21.1894C150.228 21.3215 150.144 21.4863 150.111 21.6643C150.078 21.8423 150.097 22.0261 150.165 22.1938C150.48 22.7442 150.929 23.2066 151.469 23.5384C151.315 23.8948 150.659 24.8344 150.319 25.3852C150.044 25.3042 149.46 25.1503 149.339 25.3852C146.496 29.257 138.809 38.2318 134.022 38.0455C126.627 37.762 117.32 34.1818 116.388 34.3114L115.084 31.4521C116.519 30.4698 117.596 29.0487 118.154 27.4021C119.062 24.8889 119.475 22.2234 119.369 19.5532C119.375 18.6876 119.334 17.8224 119.247 16.9612C122.666 16.7344 124.917 12.7087 122.253 9.37958C121.996 8.98042 121.661 8.63704 121.269 8.36987C120.876 8.10269 120.434 7.91718 119.968 7.82438C119.419 7.79579 118.87 7.86996 118.348 8.04308C115.108 8.85308 115.06 6.80378 112.84 6.25298C111.826 6.08301 110.784 6.19221 109.827 6.56888C106.587 7.70288 107.219 9.50918 105.72 11.0158C104.91 11.8258 101.452 10.6837 100.05 12.9841C98.5601 15.5032 98.6978 20.833 100.86 22.9228C101.341 23.3543 101.871 23.7269 102.44 24.0325C102.965 24.569 103.579 25.0102 104.254 25.3366C104.886 26.6245 105.607 30.3262 105.874 31.7275L105.623 33.8335C103.896 34.105 102.192 34.5112 100.528 35.0485C97.8019 35.931 95.1569 37.0476 92.6228 38.3857C88.0058 40.8157 88.5728 40.7671 88.4108 40.5079C87.8509 39.8985 87.2559 39.3224 86.6288 38.7826C82.2062 35.0566 77.411 31.8814 71.7491 30.9499L71.0849 27.1834C72.8669 25.7254 73.8389 22.7851 73.8713 20.7034C74.5355 20.9788 75.062 20.4928 75.4103 19.8934C75.5075 19.7152 76.115 19.8934 76.5848 18.8404C76.666 18.6209 76.666 18.3795 76.5848 18.16C76.7473 18.0629 76.8865 17.9315 76.9927 17.7749C77.099 17.6183 77.1696 17.4403 77.1997 17.2535C77.2298 17.0667 77.2187 16.8755 77.167 16.6935C77.1153 16.5115 77.0244 16.3429 76.9007 16.1998C77.1502 16.0579 77.3639 15.8607 77.5253 15.6234C77.6868 15.3862 77.7918 15.115 77.8322 14.8309C78.0104 13.7698 77.7674 12.814 76.7468 12.4819C76.7468 12.247 76.9169 11.8582 76.9169 11.7772C76.9258 11.4 76.8587 11.0249 76.7195 10.6742C76.5803 10.3235 76.372 10.0044 76.1069 9.73598C74.981 8.77208 74.6246 8.85308 73.9199 8.92598C73.9199 8.43998 74.2277 8.11598 73.7174 7.45178C73.326 7.00021 72.805 6.68019 72.2253 6.53526C71.6455 6.39033 71.0352 6.42752 70.4774 6.64178L70.2749 6.70658C70.1483 6.38826 69.9559 6.10031 69.7102 5.8616C69.4645 5.62289 69.1711 5.43882 68.8493 5.32148C67.8368 4.94078 67.1402 5.43488 66.2897 5.88038C65.018 4.74638 62.588 5.35388 61.2839 6.13958C60.6926 6.49598 60.6359 7.12778 60.401 7.41938C59.8977 7.38269 59.3964 7.51371 58.9754 7.79198C58.6028 8.02688 58.2545 8.36708 57.9548 8.60198C57.7573 8.7552 57.5945 8.94842 57.4769 9.16898C57.2261 9.58078 57.0814 10.0483 57.0557 10.5298C56.8566 10.5775 56.6674 10.6597 56.4968 10.7728C55.8497 11.3521 55.3948 12.1151 55.1927 12.9598C55.1043 13.4271 55.1493 13.9099 55.3223 14.353C55.3223 14.4016 55.4033 14.4988 55.4276 14.5474C55.2656 14.7823 54.8444 14.9686 54.7634 15.6004C54.6824 16.2322 54.7067 17.4715 55.3223 17.8441C55.5815 17.998 56.1323 18.16 56.3267 18.2815C56.2961 18.6129 56.2961 18.9464 56.3267 19.2778C56.5373 20.6467 57.89 21.1408 59.2832 20.9383L59.6639 21.1327C59.8119 22.5757 60.1949 23.9848 60.7979 25.3042C61.2475 26.1757 61.925 26.9091 62.7581 27.4264L62.3693 30.877C60.436 31.1595 58.5363 31.6371 56.6993 32.3026C51.1346 34.3357 47.8865 36.9763 45.011 41.5609C41.0501 38.2804 34.3433 33.3637 29.1593 33.4528C29.1926 33.1026 29.1926 32.75 29.1593 32.3998C29.1593 32.1649 29.0297 31.444 28.811 31.3387C28.811 30.9418 28.7462 30.5287 28.7138 30.148C30.5444 32.8534 34.2785 31.4197 33.8654 29.5729C34.3274 29.6035 34.7899 29.5214 35.2132 29.3338C35.6365 29.1461 36.0078 28.8585 36.2954 28.4956C36.5745 28.0967 36.7243 27.6216 36.7243 27.1348C36.7243 26.6479 36.5745 26.1729 36.2954 25.774C36.2283 25.666 36.1465 25.5678 36.0524 25.4824C37.316 25.1584 37.7534 24.5995 37.9154 23.7976C38.0458 23.1841 37.998 22.5461 37.7777 21.9589C37.9218 21.8877 38.0577 21.8008 38.1827 21.6997C38.554 21.3449 38.8059 20.8835 38.9036 20.3794C39.097 18.6242 38.7162 16.8535 37.8182 15.3331C37.5272 14.8261 37.0511 14.4516 36.4898 14.2882C36.3844 13.806 36.3221 13.3153 36.3035 12.8221C36.1698 12.0562 35.8544 11.3335 35.3837 10.7148C34.9129 10.0961 34.3006 9.59928 33.5981 9.26618C32.9174 8.94705 32.1787 8.77063 31.4273 8.74778C31.1117 8.7216 30.7941 8.76302 30.4958 8.86928C29.9794 8.24464 29.3013 7.77391 28.5356 7.50848C27.0495 7.23247 25.5138 7.48461 24.194 8.22128C23.9267 8.39948 23.7161 8.74778 23.4812 8.91788C22.9045 8.67023 22.2793 8.55617 21.6523 8.58422C21.0253 8.61227 20.4128 8.78172 19.8605 9.07988C19.2742 9.33677 18.7459 9.70958 18.3075 10.1759C17.869 10.6422 17.5293 11.1924 17.309 11.7934C16.9688 12.6034 16.661 13.9318 17.1794 14.6284C17.2092 14.667 17.2362 14.7076 17.2604 14.7499C16.9526 15.2926 16.2479 15.5599 16.013 17.0665C15.9173 17.8222 15.9474 18.5886 16.1021 19.3345C16.1452 19.5182 16.2482 19.6824 16.3948 19.8012C16.5414 19.9199 16.7234 19.9866 16.9121 19.9906C16.661 22.4206 16.7015 25.6606 18.0299 27.7585C18.3606 28.2492 18.7465 28.7003 19.1801 29.1031C19.633 29.5468 20.19 29.8699 20.8001 30.0427V31.4845C20.3951 31.7113 20.6786 32.9992 20.5085 33.7768C17.2199 33.55 12.6191 34.3114 10.0676 36.4174C6.13099 39.6898 4.52719 44.3068 4.10599 49.4098C3.53089 56.4487 7.34599 60.8065 13.2671 61.5598C13.6391 62.792 14.0771 64.0034 14.5793 65.1886C12.0774 69.8799 10.2478 74.8997 9.14419 80.1007C8.33419 84.5071 7.95349 91.4893 7.88059 98.188C7.88059 101.379 7.88059 113.351 8.94979 116.332C9.11989 116.802 9.84889 117.053 10.3268 117.191C11.6558 117.539 13.0099 117.782 14.3768 117.92C14.717 125.031 15.7295 152.11 15.7295 152.15C14.3377 152.895 13.0564 153.83 11.9225 154.928C11.7423 155.089 11.6072 155.294 11.5305 155.522C11.4538 155.751 11.4381 155.996 11.4851 156.233C11.5685 156.443 11.7251 156.616 11.926 156.72C12.1269 156.824 12.3586 156.853 12.5786 156.8C13.9232 156.678 17.5439 155.593 19.1801 155.293C19.2206 155.641 19.2773 155.981 19.6175 156.103C20.2007 156.305 21.3509 156.411 21.7721 155.884C22.1933 155.358 21.9422 153.981 21.9989 153.389C22.0475 152.952 25.7411 127.469 27.0047 118.73H28.0172C29.5724 127.145 33.8249 151.211 33.833 151.251C32.991 151.891 32.1927 152.586 31.4435 153.333C30.8198 153.965 29.7749 155.099 30.188 155.876C30.6011 156.654 31.5731 156.257 32.3912 155.957C34.0112 155.39 36.4412 154.297 37.6805 153.892C37.7696 154.224 37.8749 154.556 38.2232 154.629C38.7065 154.702 39.1995 154.677 39.6731 154.556C40.3616 154.353 40.4831 153.924 40.4831 153.211C40.1834 149.623 40.1753 160.939 40.4183 118.568C41.3164 118.531 42.2064 118.382 43.067 118.122C45.3593 116.996 45.1487 84.1021 42.1679 73.7503C41.9654 73.0375 40.6856 69.3196 39.7784 67.0111C39.8069 66.9326 39.8069 66.8466 39.7784 66.7681C39.5121 66.0972 39.212 65.4403 38.8793 64.7998C39.1223 61.819 39.3815 56.068 39.6245 54.3265L41.6414 55.7116C41.8067 56.3634 42.0402 56.996 42.338 57.5989C42.6698 58.4695 43.2027 59.2494 43.8932 59.875C44.7657 60.6788 45.8041 61.2812 46.935 61.6395C48.066 61.9978 49.2618 62.1033 50.438 61.9486H51.7988C53.3702 71.2798 52.9166 70.2997 53.1515 70.5346C47.1818 91.1086 45.254 130.134 46.064 149.915C46.064 150.008 46.0953 150.1 46.1531 150.174C46.5662 150.7 49.142 150.984 49.9925 151.13C48.3949 151.981 46.8745 152.971 45.4484 154.086C44.7275 154.791 45.6752 156.111 46.5581 156.338C47.0441 156.467 53.6537 155.528 54.1559 155.455C54.2207 155.763 54.3665 156.062 54.6743 156.119C55.5407 156.268 56.4199 156.331 57.2987 156.305C57.6551 156.305 58.1087 156.224 58.1897 155.884C58.4603 154.536 58.6174 153.168 58.6595 151.794C59.2346 151.794 59.8097 151.794 59.996 151.632C61.616 150.012 68.8493 108.791 69.4406 105.462C69.6416 104.345 69.6933 103.206 69.5945 102.076C68.42 88.1845 68.8574 93.9031 68.6711 88.549C68.6787 88.5172 68.6969 88.4888 68.7226 88.4686C68.7483 88.4483 68.7801 88.4373 68.8128 88.4373C68.8456 88.4373 68.8773 88.4483 68.9031 88.4686C68.9288 88.4888 68.9469 88.5172 68.9546 88.549C69.4973 94.9156 69.8213 95.1343 70.2587 103.526C70.2587 104.101 76.8602 149.267 78.0509 150.449C78.685 150.712 79.3654 150.844 80.0516 150.838C79.9742 152.582 80.1129 154.328 80.4647 156.038C80.4872 156.102 80.5225 156.161 80.5684 156.211C80.6144 156.262 80.67 156.302 80.732 156.33C81.3233 156.621 83.5346 156.33 83.972 156.273C84.111 156.221 84.2329 156.131 84.3243 156.014C84.4158 155.897 84.4732 155.756 84.4904 155.609C85.1789 155.706 91.6103 156.613 92.0801 156.492C92.963 156.265 93.9188 154.945 93.1898 154.232C91.5028 152.942 89.7089 151.799 87.8276 150.814C88.7996 150.741 90.8408 150.563 91.6832 150.068C92.9549 149.315 91.7399 92.8096 81.5339 69.6355C81.7202 69.3358 82.433 61.0171 82.4654 60.6445C85.0257 60.5579 87.5064 59.7338 89.6096 58.2712L92.8496 57.1048C90.8766 64.6223 89.3966 72.2607 88.4189 79.9711C88.2326 81.4939 87.293 89.0593 88.3055 90.1933C88.41 90.3109 88.5542 90.3859 88.7105 90.4039C89.1722 90.4444 91.019 90.6064 92.9873 90.7279C92.9873 113.967 95.2715 126.441 98.957 150.911C98.9685 150.987 99.0066 151.056 99.0644 151.107C99.1223 151.157 99.1961 151.185 99.2729 151.186H99.4835C99.6361 152.315 99.8827 153.428 100.221 154.515C100.731 155.544 108.645 155.52 109.762 155.163C109.957 155.063 110.112 154.899 110.201 154.699C110.289 154.498 110.306 154.273 110.248 154.062C109.924 152.62 107.008 152.304 105.631 151.267H106.109C106.184 151.269 106.257 151.245 106.316 151.199C106.375 151.154 106.417 151.089 106.433 151.016L112.63 120.001C112.703 120.455 117.06 151.591 117.06 151.591C117.074 151.673 117.117 151.747 117.181 151.799C117.245 151.851 117.326 151.878 117.409 151.875H118.049C118.163 153.016 118.346 154.15 118.599 155.269C118.612 155.32 118.636 155.368 118.67 155.409C118.703 155.449 118.746 155.482 118.794 155.504C119.604 155.884 126.724 156.314 127.898 155.674C128.112 155.558 128.274 155.367 128.353 155.137C128.433 154.908 128.424 154.657 128.328 154.434C128.124 153.87 127.761 153.378 127.283 153.017C126.303 152.474 124.593 152.353 123.678 151.875H124.132C124.209 151.87 124.283 151.841 124.343 151.791C124.403 151.742 124.445 151.675 124.464 151.599C124.464 151.599 126.821 142.94 128.206 123.023C129.016 111.407 129.243 99.5326 129.154 88.0468C130.191 88.1278 131.956 88.2088 132.831 88.1683C133.074 88.1683 133.309 88.1683 133.414 87.9334C134.354 86.0623 133.641 67.4647 133.115 62.7748C133.066 62.3212 131.908 54.6181 131.754 53.6137C134.451 53.5084 138.347 52.9333 140.559 51.3538C151.899 43.2538 154.061 29.419 154.985 27.5641C155.074 27.3697 154.855 27.2725 154.312 27.0052C154.624 26.0805 154.995 25.1769 155.422 24.2998C156.548 23.6761 157.852 22.9633 157.941 21.6754C157.984 21.5285 157.975 21.3712 157.914 21.2307C157.853 21.0902 157.745 20.9753 157.609 20.9059ZM76.8278 12.6358C76.763 12.6358 76.7468 12.5872 76.7468 12.5062C76.7468 12.4252 76.9007 12.6358 76.8278 12.6358ZM106.644 43.4158C110.645 43.6669 113.027 43.6993 117.093 43.675C117.352 45.2464 117.644 46.9636 117.96 48.7861C115.781 48.7861 108.393 48.8671 106.474 48.8347C106.563 47.0527 106.628 45.2302 106.644 43.432V43.4158ZM105.583 60.3691C110.297 60.6445 113.796 60.7174 120.057 60.5878C120.479 62.8963 120.916 65.2291 121.305 67.2784C117.514 67.3918 108.766 67.5457 104.829 67.4323C104.983 66.1444 105.299 63.0178 105.583 60.3853V60.3691ZM104.489 70.0405C110.661 70.3969 115.602 70.4131 121.88 70.2268C122.188 71.782 122.487 73.2886 122.779 74.7061C115.619 74.9815 108.612 74.9977 103.631 74.9005C103.96 73.2967 104.246 71.6767 104.489 70.0405ZM119.531 57.6718C117.101 57.7204 108.191 57.8176 105.826 57.7852C106.036 55.4686 106.198 53.3707 106.32 51.4672C110.208 51.7102 112.848 51.7993 118.47 51.7345C118.664 52.8037 119.377 56.7808 119.531 57.6718ZM116.048 36.0448C116.145 37.3732 116.437 39.4306 116.639 40.7509C114.574 40.7509 108.256 40.8238 106.636 40.7995C106.62 39.1367 106.509 37.4762 106.304 35.8261C108.491 38.7664 114.396 38.3614 116.048 36.0448ZM103.088 77.4844C109.855 77.8927 116.639 77.9441 123.411 77.6383C123.719 79.0639 124.002 80.3599 124.269 81.4939C122.99 81.421 107.859 80.6839 102.351 80.4166C102.578 79.4932 102.821 78.5131 103.064 77.4844H103.088ZM104.862 25.0369C104.578 24.4699 102.78 24.2269 102.61 22.7932C102.416 21.1165 104.368 21.0598 105.04 21.8131C105.097 21.8698 105.494 22.4044 105.542 22.4692C105.963 23.0362 106.352 23.0524 106.482 22.2424C106.668 20.7358 106.206 17.7226 107.964 18.0385C109.22 18.4324 110.511 18.7037 111.82 18.8485C114.306 19.0753 116.283 18.8485 117.887 17.0665C118.065 17.026 118.656 17.0017 118.867 16.9855C118.94 17.842 118.962 18.7022 118.932 19.5613C118.987 22.1614 118.536 24.7475 117.603 27.1753C116.315 30.2614 114.533 31.0066 114.533 31.0066C114.492 31.0224 114.454 31.0463 114.422 31.0769C114.39 31.1075 114.365 31.1442 114.347 31.1848C114.274 31.3711 114.25 31.1848 115.773 34.5949C116.097 37.5352 107.389 38.734 106.263 34.117L106.539 31.7599C106.571 31.5898 105.607 26.5516 104.838 25.0369H104.862ZM87.0419 39.6169C89.6031 42.1598 91.3679 45.3939 92.1206 48.9238C92.5985 51.3538 92.396 53.395 91.6022 54.7963C91.0822 55.6964 90.4326 56.5152 89.6744 57.2263C88.8796 58.0387 87.91 58.6592 86.8394 59.0407C84.5906 59.8655 82.1778 60.1431 79.8005 59.8507C76.6387 59.451 73.517 58.7817 70.4693 57.85C70.4693 57.607 70.4207 57.3478 70.3964 57.04L73.1909 56.0194C73.7261 55.8705 74.2445 55.6669 74.738 55.4119C75.0215 55.2661 75.0458 54.8368 75.0782 54.4723C75.2159 53.1439 74.9405 53.3221 75.3455 52.9981C76.2527 52.2853 78.7475 51.5887 79.8329 51.2809C80.1974 51.1837 80.7239 51.1027 80.5619 50.7544C80.5105 50.2568 80.3068 49.7873 79.9787 49.4098C78.2696 42.1684 78.5612 42.1927 78.2858 42.2413C78.2671 42.243 78.2489 42.2488 78.2326 42.2583C78.2164 42.2677 78.2024 42.2806 78.1916 42.296C78.1808 42.3114 78.1735 42.329 78.1702 42.3475C78.1668 42.3661 78.1676 42.3851 78.1724 42.4033C78.5369 44.5579 79.0796 47.3443 79.4684 49.2235L78.464 49.0777C78.2939 49.0777 78.1238 49.0777 78.0833 48.9967C77.7593 48.3244 77.897 47.5306 77.1194 47.1418C77.0384 47.0872 76.9469 47.0503 76.8508 47.0335C76.7546 47.0166 76.656 47.0201 76.5613 47.0437C76.4666 47.0674 76.3779 47.1107 76.301 47.1709C76.2242 47.231 76.1608 47.3067 76.115 47.3929C75.6938 48.2029 76.2041 50.0173 76.115 49.993C75.6836 50.1698 75.232 50.2922 74.7704 50.3575C74.7518 50.2833 74.7186 50.2135 74.6727 50.1523C74.6268 50.0911 74.5691 50.0397 74.5031 50.0011C72.8597 49.1979 71.1496 48.5393 69.392 48.0328C69.0113 44.8414 68.5091 40.8238 68.3309 39.4792C68.393 39.4503 68.4504 39.412 68.501 39.3658C68.7868 38.802 68.9965 38.2028 69.1247 37.5838C69.2624 37.7377 69.3758 37.8835 69.6269 37.7863C71.8244 36.1893 73.9009 34.4322 75.8396 32.5294C79.9485 34.2254 83.7372 36.6114 87.0419 39.5845V39.6169ZM76.7873 47.7898C77.3705 48.1219 77.0546 49.1101 77.7107 49.6042C78.3681 49.7969 79.0507 49.8898 79.7357 49.8796C79.8963 50.1467 79.9985 50.4449 80.0354 50.7544C79.4036 50.9488 76.3337 51.6292 75.0539 52.5121C75.0277 51.9007 74.9601 51.2918 74.8514 50.6896C75.5156 50.6329 76.3499 50.6896 76.5929 50.2603C76.8359 49.831 76.4228 47.5711 76.7873 47.7898ZM75.224 32.3998C73.7741 33.6553 70.526 36.3445 69.554 37.0573C69.068 36.5146 67.7963 35.008 67.4399 34.4572C68.2499 33.7606 71.2469 31.7356 71.6843 31.4926C72.8943 31.6363 74.0826 31.9245 75.224 32.3512V32.3998ZM62.4665 31.4359L66.4193 34.4815C65.8199 35.1214 64.3538 36.3931 63.6977 37.0573C62.7743 36.3931 60.2552 33.7282 58.8377 32.254C60.0279 31.9014 61.2402 31.6281 62.4665 31.4359ZM60.2633 20.7115C60.1499 20.5495 60.1337 20.5981 59.3075 20.1607C58.7648 19.7152 58.1087 19.3507 57.8657 18.6865C57.8657 18.1357 58.0358 17.4553 58.6109 17.4877C59.0457 17.5879 59.4491 17.7937 59.7854 18.0871C60.153 18.2077 60.5483 18.2158 60.9206 18.1105C61.2929 18.0051 61.6252 17.7911 61.8752 17.4958C62.1559 16.9903 62.2395 16.3988 62.1101 15.8353C62.643 15.7876 63.1367 15.535 63.4871 15.1306C63.6599 14.781 63.7644 14.4016 63.7949 14.0128C64.5524 14.228 65.3618 14.1678 66.0791 13.8427C66.5694 13.6314 67.0169 13.3322 67.3994 12.9598C67.4842 13.1729 67.5958 13.3743 67.7315 13.5592C67.8575 13.7518 68.033 13.9069 68.2397 14.0081C68.4464 14.1093 68.6766 14.1529 68.906 14.1343C69.1919 14.0889 69.4668 13.99 69.716 13.8427V14.1667C69.7117 14.4151 69.7619 14.6615 69.8631 14.8884C69.9642 15.1154 70.1139 15.3174 70.3015 15.4803C70.4891 15.6432 70.7101 15.7631 70.949 15.8314C71.1879 15.8997 71.4389 15.9149 71.6843 15.8758C71.6793 15.9297 71.6793 15.9839 71.6843 16.0378C71.7653 16.4752 71.5952 17.7955 72.2027 17.9494C72.8102 18.1033 72.4781 16.5886 73.6445 16.4023C73.8541 16.3511 74.0749 16.375 74.2687 16.4697C74.4626 16.5644 74.6171 16.7239 74.7056 16.9207C74.9324 17.6497 74.7056 17.9737 74.3249 18.6946L74.0738 18.9781C73.685 19.3993 73.2638 19.8448 73.2638 20.2498C73.288 21.4888 73.0535 22.7192 72.5753 23.8624C72.1636 25.0212 71.4406 26.0442 70.4855 26.8189C70.438 26.8554 70.4009 26.9039 70.3782 26.9594C70.3554 27.0149 70.3477 27.0754 70.3559 27.1348L71.0201 31.0309L66.8243 33.8821C66.0872 33.3151 67.0673 34.1575 63.0335 31.039L63.4709 27.2725C63.4784 27.2034 63.4655 27.1336 63.4339 27.0717C63.4022 27.0098 63.3531 26.9585 63.2927 26.9242C60.3848 25.2961 60.6116 21.2704 60.2633 20.7115ZM50.8673 36.0205C53.0834 34.4335 55.5466 33.2238 58.1573 32.4403C59.6401 34.1465 61.2167 35.769 62.8796 37.3003C63.236 37.6081 63.6896 37.9888 64.0055 37.6648C64.1189 37.5352 64.289 37.3651 64.4834 37.1707C64.6855 37.8736 64.9234 38.5657 65.1962 39.2443C65.2285 39.3043 65.2723 39.3574 65.3251 39.4005C65.3779 39.4436 65.4387 39.4758 65.504 39.4954C65.4149 40.5403 65.1962 43.5454 64.9451 46.8745C62.3752 46.3229 59.7474 46.0889 57.1205 46.1779C57.1205 45.9673 57.3797 43.4725 57.3878 43.3915C57.3878 42.9541 57.3878 42.379 57.4364 42.1522C57.4461 42.1167 57.4412 42.0789 57.423 42.047C57.4048 42.0151 57.3746 41.9917 57.3392 41.9821C57.3037 41.9724 57.2659 41.9772 57.234 41.9954C57.2021 42.0137 57.1788 42.0438 57.1691 42.0793C56.4482 43.5454 56.5778 44.5822 56.675 46.2022C54.8632 46.2918 53.0873 46.7406 51.4505 47.5225C51.4172 47.5397 51.3921 47.5694 51.3807 47.6051C51.3693 47.6408 51.3726 47.6795 51.3897 47.7128C51.4069 47.7461 51.4366 47.7712 51.4723 47.7826C51.508 47.794 51.5468 47.7908 51.5801 47.7736C57.2501 45.0034 67.5371 47.6278 73.0046 49.9849C73.386 50.1412 73.7567 50.3225 74.1143 50.5276C74.3638 51.8048 74.4401 53.1099 74.3411 54.4075C74.3411 54.772 74.3411 54.8611 73.6931 55.1122C73.2314 55.2985 72.6806 55.4281 72.3404 55.5577C71.2307 55.9708 70.1615 56.3677 69.1004 56.7727C63.1105 58.6952 56.99 60.184 50.7863 61.2277C48.7694 61.2277 46.1126 60.8551 44.6303 59.4619C38.2151 53.4598 44.9219 40.1029 50.8673 36.0205ZM20.5085 29.1598C19.7557 28.7256 19.1127 28.1242 18.6293 27.4021C17.3657 25.4419 17.3495 22.2343 17.5601 19.9177C18.6917 19.5655 19.7204 18.9427 20.5571 18.1033C21.4626 17.1778 22.254 16.1472 22.9142 15.0334L23.3678 14.1586C24.1889 16.259 25.5943 18.0804 27.4178 19.4074C28.0518 19.6976 28.7377 19.8574 29.4347 19.8772C29.4188 20.5124 29.4869 21.147 29.6372 21.7645C29.6534 21.7972 29.6761 21.8262 29.7039 21.8498C29.7317 21.8734 29.7641 21.8911 29.799 21.9017C29.8339 21.9124 29.8706 21.9157 29.9068 21.9116C29.9431 21.9075 29.9781 21.896 30.0098 21.8779C30.3662 21.6835 30.5039 20.6386 31.0547 19.9177C31.2005 19.7152 31.3706 19.5613 31.5812 19.6099C31.8033 19.6439 32.0142 19.7299 32.1968 19.861C33.0068 20.4604 32.3588 22.858 30.8441 23.6032C30.3905 23.83 28.0253 26.584 27.8714 27.4507C27.7701 27.9267 27.7952 28.421 27.9443 28.8844C27.9929 29.5891 28.0739 30.5044 28.1306 31.3144C26.6321 31.3144 22.979 31.3144 21.4805 31.3873C21.5534 29.3866 21.5939 29.5972 20.5085 29.1598ZM35.6393 118.09H29.5238C30.4553 106.555 31.5893 78.2701 31.3463 68.2504C32.4263 68.2018 33.3983 68.137 34.2623 68.056C36.1091 77.6059 37.1378 108.75 35.6393 118.09ZM15.3893 117.353C14.5145 107.689 15.3893 76.3261 17.7059 67.9426C18.1109 67.9993 21.0107 68.2585 21.0107 68.2585C19.7795 78.1567 18.5159 106.563 18.9533 117.668C17.6411 117.571 16.4423 117.45 15.3407 117.353H15.3893ZM24.3479 67.6672L21.3023 67.5457C21.2952 66.6727 21.3575 65.8006 21.4886 64.9375L22.5821 64.8565L24.9473 64.7998C24.8308 65.7711 24.6302 66.7305 24.3479 67.6672ZM14.9681 65.0023L20.8325 64.8889C20.6683 65.7811 20.5923 66.6872 20.6057 67.5943C18.4051 67.5765 16.2111 67.3514 14.0528 66.922C14.6522 65.6098 14.9033 65.1643 14.9681 65.0023ZM21.5696 117.814C21.3023 107.705 22.9466 76.7797 23.9996 68.299C25.1093 68.299 25.9355 68.3557 28.2359 68.299C28.2359 72.1384 27.0857 113.254 26.8184 117.992C25.4333 117.992 21.926 117.839 21.5696 117.814ZM24.9716 67.6753C25.1703 66.7298 25.2681 65.7659 25.2632 64.7998C30.5849 64.7026 35.7932 64.573 38.1422 64.8889C38.4622 65.4532 38.7332 66.044 38.9522 66.6547C34.3757 67.6348 29.2403 67.6753 24.9716 67.6753ZM9.71929 116.235C8.31799 115.344 7.86439 90.2014 9.58159 80.1736C10.455 75.6853 11.9062 71.329 13.8989 67.2136L14.7494 67.3918C12.4814 75.5809 11.5742 105.34 12.7001 116.972C11.6772 116.865 10.6741 116.617 9.71929 116.235ZM21.44 152.685C19.1882 152.993 17.9732 153.171 17.0903 153.365C16.5837 153.413 16.077 153.275 15.6647 152.976C16.3289 152.579 16.4747 152.636 16.4747 152.255C16.5476 150.684 14.9438 121.07 14.7494 117.936C18.443 118.357 23.06 118.584 26.7536 118.689C25.4981 126.416 22.0151 148.724 21.4157 152.709L21.44 152.685ZM39.5678 151.016C37.5104 151.591 36.2225 151.964 35.3558 152.288C34.8598 152.405 34.3379 152.336 33.8897 152.093C34.4729 151.632 34.5944 151.664 34.562 151.283C34.4162 149.663 28.7057 120.366 28.3817 118.738C32.9663 118.835 37.2917 118.786 40.1024 118.592C39.9161 127.688 39.5921 147.306 39.5435 151.04L39.5678 151.016ZM41.6252 73.8961C44.3306 83.4784 44.606 112.776 42.7835 117.482C42.1031 117.822 39.0494 117.952 38.3042 117.984C39.9242 107.9 39.1142 77.4844 37.2593 67.6591C38.0207 67.5376 38.7011 67.408 39.3329 67.2703C40.232 69.7246 41.4146 73.2562 41.6009 73.9204L41.6252 73.8961ZM35.9066 50.2198C35.5583 49.9039 35.2181 49.6204 34.9265 49.3126C34.9039 49.2836 34.8708 49.2647 34.8343 49.2602C34.7979 49.2556 34.7611 49.2657 34.7321 49.2883C34.7031 49.3108 34.6842 49.344 34.6797 49.3804C34.6751 49.4169 34.6852 49.4537 34.7078 49.4827C36.0929 51.7507 38.0126 52.8442 39.0413 53.7757C38.7821 54.7639 38.5148 60.685 38.2313 64.1923C36.0929 63.6982 24.923 64.2814 21.1727 64.2814C21.0872 64.2826 21.0057 64.3175 20.9459 64.3786C17.9975 64.5163 15.6728 64.654 15.0248 64.6945C14.636 63.7873 14.15 62.3212 13.8503 61.3897C15.1638 61.6255 16.5098 61.6146 17.8193 61.3573C17.8418 61.8497 17.9487 62.3347 18.1352 62.791C18.5402 63.1474 32.0186 62.1835 32.4479 62.0944C32.7395 62.0296 32.7476 61.6246 32.7719 61.2844C32.8448 60.4744 32.8934 58.6924 32.9258 56.6026C33.0512 56.5526 33.1642 56.4759 33.257 56.378C33.3498 56.28 33.4202 56.163 33.4633 56.0351C33.5065 55.9072 33.5213 55.7715 33.5068 55.6373C33.4923 55.5031 33.4488 55.3737 33.3794 55.258C33.4741 55.1373 33.5432 54.9986 33.5824 54.8503C33.6216 54.702 33.6301 54.5473 33.6074 54.3956C33.5846 54.2439 33.5311 54.0984 33.4501 53.9681C33.3691 53.8379 33.2624 53.7255 33.1364 53.638C33.2411 53.5359 33.3208 53.4109 33.3692 53.2729C33.4175 53.1349 33.4333 52.9876 33.4153 52.8425C33.3972 52.6973 33.3459 52.5584 33.2652 52.4364C33.1845 52.3144 33.0766 52.2128 32.9501 52.1395C32.9501 49.2154 32.9501 46.3642 32.8448 44.7685C32.7962 43.4563 32.7557 43.3105 32.5532 43.1485C32.1563 42.9055 30.4472 43.0027 29.6777 43.0351C29.6883 42.6916 29.5952 42.3528 29.4104 42.0631C29.0378 41.6986 27.3935 42.0631 26.4377 42.0631C26.2271 41.3908 26.1218 40.8886 25.3766 40.5403C25.0098 40.4107 24.6079 40.4218 24.2488 40.5714C23.8897 40.7211 23.5989 40.9986 23.4326 41.3503C23.4326 41.4313 23.1977 42.0955 23.1491 42.3142C22.2799 42.3799 21.4148 42.4908 20.5571 42.6463C20.2493 42.7435 20.225 43.3915 20.2169 43.8451C17.1308 44.1691 16.9283 44.1691 16.8716 44.485C16.8149 44.8009 17.0417 49.9525 17.0579 50.3818C16.3005 50.4779 15.5508 50.6268 14.8142 50.8273C14.9675 49.8213 15.0594 48.8069 15.0896 47.7898C15.0896 47.3443 15.1301 45.4408 14.8628 45.4327C14.5955 45.4246 14.4335 47.2957 14.4092 47.6683C14.3606 48.2353 14.2877 50.3494 14.3282 50.9812C13.988 51.0865 13.664 51.1999 13.3319 51.3295C13.2975 51.3424 13.2697 51.3684 13.2545 51.4018C13.2393 51.4352 13.238 51.4733 13.2509 51.5077C13.2638 51.542 13.2898 51.5699 13.3232 51.5851C13.3566 51.6003 13.3947 51.6016 13.4291 51.5887C18.0056 50.0092 24.2021 50.8921 27.596 52.5931L27.7499 56.0032C24.8177 58.0525 20.1521 60.5878 16.5881 61.0414C15.537 61.1629 14.4743 61.1411 13.4291 60.9766C7.28929 60.1828 4.12219 55.7845 4.56769 49.4665C4.91599 44.5498 6.47929 39.7951 10.2539 36.6442C12.6839 34.6273 17.3252 33.9388 20.4842 34.2142C21.2942 34.279 20.8568 32.5294 21.0674 31.8976C21.3752 31.849 22.3553 31.8328 22.6874 31.8247C22.6472 32.3829 22.6472 32.9432 22.6874 33.5014C22.6874 33.7363 22.8575 34.6192 23.0681 34.5544C23.2787 34.4896 23.3597 33.8011 23.3678 33.6067C23.3759 33.4123 23.3678 33.388 23.2949 31.8247H25.9922C25.9596 32.3642 25.9596 32.9052 25.9922 33.4447C25.9922 33.6796 26.1623 34.5625 26.3729 34.4977C26.5835 34.4329 26.6645 33.7444 26.6726 33.55C26.6807 33.3556 26.6726 32.9506 26.5997 31.8409H28.5761C28.6571 32.1034 28.7008 32.3761 28.7057 32.6509C28.7057 33.5905 28.5437 33.7282 28.7057 33.9145C29.1431 34.4086 33.1121 32.4484 44.7194 42.1117C42.5567 45.7567 40.8476 50.5276 41.4794 54.7315C39.5921 53.4598 39.9566 53.8567 35.9066 50.2198ZM17.6411 50.2927C17.5601 47.5792 17.4953 45.1006 17.4953 44.8009C18.1352 44.7037 19.5851 44.5579 20.225 44.4931C20.225 45.6838 20.2736 45.7648 21.035 45.8458C22.4849 46.0159 28.8758 45.8458 29.5481 45.2707C29.6091 45.2213 29.6565 45.1572 29.6858 45.0844C29.7371 44.6381 29.748 44.188 29.7182 43.7398C30.5087 43.6952 31.301 43.6952 32.0915 43.7398C32.2454 45.1816 32.2616 50.5033 32.2616 51.9532C31.9574 51.9559 31.655 51.9995 31.3625 52.0828C31.4759 51.4186 31.646 50.3413 30.9737 50.1955C30.7937 50.144 30.6026 50.1465 30.4241 50.2027C30.2455 50.2588 30.0874 50.3662 29.9693 50.5114C29.6185 51.0524 29.4121 51.6743 29.3699 52.3177C28.999 52.3189 28.6284 52.2973 28.2602 52.2529C28.2477 52.2091 28.226 52.1684 28.1967 52.1335C28.1674 52.0986 28.1311 52.0703 28.0901 52.0504C24.8278 50.5386 21.2167 49.9395 17.6411 50.317V50.2927ZM32.8691 54.772C32.5532 54.9583 32.3507 54.8287 31.7837 54.9016C31.6956 54.9016 31.6111 54.9366 31.5489 54.9988C31.4866 55.0611 31.4516 55.1456 31.4516 55.2337C31.4516 55.3218 31.4866 55.4062 31.5489 55.4685C31.6111 55.5308 31.6956 55.5658 31.7837 55.5658C32.053 55.5933 32.3244 55.5933 32.5937 55.5658C32.6585 55.5658 32.8934 55.6144 32.8934 55.6792C32.8934 56.4163 31.4435 56.1328 30.8036 55.7602C30.0109 55.7116 29.2154 55.7881 28.4465 55.987L28.2845 52.6498C28.7252 52.7678 29.1848 52.7981 29.6372 52.7389C29.6999 52.7038 29.7464 52.6457 29.7668 52.5769C29.9531 51.8965 30.107 50.641 30.8198 50.8192C30.8617 51.3292 30.8095 51.8427 30.6659 52.3339C30.5849 52.8361 30.7793 52.9495 31.16 52.9171C31.5002 52.7643 31.8651 52.6737 32.2373 52.6498C32.4479 52.6498 32.6585 52.6498 32.7233 52.8928C32.7881 53.1358 32.5775 53.2249 32.375 53.2978C32.1725 53.3707 31.3787 53.4841 31.2977 53.5003C31.2176 53.5255 31.1493 53.5788 31.1054 53.6504C31.0615 53.7219 31.045 53.8069 31.0588 53.8898C31.0726 53.9726 31.1158 54.0476 31.1806 54.1011C31.2453 54.1545 31.3272 54.1828 31.4111 54.1807C32.3912 54.0754 32.2211 54.0268 32.5127 54.0916C32.6397 54.1213 32.7525 54.194 32.8322 54.2973C32.9119 54.4006 32.9535 54.5282 32.9501 54.6586C32.9515 54.6869 32.9445 54.7151 32.9301 54.7395C32.9157 54.764 32.8945 54.7837 32.8691 54.7963V54.772ZM28.406 56.3191C29.1203 56.2245 29.84 56.1758 30.5606 56.1733C31.0662 56.4925 31.6477 56.6714 32.2454 56.6917C32.2454 58.1416 32.2454 60.7417 32.1482 61.5031C30.3824 61.6894 20.0873 62.6938 18.3215 62.5318C18.228 62.1158 18.1657 61.6934 18.1352 61.2682C22.6064 60.3448 28.1792 56.7727 28.406 56.3434V56.3191ZM57.566 155.552C56.6428 155.612 55.7157 155.563 54.8039 155.406V155.001C54.7945 154.904 54.7481 154.814 54.6743 154.75C54.4556 154.58 54.6257 154.702 48.9557 155.423L47.1008 155.633C46.9226 155.633 46.7201 155.722 46.7201 155.633C46.2827 155.52 45.6428 154.75 45.9101 154.467C47.4238 153.252 49.0207 152.145 50.6891 151.154C53.2082 151.454 56.2214 151.664 58.0844 151.721C58.0019 153.016 57.8315 154.304 57.5741 155.576L57.566 155.552ZM84.9359 150.887C85.6892 150.887 86.4425 150.846 87.1634 150.806C88.2569 151.478 91.8695 153.705 92.7605 154.621C92.9063 154.775 92.7605 155.074 92.6309 155.244C92.1125 155.957 91.7156 155.779 91.5698 155.763C90.1928 155.649 85.6325 155.009 84.2798 154.815C84.2328 154.808 84.1848 154.811 84.139 154.824C84.0931 154.836 84.0503 154.858 84.0131 154.887C83.9759 154.917 83.9452 154.954 83.9228 154.996C83.9004 155.038 83.8868 155.084 83.8829 155.131V155.536C82.9747 155.7 82.0497 155.752 81.1289 155.69C80.8013 154.112 80.6331 152.506 80.6267 150.895C80.6105 150.66 80.3675 150.992 84.944 150.911L84.9359 150.887ZM80.9993 69.1738C76.844 69.1738 57.08 69.6679 53.7104 70.0486C53.6294 68.6716 52.6898 63.0097 52.463 61.6489C56.3723 60.9761 60.244 60.1001 64.0622 59.0245C63.967 59.5753 63.9425 60.136 63.9893 60.6931C64.9656 61.872 66.0504 62.9568 67.2293 63.9331C67.2902 63.9812 67.3631 64.0119 67.4402 64.0219C67.5172 64.0319 67.5955 64.0208 67.6667 63.9898C68.8249 63.0229 69.818 61.8738 70.607 60.5878C70.6407 59.9178 70.5945 59.2461 70.4693 58.5871C72.7211 59.3971 78.8285 60.6769 81.8903 60.6283C81.7445 62.305 81.1289 68.3152 80.9993 69.1738ZM89.5853 76.6501C91.6589 62.3698 93.5948 57.6394 93.6353 56.5864C94.9187 56.0283 96.1138 55.2861 97.1831 54.3832C97.6034 54.0102 97.9984 53.6097 98.3657 53.1844C98.5034 53.0548 98.3171 52.8523 98.1875 52.9738C98.0579 53.0953 97.742 53.2654 97.5152 53.4112C94.7612 55.258 94.1294 55.9303 90.8975 57.0805C91.6034 56.3833 92.1385 55.5322 92.4608 54.5938C93.8783 49.8067 91.9262 44.8738 88.8239 40.9939C92.5232 38.7087 96.4583 36.8295 100.561 35.3887C102.179 34.8463 103.836 34.4293 105.518 34.1413C105.579 34.4958 105.691 34.8395 105.85 35.1619C107.146 43.1242 104.586 66.2983 103.064 73.9933C102.181 78.4645 100.496 84.985 98.5601 89.1565C98.431 89.4657 98.2765 89.7637 98.0984 90.0475C97.0778 90.3877 89.9174 89.7883 88.8077 89.683C87.9815 88.1845 89.3504 78.3835 89.6015 76.6501H89.5853ZM123.848 151.17H117.7C117.7 150.927 113.132 118.616 113.002 118.171C113.521 114.842 117.052 96.9811 116.931 92.518C116.931 92.4815 116.916 92.4464 116.891 92.4206C116.865 92.3948 116.83 92.3803 116.793 92.3803C116.757 92.3803 116.722 92.3948 116.696 92.4206C116.67 92.4464 116.655 92.4815 116.655 92.518C116.655 92.9878 116.51 93.895 116.315 95.1019C113.31 113.861 111.002 124.667 105.834 150.619L99.5807 150.554C95.4821 124.634 93.4733 112.063 93.368 90.7603C94.2266 90.8089 97.7906 91.0357 98.4791 90.6874C98.7221 90.5659 98.9732 90.0232 99.1271 89.7073C100.343 86.9313 101.345 84.0663 102.124 81.1375C107.673 81.4453 121.929 82.1095 124.383 82.2391C125.428 87.1639 125.501 87.4474 125.792 87.5527C126.719 87.789 127.665 87.9382 128.619 87.9982C128.684 104.417 127.825 135.189 123.864 151.13L123.848 151.17ZM154.628 27.5317C153.51 30.148 151.129 43.2376 140.226 50.884C138.096 52.3744 134.216 52.909 131.624 52.9819C131.507 51.7079 131.263 50.4489 130.895 49.2235C130.733 48.7213 130.49 48.13 130.344 47.7736C130.329 47.744 130.304 47.7205 130.274 47.7069C130.244 47.6934 130.21 47.6906 130.177 47.6992C130.145 47.7077 130.117 47.7269 130.097 47.7537C130.078 47.7805 130.068 47.8132 130.069 47.8465C130.515 51.3943 130.587 50.1388 131.073 53.3464C131.073 53.3464 132.41 62.3941 132.459 62.8396C133.082 68.5096 133.479 85.147 132.847 87.4555C130.611 87.5079 128.375 87.3343 126.173 86.9371C125.306 84.0454 116.826 42.0388 116.639 34.9432C118.786 35.332 127.064 38.3128 133.998 38.5315C140.186 38.7178 149.493 25.5715 149.574 25.5715C150.214 25.4581 153.745 26.9566 154.636 27.4912L154.628 27.5317ZM157.342 21.6268C157.277 22.6717 156.062 23.3764 155.163 23.9272C154.847 24.1297 154.134 26.5354 154.045 26.8756C152.925 26.3526 151.776 25.8955 150.603 25.5067C151.413 24.2755 152.117 23.6275 151.809 23.3359C151.251 22.8256 150.189 22.1371 150.74 21.562C150.808 21.5768 150.874 21.6013 150.935 21.6349C151.704 21.9994 152.32 22.9876 152.652 22.3801C152.8 21.6662 153.003 20.9649 153.259 20.2822C153.689 19.2859 153.956 19.4722 153.851 20.4442C153.759 21.1085 153.593 21.7606 153.357 22.3882C153.329 22.4763 153.337 22.5718 153.379 22.6538C153.422 22.7359 153.495 22.7976 153.583 22.8256C153.671 22.8535 153.767 22.8453 153.849 22.8028C153.931 22.7602 153.993 22.6869 154.021 22.5988C154.223 21.882 154.526 21.1975 154.92 20.5657C155.317 19.9825 155.795 19.8367 155.778 20.2336C155.652 20.9451 155.376 21.6216 154.968 22.2181C154.864 22.3636 154.8 22.534 154.782 22.7122C154.769 22.7878 154.783 22.8657 154.82 22.9325C154.858 22.9994 154.918 23.051 154.99 23.0787C155.061 23.1064 155.14 23.1084 155.213 23.0844C155.286 23.0604 155.348 23.0119 155.39 22.9471C155.633 22.607 155.904 22.2873 156.2 21.9913C156.678 21.5215 157.374 21.1975 157.35 21.5863L157.342 21.6268Z" fill="#7743DC"/>
<path id="Vector_3" d="M66.1187 22.2591C66.4508 23.0124 68.2652 22.5426 67.9088 22.1619C67.883 22.1362 67.8481 22.1218 67.8116 22.1218C67.7752 22.1218 67.7402 22.1362 67.7144 22.1619C67.6065 22.1966 67.4903 22.1966 67.3823 22.1619C67.1613 22.1302 66.9459 22.0675 66.7424 21.9756V18.93C66.7348 18.8982 66.7166 18.8699 66.6909 18.8496C66.6652 18.8294 66.6334 18.8184 66.6007 18.8184C66.568 18.8184 66.5362 18.8294 66.5105 18.8496C66.4848 18.8699 66.4666 18.8982 66.4589 18.93C66.1682 19.8148 66.0446 20.7459 66.0944 21.6759C66.0741 21.8705 66.0823 22.067 66.1187 22.2591ZM63.7697 20.2503C63.7697 20.0316 63.7697 19.7967 63.7211 19.5942C63.7052 19.5039 63.6551 19.4232 63.5812 19.3688C63.5072 19.3145 63.4152 19.2908 63.3242 19.3026C63.2782 19.3095 63.2341 19.3255 63.1943 19.3497C63.1546 19.3739 63.1202 19.4059 63.093 19.4436C63.0658 19.4814 63.0465 19.5242 63.0361 19.5695C63.0257 19.6149 63.0246 19.6618 63.0326 19.7076C63.0326 19.8534 63.0326 20.0235 63.0731 20.2989C63.0763 20.3447 63.0885 20.3893 63.109 20.4304C63.1294 20.4714 63.1577 20.508 63.1923 20.5381C63.2269 20.5682 63.2671 20.5912 63.3106 20.6057C63.3541 20.6203 63.4 20.6261 63.4457 20.6229C63.4915 20.6197 63.5361 20.6076 63.5772 20.5871C63.6182 20.5667 63.6548 20.5383 63.6849 20.5037C63.715 20.4691 63.738 20.429 63.7525 20.3855C63.7671 20.342 63.7729 20.2961 63.7697 20.2503ZM69.2372 20.1936C69.2372 20.286 69.2739 20.3746 69.3393 20.4399C69.4046 20.5052 69.4932 20.5419 69.5855 20.5419C69.6779 20.5419 69.7665 20.5052 69.8318 20.4399C69.8971 20.3746 69.9338 20.286 69.9338 20.1936V19.8291C69.9802 19.7634 70.003 19.6839 69.9984 19.6035C69.9938 19.5232 69.9622 19.4468 69.9087 19.3867C69.8552 19.3266 69.7829 19.2864 69.7037 19.2726C69.6244 19.2588 69.5428 19.2723 69.4721 19.3107C69.1562 19.5132 69.2372 19.9182 69.2372 20.1936ZM67.601 25.1994C67.3098 25.3616 67.0032 25.4945 66.6857 25.5963C66.5075 25.5963 66.467 25.8474 66.6857 25.8717C66.8915 25.9751 67.1198 26.0252 67.3499 26.0175C67.5849 25.9897 67.8106 25.909 68.0098 25.7813C68.2091 25.6536 68.3767 25.4823 68.5001 25.2804C68.6003 25.0655 68.6422 24.8281 68.6216 24.5919C68.6292 24.5554 68.6219 24.5174 68.6014 24.4863C68.5808 24.4551 68.5488 24.4334 68.5123 24.4259C68.4758 24.4184 68.4378 24.4257 68.4066 24.4462C68.3755 24.4667 68.3538 24.4987 68.3462 24.5352C68.1251 24.7854 67.8749 25.0084 67.601 25.1994ZM112.815 25.7502C113.431 25.9446 114.435 26.0742 114.865 25.5882C115.294 25.1022 115.059 23.8386 115.01 23.304C114.909 22.2542 114.681 21.2206 114.33 20.226C114.322 20.1895 114.301 20.1575 114.27 20.137C114.238 20.1165 114.2 20.1092 114.164 20.1167C114.127 20.1242 114.095 20.1459 114.075 20.1771C114.054 20.2082 114.047 20.2462 114.055 20.2827C114.055 20.5338 114.168 21.7731 114.192 22.089C114.347 23.1208 114.401 24.1652 114.354 25.2075C114.173 25.3304 113.964 25.4082 113.747 25.4343C112.937 25.572 112.75 25.3776 112.71 25.5882C112.705 25.6058 112.704 25.6242 112.707 25.6423C112.71 25.6603 112.716 25.6775 112.726 25.6928C112.736 25.7081 112.749 25.7211 112.765 25.731C112.78 25.7409 112.797 25.7475 112.815 25.7502ZM111.446 20.4123C111.446 20.1531 110.701 20.0235 110.215 20.1288C109.729 20.2341 109.065 20.7444 109.251 20.9388C109.438 21.1332 111.414 20.6472 111.446 20.4123ZM110.912 22.3482V23.0448C110.912 23.1372 110.948 23.2258 111.014 23.2911C111.079 23.3564 111.168 23.3931 111.26 23.3931C111.352 23.3931 111.441 23.3564 111.506 23.2911C111.572 23.2258 111.608 23.1372 111.608 23.0448V22.3725C111.611 22.2794 111.576 22.189 111.513 22.1209C111.449 22.0528 111.361 22.0122 111.268 22.008C111.176 22.0079 111.088 22.0433 111.022 22.1066C110.955 22.17 110.916 22.2565 110.912 22.3482ZM117.821 20.7444C117.886 20.6472 117.627 20.1288 117.011 19.9344C116.395 19.74 115.926 20.0478 115.926 20.1936C115.926 20.3394 117.7 20.9226 117.821 20.7444ZM110.563 27.4836C110.377 27.5403 110.377 28.7067 111.487 29.0388C112.054 29.2008 112.823 29.1117 112.84 28.9092C112.856 28.7067 111.738 28.4637 111.373 28.2126C111.009 27.9615 110.717 27.435 110.563 27.4836ZM116.711 21.8703C116.666 21.8693 116.62 21.8772 116.577 21.8937C116.535 21.9102 116.496 21.935 116.463 21.9666C116.43 21.9982 116.403 22.036 116.385 22.0778C116.366 22.1197 116.356 22.1648 116.355 22.2105V22.899C116.368 22.9833 116.41 23.0602 116.475 23.1157C116.54 23.1713 116.622 23.2019 116.707 23.2019C116.793 23.2019 116.875 23.1713 116.94 23.1157C117.004 23.0602 117.047 22.9833 117.06 22.899V22.2267C117.061 22.1803 117.053 22.1342 117.035 22.091C117.018 22.0478 116.993 22.0084 116.961 21.9752C116.928 21.942 116.889 21.9156 116.847 21.8976C116.804 21.8796 116.758 21.8703 116.711 21.8703Z" fill="black"/>
</g>
</g>
</svg>
