<svg width="57" height="56" viewBox="0 0 57 56" fill="none" xmlns="http://www.w3.org/2000/svg">
<mask id="mask0_563_26472" style="mask-type:alpha" maskUnits="userSpaceOnUse" x="0" y="0" width="57" height="56">
<rect x="0.333984" width="56" height="56" fill="#7743DC"/>
</mask>
<g mask="url(#mask0_563_26472)">
<path d="M27.4366 47.5643V29.4047H26.8981C24.7084 29.4047 22.6428 28.9956 20.7014 28.1775C18.7601 27.3593 17.022 26.1799 15.4872 24.6393C13.9855 23.0987 12.8421 21.3218 12.0568 19.3086C11.2715 17.2953 10.8789 15.1968 10.8789 13.013V10.6797H13.1645C15.281 10.6797 17.3255 11.0976 19.298 11.9334C21.2706 12.7692 23.0217 13.9547 24.5514 15.4899C25.8347 16.7822 26.8645 18.26 27.6408 19.9232C28.4171 21.5865 28.9204 23.332 29.1507 25.1598C29.5079 24.4278 29.9339 23.7261 30.4285 23.0549C30.9231 22.3836 31.4664 21.7465 32.0584 21.1438C33.5949 19.6086 35.351 18.4231 37.3265 17.5872C39.302 16.7514 41.3776 16.3335 43.5531 16.3335H45.834V18.6669C45.834 20.8531 45.4219 22.9539 44.5976 24.9693C43.7733 26.9848 42.6041 28.7611 41.0901 30.2983C39.5532 31.8355 37.8046 33.0034 35.8443 33.8021C33.884 34.6008 31.8353 35.0002 29.6982 35.0002H29.2315V47.5643H27.4366ZM27.4949 27.5515C27.4949 25.4485 27.1285 23.4734 26.3956 21.6262C25.6627 19.7789 24.6157 18.1755 23.2546 16.8159C21.9234 15.4263 20.3409 14.3554 18.5071 13.6031C16.6733 12.8507 14.7289 12.4745 12.6738 12.4745C12.6738 14.6254 13.026 16.6319 13.7305 18.4941C14.435 20.3563 15.4678 21.9619 16.8289 23.3111C18.2828 24.8517 19.9004 25.9436 21.6818 26.5867C23.4632 27.2299 25.4009 27.5515 27.4949 27.5515ZM29.2315 33.2053C31.2956 33.2053 33.2446 32.8411 35.0783 32.1127C36.912 31.3843 38.4945 30.3253 39.8257 28.9358C41.1868 27.6061 42.2294 26.0101 42.9533 24.148C43.6772 22.2858 44.0392 20.2793 44.0392 18.1284C41.9452 18.1284 39.9813 18.5046 38.1475 19.2569C36.3138 20.0092 34.7313 21.0705 33.4001 22.4406C31.9074 23.9512 30.8394 25.607 30.1962 27.4079C29.5531 29.2087 29.2315 31.1412 29.2315 33.2053Z" fill="#7743DC"/>
</g>
</svg>
