<svg width="71" height="70" viewBox="0 0 71 70" fill="none" xmlns="http://www.w3.org/2000/svg">
<mask id="mask0_6_285" style="mask-type:alpha" maskUnits="userSpaceOnUse" x="0" y="0" width="63" height="63">
<path d="M62.473 0H0V62.473H62.473V0Z" fill="#7743DC"/>
</mask>
<g mask="url(#mask0_6_285)">
<path d="M17.2996 45.4387V22.8272H19.302V45.4387H17.2996ZM30.345 45.4387V22.8272H32.3472V45.4387H30.345ZM9.21021 52.0463V50.044H53.2617V52.0463H9.21021ZM43.1699 45.4387V22.8272H45.1723V45.4387H43.1699ZM9.21021 18.2219V16.8253L31.236 5.49194L53.2617 16.8253V18.2219H9.21021ZM14.7767 16.2195H47.6952L31.236 7.77963L14.7767 16.2195Z" fill="#7743DC"/>
</g>
<path d="M52.4413 57C52.4413 53.7574 52.5924 50.0273 54.8909 47.4709C55.3864 46.9198 54.0521 48.6972 53.7197 49.3587C53.2859 50.222 52.8865 51.1321 52.5897 52.0508C52.3328 52.8463 51.9751 53.6287 51.534 54.3407C51.1166 55.0146 50.5948 55.8424 49.9504 56.3188C49.7275 56.4836 49.6822 56.3609 49.7277 56.1054C49.8895 55.1961 50.123 54.2668 50.3793 53.3804C50.8943 51.5995 51.5301 49.8657 52.2351 48.1521C52.4616 47.6015 52.6771 47.0426 52.9444 46.5106C53.2349 45.9325 52.5501 46.6515 52.4083 46.7814C50.6867 48.3586 48.7102 50.0806 47.8554 52.3134C47.6443 52.8649 47.379 53.3964 47.1873 53.955C47.0311 54.4102 46.9464 54.8923 46.7832 55.342C46.7279 55.4945 46.5892 55.9687 46.445 56.0643C46.4376 56.0693 46.4285 55.7339 46.4285 55.7278C46.4285 55.4926 46.422 55.2564 46.445 55.0219C46.6701 52.7259 48.4738 50.8104 49.8267 49.055C50.7619 47.8415 51.7836 46.6748 52.7712 45.5134C52.8549 45.4149 52.9318 45.0779 52.9898 45.1933C53.0658 45.3446 52.0645 46.4122 51.9588 46.5475C51.1245 47.6149 50.2737 48.7187 49.6947 49.9496C49.2401 50.916 48.5841 51.7116 47.9544 52.5638C47.4938 53.1871 47.1481 53.886 46.6471 54.4843C46.098 55.14 45.2373 55.9322 44.4243 56.2244C44.3449 56.2529 43.6394 56.6221 43.616 56.5814C43.487 56.3568 43.8092 55.7147 43.8634 55.4939C44.0166 54.8705 44.1263 54.2425 44.3212 53.6307C44.7512 52.2813 45.5376 50.9721 46.445 49.8922C47.7927 48.2883 49.0885 46.6185 50.2886 44.9019C50.512 44.5823 49.8632 45.5568 49.6205 45.8622C48.9469 46.7096 48.2391 47.5621 47.6905 48.4968C46.5516 50.437 45.6261 52.5157 44.2923 54.3407C43.9701 54.7815 43.7125 55.2619 43.3273 55.6539C43.2743 55.7079 43.0206 56.0069 42.9397 56.0069C42.9126 56.0069 43.2252 54.6735 43.2531 54.5459C43.4144 53.8075 43.814 53.1258 44.1109 52.4365C44.6624 51.1559 45.4359 49.9063 46.2017 48.7431C47.2034 47.2216 48.5585 45.9256 49.7195 44.5284C50.0348 44.1489 50.3888 43.7952 50.6927 43.4081C50.7635 43.3179 51.3053 42.7581 51.2701 42.653C51.2546 42.6069 51.186 42.7026 51.1464 42.731C50.9578 42.8659 50.9572 42.8701 50.7422 43.0182C50.2323 43.3695 49.721 43.7117 49.2328 44.0934C47.9011 45.1347 46.6626 46.293 45.3728 47.3847C43.7973 48.7182 42.2025 50.1356 41.1664 51.94C40.4896 53.1185 39.9488 54.4921 39.492 55.773C39.373 56.1068 39.0849 56.4037 39.0095 56.7415C38.9622 56.9535 39.1063 56.4459 39.1167 56.409C39.2578 55.9099 39.5005 55.4878 39.7477 55.0343C39.9938 54.5828 40.1488 54.0616 40.4282 53.6307C40.8143 53.0352 41.3326 52.4982 41.7849 51.9523C42.4612 51.1362 43.2473 50.3774 43.9789 49.609C44.55 49.0091 45.0264 48.3002 45.5419 47.6515C46.3967 46.5756 47.3513 45.5894 48.206 44.5161C48.5856 44.0395 49.0774 43.5205 49.3566 42.9649C49.6229 42.4347 49.003 42.9711 48.7998 43.1126C48.348 43.4273 47.7809 43.7207 47.2822 43.958C46.4464 44.3558 45.8776 45.0644 45.2408 45.698C44.8735 46.0636 44.5867 46.4826 44.2181 46.8635C44.0434 47.0441 43.6655 47.6977 43.7727 47.4709C44.0592 46.865 44.5213 46.4181 44.9604 45.9196C46.6739 43.9747 48.3767 41.9865 50.2143 40.1579C50.5283 39.8454 50.3136 40.0621 50.1236 40.2481C49.5975 40.7632 49.0292 41.2407 48.4823 41.7337C46.801 43.2493 45.373 44.9838 43.7727 46.5763C43.2538 47.0927 42.7551 47.6638 42.2716 48.2137C42.088 48.4225 41.6351 49.1076 41.7272 48.8457C42.021 48.0103 42.3955 47.0812 43.0593 46.4696C43.6382 45.9361 44.3652 45.5867 44.981 45.1071C45.8717 44.4134 46.7782 43.7355 47.6534 43.0387C48.0277 42.7407 48.2862 42.2991 48.7297 42.0784" stroke="#F5F5F5" stroke-width="4" stroke-linecap="round"/>
<path d="M43.3155 45.1688C44.6601 42.5956 46.0466 40.3124 47.9903 38.1099C48.308 37.7498 49.4254 36.8359 49.0715 37.1599C48.1379 38.0149 47.0546 38.979 46.3155 40.0097C45.6475 40.9413 44.6314 41.6323 43.8277 42.4419C43.1644 43.1101 42.5132 43.7659 41.8522 44.4318C41.4798 44.8069 41.0396 45.1274 40.6977 45.5292C40.5572 45.6943 40.2615 46.2593 40.4782 45.7257C41.2078 43.9292 42.3937 42.0549 43.7546 40.6649C44.6105 39.7905 45.7981 39.013 46.4212 37.9461C46.6179 37.6092 47.206 37.4176 47.4862 37.1354C47.8725 36.7463 48.4301 36.5107 47.7057 37.0944C46.9903 37.6709 46.2508 38.5017 45.6488 39.199C44.6614 40.3428 43.4106 41.1744 42.657 42.5238C42.3767 43.0258 41.9165 43.8488 41.8522 44.4318C41.835 44.587 41.5812 45.3872 41.4863 45.4636C41.3514 45.5723 41.0251 46.3157 40.9741 46.4955C40.7901 47.1443 40.319 47.6676 40.0148 48.2643C39.095 50.0686 38.4345 52.0483 37.6246 53.9065C37.1918 54.8995 36.6129 55.7792 36.1449 56.7481C36.0256 56.9953 35.9139 57.1482 36.0962 56.7809C36.5908 55.7844 37.2035 54.8314 37.7547 53.8656C39.8594 50.1773 42.8123 47.045 45.6895 43.9569C47.6143 41.8909 50.1052 39.9155 51.5105 37.4384C51.6397 37.2106 52.4131 36.6004 51.7056 36.857C50.306 37.3645 49.0963 38.3576 47.9171 39.24C47.2119 39.7676 46.2567 39.7377 45.4537 40.1571C45.3343 40.2195 44.3844 40.8933 44.2261 40.714C43.7309 40.1529 46.9686 37.0671 47.2342 36.7996C47.58 36.4513 47.9174 36.2299 48.3642 36.0299C48.6214 35.9147 48.1447 36.1475 48.1447 36.4721" stroke="#F5F5F5" stroke-width="4" stroke-linecap="round"/>
<mask id="mask1_6_285" style="mask-type:alpha" maskUnits="userSpaceOnUse" x="33" y="32" width="38" height="38">
<rect x="33" y="32" width="37.2973" height="37.2973" fill="#D9D9D9"/>
</mask>
<g mask="url(#mask1_6_285)">
<path d="M51.6486 64.6351C47.7376 64.6351 44.4287 64.0329 41.7221 62.8285C39.0154 61.6241 37.6621 60.1542 37.6621 58.4189V42.8783C37.6621 41.1689 39.0284 39.7055 41.7609 38.4881C44.4935 37.2708 47.7894 36.6621 51.6486 36.6621C55.5078 36.6621 58.8037 37.2708 61.5363 38.4881C64.2688 39.7055 65.6351 41.1689 65.6351 42.8783V58.4189C65.6351 60.1542 64.2818 61.6241 61.5751 62.8285C58.8685 64.0329 55.5596 64.6351 51.6486 64.6351ZM51.6486 45.7922C53.902 45.7922 56.1985 45.4533 58.5382 44.7756C60.878 44.0978 62.3198 43.3488 62.8637 42.5287C62.3025 41.7257 60.8542 40.9789 58.5188 40.2882C56.1834 39.5975 53.8933 39.2522 51.6486 39.2522C49.3434 39.2522 47.0447 39.5867 44.7525 40.2559C42.4603 40.925 41.012 41.6826 40.4076 42.5287C41.012 43.392 42.4516 44.1518 44.7266 44.808C47.0015 45.4641 49.3089 45.7922 51.6486 45.7922ZM51.6227 53.9121C52.7105 53.9121 53.7854 53.856 54.8473 53.7438C55.9093 53.6315 56.9259 53.4653 57.8972 53.2451C58.8685 53.025 59.7923 52.7552 60.6686 52.4358C61.5449 52.1163 62.337 51.758 63.045 51.3609V45.7921C62.3198 46.1893 61.519 46.5476 60.6427 46.867C59.7664 47.1865 58.8383 47.4563 57.8583 47.6764C56.8784 47.8966 55.8661 48.0671 54.8215 48.188C53.7768 48.3089 52.7105 48.3693 51.6227 48.3693C50.5348 48.3693 49.4556 48.3089 48.3851 48.188C47.3145 48.0671 46.2936 47.8966 45.3223 47.6764C44.351 47.4563 43.4337 47.1865 42.5703 46.867C41.707 46.5476 40.9342 46.1893 40.2522 45.7921V51.3609C40.9342 51.758 41.7026 52.1163 42.5574 52.4358C43.4121 52.7552 44.3251 53.025 45.2964 53.2451C46.2677 53.4653 47.2886 53.6315 48.3592 53.7438C49.4298 53.856 50.5176 53.9121 51.6227 53.9121ZM51.6486 62.045C52.8746 62.045 54.1329 61.9414 55.4237 61.7342C56.7144 61.527 57.8994 61.2529 58.9786 60.9118C60.0578 60.5708 60.9686 60.1909 61.7111 59.7722C62.4536 59.3535 62.8982 58.9239 63.045 58.4836V53.9768C62.337 54.374 61.5449 54.728 60.6686 55.0388C59.7923 55.3496 58.8685 55.6151 57.8972 55.8353C56.9259 56.0554 55.9136 56.2216 54.8603 56.3338C53.807 56.4461 52.7278 56.5022 51.6227 56.5022C50.5176 56.5022 49.4298 56.4461 48.3592 56.3338C47.2886 56.2216 46.2677 56.0554 45.2964 55.8353C44.3251 55.6151 43.4121 55.3496 42.5574 55.0388C41.7026 54.728 40.9342 54.374 40.2522 53.9768V58.5225C40.3817 58.9455 40.8112 59.3686 41.5408 59.7916C42.2703 60.2147 43.179 60.5924 44.2668 60.9248C45.3547 61.2572 46.5461 61.527 47.8412 61.7342C49.1362 61.9414 50.4054 62.045 51.6486 62.045Z" fill="#7743DC"/>
</g>
</svg>
