<svg width="15" height="14" viewBox="0 0 15 14" fill="none" xmlns="http://www.w3.org/2000/svg">
<path d="M0 1.375C0 0.752734 0.478795 0.25 1.07143 0.25H13.9286C14.5212 0.25 15 0.752734 15 1.375C15 1.99727 14.5212 2.5 13.9286 2.5H1.07143C0.478795 2.5 0 1.99727 0 1.375ZM0 7C0 6.37773 0.478795 5.875 1.07143 5.875H13.9286C14.5212 5.875 15 6.37773 15 7C15 7.62227 14.5212 8.125 13.9286 8.125H1.07143C0.478795 8.125 0 7.62227 0 7ZM15 12.625C15 13.2473 14.5212 13.75 13.9286 13.75H1.07143C0.478795 13.75 0 13.2473 0 12.625C0 12.0027 0.478795 11.5 1.07143 11.5H13.9286C14.5212 11.5 15 12.0027 15 12.625Z" fill="#7743DC"/>
</svg>
