<svg width="46" height="46" viewBox="0 0 46 46" fill="none" xmlns="http://www.w3.org/2000/svg">
<g clip-path="url(#clip0_255_2973)">
<path opacity="0.4" d="M35.3607 34.4858V36.2975C35.3608 36.4165 35.3377 36.5343 35.2927 36.6443C35.2478 36.7542 35.1818 36.8541 35.0986 36.9383C35.0154 37.0224 34.9166 37.0891 34.8078 37.1346C34.6991 37.1801 34.5826 37.2034 34.4649 37.2033H11.1743C10.9368 37.2029 10.7092 37.1073 10.5413 36.9375C10.3734 36.7678 10.2789 36.5376 10.2785 36.2975V34.4858C10.2783 34.3668 10.3014 34.249 10.3464 34.1391C10.3914 34.0291 10.4574 33.9292 10.5406 33.8451C10.6238 33.7609 10.7226 33.6942 10.8313 33.6487C10.9401 33.6032 11.0566 33.5799 11.1743 33.58H21.0275V16.8933C20.3696 16.6027 19.7903 16.1566 19.3384 15.5925C18.8865 15.0284 18.5752 14.3628 18.4307 13.6517H11.1743C10.9369 13.6514 10.7093 13.5561 10.5414 13.3864C10.3734 13.2168 10.2789 12.9867 10.2785 12.7467V10.935C10.2787 10.6948 10.3731 10.4646 10.5411 10.2947C10.709 10.1249 10.9368 10.0294 11.1743 10.0292H19.2565C19.8784 9.17986 20.7773 8.58021 21.7942 8.33622C22.8111 8.09224 23.8805 8.21961 24.8135 8.69583C25.4316 9.01 25.9698 9.46667 26.3827 10.0292H34.4649C34.5826 10.0288 34.6992 10.052 34.8081 10.0974C34.9169 10.1429 35.0158 10.2096 35.0991 10.2937C35.1823 10.3779 35.2483 10.4779 35.2932 10.588C35.3381 10.698 35.361 10.816 35.3607 10.935V12.7467C35.3607 12.9867 35.2659 13.2175 35.0978 13.3867C34.9305 13.5567 34.7022 13.6525 34.4649 13.6525H27.2085C27.0634 14.3634 26.7518 15.0287 26.2998 15.5927C25.8478 16.1566 25.2686 16.6026 24.6108 16.8933V33.58H34.4649C34.5826 33.5797 34.6992 33.6029 34.8081 33.6483C34.9169 33.6937 35.0158 33.7604 35.0991 33.8446C35.1823 33.9288 35.2483 34.0287 35.2932 34.1388C35.3381 34.2488 35.361 34.3668 35.3607 34.4858Z" fill="#7743DC"/>
<path d="M19.2367 27.2392C19.2367 26.3225 19.3109 26.745 14.4774 16.9633C13.4892 14.9658 10.66 14.9617 9.66942 16.9633C4.78812 26.8283 4.9035 26.3517 4.9035 27.2383C4.9035 29.74 8.11265 31.7683 12.0701 31.7683C16.0275 31.7683 19.2367 29.74 19.2367 27.2392ZM12.0701 18.1808L16.1009 26.3333H8.0393L12.0693 18.1808H12.0701ZM40.7348 27.2392C40.7348 26.3225 40.8098 26.745 35.9738 16.9633C34.9849 14.9658 32.1557 14.9617 31.1659 16.9633C26.2871 26.8283 26.4025 26.3517 26.4025 27.2383C26.4025 29.74 29.6116 31.7683 33.569 31.7683C37.5265 31.7683 40.7348 29.74 40.7348 27.2392ZM29.5391 26.3333L33.569 18.1808L37.6007 26.3333H29.5383H29.5391Z" fill="#7743DC"/>
<path opacity="0.4" d="M26.9022 25.212H39.1305V34.3835C39.1305 36.0139 37.7035 37.4402 36.0731 37.4402H9.57916C7.94872 37.4402 6.52177 36.0133 6.52177 34.3828V25.2126H18.75V28.27C18.7502 28.5402 18.8577 28.7993 19.0488 28.9904C19.24 29.1814 19.4991 29.2887 19.7694 29.2887H25.8835C26.1537 29.2885 26.4128 29.1811 26.6039 28.9899C26.7949 28.7988 26.9022 28.5396 26.9022 28.2693V25.2126V25.212Z" fill="#7743DC"/>
<path d="M36.0737 15.0217H30.9783V11.9643C30.9783 10.3339 29.5513 8.90761 27.9209 8.90761H17.7313C16.1009 8.90761 14.6739 10.3346 14.6739 11.965V15.0217H9.57851C7.94807 15.0217 6.52177 16.4487 6.52177 18.0791V23.1739H39.1305V18.0785C39.1305 16.448 37.7035 15.0217 36.0731 15.0217H36.0737ZM26.9022 15.0217H18.75V12.9837H26.9022V15.0217Z" fill="#7743DC"/>
</g>
<defs>
<clipPath id="clip0_255_2973">
<rect width="45.4917" height="46" fill="white" transform="translate(0.216705)"/>
</clipPath>
</defs>
</svg>
