<svg width="46" height="46" viewBox="0 0 46 46" fill="none" xmlns="http://www.w3.org/2000/svg">
<path d="M17.3233 23.3247C21.3183 23.3247 24.5558 20.0813 24.5558 16.0788C24.5558 12.0763 21.3174 8.83301 17.3224 8.83301C13.3283 8.83301 10.0908 12.0763 10.0908 16.0788C10.0908 20.0813 13.3283 23.3247 17.3233 23.3247ZM22.7474 26.948C22.7533 26.3422 22.9116 25.748 23.2058 25.2213C22.9341 25.193 22.6683 25.1363 22.3858 25.1363H21.4416C20.1501 25.7321 18.7447 26.0407 17.3224 26.0407C15.9001 26.0407 14.4948 25.7321 13.2033 25.1363H12.2599C8.06744 25.1363 4.66577 28.5447 4.66577 32.7447V35.0988C4.66555 35.8188 4.9511 36.5093 5.4597 37.0189C5.96829 37.5284 6.65834 37.8152 7.37827 37.8163H23.2499C22.927 37.2668 22.7537 36.6421 22.7474 36.0047V26.9472V26.948Z" fill="#7743DC"/>
<path opacity="0.4" d="M34.6293 30.7586H40.8276V36.2661C40.8276 37.092 40.1051 37.8161 39.2793 37.8161H25.8501C25.0251 37.8161 24.3018 37.092 24.3018 36.2661V30.7578H30.5001V32.3086C30.5001 32.592 30.7318 32.8236 31.0143 32.8236H34.1159C34.3993 32.8236 34.6301 32.592 34.6301 32.3086V30.7586H34.6293Z" fill="#7743DC"/>
<path d="M39.2793 25.3966H36.6976V23.8466C36.6976 23.0191 35.9743 22.2949 35.1493 22.2949H29.9793C29.1543 22.2949 28.4309 23.0199 28.4309 23.8458V25.3966H25.8501C25.0251 25.3966 24.3018 26.1216 24.3018 26.9483V29.5349H40.8284V26.9483C40.8284 26.1216 40.1059 25.3966 39.2801 25.3966H39.2793ZM34.6293 25.3966H30.5001V24.3608H34.6301V25.3966H34.6293Z" fill="#7743DC"/>
</svg>
