<svg width="22" height="22" viewBox="0 0 22 22" fill="none" xmlns="http://www.w3.org/2000/svg">
<path d="M4.125 0C2.6082 0 1.375 1.2332 1.375 2.75V19.25C1.375 20.7668 2.6082 22 4.125 22H16.5C18.0168 22 19.25 20.7668 19.25 19.25V2.75C19.25 1.2332 18.0168 0 16.5 0H4.125ZM8.9375 12.375H11.6875C13.5867 12.375 15.125 13.9133 15.125 15.8125C15.125 16.1906 14.8156 16.5 14.4375 16.5H6.1875C5.80937 16.5 5.5 16.1906 5.5 15.8125C5.5 13.9133 7.03828 12.375 8.9375 12.375ZM13.0625 8.25C13.0625 9.7668 11.8293 11 10.3125 11C8.7957 11 7.5625 9.7668 7.5625 8.25C7.5625 6.7332 8.7957 5.5 10.3125 5.5C11.8293 5.5 13.0625 6.7332 13.0625 8.25ZM22 3.4375C22 3.05938 21.6906 2.75 21.3125 2.75C20.9344 2.75 20.625 3.05938 20.625 3.4375V6.1875C20.625 6.56563 20.9344 6.875 21.3125 6.875C21.6906 6.875 22 6.56563 22 6.1875V3.4375ZM21.3125 8.25C20.9344 8.25 20.625 8.55937 20.625 8.9375V11.6875C20.625 12.0656 20.9344 12.375 21.3125 12.375C21.6906 12.375 22 12.0656 22 11.6875V8.9375C22 8.55937 21.6906 8.25 21.3125 8.25ZM22 14.4375C22 14.0594 21.6906 13.75 21.3125 13.75C20.9344 13.75 20.625 14.0594 20.625 14.4375V17.1875C20.625 17.5656 20.9344 17.875 21.3125 17.875C21.6906 17.875 22 17.5656 22 17.1875V14.4375Z" fill="#FD7350"/>
</svg>
