<svg width="46" height="46" viewBox="0 0 46 46" fill="none" xmlns="http://www.w3.org/2000/svg">
<path opacity="0.4" d="M39.9692 23.5651L33.4476 21.0176C33.043 20.8626 32.5955 20.8626 32.1909 21.0176L25.6684 23.5651C25.0626 23.8026 24.6667 24.3576 24.6667 24.9743C24.6667 31.2926 28.5559 35.6635 32.1909 37.0843C32.5955 37.2393 33.043 37.2393 33.4476 37.0843C36.3517 35.9518 40.9709 32.0226 40.9709 24.9743C40.9709 24.3576 40.5751 23.8026 39.9692 23.5651ZM32.8192 34.3951V23.6893L38.2251 25.801C37.9084 30.7318 34.7776 33.4668 32.8192 34.3951Z" fill="#7743DC"/>
<path d="M17.4201 22.71C18.8532 22.7096 20.2541 22.2845 21.4458 21.4883C22.6374 20.6921 23.5663 19.5606 24.1151 18.2366C24.663 16.9125 24.8062 15.4557 24.5266 14.0502C24.247 12.6447 23.5572 11.3536 22.5443 10.34C21.5312 9.32607 20.2401 8.63559 18.8344 8.35596C17.4286 8.07633 15.9715 8.22012 14.6476 8.76913C13.323 9.31675 12.1908 10.2452 11.3945 11.437C10.5981 12.6287 10.1734 14.03 10.1743 15.4633C10.1747 17.385 10.9382 19.2278 12.297 20.5867C13.6557 21.9456 15.4984 22.7093 17.4201 22.71ZM22.8551 24.975C22.8551 24.8333 22.9001 24.7033 22.9176 24.5666C22.7759 24.5616 22.6401 24.5216 22.4926 24.5216H21.5476C20.2535 25.1182 18.8455 25.4271 17.4205 25.4271C15.9955 25.4271 14.5875 25.1182 13.2934 24.5216H12.3476C10.3297 24.5216 8.39453 25.3232 6.96769 26.7501C5.54085 28.1769 4.73926 30.1121 4.73926 32.13V34.4858C4.73915 34.8427 4.80936 35.1961 4.94589 35.5259C5.08242 35.8556 5.28259 36.1552 5.53495 36.4076C5.78732 36.66 6.08693 36.8601 6.41669 36.9967C6.74644 37.1332 7.09986 37.2034 7.45676 37.2033H27.3834C27.7571 37.201 28.1266 37.1239 28.4701 36.9766C25.4134 34.5475 22.8543 30.37 22.8543 24.975H22.8551Z" fill="#7743DC"/>
</svg>
