<svg width="21" height="21" viewBox="0 0 21 21" fill="none" xmlns="http://www.w3.org/2000/svg">
<path d="M2.104 10.4748C2.8705 12.1724 4.17591 14.0115 5.68528 15.5208C7.2952 17.1308 9.07127 18.4057 10.6864 19.1103C11.5658 19.494 12.3525 19.6859 13.0148 19.6859C13.6732 19.6859 14.2084 19.4959 14.5882 19.1158L16.1118 17.5928C16.5746 17.1294 16.5331 16.3346 16.0191 15.8204L13.7742 13.5752C13.2597 13.0612 12.4643 13.02 12.0018 13.4828L11.3028 14.1818C11.1091 14.3267 9.9118 13.9579 8.56491 12.611C7.21723 11.2636 6.84763 10.0656 6.99332 9.87368L7.69315 9.17385C8.15593 8.7108 8.11446 7.91543 7.60048 7.40145L5.35506 5.15655C4.84056 4.64258 4.04571 4.60084 3.58266 5.06415L2.05963 6.58718C1.29917 7.34738 1.31492 8.72813 2.10373 10.4748H2.104ZM2.80225 7.32953L4.32553 5.8065C4.33603 5.796 4.35703 5.7897 4.38407 5.7897C4.4434 5.7897 4.53343 5.81936 4.61297 5.8989L6.85787 8.1438C6.9739 8.25983 6.98387 8.39816 6.95053 8.4315L6.25071 9.13106C5.38078 10.0015 6.38275 11.9138 7.8223 13.3534C8.53918 14.07 9.32747 14.6428 10.042 14.9654C11.218 15.4967 11.8015 15.168 12.0443 14.9247L12.7442 14.2251C12.7778 14.1915 12.9156 14.2018 13.0319 14.3175L15.2765 16.5627C15.3925 16.6787 15.4025 16.8168 15.3692 16.8501L13.8459 18.3734C13.4233 18.7963 12.3992 18.7121 11.1064 18.1477C9.60861 17.4943 7.94698 16.2976 6.42763 14.7785C5.00436 13.3552 3.77743 11.6288 3.06081 10.0425C2.48173 8.76068 2.38487 7.74664 2.80198 7.32953H2.80225ZM19.5025 11.6385C19.5025 5.94484 14.8702 1.3125 9.17653 1.3125V2.3625C14.2913 2.3625 18.4525 6.52391 18.4525 11.6385H19.5025Z" fill="white"/>
<path d="M9.37122 4.1806V5.2306C13.0121 5.2306 15.9744 8.19265 15.9744 11.8335H17.0244C17.0244 7.61358 13.5912 4.1806 9.37148 4.1806H9.37122Z" fill="white"/>
<path d="M13.3013 11.8335H14.3513C14.3513 9.08773 12.1175 6.85333 9.37146 6.85333V7.90333C11.5384 7.90333 13.3013 9.66655 13.3013 11.8335Z" fill="white"/>
</svg>
