<svg width="24" height="24" viewBox="0 0 24 24" fill="none" xmlns="http://www.w3.org/2000/svg">
<g id="phone_in_talk">
<mask id="mask0_1223_3403" style="mask-type:alpha" maskUnits="userSpaceOnUse" x="-1" y="-1" width="26" height="26">
<rect id="Bounding box" width="24" height="24" rx="12" fill="#D9D9D9" stroke="black"/>
</mask>
<g mask="url(#mask0_1223_3403)">
<path id="phone_in_talk_2" d="M20 11.9502C19.4477 11.9502 19.0081 11.5004 18.9375 10.9527C18.7412 9.42975 18.0829 8.10809 16.9625 6.9877C15.8421 5.8673 14.5205 5.20898 12.9975 5.01272C12.4498 4.94213 12 4.50248 12 3.9502C12 3.39791 12.449 2.94393 12.9982 3.00246C13.8784 3.09626 14.7165 3.31634 15.5125 3.6627C16.6042 4.1377 17.5542 4.77936 18.3625 5.5877C19.1708 6.39603 19.8125 7.34603 20.2875 8.4377C20.6339 9.2337 20.8539 10.0718 20.9477 10.952C21.0063 11.5012 20.5523 11.9502 20 11.9502ZM16 11.9502C15.4477 11.9502 15.0218 11.4901 14.8457 10.9666C14.7036 10.5441 14.4634 10.1636 14.125 9.8252C13.7866 9.4868 13.4061 9.24655 12.9836 9.10446C12.4601 8.92843 12 8.50248 12 7.9502C12 7.39791 12.4518 6.93801 12.9945 7.0407C13.9574 7.22291 14.805 7.68024 15.5375 8.4127C16.27 9.14515 16.7273 9.99283 16.9095 10.9557C17.0122 11.4984 16.5523 11.9502 16 11.9502ZM19.95 21.0002C17.8667 21.0002 15.8083 20.546 13.775 19.6377C11.7417 18.7294 9.89167 17.4419 8.225 15.7752C6.55833 14.1085 5.27083 12.2585 4.3625 10.2252C3.45417 8.19186 3 6.13353 3 4.0502C3 3.7502 3.1 3.5002 3.3 3.3002C3.5 3.1002 3.75 3.0002 4.05 3.0002H8.1C8.33333 3.0002 8.54167 3.07936 8.725 3.2377C8.90833 3.39603 9.01667 3.58353 9.05 3.8002L9.7 7.3002C9.73333 7.56686 9.725 7.79186 9.675 7.9752C9.625 8.15853 9.53333 8.31686 9.4 8.4502L8.48663 9.37298C7.58878 10.2801 7.36695 11.6896 8.1625 12.6877C8.62083 13.2627 9.125 13.8169 9.675 14.3502C10.1917 14.8669 10.7333 15.346 11.3 15.7877C12.3102 16.5751 13.7302 16.37 14.6358 15.4644L15.45 14.6502C15.6 14.5002 15.7958 14.3877 16.0375 14.3127C16.2792 14.2377 16.5167 14.2169 16.75 14.2502L20.2 14.9502C20.4333 15.0169 20.625 15.1377 20.775 15.3127C20.925 15.4877 21 15.6835 21 15.9002V19.9502C21 20.2502 20.9 20.5002 20.7 20.7002C20.5 20.9002 20.25 21.0002 19.95 21.0002Z" fill="#B7B7B7" stroke="#B6B6B6"/>
</g>
</g>
</svg>
