<svg width="14" height="14" viewBox="0 0 14 14" fill="none" xmlns="http://www.w3.org/2000/svg">
<path d="M9.92305 1.77188L10.2074 2.625H12.25C13.2152 2.625 14 3.40977 14 4.375V11.375C14 12.3402 13.2152 13.125 12.25 13.125H1.75C0.784765 13.125 0 12.3402 0 11.375V4.375C0 3.40977 0.784765 2.625 1.75 2.625H3.79258L4.07695 1.77188C4.25469 1.23594 4.75508 0.875 5.32109 0.875H8.67891C9.24492 0.875 9.74531 1.23594 9.92305 1.77188ZM7 10.5C8.44922 10.5 9.625 9.32422 9.625 7.875C9.625 6.42578 8.44922 5.25 7 5.25C5.55078 5.25 4.375 6.42578 4.375 7.875C4.375 9.32422 5.55078 10.5 7 10.5Z" fill="white"/>
</svg>
