<svg width="22" height="22" viewBox="0 0 22 22" fill="none" xmlns="http://www.w3.org/2000/svg">
<g clip-path="url(#clip0_221_769)">
<path d="M0.687745 0H6.18761C6.41534 0 6.63018 0.116016 6.75909 0.305078L10.2438 5.53008C8.11687 5.70625 6.2048 6.63008 4.76109 8.03516L0.116274 1.06992C-0.0255191 0.859375 -0.0384094 0.588672 0.0819002 0.365234C0.20221 0.141797 0.434236 0 0.687745 0ZM21.8837 1.06992L17.2389 8.03945C15.7995 6.63438 13.8831 5.71055 11.7562 5.53438L15.2409 0.305078C15.3698 0.111719 15.5847 0 15.8124 0H21.3123C21.5658 0 21.7978 0.1375 21.9181 0.365234C22.0384 0.592969 22.0255 0.859375 21.8837 1.06992ZM18.5623 14.4375C18.5623 18.6141 15.1765 22 11 22C6.82354 22 3.43768 18.6141 3.43768 14.4375C3.43768 10.2609 6.82354 6.875 11 6.875C15.1765 6.875 18.5623 10.2609 18.5623 14.4375ZM11.3609 10.3598C11.2148 10.059 10.7895 10.059 10.6391 10.3598L9.67659 12.3105C9.61644 12.4309 9.50472 12.5125 9.37582 12.5297L7.21884 12.8434C6.88799 12.8906 6.75909 13.2945 6.99541 13.5309L8.55514 15.052C8.64967 15.1465 8.69263 15.2754 8.67115 15.4086L8.30163 17.5527C8.24577 17.8793 8.58951 18.1328 8.88599 17.9781L10.8109 16.9641C10.927 16.9039 11.0687 16.9039 11.1848 16.9641L13.1097 17.9781C13.4062 18.1328 13.7499 17.8836 13.6941 17.5527L13.3246 15.4086C13.3031 15.2797 13.346 15.1465 13.4406 15.052L15.0003 13.5309C15.2409 13.2988 15.1077 12.8949 14.7769 12.8434L12.6242 12.5297C12.4953 12.5125 12.3793 12.4266 12.3234 12.3105L11.3609 10.3598Z" fill="white" fill-opacity="0.7"/>
</g>
<defs>
<clipPath id="clip0_221_769">
<rect width="22" height="22" fill="white"/>
</clipPath>
</defs>
</svg>
