<svg width="48" height="48" viewBox="0 0 48 48" fill="none" xmlns="http://www.w3.org/2000/svg">
<g clip-path="url(#clip0_155_43)">
<rect width="48" height="48" fill="white"/>
<path d="M13 38V21.1335H18.0438V15.9438H29.3923V26.3232H34.4361V38H25.6094V32.8103H21.8266V38H13ZM14.2609 36.7026H18.0438V32.8103H14.2609V36.7026ZM14.2609 31.5129H18.0438V27.6206H14.2609V31.5129ZM14.2609 26.3232H18.0438V22.4309H14.2609V26.3232ZM19.3047 31.5129H23.0876V27.6206H19.3047V31.5129ZM19.3047 26.3232H23.0876V22.4309H19.3047V26.3232ZM19.3047 21.1335H23.0876V17.2412H19.3047V21.1335ZM24.3485 31.5129H28.1313V27.6206H24.3485V31.5129ZM24.3485 26.3232H28.1313V22.4309H24.3485V26.3232ZM24.3485 21.1335H28.1313V17.2412H24.3485V21.1335ZM29.3923 36.7026H33.1751V32.8103H29.3923V36.7026ZM29.3923 31.5129H33.1751V27.6206H29.3923V31.5129Z" fill="#FD7350"/>
<path d="M33.9892 19.0052C32.8381 18.6384 31.8818 17.8895 31.1204 16.7586C30.359 15.6277 29.9783 14.3538 29.9783 12.9369V9.60935L33.9892 8L38.0001 9.60935V12.9369C38.0001 14.3538 37.6194 15.6277 36.858 16.7586C36.0966 17.8895 35.1403 18.6384 33.9892 19.0052Z" fill="#FD7350"/>
<mask id="mask0_155_43" style="mask-type:alpha" maskUnits="userSpaceOnUse" x="44" y="10" width="16" height="15">
<rect x="44.7476" y="10" width="15" height="15" fill="#D9D9D9"/>
</mask>
<g mask="url(#mask0_155_43)">
</g>
<path d="M31.5483 15.5V15.2059H33.8333V11.9531C33.7065 11.9278 33.5945 11.8648 33.4973 11.7641C33.4001 11.6635 33.3382 11.5362 33.3117 11.3824H32.3858L33.1612 13.5034C33.1509 13.6995 33.0677 13.8663 32.9116 14.004C32.7554 14.1416 32.5698 14.2104 32.3548 14.2104C32.1397 14.2104 31.9542 14.1416 31.798 14.004C31.6419 13.8663 31.5587 13.6995 31.5483 13.5034L32.3238 11.3824H31.8172V11.0882H33.3117C33.3413 10.9242 33.4161 10.7852 33.536 10.6711C33.656 10.557 33.7999 10.5 33.9677 10.5C34.1355 10.5 34.2794 10.557 34.3994 10.6711C34.5193 10.7852 34.5941 10.9242 34.6237 11.0882H36.1182V11.3824H35.6116L36.387 13.5034C36.3767 13.6995 36.2935 13.8663 36.1374 14.004C35.9812 14.1416 35.7957 14.2104 35.5806 14.2104C35.3655 14.2104 35.18 14.1416 35.0238 14.004C34.8677 13.8663 34.7845 13.6995 34.7741 13.5034L35.5496 11.3824H34.6237C34.5972 11.5362 34.5353 11.6635 34.4381 11.7641C34.3409 11.8648 34.2289 11.9278 34.1021 11.9531V15.2059H36.387V15.5H31.5483ZM35.0404 13.4751H36.1208L35.5806 11.9977L35.0404 13.4751ZM31.8146 13.4751H32.895L32.3548 11.9977L31.8146 13.4751ZM33.9677 11.6765C34.0783 11.6765 34.1732 11.6332 34.2523 11.5467C34.3314 11.4601 34.3709 11.3563 34.3709 11.2353C34.3709 11.1143 34.3314 11.0105 34.2523 10.9239C34.1732 10.8374 34.0783 10.7941 33.9677 10.7941C33.8571 10.7941 33.7622 10.8374 33.6831 10.9239C33.604 11.0105 33.5645 11.1143 33.5645 11.2353C33.5645 11.3563 33.604 11.4601 33.6831 11.5467C33.7622 11.6332 33.8571 11.6765 33.9677 11.6765Z" fill="white"/>
</g>
<defs>
<clipPath id="clip0_155_43">
<rect width="48" height="48" fill="white"/>
</clipPath>
</defs>
</svg>
