<svg width="269" height="168" viewBox="0 0 269 168" fill="none" xmlns="http://www.w3.org/2000/svg">
<rect width="269" height="168" rx="7" fill="#7743DC"/>
<path d="M35.7456 25.16C34.5723 25.16 33.5643 24.9253 32.7216 24.456C31.8896 23.976 31.2496 23.304 30.8016 22.44C30.3536 21.5653 30.1296 20.536 30.1296 19.352C30.1296 18.4667 30.2576 17.672 30.5136 16.968C30.7696 16.2533 31.1376 15.6453 31.6176 15.144C32.0976 14.632 32.6843 14.2427 33.3776 13.976C34.0816 13.6987 34.871 13.56 35.7456 13.56C36.3323 13.56 36.9083 13.6347 37.4736 13.784C38.039 13.9333 38.535 14.1467 38.9616 14.424C39.1856 14.5627 39.335 14.7333 39.4096 14.936C39.4843 15.128 39.5003 15.32 39.4576 15.512C39.415 15.6933 39.3243 15.848 39.1856 15.976C39.0576 16.104 38.8923 16.1787 38.6896 16.2C38.4976 16.2107 38.2843 16.1413 38.0496 15.992C37.719 15.7787 37.3616 15.624 36.9776 15.528C36.5936 15.432 36.2043 15.384 35.8096 15.384C35.0523 15.384 34.4123 15.5387 33.8896 15.848C33.367 16.1573 32.9723 16.6053 32.7056 17.192C32.439 17.7787 32.3056 18.4987 32.3056 19.352C32.3056 20.1947 32.439 20.9147 32.7056 21.512C32.9723 22.1093 33.367 22.5627 33.8896 22.872C34.4123 23.1813 35.0523 23.336 35.8096 23.336C36.215 23.336 36.615 23.288 37.0096 23.192C37.4043 23.0853 37.7776 22.9253 38.1296 22.712C38.3643 22.5733 38.5723 22.5147 38.7536 22.536C38.9456 22.5467 39.1056 22.6107 39.2336 22.728C39.3616 22.8453 39.447 22.9947 39.4896 23.176C39.5323 23.3467 39.5216 23.528 39.4576 23.72C39.3936 23.9013 39.2656 24.0613 39.0736 24.2C38.647 24.5093 38.135 24.7493 37.5376 24.92C36.951 25.08 36.3536 25.16 35.7456 25.16ZM44.1861 25.16C43.3755 25.16 42.6715 24.9947 42.0741 24.664C41.4768 24.3333 41.0128 23.864 40.6821 23.256C40.3515 22.6373 40.1861 21.912 40.1861 21.08C40.1861 20.4507 40.2768 19.8907 40.4581 19.4C40.6501 18.8987 40.9221 18.472 41.2741 18.12C41.6261 17.7573 42.0475 17.4853 42.5381 17.304C43.0288 17.112 43.5781 17.016 44.1861 17.016C44.9968 17.016 45.7008 17.1813 46.2981 17.512C46.8955 17.8427 47.3595 18.312 47.6901 18.92C48.0208 19.528 48.1861 20.248 48.1861 21.08C48.1861 21.7093 48.0901 22.2747 47.8981 22.776C47.7168 23.2773 47.4501 23.7093 47.0981 24.072C46.7461 24.424 46.3248 24.696 45.8341 24.888C45.3435 25.0693 44.7941 25.16 44.1861 25.16ZM44.1861 23.64C44.5808 23.64 44.9275 23.544 45.2261 23.352C45.5248 23.16 45.7541 22.8773 45.9141 22.504C46.0848 22.12 46.1701 21.6453 46.1701 21.08C46.1701 20.2267 45.9888 19.592 45.6261 19.176C45.2635 18.7493 44.7835 18.536 44.1861 18.536C43.7915 18.536 43.4448 18.632 43.1461 18.824C42.8475 19.0053 42.6128 19.288 42.4421 19.672C42.2821 20.0453 42.2021 20.5147 42.2021 21.08C42.2021 21.9227 42.3835 22.5627 42.7461 23C43.1088 23.4267 43.5888 23.64 44.1861 23.64ZM50.8609 25.128C50.5409 25.128 50.2955 25.0427 50.1249 24.872C49.9542 24.6907 49.8689 24.4347 49.8689 24.104V18.056C49.8689 17.7253 49.9542 17.4747 50.1249 17.304C50.2955 17.1333 50.5355 17.048 50.8449 17.048C51.1542 17.048 51.3942 17.1333 51.5649 17.304C51.7355 17.4747 51.8209 17.7253 51.8209 18.056V19.224L51.6449 18.744C51.8582 18.2107 52.1889 17.7893 52.6369 17.48C53.0849 17.1707 53.6182 17.016 54.2369 17.016C54.8662 17.016 55.3835 17.1653 55.7889 17.464C56.1942 17.7627 56.4769 18.2213 56.6369 18.84H56.4129C56.6262 18.2747 56.9782 17.832 57.4689 17.512C57.9595 17.1813 58.5249 17.016 59.1649 17.016C59.7622 17.016 60.2529 17.1333 60.6369 17.368C61.0315 17.6027 61.3249 17.96 61.5169 18.44C61.7089 18.9093 61.8049 19.5067 61.8049 20.232V24.104C61.8049 24.4347 61.7142 24.6907 61.5329 24.872C61.3622 25.0427 61.1169 25.128 60.7969 25.128C60.4769 25.128 60.2315 25.0427 60.0609 24.872C59.8902 24.6907 59.8049 24.4347 59.8049 24.104V20.312C59.8049 19.7147 59.7035 19.2773 59.5009 19C59.3089 18.7227 58.9782 18.584 58.5089 18.584C57.9862 18.584 57.5755 18.7707 57.2769 19.144C56.9782 19.5067 56.8289 20.0133 56.8289 20.664V24.104C56.8289 24.4347 56.7435 24.6907 56.5729 24.872C56.4022 25.0427 56.1569 25.128 55.8369 25.128C55.5169 25.128 55.2662 25.0427 55.0849 24.872C54.9142 24.6907 54.8289 24.4347 54.8289 24.104V20.312C54.8289 19.7147 54.7275 19.2773 54.5249 19C54.3329 18.7227 54.0075 18.584 53.5489 18.584C53.0262 18.584 52.6155 18.7707 52.3169 19.144C52.0182 19.5067 51.8689 20.0133 51.8689 20.664V24.104C51.8689 24.7867 51.5329 25.128 50.8609 25.128ZM64.8921 25.128C64.5721 25.128 64.3268 25.0427 64.1561 24.872C63.9855 24.6907 63.9001 24.4347 63.9001 24.104V18.056C63.9001 17.7253 63.9855 17.4747 64.1561 17.304C64.3268 17.1333 64.5668 17.048 64.8761 17.048C65.1855 17.048 65.4255 17.1333 65.5961 17.304C65.7668 17.4747 65.8521 17.7253 65.8521 18.056V19.224L65.6761 18.744C65.8895 18.2107 66.2201 17.7893 66.6681 17.48C67.1161 17.1707 67.6495 17.016 68.2681 17.016C68.8975 17.016 69.4148 17.1653 69.8201 17.464C70.2255 17.7627 70.5081 18.2213 70.6681 18.84H70.4441C70.6575 18.2747 71.0095 17.832 71.5001 17.512C71.9908 17.1813 72.5561 17.016 73.1961 17.016C73.7935 17.016 74.2841 17.1333 74.6681 17.368C75.0628 17.6027 75.3561 17.96 75.5481 18.44C75.7401 18.9093 75.8361 19.5067 75.8361 20.232V24.104C75.8361 24.4347 75.7455 24.6907 75.5641 24.872C75.3935 25.0427 75.1481 25.128 74.8281 25.128C74.5081 25.128 74.2628 25.0427 74.0921 24.872C73.9215 24.6907 73.8361 24.4347 73.8361 24.104V20.312C73.8361 19.7147 73.7348 19.2773 73.5321 19C73.3401 18.7227 73.0095 18.584 72.5401 18.584C72.0175 18.584 71.6068 18.7707 71.3081 19.144C71.0095 19.5067 70.8601 20.0133 70.8601 20.664V24.104C70.8601 24.4347 70.7748 24.6907 70.6041 24.872C70.4335 25.0427 70.1881 25.128 69.8681 25.128C69.5481 25.128 69.2975 25.0427 69.1161 24.872C68.9455 24.6907 68.8601 24.4347 68.8601 24.104V20.312C68.8601 19.7147 68.7588 19.2773 68.5561 19C68.3641 18.7227 68.0388 18.584 67.5801 18.584C67.0575 18.584 66.6468 18.7707 66.3481 19.144C66.0495 19.5067 65.9001 20.0133 65.9001 20.664V24.104C65.9001 24.7867 65.5641 25.128 64.8921 25.128ZM81.7554 25.16C80.87 25.16 80.1074 24.9947 79.4674 24.664C78.8274 24.3333 78.3314 23.864 77.9794 23.256C77.638 22.648 77.4674 21.928 77.4674 21.096C77.4674 20.2853 77.6327 19.576 77.9634 18.968C78.3047 18.36 78.7687 17.8853 79.3554 17.544C79.9527 17.192 80.63 17.016 81.3874 17.016C81.942 17.016 82.438 17.1067 82.8754 17.288C83.3234 17.4693 83.702 17.7307 84.0114 18.072C84.3314 18.4133 84.5714 18.8293 84.7314 19.32C84.902 19.8 84.9874 20.344 84.9874 20.952C84.9874 21.144 84.918 21.2933 84.7794 21.4C84.6514 21.496 84.4647 21.544 84.2194 21.544H79.0834V20.392H83.5794L83.3234 20.632C83.3234 20.1413 83.2487 19.7307 83.0994 19.4C82.9607 19.0693 82.7527 18.8187 82.4754 18.648C82.2087 18.4667 81.8727 18.376 81.4674 18.376C81.0194 18.376 80.6354 18.4827 80.3154 18.696C80.006 18.8987 79.766 19.192 79.5954 19.576C79.4354 19.9493 79.3554 20.3973 79.3554 20.92V21.032C79.3554 21.9067 79.558 22.5627 79.9634 23C80.3794 23.4267 80.9874 23.64 81.7874 23.64C82.0647 23.64 82.374 23.608 82.7154 23.544C83.0674 23.4693 83.398 23.3467 83.7074 23.176C83.9314 23.048 84.1287 22.9947 84.2994 23.016C84.47 23.0267 84.6034 23.0853 84.6994 23.192C84.806 23.2987 84.87 23.432 84.8914 23.592C84.9127 23.7413 84.8807 23.896 84.7954 24.056C84.7207 24.216 84.5874 24.3547 84.3954 24.472C84.022 24.7067 83.59 24.8827 83.0994 25C82.6194 25.1067 82.1714 25.16 81.7554 25.16ZM87.5953 25.128C87.2646 25.128 87.0086 25.0427 86.8273 24.872C86.6566 24.6907 86.5713 24.4347 86.5713 24.104V18.056C86.5713 17.7253 86.6566 17.4747 86.8273 17.304C86.9979 17.1333 87.2379 17.048 87.5473 17.048C87.8566 17.048 88.0966 17.1333 88.2673 17.304C88.4379 17.4747 88.5233 17.7253 88.5233 18.056V19.064H88.3633C88.5126 18.424 88.8059 17.9387 89.2433 17.608C89.6806 17.2773 90.2619 17.08 90.9873 17.016C91.2113 16.9947 91.3873 17.0533 91.5153 17.192C91.6539 17.32 91.7339 17.5227 91.7553 17.8C91.7766 18.0667 91.7126 18.2853 91.5633 18.456C91.4246 18.616 91.2113 18.712 90.9233 18.744L90.5713 18.776C89.9206 18.84 89.4299 19.0427 89.0993 19.384C88.7686 19.7147 88.6033 20.184 88.6033 20.792V24.104C88.6033 24.4347 88.5179 24.6907 88.3473 24.872C88.1766 25.0427 87.9259 25.128 87.5953 25.128ZM96.3279 25.16C95.5065 25.16 94.7919 24.9947 94.1839 24.664C93.5759 24.3227 93.1065 23.8427 92.7759 23.224C92.4452 22.6053 92.2799 21.88 92.2799 21.048C92.2799 20.4187 92.3705 19.8587 92.5519 19.368C92.7439 18.8667 93.0159 18.4453 93.3679 18.104C93.7199 17.752 94.1465 17.4853 94.6479 17.304C95.1492 17.112 95.7092 17.016 96.3279 17.016C96.6799 17.016 97.0585 17.064 97.4639 17.16C97.8799 17.256 98.2692 17.416 98.6319 17.64C98.8025 17.7467 98.9145 17.8747 98.9679 18.024C99.0212 18.1733 99.0319 18.328 98.9999 18.488C98.9679 18.6373 98.8985 18.7707 98.7919 18.888C98.6959 18.9947 98.5732 19.064 98.4239 19.096C98.2745 19.1173 98.1092 19.08 97.9279 18.984C97.6932 18.8453 97.4532 18.744 97.2079 18.68C96.9625 18.6053 96.7279 18.568 96.5039 18.568C96.1519 18.568 95.8425 18.6267 95.5759 18.744C95.3092 18.8507 95.0799 19.0107 94.8879 19.224C94.7065 19.4267 94.5679 19.6827 94.4719 19.992C94.3759 20.3013 94.3279 20.6587 94.3279 21.064C94.3279 21.8533 94.5145 22.4773 94.8879 22.936C95.2719 23.384 95.8105 23.608 96.5039 23.608C96.7279 23.608 96.9572 23.576 97.1919 23.512C97.4372 23.448 97.6825 23.3467 97.9279 23.208C98.1092 23.112 98.2692 23.08 98.4079 23.112C98.5572 23.144 98.6799 23.2187 98.7759 23.336C98.8719 23.4427 98.9305 23.576 98.9519 23.736C98.9732 23.8853 98.9519 24.0347 98.8879 24.184C98.8345 24.3333 98.7279 24.456 98.5679 24.552C98.2159 24.7653 97.8425 24.92 97.4479 25.016C97.0532 25.112 96.6799 25.16 96.3279 25.16ZM101.251 25.112C100.931 25.112 100.685 25.016 100.515 24.824C100.344 24.632 100.259 24.3653 100.259 24.024V18.152C100.259 17.8 100.344 17.5333 100.515 17.352C100.685 17.16 100.931 17.064 101.251 17.064C101.571 17.064 101.816 17.16 101.987 17.352C102.168 17.5333 102.259 17.8 102.259 18.152V24.024C102.259 24.3653 102.173 24.632 102.003 24.824C101.832 25.016 101.581 25.112 101.251 25.112ZM101.251 15.576C100.877 15.576 100.584 15.4853 100.371 15.304C100.168 15.112 100.067 14.8507 100.067 14.52C100.067 14.1787 100.168 13.9173 100.371 13.736C100.584 13.5547 100.877 13.464 101.251 13.464C101.635 13.464 101.928 13.5547 102.131 13.736C102.333 13.9173 102.435 14.1787 102.435 14.52C102.435 14.8507 102.333 15.112 102.131 15.304C101.928 15.4853 101.635 15.576 101.251 15.576ZM106.913 25.16C106.348 25.16 105.841 25.0533 105.393 24.84C104.956 24.616 104.609 24.3173 104.353 23.944C104.108 23.5707 103.985 23.1493 103.985 22.68C103.985 22.104 104.134 21.6507 104.433 21.32C104.732 20.9787 105.217 20.7333 105.889 20.584C106.561 20.4347 107.462 20.36 108.593 20.36H109.393V21.512H108.609C107.948 21.512 107.42 21.544 107.025 21.608C106.63 21.672 106.348 21.784 106.177 21.944C106.017 22.0933 105.937 22.3067 105.937 22.584C105.937 22.936 106.06 23.224 106.305 23.448C106.55 23.672 106.892 23.784 107.329 23.784C107.681 23.784 107.99 23.704 108.257 23.544C108.534 23.3733 108.753 23.144 108.913 22.856C109.073 22.568 109.153 22.2373 109.153 21.864V20.024C109.153 19.4907 109.036 19.1067 108.801 18.872C108.566 18.6373 108.172 18.52 107.617 18.52C107.308 18.52 106.972 18.5573 106.609 18.632C106.257 18.7067 105.884 18.8347 105.489 19.016C105.286 19.112 105.105 19.1387 104.945 19.096C104.796 19.0533 104.678 18.968 104.593 18.84C104.508 18.7013 104.465 18.552 104.465 18.392C104.465 18.232 104.508 18.0773 104.593 17.928C104.678 17.768 104.822 17.6507 105.025 17.576C105.516 17.3733 105.985 17.2293 106.433 17.144C106.892 17.0587 107.308 17.016 107.681 17.016C108.449 17.016 109.078 17.1333 109.569 17.368C110.07 17.6027 110.444 17.96 110.689 18.44C110.934 18.9093 111.057 19.5173 111.057 20.264V24.104C111.057 24.4347 110.977 24.6907 110.817 24.872C110.657 25.0427 110.428 25.128 110.129 25.128C109.83 25.128 109.596 25.0427 109.425 24.872C109.265 24.6907 109.185 24.4347 109.185 24.104V23.336H109.313C109.238 23.7093 109.089 24.0347 108.865 24.312C108.652 24.5787 108.38 24.7867 108.049 24.936C107.718 25.0853 107.34 25.16 106.913 25.16ZM115.759 25.16C114.874 25.16 114.207 24.9093 113.759 24.408C113.311 23.896 113.087 23.1493 113.087 22.168V14.6C113.087 14.2693 113.172 14.0187 113.343 13.848C113.514 13.6773 113.759 13.592 114.079 13.592C114.399 13.592 114.644 13.6773 114.815 13.848C114.996 14.0187 115.087 14.2693 115.087 14.6V22.072C115.087 22.5627 115.188 22.9253 115.391 23.16C115.604 23.3947 115.903 23.512 116.287 23.512C116.372 23.512 116.452 23.512 116.527 23.512C116.602 23.5013 116.676 23.4907 116.751 23.48C116.9 23.4587 117.002 23.5013 117.055 23.608C117.108 23.704 117.135 23.9067 117.135 24.216C117.135 24.4827 117.082 24.6907 116.975 24.84C116.868 24.9893 116.692 25.08 116.447 25.112C116.34 25.1227 116.228 25.1333 116.111 25.144C115.994 25.1547 115.876 25.16 115.759 25.16ZM128.156 25.16C126.908 25.16 125.852 24.9253 124.988 24.456C124.135 23.9867 123.484 23.32 123.036 22.456C122.588 21.592 122.364 20.568 122.364 19.384C122.364 18.488 122.492 17.6827 122.748 16.968C123.015 16.2533 123.393 15.6453 123.884 15.144C124.385 14.632 124.993 14.2427 125.708 13.976C126.423 13.6987 127.233 13.56 128.14 13.56C128.737 13.56 129.335 13.6347 129.932 13.784C130.54 13.9227 131.111 14.1627 131.644 14.504C131.825 14.6213 131.943 14.7653 131.996 14.936C132.06 15.1067 132.071 15.2827 132.028 15.464C131.985 15.6347 131.905 15.784 131.788 15.912C131.671 16.04 131.521 16.12 131.34 16.152C131.169 16.184 130.977 16.1413 130.764 16.024C130.359 15.7893 129.948 15.6187 129.532 15.512C129.116 15.4053 128.652 15.352 128.14 15.352C127.351 15.352 126.684 15.512 126.14 15.832C125.596 16.1413 125.185 16.5947 124.908 17.192C124.641 17.7893 124.508 18.52 124.508 19.384C124.508 20.696 124.823 21.6933 125.452 22.376C126.081 23.0587 127.015 23.4 128.252 23.4C128.679 23.4 129.111 23.3573 129.548 23.272C129.985 23.1867 130.412 23.0693 130.828 22.92L130.428 23.832V20.424H128.668C128.401 20.424 128.193 20.3547 128.044 20.216C127.905 20.0773 127.836 19.8907 127.836 19.656C127.836 19.4107 127.905 19.224 128.044 19.096C128.193 18.968 128.401 18.904 128.668 18.904H131.308C131.575 18.904 131.777 18.9787 131.916 19.128C132.065 19.2667 132.14 19.4693 132.14 19.736V23.624C132.14 23.8587 132.092 24.056 131.996 24.216C131.911 24.376 131.767 24.4933 131.564 24.568C131.095 24.7387 130.556 24.8827 129.948 25C129.34 25.1067 128.743 25.16 128.156 25.16ZM138.177 25.16C137.292 25.16 136.529 24.9947 135.889 24.664C135.249 24.3333 134.753 23.864 134.401 23.256C134.06 22.648 133.889 21.928 133.889 21.096C133.889 20.2853 134.055 19.576 134.385 18.968C134.727 18.36 135.191 17.8853 135.777 17.544C136.375 17.192 137.052 17.016 137.809 17.016C138.364 17.016 138.86 17.1067 139.297 17.288C139.745 17.4693 140.124 17.7307 140.433 18.072C140.753 18.4133 140.993 18.8293 141.153 19.32C141.324 19.8 141.409 20.344 141.409 20.952C141.409 21.144 141.34 21.2933 141.201 21.4C141.073 21.496 140.887 21.544 140.641 21.544H135.505V20.392H140.001L139.745 20.632C139.745 20.1413 139.671 19.7307 139.521 19.4C139.383 19.0693 139.175 18.8187 138.897 18.648C138.631 18.4667 138.295 18.376 137.889 18.376C137.441 18.376 137.057 18.4827 136.737 18.696C136.428 18.8987 136.188 19.192 136.017 19.576C135.857 19.9493 135.777 20.3973 135.777 20.92V21.032C135.777 21.9067 135.98 22.5627 136.385 23C136.801 23.4267 137.409 23.64 138.209 23.64C138.487 23.64 138.796 23.608 139.137 23.544C139.489 23.4693 139.82 23.3467 140.129 23.176C140.353 23.048 140.551 22.9947 140.721 23.016C140.892 23.0267 141.025 23.0853 141.121 23.192C141.228 23.2987 141.292 23.432 141.313 23.592C141.335 23.7413 141.303 23.896 141.217 24.056C141.143 24.216 141.009 24.3547 140.817 24.472C140.444 24.7067 140.012 24.8827 139.521 25C139.041 25.1067 138.593 25.16 138.177 25.16ZM143.985 25.128C143.665 25.128 143.42 25.0427 143.249 24.872C143.078 24.6907 142.993 24.4347 142.993 24.104V18.056C142.993 17.7253 143.078 17.4747 143.249 17.304C143.42 17.1333 143.66 17.048 143.969 17.048C144.278 17.048 144.518 17.1333 144.689 17.304C144.86 17.4747 144.945 17.7253 144.945 18.056V19.144L144.769 18.744C145.004 18.1787 145.366 17.752 145.857 17.464C146.358 17.1653 146.924 17.016 147.553 17.016C148.182 17.016 148.7 17.1333 149.105 17.368C149.51 17.6027 149.814 17.96 150.017 18.44C150.22 18.9093 150.321 19.5067 150.321 20.232V24.104C150.321 24.4347 150.236 24.6907 150.065 24.872C149.894 25.0427 149.649 25.128 149.329 25.128C149.009 25.128 148.758 25.0427 148.577 24.872C148.406 24.6907 148.321 24.4347 148.321 24.104V20.328C148.321 19.72 148.204 19.2773 147.969 19C147.745 18.7227 147.393 18.584 146.913 18.584C146.326 18.584 145.857 18.7707 145.505 19.144C145.164 19.5067 144.993 19.992 144.993 20.6V24.104C144.993 24.7867 144.657 25.128 143.985 25.128ZM156.209 25.16C155.323 25.16 154.561 24.9947 153.921 24.664C153.281 24.3333 152.785 23.864 152.433 23.256C152.091 22.648 151.921 21.928 151.921 21.096C151.921 20.2853 152.086 19.576 152.417 18.968C152.758 18.36 153.222 17.8853 153.809 17.544C154.406 17.192 155.083 17.016 155.841 17.016C156.395 17.016 156.891 17.1067 157.329 17.288C157.777 17.4693 158.155 17.7307 158.465 18.072C158.785 18.4133 159.025 18.8293 159.185 19.32C159.355 19.8 159.441 20.344 159.441 20.952C159.441 21.144 159.371 21.2933 159.233 21.4C159.105 21.496 158.918 21.544 158.673 21.544H153.537V20.392H158.033L157.777 20.632C157.777 20.1413 157.702 19.7307 157.553 19.4C157.414 19.0693 157.206 18.8187 156.929 18.648C156.662 18.4667 156.326 18.376 155.921 18.376C155.473 18.376 155.089 18.4827 154.769 18.696C154.459 18.8987 154.219 19.192 154.049 19.576C153.889 19.9493 153.809 20.3973 153.809 20.92V21.032C153.809 21.9067 154.011 22.5627 154.417 23C154.833 23.4267 155.441 23.64 156.241 23.64C156.518 23.64 156.827 23.608 157.169 23.544C157.521 23.4693 157.851 23.3467 158.161 23.176C158.385 23.048 158.582 22.9947 158.753 23.016C158.923 23.0267 159.057 23.0853 159.153 23.192C159.259 23.2987 159.323 23.432 159.345 23.592C159.366 23.7413 159.334 23.896 159.249 24.056C159.174 24.216 159.041 24.3547 158.849 24.472C158.475 24.7067 158.043 24.8827 157.553 25C157.073 25.1067 156.625 25.16 156.209 25.16ZM162.048 25.128C161.718 25.128 161.462 25.0427 161.28 24.872C161.11 24.6907 161.024 24.4347 161.024 24.104V18.056C161.024 17.7253 161.11 17.4747 161.28 17.304C161.451 17.1333 161.691 17.048 162 17.048C162.31 17.048 162.55 17.1333 162.72 17.304C162.891 17.4747 162.976 17.7253 162.976 18.056V19.064H162.816C162.966 18.424 163.259 17.9387 163.696 17.608C164.134 17.2773 164.715 17.08 165.44 17.016C165.664 16.9947 165.84 17.0533 165.968 17.192C166.107 17.32 166.187 17.5227 166.208 17.8C166.23 18.0667 166.166 18.2853 166.016 18.456C165.878 18.616 165.664 18.712 165.376 18.744L165.024 18.776C164.374 18.84 163.883 19.0427 163.552 19.384C163.222 19.7147 163.056 20.184 163.056 20.792V24.104C163.056 24.4347 162.971 24.6907 162.8 24.872C162.63 25.0427 162.379 25.128 162.048 25.128ZM169.788 25.16C169.223 25.16 168.716 25.0533 168.268 24.84C167.831 24.616 167.484 24.3173 167.228 23.944C166.983 23.5707 166.86 23.1493 166.86 22.68C166.86 22.104 167.009 21.6507 167.308 21.32C167.607 20.9787 168.092 20.7333 168.764 20.584C169.436 20.4347 170.337 20.36 171.468 20.36H172.268V21.512H171.484C170.823 21.512 170.295 21.544 169.9 21.608C169.505 21.672 169.223 21.784 169.052 21.944C168.892 22.0933 168.812 22.3067 168.812 22.584C168.812 22.936 168.935 23.224 169.18 23.448C169.425 23.672 169.767 23.784 170.204 23.784C170.556 23.784 170.865 23.704 171.132 23.544C171.409 23.3733 171.628 23.144 171.788 22.856C171.948 22.568 172.028 22.2373 172.028 21.864V20.024C172.028 19.4907 171.911 19.1067 171.676 18.872C171.441 18.6373 171.047 18.52 170.492 18.52C170.183 18.52 169.847 18.5573 169.484 18.632C169.132 18.7067 168.759 18.8347 168.364 19.016C168.161 19.112 167.98 19.1387 167.82 19.096C167.671 19.0533 167.553 18.968 167.468 18.84C167.383 18.7013 167.34 18.552 167.34 18.392C167.34 18.232 167.383 18.0773 167.468 17.928C167.553 17.768 167.697 17.6507 167.9 17.576C168.391 17.3733 168.86 17.2293 169.308 17.144C169.767 17.0587 170.183 17.016 170.556 17.016C171.324 17.016 171.953 17.1333 172.444 17.368C172.945 17.6027 173.319 17.96 173.564 18.44C173.809 18.9093 173.932 19.5173 173.932 20.264V24.104C173.932 24.4347 173.852 24.6907 173.692 24.872C173.532 25.0427 173.303 25.128 173.004 25.128C172.705 25.128 172.471 25.0427 172.3 24.872C172.14 24.6907 172.06 24.4347 172.06 24.104V23.336H172.188C172.113 23.7093 171.964 24.0347 171.74 24.312C171.527 24.5787 171.255 24.7867 170.924 24.936C170.593 25.0853 170.215 25.16 169.788 25.16ZM178.634 25.16C177.749 25.16 177.082 24.9093 176.634 24.408C176.186 23.896 175.962 23.1493 175.962 22.168V14.6C175.962 14.2693 176.047 14.0187 176.218 13.848C176.389 13.6773 176.634 13.592 176.954 13.592C177.274 13.592 177.519 13.6773 177.69 13.848C177.871 14.0187 177.962 14.2693 177.962 14.6V22.072C177.962 22.5627 178.063 22.9253 178.266 23.16C178.479 23.3947 178.778 23.512 179.162 23.512C179.247 23.512 179.327 23.512 179.402 23.512C179.477 23.5013 179.551 23.4907 179.626 23.48C179.775 23.4587 179.877 23.5013 179.93 23.608C179.983 23.704 180.01 23.9067 180.01 24.216C180.01 24.4827 179.957 24.6907 179.85 24.84C179.743 24.9893 179.567 25.08 179.322 25.112C179.215 25.1227 179.103 25.1333 178.986 25.144C178.869 25.1547 178.751 25.16 178.634 25.16ZM186.647 25C186.316 25 186.06 24.9093 185.879 24.728C185.698 24.536 185.607 24.2747 185.607 23.944V14.712C185.607 14.3707 185.692 14.1147 185.863 13.944C186.044 13.7627 186.3 13.672 186.631 13.672C186.962 13.672 187.212 13.7627 187.383 13.944C187.564 14.1147 187.655 14.3707 187.655 14.712V23.256H192.295C192.583 23.256 192.802 23.3307 192.951 23.48C193.111 23.6293 193.191 23.8427 193.191 24.12C193.191 24.3973 193.111 24.616 192.951 24.776C192.802 24.9253 192.583 25 192.295 25H186.647ZM195.391 25.112C195.071 25.112 194.826 25.016 194.655 24.824C194.485 24.632 194.399 24.3653 194.399 24.024V18.152C194.399 17.8 194.485 17.5333 194.655 17.352C194.826 17.16 195.071 17.064 195.391 17.064C195.711 17.064 195.957 17.16 196.127 17.352C196.309 17.5333 196.399 17.8 196.399 18.152V24.024C196.399 24.3653 196.314 24.632 196.143 24.824C195.973 25.016 195.722 25.112 195.391 25.112ZM195.391 15.576C195.018 15.576 194.725 15.4853 194.511 15.304C194.309 15.112 194.207 14.8507 194.207 14.52C194.207 14.1787 194.309 13.9173 194.511 13.736C194.725 13.5547 195.018 13.464 195.391 13.464C195.775 13.464 196.069 13.5547 196.271 13.736C196.474 13.9173 196.575 14.1787 196.575 14.52C196.575 14.8507 196.474 15.112 196.271 15.304C196.069 15.4853 195.775 15.576 195.391 15.576ZM201.054 25.16C200.488 25.16 199.982 25.0533 199.534 24.84C199.096 24.616 198.75 24.3173 198.493 23.944C198.248 23.5707 198.126 23.1493 198.126 22.68C198.126 22.104 198.275 21.6507 198.574 21.32C198.872 20.9787 199.358 20.7333 200.03 20.584C200.702 20.4347 201.603 20.36 202.734 20.36H203.534V21.512H202.75C202.088 21.512 201.56 21.544 201.166 21.608C200.771 21.672 200.488 21.784 200.318 21.944C200.158 22.0933 200.078 22.3067 200.078 22.584C200.078 22.936 200.2 23.224 200.446 23.448C200.691 23.672 201.032 23.784 201.47 23.784C201.822 23.784 202.131 23.704 202.398 23.544C202.675 23.3733 202.894 23.144 203.054 22.856C203.214 22.568 203.294 22.2373 203.294 21.864V20.024C203.294 19.4907 203.176 19.1067 202.942 18.872C202.707 18.6373 202.312 18.52 201.758 18.52C201.448 18.52 201.112 18.5573 200.75 18.632C200.398 18.7067 200.024 18.8347 199.63 19.016C199.427 19.112 199.246 19.1387 199.086 19.096C198.936 19.0533 198.819 18.968 198.734 18.84C198.648 18.7013 198.606 18.552 198.606 18.392C198.606 18.232 198.648 18.0773 198.734 17.928C198.819 17.768 198.963 17.6507 199.166 17.576C199.656 17.3733 200.126 17.2293 200.574 17.144C201.032 17.0587 201.448 17.016 201.822 17.016C202.59 17.016 203.219 17.1333 203.71 17.368C204.211 17.6027 204.584 17.96 204.83 18.44C205.075 18.9093 205.198 19.5173 205.198 20.264V24.104C205.198 24.4347 205.118 24.6907 204.958 24.872C204.798 25.0427 204.568 25.128 204.27 25.128C203.971 25.128 203.736 25.0427 203.566 24.872C203.406 24.6907 203.326 24.4347 203.326 24.104V23.336H203.454C203.379 23.7093 203.23 24.0347 203.006 24.312C202.792 24.5787 202.52 24.7867 202.19 24.936C201.859 25.0853 201.48 25.16 201.054 25.16ZM211.74 25.16C211.078 25.16 210.497 24.9947 209.996 24.664C209.505 24.3333 209.18 23.8907 209.02 23.336L209.196 22.936V24.104C209.196 24.4347 209.11 24.6907 208.94 24.872C208.769 25.0427 208.529 25.128 208.22 25.128C207.9 25.128 207.654 25.0427 207.484 24.872C207.313 24.6907 207.228 24.4347 207.228 24.104V14.6C207.228 14.2693 207.313 14.0187 207.484 13.848C207.654 13.6773 207.9 13.592 208.22 13.592C208.54 13.592 208.785 13.6773 208.956 13.848C209.137 14.0187 209.228 14.2693 209.228 14.6V18.76H209.036C209.206 18.2373 209.537 17.816 210.028 17.496C210.518 17.176 211.089 17.016 211.74 17.016C212.433 17.016 213.036 17.1813 213.548 17.512C214.06 17.8427 214.46 18.312 214.748 18.92C215.036 19.5173 215.18 20.2373 215.18 21.08C215.18 21.912 215.036 22.6373 214.748 23.256C214.46 23.864 214.054 24.3333 213.532 24.664C213.02 24.9947 212.422 25.16 211.74 25.16ZM211.18 23.64C211.574 23.64 211.921 23.544 212.22 23.352C212.518 23.16 212.748 22.8773 212.908 22.504C213.078 22.12 213.164 21.6453 213.164 21.08C213.164 20.2267 212.982 19.592 212.62 19.176C212.257 18.7493 211.777 18.536 211.18 18.536C210.785 18.536 210.438 18.632 210.14 18.824C209.841 19.0053 209.606 19.288 209.436 19.672C209.276 20.0453 209.196 20.5147 209.196 21.08C209.196 21.9227 209.377 22.5627 209.74 23C210.102 23.4267 210.582 23.64 211.18 23.64ZM217.813 25.112C217.493 25.112 217.248 25.016 217.077 24.824C216.907 24.632 216.821 24.3653 216.821 24.024V18.152C216.821 17.8 216.907 17.5333 217.077 17.352C217.248 17.16 217.493 17.064 217.813 17.064C218.133 17.064 218.379 17.16 218.549 17.352C218.731 17.5333 218.821 17.8 218.821 18.152V24.024C218.821 24.3653 218.736 24.632 218.565 24.824C218.395 25.016 218.144 25.112 217.813 25.112ZM217.813 15.576C217.44 15.576 217.147 15.4853 216.933 15.304C216.731 15.112 216.629 14.8507 216.629 14.52C216.629 14.1787 216.731 13.9173 216.933 13.736C217.147 13.5547 217.44 13.464 217.813 13.464C218.197 13.464 218.491 13.5547 218.693 13.736C218.896 13.9173 218.997 14.1787 218.997 14.52C218.997 14.8507 218.896 15.112 218.693 15.304C218.491 15.4853 218.197 15.576 217.813 15.576ZM223.571 25.16C222.686 25.16 222.019 24.9093 221.571 24.408C221.123 23.896 220.899 23.1493 220.899 22.168V14.6C220.899 14.2693 220.985 14.0187 221.155 13.848C221.326 13.6773 221.571 13.592 221.891 13.592C222.211 13.592 222.457 13.6773 222.627 13.848C222.809 14.0187 222.899 14.2693 222.899 14.6V22.072C222.899 22.5627 223.001 22.9253 223.203 23.16C223.417 23.3947 223.715 23.512 224.099 23.512C224.185 23.512 224.265 23.512 224.339 23.512C224.414 23.5013 224.489 23.4907 224.563 23.48C224.713 23.4587 224.814 23.5013 224.867 23.608C224.921 23.704 224.947 23.9067 224.947 24.216C224.947 24.4827 224.894 24.6907 224.787 24.84C224.681 24.9893 224.505 25.08 224.259 25.112C224.153 25.1227 224.041 25.1333 223.923 25.144C223.806 25.1547 223.689 25.16 223.571 25.16ZM227.001 25.112C226.681 25.112 226.435 25.016 226.265 24.824C226.094 24.632 226.009 24.3653 226.009 24.024V18.152C226.009 17.8 226.094 17.5333 226.265 17.352C226.435 17.16 226.681 17.064 227.001 17.064C227.321 17.064 227.566 17.16 227.737 17.352C227.918 17.5333 228.009 17.8 228.009 18.152V24.024C228.009 24.3653 227.923 24.632 227.753 24.824C227.582 25.016 227.331 25.112 227.001 25.112ZM227.001 15.576C226.627 15.576 226.334 15.4853 226.121 15.304C225.918 15.112 225.817 14.8507 225.817 14.52C225.817 14.1787 225.918 13.9173 226.121 13.736C226.334 13.5547 226.627 13.464 227.001 13.464C227.385 13.464 227.678 13.5547 227.881 13.736C228.083 13.9173 228.185 14.1787 228.185 14.52C228.185 14.8507 228.083 15.112 227.881 15.304C227.678 15.4853 227.385 15.576 227.001 15.576ZM233.671 25.16C232.978 25.16 232.396 25.0427 231.927 24.808C231.468 24.5733 231.127 24.232 230.903 23.784C230.679 23.3253 230.567 22.76 230.567 22.088V18.68H229.735C229.479 18.68 229.282 18.616 229.143 18.488C229.004 18.3493 228.935 18.1627 228.935 17.928C228.935 17.6827 229.004 17.496 229.143 17.368C229.282 17.24 229.479 17.176 229.735 17.176H230.567V15.72C230.567 15.3893 230.652 15.1387 230.823 14.968C231.004 14.7973 231.255 14.712 231.575 14.712C231.895 14.712 232.14 14.7973 232.311 14.968C232.482 15.1387 232.567 15.3893 232.567 15.72V17.176H234.263C234.519 17.176 234.716 17.24 234.855 17.368C234.994 17.496 235.063 17.6827 235.063 17.928C235.063 18.1627 234.994 18.3493 234.855 18.488C234.716 18.616 234.519 18.68 234.263 18.68H232.567V21.976C232.567 22.488 232.679 22.872 232.903 23.128C233.127 23.384 233.49 23.512 233.991 23.512C234.172 23.512 234.332 23.496 234.471 23.464C234.61 23.432 234.732 23.4107 234.839 23.4C234.967 23.3893 235.074 23.432 235.159 23.528C235.244 23.6133 235.287 23.7947 235.287 24.072C235.287 24.2853 235.25 24.4773 235.175 24.648C235.111 24.808 234.988 24.92 234.807 24.984C234.668 25.0267 234.487 25.064 234.263 25.096C234.039 25.1387 233.842 25.16 233.671 25.16ZM238.337 28.008C238.102 28.008 237.91 27.944 237.761 27.816C237.611 27.6987 237.521 27.5387 237.489 27.336C237.467 27.1333 237.505 26.92 237.601 26.696L238.689 24.28V25.112L235.777 18.376C235.681 18.1413 235.649 17.9227 235.681 17.72C235.713 17.5173 235.809 17.3573 235.969 17.24C236.139 17.112 236.369 17.048 236.657 17.048C236.902 17.048 237.099 17.1067 237.249 17.224C237.398 17.3307 237.531 17.5387 237.649 17.848L239.809 23.24H239.329L241.537 17.832C241.654 17.5333 241.793 17.3307 241.953 17.224C242.113 17.1067 242.326 17.048 242.593 17.048C242.827 17.048 243.014 17.112 243.153 17.24C243.291 17.3573 243.377 17.5173 243.409 17.72C243.441 17.912 243.403 18.1253 243.297 18.36L239.409 27.24C239.27 27.5387 239.121 27.7413 238.961 27.848C238.801 27.9547 238.593 28.008 238.337 28.008ZM37.1466 47.128C36.816 47.128 36.56 47.0373 36.3786 46.856C36.208 46.664 36.1226 46.4027 36.1226 46.072V36.648C36.1226 36.3067 36.208 36.0453 36.3786 35.864C36.56 35.6827 36.816 35.592 37.1466 35.592C37.4773 35.592 37.728 35.6827 37.8986 35.864C38.08 36.0453 38.1706 36.3067 38.1706 36.648V46.072C38.1706 46.4027 38.0853 46.664 37.9146 46.856C37.744 47.0373 37.488 47.128 37.1466 47.128ZM41.4383 47.128C41.1183 47.128 40.8729 47.0427 40.7023 46.872C40.5316 46.6907 40.4463 46.4347 40.4463 46.104V40.056C40.4463 39.7253 40.5316 39.4747 40.7023 39.304C40.8729 39.1333 41.1129 39.048 41.4223 39.048C41.7316 39.048 41.9716 39.1333 42.1423 39.304C42.3129 39.4747 42.3983 39.7253 42.3983 40.056V41.144L42.2223 40.744C42.4569 40.1787 42.8196 39.752 43.3103 39.464C43.8116 39.1653 44.3769 39.016 45.0063 39.016C45.6356 39.016 46.1529 39.1333 46.5583 39.368C46.9636 39.6027 47.2676 39.96 47.4703 40.44C47.6729 40.9093 47.7743 41.5067 47.7743 42.232V46.104C47.7743 46.4347 47.6889 46.6907 47.5183 46.872C47.3476 47.0427 47.1023 47.128 46.7823 47.128C46.4623 47.128 46.2116 47.0427 46.0303 46.872C45.8596 46.6907 45.7743 46.4347 45.7743 46.104V42.328C45.7743 41.72 45.6569 41.2773 45.4223 41C45.1983 40.7227 44.8463 40.584 44.3663 40.584C43.7796 40.584 43.3103 40.7707 42.9583 41.144C42.6169 41.5067 42.4463 41.992 42.4463 42.6V46.104C42.4463 46.7867 42.1103 47.128 41.4383 47.128ZM52.6696 47.16C52.211 47.16 51.7256 47.112 51.2136 47.016C50.7016 46.92 50.243 46.7547 49.8376 46.52C49.667 46.4133 49.5443 46.2907 49.4696 46.152C49.4056 46.0027 49.379 45.8587 49.3896 45.72C49.411 45.5707 49.4643 45.4427 49.5496 45.336C49.6456 45.2293 49.763 45.16 49.9016 45.128C50.051 45.096 50.211 45.1227 50.3816 45.208C50.8083 45.4107 51.2083 45.5547 51.5816 45.64C51.955 45.7147 52.323 45.752 52.6856 45.752C53.1976 45.752 53.5763 45.6667 53.8216 45.496C54.0776 45.3147 54.2056 45.08 54.2056 44.792C54.2056 44.5467 54.1203 44.36 53.9496 44.232C53.7896 44.0933 53.5443 43.992 53.2136 43.928L51.6136 43.624C50.9523 43.496 50.4456 43.256 50.0936 42.904C49.7523 42.5413 49.5816 42.0773 49.5816 41.512C49.5816 41 49.7203 40.5573 49.9976 40.184C50.2856 39.8107 50.6803 39.5227 51.1816 39.32C51.683 39.1173 52.259 39.016 52.9096 39.016C53.379 39.016 53.8163 39.0693 54.2216 39.176C54.6376 39.272 55.0376 39.4267 55.4216 39.64C55.5816 39.7253 55.6883 39.8373 55.7416 39.976C55.8056 40.1147 55.8216 40.2587 55.7896 40.408C55.7576 40.5467 55.6936 40.6747 55.5976 40.792C55.5016 40.8987 55.379 40.968 55.2296 41C55.091 41.0213 54.931 40.9893 54.7496 40.904C54.419 40.7333 54.099 40.6107 53.7896 40.536C53.491 40.4613 53.203 40.424 52.9256 40.424C52.403 40.424 52.0136 40.5147 51.7576 40.696C51.5123 40.8773 51.3896 41.1173 51.3896 41.416C51.3896 41.64 51.4643 41.8267 51.6136 41.976C51.763 42.1253 51.9923 42.2267 52.3016 42.28L53.9016 42.584C54.595 42.712 55.1176 42.9467 55.4696 43.288C55.8323 43.6293 56.0136 44.088 56.0136 44.664C56.0136 45.4427 55.7096 46.056 55.1016 46.504C54.4936 46.9413 53.683 47.16 52.6696 47.16ZM60.4501 47.16C59.7995 47.16 59.2608 47.0427 58.8341 46.808C58.4075 46.5627 58.0875 46.2 57.8741 45.72C57.6715 45.24 57.5701 44.6427 57.5701 43.928V40.056C57.5701 39.7147 57.6555 39.464 57.8261 39.304C57.9968 39.1333 58.2421 39.048 58.5621 39.048C58.8821 39.048 59.1275 39.1333 59.2981 39.304C59.4795 39.464 59.5701 39.7147 59.5701 40.056V43.96C59.5701 44.5147 59.6821 44.9253 59.9061 45.192C60.1301 45.4587 60.4875 45.592 60.9781 45.592C61.5115 45.592 61.9488 45.4107 62.2901 45.048C62.6315 44.6747 62.8021 44.184 62.8021 43.576V40.056C62.8021 39.7147 62.8875 39.464 63.0581 39.304C63.2288 39.1333 63.4741 39.048 63.7941 39.048C64.1141 39.048 64.3595 39.1333 64.5301 39.304C64.7115 39.464 64.8021 39.7147 64.8021 40.056V46.104C64.8021 46.7867 64.4768 47.128 63.8261 47.128C63.5168 47.128 63.2768 47.0427 63.1061 46.872C62.9355 46.6907 62.8501 46.4347 62.8501 46.104V44.888L63.0741 45.368C62.8501 45.944 62.5088 46.3867 62.0501 46.696C61.6021 47.0053 61.0688 47.16 60.4501 47.16ZM67.9078 47.128C67.5771 47.128 67.3211 47.0427 67.1398 46.872C66.9691 46.6907 66.8838 46.4347 66.8838 46.104V40.056C66.8838 39.7253 66.9691 39.4747 67.1398 39.304C67.3104 39.1333 67.5504 39.048 67.8598 39.048C68.1691 39.048 68.4091 39.1333 68.5798 39.304C68.7504 39.4747 68.8358 39.7253 68.8358 40.056V41.064H68.6758C68.8251 40.424 69.1184 39.9387 69.5558 39.608C69.9931 39.2773 70.5744 39.08 71.2998 39.016C71.5238 38.9947 71.6998 39.0533 71.8278 39.192C71.9664 39.32 72.0464 39.5227 72.0678 39.8C72.0891 40.0667 72.0251 40.2853 71.8758 40.456C71.7371 40.616 71.5238 40.712 71.2358 40.744L70.8838 40.776C70.2331 40.84 69.7424 41.0427 69.4118 41.384C69.0811 41.7147 68.9158 42.184 68.9158 42.792V46.104C68.9158 46.4347 68.8304 46.6907 68.6598 46.872C68.4891 47.0427 68.2384 47.128 67.9078 47.128ZM75.6473 47.16C75.0819 47.16 74.5753 47.0533 74.1273 46.84C73.6899 46.616 73.3433 46.3173 73.0872 45.944C72.8419 45.5707 72.7193 45.1493 72.7193 44.68C72.7193 44.104 72.8686 43.6507 73.1673 43.32C73.4659 42.9787 73.9513 42.7333 74.6233 42.584C75.2953 42.4347 76.1966 42.36 77.3273 42.36H78.1273V43.512H77.3433C76.6819 43.512 76.1539 43.544 75.7593 43.608C75.3646 43.672 75.0819 43.784 74.9113 43.944C74.7513 44.0933 74.6713 44.3067 74.6713 44.584C74.6713 44.936 74.7939 45.224 75.0393 45.448C75.2846 45.672 75.6259 45.784 76.0633 45.784C76.4153 45.784 76.7246 45.704 76.9913 45.544C77.2686 45.3733 77.4873 45.144 77.6473 44.856C77.8073 44.568 77.8873 44.2373 77.8873 43.864V42.024C77.8873 41.4907 77.7699 41.1067 77.5353 40.872C77.3006 40.6373 76.9059 40.52 76.3513 40.52C76.0419 40.52 75.7059 40.5573 75.3433 40.632C74.9913 40.7067 74.6179 40.8347 74.2233 41.016C74.0206 41.112 73.8393 41.1387 73.6793 41.096C73.5299 41.0533 73.4126 40.968 73.3273 40.84C73.2419 40.7013 73.1993 40.552 73.1993 40.392C73.1993 40.232 73.2419 40.0773 73.3273 39.928C73.4126 39.768 73.5566 39.6507 73.7593 39.576C74.2499 39.3733 74.7193 39.2293 75.1673 39.144C75.6259 39.0587 76.0419 39.016 76.4153 39.016C77.1833 39.016 77.8126 39.1333 78.3033 39.368C78.8046 39.6027 79.1779 39.96 79.4233 40.44C79.6686 40.9093 79.7913 41.5173 79.7913 42.264V46.104C79.7913 46.4347 79.7113 46.6907 79.5513 46.872C79.3913 47.0427 79.1619 47.128 78.8633 47.128C78.5646 47.128 78.3299 47.0427 78.1593 46.872C77.9993 46.6907 77.9193 46.4347 77.9193 46.104V45.336H78.0473C77.9726 45.7093 77.8233 46.0347 77.5993 46.312C77.3859 46.5787 77.1139 46.7867 76.7833 46.936C76.4526 47.0853 76.0739 47.16 75.6473 47.16ZM82.8133 47.128C82.4933 47.128 82.2479 47.0427 82.0773 46.872C81.9066 46.6907 81.8213 46.4347 81.8213 46.104V40.056C81.8213 39.7253 81.9066 39.4747 82.0773 39.304C82.2479 39.1333 82.4879 39.048 82.7973 39.048C83.1066 39.048 83.3466 39.1333 83.5173 39.304C83.6879 39.4747 83.7733 39.7253 83.7733 40.056V41.144L83.5973 40.744C83.8319 40.1787 84.1946 39.752 84.6853 39.464C85.1866 39.1653 85.7519 39.016 86.3813 39.016C87.0106 39.016 87.5279 39.1333 87.9333 39.368C88.3386 39.6027 88.6426 39.96 88.8453 40.44C89.0479 40.9093 89.1493 41.5067 89.1493 42.232V46.104C89.1493 46.4347 89.0639 46.6907 88.8933 46.872C88.7226 47.0427 88.4773 47.128 88.1573 47.128C87.8373 47.128 87.5866 47.0427 87.4053 46.872C87.2346 46.6907 87.1493 46.4347 87.1493 46.104V42.328C87.1493 41.72 87.0319 41.2773 86.7973 41C86.5733 40.7227 86.2213 40.584 85.7413 40.584C85.1546 40.584 84.6853 40.7707 84.3333 41.144C83.9919 41.5067 83.8213 41.992 83.8213 42.6V46.104C83.8213 46.7867 83.4853 47.128 82.8133 47.128ZM94.7966 47.16C93.9753 47.16 93.2606 46.9947 92.6526 46.664C92.0446 46.3227 91.5753 45.8427 91.2446 45.224C90.914 44.6053 90.7486 43.88 90.7486 43.048C90.7486 42.4187 90.8393 41.8587 91.0206 41.368C91.2126 40.8667 91.4846 40.4453 91.8366 40.104C92.1886 39.752 92.6153 39.4853 93.1166 39.304C93.618 39.112 94.178 39.016 94.7966 39.016C95.1486 39.016 95.5273 39.064 95.9326 39.16C96.3486 39.256 96.738 39.416 97.1006 39.64C97.2713 39.7467 97.3833 39.8747 97.4366 40.024C97.49 40.1733 97.5006 40.328 97.4686 40.488C97.4366 40.6373 97.3673 40.7707 97.2606 40.888C97.1646 40.9947 97.042 41.064 96.8926 41.096C96.7433 41.1173 96.578 41.08 96.3966 40.984C96.162 40.8453 95.922 40.744 95.6766 40.68C95.4313 40.6053 95.1966 40.568 94.9726 40.568C94.6206 40.568 94.3113 40.6267 94.0446 40.744C93.778 40.8507 93.5486 41.0107 93.3566 41.224C93.1753 41.4267 93.0366 41.6827 92.9406 41.992C92.8446 42.3013 92.7966 42.6587 92.7966 43.064C92.7966 43.8533 92.9833 44.4773 93.3566 44.936C93.7406 45.384 94.2793 45.608 94.9726 45.608C95.1966 45.608 95.426 45.576 95.6606 45.512C95.906 45.448 96.1513 45.3467 96.3966 45.208C96.578 45.112 96.738 45.08 96.8766 45.112C97.026 45.144 97.1486 45.2187 97.2446 45.336C97.3406 45.4427 97.3993 45.576 97.4206 45.736C97.442 45.8853 97.4206 46.0347 97.3566 46.184C97.3033 46.3333 97.1966 46.456 97.0366 46.552C96.6846 46.7653 96.3113 46.92 95.9166 47.016C95.522 47.112 95.1486 47.16 94.7966 47.16ZM102.427 47.16C101.542 47.16 100.779 46.9947 100.139 46.664C99.4993 46.3333 99.0033 45.864 98.6513 45.256C98.3099 44.648 98.1393 43.928 98.1393 43.096C98.1393 42.2853 98.3046 41.576 98.6353 40.968C98.9766 40.36 99.4406 39.8853 100.027 39.544C100.625 39.192 101.302 39.016 102.059 39.016C102.614 39.016 103.11 39.1067 103.547 39.288C103.995 39.4693 104.374 39.7307 104.683 40.072C105.003 40.4133 105.243 40.8293 105.403 41.32C105.574 41.8 105.659 42.344 105.659 42.952C105.659 43.144 105.59 43.2933 105.451 43.4C105.323 43.496 105.137 43.544 104.891 43.544H99.7553V42.392H104.251L103.995 42.632C103.995 42.1413 103.921 41.7307 103.771 41.4C103.633 41.0693 103.425 40.8187 103.147 40.648C102.881 40.4667 102.545 40.376 102.139 40.376C101.691 40.376 101.307 40.4827 100.987 40.696C100.678 40.8987 100.438 41.192 100.267 41.576C100.107 41.9493 100.027 42.3973 100.027 42.92V43.032C100.027 43.9067 100.23 44.5627 100.635 45C101.051 45.4267 101.659 45.64 102.459 45.64C102.737 45.64 103.046 45.608 103.387 45.544C103.739 45.4693 104.07 45.3467 104.379 45.176C104.603 45.048 104.801 44.9947 104.971 45.016C105.142 45.0267 105.275 45.0853 105.371 45.192C105.478 45.2987 105.542 45.432 105.563 45.592C105.585 45.7413 105.553 45.896 105.467 46.056C105.393 46.216 105.259 46.3547 105.067 46.472C104.694 46.7067 104.262 46.8827 103.771 47C103.291 47.1067 102.843 47.16 102.427 47.16ZM108.203 47.08C107.84 47.08 107.547 46.968 107.323 46.744C107.11 46.52 107.003 46.232 107.003 45.88C107.003 45.5387 107.11 45.2613 107.323 45.048C107.547 44.824 107.84 44.712 108.203 44.712C108.576 44.712 108.864 44.824 109.067 45.048C109.28 45.2613 109.387 45.5387 109.387 45.88C109.387 46.232 109.28 46.52 109.067 46.744C108.864 46.968 108.576 47.08 108.203 47.08ZM108.203 41.464C107.84 41.464 107.547 41.352 107.323 41.128C107.11 40.904 107.003 40.6213 107.003 40.28C107.003 39.928 107.11 39.6453 107.323 39.432C107.547 39.208 107.84 39.096 108.203 39.096C108.576 39.096 108.864 39.208 109.067 39.432C109.28 39.6453 109.387 39.928 109.387 40.28C109.387 40.6213 109.28 40.904 109.067 41.128C108.864 41.352 108.576 41.464 108.203 41.464ZM115.86 47.128C115.604 47.128 115.396 47.0693 115.236 46.952C115.086 46.8347 114.996 46.68 114.964 46.488C114.932 46.2853 114.969 46.0613 115.076 45.816L119.3 36.456C119.438 36.1467 119.604 35.928 119.796 35.8C119.998 35.6613 120.228 35.592 120.484 35.592C120.729 35.592 120.948 35.6613 121.14 35.8C121.342 35.928 121.513 36.1467 121.652 36.456L125.892 45.816C126.009 46.0613 126.052 46.2853 126.02 46.488C125.988 46.6907 125.897 46.8507 125.748 46.968C125.598 47.0747 125.401 47.128 125.156 47.128C124.857 47.128 124.622 47.0587 124.452 46.92C124.292 46.7707 124.148 46.5467 124.02 46.248L122.98 43.832L123.844 44.392H117.092L117.956 43.832L116.932 46.248C116.793 46.5573 116.649 46.7813 116.5 46.92C116.35 47.0587 116.137 47.128 115.86 47.128ZM120.452 37.944L118.212 43.272L117.796 42.76H123.14L122.74 43.272L120.484 37.944H120.452ZM132.958 47.128C132.659 47.128 132.43 47.0427 132.27 46.872C132.11 46.7013 132.03 46.4667 132.03 46.168V36.552C132.03 36.2427 132.115 36.008 132.286 35.848C132.456 35.6773 132.691 35.592 132.99 35.592C133.256 35.592 133.464 35.6453 133.614 35.752C133.774 35.848 133.918 36.0187 134.046 36.264L137.998 43.576H137.486L141.438 36.264C141.566 36.0187 141.704 35.848 141.854 35.752C142.003 35.6453 142.211 35.592 142.478 35.592C142.776 35.592 143.006 35.6773 143.166 35.848C143.326 36.008 143.406 36.2427 143.406 36.552V46.168C143.406 46.4667 143.326 46.7013 143.166 46.872C143.016 47.0427 142.787 47.128 142.478 47.128C142.179 47.128 141.95 47.0427 141.79 46.872C141.63 46.7013 141.55 46.4667 141.55 46.168V38.76H141.902L138.542 44.888C138.435 45.0693 138.323 45.2027 138.206 45.288C138.088 45.3733 137.928 45.416 137.726 45.416C137.523 45.416 137.358 45.3733 137.23 45.288C137.102 45.192 136.99 45.0587 136.894 44.888L133.502 38.744H133.886V46.168C133.886 46.4667 133.806 46.7013 133.646 46.872C133.496 47.0427 133.267 47.128 132.958 47.128ZM148.528 47.16C147.878 47.16 147.339 47.0427 146.912 46.808C146.486 46.5627 146.166 46.2 145.952 45.72C145.75 45.24 145.648 44.6427 145.648 43.928V40.056C145.648 39.7147 145.734 39.464 145.904 39.304C146.075 39.1333 146.32 39.048 146.64 39.048C146.96 39.048 147.206 39.1333 147.376 39.304C147.558 39.464 147.648 39.7147 147.648 40.056V43.96C147.648 44.5147 147.76 44.9253 147.984 45.192C148.208 45.4587 148.566 45.592 149.056 45.592C149.59 45.592 150.027 45.4107 150.368 45.048C150.71 44.6747 150.88 44.184 150.88 43.576V40.056C150.88 39.7147 150.966 39.464 151.136 39.304C151.307 39.1333 151.552 39.048 151.872 39.048C152.192 39.048 152.438 39.1333 152.608 39.304C152.79 39.464 152.88 39.7147 152.88 40.056V46.104C152.88 46.7867 152.555 47.128 151.904 47.128C151.595 47.128 151.355 47.0427 151.184 46.872C151.014 46.6907 150.928 46.4347 150.928 46.104V44.888L151.152 45.368C150.928 45.944 150.587 46.3867 150.128 46.696C149.68 47.0053 149.147 47.16 148.528 47.16ZM157.826 47.16C157.367 47.16 156.882 47.112 156.37 47.016C155.858 46.92 155.399 46.7547 154.994 46.52C154.823 46.4133 154.701 46.2907 154.626 46.152C154.562 46.0027 154.535 45.8587 154.546 45.72C154.567 45.5707 154.621 45.4427 154.706 45.336C154.802 45.2293 154.919 45.16 155.058 45.128C155.207 45.096 155.367 45.1227 155.538 45.208C155.965 45.4107 156.365 45.5547 156.738 45.64C157.111 45.7147 157.479 45.752 157.842 45.752C158.354 45.752 158.733 45.6667 158.978 45.496C159.234 45.3147 159.362 45.08 159.362 44.792C159.362 44.5467 159.277 44.36 159.106 44.232C158.946 44.0933 158.701 43.992 158.37 43.928L156.77 43.624C156.109 43.496 155.602 43.256 155.25 42.904C154.909 42.5413 154.738 42.0773 154.738 41.512C154.738 41 154.877 40.5573 155.154 40.184C155.442 39.8107 155.837 39.5227 156.338 39.32C156.839 39.1173 157.415 39.016 158.066 39.016C158.535 39.016 158.973 39.0693 159.378 39.176C159.794 39.272 160.194 39.4267 160.578 39.64C160.738 39.7253 160.845 39.8373 160.898 39.976C160.962 40.1147 160.978 40.2587 160.946 40.408C160.914 40.5467 160.85 40.6747 160.754 40.792C160.658 40.8987 160.535 40.968 160.386 41C160.247 41.0213 160.087 40.9893 159.906 40.904C159.575 40.7333 159.255 40.6107 158.946 40.536C158.647 40.4613 158.359 40.424 158.082 40.424C157.559 40.424 157.17 40.5147 156.914 40.696C156.669 40.8773 156.546 41.1173 156.546 41.416C156.546 41.64 156.621 41.8267 156.77 41.976C156.919 42.1253 157.149 42.2267 157.458 42.28L159.058 42.584C159.751 42.712 160.274 42.9467 160.626 43.288C160.989 43.6293 161.17 44.088 161.17 44.664C161.17 45.4427 160.866 46.056 160.258 46.504C159.65 46.9413 158.839 47.16 157.826 47.16ZM166.28 47.16C165.587 47.16 165.006 47.0427 164.536 46.808C164.078 46.5733 163.736 46.232 163.512 45.784C163.288 45.3253 163.176 44.76 163.176 44.088V40.68H162.344C162.088 40.68 161.891 40.616 161.752 40.488C161.614 40.3493 161.544 40.1627 161.544 39.928C161.544 39.6827 161.614 39.496 161.752 39.368C161.891 39.24 162.088 39.176 162.344 39.176H163.176V37.72C163.176 37.3893 163.262 37.1387 163.432 36.968C163.614 36.7973 163.864 36.712 164.184 36.712C164.504 36.712 164.75 36.7973 164.92 36.968C165.091 37.1387 165.176 37.3893 165.176 37.72V39.176H166.872C167.128 39.176 167.326 39.24 167.464 39.368C167.603 39.496 167.672 39.6827 167.672 39.928C167.672 40.1627 167.603 40.3493 167.464 40.488C167.326 40.616 167.128 40.68 166.872 40.68H165.176V43.976C165.176 44.488 165.288 44.872 165.512 45.128C165.736 45.384 166.099 45.512 166.6 45.512C166.782 45.512 166.942 45.496 167.08 45.464C167.219 45.432 167.342 45.4107 167.448 45.4C167.576 45.3893 167.683 45.432 167.768 45.528C167.854 45.6133 167.896 45.7947 167.896 46.072C167.896 46.2853 167.859 46.4773 167.784 46.648C167.72 46.808 167.598 46.92 167.416 46.984C167.278 47.0267 167.096 47.064 166.872 47.096C166.648 47.1387 166.451 47.16 166.28 47.16ZM169.495 43.512C169.26 43.512 169.063 43.4373 168.903 43.288C168.753 43.128 168.679 42.936 168.679 42.712C168.679 42.4773 168.753 42.2853 168.903 42.136C169.063 41.9867 169.26 41.912 169.495 41.912H172.903C173.127 41.912 173.313 41.9867 173.463 42.136C173.623 42.2853 173.703 42.4773 173.703 42.712C173.703 42.936 173.623 43.128 173.463 43.288C173.313 43.4373 173.127 43.512 172.903 43.512H169.495ZM176.912 47.128C176.582 47.128 176.326 47.0373 176.144 46.856C175.974 46.664 175.888 46.4027 175.888 46.072V36.648C175.888 36.3067 175.974 36.0453 176.144 35.864C176.326 35.6827 176.582 35.592 176.912 35.592C177.243 35.592 177.494 35.6827 177.664 35.864C177.846 36.0453 177.936 36.3067 177.936 36.648V40.424H183.744V36.648C183.744 36.3067 183.83 36.0453 184 35.864C184.182 35.6827 184.438 35.592 184.768 35.592C185.099 35.592 185.35 35.6827 185.52 35.864C185.702 36.0453 185.792 36.3067 185.792 36.648V46.072C185.792 46.4027 185.702 46.664 185.52 46.856C185.35 47.0373 185.099 47.128 184.768 47.128C184.438 47.128 184.182 47.0373 184 46.856C183.83 46.664 183.744 46.4027 183.744 46.072V42.136H177.936V46.072C177.936 46.4027 177.851 46.664 177.68 46.856C177.51 47.0373 177.254 47.128 176.912 47.128ZM190.647 47.16C190.082 47.16 189.575 47.0533 189.127 46.84C188.69 46.616 188.343 46.3173 188.087 45.944C187.842 45.5707 187.719 45.1493 187.719 44.68C187.719 44.104 187.869 43.6507 188.167 43.32C188.466 42.9787 188.951 42.7333 189.623 42.584C190.295 42.4347 191.197 42.36 192.327 42.36H193.127V43.512H192.343C191.682 43.512 191.154 43.544 190.759 43.608C190.365 43.672 190.082 43.784 189.911 43.944C189.751 44.0933 189.671 44.3067 189.671 44.584C189.671 44.936 189.794 45.224 190.039 45.448C190.285 45.672 190.626 45.784 191.063 45.784C191.415 45.784 191.725 45.704 191.991 45.544C192.269 45.3733 192.487 45.144 192.647 44.856C192.807 44.568 192.887 44.2373 192.887 43.864V42.024C192.887 41.4907 192.77 41.1067 192.535 40.872C192.301 40.6373 191.906 40.52 191.351 40.52C191.042 40.52 190.706 40.5573 190.343 40.632C189.991 40.7067 189.618 40.8347 189.223 41.016C189.021 41.112 188.839 41.1387 188.679 41.096C188.53 41.0533 188.413 40.968 188.327 40.84C188.242 40.7013 188.199 40.552 188.199 40.392C188.199 40.232 188.242 40.0773 188.327 39.928C188.413 39.768 188.557 39.6507 188.759 39.576C189.25 39.3733 189.719 39.2293 190.167 39.144C190.626 39.0587 191.042 39.016 191.415 39.016C192.183 39.016 192.813 39.1333 193.303 39.368C193.805 39.6027 194.178 39.96 194.423 40.44C194.669 40.9093 194.791 41.5173 194.791 42.264V46.104C194.791 46.4347 194.711 46.6907 194.551 46.872C194.391 47.0427 194.162 47.128 193.863 47.128C193.565 47.128 193.33 47.0427 193.159 46.872C192.999 46.6907 192.919 46.4347 192.919 46.104V45.336H193.047C192.973 45.7093 192.823 46.0347 192.599 46.312C192.386 46.5787 192.114 46.7867 191.783 46.936C191.453 47.0853 191.074 47.16 190.647 47.16ZM199.911 47.128C199.644 47.128 199.41 47.0587 199.207 46.92C199.015 46.7813 198.855 46.568 198.727 46.28L196.183 40.376C196.087 40.1413 196.05 39.9227 196.071 39.72C196.103 39.5173 196.199 39.3573 196.359 39.24C196.53 39.112 196.759 39.048 197.047 39.048C197.292 39.048 197.49 39.1067 197.639 39.224C197.788 39.3307 197.922 39.5387 198.039 39.848L200.199 45.24H199.719L201.943 39.832C202.06 39.5333 202.194 39.3307 202.343 39.224C202.503 39.1067 202.716 39.048 202.983 39.048C203.218 39.048 203.404 39.112 203.543 39.24C203.682 39.3573 203.767 39.5173 203.799 39.72C203.831 39.912 203.794 40.1253 203.687 40.36L201.095 46.28C200.978 46.568 200.818 46.7813 200.615 46.92C200.423 47.0587 200.188 47.128 199.911 47.128ZM208.88 47.16C207.995 47.16 207.232 46.9947 206.592 46.664C205.952 46.3333 205.456 45.864 205.104 45.256C204.763 44.648 204.592 43.928 204.592 43.096C204.592 42.2853 204.758 41.576 205.088 40.968C205.43 40.36 205.894 39.8853 206.48 39.544C207.078 39.192 207.755 39.016 208.512 39.016C209.067 39.016 209.563 39.1067 210 39.288C210.448 39.4693 210.827 39.7307 211.136 40.072C211.456 40.4133 211.696 40.8293 211.856 41.32C212.027 41.8 212.112 42.344 212.112 42.952C212.112 43.144 212.043 43.2933 211.904 43.4C211.776 43.496 211.59 43.544 211.344 43.544H206.208V42.392H210.704L210.448 42.632C210.448 42.1413 210.374 41.7307 210.224 41.4C210.086 41.0693 209.878 40.8187 209.6 40.648C209.334 40.4667 208.998 40.376 208.592 40.376C208.144 40.376 207.76 40.4827 207.44 40.696C207.131 40.8987 206.891 41.192 206.72 41.576C206.56 41.9493 206.48 42.3973 206.48 42.92V43.032C206.48 43.9067 206.683 44.5627 207.088 45C207.504 45.4267 208.112 45.64 208.912 45.64C209.19 45.64 209.499 45.608 209.84 45.544C210.192 45.4693 210.523 45.3467 210.832 45.176C211.056 45.048 211.254 44.9947 211.424 45.016C211.595 45.0267 211.728 45.0853 211.824 45.192C211.931 45.2987 211.995 45.432 212.016 45.592C212.038 45.7413 212.006 45.896 211.92 46.056C211.846 46.216 211.712 46.3547 211.52 46.472C211.147 46.7067 210.715 46.8827 210.224 47C209.744 47.1067 209.296 47.16 208.88 47.16ZM219.576 47.128C219.256 47.128 219.005 47.0427 218.824 46.872C218.653 46.6907 218.568 46.4347 218.568 46.104V40.68H217.832C217.576 40.68 217.379 40.616 217.24 40.488C217.101 40.3493 217.032 40.1627 217.032 39.928C217.032 39.6827 217.101 39.496 217.24 39.368C217.379 39.24 217.576 39.176 217.832 39.176H219.144L218.568 39.704V39.16C218.568 38.0613 218.845 37.24 219.4 36.696C219.955 36.1413 220.755 35.816 221.8 35.72L222.344 35.672C222.557 35.6507 222.728 35.688 222.856 35.784C222.984 35.8693 223.069 35.9867 223.112 36.136C223.155 36.2747 223.16 36.4187 223.128 36.568C223.096 36.7173 223.027 36.8507 222.92 36.968C222.824 37.0747 222.696 37.1333 222.536 37.144L222.312 37.16C221.704 37.2027 221.261 37.3573 220.984 37.624C220.707 37.8907 220.568 38.296 220.568 38.84V39.432L220.312 39.176H221.928C222.184 39.176 222.381 39.24 222.52 39.368C222.659 39.496 222.728 39.6827 222.728 39.928C222.728 40.1627 222.659 40.3493 222.52 40.488C222.381 40.616 222.184 40.68 221.928 40.68H220.568V46.104C220.568 46.7867 220.237 47.128 219.576 47.128ZM227.233 47.16C226.422 47.16 225.718 46.9947 225.121 46.664C224.524 46.3333 224.06 45.864 223.729 45.256C223.398 44.6373 223.233 43.912 223.233 43.08C223.233 42.4507 223.324 41.8907 223.505 41.4C223.697 40.8987 223.969 40.472 224.321 40.12C224.673 39.7573 225.094 39.4853 225.585 39.304C226.076 39.112 226.625 39.016 227.233 39.016C228.044 39.016 228.748 39.1813 229.345 39.512C229.942 39.8427 230.406 40.312 230.737 40.92C231.068 41.528 231.233 42.248 231.233 43.08C231.233 43.7093 231.137 44.2747 230.945 44.776C230.764 45.2773 230.497 45.7093 230.145 46.072C229.793 46.424 229.372 46.696 228.881 46.888C228.39 47.0693 227.841 47.16 227.233 47.16ZM227.233 45.64C227.628 45.64 227.974 45.544 228.273 45.352C228.572 45.16 228.801 44.8773 228.961 44.504C229.132 44.12 229.217 43.6453 229.217 43.08C229.217 42.2267 229.036 41.592 228.673 41.176C228.31 40.7493 227.83 40.536 227.233 40.536C226.838 40.536 226.492 40.632 226.193 40.824C225.894 41.0053 225.66 41.288 225.489 41.672C225.329 42.0453 225.249 42.5147 225.249 43.08C225.249 43.9227 225.43 44.5627 225.793 45C226.156 45.4267 226.636 45.64 227.233 45.64ZM233.908 47.128C233.577 47.128 233.321 47.0427 233.14 46.872C232.969 46.6907 232.884 46.4347 232.884 46.104V40.056C232.884 39.7253 232.969 39.4747 233.14 39.304C233.31 39.1333 233.55 39.048 233.86 39.048C234.169 39.048 234.409 39.1333 234.58 39.304C234.75 39.4747 234.836 39.7253 234.836 40.056V41.064H234.676C234.825 40.424 235.118 39.9387 235.556 39.608C235.993 39.2773 236.574 39.08 237.3 39.016C237.524 38.9947 237.7 39.0533 237.828 39.192C237.966 39.32 238.046 39.5227 238.068 39.8C238.089 40.0667 238.025 40.2853 237.876 40.456C237.737 40.616 237.524 40.712 237.236 40.744L236.884 40.776C236.233 40.84 235.742 41.0427 235.412 41.384C235.081 41.7147 234.916 42.184 234.916 42.792V46.104C234.916 46.4347 234.83 46.6907 234.66 46.872C234.489 47.0427 234.238 47.128 233.908 47.128ZM60.5315 69.128C60.2755 69.128 60.0675 69.0693 59.9075 68.952C59.7582 68.8347 59.6675 68.68 59.6355 68.488C59.6035 68.2853 59.6408 68.0613 59.7475 67.816L63.9715 58.456C64.1102 58.1467 64.2755 57.928 64.4675 57.8C64.6702 57.6613 64.8995 57.592 65.1555 57.592C65.4008 57.592 65.6195 57.6613 65.8115 57.8C66.0142 57.928 66.1848 58.1467 66.3235 58.456L70.5635 67.816C70.6808 68.0613 70.7235 68.2853 70.6915 68.488C70.6595 68.6907 70.5688 68.8507 70.4195 68.968C70.2702 69.0747 70.0728 69.128 69.8275 69.128C69.5288 69.128 69.2942 69.0587 69.1235 68.92C68.9635 68.7707 68.8195 68.5467 68.6915 68.248L67.6515 65.832L68.5155 66.392H61.7635L62.6275 65.832L61.6035 68.248C61.4648 68.5573 61.3208 68.7813 61.1715 68.92C61.0222 69.0587 60.8088 69.128 60.5315 69.128ZM65.1235 59.944L62.8835 65.272L62.4675 64.76H67.8115L67.4115 65.272L65.1555 59.944H65.1235ZM73.1258 69.128C72.8058 69.128 72.5604 69.0427 72.3898 68.872C72.2191 68.6907 72.1338 68.4347 72.1338 68.104V62.056C72.1338 61.7253 72.2191 61.4747 72.3898 61.304C72.5604 61.1333 72.8004 61.048 73.1098 61.048C73.4191 61.048 73.6591 61.1333 73.8298 61.304C74.0004 61.4747 74.0858 61.7253 74.0858 62.056V63.144L73.9098 62.744C74.1444 62.1787 74.5071 61.752 74.9978 61.464C75.4991 61.1653 76.0644 61.016 76.6938 61.016C77.3231 61.016 77.8404 61.1333 78.2458 61.368C78.6511 61.6027 78.9551 61.96 79.1578 62.44C79.3604 62.9093 79.4618 63.5067 79.4618 64.232V68.104C79.4618 68.4347 79.3764 68.6907 79.2058 68.872C79.0351 69.0427 78.7898 69.128 78.4698 69.128C78.1498 69.128 77.8991 69.0427 77.7178 68.872C77.5471 68.6907 77.4618 68.4347 77.4618 68.104V64.328C77.4618 63.72 77.3444 63.2773 77.1098 63C76.8858 62.7227 76.5338 62.584 76.0538 62.584C75.4671 62.584 74.9978 62.7707 74.6458 63.144C74.3044 63.5067 74.1338 63.992 74.1338 64.6V68.104C74.1338 68.7867 73.7978 69.128 73.1258 69.128ZM83.399 72.008C83.1643 72.008 82.9723 71.944 82.823 71.816C82.6737 71.6987 82.583 71.5387 82.551 71.336C82.5297 71.1333 82.567 70.92 82.663 70.696L83.751 68.28V69.112L80.839 62.376C80.743 62.1413 80.711 61.9227 80.743 61.72C80.775 61.5173 80.871 61.3573 81.031 61.24C81.2017 61.112 81.431 61.048 81.719 61.048C81.9643 61.048 82.1617 61.1067 82.311 61.224C82.4603 61.3307 82.5937 61.5387 82.711 61.848L84.871 67.24H84.391L86.599 61.832C86.7163 61.5333 86.855 61.3307 87.015 61.224C87.175 61.1067 87.3883 61.048 87.655 61.048C87.8897 61.048 88.0763 61.112 88.215 61.24C88.3537 61.3573 88.439 61.5173 88.471 61.72C88.503 61.912 88.4657 62.1253 88.359 62.36L84.471 71.24C84.3323 71.5387 84.183 71.7413 84.023 71.848C83.863 71.9547 83.655 72.008 83.399 72.008ZM95.4606 69C95.1086 69 94.8366 68.9093 94.6446 68.728C94.4633 68.536 94.3726 68.264 94.3726 67.912V58.808C94.3726 58.456 94.4633 58.1893 94.6446 58.008C94.8366 57.816 95.1086 57.72 95.4606 57.72H99.3006C100.09 57.72 100.762 57.8373 101.317 58.072C101.871 58.3067 102.293 58.6427 102.581 59.08C102.879 59.5173 103.029 60.04 103.029 60.648C103.029 61.3307 102.831 61.9067 102.437 62.376C102.042 62.8453 101.503 63.16 100.821 63.32V63.08C101.61 63.1973 102.223 63.496 102.661 63.976C103.098 64.456 103.317 65.08 103.317 65.848C103.317 66.8507 102.975 67.6293 102.293 68.184C101.621 68.728 100.682 69 99.4766 69H95.4606ZM96.3406 67.448H99.2206C99.946 67.448 100.479 67.3093 100.821 67.032C101.162 66.744 101.333 66.3173 101.333 65.752C101.333 65.176 101.162 64.7493 100.821 64.472C100.479 64.1947 99.946 64.056 99.2206 64.056H96.3406V67.448ZM96.3406 62.504H98.9486C99.6526 62.504 100.175 62.3707 100.517 62.104C100.869 61.8267 101.045 61.4213 101.045 60.888C101.045 60.3547 100.869 59.9547 100.517 59.688C100.175 59.4107 99.6526 59.272 98.9486 59.272H96.3406V62.504ZM108.028 69.16C107.378 69.16 106.839 69.0427 106.412 68.808C105.986 68.5627 105.666 68.2 105.452 67.72C105.25 67.24 105.148 66.6427 105.148 65.928V62.056C105.148 61.7147 105.234 61.464 105.404 61.304C105.575 61.1333 105.82 61.048 106.14 61.048C106.46 61.048 106.706 61.1333 106.876 61.304C107.058 61.464 107.148 61.7147 107.148 62.056V65.96C107.148 66.5147 107.26 66.9253 107.484 67.192C107.708 67.4587 108.066 67.592 108.556 67.592C109.09 67.592 109.527 67.4107 109.868 67.048C110.21 66.6747 110.38 66.184 110.38 65.576V62.056C110.38 61.7147 110.466 61.464 110.636 61.304C110.807 61.1333 111.052 61.048 111.372 61.048C111.692 61.048 111.938 61.1333 112.108 61.304C112.29 61.464 112.38 61.7147 112.38 62.056V68.104C112.38 68.7867 112.055 69.128 111.404 69.128C111.095 69.128 110.855 69.0427 110.684 68.872C110.514 68.6907 110.428 68.4347 110.428 68.104V66.888L110.652 67.368C110.428 67.944 110.087 68.3867 109.628 68.696C109.18 69.0053 108.647 69.16 108.028 69.16ZM117.326 69.16C116.867 69.16 116.382 69.112 115.87 69.016C115.358 68.92 114.899 68.7547 114.494 68.52C114.323 68.4133 114.201 68.2907 114.126 68.152C114.062 68.0027 114.035 67.8587 114.046 67.72C114.067 67.5707 114.121 67.4427 114.206 67.336C114.302 67.2293 114.419 67.16 114.558 67.128C114.707 67.096 114.867 67.1227 115.038 67.208C115.465 67.4107 115.865 67.5547 116.238 67.64C116.611 67.7147 116.979 67.752 117.342 67.752C117.854 67.752 118.233 67.6667 118.478 67.496C118.734 67.3147 118.862 67.08 118.862 66.792C118.862 66.5467 118.777 66.36 118.606 66.232C118.446 66.0933 118.201 65.992 117.87 65.928L116.27 65.624C115.609 65.496 115.102 65.256 114.75 64.904C114.409 64.5413 114.238 64.0773 114.238 63.512C114.238 63 114.377 62.5573 114.654 62.184C114.942 61.8107 115.337 61.5227 115.838 61.32C116.339 61.1173 116.915 61.016 117.566 61.016C118.035 61.016 118.473 61.0693 118.878 61.176C119.294 61.272 119.694 61.4267 120.078 61.64C120.238 61.7253 120.345 61.8373 120.398 61.976C120.462 62.1147 120.478 62.2587 120.446 62.408C120.414 62.5467 120.35 62.6747 120.254 62.792C120.158 62.8987 120.035 62.968 119.886 63C119.747 63.0213 119.587 62.9893 119.406 62.904C119.075 62.7333 118.755 62.6107 118.446 62.536C118.147 62.4613 117.859 62.424 117.582 62.424C117.059 62.424 116.67 62.5147 116.414 62.696C116.169 62.8773 116.046 63.1173 116.046 63.416C116.046 63.64 116.121 63.8267 116.27 63.976C116.419 64.1253 116.649 64.2267 116.958 64.28L118.558 64.584C119.251 64.712 119.774 64.9467 120.126 65.288C120.489 65.6293 120.67 66.088 120.67 66.664C120.67 67.4427 120.366 68.056 119.758 68.504C119.15 68.9413 118.339 69.16 117.326 69.16ZM123.266 69.112C122.946 69.112 122.701 69.016 122.53 68.824C122.36 68.632 122.274 68.3653 122.274 68.024V62.152C122.274 61.8 122.36 61.5333 122.53 61.352C122.701 61.16 122.946 61.064 123.266 61.064C123.586 61.064 123.832 61.16 124.002 61.352C124.184 61.5333 124.274 61.8 124.274 62.152V68.024C124.274 68.3653 124.189 68.632 124.018 68.824C123.848 69.016 123.597 69.112 123.266 69.112ZM123.266 59.576C122.893 59.576 122.6 59.4853 122.386 59.304C122.184 59.112 122.082 58.8507 122.082 58.52C122.082 58.1787 122.184 57.9173 122.386 57.736C122.6 57.5547 122.893 57.464 123.266 57.464C123.65 57.464 123.944 57.5547 124.146 57.736C124.349 57.9173 124.45 58.1787 124.45 58.52C124.45 58.8507 124.349 59.112 124.146 59.304C123.944 59.4853 123.65 59.576 123.266 59.576ZM127.345 69.128C127.025 69.128 126.779 69.0427 126.609 68.872C126.438 68.6907 126.353 68.4347 126.353 68.104V62.056C126.353 61.7253 126.438 61.4747 126.609 61.304C126.779 61.1333 127.019 61.048 127.329 61.048C127.638 61.048 127.878 61.1333 128.049 61.304C128.219 61.4747 128.305 61.7253 128.305 62.056V63.144L128.129 62.744C128.363 62.1787 128.726 61.752 129.217 61.464C129.718 61.1653 130.283 61.016 130.913 61.016C131.542 61.016 132.059 61.1333 132.465 61.368C132.87 61.6027 133.174 61.96 133.377 62.44C133.579 62.9093 133.681 63.5067 133.681 64.232V68.104C133.681 68.4347 133.595 68.6907 133.425 68.872C133.254 69.0427 133.009 69.128 132.689 69.128C132.369 69.128 132.118 69.0427 131.937 68.872C131.766 68.6907 131.681 68.4347 131.681 68.104V64.328C131.681 63.72 131.563 63.2773 131.329 63C131.105 62.7227 130.753 62.584 130.273 62.584C129.686 62.584 129.217 62.7707 128.865 63.144C128.523 63.5067 128.353 63.992 128.353 64.6V68.104C128.353 68.7867 128.017 69.128 127.345 69.128ZM139.568 69.16C138.683 69.16 137.92 68.9947 137.28 68.664C136.64 68.3333 136.144 67.864 135.792 67.256C135.451 66.648 135.28 65.928 135.28 65.096C135.28 64.2853 135.445 63.576 135.776 62.968C136.117 62.36 136.581 61.8853 137.168 61.544C137.765 61.192 138.443 61.016 139.2 61.016C139.755 61.016 140.251 61.1067 140.688 61.288C141.136 61.4693 141.515 61.7307 141.824 62.072C142.144 62.4133 142.384 62.8293 142.544 63.32C142.715 63.8 142.8 64.344 142.8 64.952C142.8 65.144 142.731 65.2933 142.592 65.4C142.464 65.496 142.277 65.544 142.032 65.544H136.896V64.392H141.392L141.136 64.632C141.136 64.1413 141.061 63.7307 140.912 63.4C140.773 63.0693 140.565 62.8187 140.288 62.648C140.021 62.4667 139.685 62.376 139.28 62.376C138.832 62.376 138.448 62.4827 138.128 62.696C137.819 62.8987 137.579 63.192 137.408 63.576C137.248 63.9493 137.168 64.3973 137.168 64.92V65.032C137.168 65.9067 137.371 66.5627 137.776 67C138.192 67.4267 138.8 67.64 139.6 67.64C139.877 67.64 140.187 67.608 140.528 67.544C140.88 67.4693 141.211 67.3467 141.52 67.176C141.744 67.048 141.941 66.9947 142.112 67.016C142.283 67.0267 142.416 67.0853 142.512 67.192C142.619 67.2987 142.683 67.432 142.704 67.592C142.725 67.7413 142.693 67.896 142.608 68.056C142.533 68.216 142.4 68.3547 142.208 68.472C141.835 68.7067 141.403 68.8827 140.912 69C140.432 69.1067 139.984 69.16 139.568 69.16ZM147.248 69.16C146.789 69.16 146.304 69.112 145.792 69.016C145.28 68.92 144.821 68.7547 144.416 68.52C144.245 68.4133 144.122 68.2907 144.048 68.152C143.984 68.0027 143.957 67.8587 143.968 67.72C143.989 67.5707 144.042 67.4427 144.128 67.336C144.224 67.2293 144.341 67.16 144.48 67.128C144.629 67.096 144.789 67.1227 144.96 67.208C145.386 67.4107 145.786 67.5547 146.16 67.64C146.533 67.7147 146.901 67.752 147.264 67.752C147.776 67.752 148.154 67.6667 148.4 67.496C148.656 67.3147 148.784 67.08 148.784 66.792C148.784 66.5467 148.698 66.36 148.528 66.232C148.368 66.0933 148.122 65.992 147.792 65.928L146.192 65.624C145.53 65.496 145.024 65.256 144.672 64.904C144.33 64.5413 144.16 64.0773 144.16 63.512C144.16 63 144.298 62.5573 144.576 62.184C144.864 61.8107 145.258 61.5227 145.76 61.32C146.261 61.1173 146.837 61.016 147.488 61.016C147.957 61.016 148.394 61.0693 148.8 61.176C149.216 61.272 149.616 61.4267 150 61.64C150.16 61.7253 150.266 61.8373 150.32 61.976C150.384 62.1147 150.4 62.2587 150.368 62.408C150.336 62.5467 150.272 62.6747 150.176 62.792C150.08 62.8987 149.957 62.968 149.808 63C149.669 63.0213 149.509 62.9893 149.328 62.904C148.997 62.7333 148.677 62.6107 148.368 62.536C148.069 62.4613 147.781 62.424 147.504 62.424C146.981 62.424 146.592 62.5147 146.336 62.696C146.09 62.8773 145.968 63.1173 145.968 63.416C145.968 63.64 146.042 63.8267 146.192 63.976C146.341 64.1253 146.57 64.2267 146.88 64.28L148.48 64.584C149.173 64.712 149.696 64.9467 150.048 65.288C150.41 65.6293 150.592 66.088 150.592 66.664C150.592 67.4427 150.288 68.056 149.68 68.504C149.072 68.9413 148.261 69.16 147.248 69.16ZM155.06 69.16C154.602 69.16 154.116 69.112 153.604 69.016C153.092 68.92 152.634 68.7547 152.228 68.52C152.058 68.4133 151.935 68.2907 151.86 68.152C151.796 68.0027 151.77 67.8587 151.78 67.72C151.802 67.5707 151.855 67.4427 151.94 67.336C152.036 67.2293 152.154 67.16 152.292 67.128C152.442 67.096 152.602 67.1227 152.772 67.208C153.199 67.4107 153.599 67.5547 153.972 67.64C154.346 67.7147 154.714 67.752 155.076 67.752C155.588 67.752 155.967 67.6667 156.212 67.496C156.468 67.3147 156.596 67.08 156.596 66.792C156.596 66.5467 156.511 66.36 156.34 66.232C156.18 66.0933 155.935 65.992 155.604 65.928L154.004 65.624C153.343 65.496 152.836 65.256 152.484 64.904C152.143 64.5413 151.972 64.0773 151.972 63.512C151.972 63 152.111 62.5573 152.388 62.184C152.676 61.8107 153.071 61.5227 153.572 61.32C154.074 61.1173 154.65 61.016 155.3 61.016C155.77 61.016 156.207 61.0693 156.612 61.176C157.028 61.272 157.428 61.4267 157.812 61.64C157.972 61.7253 158.079 61.8373 158.132 61.976C158.196 62.1147 158.212 62.2587 158.18 62.408C158.148 62.5467 158.084 62.6747 157.988 62.792C157.892 62.8987 157.77 62.968 157.62 63C157.482 63.0213 157.322 62.9893 157.14 62.904C156.81 62.7333 156.49 62.6107 156.18 62.536C155.882 62.4613 155.594 62.424 155.316 62.424C154.794 62.424 154.404 62.5147 154.148 62.696C153.903 62.8773 153.78 63.1173 153.78 63.416C153.78 63.64 153.855 63.8267 154.004 63.976C154.154 64.1253 154.383 64.2267 154.692 64.28L156.292 64.584C156.986 64.712 157.508 64.9467 157.86 65.288C158.223 65.6293 158.404 66.088 158.404 66.664C158.404 67.4427 158.1 68.056 157.492 68.504C156.884 68.9413 156.074 69.16 155.06 69.16ZM169.601 69.16C168.513 69.16 167.558 68.92 166.737 68.44C165.926 67.96 165.297 67.288 164.849 66.424C164.401 65.5493 164.177 64.5253 164.177 63.352C164.177 62.4667 164.305 61.672 164.561 60.968C164.817 60.2533 165.179 59.6453 165.649 59.144C166.129 58.632 166.699 58.2427 167.361 57.976C168.033 57.6987 168.779 57.56 169.601 57.56C170.699 57.56 171.654 57.8 172.465 58.28C173.275 58.7493 173.905 59.416 174.353 60.28C174.801 61.144 175.025 62.1627 175.025 63.336C175.025 64.2213 174.897 65.0213 174.641 65.736C174.385 66.4507 174.017 67.064 173.537 67.576C173.067 68.088 172.497 68.4827 171.825 68.76C171.163 69.0267 170.422 69.16 169.601 69.16ZM169.601 67.4C170.294 67.4 170.881 67.24 171.361 66.92C171.851 66.6 172.225 66.136 172.481 65.528C172.747 64.92 172.881 64.1947 172.881 63.352C172.881 62.072 172.593 61.08 172.017 60.376C171.451 59.672 170.646 59.32 169.601 59.32C168.918 59.32 168.331 59.48 167.841 59.8C167.35 60.1093 166.971 60.568 166.705 61.176C166.449 61.7733 166.321 62.4987 166.321 63.352C166.321 64.6213 166.609 65.6133 167.185 66.328C167.761 67.0427 168.566 67.4 169.601 67.4ZM179.939 69.128C179.672 69.128 179.443 69.064 179.251 68.936C179.059 68.7973 178.904 68.584 178.787 68.296L176.467 62.376C176.371 62.12 176.339 61.896 176.371 61.704C176.414 61.5013 176.515 61.3413 176.675 61.224C176.835 61.1067 177.048 61.048 177.315 61.048C177.55 61.048 177.742 61.1067 177.891 61.224C178.04 61.3307 178.168 61.5387 178.275 61.848L180.211 67.176H179.843L181.843 61.72C181.928 61.4853 182.04 61.3147 182.179 61.208C182.328 61.1013 182.52 61.048 182.755 61.048C182.99 61.048 183.182 61.1067 183.331 61.224C183.48 61.3307 183.592 61.496 183.667 61.72L185.635 67.176H185.299L187.251 61.8C187.358 61.512 187.491 61.3147 187.651 61.208C187.822 61.1013 188.008 61.048 188.211 61.048C188.467 61.048 188.664 61.112 188.803 61.24C188.942 61.368 189.022 61.5333 189.043 61.736C189.064 61.928 189.027 62.1413 188.931 62.376L186.627 68.296C186.52 68.5733 186.366 68.7813 186.163 68.92C185.971 69.0587 185.742 69.128 185.475 69.128C185.208 69.128 184.974 69.0587 184.771 68.92C184.579 68.7813 184.43 68.5733 184.323 68.296L182.227 62.744H183.139L181.091 68.28C180.984 68.568 180.835 68.7813 180.643 68.92C180.451 69.0587 180.216 69.128 179.939 69.128ZM191.548 69.128C191.228 69.128 190.982 69.0427 190.812 68.872C190.641 68.6907 190.556 68.4347 190.556 68.104V62.056C190.556 61.7253 190.641 61.4747 190.812 61.304C190.982 61.1333 191.222 61.048 191.532 61.048C191.841 61.048 192.081 61.1333 192.252 61.304C192.422 61.4747 192.508 61.7253 192.508 62.056V63.144L192.332 62.744C192.566 62.1787 192.929 61.752 193.42 61.464C193.921 61.1653 194.486 61.016 195.116 61.016C195.745 61.016 196.262 61.1333 196.668 61.368C197.073 61.6027 197.377 61.96 197.58 62.44C197.782 62.9093 197.884 63.5067 197.884 64.232V68.104C197.884 68.4347 197.798 68.6907 197.628 68.872C197.457 69.0427 197.212 69.128 196.892 69.128C196.572 69.128 196.321 69.0427 196.14 68.872C195.969 68.6907 195.884 68.4347 195.884 68.104V64.328C195.884 63.72 195.766 63.2773 195.532 63C195.308 62.7227 194.956 62.584 194.476 62.584C193.889 62.584 193.42 62.7707 193.068 63.144C192.726 63.5067 192.556 63.992 192.556 64.6V68.104C192.556 68.7867 192.22 69.128 191.548 69.128ZM203.771 69.16C202.886 69.16 202.123 68.9947 201.483 68.664C200.843 68.3333 200.347 67.864 199.995 67.256C199.654 66.648 199.483 65.928 199.483 65.096C199.483 64.2853 199.648 63.576 199.979 62.968C200.32 62.36 200.784 61.8853 201.371 61.544C201.968 61.192 202.646 61.016 203.403 61.016C203.958 61.016 204.454 61.1067 204.891 61.288C205.339 61.4693 205.718 61.7307 206.027 62.072C206.347 62.4133 206.587 62.8293 206.747 63.32C206.918 63.8 207.003 64.344 207.003 64.952C207.003 65.144 206.934 65.2933 206.795 65.4C206.667 65.496 206.48 65.544 206.235 65.544H201.099V64.392H205.595L205.339 64.632C205.339 64.1413 205.264 63.7307 205.115 63.4C204.976 63.0693 204.768 62.8187 204.491 62.648C204.224 62.4667 203.888 62.376 203.483 62.376C203.035 62.376 202.651 62.4827 202.331 62.696C202.022 62.8987 201.782 63.192 201.611 63.576C201.451 63.9493 201.371 64.3973 201.371 64.92V65.032C201.371 65.9067 201.574 66.5627 201.979 67C202.395 67.4267 203.003 67.64 203.803 67.64C204.08 67.64 204.39 67.608 204.731 67.544C205.083 67.4693 205.414 67.3467 205.723 67.176C205.947 67.048 206.144 66.9947 206.315 67.016C206.486 67.0267 206.619 67.0853 206.715 67.192C206.822 67.2987 206.886 67.432 206.907 67.592C206.928 67.7413 206.896 67.896 206.811 68.056C206.736 68.216 206.603 68.3547 206.411 68.472C206.038 68.7067 205.606 68.8827 205.115 69C204.635 69.1067 204.187 69.16 203.771 69.16ZM209.611 69.128C209.28 69.128 209.024 69.0427 208.843 68.872C208.672 68.6907 208.587 68.4347 208.587 68.104V62.056C208.587 61.7253 208.672 61.4747 208.843 61.304C209.014 61.1333 209.254 61.048 209.563 61.048C209.872 61.048 210.112 61.1333 210.283 61.304C210.454 61.4747 210.539 61.7253 210.539 62.056V63.064H210.379C210.528 62.424 210.822 61.9387 211.259 61.608C211.696 61.2773 212.278 61.08 213.003 61.016C213.227 60.9947 213.403 61.0533 213.531 61.192C213.67 61.32 213.75 61.5227 213.771 61.8C213.792 62.0667 213.728 62.2853 213.579 62.456C213.44 62.616 213.227 62.712 212.939 62.744L212.587 62.776C211.936 62.84 211.446 63.0427 211.115 63.384C210.784 63.7147 210.619 64.184 210.619 64.792V68.104C210.619 68.4347 210.534 68.6907 210.363 68.872C210.192 69.0427 209.942 69.128 209.611 69.128Z" fill="white"/>
<path d="M99 130.785V82.6064H134.5V130.785H122.29V118.277H111.21V130.785H99ZM108.949 108.78H113.245V104.379H108.949V108.78ZM108.949 97.1989H113.245V92.798H108.949V97.1989ZM120.255 108.78H124.551V104.379H120.255V108.78ZM120.255 97.1989H124.551V92.798H120.255V97.1989Z" fill="#F8F8F8"/>
<path d="M131.686 152.634H141.635C142.434 151.982 143.31 151.304 144.2 150.615C146.066 149.165 148.014 147.652 150.017 145.76C152.305 143.595 152.551 142.846 153.245 140.726C153.377 140.327 153.522 139.88 153.713 139.325L154.903 135.893L154.916 135.856C155.552 134.328 155.602 133.318 155.339 132.737C155.257 132.558 155.152 132.439 155.03 132.376C154.934 132.323 154.807 132.305 154.676 132.316C154.367 132.342 154.017 132.502 153.699 132.789L150.167 139.694C150.135 139.757 150.09 139.817 150.04 139.869C149.831 140.178 149.549 140.48 149.186 140.767L142.92 146.501C142.579 146.814 141.994 146.84 141.617 146.561C141.235 146.281 141.203 145.801 141.544 145.491L147.815 139.757C147.842 139.731 147.869 139.705 147.901 139.682C148.55 139.176 148.755 138.628 148.641 138.229C148.605 138.106 148.541 138.002 148.45 137.931C148.364 137.868 148.251 137.823 148.11 137.812C147.551 137.763 146.729 138.103 145.726 139.075C145.699 139.101 145.667 139.127 145.635 139.153L143.206 140.912L143.192 140.923C140.563 142.965 139.433 143.449 137.371 144.332C136.94 144.519 136.468 144.72 135.882 144.981C135.65 145.085 135.423 145.212 135.201 145.35C134.965 145.499 134.738 145.652 134.524 145.801C133.434 146.553 132.862 147.164 132.535 147.839C132.195 148.539 132.072 149.392 131.904 150.562C131.836 151.036 131.786 151.501 131.745 151.967C131.713 152.194 131.7 152.414 131.686 152.634ZM127.173 152.634H117.22C116.42 151.982 115.544 151.304 114.654 150.615C112.788 149.165 110.84 147.652 108.837 145.76C106.549 143.595 106.304 142.846 105.609 140.726C105.477 140.327 105.332 139.88 105.141 139.325L103.952 135.893L103.938 135.856C103.302 134.328 103.252 133.318 103.516 132.737C103.598 132.558 103.702 132.439 103.825 132.376C103.92 132.323 104.047 132.305 104.179 132.316C104.488 132.342 104.837 132.502 105.155 132.789L108.688 139.694C108.719 139.757 108.765 139.817 108.815 139.869C109.024 140.178 109.305 140.48 109.668 140.767L115.935 146.501C116.275 146.814 116.861 146.84 117.238 146.561C117.619 146.281 117.651 145.801 117.31 145.491L111.049 139.753C111.022 139.727 110.994 139.701 110.963 139.679C110.313 139.172 110.109 138.624 110.222 138.225C110.259 138.103 110.322 137.998 110.413 137.927C110.499 137.864 110.613 137.819 110.754 137.808C111.312 137.76 112.139 138.099 113.138 139.071C113.165 139.097 113.197 139.123 113.228 139.15L115.658 140.908L115.671 140.919C118.3 142.961 119.431 143.446 121.492 144.329C121.924 144.515 122.396 144.716 122.982 144.977C123.213 145.081 123.44 145.208 123.663 145.346C123.899 145.495 124.126 145.648 124.339 145.797C125.429 146.549 126.001 147.161 126.328 147.835C126.669 148.535 126.791 149.389 126.959 150.559C127.027 151.032 127.077 151.498 127.118 151.963C127.145 152.194 127.159 152.414 127.173 152.634ZM114.904 152.895C114.763 153.029 114.677 153.204 114.677 153.394V157.918C114.677 158.339 115.095 158.678 115.603 158.678H128.126C128.639 158.678 129.053 158.339 129.053 157.918V153.35C129.053 152.865 129.016 152.344 128.975 151.859C128.935 151.364 128.88 150.872 128.812 150.384C128.63 149.106 128.494 148.17 128.058 147.272C127.609 146.352 126.887 145.558 125.547 144.631C125.302 144.459 125.052 144.288 124.789 144.128C124.512 143.956 124.212 143.792 123.876 143.639C123.331 143.397 122.823 143.177 122.36 142.976C120.453 142.156 119.408 141.709 116.952 139.802C116.934 139.787 116.911 139.772 116.893 139.761L114.522 138.043C113.074 136.653 111.657 136.191 110.572 136.288H110.567C110.036 136.333 109.582 136.504 109.219 136.765L106.826 132.085H106.821C106.785 132.018 106.74 131.955 106.681 131.895C106.018 131.243 105.178 130.863 104.374 130.796C103.825 130.751 103.293 130.848 102.83 131.094C102.39 131.329 102.026 131.694 101.799 132.197C101.4 133.072 101.409 134.432 102.19 136.314L103.371 139.723C103.543 140.215 103.693 140.688 103.834 141.106C104.606 143.472 104.878 144.31 107.453 146.74C109.491 148.666 111.485 150.216 113.401 151.703C113.896 152.109 114.395 152.496 114.904 152.895ZM116.675 154.158C116.797 154.18 116.924 154.18 117.052 154.158H127.195V157.161H116.529V154.158H116.675ZM143.955 152.895C144.096 153.029 144.182 153.204 144.182 153.394V157.918C144.182 158.339 143.769 158.678 143.256 158.678H130.737C130.224 158.678 129.811 158.339 129.811 157.918V153.35C129.811 153.323 129.811 153.294 129.815 153.268C129.829 152.779 129.852 152.306 129.888 151.859C129.929 151.364 129.983 150.872 130.052 150.384C130.233 149.106 130.369 148.17 130.805 147.272C131.255 146.352 131.977 145.558 133.316 144.631C133.561 144.459 133.811 144.288 134.075 144.128C134.352 143.956 134.651 143.792 134.987 143.639C135.532 143.397 136.041 143.177 136.504 142.976C138.411 142.156 139.455 141.709 141.912 139.802C141.93 139.787 141.953 139.772 141.971 139.761L144.341 138.043C145.79 136.653 147.206 136.191 148.291 136.288H148.296C148.827 136.333 149.281 136.504 149.645 136.765L152.037 132.085H152.042C152.078 132.018 152.124 131.955 152.183 131.895C152.846 131.243 153.686 130.863 154.489 130.796C155.039 130.751 155.57 130.848 156.033 131.094C156.474 131.329 156.837 131.694 157.064 132.197C157.464 133.072 157.455 134.432 156.674 136.314L155.493 139.723C155.32 140.215 155.171 140.688 155.03 141.106C154.258 143.472 153.985 144.31 151.411 146.74C149.372 148.666 147.379 150.216 145.463 151.703C144.963 152.109 144.464 152.496 143.955 152.895ZM142.184 154.158C142.062 154.18 141.934 154.18 141.807 154.158H131.663V157.161H142.33V154.158H142.184Z" fill="white"/>
<path d="M162.396 95.2856C160.213 94.6094 158.399 93.229 156.955 91.1445C155.511 89.0599 154.789 86.7118 154.789 84.1001V77.9665L162.396 75L170.003 77.9665V84.1001C170.003 86.7118 169.281 89.0599 167.837 91.1445C166.393 93.229 164.579 94.6094 162.396 95.2856Z" fill="white"/>
<path d="M157.324 90.2141V89.6174H162.114V83.0189C161.848 82.9676 161.613 82.8399 161.41 82.6357C161.206 82.4314 161.076 82.1733 161.02 81.8612H159.08L160.705 86.1638C160.683 86.5616 160.509 86.9001 160.182 87.1793C159.854 87.4585 159.465 87.5981 159.015 87.5981C158.564 87.5981 158.175 87.4585 157.848 87.1793C157.52 86.9001 157.346 86.5616 157.324 86.1638L158.95 81.8612H157.888V81.2646H161.02C161.083 80.9318 161.239 80.6498 161.491 80.4184C161.742 80.187 162.044 80.0713 162.396 80.0713C162.747 80.0713 163.049 80.187 163.3 80.4184C163.552 80.6498 163.709 80.9318 163.771 81.2646H166.904V81.8612H165.842L167.467 86.1638C167.445 86.5616 167.271 86.9001 166.944 87.1793C166.616 87.4585 166.227 87.5981 165.777 87.5981C165.326 87.5981 164.937 87.4585 164.609 87.1793C164.282 86.9001 164.108 86.5616 164.086 86.1638L165.712 81.8612H163.771C163.715 82.1733 163.585 82.4314 163.382 82.6357C163.178 82.8399 162.943 82.9676 162.677 83.0189V89.6174H167.467V90.2141H157.324ZM164.644 86.1065H166.909L165.777 83.1095L164.644 86.1065ZM157.882 86.1065H160.147L159.015 83.1095L157.882 86.1065ZM162.396 82.4578C162.628 82.4578 162.826 82.3701 162.992 82.1945C163.158 82.019 163.241 81.8084 163.241 81.5629C163.241 81.3173 163.158 81.1068 162.992 80.9312C162.826 80.7557 162.628 80.6679 162.396 80.6679C162.164 80.6679 161.965 80.7557 161.799 80.9312C161.633 81.1068 161.55 81.3173 161.55 81.5629C161.55 81.8084 161.633 82.019 161.799 82.1945C161.965 82.3701 162.164 82.4578 162.396 82.4578Z" fill="#FD7350"/>
<mask id="mask0_1341_737" style="mask-type:alpha" maskUnits="userSpaceOnUse" x="114" y="80" width="54" height="54">
<rect x="114.219" y="80.0723" width="53.5387" height="53.5387" fill="#D9D9D9"/>
</mask>
<g mask="url(#mask0_1341_737)">
<path d="M143.526 102.381C141.072 102.381 138.971 101.508 137.224 99.7602C135.477 98.0128 134.603 95.9121 134.603 93.4583C134.603 91.0044 135.477 88.9038 137.224 87.1563C138.971 85.4089 141.072 84.5352 143.526 84.5352C145.98 84.5352 148.08 85.4089 149.828 87.1563C151.575 88.9038 152.449 91.0044 152.449 93.4583C152.449 95.9121 151.575 98.0128 149.828 99.7602C148.08 101.508 145.98 102.381 143.526 102.381ZM138.507 124.689C138.023 124.689 137.624 124.531 137.308 124.215C136.992 123.899 136.834 123.499 136.834 123.016C136.834 122.533 136.992 122.133 137.308 121.817C137.624 121.501 138.023 121.343 138.507 121.343H142.745L141.184 124.689H138.507ZM125.68 129.151V114.037C125.68 112.773 125.996 111.611 126.628 110.552C127.26 109.492 128.134 108.665 129.249 108.07C131.48 106.954 133.794 106.099 136.192 105.504C138.59 104.91 141.035 104.612 143.526 104.612C144.641 104.612 145.766 104.668 146.9 104.779C148.034 104.891 149.14 105.077 150.218 105.337L144.809 116.881H138.507C136.796 116.881 135.346 117.476 134.157 118.666C132.967 119.856 132.372 121.306 132.372 123.016C132.372 124.726 132.967 126.176 134.157 127.366C135.346 128.556 136.796 129.151 138.507 129.151H125.68ZM154.568 129.151V106.676C155.126 106.862 155.674 107.075 156.213 107.317C156.753 107.559 157.282 107.81 157.803 108.07C158.918 108.665 159.792 109.492 160.424 110.552C161.056 111.611 161.372 112.773 161.372 114.037V124.689C161.372 125.916 160.935 126.966 160.062 127.84C159.188 128.714 158.138 129.151 156.911 129.151H154.568Z" fill="white"/>
</g>
</svg>
