<svg width="16" height="16" viewBox="0 0 16 16" fill="none" xmlns="http://www.w3.org/2000/svg">
<g clip-path="url(#clip0_134_36)">
<path d="M10.5 11C13.5375 11 16 8.5375 16 5.5C16 2.4625 13.5375 0 10.5 0C7.4625 0 5 2.4625 5 5.5C5 6.08437 5.09063 6.65 5.25938 7.17812L0.21875 12.2188C0.078125 12.3594 0 12.55 0 12.75V15.25C0 15.6656 0.334375 16 0.75 16H3.25C3.66563 16 4 15.6656 4 15.25V14H5.25C5.66563 14 6 13.6656 6 13.25V12H7.25C7.45 12 7.64062 11.9219 7.78125 11.7812L8.82187 10.7406C9.35 10.9094 9.91562 11 10.5 11ZM11.75 5.5C11.0594 5.5 10.5 4.94063 10.5 4.25C10.5 3.55938 11.0594 3 11.75 3C12.4406 3 13 3.55938 13 4.25C13 4.94063 12.4406 5.5 11.75 5.5Z" fill="#7743DC"/>
</g>
<defs>
<clipPath id="clip0_134_36">
<rect width="16" height="16" fill="white"/>
</clipPath>
</defs>
</svg>
