<svg width="30" height="34" viewBox="0 0 30 34" fill="none" xmlns="http://www.w3.org/2000/svg">
<path d="M6.23838 33.4125C5.31438 33.4125 4.39136 33.2338 3.53085 32.8763C3.24955 32.7591 2.96336 32.6848 2.66936 32.6516L1.51387 32.5188C0.900476 32.4485 0.4375 31.9288 0.4375 31.3105V30.1453C0.4375 27.9007 2.26401 26.0742 4.50857 26.0742H7.99359C10.2382 26.0742 12.0647 27.9007 12.0647 30.1453V31.3115C12.0647 31.9288 11.6017 32.4485 10.9883 32.5198L9.76834 32.6604C9.48996 32.6926 9.21745 32.7639 8.95862 32.8724C8.09517 33.2318 7.16629 33.4125 6.23838 33.4125ZM4.50857 27.2453C2.90964 27.2453 1.60959 28.5464 1.60959 30.1443V31.3096C1.60959 31.332 1.6262 31.3506 1.64866 31.3535L2.80513 31.4864C3.20657 31.5323 3.6002 31.6348 3.97331 31.7901C5.42085 32.3918 7.07057 32.3898 8.50736 31.7892C8.86778 31.6387 9.24676 31.5391 9.63452 31.4942L10.8545 31.3535C10.8769 31.3506 10.8935 31.332 10.8935 31.3096V30.1433C10.8935 28.5444 9.59252 27.2444 7.99457 27.2444H4.50857V27.2453Z" fill="white"/>
<path d="M6.25104 25.2936C4.57788 25.2936 3.22216 23.9838 3.16355 22.3116L3.08248 19.9693C3.05318 19.1245 3.36085 18.3245 3.94788 17.716C4.5349 17.1075 5.32411 16.7725 6.16997 16.7725H6.33309C7.17895 16.7725 7.96816 17.1075 8.55518 17.716C9.1422 18.3245 9.44988 19.1245 9.42058 19.9693L9.33951 22.3116C9.27992 23.9838 7.9242 25.2936 6.25104 25.2936ZM6.16997 17.9455C5.64546 17.9455 5.15611 18.1536 4.79081 18.5306C4.42648 18.9076 4.23602 19.4048 4.2536 19.9293L4.33467 22.2715C4.37081 23.3088 5.21276 24.1225 6.25006 24.1225C7.28834 24.1225 8.1303 23.3098 8.16644 22.2725L8.24751 19.9303C8.26606 19.4058 8.07462 18.9096 7.7103 18.5316C7.34597 18.1546 6.85565 17.9465 6.33113 17.9465H6.16997V17.9455Z" fill="white"/>
<path d="M11.2581 17.4244C11.1067 17.4244 10.9553 17.3658 10.841 17.2496L7.67343 14.04H3.55547C2.68129 14.04 1.97021 13.3289 1.97021 12.4547V5.41533C1.97021 4.54212 2.68129 3.83105 3.55547 3.83105H9.85938C10.1827 3.83105 10.4454 4.0938 10.4454 4.4171C10.4454 4.7404 10.1827 5.00315 9.85938 5.00315H3.55547C3.32789 5.00315 3.14231 5.18775 3.14231 5.41533V12.4547C3.14231 12.6823 3.32789 12.8679 3.55547 12.8679H7.91859C8.07584 12.8679 8.22529 12.9304 8.33566 13.0427L11.2639 16.0101L14.2772 13.0369C14.3866 12.9284 14.5351 12.8679 14.6884 12.8679H19.1072C19.2752 12.8679 19.4295 12.7624 19.4911 12.6061C19.6102 12.3053 19.9511 12.1578 20.2519 12.277C20.5528 12.3961 20.7003 12.737 20.5811 13.0378C20.3398 13.6464 19.7616 14.04 19.1072 14.04H14.9287L11.6693 17.2554C11.555 17.3687 11.4065 17.4244 11.2581 17.4244Z" fill="white"/>
<path d="M23.7359 33.0795C22.8129 33.0795 21.8889 32.9007 21.0284 32.5433C21.0274 32.5433 21.0186 32.5394 21.0177 32.5394C20.7471 32.427 20.4599 32.3528 20.1669 32.3186L19.0114 32.1858C18.398 32.1154 17.9351 31.5958 17.9351 30.9775V29.8123C17.9351 27.5677 19.7616 25.7412 22.0061 25.7412H25.4912C27.7357 25.7412 29.5622 27.5677 29.5622 29.8123V30.9785C29.5622 31.5958 29.0992 32.1154 28.4858 32.1867L27.2659 32.3274C26.9875 32.3596 26.715 32.4309 26.4562 32.5394C25.5927 32.8988 24.6638 33.0795 23.7359 33.0795ZM22.0061 26.9114C20.4072 26.9114 19.1072 28.2124 19.1072 29.8103V30.9756C19.1072 30.998 19.1238 31.0166 19.1462 31.0195L20.3017 31.1524C20.7041 31.1993 21.0968 31.3008 21.4699 31.4561C21.4709 31.4561 21.4797 31.46 21.4806 31.461C22.9174 32.0578 24.5672 32.0568 26.0049 31.4552C26.3653 31.3047 26.7443 31.2051 27.1321 31.1602L28.352 31.0195C28.3745 31.0166 28.3911 30.998 28.3911 30.9756V29.8094C28.3911 28.2104 27.0901 26.9104 25.4921 26.9104H22.0061V26.9114Z" fill="white"/>
<path d="M23.7486 24.9606C22.0754 24.9606 20.7197 23.6508 20.6611 21.9786L20.58 19.6363C20.5507 18.7915 20.8574 17.9915 21.4454 17.383C22.0334 16.7745 22.8217 16.4395 23.6675 16.4395H23.8307C24.6765 16.4395 25.4657 16.7745 26.0527 17.383C26.6398 17.9915 26.9474 18.7915 26.9181 19.6363L26.8371 21.9786C26.7775 23.6508 25.4218 24.9606 23.7486 24.9606ZM23.6666 17.6115C23.142 17.6115 22.6517 17.8196 22.2874 18.1966C21.9231 18.5736 21.7326 19.0708 21.7502 19.5953L21.8313 21.9375C21.8674 22.9748 22.7093 23.7875 23.7476 23.7875C24.7859 23.7875 25.6279 22.9748 25.663 21.9375L25.7441 19.5953C25.7627 19.0708 25.5712 18.5746 25.2069 18.1966C24.8426 17.8196 24.3522 17.6115 23.8277 17.6115H23.6666Z" fill="white"/>
<path d="M22.4443 14.6061C22.3555 14.6061 22.2656 14.5856 22.1836 14.5446L15.2692 11.1045H10.8934C10.0006 11.1045 9.27393 10.3778 9.27393 9.48505V2.20343C9.27393 1.31068 10.0006 0.583984 10.8934 0.583984H26.9813C27.8741 0.583984 28.6008 1.31068 28.6008 2.20343V9.48603C28.6008 10.3788 27.8741 11.1055 26.9813 11.1055H23.0021L23.0304 14.0152C23.0323 14.2193 22.9278 14.4098 22.7549 14.5172C22.6602 14.5768 22.5528 14.6061 22.4443 14.6061ZM10.8924 1.75608C10.6453 1.75608 10.445 1.95729 10.445 2.20343V9.48603C10.445 9.73315 10.6463 9.93338 10.8924 9.93338H15.4059C15.4968 9.93338 15.5856 9.95389 15.6667 9.99491L21.8485 13.0697L21.8231 10.5253C21.8212 10.369 21.8827 10.2186 21.9931 10.1072C22.1035 9.99589 22.2529 9.93338 22.4092 9.93338H26.9803C27.2275 9.93338 27.4277 9.73217 27.4277 9.48603V2.20343C27.4277 1.95631 27.2265 1.75608 26.9803 1.75608H10.8924Z" fill="white"/>
</svg>
