<svg width="23" height="21" viewBox="0 0 23 21" fill="none" xmlns="http://www.w3.org/2000/svg">
<path d="M11.5 0.4375C5.14809 0.4375 0.00126342 4.61973 0.00126342 9.78125C0.00126342 11.9209 0.895658 13.8804 2.37808 15.4504C1.70964 17.2248 0.317513 18.7243 0.295052 18.7409C-0.00255492 19.0554 -0.0811682 19.5158 0.0872888 19.9089C0.261397 20.302 0.646018 20.5625 1.07817 20.5625C3.84086 20.5625 5.97914 19.4058 7.3268 18.4849C8.58461 18.8914 10.0311 19.125 11.5 19.125C17.852 19.125 22.9596 14.9414 22.9596 9.78125C22.9596 4.62107 17.852 0.4375 11.5 0.4375ZM11.5045 16.9688C10.3029 16.9688 9.11828 16.7834 7.98356 16.4243L6.96159 16.1042L6.08561 16.7219C5.44547 17.1765 4.56365 17.6823 3.5026 18.0246C3.8339 17.4802 4.14813 16.8679 4.39565 16.2165L4.87272 14.9587L3.94643 13.9763C3.13649 13.11 2.15944 11.677 2.15944 9.78125C2.15944 5.81689 6.3484 2.59375 11.5032 2.59375C16.658 2.59375 20.8469 5.81689 20.8469 9.78125C20.8469 13.7456 16.6571 16.9688 11.5045 16.9688Z" fill="white"/>
</svg>
