<svg width="25" height="24" viewBox="0 0 25 24" fill="none" xmlns="http://www.w3.org/2000/svg">
<circle cx="12.5" cy="12" r="12" fill="#FD7350"/>
<path d="M17.6636 8.00027C17.5039 8.00503 17.3522 8.07179 17.2409 8.18642L10.9116 14.5157L8.88671 12.4908C8.83005 12.4318 8.76218 12.3847 8.68708 12.3522C8.61198 12.3198 8.53116 12.3026 8.44935 12.3018C8.36755 12.3009 8.28639 12.3164 8.21065 12.3474C8.13491 12.3783 8.0661 12.424 8.00825 12.4819C7.9504 12.5397 7.90467 12.6085 7.87375 12.6843C7.84282 12.76 7.82732 12.8412 7.82816 12.923C7.82899 13.0048 7.84614 13.0856 7.87859 13.1607C7.91105 13.2358 7.95817 13.3037 8.01718 13.3603L10.4768 15.82C10.5922 15.9352 10.7485 16 10.9116 16C11.0746 16 11.231 15.9352 11.3464 15.82L18.1104 9.05595C18.1992 8.96957 18.2599 8.85837 18.2845 8.73691C18.3091 8.61546 18.2964 8.48941 18.2481 8.37529C18.1998 8.26117 18.1181 8.16431 18.0138 8.09739C17.9095 8.03047 17.7875 7.99661 17.6636 8.00027Z" fill="white"/>
</svg>
