<svg width="30" height="30" viewBox="0 0 30 30" fill="none" xmlns="http://www.w3.org/2000/svg">
<g id="Group 7354">
<circle id="Ellipse 26" cx="15" cy="15" r="15" transform="rotate(-180 15 15)" fill="#F5F2FC"/>
<path id="Vector" d="M21.8487 9.62504L21.8487 9.625L12.7797 19.1189L12.4182 19.4974L12.0566 19.1189L9.15525 16.0816L9.14823 16.0742L9.14831 16.0742C9.11196 16.0345 9.06968 16.0042 9.02465 15.9839C8.97968 15.9635 8.93221 15.9531 8.88481 15.9526C8.83741 15.9521 8.78983 15.9615 8.74461 15.9808C8.69933 16.0002 8.65662 16.0295 8.61964 16.0682C8.58261 16.1069 8.55217 16.1543 8.5312 16.2081C8.51022 16.2619 8.49945 16.3203 8.50002 16.3796C8.5006 16.4389 8.5125 16.497 8.53448 16.5502C8.55644 16.6034 8.58771 16.65 8.62535 16.6878L8.63252 16.695L8.63245 16.6951L12.1567 20.3845C12.1567 20.3845 12.1567 20.3846 12.1568 20.3846C12.2302 20.4614 12.3247 20.5 12.4182 20.5C12.5117 20.5 12.6062 20.4613 12.6796 20.3845L22.3715 10.2385L22.3764 10.2334L22.3764 10.2335C22.4332 10.1756 22.4746 10.0983 22.4916 10.0105C22.5086 9.92257 22.4996 9.83156 22.4668 9.75034C22.434 9.66927 22.3802 9.6043 22.3159 9.56114C22.252 9.51823 22.1798 9.49799 22.1084 9.50016L21.8487 9.62504ZM21.8487 9.62504L21.8536 9.61977M21.8487 9.62504L21.8536 9.61977M21.8536 9.61977C21.9247 9.54317 22.0166 9.50306 22.1083 9.50016L21.8536 9.61977Z" fill="#774AD9" stroke="#FD7350"/>
</g>
</svg>
