<svg width="30" height="30" viewBox="0 0 30 30" fill="none" xmlns="http://www.w3.org/2000/svg">
<g id="Group 7354">
<circle id="Ellipse 26" cx="15" cy="15" r="15" transform="rotate(-180 15 15)" fill="#F5F2FC"/>
<path id="Vector" d="M22.0929 9.0004C21.864 9.00754 21.6467 9.10769 21.4871 9.27963L12.4182 18.7735L9.5168 15.7362C9.43561 15.6477 9.33837 15.577 9.23076 15.5283C9.12316 15.4796 9.00735 15.4539 8.89013 15.4527C8.77291 15.4514 8.65664 15.4747 8.54811 15.521C8.43958 15.5674 8.34098 15.636 8.25809 15.7228C8.1752 15.8096 8.10968 15.9128 8.06537 16.0264C8.02106 16.14 7.99885 16.2617 8.00005 16.3845C8.00124 16.5072 8.02581 16.6284 8.07232 16.741C8.11882 16.8537 8.18633 16.9555 8.27089 17.0405L11.7952 20.73C11.9605 20.9029 12.1845 21 12.4182 21C12.6518 21 12.8759 20.9029 13.0411 20.73L22.733 10.5839C22.8603 10.4544 22.9473 10.2876 22.9825 10.1054C23.0177 9.92319 22.9995 9.73412 22.9303 9.56294C22.8611 9.39176 22.7441 9.24646 22.5947 9.14608C22.4453 9.0457 22.2703 8.99492 22.0929 9.0004Z" fill="#774AD9"/>
</g>
</svg>
