<svg width="17" height="20" viewBox="0 0 17 20" fill="none" xmlns="http://www.w3.org/2000/svg">
<g clip-path="url(#clip0_360_712)">
<path d="M6.04487 0.210581C6.34085 -0.0745749 6.8 -0.0706687 7.09598 0.214488C8.1433 1.22621 9.12612 2.31605 10.0444 3.49574C10.4618 2.93324 10.9362 2.31996 11.4484 1.81996C11.7482 1.53089 12.2112 1.53089 12.5109 1.82386C13.8239 3.11293 14.9357 4.81605 15.7174 6.43324C16.4877 8.02699 17 9.65589 17 10.8043C17 15.7887 13.2129 19.9996 8.5 19.9996C3.73393 19.9996 0 15.7848 0 10.8004C0 9.30043 0.675447 7.46839 1.72277 5.65589C2.78147 3.81605 4.27656 1.89808 6.04487 0.210581ZM8.56451 16.2496C9.52455 16.2496 10.3746 15.9762 11.1752 15.4293C12.7728 14.2809 13.2016 11.984 12.2415 10.1793C12.1353 9.96058 12.029 9.74183 11.8696 9.52308L9.94955 11.82C9.94955 11.82 6.86071 7.77308 6.64442 7.49964C5.05067 9.52308 4.25 10.6715 4.25 11.984C4.25 14.6637 6.17009 16.2496 8.56451 16.2496Z" fill="white"/>
</g>
<defs>
<clipPath id="clip0_360_712">
<rect width="17" height="20" fill="white"/>
</clipPath>
</defs>
</svg>
