<svg width="14" height="14" viewBox="0 0 14 14" fill="none" xmlns="http://www.w3.org/2000/svg">
<path d="M13.5887 2.47114C14.1356 1.93403 14.1356 1.06177 13.5887 0.524658C13.0419 -0.0124512 12.1537 -0.0124512 11.6069 0.524658L6.99999 5.05356L2.38874 0.528955C1.84186 -0.00815436 0.953735 -0.00815436 0.40686 0.528955C-0.140015 1.06606 -0.140015 1.93833 0.40686 2.47544L5.01811 7.00005L0.411235 11.529C-0.13564 12.0661 -0.13564 12.9383 0.411235 13.4754C0.95811 14.0125 1.84624 14.0125 2.39311 13.4754L6.99999 8.94653L11.6112 13.4711C12.1581 14.0083 13.0462 14.0083 13.5931 13.4711C14.14 12.934 14.14 12.0618 13.5931 11.5247L8.98186 7.00005L13.5887 2.47114Z" fill="#7743DC"/>
</svg>
