<svg width="34" height="34" viewBox="0 0 34 34" fill="none" xmlns="http://www.w3.org/2000/svg">
<circle cx="17" cy="17" r="15" transform="rotate(-180 17 17)" fill="#F5F2FC"/>
<path d="M14.8759 17.7071C15.2665 17.3166 15.2665 16.6834 14.8759 16.2929L12.0401 13.4571C11.6496 13.0666 11.6508 12.4322 12.0414 12.0416C12.4319 11.6511 13.0663 11.6499 13.4568 12.0404L16.2926 14.8762C16.6831 15.2667 17.3163 15.2667 17.7068 14.8762L20.5426 12.0404C20.9331 11.6499 21.5675 11.6511 21.9581 12.0416C22.3486 12.4322 22.3498 13.0666 21.9593 13.4571L19.1235 16.2929C18.733 16.6834 18.733 17.3166 19.1235 17.7071L21.9593 20.5429C22.3498 20.9334 22.3486 21.5678 21.9581 21.9584C21.5675 22.3489 20.9331 22.3501 20.5426 21.9596L17.7068 19.1238C17.3163 18.7333 16.6831 18.7333 16.2926 19.1238L13.4568 21.9596C13.0663 22.3501 12.4319 22.3489 12.0414 21.9584C11.6508 21.5678 11.6496 20.9334 12.0401 20.5429L14.8759 17.7071Z" fill="#774AD9"/>
</svg>
