<svg xmlns="http://www.w3.org/2000/svg" viewBox="0 0 48 48" height="48" width="48"><path d="M24 48A24 24 0 1 0 0 24a24 24 0 0 0 24 24ZM14.1 16.92a2 2 0 0 1 2.82 -2.82l6.72 6.72a0.5 0.5 0 0 0 0.72 0l6.72 -6.72A2 2 0 0 1 34 16.92l-6.72 6.72a0.5 0.5 0 0 0 0 0.72L34 31.08A2 2 0 0 1 34 34a2 2 0 0 1 -1.42 0.58 2 2 0 0 1 -1.4 -0.58l-6.72 -6.72a0.5 0.5 0 0 0 -0.72 0L16.92 34a2 2 0 0 1 -1.4 0.58 2 2 0 0 1 -1.42 -0.58 2 2 0 0 1 0 -2.82l6.72 -6.72a0.5 0.5 0 0 0 0 -0.72Z" fill="#e73825" stroke-width="2"></path></svg>