<svg width="170" height="170" viewBox="0 0 170 170" fill="none" xmlns="http://www.w3.org/2000/svg">
<g clip-path="url(#clip0_245_6367)">
<mask id="mask0_245_6367" style="mask-type:luminance" maskUnits="userSpaceOnUse" x="0" y="0" width="170" height="170">
<path d="M170 0H0V170H170V0Z" fill="white"/>
</mask>
<g mask="url(#mask0_245_6367)">
<path d="M161.027 166.093C161.027 167.875 126.706 169.32 84.3672 169.32C42.029 169.32 7.70703 167.875 7.70703 166.093C7.70703 164.311 42.029 162.866 84.3672 162.866C126.706 162.866 161.027 164.311 161.027 166.093Z" fill="#D1FAFA"/>
<path d="M86.1787 32.1996C86.1787 32.1996 57.2818 20.7018 43.3741 37.9619C29.466 55.222 63.309 77.7637 28.3712 94.9833C3.6988 107.143 16.3189 140.039 42.4387 135.815C72.1608 131.01 51.9564 114.208 117.578 124.207C150.081 129.16 174.099 60.0874 86.1787 32.1996Z" fill="#ECFAFB"/>
<path d="M154.576 124.58C154.576 124.58 157.296 118.634 154.446 116.258C151.596 113.883 148.194 121.119 149.347 124.359C150.5 127.598 153.832 126.707 154.576 124.58Z" fill="#ECFAFB"/>
<path d="M25.6393 89.8681C24.5476 88.0365 22.0275 87.739 20.4564 89.181C19.2198 90.3159 18.178 91.9373 19.1627 93.7869C21.068 97.3661 24.3698 94.2361 25.6723 92.4181C26.2245 91.647 25.978 90.4362 25.6393 89.8681Z" fill="#A1E6E3"/>
<path d="M78.0926 24.8006C79.4414 23.1489 78.86 20.6791 76.9682 19.6948C75.479 18.92 73.5995 18.4943 72.1973 20.0512C69.4841 23.0642 73.5539 25.0988 75.7072 25.702C76.6204 25.9576 77.6744 25.3127 78.0926 24.8006Z" fill="#4FD88F"/>
<path d="M108.372 96.2945C108.372 96.2945 107.515 96.0361 107.172 96.7229C106.828 97.4097 105.754 105.655 106.054 107.974C106.356 110.292 107.213 109.436 107.213 109.436C107.213 109.436 107.128 110.809 106.57 111.197L106.567 111.193C106.56 111.19 106.546 111.18 106.529 111.166C106.516 111.159 106.499 111.146 106.479 111.132H106.475C106.145 110.915 105.003 110.16 103.949 109.436C102.705 108.575 101.974 107.844 101.974 107.844C101.974 107.844 102.147 106.471 102.147 106.087C102.147 105.699 99.3963 96.5495 96.693 93.7173C94.1702 91.0755 96.6488 76.1936 96.9956 74.1842L97.0364 73.9598C97.0364 73.9598 99.2256 74.6052 100.171 75.2957C101.112 75.9893 104.51 84.3537 104.68 88.6479C104.853 92.9421 106.397 95.3799 106.397 95.3799C106.397 95.3799 106.914 95.0671 107.774 95.3799L108.372 96.2945Z" fill="#8F1BD3"/>
<path d="M99.2059 152.146C99.1345 152.929 98.9985 153.561 98.8353 154.111V154.115C98.5599 155.064 98.2131 155.775 98.0227 156.59C97.7235 157.879 97.38 162.894 97.38 162.894H88.3598C88.7029 161.037 89.1316 159.599 89.6484 154.958C90.1414 150.521 87.4894 135.228 87.2616 133.919C87.2514 133.861 87.2443 133.831 87.2443 133.831C84.9258 143.534 79.2342 154.789 78.6528 155.431C78.0748 156.077 76.9154 156.655 76.9154 156.655C76.2694 157.879 74.9162 162.894 74.9162 162.894H64.5461C65.1241 160.242 67.766 156.271 68.6058 154.788C69.4422 153.306 72.5974 143.191 73.4372 136.492C73.7874 133.701 74.056 130.754 74.2532 128.261V128.255C74.5286 124.773 74.6612 122.189 74.6612 122.189C77.2996 119.486 97.9407 116.82 97.9407 116.82L98.5939 118.939C98.5939 118.939 99.3317 119.099 99.4303 119.615C99.5251 120.129 98.8353 120.602 98.8353 120.602C101.151 133.742 99.3963 150.021 99.2059 152.146Z" fill="#0A0054"/>
<path d="M105.421 105.634C105.421 105.634 105.163 108.533 106.903 109.886C106.903 109.886 110.478 108.018 112.239 104.969C114 101.919 105.421 105.634 105.421 105.634Z" fill="#F4B093"/>
<path d="M119.197 96.5026C119.197 96.5026 120.194 97.3105 120.199 98.0044C120.206 98.6984 118.552 98.3764 118.552 98.3764L119.197 96.5026Z" fill="#F49593"/>
<path d="M70.1491 93.3297L69.4419 89.4639C69.4419 89.4639 67.6364 89.4639 64.998 91.9119C64.998 91.9119 64.9334 93.2376 64.029 94.8937C64.029 94.8937 60.9894 96.3591 59.5784 98.3546C58.1674 100.35 57.6336 100.551 56.1614 99.4191C55.7704 99.1196 55.5052 98.1033 55.3658 96.7195C55.1584 94.6282 55.2366 91.6974 55.597 89.1168C55.8962 86.9887 56.3892 85.1017 57.0726 84.1191C57.0726 84.1191 57.008 82.807 57.654 81.7768C57.6846 81.7972 57.7186 81.8176 57.7492 81.8411C57.96 81.974 58.504 82.2657 59.0684 82.1641C59.7994 82.0349 60.4114 80.9166 60.4114 80.9166C60.4114 80.9166 60.8296 80.9605 61.0438 81.2631C61.0438 81.2631 63.9644 79.4917 65.814 76.5099C67.6602 73.5315 67.9594 73.1643 67.9594 73.1643C67.9594 73.1643 68.4321 72.9708 69.0713 72.8518C69.5745 72.7566 70.1831 72.7121 70.7509 72.8447C70.7509 72.8447 79.7269 86.7167 70.1491 93.3297Z" fill="#8F1BD3"/>
<path d="M89.2638 73.9599C89.2638 73.9599 88.1448 72.2891 88.1455 68.4005L79.435 64.1501C79.435 64.1501 79.8729 67.1503 78.3966 69.7517C78.0067 70.4388 76.188 71.5248 76.188 71.5248C76.188 71.5248 84.1478 81.342 87.9697 80.3998C91.792 79.4577 91.0256 75.2957 91.0256 75.2957C91.0256 75.2957 90.3796 75.5494 89.2638 73.9599Z" fill="#FFA28F"/>
<path d="M77.2841 70.8148C77.2841 70.8148 81.7456 75.1148 85.5859 75.3562C86.441 75.4099 87.8734 75.4195 88.5092 74.4722C89.0665 73.6412 88.6982 72.5179 88.5745 72.1813C88.7356 72.2398 88.8965 72.2986 89.0573 72.3574C89.3684 72.763 91.1598 75.156 90.3489 76.8158C89.3636 78.832 85.1051 78.6263 82.6214 77.5788C79.4903 76.2579 76.4939 71.1273 76.4939 71.1273L77.2841 70.8148Z" fill="#E6E7E7"/>
<path d="M91.4916 67.4931C91.4814 67.5033 91.4674 67.5135 91.4569 67.5305C91.3348 67.6767 91.206 67.7889 91.0666 67.8603C89.1319 68.8497 83.9809 68.5913 81.1895 66.1432C80.1287 65.2116 79.3331 64.0964 78.7007 62.9574C78.6973 62.9472 78.6939 62.9438 78.6939 62.9438C77.6807 61.0976 77.1061 59.18 76.5485 57.854C75.6475 55.7086 74.9063 52.1148 75.0899 50.0374C75.2599 48.1062 75.6475 46.4742 78.2689 44.2404C80.8869 42.0066 87.3299 41.8774 88.9619 44.1112C90.5936 46.345 90.5494 51.3702 90.9374 52.4854C91.325 53.604 92.6986 54.9334 93.0858 56.4362C93.4394 57.8268 93.0658 65.5312 91.4916 67.4931Z" fill="#FFC2A0"/>
<path d="M90.3149 47.5652C90.3149 47.5652 90.1653 45.6748 89.0905 43.8048C89.0905 43.8048 87.8975 45.0628 85.9663 45.736C85.9663 45.736 86.8639 44.903 87.2821 44.2604C87.2069 44.3182 86.0071 45.2464 84.3241 45.9638C84.3241 45.9638 84.8069 45.2226 84.8069 44.8996C84.8069 44.5766 83.5829 43.1622 82.1651 43.1928C80.7473 43.2268 78.0409 44.1584 76.6876 46.7356C75.3378 49.3128 76.6944 49.5508 77.4357 50.224C77.4357 50.224 77.0651 53.42 77.1467 56.0925C77.1739 56.8915 77.2419 57.6429 77.3677 58.2481C77.3881 58.3467 77.4119 58.4385 77.4357 58.5269L75.501 56.7589C75.501 56.7589 75.484 55.5791 74.7394 53.8858C74.6578 53.692 74.5626 53.4914 74.4572 53.284L74.447 53.267C74.4062 53.1854 74.362 53.1038 74.3178 53.0188C73.8554 52.1552 72.4322 50.5396 72.6376 48.8943C72.831 47.3469 75.6472 46.0182 76.334 44.9846C76.334 44.9846 74.175 45.6748 73.1516 46.705C73.1516 46.705 73.3148 45.736 74.1172 45.1886C74.9162 44.6412 75.5894 44.9812 76.7522 44.512C77.9185 44.0462 79.4927 40.1328 81.3593 38.6504C83.2293 37.168 87.5133 37.4604 88.8971 38.6504C89.2541 38.9564 89.5193 39.327 89.7165 39.7078H89.7199V39.7112V39.7146C89.7233 39.7214 89.7267 39.7248 89.7267 39.7316C90.2979 40.8264 90.3149 41.9994 90.3149 41.9994C90.3149 41.9994 91.1207 45.3008 90.3149 47.5652Z" fill="#280054"/>
<path d="M95.6594 96.8521C95.6594 96.8521 94.3745 103.574 96.0473 110.854C96.0473 110.854 97.0775 111.561 97.2067 112.462C97.2067 112.462 97.2067 112.469 97.2101 112.479C97.3325 113.377 97.1418 114.202 97.1418 114.202C97.1418 114.202 97.594 114.655 97.9816 115.297C98.053 115.42 98.0938 115.563 98.1074 115.719C98.1689 116.386 97.7881 117.229 97.7881 117.229C97.7881 117.229 97.0126 119.228 88.9617 119.935C80.9105 120.646 74.6609 122.19 74.6609 122.19C74.6609 122.19 74.175 120.581 75.0621 119.357C75.0621 119.357 73.6922 118.133 73.7568 117.681C73.8214 117.229 76.7859 112.077 76.0141 108.47C75.2389 104.863 72.3421 101.935 70.7308 94.8941C70.7308 94.8941 69.6564 94.5337 69.5918 94.0165C69.5272 93.5031 70.0641 92.6637 70.0641 92.6637L70.2582 93.0309C70.2582 93.0309 73.9299 90.9263 72.9408 82.0352C71.9545 73.1445 70.9107 72.6033 69.0713 72.8515C69.0713 72.8515 70.5367 71.4952 70.8804 71.5258C71.2235 71.5564 71.3527 72.1888 71.3527 72.1888C71.3527 72.1888 72.5022 72.6614 73.8554 72.1888C75.2086 71.7162 76.1165 70.8152 76.1165 70.8152C76.1165 70.8152 84.2744 77.7226 87.854 77.2993C91.9394 76.8162 89.0579 72.3438 89.0579 72.3438C89.0579 72.3438 91.6239 72.845 92.9975 73.1649C94.3745 73.4876 94.8876 73.1649 94.8876 73.1649C94.8876 73.1649 95.7039 71.9508 96.778 72.7634C97.8524 73.5726 99.1818 78.0399 98.7537 85.2547C98.3253 92.4695 95.6594 96.8521 95.6594 96.8521Z" fill="#864DBC"/>
<path d="M81.7223 53.4207C81.7223 53.4207 81.5047 54.0813 81.6173 54.6774C81.7302 55.273 83.8745 55.8544 84.8922 54.9517C85.9094 54.0494 81.7223 53.4207 81.7223 53.4207Z" fill="#E7798C"/>
<path d="M124.781 83.6669C122.119 90.7967 114.815 105.957 114.815 105.957C105.197 107.804 96.1765 106.257 96.1765 106.257L95.6597 105.424C99.0087 95.2915 106.227 82.0791 106.227 82.0791C115.074 81.6065 124.437 83.0209 124.437 83.0209L124.781 83.6669Z" fill="#D4BEE4"/>
<path d="M121.043 91.848C121.043 91.848 121.743 92.4035 121.881 92.8574C122.031 93.3511 122.225 94.5931 120.786 94.9835L120.141 95.1552C120.141 95.1552 120.614 95.3697 120.7 95.692C120.786 96.014 120.249 96.7226 119.39 96.8946C118.531 97.0663 117.092 96.7226 116.663 96.336C116.234 95.9494 116.512 95.4125 117.157 95.2623C117.157 95.2623 116.212 95.0501 116.254 94.3939C116.298 93.7377 118.467 93.0291 120.764 93.2437L121.043 91.848Z" fill="#F4B093"/>
<path d="M89.2637 54.0593C89.2637 54.0593 89.6108 54.6131 90.3796 54.4509C91.1486 54.2888 91.0769 52.9539 90.9372 52.4868C90.7978 52.0196 89.2756 53.6268 89.2637 54.0593Z" fill="#E7798C"/>
<path d="M122.783 88.582C122.783 88.582 123.942 89.6577 123.942 90.3989C123.942 91.1395 122.235 92.0738 119.304 92.4389C119.304 92.4389 119.03 91.8698 119.304 91.2578C119.578 90.6458 121.044 89.7866 122.251 89.5935L122.783 88.582Z" fill="#F4B093"/>
<path d="M119.405 97.324C119.405 97.324 117.414 97.1309 117.586 98.9496C117.586 98.9496 118.7 99.1063 119.516 98.87C120.332 98.6341 120.224 98.0112 120.16 97.7966C120.096 97.5818 120.024 97.4101 119.405 97.324Z" fill="#F4B093"/>
<path d="M79.5239 52.1002C79.5239 52.1002 79.6851 51.0625 80.6993 50.0119C81.4293 49.2557 82.8403 48.4927 83.829 48.1062C83.829 48.1062 83.9793 48.4281 83.9793 49.0296C83.9793 49.0296 84.1405 48.4604 84.2802 47.9236C84.2802 47.9236 84.5002 48.4604 84.4356 49.5073C84.4356 49.5073 83.5703 49.8123 82.1487 50.1999C80.3773 50.683 79.5239 52.1002 79.5239 52.1002Z" fill="#280054"/>
<path d="M89.0583 53.4207C89.0583 53.4207 89.058 50.7045 89.8472 50.5538C90.5081 50.428 90.8189 51.9628 90.8189 51.9628L89.0583 53.4207Z" fill="#77485D"/>
<path d="M81.6175 54.1939C81.6175 54.1939 81.5906 52.2861 83.1529 51.6095C84.7152 50.9333 85.2568 53.1263 85.2568 53.1263L81.6175 54.1939Z" fill="#77485D"/>
<path d="M85.419 54.1922C85.3745 54.59 84.8376 55.3006 83.6778 55.3006C82.648 55.3006 81.6144 54.7838 81.6174 54.1922C81.6174 53.9848 81.6718 53.7604 81.7674 53.5326C81.9748 53.0328 82.3926 52.5364 82.9026 52.2406C83.2426 52.04 83.6268 51.9312 84.0216 51.972C85.2694 52.1012 85.4595 53.7978 85.419 54.1922Z" fill="#F1F1F1"/>
<path d="M90.9578 52.8427C90.9748 53.7267 90.5906 54.3999 89.9171 54.3863C89.6349 54.3795 89.4615 54.3013 89.3387 54.1653C89.2367 54.0497 89.1759 53.8899 89.1245 53.6961C89.1007 53.6111 89.0776 53.5193 89.0569 53.4207C89.0569 53.4207 89.1279 52.5877 89.3493 51.9077C89.4003 51.7581 89.4543 51.6187 89.5159 51.4997C89.6243 51.2855 89.7576 51.1257 89.9171 51.0713C90.4407 50.8809 90.9442 51.9553 90.9578 52.8427Z" fill="#F1F1F1"/>
<path d="M84.4465 53.5666C84.4465 54.3078 83.8481 54.9062 83.1069 54.9062C82.3657 54.9062 81.7639 54.3078 81.7639 53.5666C81.7639 53.5564 81.7639 53.5428 81.7673 53.5326C81.9747 53.0328 82.3929 52.5364 82.9029 52.2406C82.9675 52.2304 83.0389 52.2236 83.1069 52.2236C83.8481 52.2236 84.4465 52.8254 84.4465 53.5666Z" fill="#8A1FFF"/>
<path d="M84.0347 53.5659C84.0347 54.0793 83.6186 54.4951 83.1055 54.4951C82.5924 54.4951 82.1763 54.0793 82.1763 53.5659C82.1763 53.0528 82.5924 52.6367 83.1055 52.6367C83.6186 52.6367 84.0347 53.0528 84.0347 53.5659Z" fill="#625385"/>
<path d="M90.3794 52.839C90.3794 53.5802 89.9711 54.1786 89.4676 54.1786C89.4234 54.1786 89.3798 54.1752 89.3387 54.165C89.237 54.0494 89.1758 53.8896 89.1248 53.6958C89.1007 53.6108 89.0769 53.519 89.0562 53.4204C89.0562 53.4204 89.1276 52.5874 89.3489 51.9074C89.3999 51.7578 89.4543 51.6184 89.5158 51.4994C89.9986 51.5368 90.3794 52.1216 90.3794 52.839Z" fill="#8A1FFF"/>
<path d="M90.0018 52.839C90.0018 53.3524 89.7196 53.7672 89.3694 53.7672C89.2844 53.7672 89.1994 53.74 89.1246 53.6958C89.1008 53.6108 89.077 53.519 89.0566 53.4204C89.0566 53.4204 89.128 52.5874 89.349 51.9073H89.3694C89.7196 51.9073 90.0018 52.3255 90.0018 52.839Z" fill="#625385"/>
<path d="M89.3809 48.0858C89.3809 48.0858 88.6611 51.907 89.0582 53.861C89.0582 53.861 88.826 50.9231 89.7178 48.8297L89.3809 48.0858Z" fill="#E7798C"/>
<path d="M89.241 49.5233C89.241 49.5233 89.3266 48.235 89.5198 47.1399L89.6486 47.5911L90.0233 46.6489C90.0233 46.6489 90.991 47.2364 90.3987 48.4999C90.3987 48.4999 89.7778 48.4282 89.241 49.5233Z" fill="#280054"/>
<path d="M85.4935 58.875C85.4935 58.875 85.5741 59.7481 87.185 60.2421C88.7952 60.7358 90.1712 60.4322 90.672 59.8739C90.672 59.8739 90.1535 60.4961 89.2087 60.6678C88.2635 60.8399 86.8334 60.6172 86.1592 60.099C85.4183 59.5298 85.2681 59.0256 85.2681 59.0256L85.4935 58.875Z" fill="#FF839A"/>
<path d="M84.7954 59.2449C84.7954 59.2449 85.5791 58.8427 86.2771 58.7247C86.2771 58.7247 85.5363 58.5853 85.1925 58.6713C84.8491 58.757 84.7954 59.2449 84.7954 59.2449Z" fill="#E37D7E"/>
<path d="M108.683 106.732C108.683 106.732 108.138 109.339 108.374 109.5C108.61 109.661 109.866 106.64 109.866 106.64L108.683 106.732Z" fill="#404041"/>
<path d="M77.233 58.4024C77.233 58.4024 75.1052 56.2822 73.833 57.4817C72.3237 58.9053 73.391 62.0411 75.0607 63.3954C76.5115 64.5721 78.0741 64.2596 78.3961 62.8585C78.3961 62.8585 78.8388 59.6948 77.233 58.4024Z" fill="#FFC2A0"/>
<path d="M77.1788 60.3986C77.1788 60.3986 75.9259 58.9294 74.8923 59.3072C73.8586 59.6849 74.1555 61.3325 74.1555 61.3325C74.1555 61.3325 74.1681 60.1272 74.8385 59.9464C75.509 59.7662 75.9208 60.6332 75.9208 60.6332C75.9208 60.6332 75.5617 60.6631 75.574 61.6787C75.5865 62.6942 76.7728 63.6391 77.243 62.922C77.7136 62.205 77.1788 60.3986 77.1788 60.3986Z" fill="#FFA28F"/>
<path d="M84.645 53.6462C84.645 53.7709 84.544 53.8719 84.4193 53.8719C84.2948 53.8719 84.1938 53.7709 84.1938 53.6462C84.1938 53.5217 84.2948 53.4211 84.4193 53.4211C84.544 53.4211 84.645 53.5217 84.645 53.6462Z" fill="white"/>
<path d="M90.672 52.8638C90.672 52.9892 90.5704 53.0909 90.4449 53.0909C90.3194 53.0909 90.2178 52.9892 90.2178 52.8638C90.2178 52.7383 90.3194 52.6367 90.4449 52.6367C90.5704 52.6367 90.672 52.7383 90.672 52.8638Z" fill="white"/>
<path d="M124.781 83.6669C111.766 81.9907 106.475 82.7659 106.475 82.7659C101.819 90.7375 96.1765 106.257 96.1765 106.257L95.6597 105.424C99.0087 95.2915 106.227 82.0791 106.227 82.0791C115.074 81.6065 124.437 83.0209 124.437 83.0209L124.781 83.6669Z" fill="#2E006A"/>
<path d="M76.1607 73.8446C76.1675 73.8718 76.1777 73.8956 76.1879 73.9228C76.1743 73.8854 76.1641 73.8579 76.1607 73.8446ZM76.1607 73.9228H76.1879V73.8446H76.1607V73.9228ZM-0.000244141 -0.000244141H170V170H-0.000244141V-0.000244141ZM-0.000244141 170H170V-0.000244141H-0.000244141V170ZM76.1607 73.9228V73.8446H76.1879V73.9228H76.1607Z" fill="#808080"/>
<path d="M88.8801 44.0067C88.9566 43.9374 89.0335 43.8599 89.1089 43.7732C89.4911 43.3325 89.6591 42.8497 89.7379 42.4995C89.7301 42.7865 89.7451 43.134 89.8155 43.5219C89.927 44.137 90.1361 44.6259 90.3173 44.9666C90.4037 46.164 90.3704 46.7788 90.2167 46.8107C90.1653 46.8213 90.1011 46.7672 90.0232 46.6489C89.6421 45.7683 89.2613 44.8873 88.8801 44.0067Z" fill="#110034"/>
<path d="M100.771 162.902L100.602 162.885C100.61 162.796 101.629 153.902 112.453 150.677C118.374 148.913 122.312 144.809 123.256 139.418C124.189 134.086 121.939 128.535 117.525 125.276C108.893 118.901 108.294 109.598 108.289 109.504L108.459 109.495C108.464 109.588 109.06 118.813 117.626 125.139C122.091 128.437 124.367 134.053 123.423 139.447C122.468 144.904 118.487 149.057 112.501 150.84C101.785 154.032 100.78 162.814 100.771 162.902Z" fill="#D0D3D4"/>
<path d="M88.4892 54.9062C87.1581 55.0925 86.4492 56.8673 86.4492 56.8673L88.9615 57.2967C90.0995 57.2325 90.959 56.5885 90.959 56.5885C90.959 56.5885 89.8207 54.7199 88.4892 54.9062Z" fill="#FFB49D"/>
<path d="M86.4491 56.8673C86.4491 56.8673 87.5656 56.8673 88.5965 56.9316C89.6274 56.9962 90.5733 56.8673 90.9592 56.5882C90.9592 56.5882 91.0228 57.7908 89.7342 58.5208C89.7342 58.5208 89.2187 58.7139 88.6818 58.5208C88.6818 58.5208 88.1882 57.9839 87.2647 57.8122C87.2647 57.8122 86.4062 57.5545 86.4491 56.8673Z" fill="#FFA28F"/>
<path d="M86.6782 51.0713C86.0257 50.204 81.4898 51.0234 80.2171 52.4317C78.9449 53.8399 80.5758 56.6269 82.5944 57.0254C84.9551 57.4909 86.0624 56.7279 86.7173 55.7307C87.4082 54.6784 87.2688 51.8557 86.6782 51.0713ZM86.6483 55.2452C86.1175 56.7123 84.1642 57.207 82.52 56.7701C81.5064 56.5008 79.7779 54.928 80.1644 53.1562C80.551 51.3848 85.7972 50.6205 86.4368 51.2957C86.9529 51.8407 87.1787 53.7784 86.6483 55.2452Z" fill="#20295B"/>
<path d="M92.2807 50.6259C91.8942 49.9891 89.6876 50.2322 89.1374 50.6259C88.7804 50.8816 88.9746 53.9722 89.9528 55.2717C90.5705 56.0921 91.4481 55.898 91.7116 55.712C92.4419 55.1966 92.6673 51.2628 92.2807 50.6259ZM91.9696 54.8423C91.667 55.6804 90.9173 55.8752 90.1819 55.1942C89.521 54.5819 88.9368 51.583 89.3659 50.9333C89.7239 50.3907 91.5253 50.2261 92.0407 50.7946C92.5561 51.3631 92.3209 53.8685 91.9696 54.8423Z" fill="#183A5E"/>
<path d="M86.8986 51.5092C86.8986 51.5092 87.8887 50.7697 89.1127 51.2995C89.1127 51.2995 89.0882 51.0373 89.1667 50.851C89.1667 50.851 88.2953 50.5916 86.6106 50.9992C86.6106 50.9992 86.8404 51.3535 86.8986 51.5092Z" fill="#20295B"/>
<path d="M79.8523 52.7968L78.6943 53.1708L74.9216 57.1985C74.9216 57.1985 75.0498 57.1617 75.3881 57.2875L78.7684 53.7118C78.7684 53.7118 79.325 53.419 79.718 53.5003C79.718 53.5003 79.702 53.0358 79.8523 52.7968Z" fill="#20295B"/>
<path d="M58.6795 83.6703L57.3266 84.1215C57.3266 84.1215 47.9423 85.0449 48.9732 89.7692C50.0037 94.4935 53.9552 99.3896 57.3909 99.6041C57.3909 99.6041 60.4832 98.4019 60.6553 92.0452C60.827 85.6892 58.6795 83.6703 58.6795 83.6703Z" fill="#FFC2A0"/>
<path d="M47.6433 72.8452C47.6433 72.8452 49.5105 70.3835 49.695 69.4328C49.8791 68.4821 49.1505 66.3565 49.1679 63.8051C49.1854 61.2534 50.0226 59.4104 50.0175 59.1072C50.0124 58.8033 48.4835 58.5678 47.9023 59.7501C47.3211 60.9323 47.6818 63.2286 47.4154 63.6283C47.1491 64.0276 46.5467 64.6874 46.5467 64.6874C46.3111 64.1407 44.9039 61.432 44.1625 60.5789C44.1625 60.5789 43.6987 59.7209 43.1614 58.7162C42.6242 57.7112 40.7256 53.2663 39.2832 52.4433C38.8365 52.5425 38.1085 52.0447 38.7079 54.4707C39.3073 56.8966 39.6738 56.4526 40.7875 58.4069C41.3856 59.4569 42.1916 61.3588 42.0251 61.7433C41.8586 62.1281 41.842 61.0647 38.9577 57.989C37.6123 56.5539 35.1288 53.58 34.833 53.6076C34.5376 53.6356 34.0898 54.0989 34.0897 54.6183C34.0892 55.1378 35.0229 57.5269 36.7643 58.6546C36.7643 58.6546 38.8089 60.4701 39.7303 62.6956C39.7303 62.6956 39.1109 63.4941 38.7553 63.482C38.3994 63.4699 36.5547 61.8748 35.0369 61.0348C33.5191 60.1949 32.1014 59.5951 31.8336 59.6588C31.5659 59.7225 31.5895 60.3101 31.7012 60.7141C31.8126 61.1173 33.1107 62.4162 34.6285 62.9964C34.6285 62.9964 36.8453 64.2164 37.4917 65.2714C37.4917 65.2714 37.2756 66.2178 36.9998 66.3456C36.724 66.4734 34.8426 65.9452 33.6802 65.6372C32.5175 65.3288 31.1231 65.3481 30.9415 65.4877C30.7595 65.6273 30.8191 66.1868 31.7337 66.6587C32.6483 67.1306 33.8271 67.0514 34.0147 67.1075C34.2027 67.1636 37.5498 68.6872 37.9333 68.9955C38.3164 69.3033 39.7976 72.2553 41.0036 73.2507C42.2095 74.2461 44.147 74.0607 44.147 74.0607C44.147 74.0607 48.5133 81.9485 47.6433 72.8452Z" fill="#FFC2A0"/>
<path d="M56.3336 84.2118C55.2384 83.5321 54.0241 82.6391 52.8222 81.466C49.4481 78.1732 47.4211 72.4977 47.3075 72.1911C47.1935 71.8846 44.0069 73.506 44.0438 74.1255C44.0806 74.7449 45.0778 77.7138 45.7763 80.409C47.4336 86.803 47.733 88.2232 48.3303 90.3454C49.6396 95.0001 53.8749 99.6528 57.3173 99.6633C57.8097 99.1235 60.3235 96.2576 60.127 91.9242C59.9192 87.35 56.851 84.6518 56.3336 84.2118Z" fill="#FFC2A0"/>
<path d="M137.35 158.348C137.437 157.41 136.699 156.602 135.931 156.056C135.163 155.51 134.276 155.053 133.791 154.245C133.006 152.936 133.462 151.002 132.32 149.989C131.648 149.393 130.606 149.326 129.99 148.673C129.667 148.331 129.506 147.871 129.329 147.434C128.431 145.206 126.922 143.227 125.009 141.772C125.23 143.851 126.024 145.865 127.28 147.536C127.785 148.208 128.374 148.847 128.636 149.646C129.059 150.943 128.539 152.434 129.078 153.687C129.695 155.121 131.535 155.848 131.865 157.374C132.144 158.663 131.196 159.989 131.492 161.274C131.617 161.822 131.958 162.294 132.321 162.722C133.598 164.231 135.261 165.142 137.494 164.741L140.252 164.391L137.35 158.348Z" fill="#94FFCA"/>
<path d="M137.35 158.348C137.437 157.41 136.699 156.602 135.931 156.056C135.163 155.51 134.276 155.053 133.791 154.245C133.006 152.936 133.462 151.002 132.32 149.989C131.648 149.393 130.606 149.326 129.99 148.673C129.667 148.331 129.506 147.871 129.329 147.434C128.431 145.206 126.922 143.227 125.009 141.772C125.23 143.851 126.024 145.865 127.28 147.536C127.785 148.208 128.374 148.847 128.636 149.646C129.059 150.943 128.539 152.434 129.078 153.687C129.695 155.121 131.535 155.848 131.865 157.374C132.144 158.663 131.196 159.989 131.492 161.274C131.617 161.822 131.958 162.294 132.321 162.722C133.598 164.231 135.261 165.142 137.494 164.741L140.252 164.391L137.35 158.348Z" stroke="#005667" stroke-width="0.25" stroke-miterlimit="10"/>
<path d="M142.917 165.221C142.917 165.221 142.983 165.217 143.112 165.217C143.239 165.208 143.43 165.195 143.674 165.141C143.919 165.091 144.218 165.009 144.555 164.867C144.889 164.725 145.269 164.528 145.62 164.214C145.788 164.053 145.951 163.857 146.029 163.614C146.108 163.37 146.114 163.089 146.118 162.803C146.12 162.514 146.106 162.209 146.143 161.892C146.177 161.573 146.29 161.251 146.453 160.951C146.766 160.347 147.274 159.788 147.407 159.036C147.559 158.292 147.394 157.483 147.229 156.652C147.066 155.827 146.896 154.895 147.19 153.977C147.464 153.07 148.04 152.26 148.293 151.305C148.548 150.345 148.37 149.302 148.391 148.229C148.399 147.692 148.485 147.132 148.705 146.617C148.917 146.101 149.211 145.625 149.427 145.113C149.865 144.086 149.909 142.917 149.999 141.745C150.042 141.157 150.086 140.563 150.13 139.963C150.173 139.367 150.205 138.745 150.376 138.147C150.529 137.545 150.759 136.965 150.982 136.385C151.09 136.095 151.204 135.802 151.261 135.508C151.299 135.214 151.306 134.888 151.313 134.578C151.32 133.95 151.271 133.319 151.17 132.688C151.072 132.058 150.932 131.426 150.839 130.779C150.833 130.74 150.827 130.702 150.822 130.667L150.952 130.733C150.395 131.038 149.924 131.478 149.564 131.995C149.198 132.508 148.936 133.086 148.731 133.676C148.318 134.861 148.196 136.104 148.004 137.313C147.818 138.519 147.556 139.726 146.963 140.769C146.668 141.287 146.315 141.753 146.015 142.238C145.716 142.72 145.466 143.233 145.405 143.776C145.278 144.874 145.959 145.889 145.866 147.001C145.833 147.55 145.634 148.061 145.391 148.52C145.149 148.983 144.864 149.407 144.598 149.827C144.332 150.248 144.084 150.669 143.908 151.11C143.728 151.55 143.637 152.009 143.622 152.468C143.585 153.385 143.747 154.271 143.705 155.13C143.675 155.994 143.397 156.781 143.082 157.478C142.764 158.178 142.409 158.807 142.116 159.412C141.968 159.714 141.832 160.01 141.724 160.301C141.61 160.589 141.558 160.885 141.51 161.167C141.437 161.735 141.459 162.265 141.532 162.73C141.676 163.666 142.04 164.334 142.36 164.709C142.683 165.088 142.929 165.207 142.917 165.221C142.917 165.221 142.861 165.188 142.754 165.116C142.701 165.081 142.634 165.035 142.566 164.968C142.497 164.902 142.41 164.833 142.333 164.733C142 164.359 141.62 163.688 141.464 162.741C141.386 162.271 141.357 161.735 141.427 161.156C141.473 160.869 141.524 160.566 141.638 160.269C141.746 159.972 141.88 159.674 142.027 159.369C142.318 158.759 142.668 158.127 142.979 157.432C143.288 156.739 143.555 155.967 143.581 155.125C143.618 154.284 143.452 153.4 143.486 152.462C143.499 151.993 143.592 151.512 143.776 151.058C143.956 150.602 144.208 150.173 144.474 149.749C144.74 149.325 145.021 148.903 145.257 148.45C145.493 148 145.681 147.51 145.711 146.991C145.807 145.946 145.122 144.938 145.243 143.758C145.307 143.178 145.57 142.641 145.874 142.15C146.178 141.656 146.529 141.191 146.816 140.686C147.391 139.672 147.649 138.487 147.833 137.286C148.023 136.084 148.144 134.828 148.564 133.618C148.773 133.017 149.041 132.424 149.42 131.893C149.792 131.358 150.284 130.896 150.868 130.577L150.979 130.516L150.997 130.643C151.003 130.677 151.008 130.715 151.014 130.753C151.106 131.392 151.245 132.023 151.344 132.661C151.447 133.299 151.497 133.942 151.489 134.58C151.481 134.902 151.476 135.209 151.434 135.538C151.371 135.861 151.255 136.154 151.145 136.447C150.921 137.03 150.694 137.602 150.545 138.19C150.377 138.774 150.345 139.374 150.301 139.977C150.256 140.577 150.211 141.17 150.167 141.758C150.075 142.925 150.032 144.114 149.577 145.177C149.353 145.703 149.059 146.178 148.852 146.678C148.639 147.175 148.557 147.705 148.547 148.233C148.522 149.284 148.702 150.342 148.435 151.342C148.167 152.332 147.587 153.138 147.321 154.017C147.034 154.897 147.193 155.8 147.352 156.628C147.512 157.458 147.679 158.284 147.517 159.059C147.37 159.846 146.847 160.41 146.541 160.997C146.379 161.29 146.27 161.595 146.234 161.903C146.196 162.21 146.207 162.513 146.202 162.803C146.196 163.094 146.188 163.377 146.102 163.638C146.015 163.899 145.841 164.1 145.667 164.265C145.301 164.583 144.915 164.777 144.575 164.916C144.232 165.054 143.928 165.131 143.681 165.176C143.184 165.273 142.917 165.221 142.917 165.221Z" fill="#F1F1F1"/>
<path d="M142.917 165.221C142.917 165.221 142.983 165.217 143.112 165.217C143.239 165.208 143.43 165.195 143.674 165.141C143.919 165.091 144.218 165.009 144.555 164.867C144.889 164.725 145.269 164.528 145.62 164.214C145.788 164.053 145.951 163.857 146.029 163.614C146.108 163.37 146.114 163.089 146.118 162.803C146.12 162.514 146.106 162.209 146.143 161.892C146.177 161.573 146.29 161.251 146.453 160.951C146.766 160.347 147.274 159.788 147.407 159.036C147.559 158.292 147.394 157.483 147.229 156.652C147.066 155.827 146.896 154.895 147.19 153.977C147.464 153.07 148.04 152.26 148.293 151.305C148.548 150.345 148.37 149.302 148.391 148.229C148.399 147.692 148.485 147.132 148.705 146.617C148.917 146.101 149.211 145.625 149.427 145.113C149.865 144.086 149.909 142.917 149.999 141.745C150.042 141.157 150.086 140.563 150.13 139.963C150.173 139.367 150.205 138.745 150.376 138.147C150.529 137.545 150.759 136.965 150.982 136.385C151.09 136.095 151.204 135.802 151.261 135.508C151.299 135.214 151.306 134.888 151.313 134.578C151.32 133.95 151.271 133.319 151.17 132.688C151.072 132.058 150.932 131.426 150.839 130.779C150.833 130.74 150.827 130.702 150.822 130.667L150.952 130.733C150.395 131.038 149.924 131.478 149.564 131.995C149.198 132.508 148.936 133.086 148.731 133.676C148.318 134.861 148.196 136.104 148.004 137.313C147.818 138.519 147.556 139.726 146.963 140.769C146.668 141.287 146.315 141.753 146.015 142.238C145.716 142.72 145.466 143.233 145.405 143.776C145.278 144.874 145.959 145.889 145.866 147.001C145.833 147.55 145.634 148.061 145.391 148.52C145.149 148.983 144.864 149.407 144.598 149.827C144.332 150.248 144.084 150.669 143.908 151.11C143.728 151.55 143.637 152.009 143.622 152.468C143.585 153.385 143.747 154.271 143.705 155.13C143.675 155.994 143.397 156.781 143.082 157.478C142.764 158.178 142.409 158.807 142.116 159.412C141.968 159.714 141.832 160.01 141.724 160.301C141.61 160.589 141.558 160.885 141.51 161.167C141.437 161.735 141.459 162.265 141.532 162.73C141.676 163.666 142.04 164.334 142.36 164.709C142.683 165.088 142.929 165.207 142.917 165.221ZM142.917 165.221C142.917 165.221 142.861 165.188 142.754 165.116C142.701 165.081 142.634 165.035 142.566 164.968C142.497 164.902 142.41 164.833 142.333 164.733C142 164.359 141.62 163.688 141.464 162.741C141.386 162.271 141.357 161.735 141.427 161.156C141.473 160.869 141.524 160.566 141.638 160.269C141.746 159.972 141.88 159.674 142.027 159.369C142.318 158.759 142.668 158.127 142.979 157.432C143.288 156.739 143.555 155.967 143.581 155.125C143.618 154.284 143.452 153.4 143.486 152.462C143.499 151.993 143.592 151.512 143.776 151.058C143.956 150.602 144.208 150.173 144.474 149.749C144.74 149.325 145.021 148.903 145.257 148.45C145.493 148 145.681 147.51 145.711 146.991C145.807 145.946 145.122 144.938 145.243 143.758C145.307 143.178 145.57 142.641 145.874 142.15C146.178 141.656 146.529 141.191 146.816 140.686C147.391 139.672 147.649 138.487 147.833 137.286C148.023 136.084 148.144 134.828 148.564 133.618C148.773 133.017 149.041 132.424 149.42 131.893C149.792 131.358 150.284 130.896 150.868 130.577L150.979 130.516L150.997 130.643C151.003 130.677 151.008 130.715 151.014 130.753C151.106 131.392 151.245 132.023 151.344 132.661C151.447 133.299 151.497 133.942 151.489 134.58C151.481 134.902 151.476 135.209 151.434 135.538C151.371 135.861 151.255 136.154 151.145 136.447C150.921 137.03 150.694 137.602 150.545 138.19C150.377 138.774 150.345 139.374 150.301 139.977C150.256 140.577 150.211 141.17 150.167 141.758C150.075 142.925 150.032 144.114 149.577 145.177C149.353 145.703 149.059 146.178 148.852 146.678C148.639 147.175 148.557 147.705 148.547 148.233C148.522 149.284 148.702 150.342 148.435 151.342C148.167 152.332 147.587 153.138 147.321 154.017C147.034 154.897 147.193 155.8 147.352 156.628C147.512 157.458 147.679 158.284 147.517 159.059C147.37 159.846 146.847 160.41 146.541 160.997C146.379 161.29 146.27 161.595 146.234 161.903C146.196 162.21 146.207 162.513 146.202 162.803C146.196 163.094 146.188 163.377 146.102 163.638C146.015 163.899 145.841 164.1 145.667 164.265C145.301 164.583 144.915 164.777 144.575 164.916C144.232 165.054 143.928 165.131 143.681 165.176C143.184 165.273 142.917 165.221 142.917 165.221Z" stroke="#005667" stroke-width="0.25" stroke-miterlimit="10"/>
<path d="M150.487 132.192C150.49 132.193 150.488 132.223 150.481 132.28C150.472 132.348 150.46 132.432 150.446 132.535C150.411 132.759 150.37 133.088 150.289 133.514C150.202 133.943 149.976 134.423 149.793 135.002C149.6 135.579 149.407 136.246 149.234 136.993C149.058 137.739 148.908 138.565 148.751 139.455C148.588 140.338 148.421 141.317 147.966 142.241C147.755 142.705 147.519 143.168 147.341 143.662C147.158 144.154 147.07 144.684 147.013 145.231C146.923 146.33 146.761 147.475 146.54 148.626C146.061 150.922 145.606 153.109 145.191 155.101C144.755 157.082 144.362 158.868 144.031 160.373C143.696 161.862 143.425 163.071 143.233 163.924C143.138 164.332 143.063 164.654 143.008 164.888C142.982 164.989 142.961 165.071 142.945 165.138C142.93 165.194 142.92 165.222 142.917 165.221C142.915 165.221 142.917 165.191 142.927 165.134C142.939 165.066 142.954 164.983 142.973 164.88C143.02 164.645 143.084 164.32 143.166 163.91C143.344 163.054 143.597 161.84 143.908 160.347C144.229 158.839 144.609 157.051 145.032 155.066C145.442 153.075 145.892 150.889 146.366 148.593C146.587 147.441 146.748 146.317 146.841 145.212C146.899 144.662 146.991 144.112 147.181 143.605C147.367 143.098 147.606 142.632 147.817 142.173C148.269 141.266 148.436 140.315 148.606 139.429C148.77 138.541 148.927 137.712 149.112 136.963C149.293 136.215 149.496 135.547 149.699 134.97C149.893 134.388 150.128 133.914 150.222 133.499C150.311 133.082 150.365 132.75 150.411 132.529C150.432 132.427 150.449 132.344 150.463 132.277C150.476 132.22 150.484 132.192 150.487 132.192Z" fill="#F1F1F1"/>
<path d="M150.487 132.192C150.49 132.193 150.488 132.223 150.481 132.28C150.472 132.348 150.46 132.432 150.446 132.535C150.411 132.759 150.37 133.088 150.289 133.514C150.202 133.943 149.976 134.423 149.793 135.002C149.6 135.579 149.407 136.246 149.234 136.993C149.058 137.739 148.908 138.565 148.751 139.455C148.588 140.338 148.421 141.317 147.966 142.241C147.755 142.705 147.519 143.168 147.341 143.662C147.158 144.154 147.07 144.684 147.013 145.231C146.923 146.33 146.761 147.475 146.54 148.626C146.061 150.922 145.606 153.109 145.191 155.101C144.755 157.082 144.362 158.868 144.031 160.373C143.696 161.862 143.425 163.071 143.233 163.924C143.138 164.332 143.063 164.654 143.008 164.888C142.982 164.989 142.961 165.071 142.945 165.138C142.93 165.194 142.92 165.222 142.917 165.221C142.915 165.221 142.917 165.191 142.927 165.134C142.939 165.066 142.954 164.983 142.973 164.88C143.02 164.645 143.084 164.32 143.166 163.91C143.344 163.054 143.597 161.84 143.908 160.347C144.229 158.839 144.609 157.051 145.032 155.066C145.442 153.075 145.892 150.889 146.366 148.593C146.587 147.441 146.748 146.317 146.841 145.212C146.899 144.662 146.991 144.112 147.181 143.605C147.367 143.098 147.606 142.632 147.817 142.173C148.269 141.266 148.436 140.315 148.606 139.429C148.77 138.541 148.927 137.712 149.112 136.963C149.293 136.215 149.496 135.547 149.699 134.97C149.893 134.388 150.128 133.914 150.222 133.499C150.311 133.082 150.365 132.75 150.411 132.529C150.432 132.427 150.449 132.344 150.463 132.277C150.476 132.22 150.484 132.192 150.487 132.192Z" stroke="#005667" stroke-width="0.25" stroke-miterlimit="10"/>
<path d="M142.428 165.329C144.273 164.304 144.889 161.047 144.19 159.055C143.491 157.063 142.22 155.224 142.077 153.118C141.967 151.499 142.544 149.858 142.214 148.269C141.769 146.125 139.738 144.415 139.826 142.226C139.875 140.998 140.608 139.863 140.588 138.634C140.564 137.127 139.444 135.899 138.767 134.553C137.731 132.491 137.729 130.09 137.421 127.804C137.113 125.517 136.318 123.055 134.334 121.878C133.979 123.801 133.433 125.109 133.516 127.731C133.546 128.673 134.584 130.503 134.673 132.567C134.726 133.801 134.751 135.036 134.79 136.27C134.829 137.471 134.871 138.694 135.268 139.829C135.572 140.698 136.078 141.494 136.296 142.388C136.708 144.072 136.05 145.863 136.372 147.565C136.645 149.007 137.601 150.269 137.761 151.728C137.986 153.778 136.602 155.861 137.222 157.828C137.529 158.804 138.302 159.604 138.498 160.608C138.65 161.388 138.435 162.202 138.571 162.984C138.79 164.245 141.152 165.288 142.431 165.248" fill="#BEFFE3"/>
<path d="M142.428 165.329C144.273 164.304 144.889 161.047 144.19 159.055C143.491 157.063 142.22 155.224 142.077 153.118C141.967 151.499 142.544 149.858 142.214 148.269C141.769 146.125 139.738 144.415 139.826 142.226C139.875 140.998 140.608 139.863 140.588 138.634C140.564 137.127 139.444 135.899 138.767 134.553C137.731 132.491 137.729 130.09 137.421 127.804C137.113 125.517 136.318 123.055 134.334 121.878C133.979 123.801 133.433 125.109 133.516 127.731C133.546 128.673 134.584 130.503 134.673 132.567C134.726 133.801 134.751 135.036 134.79 136.27C134.829 137.471 134.871 138.694 135.268 139.829C135.572 140.698 136.078 141.494 136.296 142.388C136.708 144.072 136.05 145.863 136.372 147.565C136.645 149.007 137.601 150.269 137.761 151.728C137.986 153.778 136.602 155.861 137.222 157.828C137.529 158.804 138.302 159.604 138.498 160.608C138.65 161.388 138.435 162.202 138.571 162.984C138.79 164.245 141.152 165.288 142.431 165.248" stroke="#005667" stroke-width="0.25" stroke-miterlimit="10"/>
<path d="M134.778 123.81C134.781 123.81 134.789 123.846 134.801 123.917C134.813 123.998 134.829 124.102 134.85 124.233C134.894 124.511 134.941 124.926 135.029 125.449C135.123 125.972 135.388 126.574 135.598 127.306C135.818 128.034 136.033 128.875 136.218 129.814C136.407 130.753 136.558 131.791 136.713 132.903C136.876 134.013 137.034 135.207 137.547 136.36C137.785 136.942 138.057 137.533 138.259 138.171C138.468 138.809 138.553 139.495 138.596 140.181C138.653 141.558 138.793 142.966 139.007 144.408C139.474 147.286 139.918 150.027 140.323 152.522C140.744 155.011 141.124 157.253 141.443 159.141C141.754 161.018 142.007 162.54 142.184 163.607C142.265 164.125 142.33 164.532 142.375 164.822C142.394 164.953 142.409 165.058 142.421 165.139C142.43 165.21 142.434 165.247 142.431 165.248C142.428 165.248 142.419 165.212 142.403 165.142C142.388 165.062 142.366 164.958 142.34 164.828C142.287 164.54 142.211 164.135 142.115 163.618C141.925 162.554 141.654 161.035 141.319 159.162C140.989 157.276 140.597 155.036 140.162 152.55C139.753 150.054 139.304 147.313 138.832 144.434C138.618 142.992 138.477 141.564 138.423 140.193C138.381 139.51 138.3 138.844 138.098 138.222C137.902 137.597 137.633 137.008 137.396 136.421C136.88 135.251 136.724 134.03 136.567 132.923C136.418 131.81 136.275 130.774 136.095 129.838C135.919 128.901 135.713 128.062 135.502 127.334C135.304 126.605 135.048 125.998 134.962 125.462C134.883 124.929 134.848 124.518 134.814 124.238C134.801 124.106 134.791 124.001 134.782 123.919C134.776 123.847 134.775 123.811 134.778 123.81Z" fill="#BEFFE3"/>
<path d="M134.778 123.81C134.781 123.81 134.789 123.846 134.801 123.917C134.813 123.998 134.829 124.102 134.85 124.233C134.894 124.511 134.941 124.926 135.029 125.449C135.123 125.972 135.388 126.574 135.598 127.306C135.818 128.034 136.033 128.875 136.218 129.814C136.407 130.753 136.558 131.791 136.713 132.903C136.876 134.013 137.034 135.207 137.547 136.36C137.785 136.942 138.057 137.533 138.259 138.171C138.468 138.809 138.553 139.495 138.596 140.181C138.653 141.558 138.793 142.966 139.007 144.408C139.474 147.286 139.918 150.027 140.323 152.522C140.744 155.011 141.124 157.253 141.443 159.141C141.754 161.018 142.007 162.54 142.184 163.607C142.265 164.125 142.33 164.532 142.375 164.822C142.394 164.953 142.409 165.058 142.421 165.139C142.43 165.21 142.434 165.247 142.431 165.248C142.428 165.248 142.419 165.212 142.403 165.142C142.388 165.062 142.366 164.958 142.34 164.828C142.287 164.54 142.211 164.135 142.115 163.618C141.925 162.554 141.654 161.035 141.319 159.162C140.989 157.276 140.597 155.036 140.162 152.55C139.753 150.054 139.304 147.313 138.832 144.434C138.618 142.992 138.477 141.564 138.423 140.193C138.381 139.51 138.3 138.844 138.098 138.222C137.902 137.597 137.633 137.008 137.396 136.421C136.88 135.251 136.724 134.03 136.567 132.923C136.418 131.81 136.275 130.774 136.095 129.838C135.919 128.901 135.713 128.062 135.502 127.334C135.304 126.605 135.048 125.998 134.962 125.462C134.883 124.929 134.848 124.518 134.814 124.238C134.801 124.106 134.791 124.001 134.782 123.919C134.776 123.847 134.775 123.811 134.778 123.81Z" stroke="#005667" stroke-width="0.25" stroke-miterlimit="10"/>
<path d="M56.7222 47.6524C56.2394 47.3737 55.8362 47.1409 55.6501 47.0334" stroke="#FF4A4A" stroke-width="0.72"/>
<path d="M56.838 53.0671C56.3988 53.4103 56.0319 53.6969 55.8625 53.8292" stroke="#FF4A4A" stroke-width="0.72"/>
<path d="M61.9017 54.9882C62.0554 55.5241 62.1837 55.9716 62.2429 56.1782" stroke="#FF4A4A" stroke-width="0.72"/>
<path d="M65.5799 51.0128C66.1343 51.0711 66.5974 51.1198 66.811 51.1422" stroke="#FF4A4A" stroke-width="0.72"/>
<path d="M63.2719 46.1132C63.5336 45.6211 63.7522 45.21 63.853 45.0203" stroke="#FF4A4A" stroke-width="0.72"/>
<path d="M57.8645 46.4179C57.5062 45.9909 57.207 45.6342 57.0688 45.4696" stroke="#FF4A4A" stroke-width="0.72"/>
<path d="M56.1211 51.5456C55.591 51.7179 55.1482 51.8618 54.9438 51.9282" stroke="#FF4A4A" stroke-width="0.72"/>
<path d="M60.2226 55.0828C60.1837 55.6389 60.1512 56.1034 60.1362 56.3177" stroke="#FF4A4A" stroke-width="0.72"/>
<path d="M65.0385 52.6052C65.5395 52.8495 65.958 53.0536 66.1511 53.1478" stroke="#FF4A4A" stroke-width="0.72"/>
<path d="M64.5454 47.2117C64.9596 46.8387 65.3057 46.5272 65.4653 46.3834" stroke="#FF4A4A" stroke-width="0.72"/>
<path d="M59.3599 45.6484C59.1693 45.1247 59.01 44.6871 58.9365 44.4852" stroke="#FF4A4A" stroke-width="0.72"/>
<path d="M55.9681 49.8708C55.411 49.8513 54.9457 49.8351 54.731 49.8276" stroke="#FF4A4A" stroke-width="0.72"/>
<path d="M58.6124 54.5974C58.3857 55.1066 58.1963 55.532 58.1089 55.7283" stroke="#FF4A4A" stroke-width="0.72"/>
<path d="M63.9853 53.9163C64.3725 54.3173 64.696 54.6522 64.8452 54.8068" stroke="#FF4A4A" stroke-width="0.72"/>
<path d="M65.3667 48.6794C65.8835 48.4706 66.3152 48.2962 66.5144 48.2157" stroke="#FF4A4A" stroke-width="0.72"/>
<path d="M61.0286 45.437C61.0286 44.8796 61.0286 44.4139 61.0286 44.1991" stroke="#FF4A4A" stroke-width="0.72"/>
<path d="M108.062 69.7524C107.579 69.4737 107.176 69.2408 106.99 69.1334" stroke="#04F512" stroke-width="1.2"/>
<path d="M108.178 75.1671C107.739 75.5103 107.372 75.7969 107.202 75.9292" stroke="#04F512" stroke-width="1.2"/>
<path d="M113.242 77.0882C113.395 77.624 113.524 78.0716 113.583 78.2781" stroke="#04F512" stroke-width="1.2"/>
<path d="M116.92 73.1128C117.474 73.1711 117.937 73.2197 118.151 73.2422" stroke="#04F512" stroke-width="1.2"/>
<path d="M114.612 68.2132C114.873 67.7211 115.092 67.3099 115.193 67.1202" stroke="#04F512" stroke-width="1.2"/>
<path d="M109.204 68.5178C108.846 68.0908 108.547 67.7342 108.409 67.5696" stroke="#04F512" stroke-width="1.2"/>
<path d="M107.461 73.6456C106.931 73.8179 106.488 73.9617 106.284 74.0281" stroke="#04F512" stroke-width="1.2"/>
<path d="M111.562 77.1828C111.524 77.7389 111.491 78.2033 111.476 78.4177" stroke="#04F512" stroke-width="1.2"/>
<path d="M116.378 74.7052C116.879 74.9495 117.298 75.1536 117.491 75.2478" stroke="#04F512" stroke-width="1.2"/>
<path d="M115.885 69.3116C116.299 68.9387 116.646 68.6271 116.805 68.4833" stroke="#04F512" stroke-width="1.2"/>
<path d="M110.7 67.7484C110.509 67.2246 110.35 66.7871 110.276 66.5852" stroke="#04F512" stroke-width="1.2"/>
<path d="M107.308 71.9708C106.751 71.9513 106.286 71.935 106.071 71.9276" stroke="#04F512" stroke-width="1.2"/>
<path d="M109.952 76.6974C109.725 77.2066 109.536 77.632 109.449 77.8282" stroke="#04F512" stroke-width="1.2"/>
<path d="M115.325 76.0163C115.712 76.4173 116.036 76.7522 116.185 76.9067" stroke="#04F512" stroke-width="1.2"/>
<path d="M116.707 70.7794C117.223 70.5706 117.655 70.3962 117.854 70.3157" stroke="#04F512" stroke-width="1.2"/>
<path d="M112.368 67.5369C112.368 66.9795 112.368 66.5139 112.368 66.2991" stroke="#04F512" stroke-width="1.2"/>
<path d="M111.438 71.9253C111.357 71.8784 111.289 71.8392 111.258 71.8211" stroke="#00F5E2" stroke-width="0.121212"/>
<path d="M111.407 72.8723C111.328 72.9344 111.261 72.9863 111.231 73.0103" stroke="#00F5E2" stroke-width="0.130336"/>
<path d="M112.339 73.2843C112.369 73.3885 112.394 73.4757 112.406 73.5159" stroke="#00F5E2" stroke-width="0.140146"/>
<path d="M113.125 72.5213C113.241 72.5335 113.338 72.5437 113.383 72.5484" stroke="#00F5E2" stroke-width="0.150695"/>
<path d="M112.681 71.4303C112.74 71.3195 112.789 71.227 112.812 71.1843" stroke="#00F5E2" stroke-width="0.162037"/>
<path d="M111.414 71.4335C111.328 71.3302 111.255 71.2439 111.222 71.204" stroke="#00F5E2" stroke-width="0.174234"/>
<path d="M110.908 72.6976C110.77 72.7424 110.654 72.7798 110.601 72.7971" stroke="#00F5E2" stroke-width="0.187348"/>
<path d="M111.964 73.7121C111.953 73.8677 111.944 73.9976 111.939 74.0576" stroke="#00F5E2" stroke-width="0.201449"/>
<path d="M113.4 73.068C113.551 73.1415 113.677 73.2029 113.735 73.2313" stroke="#00F5E2" stroke-width="0.216612"/>
<path d="M113.337 71.376C113.471 71.2554 113.583 71.1546 113.635 71.1081" stroke="#00F5E2" stroke-width="0.232916"/>
<path d="M111.625 70.7577C111.558 70.5755 111.503 70.4233 111.477 70.3531" stroke="#00F5E2" stroke-width="0.250448"/>
<path d="M110.318 72.2159C110.11 72.2086 109.936 72.2025 109.856 72.1997" stroke="#00F5E2" stroke-width="0.269299"/>
<path d="M111.246 74.1054C111.155 74.3102 111.079 74.4813 111.043 74.5602" stroke="#00F5E2" stroke-width="0.289569"/>
<path d="M113.504 73.9418C113.671 74.1152 113.811 74.2601 113.875 74.3269" stroke="#00F5E2" stroke-width="0.311364"/>
<path d="M114.25 71.6252C114.49 71.5281 114.691 71.447 114.783 71.4096" stroke="#00F5E2" stroke-width="0.3348"/>
<path d="M112.241 69.9482C112.241 69.6695 112.241 69.4367 112.241 69.3292" stroke="#00F5E2" stroke-width="0.36"/>
<path d="M68.6309 55.996C68.4075 55.867 68.1026 55.691 67.7954 55.5136" stroke="#530DCB" stroke-width="0.420985"/>
<path d="M68.5523 57.3949C68.3449 57.557 68.0618 57.7782 67.7766 58.001" stroke="#530DCB" stroke-width="0.429576"/>
<path d="M69.8459 58.0038C69.92 58.262 70.021 58.6144 70.1228 58.9694" stroke="#530DCB" stroke-width="0.438343"/>
<path d="M70.9166 57.0127C71.1892 57.0413 71.5612 57.0804 71.936 57.1198" stroke="#530DCB" stroke-width="0.447289"/>
<path d="M70.3881 55.621C70.5194 55.3741 70.6986 55.037 70.8792 54.6975" stroke="#530DCB" stroke-width="0.456417"/>
<path d="M68.8694 55.589C68.6859 55.3704 68.4356 55.072 68.1833 54.7714" stroke="#530DCB" stroke-width="0.465732"/>
<path d="M68.2586 57.0136C67.9817 57.1036 67.6037 57.2264 67.2229 57.3502" stroke="#530DCB" stroke-width="0.475236"/>
<path d="M69.3729 58.1361C69.3522 58.4325 69.3239 58.8371 69.2954 59.2446" stroke="#530DCB" stroke-width="0.484935"/>
<path d="M70.8609 57.5108C71.1335 57.6438 71.5054 57.8252 71.8801 58.0079" stroke="#530DCB" stroke-width="0.494832"/>
<path d="M70.8381 55.8641C71.068 55.6571 71.3819 55.3745 71.698 55.0898" stroke="#530DCB" stroke-width="0.50493"/>
<path d="M69.2715 55.2562C69.1635 54.9595 69.0161 54.5546 68.8677 54.1467" stroke="#530DCB" stroke-width="0.515235"/>
<path d="M68.0974 56.5061C67.7754 56.4949 67.336 56.4795 66.8933 56.4641" stroke="#530DCB" stroke-width="0.52575"/>
<path d="M68.8311 58.0946C68.6974 58.3949 68.5149 58.8048 68.3311 59.2177" stroke="#530DCB" stroke-width="0.536479"/>
<path d="M70.6144 58.0076C70.8474 58.2489 71.1655 58.5782 71.4858 58.91" stroke="#530DCB" stroke-width="0.547428"/>
<path d="M71.214 56.2871C71.5314 56.1589 71.9645 55.9839 72.4009 55.8076" stroke="#530DCB" stroke-width="0.5586"/>
<path d="M69.8152 55.0623C69.8152 54.713 69.8152 54.2363 69.8152 53.7561" stroke="#530DCB" stroke-width="0.57"/>
<path d="M136.291 25.3961C136.067 25.2671 135.762 25.091 135.455 24.9137" stroke="#530DCB" stroke-width="0.841969"/>
<path d="M136.212 26.7949C136.005 26.957 135.722 27.1782 135.437 27.401" stroke="#530DCB" stroke-width="0.859152"/>
<path d="M137.506 27.4038C137.58 27.662 137.681 28.0144 137.783 28.3694" stroke="#530DCB" stroke-width="0.876686"/>
<path d="M138.577 26.4128C138.849 26.4414 139.221 26.4805 139.596 26.5199" stroke="#530DCB" stroke-width="0.894577"/>
<path d="M138.048 25.021C138.179 24.7741 138.359 24.4371 138.539 24.0975" stroke="#530DCB" stroke-width="0.912834"/>
<path d="M136.529 24.9891C136.346 24.7705 136.095 24.4721 135.843 24.1715" stroke="#530DCB" stroke-width="0.931463"/>
<path d="M135.919 26.4137C135.642 26.5037 135.264 26.6265 134.883 26.7502" stroke="#530DCB" stroke-width="0.950473"/>
<path d="M137.033 27.5361C137.012 27.8325 136.984 28.2371 136.955 28.6447" stroke="#530DCB" stroke-width="0.96987"/>
<path d="M138.521 26.9109C138.793 27.0438 139.165 27.2252 139.54 27.408" stroke="#530DCB" stroke-width="0.989663"/>
<path d="M138.498 25.2641C138.728 25.0571 139.042 24.7745 139.358 24.4899" stroke="#530DCB" stroke-width="1.00986"/>
<path d="M136.931 24.6563C136.823 24.3596 136.676 23.9547 136.527 23.5468" stroke="#530DCB" stroke-width="1.03047"/>
<path d="M135.757 25.9061C135.435 25.8948 134.996 25.8795 134.553 25.864" stroke="#530DCB" stroke-width="1.0515"/>
<path d="M136.491 27.4946C136.357 27.7949 136.175 28.2048 135.991 28.6177" stroke="#530DCB" stroke-width="1.07296"/>
<path d="M138.274 27.4075C138.507 27.6488 138.825 27.9782 139.146 28.3099" stroke="#530DCB" stroke-width="1.09486"/>
<path d="M138.874 25.687C139.191 25.5588 139.624 25.3838 140.061 25.2075" stroke="#530DCB" stroke-width="1.1172"/>
<path d="M137.475 24.4623C137.475 24.113 137.475 23.6364 137.475 23.1561" stroke="#530DCB" stroke-width="1.14"/>
</g>
</g>
<defs>
<clipPath id="clip0_245_6367">
<rect width="170" height="170" fill="white"/>
</clipPath>
</defs>
</svg>
