<svg width="40" height="40" viewBox="0 0 40 40" fill="none" xmlns="http://www.w3.org/2000/svg">
<path opacity="0.4" d="M14.9108 12.8567C14.9222 12.768 14.9597 12.6847 15.0187 12.6175C15.0776 12.5503 15.1552 12.5021 15.2416 12.4792C15.2986 12.4636 15.3581 12.4597 15.4166 12.4675L16.3066 12.5883C16.3951 12.6 16.4782 12.6379 16.545 12.6971C16.6118 12.7564 16.6594 12.8343 16.6816 12.9208C16.6966 12.9792 16.7008 13.0383 16.6924 13.0975L15.3383 23.3333H30.1741L28.7699 12.0142C28.6623 11.1395 28.2402 10.3339 27.5824 9.74749C26.9276 9.164 26.0812 8.84135 25.2041 8.84082H15.3749C14.4999 8.84082 13.6533 9.16332 12.9966 9.74749C12.3391 10.3341 11.9171 11.1396 11.8091 12.0142L10.4058 23.3333H13.5249L14.9108 12.8567Z" fill="#7743DC"/>
<path d="M31.9708 25.1447H8.60826C8.37076 25.1447 8.14159 25.2397 7.97326 25.4097C7.80492 25.5797 7.70992 25.8097 7.70992 26.0505V29.6738C7.70992 29.9138 7.80492 30.1438 7.97326 30.3138C8.14159 30.4838 8.37076 30.5797 8.60909 30.5797H31.9708C32.2091 30.5797 32.4374 30.4838 32.6066 30.3138C32.7749 30.1438 32.8699 29.9138 32.8699 29.6738V26.0497C32.8699 25.8097 32.7749 25.5788 32.6066 25.4088C32.5234 25.3249 32.4243 25.2582 32.3152 25.2127C32.2061 25.1672 32.089 25.1438 31.9708 25.1438V25.1447ZM8.60826 16.0863C8.60826 15.7263 8.46659 15.3805 8.21409 15.1255C8.08922 14.9997 7.94071 14.8998 7.7771 14.8316C7.6135 14.7634 7.43802 14.7282 7.26076 14.728H3.66659C3.30909 14.728 2.96659 14.8713 2.71326 15.1255C2.46076 15.3805 2.31909 15.7255 2.31909 16.0863C2.31909 16.4472 2.46076 16.7922 2.71326 17.0472C2.96659 17.3022 3.30909 17.4455 3.66659 17.4455H7.26076C7.61909 17.4455 7.96076 17.3022 8.21409 17.0472C8.46659 16.7922 8.60909 16.4472 8.60909 16.0863H8.60826ZM36.9133 14.728H33.3191C32.9608 14.728 32.6191 14.8713 32.3658 15.1255C32.1124 15.3811 31.9703 15.7264 31.9703 16.0863C31.9703 16.4462 32.1124 16.7915 32.3658 17.0472C32.4904 17.1733 32.6389 17.2734 32.8025 17.3418C32.9662 17.4102 33.1417 17.4454 33.3191 17.4455H36.9133C37.2708 17.4455 37.6133 17.3022 37.8658 17.0472C38.1195 16.7918 38.2619 16.4464 38.2619 16.0863C38.2619 15.7263 38.1195 15.3809 37.8658 15.1255C37.7411 14.9997 37.5927 14.8998 37.4292 14.8316C37.2658 14.7633 37.0904 14.7281 36.9133 14.728ZM7.41159 9.51966C7.5583 9.62466 7.72475 9.69888 7.90091 9.73783C8.07707 9.77679 8.25929 9.77968 8.43659 9.74633C8.61411 9.71304 8.78309 9.6443 8.93343 9.54422C9.08378 9.44413 9.21239 9.31476 9.31159 9.16383C9.41144 9.01265 9.48022 8.84312 9.51392 8.6651C9.54761 8.48709 9.54556 8.30414 9.50787 8.12693C9.47017 7.94972 9.3976 7.78177 9.29437 7.63288C9.19115 7.48399 9.05933 7.35712 8.90659 7.25966L6.21159 5.448C6.02714 5.31687 5.81259 5.23441 5.5878 5.20824C5.36301 5.18207 5.13526 5.21305 4.92562 5.2983C4.71598 5.38355 4.53125 5.52032 4.38852 5.69594C4.24579 5.87156 4.14968 6.08036 4.10909 6.303C4.05775 6.5711 4.08823 6.84845 4.19657 7.09901C4.30491 7.34957 4.48609 7.56175 4.71659 7.708L7.41159 9.51966ZM32.4199 9.7455C32.6866 9.74633 32.9449 9.668 33.1666 9.51966L35.8624 7.708C36.0905 7.55999 36.2695 7.34762 36.3767 7.0978C36.484 6.84798 36.5147 6.57194 36.4649 6.30466C36.4149 6.03767 36.2856 5.79191 36.0941 5.59931C35.9025 5.40671 35.6575 5.27618 35.3908 5.22466C35.2143 5.19144 35.033 5.19371 34.8574 5.23133C34.6816 5.26994 34.5153 5.34333 34.3683 5.44716L31.6733 7.258C31.4938 7.37998 31.3459 7.54302 31.242 7.73357C31.1381 7.92412 31.0812 8.13669 31.0759 8.35366C31.0706 8.57063 31.1171 8.78573 31.2116 8.98112C31.3061 9.17651 31.4458 9.34656 31.6191 9.47716C31.8501 9.6512 32.1315 9.74538 32.4208 9.7455H32.4199Z" fill="#7743DC"/>
</svg>
