<svg width="19" height="19" viewBox="0 0 19 19" fill="none" xmlns="http://www.w3.org/2000/svg">
<path fill-rule="evenodd" clip-rule="evenodd" d="M9.54972 0.750071C6.47851 0.737732 3.62487 2.33123 2.02794 4.95038C0.431005 7.56952 0.323804 10.8321 1.74537 13.5501L1.92066 13.8918C2.06433 14.1606 2.09438 14.4757 2.00413 14.7668C1.75399 15.4311 1.54493 16.1102 1.37811 16.8001C1.37811 17.1501 1.47827 17.3501 1.85388 17.3418C2.51916 17.1949 3.17434 17.0056 3.8154 16.7751C4.0915 16.6991 4.38507 16.7167 4.65009 16.8251C4.89215 16.9418 5.38462 17.2418 5.40131 17.2418C8.61759 18.933 12.5457 18.4664 15.2748 16.0691C18.0039 13.6717 18.9674 9.8413 17.6967 6.4411C16.4259 3.0409 13.1847 0.776786 9.54972 0.750071Z" stroke="white" stroke-width="1.5" stroke-linecap="round" stroke-linejoin="round"/>
<path d="M5.37598 10.375C5.85923 10.375 6.25098 9.98325 6.25098 9.5C6.25098 9.01675 5.85923 8.625 5.37598 8.625C4.89273 8.625 4.50098 9.01675 4.50098 9.5C4.50098 9.98325 4.89273 10.375 5.37598 10.375Z" fill="white" stroke="white" stroke-width="1.5" stroke-linecap="round" stroke-linejoin="round"/>
<path d="M9.5498 10.375C10.0331 10.375 10.4248 9.98325 10.4248 9.5C10.4248 9.01675 10.0331 8.625 9.5498 8.625C9.06656 8.625 8.6748 9.01675 8.6748 9.5C8.6748 9.98325 9.06656 10.375 9.5498 10.375Z" fill="white" stroke="white" stroke-width="1.5" stroke-linecap="round" stroke-linejoin="round"/>
<path d="M13.7227 10.375C14.2059 10.375 14.5977 9.98325 14.5977 9.5C14.5977 9.01675 14.2059 8.625 13.7227 8.625C13.2394 8.625 12.8477 9.01675 12.8477 9.5C12.8477 9.98325 13.2394 10.375 13.7227 10.375Z" fill="white" stroke="white" stroke-width="1.5" stroke-linecap="round" stroke-linejoin="round"/>
</svg>
