<svg width="18" height="14" viewBox="0 0 18 14" fill="none" xmlns="http://www.w3.org/2000/svg">
<g clip-path="url(#clip0_219_299)">
<path d="M5.84982 9.625C9.08138 9.625 11.6998 7.47031 11.6998 4.8125C11.6998 2.15469 9.08138 0 5.84982 0C2.61826 0 -0.000180469 2.15469 -0.000180469 4.8125C-0.000180469 5.86797 0.413257 6.84414 1.11357 7.63984C1.01513 7.89687 0.868882 8.12383 0.714195 8.31523C0.579195 8.48477 0.441382 8.61602 0.340132 8.70625C0.289507 8.75 0.24732 8.78555 0.219195 8.80742C0.205132 8.81836 0.193882 8.82656 0.188257 8.8293L0.182632 8.83477C0.0279445 8.94688 -0.0395555 9.14375 0.0223195 9.32148C0.0841945 9.49922 0.255757 9.625 0.44982 9.625C1.06294 9.625 1.68169 9.47188 2.19638 9.2832C2.45513 9.1875 2.69701 9.08086 2.90794 8.97148C3.77138 9.38711 4.77544 9.625 5.84982 9.625ZM12.5998 4.8125C12.5998 7.8832 9.81263 10.1965 6.51076 10.4727C7.19419 12.507 9.46107 14 12.1498 14C13.2242 14 14.2283 13.7621 15.0945 13.3465C15.3054 13.4559 15.5445 13.5625 15.8033 13.6582C16.3179 13.8469 16.9367 14 17.5498 14C17.7439 14 17.9183 13.877 17.9773 13.6965C18.0364 13.516 17.9717 13.3191 17.8142 13.207L17.8086 13.2016C17.8029 13.1961 17.7917 13.1906 17.7776 13.1797C17.7495 13.1578 17.7073 13.125 17.6567 13.0785C17.5554 12.9883 17.4176 12.857 17.2826 12.6875C17.1279 12.4961 16.9817 12.2664 16.8833 12.0121C17.5836 11.2191 17.997 10.243 17.997 9.18477C17.997 6.64727 15.6092 4.56641 12.5801 4.38594C12.5914 4.52539 12.597 4.66758 12.597 4.80977L12.5998 4.8125Z" fill="white"/>
</g>
<defs>
<clipPath id="clip0_219_299">
<rect width="18" height="14" fill="white"/>
</clipPath>
</defs>
</svg>
