<svg width="77" height="77" viewBox="0 0 77 77" fill="none" xmlns="http://www.w3.org/2000/svg">
<g filter="url(#filter0_d_255_653)">
<circle cx="38.8354" cy="38.1694" r="33.8433" fill="white"/>
<circle cx="38.8354" cy="38.1694" r="33.3433" stroke="#263238"/>
</g>
<g clip-path="url(#clip0_255_653)">
<path d="M63.2834 33.6514C63.2759 33.6361 63.2759 33.6208 63.2684 33.5978C63.2308 33.4955 63.1777 33.3999 63.1109 33.3145C63.1034 33.3069 63.1034 33.2915 63.0959 33.2839L54.3584 22.3584C54.3434 22.3431 54.3359 22.3354 54.3209 22.3278C54.2909 22.2895 54.2609 22.2589 54.2234 22.2206C54.2009 22.2053 54.1784 22.1823 54.1559 22.167C54.1184 22.144 54.0809 22.1134 54.0359 22.0904C54.0107 22.0732 53.9828 22.0602 53.9534 22.0522C53.9459 22.0445 53.9384 22.0369 53.9309 22.0369C53.8934 22.0215 53.8559 22.0139 53.8259 22.0062C53.7959 21.9986 53.7734 21.9833 53.7434 21.9756C53.6834 21.9679 53.6234 21.9603 53.5634 21.9603C53.5484 21.9603 53.5334 21.9526 53.5259 21.9526H25.1534C25.1384 21.9526 25.1309 21.9603 25.1159 21.9603C25.0559 21.9603 24.9959 21.9679 24.9359 21.9756C24.9059 21.9833 24.8759 21.9986 24.8534 22.0062C24.8159 22.0139 24.7784 22.0215 24.7484 22.0369C24.7409 22.0369 24.7259 22.0445 24.7184 22.0522C24.6884 22.0598 24.6659 22.0828 24.6359 22.0981C24.5984 22.1134 24.5534 22.144 24.5234 22.167C24.4934 22.1823 24.4784 22.2053 24.4559 22.2206C24.4184 22.2589 24.3809 22.2895 24.3509 22.3201C24.3434 22.3354 24.3284 22.3431 24.3209 22.3584L15.5834 33.2839C15.5759 33.2915 15.5684 33.3069 15.5684 33.3145C15.5009 33.3987 15.4484 33.4983 15.4109 33.5978C15.4034 33.6208 15.3959 33.6361 15.3959 33.6514C15.3584 33.7586 15.3359 33.8658 15.3359 33.9806V33.9883C15.3359 34.1031 15.3584 34.2103 15.3959 34.3175C15.3959 34.3328 15.4034 34.3481 15.4109 34.3634C15.4484 34.4706 15.5009 34.5701 15.5684 34.6544C15.5759 34.662 15.5759 34.6697 15.5834 34.6773L38.5109 63.082C38.5634 63.1509 38.6309 63.2122 38.7059 63.2658C38.7209 63.2811 38.7434 63.2887 38.7584 63.2964C38.8259 63.3423 38.8934 63.3806 38.9684 63.4036C38.9909 63.4189 39.0209 63.4265 39.0434 63.4342C39.1409 63.4572 39.2384 63.4801 39.3359 63.4801C39.4409 63.4801 39.5384 63.4572 39.6284 63.4342C39.6584 63.4265 39.6809 63.4189 39.7109 63.4036C39.7784 63.3806 39.8534 63.3423 39.9134 63.2964C39.9348 63.2893 39.955 63.279 39.9734 63.2658C40.0409 63.2122 40.1084 63.1509 40.1684 63.082L63.0959 34.6773C63.0959 34.6697 63.1034 34.662 63.1034 34.6544C63.1709 34.5701 63.2309 34.4706 63.2684 34.3634C63.2759 34.3481 63.2759 34.3328 63.2834 34.3175C63.3134 34.2103 63.3359 34.1031 63.3359 33.9883V33.9806C63.3359 33.8658 63.3134 33.7586 63.2834 33.6514ZM51.9284 24.15L48.8159 31.9594L41.7809 24.15H51.9284ZM46.7234 32.8858H31.9559L39.3359 24.6706L46.7234 32.8858ZM36.8909 24.15L29.8634 31.9594L26.7509 24.15H36.8909ZM24.8384 25.1759L27.9134 32.8858H18.6734L24.8384 25.1759ZM18.6884 35.0754H28.7459L36.2984 56.8881L18.6884 35.0754ZM39.3359 59.0931L31.0259 35.0754H47.6459L39.3359 59.0931ZM42.3809 56.8881L49.9259 35.0754H59.9834L42.3809 56.8881ZM50.7659 32.8858L53.8334 25.1759L59.9984 32.8858H50.7659Z" fill="#7743DC"/>
<path d="M36.2985 56.888L18.6885 35.0754H28.746L36.2985 56.888ZM47.646 35.0754L39.336 59.093L31.026 35.0754H47.646ZM59.9835 35.0754L42.381 56.888L49.926 35.0754H59.9835ZM51.9285 24.1499L48.816 31.9593L41.781 24.1499H51.9285ZM36.891 24.1499L29.8635 31.9593L26.751 24.1499H36.891Z" fill="#7743DC" fill-opacity="0.52"/>
<path d="M27.9135 32.8856H18.6735L24.8385 25.1757L27.9135 32.8856ZM46.7235 32.8856H31.956L39.336 24.6704L46.7235 32.8856ZM59.9985 32.8856H50.766L53.8335 25.1757L59.9985 32.8856Z" fill="#7743DC" fill-opacity="0.25"/>
</g>
<defs>
<filter id="filter0_d_255_653" x="0.992188" y="0.326172" width="75.6865" height="75.6865" filterUnits="userSpaceOnUse" color-interpolation-filters="sRGB">
<feFlood flood-opacity="0" result="BackgroundImageFix"/>
<feColorMatrix in="SourceAlpha" type="matrix" values="0 0 0 0 0 0 0 0 0 0 0 0 0 0 0 0 0 0 127 0" result="hardAlpha"/>
<feOffset/>
<feGaussianBlur stdDeviation="2"/>
<feComposite in2="hardAlpha" operator="out"/>
<feColorMatrix type="matrix" values="0 0 0 0 0 0 0 0 0 0 0 0 0 0 0 0 0 0 0.25 0"/>
<feBlend mode="normal" in2="BackgroundImageFix" result="effect1_dropShadow_255_653"/>
<feBlend mode="normal" in="SourceGraphic" in2="effect1_dropShadow_255_653" result="shape"/>
</filter>
<clipPath id="clip0_255_653">
<rect width="48" height="49" fill="white" transform="translate(15.3359 18.2163)"/>
</clipPath>
</defs>
</svg>
