<svg width="69" height="61" viewBox="0 0 69 61" fill="none" xmlns="http://www.w3.org/2000/svg">
<mask id="mask0_6_497" style="mask-type:alpha" maskUnits="userSpaceOnUse" x="0" y="0" width="69" height="61">
<rect width="69" height="61" fill="#D9D9D9"/>
</mask>
<g mask="url(#mask0_6_497)">
<path d="M28.75 30.5C25.5875 30.5 22.8802 29.5045 20.6281 27.5135C18.376 25.5226 17.25 23.1292 17.25 20.3333C17.25 17.5375 18.376 15.1441 20.6281 13.1531C22.8802 11.1622 25.5875 10.1667 28.75 10.1667C31.9125 10.1667 34.6198 11.1622 36.8719 13.1531C39.124 15.1441 40.25 17.5375 40.25 20.3333C40.25 23.1292 39.124 25.5226 36.8719 27.5135C34.6198 29.5045 31.9125 30.5 28.75 30.5ZM5.75 50.8333V43.7167C5.75 42.3187 6.15729 41.0056 6.97188 39.7771C7.78646 38.5486 8.9125 37.6167 10.35 36.9812C12.7938 35.8799 15.549 34.9479 18.6156 34.1854C21.6823 33.4229 25.0604 33.0417 28.75 33.0417H29.7563C30.0438 33.0417 30.3313 33.084 30.6188 33.1687C30.2354 33.9312 29.912 34.7255 29.6484 35.5516C29.3849 36.3776 29.1813 37.2354 29.0375 38.125H28.75C25.3479 38.125 22.2932 38.5062 19.5859 39.2687C16.8786 40.0312 14.6625 40.7937 12.9375 41.5562C12.5062 41.7681 12.1589 42.0646 11.8953 42.4458C11.6318 42.8271 11.5 43.2507 11.5 43.7167V45.75H29.6125C29.9 46.6396 30.2833 47.5186 30.7625 48.387C31.2417 49.2554 31.7687 50.0708 32.3438 50.8333H5.75ZM46 53.375L45.1375 49.5625C44.5625 49.3507 44.0234 49.1283 43.5203 48.8953C43.0172 48.6623 42.5021 48.3764 41.975 48.0375L37.8063 49.1812L34.9313 44.8604L38.2375 42.3187C38.1417 41.7257 38.0938 41.175 38.0938 40.6667C38.0938 40.1583 38.1417 39.6076 38.2375 39.0146L34.9313 36.4729L37.8063 32.1521L41.975 33.2958C42.5021 32.9569 43.0172 32.671 43.5203 32.438C44.0234 32.205 44.5625 31.9826 45.1375 31.7708L46 27.9583H51.75L52.6125 31.7708C53.1875 31.9826 53.7266 32.2156 54.2297 32.4698C54.7328 32.724 55.2479 33.0417 55.775 33.4229L59.9438 32.1521L62.8188 36.6L59.5125 39.1417C59.6083 39.65 59.6562 40.1795 59.6562 40.7302C59.6562 41.2809 59.6083 41.8104 59.5125 42.3187L62.8188 44.8604L59.9438 49.1812L55.775 48.0375C55.2479 48.3764 54.7328 48.6623 54.2297 48.8953C53.7266 49.1283 53.1875 49.3507 52.6125 49.5625L51.75 53.375H46ZM48.875 45.75C50.4562 45.75 51.8099 45.2523 52.9359 44.2568C54.062 43.2613 54.625 42.0646 54.625 40.6667C54.625 39.2687 54.062 38.072 52.9359 37.0766C51.8099 36.0811 50.4562 35.5833 48.875 35.5833C47.2938 35.5833 45.9401 36.0811 44.8141 37.0766C43.688 38.072 43.125 39.2687 43.125 40.6667C43.125 42.0646 43.688 43.2613 44.8141 44.2568C45.9401 45.2523 47.2938 45.75 48.875 45.75ZM28.75 25.4167C30.3312 25.4167 31.6849 24.9189 32.8109 23.9234C33.937 22.9279 34.5 21.7312 34.5 20.3333C34.5 18.9354 33.937 17.7387 32.8109 16.7432C31.6849 15.7477 30.3312 15.25 28.75 15.25C27.1688 15.25 25.8151 15.7477 24.6891 16.7432C23.563 17.7387 23 18.9354 23 20.3333C23 21.7312 23.563 22.9279 24.6891 23.9234C25.8151 24.9189 27.1688 25.4167 28.75 25.4167Z" fill="#7743DC"/>
</g>
</svg>
