<svg width="108" height="120" viewBox="0 0 108 120" fill="none" xmlns="http://www.w3.org/2000/svg">
<path d="M12.9105 120C9.50238 120 6.60977 118.811 4.23266 116.434C1.85555 114.057 0.666992 111.165 0.666992 107.757V88.2052H20.667V0H107.334V107.757C107.334 111.165 106.145 114.057 103.768 116.434C101.391 118.811 98.541 120 95.2183 120H12.9105ZM95.2037 114.872C97.1792 114.872 98.84 114.19 100.186 112.826C101.532 111.462 102.205 109.772 102.205 107.757V5.12816H25.7952V88.2052H88.1028V107.82C88.1028 109.818 88.7833 111.493 90.1443 112.845C91.5053 114.196 93.1918 114.872 95.2037 114.872ZM36.5645 32.8205V27.6923H91.4362V32.8205H36.5645ZM36.5645 51.282V46.1538H91.4362V51.282H36.5645ZM12.6798 114.872H82.9747V93.3333H5.79516V107.757C5.79516 109.772 6.47438 111.462 7.83282 112.826C9.19127 114.19 10.8069 114.872 12.6798 114.872ZM12.6798 114.872H5.79516H82.9747H12.6798Z" fill="#7743DC"/>
</svg>
