<svg width="56" height="53" viewBox="0 0 56 53" fill="none" xmlns="http://www.w3.org/2000/svg">
<mask id="mask0_14_17" style="mask-type:alpha" maskUnits="userSpaceOnUse" x="45" y="11" width="11" height="14">
<path d="M55.9966 11.2236H45.6932V24.7138H55.9966V11.2236Z" fill="white"/>
</mask>
<g mask="url(#mask0_14_17)">
<path d="M53.7129 24.3939C53.8191 24.3939 53.8722 24.3939 53.9253 24.3406C54.244 24.2339 54.5095 23.9673 54.5626 23.6474L56.156 12.6633C56.2091 12.1834 55.8904 11.7569 55.4124 11.7035C54.9344 11.6502 54.5095 11.9702 54.4564 12.45L53.1287 21.4613L47.2865 14.3696C46.9679 13.9963 46.4367 13.943 46.065 14.2629C45.6932 14.5829 45.6401 15.1161 45.9588 15.4893L53.0755 24.1273C53.1818 24.2873 53.4473 24.3939 53.7129 24.3939Z" fill="#FD7350"/>
</g>
<mask id="mask1_14_17" style="mask-type:alpha" maskUnits="userSpaceOnUse" x="0" y="28" width="12" height="14">
<path d="M11.7025 28.2861H0.974182V41.0831H11.7025V28.2861Z" fill="white"/>
</mask>
<g mask="url(#mask1_14_17)">
<path d="M1.87708 41.0297C2.30197 41.0297 2.67374 40.7098 2.72685 40.2832L4.10772 31.272L9.89676 38.417C10.2154 38.7902 10.7465 38.8436 11.1183 38.5236C11.4901 38.2037 11.5432 37.6705 11.2245 37.2973L4.26705 28.6593C4.05461 28.3927 3.68284 28.286 3.36418 28.3927C3.04551 28.4993 2.77996 28.7659 2.72685 29.0858L1.02732 40.0166C0.974205 40.4965 1.29287 40.9231 1.77086 41.0297C1.82397 41.0297 1.82397 41.0297 1.87708 41.0297Z" fill="#FD7350"/>
</g>
<mask id="mask2_14_17" style="mask-type:alpha" maskUnits="userSpaceOnUse" x="2" y="28" width="53" height="25">
<path d="M54.9344 28.9795H2.5144V52.5473H54.9344V28.9795Z" fill="white"/>
</mask>
<g mask="url(#mask2_14_17)">
<path d="M28.6448 52.6005C41.4444 52.6005 52.4914 43.0028 54.3502 30.2591C54.4033 29.7792 54.0847 29.3526 53.6067 29.2993C53.1287 29.1927 52.7038 29.5659 52.6507 30.0458C50.9511 41.9364 40.5946 50.8943 28.6448 50.8943C16.8011 50.8943 6.4977 42.043 4.69195 30.2591C4.63884 29.7792 4.16084 29.4593 3.68285 29.5126C3.20486 29.5659 2.88619 30.0458 2.9393 30.5257C4.90439 43.0561 15.9514 52.6005 28.6448 52.6005Z" fill="#FD7350"/>
</g>
<mask id="mask3_14_17" style="mask-type:alpha" maskUnits="userSpaceOnUse" x="2" y="0" width="53" height="25">
<path d="M54.9344 0.346191H2.5144V24.7671H54.9344V0.346191Z" fill="white"/>
</mask>
<g mask="url(#mask3_14_17)">
<path d="M3.68284 24.6072C4.10773 24.6072 4.4795 24.2873 4.53261 23.8074C5.86037 11.4369 16.2169 2.05246 28.6448 2.05246C40.5946 2.05246 50.898 11.0104 52.6507 22.9009C52.7038 23.3808 53.1818 23.7007 53.6067 23.6474C54.0847 23.5941 54.4033 23.1142 54.3502 22.6876C52.4913 9.94394 41.4444 0.346191 28.6448 0.346191C15.3671 0.346191 4.26706 10.3705 2.83308 23.6474C2.77997 24.1273 3.15174 24.5539 3.57662 24.6072C3.62973 24.6072 3.68284 24.6072 3.68284 24.6072Z" fill="#FD7350"/>
</g>
<mask id="mask4_14_17" style="mask-type:alpha" maskUnits="userSpaceOnUse" x="10" y="9" width="37" height="40">
<path d="M46.3836 9.51733H10.2685V48.9748H46.3836V9.51733Z" fill="white"/>
</mask>
<g mask="url(#mask4_14_17)">
<path d="M43.7812 30.4191C41.4443 39.4836 36.3457 45.2956 28.5385 47.5884C20.7313 45.2423 15.6327 39.4836 13.2958 30.4191C11.8618 24.7671 11.968 19.4883 12.0743 17.782C19.3504 17.5687 25.405 13.2497 28.4854 11.0103C31.5658 13.2497 37.6204 17.5687 44.8965 17.782C45.109 19.5416 45.2152 24.7671 43.7812 30.4191ZM46.2243 17.0888C46.1712 16.7689 45.9056 16.5023 45.587 16.5023C38.3108 16.5023 32.3624 12.1833 29.1227 9.83721L28.9103 9.73057C28.6978 9.57061 28.3792 9.57061 28.1667 9.73057L28.0074 9.83721C25.0332 12.0234 18.8193 16.5023 11.49 16.5023C11.1714 16.5023 10.8527 16.7689 10.8527 17.0888C10.8527 17.3555 10.2154 23.6473 12.0211 30.739C14.4642 40.2301 20.0939 46.522 28.3792 48.9214C28.4323 48.9214 28.4854 48.9214 28.5385 48.9214C28.5916 48.9214 28.6447 48.9214 28.6978 48.9214C36.9831 46.522 42.6128 40.2301 45.0558 30.739C46.8616 23.6473 46.2774 17.3555 46.2243 17.0888Z" fill="#7743DC"/>
</g>
<path d="M35.7615 24.1273L27.3701 35.058C27.1576 35.3246 26.839 35.5379 26.4672 35.5912C26.4141 35.5912 26.361 35.5912 26.3079 35.5912C25.9892 35.5912 25.7237 35.4846 25.4581 35.2713L21.2093 31.8055C20.6251 31.3256 20.5719 30.5258 20.9968 29.9392C21.4748 29.3527 22.3246 29.2994 22.8557 29.7793L26.0423 32.392L33.6371 22.5276C34.062 21.9411 34.9118 21.8345 35.496 22.261C36.1333 22.7409 36.2395 23.5407 35.7615 24.1273ZM28.5385 13.623C25.7237 15.6492 20.5188 19.1684 14.358 19.5417C14.1987 23.914 14.4642 40.8167 28.5385 45.1357C42.6128 40.7634 42.8783 23.8607 42.719 19.5417C36.5582 19.1151 31.3534 15.6492 28.5385 13.623Z" fill="#7743DC"/>
</svg>
