<svg width="106" height="22" viewBox="0 0 106 22" fill="none" xmlns="http://www.w3.org/2000/svg">
<path d="M3.03722 18.7147C1.26997 16.986 0.386353 14.5781 0.386353 11.4294C0.386353 9.29935 0.812931 7.41629 1.63561 5.78018C2.4583 4.14407 3.64662 2.8784 5.20057 1.98317C6.72406 1.08794 8.52177 0.655762 10.5328 0.655762C12.1781 0.655762 13.7321 0.964462 15.2556 1.55099L14.4634 5.40974C13.1227 4.79234 11.8125 4.48364 10.5632 4.48364C8.76553 4.48364 7.36393 5.07017 6.29749 6.2741C5.26151 7.44716 4.74353 9.05239 4.74353 11.0281C4.74353 13.0346 5.29198 14.609 6.38889 15.7203C7.4858 16.8316 9.00929 17.3873 10.9594 17.3873C12.2391 17.3873 13.4883 17.1712 14.6767 16.7699L15.3165 20.4434C13.8844 20.9991 12.2391 21.2769 10.4109 21.2769C7.27252 21.3078 4.83493 20.4434 3.03722 18.7147Z" fill="white"/>
<path d="M21.2885 20.0113C19.9174 19.1469 18.851 17.943 18.1197 16.3995C17.3579 14.856 16.9923 13.0655 16.9923 11.0281C16.9923 8.99068 17.3579 7.20022 18.1197 5.62586C18.851 4.08236 19.9174 2.84756 21.2885 2.01407C22.6597 1.14971 24.2441 0.717529 26.0418 0.717529C27.8091 0.717529 29.3935 1.14971 30.7646 1.9832C32.1358 2.84756 33.1717 4.02062 33.9335 5.56412C34.6648 7.10761 35.0609 8.8672 35.0609 10.9046C35.0609 12.9729 34.6952 14.7634 33.9335 16.3377C33.2022 17.9121 32.1358 19.116 30.7646 19.9804C29.3935 20.8448 27.8395 21.2769 26.0418 21.2769C24.2136 21.3078 22.6292 20.8756 21.2885 20.0113ZM29.5763 15.7203C30.4904 14.5473 30.917 12.9729 30.917 11.0281C30.917 9.76243 30.7037 8.62024 30.3076 7.6324C29.9115 6.64456 29.3021 5.87281 28.5708 5.34803C27.8091 4.82324 26.9559 4.54541 25.9809 4.54541C25.0059 4.54541 24.1527 4.82324 23.391 5.34803C22.6292 5.87281 22.0503 6.64456 21.6542 7.6324C21.2581 8.62024 21.0448 9.76243 21.0448 11.0281C21.0448 12.2938 21.2581 13.436 21.6542 14.4238C22.0503 15.4116 22.6292 16.1525 23.391 16.7082C24.1222 17.233 25.0059 17.5108 25.9809 17.5108C27.4739 17.4799 28.6927 16.8934 29.5763 15.7203Z" fill="white"/>
<path d="M36.9501 0.964478H41.6729L46.3348 16.1834L50.9662 0.964478H55.3843L48.7723 20.9065H43.5925L36.9501 0.964478Z" fill="white"/>
<path d="M57.0297 0.964463C57.6086 0.933593 58.736 0.933594 60.3509 0.933594C61.9962 0.933594 63.0931 0.933593 63.7025 0.964463C65.9573 1.05707 67.6331 1.61273 68.73 2.63144C69.827 3.65015 70.3754 5.0393 70.3754 6.76802C70.3754 8.24978 70.0098 9.48458 69.2785 10.5342C68.5472 11.5529 67.5113 12.232 66.2011 12.5407C66.6276 12.8803 67.0237 13.3433 67.4808 13.9299C67.9074 14.5164 68.5168 15.4425 69.2785 16.6773C70.1012 17.9738 70.8934 19.3938 71.7465 20.9065H66.78L63.4283 14.609C63.0627 13.9607 62.758 13.5285 62.4533 13.3742C62.179 13.2198 61.7525 13.1272 61.1736 13.1272V20.9065H57.0601V0.964463H57.0297ZM62.9713 9.79327C63.9768 9.79327 64.769 9.54632 65.3479 9.02153C65.9268 8.49674 66.2315 7.8176 66.2315 6.92237C66.2315 6.11975 65.9878 5.50235 65.4698 5.10104C64.9518 4.66886 64.2205 4.48364 63.215 4.48364H61.1431V9.82414H62.9713V9.79327Z" fill="white"/>
<path d="M72.3864 19.6099C75.5247 14.6399 78.6631 9.70068 81.771 4.73061H72.6301V0.964478H87.0118C87.0118 1.39666 87.0118 1.82884 87.0118 2.29189C83.9039 7.23108 80.796 12.2011 77.6576 17.1403H87.0118V20.9065H72.3864C72.3864 20.4743 72.3864 20.0421 72.3864 19.6099Z" fill="white"/>
<path d="M94.7817 12.6025L88.2002 0.964478H93.0144L97.0059 8.83632L100.967 0.964478H105.69L99.0779 12.6025V20.9065H94.7817V12.6025Z" fill="white"/>
</svg>
