<svg width="33" height="31" viewBox="0 0 33 31" fill="none" xmlns="http://www.w3.org/2000/svg">
<mask id="mask0_5_16" style="mask-type:alpha" maskUnits="userSpaceOnUse" x="26" y="6" width="7" height="9">
<path d="M32.2729 6.65576H26.3618V14.4659H32.2729V6.65576Z" fill="white"/>
</mask>
<g mask="url(#mask0_5_16)">
<path d="M30.9629 14.2807C31.0239 14.2807 31.0543 14.2807 31.0848 14.2498C31.2676 14.1881 31.42 14.0337 31.4504 13.8485L32.3645 7.48931C32.395 7.21148 32.2122 6.96452 31.9379 6.93365C31.6637 6.90278 31.42 7.088 31.3895 7.36583L30.6277 12.5829L27.2761 8.47715C27.0933 8.26106 26.7886 8.23019 26.5753 8.41541C26.362 8.60063 26.3315 8.90933 26.5143 9.12542L30.5973 14.1264C30.6582 14.219 30.8106 14.2807 30.9629 14.2807Z" fill="white"/>
</g>
<mask id="mask1_5_16" style="mask-type:alpha" maskUnits="userSpaceOnUse" x="0" y="16" width="7" height="8">
<path d="M6.86119 16.5342H0.706299V23.943H6.86119V16.5342Z" fill="white"/>
</mask>
<g mask="url(#mask1_5_16)">
<path d="M1.22447 23.9121C1.46823 23.9121 1.68151 23.7269 1.71198 23.4799L2.5042 18.2629L5.8254 22.3995C6.00822 22.6156 6.31292 22.6464 6.5262 22.4612C6.73949 22.276 6.76996 21.9673 6.58714 21.7512L2.59561 16.7503C2.47373 16.5959 2.26044 16.5342 2.07762 16.5959C1.8948 16.6577 1.74245 16.812 1.71198 16.9972L0.736953 23.3256C0.706483 23.6034 0.889302 23.8504 1.16353 23.9121C1.194 23.9121 1.194 23.9121 1.22447 23.9121Z" fill="white"/>
</g>
<mask id="mask2_5_16" style="mask-type:alpha" maskUnits="userSpaceOnUse" x="1" y="16" width="31" height="15">
<path d="M31.6635 16.9354H1.58984V30.58H31.6635V16.9354Z" fill="white"/>
</mask>
<g mask="url(#mask2_5_16)">
<path d="M16.581 30.6108C23.9242 30.6108 30.2619 25.0542 31.3283 17.6763C31.3588 17.3984 31.176 17.1515 30.9018 17.1206C30.6275 17.0589 30.3838 17.2749 30.3533 17.5528C29.3783 24.4368 23.4367 29.6229 16.581 29.6229C9.78624 29.6229 3.87511 24.4985 2.83913 17.6763C2.80866 17.3984 2.53444 17.2132 2.26021 17.2441C1.98598 17.2749 1.80316 17.5528 1.83363 17.8306C2.96101 25.085 9.29872 30.6108 16.581 30.6108Z" fill="white"/>
</g>
<mask id="mask3_5_16" style="mask-type:alpha" maskUnits="userSpaceOnUse" x="1" y="0" width="31" height="15">
<path d="M31.6635 0.358276H1.58984V14.4967H31.6635V0.358276Z" fill="white"/>
</mask>
<g mask="url(#mask3_5_16)">
<path d="M2.2602 14.4041C2.50396 14.4041 2.71725 14.2189 2.74772 13.9411C3.50946 6.77923 9.45106 1.34612 16.581 1.34612C23.4367 1.34612 29.3478 6.53227 30.3533 13.4163C30.3838 13.6941 30.658 13.8793 30.9018 13.8485C31.176 13.8176 31.3588 13.5398 31.3283 13.2928C30.2619 5.91487 23.9242 0.358276 16.581 0.358276C8.96354 0.358276 2.59537 6.16183 1.77269 13.8485C1.74222 14.1263 1.9555 14.3732 2.19926 14.4041C2.22973 14.4041 2.2602 14.4041 2.2602 14.4041Z" fill="white"/>
</g>
<mask id="mask4_5_16" style="mask-type:alpha" maskUnits="userSpaceOnUse" x="6" y="5" width="21" height="24">
<path d="M26.758 5.66797H6.03857V28.5117H26.758V5.66797Z" fill="white"/>
</mask>
<g mask="url(#mask4_5_16)">
<path d="M25.2649 17.7691C23.9242 23.0169 20.9991 26.3818 16.5201 27.7092C12.041 26.3509 9.11592 23.0169 7.77525 17.7691C6.95257 14.4968 7.01351 11.4407 7.07445 10.4529C11.2488 10.3294 14.7224 7.82892 16.4896 6.53238C18.2568 7.82892 21.7304 10.3294 25.9047 10.4529C26.0266 11.4716 26.0876 14.4968 25.2649 17.7691ZM26.6665 10.0516C26.636 9.86634 26.4837 9.71199 26.3009 9.71199C22.1265 9.71199 18.7139 7.21152 16.8552 5.85324L16.7334 5.7915C16.6115 5.69889 16.4287 5.69889 16.3068 5.7915L16.2154 5.85324C14.5091 7.11891 10.9441 9.71199 6.73928 9.71199C6.55646 9.71199 6.37364 9.86634 6.37364 10.0516C6.37364 10.2059 6.008 13.8486 7.04398 17.9543C8.44558 23.4491 11.6754 27.0918 16.4287 28.4809C16.4591 28.4809 16.4896 28.4809 16.5201 28.4809C16.5505 28.4809 16.581 28.4809 16.6115 28.4809C21.3648 27.0918 24.5945 23.4491 25.9962 17.9543C27.0321 13.8486 26.697 10.2059 26.6665 10.0516Z" fill="white"/>
</g>
<path d="M20.664 14.1263L15.8498 20.4547C15.7279 20.609 15.5451 20.7325 15.3318 20.7634C15.3013 20.7634 15.2708 20.7634 15.2404 20.7634C15.0575 20.7634 14.9052 20.7016 14.7529 20.5781L12.3153 18.5716C11.9801 18.2938 11.9496 17.8307 12.1934 17.4911C12.4676 17.1516 12.9551 17.1207 13.2598 17.3985L15.088 18.9112L19.4452 13.2002C19.6889 12.8606 20.1765 12.7989 20.5116 13.0459C20.8773 13.3237 20.9382 13.7867 20.664 14.1263ZM16.5201 8.04492C14.9052 9.21798 11.9192 11.2554 8.38467 11.4715C8.29326 14.0028 8.44561 23.7886 16.5201 26.2891C24.5946 23.7577 24.7469 13.972 24.6555 11.4715C21.121 11.2245 18.135 9.21798 16.5201 8.04492Z" fill="white"/>
</svg>
