<svg width="39" height="38" viewBox="0 0 39 38" fill="none" xmlns="http://www.w3.org/2000/svg">
<g id="Group">
<path id="Vector" fill-rule="evenodd" clip-rule="evenodd" d="M28.0117 0.858083C30.58 2.23918 33.5224 9.41697 33.9154 15.2696C34.4687 23.5466 31.0261 27.4469 22.6231 28.0426C18.181 28.3667 11.1461 28.6739 11.1838 28.7859C11.1932 28.8139 11.9747 29.3771 12.9294 30.0381C15.9947 32.1561 17.096 33.485 16.6125 34.4579C16.4173 34.8508 16.1975 34.7533 14.461 33.4355C14.4422 33.4262 11.9754 31.5123 7.35718 28.6226C4.64796 26.9149 5.75436 26.5898 8.14885 25.7382C10.6507 24.835 12.125 24.0744 13.8557 23.0563C14.8307 22.4793 16.0617 21.5512 16.7189 22.8109C17.2446 23.8187 15.7441 25.3361 12.7016 26.7172C11.4976 27.2622 11.6379 27.3084 14.2349 27.1057C15.51 27.0044 17.3318 26.9065 18.2707 26.8715C28.5711 26.5421 31.857 23.4739 31.3072 14.697C31.1172 11.5814 29.5801 5.94169 28.3695 3.82374C27.0979 1.61717 26.9311 0.286157 28.0117 0.858083Z" fill="white"/>
</g>
</svg>
