<svg xmlns="http://www.w3.org/2000/svg" width="48" height="48" viewBox="0 0 48 48" fill="none">
  <rect width="48" height="48" fill="white"/>
  <mask id="mask0_76_248" style="mask-type:alpha" maskUnits="userSpaceOnUse" x="4" y="4" width="40" height="40">
    <rect x="4" y="4" width="39.36" height="39.36" fill="#D9D9D9"/>
  </mask>
  <g mask="url(#mask0_76_248)">
    <path d="M7.72146 35.98C7.15585 35.98 6.66752 35.7916 6.25645 35.4147C5.84541 35.0378 5.63989 34.5901 5.63989 34.0715H11.5691C10.8143 34.0715 10.1841 33.8397 9.67839 33.3761C9.17273 32.9124 8.91989 32.3346 8.91989 31.6425V15.449C8.91989 14.757 9.17273 14.1791 9.67839 13.7155C10.1841 13.2518 10.8143 13.02 11.5691 13.02H35.7907C36.5455 13.02 37.1757 13.2518 37.6814 13.7155C38.1871 14.1791 38.4399 14.757 38.4399 15.449V31.6425C38.4399 32.3346 38.1871 32.9124 37.6814 33.3761C37.1757 33.8397 36.5455 34.0715 35.7907 34.0715H41.7199C41.7199 34.5901 41.5144 35.0378 41.1033 35.4147C40.6923 35.7916 40.204 35.98 39.6384 35.98H7.72146ZM23.6799 35.2282C23.9553 35.2282 24.1924 35.1371 24.3911 34.9549C24.5898 34.7728 24.6891 34.5554 24.6891 34.3029C24.6891 34.0503 24.5898 33.833 24.3911 33.6508C24.1924 33.4686 23.9553 33.3775 23.6799 33.3775C23.4045 33.3775 23.1674 33.4686 22.9687 33.6508C22.77 33.833 22.6707 34.0503 22.6707 34.3029C22.6707 34.5554 22.77 34.7728 22.9687 34.9549C23.1674 35.1371 23.4045 35.2282 23.6799 35.2282ZM11.5691 32.5678H35.7907C36.043 32.5678 36.2742 32.4714 36.4845 32.2786C36.6948 32.0859 36.7999 31.8738 36.7999 31.6425V15.449C36.7999 15.2177 36.6948 15.0057 36.4845 14.8129C36.2742 14.6201 36.043 14.5237 35.7907 14.5237H11.5691C11.3168 14.5237 11.0855 14.6201 10.8753 14.8129C10.665 15.0057 10.5599 15.2177 10.5599 15.449V31.6425C10.5599 31.8738 10.665 32.0859 10.8753 32.2786C11.0855 32.4714 11.3168 32.5678 11.5691 32.5678Z" fill="#7743DC"/>
    <path d="M35.1602 13.02V14.66" stroke="white" stroke-width="2" stroke-linecap="round"/>
    <path d="M36.8003 17.94H38.4403" stroke="white" stroke-width="2" stroke-linecap="round"/>
    <path d="M37.6201 13.84V17.94" stroke="white" stroke-width="2" stroke-linecap="round"/>
    <path d="M38.4402 14.66V17.94" stroke="white" stroke-width="2" stroke-linecap="round"/>
    <path d="M37.6201 13.84V17.94" stroke="white" stroke-width="2" stroke-linecap="round"/>
    <path d="M35.1602 13.02V14.66" stroke="white" stroke-width="2" stroke-linecap="round"/>
    <path d="M35.9802 13.02V14.66" stroke="white" stroke-width="2" stroke-linecap="round"/>
    <path d="M36.8003 13.02V15.48" stroke="white" stroke-width="2" stroke-linecap="round"/>
    <path d="M37.9482 15.4212L40.2712 13.3754L39.9369 13.081L37.9482 14.8324L36.9461 13.95L36.6118 14.2444L37.9482 15.4212ZM38.4402 17.9399C37.4988 17.6939 36.7168 17.1918 36.0941 16.4334C35.4715 15.675 35.1602 14.8208 35.1602 13.8706V11.6392L38.4402 10.5599L41.7202 11.6392V13.8706C41.7202 14.8208 41.4088 15.675 40.7862 16.4334C40.1635 17.1918 39.3815 17.6939 38.4402 17.9399ZM38.4402 17.5019C39.2523 17.2749 39.924 16.821 40.455 16.1402C40.9861 15.4593 41.2516 14.7028 41.2516 13.8706V11.9209L38.4402 11.0004L35.6287 11.9209V13.8706C35.6287 14.7028 35.8943 15.4593 36.4253 16.1402C36.9563 16.821 37.628 17.2749 38.4402 17.5019Z" fill="#7743DC"/>
    <path d="M22.4508 27.0567C22.9313 26.8383 23.4077 26.716 23.8762 26.7064C24.3393 26.6967 24.7877 26.7984 25.2215 27.0279C25.4884 26.6294 25.9355 26.367 26.4427 26.367C27.2608 26.367 27.9255 27.0499 27.9255 27.8935C27.9255 28.7371 27.2621 29.42 26.4427 29.42C25.6232 29.42 24.9599 28.7371 24.9599 27.8935C24.9599 27.8605 24.9612 27.8262 24.9626 27.7932C24.6169 27.5885 24.2579 27.4992 23.8882 27.506C23.5065 27.5129 23.1074 27.6256 22.691 27.8234C22.6924 27.8468 22.6924 27.8688 22.6924 27.8921C22.6924 28.7358 22.029 29.4186 21.2096 29.4186C20.3914 29.4186 19.7268 28.7358 19.7268 27.8921C19.7268 27.0485 20.3901 26.3656 21.2096 26.3656C21.7301 26.367 22.1865 26.6418 22.4508 27.0567ZM20.0738 18.5723C20.8159 17.6545 21.1015 17.9375 22.005 18.1889C23.1341 18.5022 24.2365 18.5792 25.4083 18.2329C26.2799 17.9746 26.6616 17.616 27.4477 18.5187C28.0256 19.181 28.3846 20.2458 28.5994 20.9136C28.857 21.7119 29.0332 22.5308 29.1386 23.3662H18.5136C18.8926 21.4041 19.3478 19.6413 20.0738 18.5723ZM16.0779 23.9116H31.2821C31.6117 23.9116 31.88 24.1892 31.88 24.5272C31.88 24.8666 31.6104 25.1427 31.2821 25.1427H16.0779C15.7496 25.1427 15.48 24.8666 15.48 24.5272C15.48 24.1892 15.7496 23.9116 16.0779 23.9116Z" fill="#7743DC"/>
  </g>
</svg>