<svg width="77" height="77" viewBox="0 0 77 77" fill="none" xmlns="http://www.w3.org/2000/svg">
<mask id="mask0_63_49" style="mask-type:alpha" maskUnits="userSpaceOnUse" x="0" y="0" width="77" height="77">
<rect width="77" height="77" fill="#D9D9D9"/>
</mask>
<g mask="url(#mask0_63_49)">
<path d="M14.8077 64.1667C13.331 64.1667 12.0981 63.6721 11.1089 62.6828C10.1196 61.6936 9.625 60.4607 9.625 58.984V27.641C9.625 26.1644 10.1196 24.9314 11.1089 23.9422C12.0981 22.953 13.331 22.4583 14.8077 22.4583H28.875V18.016C28.875 16.5394 29.3696 15.3064 30.3589 14.3172C31.3481 13.328 32.581 12.8333 34.0577 12.8333H42.9423C44.419 12.8333 45.6519 13.328 46.6411 14.3172C47.6304 15.3064 48.125 16.5394 48.125 18.016V22.4583H62.1923C63.669 22.4583 64.9019 22.953 65.8911 23.9422C66.8804 24.9314 67.375 26.1644 67.375 27.641V58.984C67.375 60.4607 66.8804 61.6936 65.8911 62.6828C64.9019 63.6721 63.669 64.1667 62.1923 64.1667H14.8077ZM14.8077 60.9583H62.1923C62.6859 60.9583 63.1383 60.7527 63.5497 60.3414C63.961 59.93 64.1667 59.4776 64.1667 58.984V27.641C64.1667 27.1475 63.961 26.695 63.5497 26.2836C63.1383 25.8723 62.6859 25.6667 62.1923 25.6667H14.8077C14.3141 25.6667 13.8617 25.8723 13.4503 26.2836C13.039 26.695 12.8333 27.1475 12.8333 27.641V58.984C12.8333 59.4776 13.039 59.93 13.4503 60.3414C13.8617 60.7527 14.3141 60.9583 14.8077 60.9583ZM32.0833 22.4583H44.9167V18.016C44.9167 17.5224 44.711 17.0699 44.2997 16.6586C43.8883 16.2473 43.4359 16.0417 42.9423 16.0417H34.0577C33.5641 16.0417 33.1117 16.2473 32.7003 16.6586C32.289 17.0699 32.0833 17.5224 32.0833 18.016V22.4583Z" fill="#7743DC"/>
</g>
<mask id="mask1_63_49" style="mask-type:alpha" maskUnits="userSpaceOnUse" x="23" y="27" width="31" height="31">
<rect x="23" y="27" width="31" height="31" fill="#D9D9D9"/>
</mask>
<g mask="url(#mask1_63_49)">
<path d="M35.6682 54.7708V37.7631C34.0569 37.4617 32.7226 36.6904 31.6653 35.4492C30.6079 34.2081 30.0047 32.7661 29.8557 31.1234H31.1474C31.313 32.6784 31.9468 33.9779 33.0489 35.022C34.1509 36.0661 35.4298 36.5881 36.8854 36.5881H40.1145C40.6113 36.5881 41.032 36.661 41.3764 36.8067C41.7209 36.9524 42.0694 37.2017 42.4222 37.5544L47.8944 43.0266L46.9802 43.9407L41.3317 38.2922V54.7708H40.04V47.1699H36.9599V54.7708H35.6682ZM38.5 34.4519C37.8889 34.4519 37.3718 34.2404 36.9487 33.8173C36.5256 33.3942 36.3141 32.8771 36.3141 32.2661C36.3141 31.655 36.5256 31.1379 36.9487 30.7148C37.3718 30.2917 37.8889 30.0802 38.5 30.0802C39.111 30.0802 39.6281 30.2917 40.0512 30.7148C40.4743 31.1379 40.6859 31.655 40.6859 32.2661C40.6859 32.8771 40.4743 33.3942 40.0512 33.8173C39.6281 34.2404 39.111 34.4519 38.5 34.4519Z" fill="#7743DC"/>
</g>
</svg>
