<svg width="48" height="48" viewBox="0 0 48 48" fill="none" xmlns="http://www.w3.org/2000/svg">
<g clip-path="url(#clip0_139_35)">
<rect width="48" height="48" fill="white"/>
<path fill-rule="evenodd" clip-rule="evenodd" d="M20.8624 23.7208C20.1561 23.1277 19.6011 22.6973 19.48 21.4659H19.4044C19.2278 21.4657 19.0541 21.4229 18.8998 21.3415C18.6525 21.193 18.4616 20.9735 18.3549 20.715C18.1027 20.1627 17.9009 18.7088 18.5391 18.2928L18.4205 18.2186L18.4054 18.056C18.3827 17.7643 18.3751 17.4104 18.3701 17.0398C18.3474 15.672 18.3171 14.0149 17.1567 13.6921L16.6522 13.551L16.9801 13.166C17.8382 12.1306 18.8145 11.1883 19.8912 10.3564C21.0062 9.52186 22.1414 8.9671 23.2539 8.80689C23.8342 8.71636 24.4284 8.74713 24.9949 8.89706C25.5613 9.047 26.0864 9.31247 26.5333 9.6749C26.8544 9.92323 27.1469 10.203 27.4061 10.5094C27.9255 10.5629 28.4272 10.7196 28.8784 10.9693C29.3296 11.219 29.7202 11.556 30.0246 11.9585C30.4106 12.4487 30.6995 13.0013 30.8773 13.5893C31.0606 14.1892 31.1382 14.8138 31.1068 15.4377C31.071 16.5637 30.5849 17.6348 29.7471 18.4338C29.8949 18.4364 30.04 18.4716 30.1709 18.5367C30.6553 18.7758 30.6755 19.3138 30.5418 19.7609C30.4181 20.134 30.2567 20.5668 30.1079 20.9302C29.9288 21.4324 29.6487 21.5137 29.1316 21.4611C29.1064 22.6734 28.5136 23.0082 27.7189 23.7208C27.7492 25.55 20.817 25.3348 20.8624 23.7208ZM35.2263 27.3458C35.9585 27.3943 36.6541 27.6678 37.2077 28.1247C37.7612 28.5817 38.1425 29.1972 38.2938 29.8781L37.8649 30.3802L37.4538 29.8781H37.3957L36.9669 30.3826L36.5507 29.8781H36.4498L36.0209 30.3802L35.6072 29.8781H35.5542C35.5469 29.9421 35.5187 30.0023 35.4734 30.0504C35.4282 30.0984 35.3682 30.1318 35.302 30.1459V31.9584C35.3062 32.2254 35.1993 32.4831 35.0043 32.6758C34.9126 32.7674 34.8024 32.8405 34.6801 32.8906C34.5578 32.9408 34.4261 32.9669 34.2929 32.9675C34.1602 32.9658 34.0291 32.9387 33.9078 32.8877C33.7864 32.8368 33.6771 32.763 33.5866 32.671C33.3934 32.4774 33.2875 32.2201 33.2914 31.9536V31.8628H33.7127V31.9536C33.7112 32.1041 33.7719 32.2491 33.8817 32.3577C33.9339 32.4104 33.9968 32.4523 34.0666 32.4811C34.1364 32.5099 34.2117 32.5249 34.2879 32.5251C34.3643 32.5246 34.4399 32.5096 34.5101 32.4808C34.5803 32.4521 34.6437 32.4102 34.6965 32.3577C34.805 32.2483 34.8655 32.1038 34.8655 31.9536V30.1363C34.8128 30.1174 34.7665 30.0851 34.7318 30.0429C34.6971 30.0007 34.6753 29.9503 34.6688 29.8972H34.4947L34.0835 30.3994L33.6547 29.8972H33.5513L33.1375 30.4017L32.7036 29.8805H32.6482L32.237 30.3826L31.8081 29.8805C31.9582 29.2061 32.3339 28.5957 32.8793 28.1399C33.4247 27.6841 34.1106 27.4073 34.8353 27.3506L35.0346 27.0947L35.2137 27.3482L35.2263 27.3458ZM40.9728 25.77C41.2755 31.5256 39.0329 34.9259 35.0573 36.3415C31.2178 35.0144 28.95 31.7623 29.1165 25.6815C31.247 25.8337 33.3597 25.218 35.032 23.9575C36.7348 24.9809 38.9043 25.9493 40.9703 25.77H40.9728ZM35.0396 25.0527C36.866 26.1478 38.5158 26.6691 39.931 26.5448C40.1832 31.2865 38.3316 34.0866 35.0573 35.2559C31.8939 34.1583 30.0246 31.4754 30.1634 26.4682C31.9186 26.5929 33.6589 26.0857 35.0371 25.0479L35.0396 25.0527ZM20.3831 25.3372L22.5198 30.6576L23.5944 27.7571L23.0672 27.2119C22.6712 26.6643 22.8149 26.0426 23.5415 25.9302C23.8056 25.9061 24.0712 25.9013 24.3361 25.9159C24.6274 25.8973 24.9199 25.9077 25.2089 25.947C25.89 26.088 25.9657 26.7145 25.6226 27.2119L25.0954 27.7571L26.17 30.6576L27.6407 26.6141C27.8047 29.8518 28.6069 32.353 29.9388 34.2085H10C10.4616 32.1928 10.4137 28.6873 12.5352 27.5754C14.4247 26.5782 18.8418 26.6524 20.3806 25.3324L20.3831 25.3372Z" fill="#7743DC"/>
</g>
<defs>
<clipPath id="clip0_139_35">
<rect width="48" height="48" fill="white"/>
</clipPath>
</defs>
</svg>
