<svg width="36" height="52" viewBox="0 0 36 52" fill="none" xmlns="http://www.w3.org/2000/svg">
<path d="M28.93 42.0717H7.8284C7.27891 42.0717 6.83533 41.6266 6.83533 41.0771C6.83533 40.5276 7.28044 40.0825 7.8284 40.0825H28.9315C29.481 40.0825 29.9246 40.5276 29.9246 41.0771C29.9246 41.6266 29.4795 42.0717 28.93 42.0717Z" fill="white"/>
<path d="M28.93 34.121H7.8284C7.27891 34.121 6.83533 33.6759 6.83533 33.1264C6.83533 32.577 7.28044 32.1318 7.8284 32.1318H28.9315C29.481 32.1318 29.9246 32.577 29.9246 33.1264C29.9246 33.6759 29.4795 34.121 28.93 34.121Z" fill="white"/>
<path d="M28.93 26.1704H7.8284C7.27891 26.1704 6.83533 25.7252 6.83533 25.1758C6.83533 24.6263 7.28044 24.1812 7.8284 24.1812H28.9315C29.481 24.1812 29.9246 24.6263 29.9246 25.1758C29.9246 25.7252 29.4795 26.1704 28.93 26.1704Z" fill="white"/>
<path d="M28.93 18.2197H7.8284C7.27891 18.2197 6.83533 17.7746 6.83533 17.2251C6.83533 16.6756 7.28044 16.2305 7.8284 16.2305H28.9315C29.481 16.2305 29.9246 16.6756 29.9246 17.2251C29.9246 17.7746 29.4795 18.2197 28.93 18.2197Z" fill="white"/>
<path d="M34.4494 51.6878H1.55069C1.0012 51.6878 0.557617 51.2426 0.557617 50.6932V1.30674C0.557617 0.75725 1.00273 0.312134 1.55069 0.312134H25.3414C25.6054 0.312134 25.8571 0.416506 26.0444 0.603762L35.1524 9.71176C35.3381 9.89748 35.444 10.1507 35.444 10.4147V50.6932C35.444 51.2426 34.9989 51.6878 34.4494 51.6878ZM2.54376 49.7001H33.4563V10.8276L24.93 2.30134H2.54376V49.7001Z" fill="white"/>
<path d="M32.8239 11.0824H25.4027C24.8532 11.0824 24.4097 10.6373 24.4097 10.0878V1.58762C24.4097 1.03813 24.8548 0.593018 25.4027 0.593018C25.9507 0.593018 26.3958 1.03813 26.3958 1.58762V9.09474H32.8239C33.3734 9.09474 33.817 9.53986 33.817 10.0893C33.817 10.6388 33.3719 11.0824 32.8239 11.0824Z" fill="white"/>
</svg>
