<svg width="26" height="26" viewBox="0 0 26 26" fill="none" xmlns="http://www.w3.org/2000/svg">
<g id="download (1) 1">
<path id="Vector" d="M5.6875 21.125H20.3125C20.9856 21.125 21.5312 21.6707 21.5312 22.3438C21.5312 22.9608 21.0728 23.4707 20.4779 23.5514L20.3125 23.5625H5.6875C5.0144 23.5625 4.46875 23.0168 4.46875 22.3438C4.46875 21.7267 4.92725 21.2168 5.52212 21.1361L5.6875 21.125ZM12.8346 1.63613L13 1.625C13.617 1.625 14.1269 2.0835 14.2076 2.67837L14.2188 2.84375V15.3368L17.8835 11.6742C18.3161 11.2415 18.9932 11.2022 19.4703 11.5562L19.607 11.6742C20.0397 12.1069 20.079 12.784 19.725 13.2611L19.607 13.3978L13.8618 19.143C13.4291 19.5757 12.752 19.6151 12.2749 19.261L12.1382 19.143L6.39297 13.3978C5.91702 12.9218 5.91702 12.1502 6.39297 11.6742C6.82565 11.2415 7.50273 11.2022 7.97985 11.5562L8.11654 11.6742L11.7812 15.34V2.84375C11.7812 2.22674 12.2398 1.71683 12.8346 1.63613Z" fill="#292C4E"/>
</g>
</svg>
