<svg version="1.2" xmlns="http://www.w3.org/2000/svg" viewBox="0 0 24 24" width="24" height="24">
	<title>download</title>
	<defs>
		<clipPath clipPathUnits="userSpaceOnUse" id="cp1">
			<path d="m0 0h24v24h-24z"/>
		</clipPath>
	</defs>
	<style>
		.s0 { fill: #ffffff } 
	</style>
	<g id="Clip-Path" clip-path="url(#cp1)">
		<g id="Layer">
			<path id="Layer" fill-rule="evenodd" class="s0" d="m13.5 12.9l3.4-3.5c0.6-0.6 1.6-0.6 2.2 0 0.5 0.6 0.5 1.6 0 2.2l-6 6c-0.6 0.5-1.6 0.5-2.2 0l-6-6c-0.6-0.6-0.6-1.6 0-2.2 0.6-0.6 1.6-0.6 2.2 0l3.4 3.5v-11.4c0-0.8 0.7-1.5 1.5-1.5 0.8 0 1.5 0.7 1.5 1.5zm-5.7 3.6l2.1 2.1c1.1 1.2 3 1.2 4.2 0l2.1-2.1h4.8c1.7 0 3 1.4 3 3v1.5c0 1.7-1.3 3-3 3h-18c-1.7 0-3-1.3-3-3v-1.5c0-1.6 1.3-3 3-3zm13.6 3.8c0-0.6-0.5-1.2-1.1-1.2-0.6 0-1.1 0.6-1.1 1.2 0 0.6 0.5 1.1 1.1 1.1 0.6 0 1.1-0.5 1.1-1.1z"/>
		</g>
	</g>
</svg>