<svg width="34" height="34" viewBox="0 0 34 34" fill="none" xmlns="http://www.w3.org/2000/svg">
<circle cx="17" cy="17.0001" r="15" transform="rotate(-180 17 17.0001)" fill="#F5F2FC"/>
<path d="M15.2295 18.0607C15.8153 17.4749 15.8153 16.5252 15.2295 15.9394L12.3937 13.1036C12.1992 12.9091 12.1989 12.5913 12.3949 12.3953C12.591 12.1992 12.9088 12.1996 13.1032 12.394L15.939 15.2298C16.5248 15.8156 17.4746 15.8156 18.0604 15.2298L20.8962 12.394C21.0906 12.1996 21.4084 12.1992 21.6045 12.3953C21.8006 12.5913 21.8002 12.9091 21.6057 13.1036L18.7699 15.9394C18.1841 16.5252 18.1841 17.4749 18.7699 18.0607L21.6057 20.8965C21.8002 21.091 21.8006 21.4088 21.6045 21.6049C21.4084 21.8009 21.0906 21.8006 20.8962 21.6061L18.0604 18.7703C17.4746 18.1845 16.5248 18.1845 15.939 18.7703L13.1032 21.6061C12.9088 21.8005 12.591 21.8009 12.3949 21.6049C12.1988 21.4088 12.1992 21.091 12.3937 20.8965L15.2295 18.0607Z" fill="#774AD9" stroke="#FD7350"/>
</svg>
