<svg width="76" height="77" viewBox="0 0 76 77" fill="none" xmlns="http://www.w3.org/2000/svg">
<g filter="url(#filter0_d_255_630)">
<circle cx="38.0801" cy="38.7285" r="33.8433" fill="white"/>
<circle cx="38.0801" cy="38.7285" r="33.3433" stroke="#263238"/>
</g>
<g clip-path="url(#clip0_255_630)">
<path d="M38.0801 60.7285C50.2303 60.7285 60.0801 50.8788 60.0801 38.7285C60.0801 26.5783 50.2303 16.7285 38.0801 16.7285C25.9298 16.7285 16.0801 26.5783 16.0801 38.7285C16.0801 50.8788 25.9298 60.7285 38.0801 60.7285Z" fill="#5F2EE5" fill-opacity="0.62"/>
<path fill-rule="evenodd" clip-rule="evenodd" d="M38.8958 60.6982C39.143 60.6939 39.3901 60.6854 39.637 60.6728C40.3681 60.6212 41.0961 60.5331 41.8184 60.4088C42.5413 60.2834 43.2575 60.1218 43.9643 59.9248C44.6714 59.7296 45.3684 59.4992 46.0526 59.2343C46.7356 58.9684 47.4049 58.6685 48.058 58.3357C48.7116 58.0028 49.3481 57.6373 49.9652 57.2408C50.5824 56.845 51.1794 56.4185 51.754 55.9631C52.329 55.507 52.8808 55.0224 53.4073 54.5111C53.9337 54 54.4341 53.4629 54.9067 52.9017C55.379 52.3404 55.823 51.7558 56.2369 51.1502C56.6515 50.5447 57.0356 49.9189 57.3877 49.2751C57.7397 48.6315 58.0594 47.9707 58.3455 47.2951C58.6308 46.6199 58.8821 45.9308 59.0986 45.2305C59.3145 44.5292 59.4953 43.8175 59.6401 43.0982C59.7869 42.3793 59.8976 41.6535 59.9718 40.9236C60.0445 40.1942 60.0806 39.4616 60.0801 38.7286C60.0799 38.2092 60.0613 37.6899 60.0243 37.1717C59.9727 36.4407 59.8846 35.7126 59.7603 34.9903C59.7569 34.9762 59.7535 34.9621 59.7501 34.948L54.7561 29.9523C54.8569 29.8275 54.92 29.6766 54.9383 29.5173C54.9566 29.3579 54.9292 29.1966 54.8593 29.0523C54.7894 28.9079 54.6799 28.7863 54.5436 28.7018C54.4073 28.6173 54.2497 28.5732 54.0893 28.5748C53.8983 28.5764 53.7134 28.6426 53.5647 28.7626L50.197 31.3874L46.5366 27.7286C46.5366 27.6161 46.5142 27.5047 46.4706 27.4009C46.427 27.2971 46.3632 27.2031 46.2828 27.1243C46.2024 27.0455 46.1071 26.9835 46.0025 26.942C45.8979 26.9005 45.786 26.8802 45.6735 26.8825C42.9201 26.9417 40.1075 26.94 37.2797 26.9248C34.4484 26.9113 31.602 26.8825 28.7724 26.8825C28.548 26.8825 28.3328 26.9716 28.1741 27.1303C28.0154 27.289 27.9263 27.5042 27.9263 27.7286V49.7286C27.9263 49.9531 28.0154 50.1683 28.1741 50.327C28.3328 50.4857 28.548 50.5748 28.7724 50.5748L38.8958 60.6982Z" fill="#7743DC"/>
<path fill-rule="evenodd" clip-rule="evenodd" d="M28.7724 26.8825C28.548 26.8825 28.3328 26.9716 28.1741 27.1303C28.0154 27.289 27.9263 27.5042 27.9263 27.7286V49.7286C27.9263 49.9531 28.0154 50.1683 28.1741 50.327C28.3328 50.4857 28.548 50.5748 28.7724 50.5748H45.6955C45.9193 50.5739 46.1337 50.4844 46.2916 50.3258C46.4496 50.1672 46.5383 49.9525 46.5383 49.7286V42.1133H44.8493V48.8825H29.6186V28.5748C34.6955 28.5917 39.8367 28.6594 44.8493 28.5748V30.4093H46.545L46.5383 29.5631V27.7286C46.5383 27.6161 46.5159 27.5047 46.4723 27.4009C46.4287 27.2971 46.3649 27.2031 46.2845 27.1243C46.2041 27.0455 46.1088 26.9835 46.0042 26.942C45.8996 26.9005 45.7877 26.8802 45.6752 26.8825C40.1667 27.001 34.4349 26.8825 28.7724 26.8825ZM54.0893 28.5748C53.8983 28.5764 53.7134 28.6426 53.5647 28.7626L39.0684 40.0486L34.4992 34.728C34.4267 34.6435 34.3383 34.574 34.2391 34.5236C34.1398 34.4732 34.0315 34.4429 33.9205 34.4343C33.8095 34.4257 33.6978 34.4391 33.592 34.4737C33.4861 34.5083 33.3881 34.5634 33.3036 34.6358C33.1328 34.7821 33.0271 34.9903 33.0098 35.2145C32.9925 35.4387 33.065 35.6606 33.2113 35.8314L38.8298 42.3722L54.6021 30.0996C54.7444 29.9928 54.8495 29.844 54.9023 29.6741C54.9552 29.5043 54.9532 29.3221 54.8966 29.1535C54.84 28.9848 54.7317 28.8383 54.5871 28.7347C54.4425 28.6311 54.2689 28.5758 54.091 28.5765L54.0893 28.5748Z" fill="white"/>
</g>
<defs>
<filter id="filter0_d_255_630" x="0.236816" y="0.885254" width="75.6865" height="75.6865" filterUnits="userSpaceOnUse" color-interpolation-filters="sRGB">
<feFlood flood-opacity="0" result="BackgroundImageFix"/>
<feColorMatrix in="SourceAlpha" type="matrix" values="0 0 0 0 0 0 0 0 0 0 0 0 0 0 0 0 0 0 127 0" result="hardAlpha"/>
<feOffset/>
<feGaussianBlur stdDeviation="2"/>
<feComposite in2="hardAlpha" operator="out"/>
<feColorMatrix type="matrix" values="0 0 0 0 0 0 0 0 0 0 0 0 0 0 0 0 0 0 0.25 0"/>
<feBlend mode="normal" in2="BackgroundImageFix" result="effect1_dropShadow_255_630"/>
<feBlend mode="normal" in="SourceGraphic" in2="effect1_dropShadow_255_630" result="shape"/>
</filter>
<clipPath id="clip0_255_630">
<rect width="44" height="44" fill="white" transform="translate(16.0801 16.7285)"/>
</clipPath>
</defs>
</svg>
