<svg width="48" height="48" viewBox="0 0 48 48" fill="none" xmlns="http://www.w3.org/2000/svg">
<rect width="48" height="48" fill="white"/>
<path d="M34 26V36C34 37.6569 32.6569 39 31 39H16C14.3431 39 13 37.6569 13 36V12C13 10.3431 14.3431 9 16 9H31C32.6569 9 34 10.3431 34 12V15" stroke="#FD7350" stroke-width="2" stroke-linecap="round" stroke-linejoin="round"/>
<path d="M23.6 35.2C23.9314 35.2 24.2 34.9314 24.2 34.6C24.2 34.2686 23.9314 34 23.6 34C23.2686 34 23 34.2686 23 34.6C23 34.9314 23.2686 35.2 23.6 35.2Z" fill="#FD7350" stroke="#FD7350" stroke-linecap="round" stroke-linejoin="round"/>
<path d="M27 16H29L30.34 22.2485C30.3857 22.4634 30.511 22.6564 30.6938 22.7937C30.8766 22.9311 31.1053 23.004 31.34 22.9998H36.2C36.4347 23.004 36.6634 22.9311 36.8462 22.7937C37.029 22.6564 37.1543 22.4634 37.2 22.2485L38 18.3333H29.5" stroke="#FD7350" stroke-width="2" stroke-linecap="round" stroke-linejoin="round"/>
<path d="M30.9 26.8C31.3971 26.8 31.8 26.3971 31.8 25.9C31.8 25.4029 31.3971 25 30.9 25C30.4029 25 30 25.4029 30 25.9C30 26.3971 30.4029 26.8 30.9 26.8Z" fill="#FD7350" stroke="#FD7350" stroke-linecap="round" stroke-linejoin="round"/>
<path d="M36.9 26.8C37.3971 26.8 37.8 26.3971 37.8 25.9C37.8 25.4029 37.3971 25 36.9 25C36.4029 25 36 25.4029 36 25.9C36 26.3971 36.4029 26.8 36.9 26.8Z" fill="#FD7350" stroke="#FD7350" stroke-linecap="round" stroke-linejoin="round"/>
</svg>
