<svg width="16" height="16" viewBox="0 0 16 16" fill="none" xmlns="http://www.w3.org/2000/svg">
<g clip-path="url(#clip0_134_26)">
<path d="M15.4969 5.20625C15.5969 5.47813 15.5126 5.78125 15.2969 5.975L13.9438 7.20625C13.9782 7.46562 13.9969 7.73125 13.9969 8C13.9969 8.26875 13.9782 8.53437 13.9438 8.79375L15.2969 10.025C15.5126 10.2187 15.5969 10.5219 15.4969 10.7937C15.3594 11.1656 15.1938 11.5219 15.0032 11.8656L14.8563 12.1187C14.6501 12.4625 14.4188 12.7875 14.1657 13.0937C13.9813 13.3187 13.6751 13.3937 13.4001 13.3062L11.6594 12.7531C11.2407 13.075 10.7782 13.3437 10.2844 13.5469L9.89381 15.3312C9.83131 15.6156 9.61256 15.8406 9.32506 15.8875C8.89381 15.9594 8.45006 15.9969 7.99693 15.9969C7.54381 15.9969 7.10006 15.9594 6.66881 15.8875C6.38131 15.8406 6.16256 15.6156 6.10006 15.3312L5.70943 13.5469C5.21568 13.3437 4.75318 13.075 4.33443 12.7531L2.59693 13.3094C2.32193 13.3969 2.01568 13.3187 1.83131 13.0969C1.57818 12.7906 1.34693 12.4656 1.14068 12.1219L0.993807 11.8687C0.803182 11.525 0.637557 11.1687 0.500057 10.7969C0.400057 10.525 0.484432 10.2219 0.700057 10.0281L2.05318 8.79687C2.01881 8.53437 2.00006 8.26875 2.00006 8C2.00006 7.73125 2.01881 7.46562 2.05318 7.20625L0.700057 5.975C0.484432 5.78125 0.400057 5.47813 0.500057 5.20625C0.637557 4.83437 0.803182 4.47812 0.993807 4.13437L1.14068 3.88125C1.34693 3.5375 1.57818 3.2125 1.83131 2.90625C2.01568 2.68125 2.32193 2.60625 2.59693 2.69375L4.33756 3.24687C4.75631 2.925 5.21881 2.65625 5.71256 2.45312L6.10318 0.66875C6.16568 0.384375 6.38443 0.159375 6.67193 0.1125C7.10318 0.0375 7.54693 0 8.00006 0C8.45318 0 8.89693 0.0375 9.32818 0.109375C9.61568 0.15625 9.83443 0.38125 9.89693 0.665625L10.2876 2.45C10.7813 2.65312 11.2438 2.92188 11.6626 3.24375L13.4032 2.69062C13.6782 2.60312 13.9844 2.68125 14.1688 2.90312C14.4219 3.20937 14.6532 3.53437 14.8594 3.87812L15.0063 4.13125C15.1969 4.475 15.3626 4.83125 15.5001 5.20312L15.4969 5.20625ZM8.00006 10.5C9.38131 10.5 10.5001 9.38125 10.5001 8C10.5001 6.61875 9.38131 5.5 8.00006 5.5C6.61881 5.5 5.50006 6.61875 5.50006 8C5.50006 9.38125 6.61881 10.5 8.00006 10.5Z" fill="#7743DC"/>
</g>
<defs>
<clipPath id="clip0_134_26">
<rect width="16" height="16" fill="white"/>
</clipPath>
</defs>
</svg>
