<svg version="1.2" xmlns="http://www.w3.org/2000/svg" viewBox="0 0 24 24" width="24" height="24">
	<title>EditProfile</title>
	<defs>
		<clipPath clipPathUnits="userSpaceOnUse" id="cp1">
			<path d="m0 0h24v24h-24z"/>
		</clipPath>
	</defs>
	<style>
		.s0 { fill: #ffffff } 
	</style>
	<g id="Clip-Path" clip-path="url(#cp1)">
		<g id="Layer">
			<path id="Layer" fill-rule="evenodd" class="s0" d="m23 1.9c1 1 1 2.7 0 3.7l-1.4 1.4-4.6-4.6 1.4-1.4c1-1 2.7-1 3.7 0zm-14 1.1c0.9 0 1.5 0.7 1.5 1.5 0 0.9-0.6 1.5-1.5 1.5h-4.5c-0.8 0-1.5 0.7-1.5 1.5v12c0 0.9 0.7 1.5 1.5 1.5h12c0.9 0 1.5-0.6 1.5-1.5v-4.5c0-0.8 0.7-1.5 1.5-1.5 0.9 0 1.5 0.7 1.5 1.5v4.5c0 2.5-2 4.5-4.5 4.5h-12c-2.5 0-4.5-2-4.5-4.5v-12c0-2.5 2-4.5 4.5-4.5zm6.9 0.5l4.6 4.6-7.8 7.9q-0.4 0.4-1 0.6l-4.2 1.4c-0.4 0.1-0.8 0-1.1-0.3-0.3-0.3-0.5-0.8-0.3-1.2l1.4-4.1q0.2-0.6 0.6-1z"/>
		</g>
	</g>
</svg>