<svg width="16" height="13" viewBox="0 0 16 13" fill="none" xmlns="http://www.w3.org/2000/svg">
<g clip-path="url(#clip0_134_31)">
<path d="M5.6 6.5C7.3675 6.5 8.8 5.04512 8.8 3.25C8.8 1.45488 7.3675 0 5.6 0C3.8325 0 2.4 1.45488 2.4 3.25C2.4 5.04512 3.8325 6.5 5.6 6.5ZM4.4575 7.71875C1.995 7.71875 0 9.74492 0 12.2459C0 12.6623 0.3325 13 0.7425 13H8.07C7.9925 12.7766 7.9775 12.5328 8.035 12.2941L8.41 10.7682C8.48 10.4812 8.625 10.2223 8.83 10.0141L9.8375 8.99082C9.035 8.20371 7.945 7.71875 6.74 7.71875H4.4575ZM15.345 5.98457C14.955 5.58848 14.3225 5.58848 13.93 5.98457L13.195 6.73105L14.97 8.53379L15.705 7.7873C16.095 7.39121 16.095 6.74883 15.705 6.3502L15.345 5.98457ZM9.3975 10.5879C9.295 10.692 9.2225 10.8215 9.1875 10.9662L8.8125 12.4922C8.7775 12.6318 8.8175 12.7766 8.9175 12.8781C9.0175 12.9797 9.16 13.0203 9.2975 12.9848L10.8 12.6039C10.94 12.5684 11.07 12.4947 11.1725 12.3906L14.4025 9.10762L12.6275 7.30488L9.3975 10.5879Z" fill="#7743DC"/>
</g>
<defs>
<clipPath id="clip0_134_31">
<rect width="16" height="13" fill="white"/>
</clipPath>
</defs>
</svg>
