<svg width="97" height="97" viewBox="0 0 97 97" fill="none" xmlns="http://www.w3.org/2000/svg">
<mask id="mask0_63_48" style="mask-type:alpha" maskUnits="userSpaceOnUse" x="0" y="0" width="97" height="97">
<rect width="97" height="97" fill="#D9D9D9"/>
</mask>
<g mask="url(#mask0_63_48)">
<path d="M9.17132 78.6571C8.59606 78.6571 8.11544 78.4641 7.72946 78.078C7.34341 77.692 7.15039 77.2114 7.15039 76.6363C7.15039 76.0611 7.34338 75.5804 7.72936 75.1944C8.11547 74.8084 8.59609 74.6154 9.17122 74.6154H87.8283C88.4035 74.6154 88.884 74.8084 89.2701 75.1944C89.6561 75.5804 89.8492 76.0611 89.8492 76.6363C89.8492 77.2114 89.6561 77.692 89.2701 78.078C88.884 78.4641 88.4035 78.6571 87.8283 78.6571H9.17132ZM18.6536 70.5738C16.7934 70.5738 15.2402 69.9507 13.994 68.7045C12.7479 67.4583 12.1248 65.9051 12.1248 64.0449V24.5609C12.1248 22.7007 12.7479 21.1474 13.994 19.9013C15.2402 18.6551 16.7934 18.032 18.6536 18.032H78.346C80.2061 18.032 81.7593 18.6551 83.0055 19.9013C84.2517 21.1474 84.8748 22.7007 84.8748 24.5609V64.0449C84.8748 65.9051 84.2517 67.4583 83.0055 68.7045C81.7593 69.9507 80.2061 70.5738 78.346 70.5738H18.6536ZM18.6536 66.532H78.346C78.9677 66.532 79.5377 66.2729 80.0559 65.7548C80.574 65.2366 80.8331 64.6667 80.8331 64.0449V24.5609C80.8331 23.9391 80.574 23.3691 80.0559 22.851C79.5377 22.3328 78.9677 22.0737 78.346 22.0737H18.6536C18.0318 22.0737 17.4619 22.3328 16.9437 22.851C16.4255 23.3691 16.1664 23.9391 16.1664 24.5609V64.0449C16.1664 64.6667 16.4255 65.2366 16.9437 65.7548C17.4619 66.2729 18.0318 66.532 18.6536 66.532Z" fill="#FD7350"/>
</g>
<mask id="mask1_63_48" style="mask-type:alpha" maskUnits="userSpaceOnUse" x="29" y="24" width="38" height="38">
<rect x="29" y="24" width="38" height="38" fill="#D9D9D9"/>
</mask>
<g mask="url(#mask1_63_48)">
<path d="M48.5938 56.0625L37.8141 50.2016V41.4933L32.5625 38.6458L48.5938 29.9375L64.625 38.6458V50.1187H62.8284V39.6549L59.3734 41.4933V50.2016L48.5938 56.0625ZM48.5938 45.2946L60.8659 38.6458L48.5938 31.9971L36.3216 38.6458L48.5938 45.2946ZM48.5938 54.0133L57.5768 49.1615V42.4816L48.5938 47.3478L39.6107 42.4816V49.1615L48.5938 54.0133Z" fill="#FD7350"/>
</g>
</svg>
