<svg width="56" height="56" viewBox="0 0 56 56" fill="none" xmlns="http://www.w3.org/2000/svg">
<mask id="mask0_563_26530" style="mask-type:alpha" maskUnits="userSpaceOnUse" x="0" y="0" width="56" height="56">
<rect width="56" height="56" fill="#7743DC"/>
</mask>
<g mask="url(#mask0_563_26530)">
<path d="M34.3271 27.085L42.5835 22.3465L34.3271 17.608L26.0707 22.3465L34.3271 27.085ZM34.3271 33.7529L40.3848 30.2888V26.1965L34.3271 29.7503L28.2694 26.1965V30.2888L34.3271 33.7529ZM45.7829 44.3337H33.7572C33.7572 44.0495 33.749 43.7504 33.7326 43.4363C33.7161 43.1222 33.7064 42.823 33.7034 42.5388H45.7829C46.2017 42.5388 46.5457 42.4042 46.815 42.135C47.0842 41.8657 47.2188 41.5217 47.2188 41.1029V14.8977C47.2188 14.4789 47.0842 14.1349 46.815 13.8657C46.5457 13.5965 46.2017 13.4618 45.7829 13.4618H10.2444C9.85552 13.4618 9.51899 13.5965 9.23483 13.8657C8.95063 14.1349 8.80853 14.4789 8.80853 14.8977V17.5452C8.52433 17.5422 8.23017 17.5325 7.92606 17.516C7.62191 17.4996 7.31778 17.4913 7.01367 17.4913V14.8977C7.01367 14.0324 7.33581 13.2777 7.98008 12.6334C8.62435 11.9891 9.37913 11.667 10.2444 11.667H45.7829C46.6714 11.667 47.432 11.9891 48.0646 12.6334C48.6973 13.2777 49.0137 14.0324 49.0137 14.8977V41.1029C49.0137 41.9682 48.6973 42.723 48.0646 43.3673C47.432 44.0115 46.6714 44.3337 45.7829 44.3337ZM7.01367 44.3337V40.2862C8.09058 40.2862 9.01793 40.6847 9.79571 41.4817C10.5735 42.2787 10.9624 43.2293 10.9624 44.3337H7.01367ZM17.0649 44.3337C17.0649 41.5499 16.0867 39.1697 14.1303 37.1933C12.1739 35.2168 9.80169 34.2136 7.01367 34.1837V32.3888C10.3113 32.3888 13.1101 33.55 15.41 35.8725C17.7099 38.1949 18.8598 41.0153 18.8598 44.3337H17.0649ZM25.8598 44.3337C25.8598 41.722 25.3677 39.2637 24.3835 36.9589C23.3993 34.654 22.0592 32.6438 20.363 30.9282C18.6668 29.2126 16.6736 27.8605 14.3832 26.8718C12.0928 25.8831 9.63626 25.3888 7.01367 25.3888V23.5939C9.88846 23.5939 12.5768 24.1399 15.0786 25.2319C17.5805 26.3239 19.7623 27.8047 21.6241 29.6743C23.4859 31.5438 24.9565 33.7411 26.0358 36.2663C27.115 38.7915 27.6547 41.4806 27.6547 44.3337H25.8598Z" fill="#7743DC"/>
</g>
</svg>
