<svg width="20" height="20" viewBox="0 0 20 20" fill="none" xmlns="http://www.w3.org/2000/svg">
<path d="M18.3927 5.28031L17.714 4.60156L11.4266 10.8889C10.6407 11.6748 9.31892 11.6748 8.533 10.8889L2.24564 4.63729L1.56689 5.31603L6.24669 9.99583L1.56689 14.6756L2.24564 15.3544L6.92544 10.6746L7.85425 11.6034C8.42583 12.175 9.17602 12.4965 9.96194 12.4965C10.7479 12.4965 11.4981 12.175 12.0696 11.6034L12.9984 10.6746L17.6782 15.3544L18.357 14.6756L13.6772 9.99583L18.3927 5.28031Z" fill="white"/>
<path d="M17.0712 16.569H2.96035C2.13871 16.569 1.45996 15.8902 1.45996 15.0686V4.99453C1.45996 4.17289 2.13871 3.49414 2.96035 3.49414H17.0712C17.8928 3.49414 18.5716 4.17289 18.5716 4.99453V15.0686C18.5716 15.8902 17.8928 16.569 17.0712 16.569V16.569ZM2.92463 4.45868C2.63884 4.45868 2.4245 4.67302 2.4245 4.95881V15.0329C2.4245 15.3187 2.63884 15.533 2.92463 15.533H17.0355C17.3212 15.533 17.5356 15.3187 17.5356 15.0329V4.95881C17.5356 4.67302 17.3212 4.45868 17.0355 4.45868H2.92463Z" fill="white"/>
</svg>
