<svg width="48" height="48" viewBox="0 0 48 48" fill="none" xmlns="http://www.w3.org/2000/svg">
<rect width="48" height="48" fill="white"/>
<path fill-rule="evenodd" clip-rule="evenodd" d="M12.0798 17.5385H14.3931C14.4142 17.5389 14.4342 17.5478 14.4491 17.5633C14.464 17.5788 14.4725 17.5998 14.4729 17.6217V31.4226L17.6095 31.1928H17.6446H17.6829C18.0132 31.1695 18.2653 31.1495 18.4376 30.988L18.7343 30.6266C18.7634 30.5918 18.8037 30.5695 18.8477 30.5639C18.8916 30.5584 18.9359 30.5701 18.972 30.5967L20.4638 31.6424C20.4892 31.661 20.5098 31.686 20.5235 31.7151C20.5371 31.7442 20.5435 31.7765 20.5419 31.8089C20.5419 31.9005 20.5116 31.9255 20.4446 31.9887C20.3787 32.0516 20.3174 32.1195 20.2611 32.1919C20.1149 32.3769 19.9549 32.5495 19.7825 32.7081C19.606 32.872 19.4084 33.0094 19.1954 33.116C18.7487 33.3425 18.3259 33.3725 17.8249 33.4091H17.7866H17.7531L14.4729 33.6522V37.9167C14.4721 37.9385 14.4635 37.9592 14.4487 37.9747C14.4339 37.9901 14.4141 37.9991 14.3931 38H12.0798C12.0587 37.9995 12.0387 37.9906 12.0238 37.9751C12.0089 37.9596 12.0004 37.9387 12 37.9167V17.6217C12 17.5996 12.0084 17.5785 12.0234 17.5628C12.0383 17.5472 12.0586 17.5385 12.0798 17.5385ZM19.339 27.5144L20.7749 24.3307L20.6329 24.289C20.3902 24.1919 20.1317 24.1455 19.8719 24.1525C19.5687 24.1991 19.2847 24.3889 18.9673 24.6021C18.8348 24.6903 18.6976 24.7836 18.5492 24.8735C18.4376 24.9284 18.3083 25.0167 18.1998 25.0816L16.8118 25.9142C16.771 25.9382 16.7227 25.9443 16.6775 25.9312C16.6324 25.9181 16.594 25.8868 16.5709 25.8443L15.6966 24.2391C15.685 24.218 15.6776 24.1948 15.6746 24.1707C15.6717 24.1466 15.6735 24.1221 15.6797 24.0987C15.6859 24.0753 15.6966 24.0534 15.711 24.0344C15.7254 24.0153 15.7433 23.9994 15.7636 23.9876C16.3109 23.6546 16.9474 23.3216 17.4787 22.9652C18.1169 22.5506 18.6386 22.2192 19.2433 22.0627C19.8479 21.9062 20.5196 21.9295 21.4593 22.2292C21.7975 22.3275 22.1852 22.4757 22.5043 22.5956C22.6639 22.6538 22.7915 22.7055 22.8936 22.7404C24.4667 23.2883 24.998 24.349 25.4112 25.1716C25.5899 25.5262 25.7446 25.8376 25.9441 26.0041C26.0254 26.0741 26.2105 26.0491 26.4227 26.0191C26.5622 25.9974 26.7029 25.9846 26.8439 25.9808C27.5331 25.9126 28.2255 25.8709 28.918 25.8143C28.964 25.8106 29.0096 25.826 29.0449 25.8572C29.0801 25.8884 29.1022 25.9328 29.1062 25.9808L29.2307 27.8391C29.2321 27.886 29.2164 27.9317 29.1868 27.9669C29.1572 28.0022 29.1158 28.0244 29.0711 28.029L27.1566 28.1788C26.3062 28.2421 25.6904 28.2887 24.7635 27.7675L24.7443 27.7559C24.2565 27.3885 23.8617 26.9027 23.594 26.3405L22.4868 28.9282C22.7801 29.2433 23.0918 29.5391 23.4201 29.814C24.3774 30.6466 25.1751 31.3476 24.9166 33.216C24.8919 33.3807 24.8572 33.5436 24.8129 33.7039C24.7698 33.8704 24.7236 34.0202 24.6741 34.1768C24.3088 35.2658 24.0008 36.4247 23.6706 37.5287C23.6609 37.5658 23.6403 37.5989 23.6117 37.6231C23.583 37.6473 23.5478 37.6615 23.511 37.6636L21.6508 37.7935C21.6302 37.7978 21.6091 37.7978 21.5885 37.7935C21.5437 37.7792 21.506 37.7471 21.4837 37.7042C21.4613 37.6612 21.456 37.6107 21.4689 37.5637C21.8598 36.2116 22.2666 34.8578 22.6479 33.504C22.7027 33.3402 22.7491 33.1735 22.7867 33.0045C22.8179 32.8596 22.8222 32.7098 22.7995 32.5632V32.5232C22.7953 32.3909 22.7549 32.2627 22.683 32.1536C22.2472 31.7976 21.7791 31.487 21.2854 31.2261C20.6871 30.8814 20.1032 30.5467 19.6501 30.0605C19.3291 29.7334 19.1266 29.3003 19.0773 28.8349C19.0449 28.3779 19.1355 27.9205 19.339 27.5144ZM24.7746 18.5592C25.2926 18.5221 25.8035 18.701 26.1953 19.0565C26.5871 19.4121 26.8278 19.9153 26.8646 20.4558C26.8827 20.7239 26.8499 20.9931 26.7683 21.248C26.6866 21.5028 26.5577 21.7384 26.3888 21.9413C26.0477 22.351 25.5646 22.6025 25.0458 22.6405C24.5271 22.6785 24.0151 22.4998 23.6226 22.1438C23.23 21.7878 22.989 21.2837 22.9526 20.7422C22.9171 20.2025 23.0875 19.67 23.4268 19.261C23.766 18.852 24.2466 18.5997 24.7635 18.5592H24.7746ZM12.5329 23.3665H13.0673V26.0458H12.5329V23.3665Z" fill="#FD7350"/>
<path d="M26.6526 32.6153C26.4667 32.6153 26.3115 32.5531 26.187 32.4286C26.0625 32.304 26.0002 32.1488 26.0002 31.963V30.3942H28.8272V31H30.4425V30.3942H33.2695V31.963C33.2695 32.1488 33.2072 32.304 33.0827 32.4286C32.9582 32.5531 32.803 32.6153 32.6171 32.6153H26.6526ZM29.231 30.5961V29.7884H30.0387V30.5961H29.231ZM26.0002 29.9903V28.0177C26.0002 27.8318 26.0625 27.6766 26.187 27.5521C26.3115 27.4276 26.4667 27.3653 26.6526 27.3653H28.4233V26.8062C28.4233 26.6203 28.4856 26.4651 28.6101 26.3406C28.7346 26.2161 28.8898 26.1538 29.0757 26.1538H30.194C30.3799 26.1538 30.5351 26.2161 30.6596 26.3406C30.7841 26.4651 30.8464 26.6203 30.8464 26.8062V27.3653H32.6171C32.803 27.3653 32.9582 27.4276 33.0827 27.5521C33.2072 27.6766 33.2695 27.8318 33.2695 28.0177V29.9903H30.4425V29.3846H28.8272V29.9903H26.0002ZM28.8272 27.3653H30.4425V26.8062C30.4425 26.744 30.4167 26.6871 30.3649 26.6353C30.3131 26.5835 30.2562 26.5577 30.194 26.5577H29.0757C29.0136 26.5577 28.9566 26.5835 28.9048 26.6353C28.8531 26.6871 28.8272 26.744 28.8272 26.8062V27.3653Z" fill="#FD7350"/>
<mask id="mask0_300_23" style="mask-type:alpha" maskUnits="userSpaceOnUse" x="26" y="10" width="11" height="11">
<rect x="26.0002" y="10" width="10.7692" height="10.7692" fill="#D9D9D9"/>
</mask>
<g mask="url(#mask0_300_23)">
<path d="M28.5543 18.5257V18.077H29.2118L30.0549 15.2302C30.0974 15.0703 30.1833 14.9439 30.3125 14.851C30.4416 14.7581 30.5861 14.7116 30.7461 14.7116H32.0232C32.1831 14.7116 32.3277 14.7581 32.4568 14.851C32.586 14.9439 32.6718 15.0703 32.7144 15.2302L33.5575 18.077H34.215V18.5257H28.5543ZM31.1603 13.538V11.7432H31.609V13.538H31.1603ZM33.6058 14.5537L33.2856 14.2336L34.5593 12.9711L34.8682 13.28L33.6058 14.5537ZM34.3013 16.6791V16.2303H36.0962V16.6791H34.3013ZM29.1635 14.5537L27.901 13.28L28.21 12.9711L29.4836 14.2336L29.1635 14.5537ZM26.6731 16.6791V16.2303H28.468V16.6791H26.6731Z" fill="#FD7350"/>
</g>
</svg>
