<svg xmlns="http://www.w3.org/2000/svg" width="163" height="163" viewBox="0 0 163 163" fill="none">
  <g clip-path="url(#clip0_417_307)">
    <mask id="mask0_417_307" style="mask-type:luminance" maskUnits="userSpaceOnUse" x="0" y="0" width="163" height="163">
      <path d="M163 0H0V163H163V0Z" fill="white"/>
    </mask>
    <g mask="url(#mask0_417_307)">
      <path d="M163 0H0V163H163V0Z" fill="#F4F2FB"/>
      <mask id="mask1_417_307" style="mask-type:alpha" maskUnits="userSpaceOnUse" x="0" y="0" width="163" height="163">
        <path d="M163 0H0V163H163V0Z" fill="#D9D9D9"/>
      </mask>
      <g mask="url(#mask1_417_307)">
        <path d="M122.231 138.21C123.175 138.21 123.972 137.914 124.621 137.322C125.269 136.73 125.594 135.955 125.594 134.998C125.594 134.04 125.263 133.243 124.604 132.607C123.944 131.972 123.181 131.654 122.316 131.654C121.314 131.654 120.495 131.972 119.86 132.607C119.224 133.243 118.906 134.04 118.906 134.998C118.906 135.955 119.224 136.73 119.86 137.322C120.495 137.914 121.286 138.21 122.231 138.21ZM119.847 125.346H124.614V106.29H119.847V125.346ZM25.5993 126.43V130.609V52.7658V126.43ZM29.7787 135.833C27.1688 135.833 24.949 134.919 23.1193 133.089C21.2898 131.259 20.375 129.04 20.375 126.43V56.9454C20.375 54.3354 21.2898 52.1159 23.1193 50.2862C24.949 48.4565 27.1688 47.5417 29.7787 47.5417H61.125V36.5704C61.125 33.9668 62.0398 31.7488 63.8695 29.916C65.6992 28.0831 67.9187 27.1667 70.5287 27.1667H92.4713C95.0813 27.1667 97.3008 28.0831 99.1305 29.916C100.96 31.7488 101.875 33.9668 101.875 36.5704V47.5417H133.221C135.831 47.5417 138.051 48.4565 139.88 50.2862C141.71 52.1159 142.625 54.3354 142.625 56.9454V89.6633C141.824 89.1145 140.995 88.5922 140.137 88.0957C139.279 87.5993 138.367 87.116 137.401 86.6461V56.9454C137.401 55.7263 137.009 54.7252 136.225 53.9415C135.441 53.1577 134.44 52.7658 133.221 52.7658H29.7787C28.5597 52.7658 27.5584 53.1577 26.7748 53.9415C25.9911 54.7252 25.5993 55.7263 25.5993 56.9454V126.43C25.5993 127.649 25.9911 128.65 26.7748 129.434C27.5584 130.217 28.5597 130.609 29.7787 130.609H84.3994C84.6782 131.55 84.961 132.455 85.2483 133.326C85.5356 134.197 85.8711 135.032 86.2542 135.833H29.7787ZM66.3495 47.5417H96.6508V36.5704C96.6508 35.3513 96.259 34.3502 95.4752 33.5665C94.6915 32.7828 93.6904 32.391 92.4713 32.391H70.5287C69.3096 32.391 68.3085 32.7828 67.5248 33.5665C66.741 34.3502 66.3495 35.3513 66.3495 36.5704V47.5417ZM122.25 148.881C114.875 148.881 108.593 146.286 103.403 141.097C98.2136 135.907 95.6189 129.625 95.6189 122.25C95.6189 114.875 98.2136 108.593 103.403 103.403C108.593 98.2136 114.875 95.6189 122.25 95.6189C129.625 95.6189 135.907 98.2136 141.097 103.403C146.286 108.593 148.881 114.875 148.881 122.25C148.881 129.625 146.286 135.907 141.097 141.097C135.907 146.286 129.625 148.881 122.25 148.881Z" fill="#7743DC"/>
        <path d="M77.0005 95.8369L90.2283 82.6584L88.3246 80.7618L77.0005 92.0438L71.2948 86.3595L69.3911 88.2561L77.0005 95.8369ZM79.8021 112.063C74.4418 110.478 69.9888 107.243 66.4432 102.357C62.8976 97.472 61.125 91.9691 61.125 85.8481V71.4732L79.8021 64.5209L98.4792 71.4732V85.8481C98.4792 91.9691 96.7065 97.472 93.161 102.357C89.6154 107.243 85.1624 110.478 79.8021 112.063ZM79.8021 109.241C84.4269 107.779 88.2513 104.855 91.2752 100.468C94.2989 96.0824 95.8111 91.2091 95.8111 85.8481V73.2879L79.8021 67.3581L63.7931 73.2879V85.8481C63.7931 91.2091 65.3053 96.0824 68.3289 100.468C71.3529 104.855 75.1773 107.779 79.8021 109.241Z" fill="#7743DC"/>
      </g>
    </g>
  </g>
  <defs>
    <clipPath id="clip0_417_307">
      <rect width="163" height="163" fill="white"/>
    </clipPath>
  </defs>
</svg>