<svg width="58" height="56" viewBox="0 0 58 56" fill="none" xmlns="http://www.w3.org/2000/svg">
<path d="M10.5 40H4.33333M44.4167 46H13.5833C12.7656 46 11.9813 45.6839 11.4031 45.1213C10.8249 44.5587 10.5 43.7956 10.5 43V13C10.5 12.2044 10.8249 11.4413 11.4031 10.8787C11.9813 10.3161 12.7656 10 13.5833 10H44.4167C45.2344 10 46.0187 10.3161 46.5969 10.8787C47.1752 11.4413 47.5 12.2044 47.5 13V43C47.5 43.7956 47.1752 44.5587 46.5969 45.1213C46.0187 45.6839 45.2344 46 44.4167 46ZM29 10V1V10ZM41.3333 10V4V10ZM16.6667 10V4V10ZM47.5 28H56.75H47.5ZM47.5 40H53.6667H47.5ZM47.5 16H53.6667H47.5ZM29 46V55V46ZM16.6667 46V52V46ZM41.3333 46V52V46ZM10.5 28H1.25H10.5ZM10.5 16H4.33333H10.5Z" stroke="#7743DC" stroke-width="2" stroke-linecap="round" stroke-linejoin="round"/>
<path d="M30.3688 38L23.0833 30.2222V28H26.875C27.8319 28 28.658 27.6806 29.3531 27.0417C30.0483 26.4028 30.4681 25.6111 30.6125 24.6667H22V22.4444H30.2875C29.9806 21.7963 29.5247 21.2639 28.9198 20.8472C28.3149 20.4306 27.6333 20.2222 26.875 20.2222H22V18H35V20.2222H31.4792C31.7319 20.537 31.9576 20.8796 32.1562 21.25C32.3549 21.6204 32.5083 22.0185 32.6167 22.4444H35V24.6667H32.8063C32.6618 26.2407 32.0299 27.5602 30.9104 28.625C29.791 29.6898 28.4458 30.2222 26.875 30.2222H26.0896L33.375 38H30.3688Z" fill="#7743DC"/>
</svg>
