<svg width="58" height="56" viewBox="0 0 58 56" fill="none" xmlns="http://www.w3.org/2000/svg">
<path d="M10.25 40H4.08333M44.1667 46H13.3333C12.5156 46 11.7313 45.6839 11.1531 45.1213C10.5749 44.5587 10.25 43.7956 10.25 43V13C10.25 12.2044 10.5749 11.4413 11.1531 10.8787C11.7313 10.3161 12.5156 10 13.3333 10H44.1667C44.9844 10 45.7687 10.3161 46.3469 10.8787C46.9252 11.4413 47.25 12.2044 47.25 13V43C47.25 43.7956 46.9252 44.5587 46.3469 45.1213C45.7687 45.6839 44.9844 46 44.1667 46ZM28.75 10V1V10ZM41.0833 10V4V10ZM16.4167 10V4V10ZM47.25 28H56.5H47.25ZM47.25 40H53.4167H47.25ZM47.25 16H53.4167H47.25ZM28.75 46V55V46ZM16.4167 46V52V46ZM41.0833 46V52V46ZM10.25 28H1H10.25ZM10.25 16H4.08333H10.25Z" stroke="#FD7350" stroke-width="2" stroke-linecap="round" stroke-linejoin="round"/>
<path d="M30.3688 38L23.0833 30.2222V28H26.875C27.8319 28 28.658 27.6806 29.3531 27.0417C30.0483 26.4028 30.4681 25.6111 30.6125 24.6667H22V22.4444H30.2875C29.9806 21.7963 29.5247 21.2639 28.9198 20.8472C28.3149 20.4306 27.6333 20.2222 26.875 20.2222H22V18H35V20.2222H31.4792C31.7319 20.537 31.9576 20.8796 32.1562 21.25C32.3549 21.6204 32.5083 22.0185 32.6167 22.4444H35V24.6667H32.8063C32.6618 26.2407 32.0299 27.5602 30.9104 28.625C29.791 29.6898 28.4458 30.2222 26.875 30.2222H26.0896L33.375 38H30.3688Z" fill="#FD7350"/>
</svg>
