<svg width="46" height="52" viewBox="0 0 46 52" fill="none" xmlns="http://www.w3.org/2000/svg">
<path d="M9.23213 51.7907C7.78013 51.7907 6.32966 51.5099 4.97743 50.9481C4.53539 50.7639 4.08566 50.6472 3.62366 50.5951L1.8079 50.3863C0.843989 50.2758 0.116455 49.4593 0.116455 48.4877V46.6565C0.116455 43.1294 2.98669 40.2592 6.51385 40.2592H11.9903C15.5175 40.2592 18.3877 43.1294 18.3877 46.6565V48.4892C18.3877 49.4592 17.6602 50.2758 16.6963 50.3879L14.7792 50.6089C14.3418 50.6595 13.9135 50.7716 13.5068 50.9419C12.1499 51.5068 10.6903 51.7907 9.23213 51.7907ZM6.51385 42.0995C4.00124 42.0995 1.95832 44.1439 1.95832 46.655V48.4861C1.95832 48.5214 1.98441 48.5506 2.01971 48.5552L3.83701 48.7639C4.46785 48.8361 5.08641 48.9973 5.67273 49.2413C7.94743 50.1868 10.5399 50.1837 12.7977 49.2398C13.364 49.0034 13.9596 48.8468 14.5689 48.7762L16.486 48.5552C16.5213 48.5506 16.5474 48.5214 16.5474 48.4861V46.6535C16.5474 44.1409 14.5029 42.0979 11.9919 42.0979H6.51385V42.0995Z" fill="white"/>
<path d="M9.25207 39.0328C6.62282 39.0328 4.4924 36.9745 4.4003 34.3468L4.27291 30.6661C4.22686 29.3385 4.71035 28.0814 5.63282 27.1252C6.55528 26.1689 7.79547 25.6425 9.12468 25.6425H9.381C10.7102 25.6425 11.9504 26.1689 12.8729 27.1252C13.7953 28.0814 14.2788 29.3385 14.2328 30.6661L14.1054 34.3468C14.0117 36.9745 11.8813 39.0328 9.25207 39.0328ZM9.12468 27.4859C8.30044 27.4859 7.53147 27.8128 6.95742 28.4052C6.38491 28.9977 6.08561 29.779 6.11323 30.6032L6.24063 34.2839C6.29742 35.9139 7.62049 37.1925 9.25054 37.1925C10.8821 37.1925 12.2052 35.9154 12.262 34.2854L12.3894 30.6047C12.4185 29.7805 12.1177 29.0008 11.5452 28.4068C10.9727 27.8143 10.2022 27.4874 9.37793 27.4874H9.12468V27.4859Z" fill="white"/>
<path d="M17.1199 26.6662C16.882 26.6662 16.6441 26.5741 16.4645 26.3914L11.4868 21.3478H5.01577C3.64205 21.3478 2.52466 20.2304 2.52466 18.8567V7.79476C2.52466 6.42257 3.64205 5.30518 5.01577 5.30518H14.9219C15.43 5.30518 15.8428 5.71806 15.8428 6.22611C15.8428 6.73415 15.43 7.14704 14.9219 7.14704H5.01577C4.65815 7.14704 4.36652 7.43713 4.36652 7.79476V18.8567C4.36652 19.2143 4.65815 19.5059 5.01577 19.5059H11.8721C12.1192 19.5059 12.3541 19.6042 12.5275 19.7807L17.1291 24.4436L21.8642 19.7715C22.0361 19.6011 22.2694 19.5059 22.5104 19.5059H29.4542C29.7182 19.5059 29.9607 19.3402 30.0574 19.0946C30.2447 18.6218 30.7803 18.3901 31.2531 18.5773C31.7258 18.7646 31.9576 19.3002 31.7703 19.773C31.3912 20.7292 30.4826 21.3478 29.4542 21.3478H22.888L17.7661 26.4006C17.5865 26.5787 17.3532 26.6662 17.1199 26.6662Z" fill="white"/>
<path d="M36.728 51.2673C35.2775 51.2673 33.8255 50.9864 32.4733 50.4247C32.4717 50.4247 32.4579 50.4185 32.4564 50.4185C32.0312 50.242 31.58 50.1253 31.1195 50.0716L29.3037 49.8629C28.3398 49.7524 27.6123 48.9358 27.6123 47.9642V46.1331C27.6123 42.606 30.4825 39.7357 34.0097 39.7357H39.4862C43.0133 39.7357 45.8836 42.606 45.8836 46.1331V47.9658C45.8836 48.9358 45.156 49.7524 44.1921 49.8644L42.275 50.0854C41.8376 50.1361 41.4094 50.2481 41.0026 50.4185C39.6458 50.9833 38.1861 51.2673 36.728 51.2673ZM34.0097 41.5745C31.4971 41.5745 29.4542 43.619 29.4542 46.13V47.9612C29.4542 47.9965 29.4803 48.0256 29.5156 48.0302L31.3313 48.239C31.9637 48.3127 32.5807 48.4723 33.167 48.7163C33.1686 48.7163 33.1824 48.7225 33.1839 48.724C35.4417 49.6618 38.0342 49.6603 40.2935 48.7148C40.8599 48.4784 41.4554 48.3219 42.0648 48.2513L43.9818 48.0302C44.0171 48.0256 44.0432 47.9965 44.0432 47.9612V46.1285C44.0432 43.6159 41.9988 41.573 39.4877 41.573H34.0097V41.5745Z" fill="white"/>
<path d="M36.7479 38.5093C34.1187 38.5093 31.9883 36.4511 31.8962 33.8233L31.7688 30.1427C31.7227 28.815 32.2047 27.5579 33.1287 26.6017C34.0527 25.6455 35.2913 25.119 36.6205 25.119H36.8769C38.2061 25.119 39.4463 25.6455 40.3687 26.6017C41.2912 27.5579 41.7747 28.815 41.7286 30.1427L41.6012 33.8233C41.5076 36.4511 39.3772 38.5093 36.7479 38.5093ZM36.619 26.9609C35.7948 26.9609 35.0243 27.2878 34.4517 27.8803C33.8792 28.4727 33.5799 29.254 33.6076 30.0782L33.735 33.7589C33.7917 35.3889 35.1148 36.6659 36.7464 36.6659C38.378 36.6659 39.701 35.3889 39.7563 33.7589L39.8837 30.0782C39.9129 29.254 39.612 28.4743 39.0395 27.8803C38.467 27.2878 37.6965 26.9609 36.8723 26.9609H36.619Z" fill="white"/>
<path d="M34.6989 22.238C34.5593 22.238 34.418 22.2058 34.2891 22.1413L23.4237 16.7355H16.5474C15.1445 16.7355 14.0026 15.5935 14.0026 14.1906V2.74808C14.0026 1.3452 15.1445 0.203247 16.5474 0.203247H41.8285C43.2314 0.203247 44.3733 1.3452 44.3733 2.74808V14.1922C44.3733 15.5951 43.2314 16.737 41.8285 16.737H35.5754L35.6199 21.3094C35.6229 21.6302 35.4587 21.9295 35.187 22.0984C35.0381 22.192 34.8693 22.238 34.6989 22.238ZM16.5459 2.04511C16.1575 2.04511 15.8429 2.36129 15.8429 2.74808V14.1922C15.8429 14.5805 16.1591 14.8952 16.5459 14.8952H23.6386C23.7813 14.8952 23.921 14.9274 24.0484 14.9919L33.7627 19.8237L33.7227 15.8253C33.7197 15.5797 33.8164 15.3433 33.9898 15.1684C34.1633 14.9934 34.3981 14.8952 34.6437 14.8952H41.8269C42.2153 14.8952 42.5299 14.579 42.5299 14.1922V2.74808C42.5299 2.35976 42.2137 2.04511 41.8269 2.04511H16.5459Z" fill="white"/>
</svg>
