<svg width="55" height="64" viewBox="0 0 55 64" fill="none" xmlns="http://www.w3.org/2000/svg">
<mask id="mask0_6_309" style="mask-type:alpha" maskUnits="userSpaceOnUse" x="0" y="9" width="59" height="59">
<rect y="9" width="59" height="59" fill="#D9D9D9"/>
</mask>
<g mask="url(#mask0_6_309)">
<path d="M13.6627 63.5088L11.7149 62.0244L19.5721 51.9689L18.5321 41.3366C18.28 39.5306 18.3217 37.4891 18.6574 35.212C18.993 32.9349 19.5501 30.8036 20.3286 28.818L13.8518 32.7513V40.9583H11.3934V31.3424L22.0683 24.9649C22.6797 24.571 23.2408 24.3015 23.7514 24.1565C24.2619 24.0115 24.7851 23.9391 25.3209 23.9391C26.0521 23.9391 26.6934 24.114 27.245 24.4638C27.7965 24.8137 28.2929 25.3715 28.7342 26.1374L30.7339 29.6405C31.9001 31.6639 33.4176 33.2209 35.2866 34.3113C37.1555 35.4018 39.2136 35.947 41.4608 35.947V38.4054H39.2057L50.8213 62.7335L49.1431 63.5844L36.7994 37.7294C35.0029 37.1337 33.3837 36.2158 31.9418 34.9756C30.4999 33.7354 29.1187 32.0358 27.7981 29.8769C26.9472 32.0421 26.3381 34.1294 25.9709 36.1386C25.6038 38.1477 25.5084 39.8709 25.6849 41.3081L30.5874 49.8461V63.556H28.129V51.4062L22.3 43.2465L22.0778 52.8245L13.6627 63.5088ZM28.2236 20.5352C27.0921 20.5352 26.1159 20.1247 25.2949 19.3037C24.4738 18.4827 24.0633 17.5064 24.0633 16.375C24.0633 15.2435 24.4738 14.2673 25.2949 13.4462C26.1159 12.6252 27.0921 12.2147 28.2236 12.2147C29.3551 12.2147 30.3313 12.6252 31.1523 13.4462C31.9733 14.2673 32.3838 15.2435 32.3838 16.375C32.3838 17.5064 31.9733 18.4827 31.1523 19.3037C30.3313 20.1247 29.3551 20.5352 28.2236 20.5352Z" fill="#7743DC"/>
</g>
<mask id="mask1_6_309" style="mask-type:alpha" maskUnits="userSpaceOnUse" x="35" y="-3" width="24" height="24">
<rect x="35" y="-3" width="24" height="24" fill="#D9D9D9"/>
</mask>
<g mask="url(#mask1_6_309)">
<path d="M46.15 11.85H47.85V9.35002H50.35V7.65002H47.85V5.15002H46.15V7.65002H43.65V9.35002H46.15V11.85ZM47 17.65C45.0834 17.05 43.4875 15.8667 42.2125 14.1C40.9375 12.3334 40.3 10.3334 40.3 8.10002V2.90002L47 0.400024L53.7 2.90002V8.10002C53.7 10.3334 53.0625 12.3334 51.7875 14.1C50.5125 15.8667 48.9167 17.05 47 17.65ZM47 16.9C48.7334 16.35 50.1667 15.25 51.3 13.6C52.4334 11.95 53 10.1167 53 8.10002V3.37502L47 1.15002L41 3.37502V8.10002C41 10.1167 41.5667 11.95 42.7 13.6C43.8334 15.25 45.2667 16.35 47 16.9Z" fill="#7743DC"/>
</g>
</svg>
