<svg width="22" height="19" viewBox="0 0 22 19" fill="none" xmlns="http://www.w3.org/2000/svg">
<g clip-path="url(#clip0_221_754)">
<path d="M21.9924 9.48145C21.9924 10.1494 21.4194 10.6727 20.7701 10.6727H19.5479L19.5747 16.6176C19.5747 16.7178 19.567 16.818 19.5556 16.9182V17.5156C19.5556 18.3357 18.8719 19 18.0278 19H17.4167C17.3747 19 17.3326 19 17.2906 18.9963C17.2372 19 17.1837 19 17.1302 19H15.8889H14.9722C14.1281 19 13.4444 18.3357 13.4444 17.5156V16.625V14.25C13.4444 13.5932 12.8983 13.0625 12.2222 13.0625H9.77778C9.10174 13.0625 8.55556 13.5932 8.55556 14.25V16.625V17.5156C8.55556 18.3357 7.87187 19 7.02778 19H6.11111H4.89271C4.83542 19 4.77812 18.9963 4.72083 18.9926C4.675 18.9963 4.62917 19 4.58333 19H3.97222C3.12812 19 2.44444 18.3357 2.44444 17.5156V13.3594C2.44444 13.326 2.44444 13.2889 2.44826 13.2555V10.6727H1.22222C0.534722 10.6727 0 10.1531 0 9.48145C0 9.14746 0.114583 8.85059 0.381944 8.59082L10.175 0.296875C10.4424 0.0371094 10.7479 0 11.0153 0C11.2826 0 11.5882 0.0742188 11.8174 0.259766L21.5722 8.59082C21.8778 8.85059 22.0306 9.14746 21.9924 9.48145Z" fill="white"/>
</g>
<defs>
<clipPath id="clip0_221_754">
<rect width="22" height="19" fill="white"/>
</clipPath>
</defs>
</svg>
