<svg width="77" height="77" viewBox="0 0 77 77" fill="none" xmlns="http://www.w3.org/2000/svg">
<g filter="url(#filter0_d_255_666)">
<circle cx="38.4084" cy="38.5669" r="33.8433" fill="white"/>
<circle cx="38.4084" cy="38.5669" r="33.3433" stroke="#263238"/>
</g>
<path d="M19.1256 47.0982C18.9813 47.0983 18.839 47.0635 18.7105 46.9968L11.8031 43.3776C11.5901 43.2661 11.4292 43.0734 11.3555 42.8415C11.2818 42.6097 11.3013 42.3576 11.4098 42.1404L19.5243 25.8361C19.5782 25.7279 19.6525 25.6315 19.7431 25.5525C19.8337 25.4735 19.9387 25.4135 20.0521 25.3759C20.1655 25.3383 20.2851 25.3239 20.404 25.3334C20.5229 25.3429 20.6388 25.3762 20.745 25.4314L27.3163 28.8424C27.5272 28.9516 27.6878 29.1404 27.7637 29.3685C27.8396 29.5966 27.8247 29.8458 27.7223 30.0629L19.943 46.5719C19.8904 46.6829 19.8166 46.7821 19.7259 46.8638C19.6352 46.9455 19.5294 47.0079 19.4147 47.0475C19.3215 47.0799 19.224 47.097 19.1256 47.0982ZM13.4334 42.157L18.7114 44.9226L25.7059 30.0804L20.7305 27.4992L13.4334 42.157Z" fill="#7743DC"/>
<path d="M28.5144 34.2694C28.3585 34.2694 28.2053 34.2284 28.0695 34.1505L25.4359 32.6414C25.3322 32.582 25.241 32.5025 25.1675 32.4072C25.094 32.312 25.0397 32.203 25.0076 32.0864C24.9756 31.9698 24.9664 31.8479 24.9806 31.7277C24.9949 31.6075 25.0322 31.4913 25.0906 31.3858C25.149 31.2803 25.2272 31.1875 25.3208 31.1128C25.4145 31.038 25.5216 30.9828 25.6363 30.9502C25.7509 30.9175 25.8707 30.9082 25.9889 30.9227C26.107 30.9372 26.2212 30.9752 26.3249 31.0346L28.4999 32.28C29.3491 31.7564 31.187 30.629 32.3633 29.9532C34.2836 28.847 35.6357 28.9991 37.1882 30.4953C37.3581 30.6645 37.4559 30.8948 37.4604 31.1366C37.465 31.3785 37.3759 31.6124 37.2124 31.7881C37.0489 31.9637 36.8241 32.0669 36.5864 32.0755C36.3488 32.0841 36.1174 31.9973 35.9421 31.8339C34.9778 30.9046 34.4757 30.8567 33.255 31.5573C31.7434 32.4266 29.0165 34.1173 28.9884 34.1385C28.8453 34.2257 28.6813 34.271 28.5144 34.2694Z" fill="#7743DC"/>
<path d="M52.3551 50.3091C51.6948 50.3263 51.0433 50.1514 50.4774 49.8048C49.6436 49.2388 45.9751 45.5789 45.2483 44.8516C45.0881 44.6781 45 44.4482 45.0026 44.2102C45.0052 43.9722 45.0982 43.7444 45.2621 43.5745C45.4261 43.4046 45.6483 43.3059 45.8822 43.2989C46.1161 43.2919 46.3436 43.3772 46.5171 43.537C48.1483 45.1751 50.9468 47.9085 51.4806 48.2708C51.8246 48.4325 52.2051 48.4969 52.5821 48.4574C52.9591 48.4178 53.3187 48.2756 53.623 48.0458C53.7655 47.9201 53.8791 47.7641 53.9559 47.5889C54.0326 47.4136 54.0706 47.2233 54.0671 47.0315C54.0637 46.8396 54.0189 46.6509 53.9358 46.4786C53.8528 46.3063 53.7337 46.1546 53.5867 46.0343C52.6605 44.9742 48.8126 41.2083 47.968 40.3823C45.0208 39.2834 42.1628 37.9512 39.4202 36.398L38.4669 37.0322C38.2528 38.0429 37.6817 38.9387 36.8619 39.5498C36.5741 39.7804 36.24 39.9439 35.8833 40.0287C35.5266 40.1134 35.1559 40.1174 34.7974 40.0403C34.3625 39.9852 33.9437 39.8383 33.5678 39.6091C33.1918 39.3798 32.8671 39.0733 32.6143 38.7091C32.1324 37.6617 32.0783 36.4626 32.4639 35.3747C33.2369 32.2274 34.4911 31.4171 36.2266 30.2961L36.6081 30.0481C38.5203 28.7989 40.1615 28.1333 41.9632 28.9584C43.0833 29.4719 47.059 31.0382 48.1882 31.4825L51.9727 30.2205C52.1994 30.1503 52.4441 30.1733 52.6543 30.2845C52.8646 30.3957 53.0237 30.5862 53.0975 30.8152C53.1713 31.0443 53.154 31.2936 53.0493 31.5099C52.9446 31.7261 52.7608 31.892 52.5373 31.972L48.4456 33.3364C48.2475 33.4022 48.0332 33.397 47.8384 33.3217C47.6236 33.2368 42.5685 31.2585 41.2228 30.6408C40.4153 30.2721 39.5625 30.3099 37.5905 31.5987L37.2008 31.8522C35.6176 32.8745 34.8228 33.389 34.2247 35.8218C33.9184 37.0682 34.0598 37.5733 34.1712 37.7577C34.3144 38.0011 34.6461 38.0997 35.1744 38.2343C35.2879 38.2538 35.4041 38.2473 35.5148 38.2154C35.6254 38.1835 35.7277 38.127 35.8143 38.05C36.0699 37.8541 36.2834 37.607 36.4416 37.324C36.5997 37.041 36.6993 36.728 36.7341 36.4044C36.7459 36.2654 36.7886 36.131 36.859 36.0112C36.9293 35.8915 37.0254 35.7895 37.1401 35.713L38.8846 34.5524C39.0221 34.4614 39.1813 34.4101 39.3452 34.4039C39.5091 34.3977 39.6716 34.4369 39.8154 34.5173C39.877 34.5514 45.9869 37.9504 48.6631 38.6658C48.8118 38.7062 48.9483 38.7838 49.06 38.8916C49.2558 39.0825 53.8631 43.5701 54.9452 44.8119C55.245 45.1071 55.4828 45.4612 55.644 45.8528C55.8053 46.2443 55.8867 46.665 55.8833 47.0895C55.8799 47.5139 55.7918 47.9333 55.6243 48.3221C55.4568 48.7109 55.2134 49.061 54.9089 49.3512C54.2116 49.9947 53.2962 50.3381 52.3551 50.3091Z" fill="#7743DC"/>
<path d="M54.2672 46.3444C54.0595 46.3443 53.8582 46.2716 53.6969 46.1385C53.5357 46.0054 53.4242 45.82 53.3812 45.6134C53.3382 45.4067 53.3663 45.1913 53.4608 45.0032C53.5552 44.8151 53.7103 44.6656 53.9001 44.5799L57.0793 43.1474C57.1885 43.0949 57.307 43.0651 57.4278 43.0599C57.5485 43.0547 57.6691 43.0741 57.7823 43.117C57.8956 43.1598 57.9993 43.2253 58.0873 43.3096C58.1753 43.3938 58.2458 43.4951 58.2948 43.6075C58.3437 43.7199 58.3701 43.8411 58.3723 43.964C58.3746 44.0869 58.3526 44.209 58.3077 44.3232C58.2629 44.4373 58.196 44.5412 58.1111 44.6287C58.0262 44.7161 57.925 44.7855 57.8133 44.8325L54.6333 46.2688C54.5177 46.3196 54.3931 46.3454 54.2672 46.3444Z" fill="#7743DC"/>
<path d="M58.4243 47.0983C58.2437 47.0982 58.0672 47.0432 57.9175 46.9404C57.7678 46.8376 57.6517 46.6916 57.5842 46.5212L50.7438 29.2581C50.6981 29.143 50.6757 29.0197 50.678 28.8955C50.6803 28.7714 50.7072 28.649 50.7571 28.5357C50.8071 28.4224 50.879 28.3205 50.9686 28.2362C51.0582 28.1519 51.1636 28.0868 51.2785 28.045L58.5883 25.3844C58.8094 25.304 59.0526 25.314 59.2667 25.4123C59.4807 25.5107 59.6488 25.6897 59.7356 25.9117L66.4419 43.0346C66.4857 43.1478 66.5071 43.2688 66.5049 43.3904C66.5026 43.5121 66.4766 43.6321 66.4285 43.7435C66.3804 43.8549 66.3111 43.9555 66.2246 44.0396C66.1381 44.1236 66.036 44.1894 65.9244 44.2331L58.7487 47.0337C58.6454 47.0753 58.5354 47.0972 58.4243 47.0983ZM52.7747 29.4573L58.9291 44.9881L64.4155 42.8493L58.3753 27.4199L52.7747 29.4573ZM48.2725 53.1052C47.5254 53.128 46.7958 52.8726 46.2207 52.3871C45.0072 51.29 41.8879 48.1188 41.7556 47.9842C41.5905 47.8103 41.4992 47.5775 41.5013 47.3357C41.5033 47.094 41.5986 46.8628 41.7667 46.6919C41.9347 46.521 42.162 46.424 42.3996 46.4219C42.6372 46.4198 42.8661 46.5127 43.0371 46.6807C43.0688 46.7129 46.2515 49.9487 47.4242 51.0135C47.6673 51.1641 47.9425 51.2528 48.2265 51.2721C48.5105 51.2914 48.7949 51.2406 49.0555 51.1241C49.481 50.9764 49.8585 50.7127 50.1468 50.3618C50.4351 50.0108 50.6231 49.586 50.6903 49.1338C50.7106 49.0145 50.7537 48.9004 50.8173 48.798C50.8808 48.6957 50.9636 48.6071 51.0609 48.5373C51.1581 48.4675 51.2679 48.4178 51.384 48.3912C51.5001 48.3645 51.6202 48.3614 51.7375 48.382C51.8548 48.4026 51.9669 48.4464 52.0676 48.5111C52.1682 48.5758 52.2553 48.66 52.3239 48.7589C52.3925 48.8578 52.4413 48.9695 52.4675 49.0876C52.4937 49.2057 52.4968 49.3279 52.4766 49.4472C52.3534 50.2217 52.0263 50.9477 51.53 51.5483C51.0338 52.1489 50.3869 52.6015 49.6581 52.8581C49.2131 53.0188 48.7447 53.1023 48.2725 53.1052Z" fill="#7743DC"/>
<path d="M44.0546 55.3399C43.3091 55.3722 42.5805 55.1077 42.0237 54.6024L38.8047 51.3279L40.087 50.0234L43.306 53.2979C43.5052 53.4117 43.7257 53.4817 43.9531 53.5033C44.1806 53.5249 44.41 53.4976 44.6264 53.4233C45.0422 53.3195 45.4228 53.1039 45.7286 52.7992C46.0344 52.4945 46.254 52.1118 46.3646 51.6911C46.3981 51.5738 46.4543 51.4644 46.5297 51.3693C46.6052 51.2742 46.6984 51.1953 46.8041 51.1372C46.9098 51.0791 47.0258 51.043 47.1453 51.0309C47.2649 51.0189 47.3856 51.0311 47.5005 51.0669C47.6153 51.1027 47.722 51.1614 47.8144 51.2395C47.9067 51.3177 47.9829 51.4137 48.0385 51.522C48.094 51.6304 48.1278 51.7489 48.1379 51.8707C48.148 51.9924 48.1343 52.115 48.0974 52.2313C47.8453 53.1247 47.3149 53.9108 46.5861 54.4713C45.8572 55.0319 44.9692 55.3367 44.0555 55.3399H44.0546Z" fill="#7743DC"/>
<path d="M40.6001 57.8019C39.8592 57.818 39.1347 57.5793 38.5438 57.1244C37.7274 56.4595 36.9072 55.7994 36.0833 55.1442C35.9876 55.0704 35.9072 54.978 35.8469 54.8723C35.7866 54.7666 35.7475 54.6498 35.732 54.5286C35.7164 54.4074 35.7247 54.2843 35.7564 54.1664C35.7881 54.0485 35.8425 53.9382 35.9164 53.8419C35.9904 53.7456 36.0824 53.6652 36.1872 53.6054C36.2919 53.5456 36.4073 53.5076 36.5267 53.4936C36.646 53.4796 36.7669 53.4899 36.8823 53.5238C36.9977 53.5577 37.1053 53.6147 37.1989 53.6913C37.1989 53.6913 38.3308 54.5901 39.6766 55.6853C39.9633 55.8589 40.2894 55.9538 40.623 55.9608C40.9566 55.9677 41.2862 55.8865 41.5797 55.725C41.8421 55.6102 42.0641 55.4173 42.2165 55.1715C42.3689 54.9258 42.4445 54.6389 42.4334 54.3486C42.4261 54.1042 42.5145 53.8669 42.6792 53.6888C42.8439 53.5108 43.0713 53.4065 43.3116 53.3991C43.5511 53.3948 43.7828 53.4859 43.9572 53.6529C44.1316 53.82 44.2349 54.0498 44.245 54.2933C44.2664 54.9354 44.1019 55.5698 43.7719 56.1177C43.442 56.6656 42.9611 57.1028 42.389 57.3751C41.8328 57.6552 41.2207 57.8012 40.6001 57.8019Z" fill="#7743DC"/>
<path d="M33.8085 57.3753C33.514 57.3742 33.2225 57.3147 32.9503 57.2001C32.2114 56.8312 31.6022 56.2396 31.2058 55.5057C30.5626 55.6326 29.8961 55.5308 29.3181 55.2172C28.8332 54.8938 28.4163 54.4756 28.0918 53.9869C27.7672 53.4982 27.5415 52.9487 27.4276 52.3704C27.3799 52.1349 27.4244 51.8898 27.5518 51.6873C28.2886 50.5184 29.3996 48.7013 29.5655 48.3224C29.7147 48.0202 29.9264 47.7543 30.186 47.543C30.4457 47.3317 30.7472 47.1799 31.0699 47.0982C31.5088 46.9812 31.9678 46.9655 32.4135 47.0523C32.8591 47.139 33.28 47.3261 33.6454 47.5997C34.0504 47.8724 34.3755 48.2511 34.5867 48.6959C34.7979 49.1408 34.8872 49.6353 34.8453 50.1275C35.2764 50.1464 35.6984 50.2591 36.083 50.458C36.4676 50.657 36.8057 50.9375 37.0747 51.2807C37.3359 51.696 37.5026 52.1653 37.5627 52.6545C37.6227 53.1437 37.5746 53.6403 37.4218 54.1081C36.9464 55.4577 35.9705 56.5643 34.703 57.1909C34.42 57.3126 34.1158 57.3753 33.8085 57.3753ZM32.7319 54.4981C33.0165 54.9876 33.5249 55.6901 34.0007 55.4882C34.7906 55.0697 35.3987 54.3666 35.7062 53.5163C35.7667 53.3281 35.7899 53.1296 35.7743 52.9323C35.7588 52.7349 35.7048 52.5427 35.6156 52.3667C35.4777 52.2294 35.3141 52.1217 35.1344 52.0501C34.9547 51.9785 34.7627 51.9445 34.5698 51.95L32.7319 54.4981ZM29.2963 52.3317C29.4405 52.8439 29.753 53.2903 30.1817 53.5965C30.3156 53.6664 30.4621 53.7075 30.6122 53.7175C30.7623 53.7275 30.9128 53.7061 31.0545 53.6546L32.9893 50.2805C33.0662 50.072 33.0711 49.8431 33.0033 49.6313C32.9354 49.4196 32.7988 49.2376 32.6159 49.1153C32.4768 49.0037 32.3162 48.9229 32.1445 48.8783C31.9728 48.8337 31.7938 48.8262 31.619 48.8562C31.4648 48.8821 31.324 48.9612 31.2203 49.0802C30.981 49.6195 29.8301 51.478 29.2963 52.3317Z" fill="#7743DC"/>
<path d="M26.8822 53.7717C26.6675 53.7724 26.4538 53.7413 26.2478 53.6795C24.6954 53.2048 24.0873 51.1601 24.023 50.9287C23.9905 50.8113 23.9812 50.6885 23.9956 50.5675C24.0101 50.4464 24.048 50.3295 24.1072 50.2234C24.8775 48.8623 25.7295 47.5508 26.6583 46.2963C27.1246 45.6792 27.8003 45.261 28.5533 45.1235C29.3064 44.9859 30.0828 45.1388 30.731 45.5523C31.5865 46.1561 32.2136 47.4698 31.1642 49.1863C31.1014 49.2892 31.0193 49.3786 30.9226 49.4492C30.8259 49.5198 30.7165 49.5704 30.6006 49.598C30.4846 49.6256 30.3645 49.6297 30.247 49.6101C30.1295 49.5905 30.017 49.5475 29.9159 49.4836C29.8147 49.4198 29.7269 49.3363 29.6575 49.2379C29.588 49.1395 29.5383 49.0282 29.5112 48.9103C29.484 48.7923 29.48 48.6701 29.4993 48.5506C29.5186 48.4311 29.5608 48.3167 29.6236 48.2137C29.8565 47.8312 30.0586 47.3232 29.697 47.0679C29.4327 46.921 29.1253 46.8758 28.831 46.9404C28.5366 47.0051 28.275 47.1753 28.0938 47.42C27.2977 48.4961 26.561 49.6164 25.8871 50.7756C26.0856 51.2578 26.4236 51.81 26.7689 51.9142C27.0743 52.0063 27.4939 51.6874 27.7214 51.4901C27.9033 51.3302 28.1403 51.2504 28.3801 51.2682C28.6199 51.286 28.8429 51.4 29.0001 51.585C29.1573 51.7701 29.2358 52.0112 29.2182 52.2551C29.2007 52.499 29.0887 52.7259 28.9067 52.8858C28.3619 53.4242 27.6411 53.7396 26.8822 53.7717Z" fill="#7743DC"/>
<path d="M24.8929 51.597C24.7933 51.5969 24.6944 51.5801 24.6002 51.5472C24.447 51.4947 20.8347 50.2105 20.8347 47.3324C20.8346 47.2358 20.8493 47.1397 20.8782 47.0476C21.2061 46.1296 21.6552 45.2612 22.2131 44.4663C22.6283 43.9616 23.2018 43.6179 23.8369 43.493C24.4721 43.368 25.1302 43.4696 25.7004 43.7804C26.2371 44.0224 26.6652 44.4603 26.9001 45.0076C27.135 45.555 27.1596 46.172 26.9691 46.7369C26.3764 48.6784 25.7683 50.8973 25.762 50.9204C25.7088 51.1142 25.5947 51.285 25.4371 51.4067C25.2795 51.5283 25.0871 51.5942 24.8893 51.5943L24.8929 51.597ZM22.6545 47.4753C22.7451 48.3382 23.6133 48.9946 24.3093 49.3882C24.5458 48.5475 24.8965 47.3241 25.2409 46.193C25.2725 46.1211 25.2887 46.0432 25.2883 45.9645C25.288 45.8858 25.2711 45.8081 25.2389 45.7365C25.2066 45.665 25.1597 45.6012 25.1013 45.5496C25.0429 45.4979 24.9743 45.4596 24.9002 45.4371C24.7129 45.3296 24.4986 45.281 24.2842 45.2974C24.0698 45.3138 23.8651 45.3945 23.6957 45.5292C23.2756 46.1346 22.9261 46.7877 22.6545 47.4753Z" fill="#7743DC"/>
<path d="M22.4851 46.6641C22.3027 46.6638 22.1245 46.6076 21.974 46.5027L19.5969 44.8434C19.3985 44.7052 19.2622 44.4926 19.2179 44.2522C19.1736 44.0118 19.225 43.7633 19.3608 43.5615C19.4966 43.3597 19.7057 43.221 19.942 43.1759C20.1783 43.1309 20.4226 43.1832 20.621 43.3213L22.9981 44.9807C23.1582 45.0919 23.2791 45.2523 23.3429 45.4385C23.4068 45.6247 23.4103 45.8268 23.3529 46.0151C23.2955 46.2035 23.1802 46.3681 23.0241 46.4849C22.8679 46.6017 22.679 46.6645 22.4851 46.6641Z" fill="#7743DC"/>
<defs>
<filter id="filter0_d_255_666" x="0.565186" y="0.723633" width="75.6865" height="75.6865" filterUnits="userSpaceOnUse" color-interpolation-filters="sRGB">
<feFlood flood-opacity="0" result="BackgroundImageFix"/>
<feColorMatrix in="SourceAlpha" type="matrix" values="0 0 0 0 0 0 0 0 0 0 0 0 0 0 0 0 0 0 127 0" result="hardAlpha"/>
<feOffset/>
<feGaussianBlur stdDeviation="2"/>
<feComposite in2="hardAlpha" operator="out"/>
<feColorMatrix type="matrix" values="0 0 0 0 0 0 0 0 0 0 0 0 0 0 0 0 0 0 0.25 0"/>
<feBlend mode="normal" in2="BackgroundImageFix" result="effect1_dropShadow_255_666"/>
<feBlend mode="normal" in="SourceGraphic" in2="effect1_dropShadow_255_666" result="shape"/>
</filter>
</defs>
</svg>
