<svg width="20" height="20" viewBox="0 0 16 18" fill="none" xmlns="http://www.w3.org/2000/svg">
<path fill-rule="evenodd" clip-rule="evenodd" d="M7.79123 0.113319C7.92955 0.0933306 8.07003 0.0933306 8.20836 0.113319C8.36675 0.136207 8.51496 0.192054 8.65342 0.24423C8.66482 0.248524 8.67615 0.252793 8.68741 0.257016L13.1556 1.93258C13.1876 1.94459 13.2193 1.95643 13.2505 1.96811C13.7809 2.16645 14.1969 2.32202 14.515 2.60237C14.7942 2.84844 15.0093 3.1588 15.1416 3.50663C15.2924 3.90293 15.292 4.34705 15.2915 4.91329C15.2915 4.94665 15.2915 4.98044 15.2915 5.01466V8.99999C15.2915 11.2779 14.0518 13.1924 12.6836 14.6177C11.3085 16.0503 9.73188 17.0648 8.8964 17.5522C8.88598 17.5583 8.8755 17.5645 8.86494 17.5706C8.70856 17.6623 8.53579 17.7635 8.30558 17.8129C8.11816 17.8531 7.88143 17.8531 7.69401 17.8129C7.46379 17.7635 7.29103 17.6623 7.13464 17.5706C7.12409 17.5645 7.11361 17.5583 7.10319 17.5522C6.2677 17.0648 4.69112 16.0503 3.31597 14.6177C1.94779 13.1924 0.708127 11.2779 0.708127 8.99999V5.01466C0.708127 4.98044 0.708096 4.94665 0.708066 4.91329C0.707555 4.34706 0.707154 3.90293 0.857956 3.50663C0.990316 3.1588 1.2054 2.84844 1.48461 2.60237C1.80273 2.32202 2.21871 2.16645 2.74907 1.96812C2.78032 1.95643 2.81197 1.9446 2.84401 1.93258L7.31218 0.257017C7.32344 0.252793 7.33477 0.248524 7.34616 0.24423C7.48463 0.192054 7.63283 0.136207 7.79123 0.113319ZM8.02959 1.35047C8.00983 1.34761 7.98976 1.34761 7.97 1.35047C7.96731 1.351 7.9569 1.35338 7.93238 1.36142C7.89323 1.37425 7.84237 1.3932 7.75108 1.42743L3.28292 3.10299C2.61118 3.35489 2.43394 3.43188 2.31107 3.54017C2.18416 3.65201 2.08639 3.79309 2.02623 3.95119C1.96798 4.10426 1.95813 4.29725 1.95813 5.01466V8.99999C1.95813 10.8124 2.94928 12.4306 4.21776 13.7521C5.47927 15.0664 6.94519 16.0129 7.73308 16.4725C7.83234 16.5305 7.87894 16.5572 7.91569 16.5751C7.93946 16.5867 7.9477 16.5888 7.95471 16.5904C7.95569 16.5905 7.9591 16.591 7.96502 16.5915C7.97445 16.5924 7.98646 16.593 7.99979 16.593C8.01313 16.593 8.02514 16.5924 8.03457 16.5915C8.04068 16.591 8.04411 16.5905 8.04497 16.5903C8.05196 16.5888 8.06022 16.5866 8.0839 16.5751C8.12065 16.5572 8.16725 16.5305 8.26651 16.4725C9.0544 16.0129 10.5203 15.0664 11.7818 13.7521C13.0503 12.4306 14.0415 10.8124 14.0415 8.99999V5.01466C14.0415 4.29725 14.0316 4.10426 13.9734 3.95119C13.9132 3.79309 13.8154 3.65201 13.6885 3.54017C13.5656 3.43188 13.3884 3.35489 12.7167 3.10299L8.24851 1.42743C8.15722 1.3932 8.10635 1.37425 8.06721 1.36142C8.04268 1.35338 8.03227 1.351 8.02959 1.35047ZM8.02885 1.35034C8.02882 1.35033 8.02905 1.35036 8.02959 1.35047ZM11.3584 6.05805C11.6025 6.30213 11.6025 6.69786 11.3584 6.94194L7.6084 10.6919C7.49119 10.8091 7.33222 10.875 7.16646 10.875C7.0007 10.875 6.84173 10.8091 6.72452 10.6919L5.05785 9.02527C4.81377 8.78119 4.81377 8.38546 5.05785 8.14139C5.30193 7.89731 5.69766 7.89731 5.94173 8.14139L7.16646 9.36611L10.4745 6.05805C10.7186 5.81397 11.1143 5.81397 11.3584 6.05805Z" fill="#16A34A"/>
</svg>
