<svg width="11" height="29" viewBox="0 0 11 29" fill="none" xmlns="http://www.w3.org/2000/svg">
<path d="M8.25 4.53125C8.25 6.03223 7.01823 7.25 5.5 7.25C3.98177 7.25 2.75 6.03223 2.75 4.53125C2.75 3.03027 3.98177 1.8125 5.5 1.8125C7.01823 1.8125 8.25 3.03027 8.25 4.53125ZM0 12.6875C0 11.685 0.819271 10.875 1.83333 10.875H5.5C6.51406 10.875 7.33333 11.685 7.33333 12.6875V25.375H9.16667C10.1807 25.375 11 26.185 11 27.1875C11 28.19 10.1807 29 9.16667 29H1.83333C0.819271 29 0 28.19 0 27.1875C0 26.185 0.819271 25.375 1.83333 25.375H3.66667V14.5H1.83333C0.819271 14.5 0 13.69 0 12.6875Z" fill="#FD7350"/>
</svg>
