<svg width="15" height="15" viewBox="0 0 15 15" fill="none" xmlns="http://www.w3.org/2000/svg">
<path d="M7.5 15C11.6426 15 15 11.6426 15 7.5C15 3.35742 11.6426 0 7.5 0C3.35742 0 0 3.35742 0 7.5C0 11.6426 3.35742 15 7.5 15ZM4.97461 4.84277C5.20605 4.18945 5.82715 3.75 6.52148 3.75H8.22949C9.25195 3.75 10.0781 4.5791 10.0781 5.59863C10.0781 6.26074 9.72363 6.87305 9.14941 7.2041L8.20312 7.74609C8.19727 8.12695 7.88379 8.4375 7.5 8.4375C7.11035 8.4375 6.79688 8.12402 6.79688 7.73438V7.33887C6.79688 7.08691 6.93164 6.85547 7.15137 6.72949L8.44922 5.98535C8.58691 5.90625 8.67188 5.75977 8.67188 5.60156C8.67188 5.35547 8.47266 5.15918 8.22949 5.15918H6.52148C6.42188 5.15918 6.33398 5.2207 6.30176 5.31445L6.29004 5.34961C6.16113 5.71582 5.75684 5.90625 5.39355 5.77734C5.03027 5.64844 4.83691 5.24414 4.96582 4.88086L4.97754 4.8457L4.97461 4.84277ZM8.4375 10.3125C8.4375 10.8311 8.01855 11.25 7.5 11.25C6.98145 11.25 6.5625 10.8311 6.5625 10.3125C6.5625 9.79395 6.98145 9.375 7.5 9.375C8.01855 9.375 8.4375 9.79395 8.4375 10.3125Z" fill="#7743DC"/>
</svg>
