<svg xmlns="http://www.w3.org/2000/svg" width="20" height="20" viewBox="0 0 20 20" fill="none">
  <mask id="mask0_9_590" style="mask-type:alpha" maskUnits="userSpaceOnUse" x="0" y="0" width="20" height="20">
    <rect width="20" height="20" fill="#D9D9D9"/>
  </mask>
  <g mask="url(#mask0_9_590)">
    <path d="M9.16699 14.1667H10.8337V9.16666H9.16699V14.1667ZM10.0003 7.49999C10.2364 7.49999 10.4344 7.42013 10.5941 7.26041C10.7538 7.10068 10.8337 6.90277 10.8337 6.66666C10.8337 6.43055 10.7538 6.23263 10.5941 6.07291C10.4344 5.91318 10.2364 5.83332 10.0003 5.83332C9.76421 5.83332 9.5663 5.91318 9.40658 6.07291C9.24685 6.23263 9.16699 6.43055 9.16699 6.66666C9.16699 6.90277 9.24685 7.10068 9.40658 7.26041C9.5663 7.42013 9.76421 7.49999 10.0003 7.49999ZM10.0003 18.3333C8.84755 18.3333 7.76421 18.1146 6.75033 17.6771C5.73644 17.2396 4.85449 16.6458 4.10449 15.8958C3.35449 15.1458 2.76074 14.2639 2.32324 13.25C1.88574 12.2361 1.66699 11.1528 1.66699 9.99999C1.66699 8.84721 1.88574 7.76388 2.32324 6.74999C2.76074 5.7361 3.35449 4.85416 4.10449 4.10416C4.85449 3.35416 5.73644 2.76041 6.75033 2.32291C7.76421 1.88541 8.84755 1.66666 10.0003 1.66666C11.1531 1.66666 12.2364 1.88541 13.2503 2.32291C14.2642 2.76041 15.1462 3.35416 15.8962 4.10416C16.6462 4.85416 17.2399 5.7361 17.6774 6.74999C18.1149 7.76388 18.3337 8.84721 18.3337 9.99999C18.3337 11.1528 18.1149 12.2361 17.6774 13.25C17.2399 14.2639 16.6462 15.1458 15.8962 15.8958C15.1462 16.6458 14.2642 17.2396 13.2503 17.6771C12.2364 18.1146 11.1531 18.3333 10.0003 18.3333Z" fill="#2A2C4C"/>
  </g>
</svg>