<svg width="44" height="41" viewBox="0 0 44 41" fill="none" xmlns="http://www.w3.org/2000/svg">
<path d="M25.4911 16.428L17.4052 8.34206L18.702 7.09017L25.4911 13.8927L38.9168 0.525391L40.1553 1.75039L25.4911 16.428ZM27.3623 40.1068L8.77191 34.646V37.6569H0.0891724V19.8786H14.7039L28.9956 25.1645C29.7465 25.4337 30.3994 25.9086 30.9543 26.5892C31.5092 27.2697 31.7866 28.307 31.7866 29.7011H39.7379C40.9824 29.7011 41.9247 30.1651 42.5649 31.0932C43.205 32.0213 43.5251 33.2818 43.5251 34.8748V35.1351L27.3623 40.1068ZM1.88409 35.862H6.91866V21.6735H1.88409V35.862ZM27.1738 38.2402L41.6584 33.8248C41.5747 33.0859 41.3727 32.513 41.0526 32.1062C40.7326 31.6994 40.2944 31.496 39.7379 31.496H28.3809C27.3638 31.496 26.3295 31.4257 25.278 31.2851C24.2265 31.1445 23.3283 30.953 22.5834 30.7107L17.7238 29.2075L18.5584 27.3947L22.7719 28.8844C23.6843 29.1955 24.6229 29.4094 25.5876 29.5261C26.5524 29.6428 27.9875 29.7011 29.8931 29.7011C29.8931 28.9652 29.7756 28.3587 29.5408 27.8815C29.306 27.4044 28.9298 27.0686 28.4123 26.8742L14.4796 21.6735H8.77191V32.721L27.1738 38.2402Z" fill="#7743DC"/>
</svg>
