<svg width="47" height="46" viewBox="0 0 47 46" fill="none" xmlns="http://www.w3.org/2000/svg">
<path opacity="0.4" d="M36.3988 34.4855V36.2972C36.3989 36.4161 36.3755 36.534 36.3301 36.6439C36.2847 36.7539 36.2181 36.8538 36.1342 36.9379C36.0502 37.0221 35.9505 37.0888 35.8407 37.1343C35.731 37.1797 35.6133 37.2031 35.4946 37.203H11.9862C11.7466 37.2025 11.5168 37.107 11.3474 36.9372C11.1779 36.7674 11.0825 36.5373 11.082 36.2972V34.4855C11.0819 34.3665 11.1052 34.2487 11.1506 34.1387C11.196 34.0288 11.2626 33.9289 11.3466 33.8447C11.4306 33.7606 11.5303 33.6939 11.6401 33.6484C11.7498 33.6029 11.8675 33.5795 11.9862 33.5797H21.9316V16.893C21.2675 16.6024 20.6828 16.1563 20.2267 15.5921C19.7706 15.028 19.4564 14.3624 19.3105 13.6513H11.9862C11.7466 13.6511 11.5169 13.5557 11.3474 13.3861C11.1779 13.2164 11.0825 12.9864 11.082 12.7463V10.9347C11.0823 10.6945 11.1776 10.4642 11.3471 10.2944C11.5166 10.1246 11.7465 10.029 11.9862 10.0288H20.144C20.7717 9.17951 21.679 8.57987 22.7054 8.33588C23.7318 8.09189 24.8113 8.21927 25.753 8.69549C26.3769 9.00966 26.9201 9.46632 27.3368 10.0288H35.4946C35.6134 10.0285 35.7311 10.0517 35.841 10.0971C35.9508 10.1425 36.0506 10.2092 36.1347 10.2934C36.2187 10.3776 36.2853 10.4776 36.3306 10.5876C36.3759 10.6977 36.3991 10.8156 36.3988 10.9347V12.7463C36.3988 12.9863 36.3031 13.2172 36.1334 13.3863C35.9645 13.5563 35.7341 13.6522 35.4946 13.6522H28.1703C28.0239 14.3631 27.7094 15.0284 27.2531 15.5923C26.7969 16.1562 26.2123 16.6023 25.5484 16.893V33.5797H35.4946C35.6134 33.5793 35.7311 33.6025 35.841 33.6479C35.9508 33.6933 36.0506 33.7601 36.1347 33.8442C36.2187 33.9284 36.2853 34.0284 36.3306 34.1385C36.3759 34.2485 36.3991 34.3664 36.3988 34.4855Z" fill="#7743DC"/>
<path d="M20.1239 27.2384C20.1239 26.3217 20.1988 26.7442 15.3201 16.9626C14.3227 14.9651 11.4671 14.9609 10.4672 16.9626C5.54028 26.8276 5.65673 26.3509 5.65673 27.2376C5.65673 29.7392 8.89587 31.7676 12.8903 31.7676C16.8848 31.7676 20.1239 29.7392 20.1239 27.2384ZM12.8903 18.1801L16.9588 26.3326H8.82184L12.8895 18.1801H12.8903ZM41.823 27.2384C41.823 26.3217 41.8987 26.7442 37.0175 16.9626C36.0193 14.9651 33.1637 14.9609 32.1646 16.9626C27.2402 26.8276 27.3567 26.3509 27.3567 27.2376C27.3567 29.7392 30.5958 31.7676 34.5902 31.7676C38.5847 31.7676 41.823 29.7392 41.823 27.2384ZM30.5226 26.3326L34.5902 18.1801L38.6596 26.3326H30.5218H30.5226Z" fill="#7743DC"/>
</svg>
