<svg width="41" height="40" viewBox="0 0 41 40" fill="none" xmlns="http://www.w3.org/2000/svg">
<path opacity="0.4" d="M33.3988 31.4855V33.2972C33.3989 33.4161 33.3755 33.534 33.3301 33.6439C33.2847 33.7539 33.2181 33.8538 33.1342 33.9379C33.0502 34.0221 32.9505 34.0888 32.8407 34.1343C32.731 34.1797 32.6133 34.2031 32.4946 34.203H8.98623C8.74656 34.2025 8.51683 34.107 8.34735 33.9372C8.17788 33.7674 8.08247 33.5373 8.08203 33.2972V31.4855C8.08192 31.3665 8.10524 31.2487 8.15064 31.1387C8.19604 31.0288 8.26264 30.9289 8.34662 30.8447C8.4306 30.7606 8.53033 30.6939 8.64008 30.6484C8.74983 30.6029 8.86746 30.5795 8.98623 30.5797H18.9316V13.893C18.2675 13.6024 17.6828 13.1563 17.2267 12.5921C16.7706 12.028 16.4564 11.3624 16.3105 10.6513H8.98623C8.74663 10.6511 8.5169 10.5557 8.3474 10.3861C8.1779 10.2164 8.08247 9.98635 8.08203 9.74632V7.93466C8.08225 7.69448 8.17759 7.46421 8.34711 7.29438C8.51663 7.12455 8.74649 7.02904 8.98623 7.02882H17.144C17.7717 6.17951 18.679 5.57987 19.7054 5.33588C20.7318 5.09189 21.8113 5.21927 22.753 5.69549C23.3769 6.00966 23.9201 6.46632 24.3368 7.02882H32.4946C32.6134 7.02849 32.7311 7.0517 32.841 7.0971C32.9508 7.14251 33.0506 7.20922 33.1347 7.2934C33.2187 7.37758 33.2853 7.47757 33.3306 7.58762C33.3759 7.69767 33.3991 7.81561 33.3988 7.93466V9.74632C33.3988 9.98632 33.3031 10.2172 33.1334 10.3863C32.9645 10.5563 32.7341 10.6522 32.4946 10.6522H25.1703C25.0239 11.3631 24.7094 12.0284 24.2531 12.5923C23.7969 13.1562 23.2123 13.6023 22.5484 13.893V30.5797H32.4946C32.6134 30.5793 32.7311 30.6025 32.841 30.6479C32.9508 30.6933 33.0506 30.7601 33.1347 30.8442C33.2187 30.9284 33.2853 31.0284 33.3306 31.1385C33.3759 31.2485 33.3991 31.3664 33.3988 31.4855Z" fill="#FD7350"/>
<path d="M17.1239 24.2384C17.1239 23.3217 17.1988 23.7442 12.3201 13.9626C11.3227 11.9651 8.46706 11.9609 7.4672 13.9626C2.54028 23.8276 2.65673 23.3509 2.65673 24.2376C2.65673 26.7392 5.89587 28.7676 9.89032 28.7676C13.8848 28.7676 17.1239 26.7392 17.1239 24.2384ZM9.89032 15.1801L13.9588 23.3326H5.82184L9.88949 15.1801H9.89032ZM38.823 24.2384C38.823 23.3217 38.8987 23.7442 34.0175 13.9626C33.0193 11.9651 30.1637 11.9609 29.1646 13.9626C24.2402 23.8276 24.3567 23.3509 24.3567 24.2376C24.3567 26.7392 27.5958 28.7676 31.5902 28.7676C35.5847 28.7676 38.823 26.7392 38.823 24.2384ZM27.5226 23.3326L31.5902 15.1801L35.6596 23.3326H27.5218H27.5226Z" fill="#FD7350"/>
</svg>
