<svg width="194" height="44" viewBox="0 0 194 44" fill="none" xmlns="http://www.w3.org/2000/svg">
<mask id="mask0_88_644" style="mask-type:alpha" maskUnits="userSpaceOnUse" x="36" y="10" width="9" height="11">
<path d="M44.8262 10.2076H36.8625V20.6211H44.8262V10.2076Z" fill="white"/>
</mask>
<g mask="url(#mask0_88_644)">
<path d="M43.061 20.3742C43.1431 20.3742 43.1841 20.3742 43.2252 20.333C43.4715 20.2507 43.6767 20.0449 43.7177 19.7979L44.9492 11.319C44.9903 10.9485 44.744 10.6192 44.3745 10.5781C44.0051 10.5369 43.6767 10.7839 43.6357 11.1543L42.6094 18.1104L38.094 12.6361C37.8477 12.348 37.4372 12.3068 37.1498 12.5538C36.8625 12.8007 36.8214 13.2123 37.0677 13.5004L42.5684 20.1684C42.6505 20.2918 42.8557 20.3742 43.061 20.3742Z" fill="#FD7350"/>
</g>
<mask id="mask1_88_644" style="mask-type:alpha" maskUnits="userSpaceOnUse" x="2" y="23" width="9" height="11">
<path d="M10.5908 23.3789H2.29883V33.2573H10.5908V23.3789Z" fill="white"/>
</mask>
<g mask="url(#mask1_88_644)">
<path d="M2.9967 33.2161C3.3251 33.2161 3.61244 32.9692 3.65349 32.6399L4.72078 25.6839L9.19518 31.1993C9.44147 31.4874 9.85197 31.5286 10.1393 31.2816C10.4267 31.0347 10.4677 30.6231 10.2214 30.3349L4.84393 23.667C4.67973 23.4612 4.39239 23.3789 4.14609 23.4612C3.89979 23.5436 3.69454 23.7494 3.65349 23.9963L2.33991 32.4341C2.29886 32.8045 2.54516 33.1338 2.9146 33.2161C2.95565 33.2161 2.95565 33.2161 2.9967 33.2161Z" fill="#FD7350"/>
</g>
<mask id="mask2_88_644" style="mask-type:alpha" maskUnits="userSpaceOnUse" x="3" y="23" width="42" height="20">
<path d="M44.0051 23.9139H3.48926V42.1066H44.0051V23.9139Z" fill="white"/>
</mask>
<g mask="url(#mask2_88_644)">
<path d="M23.6857 42.1478C33.5786 42.1478 42.1169 34.739 43.5536 24.9018C43.5947 24.5313 43.3484 24.202 42.9789 24.1609C42.6095 24.0786 42.2811 24.3667 42.24 24.7371C40.9265 33.9158 32.9218 40.8307 23.6857 40.8307C14.5316 40.8307 6.56801 33.9981 5.17233 24.9018C5.13128 24.5313 4.76183 24.2844 4.39239 24.3255C4.02294 24.3667 3.77664 24.7371 3.81769 25.1076C5.33652 34.7801 13.8748 42.1478 23.6857 42.1478Z" fill="#FD7350"/>
</g>
<mask id="mask3_88_644" style="mask-type:alpha" maskUnits="userSpaceOnUse" x="3" y="1" width="42" height="20">
<path d="M44.0051 1.81104H3.48926V20.6623H44.0051V1.81104Z" fill="white"/>
</mask>
<g mask="url(#mask3_88_644)">
<path d="M4.3924 20.5388C4.7208 20.5388 5.00815 20.2919 5.0492 19.9214C6.07543 10.3723 14.0801 3.12815 23.6857 3.12815C32.9218 3.12815 40.8854 10.043 42.2401 19.2217C42.2811 19.5921 42.6505 19.8391 42.9789 19.7979C43.3484 19.7568 43.5947 19.3863 43.5536 19.0571C42.1169 9.21983 33.5786 1.81104 23.6857 1.81104C13.4233 1.81104 4.84395 9.54911 3.73561 19.7979C3.69456 20.1684 3.98191 20.4977 4.3103 20.5388C4.35135 20.5388 4.3924 20.5388 4.3924 20.5388Z" fill="#FD7350"/>
</g>
<mask id="mask4_88_644" style="mask-type:alpha" maskUnits="userSpaceOnUse" x="9" y="8" width="29" height="32">
<path d="M37.3961 8.8905H9.48242V39.3489H37.3961V8.8905Z" fill="white"/>
</mask>
<g mask="url(#mask4_88_644)">
<path d="M35.3847 25.0252C33.5785 32.0224 29.6377 36.5088 23.6034 38.2787C17.5692 36.4677 13.6284 32.0224 11.8222 25.0252C10.7139 20.6622 10.796 16.5874 10.8781 15.2703C16.5019 15.1056 21.1815 11.7717 23.5624 10.043C25.9433 11.7717 30.6229 15.1056 36.2467 15.2703C36.4109 16.6286 36.493 20.6622 35.3847 25.0252ZM37.2729 14.7352C37.2319 14.4882 37.0266 14.2825 36.7803 14.2825C31.1566 14.2825 26.559 10.9485 24.055 9.13745L23.8908 9.05513C23.7266 8.93165 23.4803 8.93165 23.3161 9.05513L23.1929 9.13745C20.8942 10.825 16.0914 14.2825 10.4265 14.2825C10.1803 14.2825 9.93395 14.4882 9.93395 14.7352C9.93395 14.941 9.44136 19.7979 10.837 25.2722C12.7253 32.5986 17.0766 37.4555 23.4803 39.3077C23.5213 39.3077 23.5624 39.3077 23.6034 39.3077C23.6445 39.3077 23.6855 39.3077 23.7266 39.3077C30.1303 37.4555 34.4816 32.5986 36.3698 25.2722C37.7655 19.7979 37.314 14.941 37.2729 14.7352Z" fill="#7743DC"/>
</g>
<path d="M29.1862 20.1683L22.7003 28.6061C22.5361 28.8119 22.2898 28.9766 22.0025 29.0177C21.9614 29.0177 21.9204 29.0177 21.8794 29.0177C21.6331 29.0177 21.4278 28.9354 21.2226 28.7708L17.9386 26.0954C17.4871 25.7249 17.446 25.1075 17.7744 24.6548C18.1438 24.202 18.8006 24.1608 19.2111 24.5313L21.6741 26.5481L27.5442 18.9335C27.8726 18.4808 28.5294 18.3984 28.9809 18.7277C29.4735 19.0982 29.5556 19.7156 29.1862 20.1683ZM23.6034 12.0598C21.4278 13.6239 17.405 16.3405 12.6432 16.6286C12.5201 20.0037 12.7253 33.0514 23.6034 36.3854C34.4816 33.0102 34.6868 19.9625 34.5636 16.6286C29.8019 16.2993 25.7791 13.6239 23.6034 12.0598Z" fill="#7743DC"/>
<path d="M53.939 34.2862C51.5581 31.9813 50.3677 28.7708 50.3677 24.5725C50.3677 21.7324 50.9424 19.2217 52.0507 17.0402C53.159 14.8587 54.76 13.1712 56.8535 11.9775C58.906 10.7839 61.3279 10.2076 64.0372 10.2076C66.2538 10.2076 68.3474 10.6192 70.3998 11.4013L69.3326 16.5463C67.5264 15.7231 65.7612 15.3115 64.0782 15.3115C61.6563 15.3115 59.768 16.0935 58.3313 17.6988C56.9356 19.2628 56.2378 21.4032 56.2378 24.0374C56.2378 26.7128 56.9766 28.8119 58.4544 30.2937C59.9322 31.7755 61.9847 32.5163 64.6119 32.5163C66.3359 32.5163 68.019 32.2282 69.6199 31.6931L70.4819 36.5912C68.5526 37.3321 66.3359 37.7025 63.873 37.7025C59.6449 37.7437 56.3609 36.5912 53.939 34.2862Z" fill="#292C4E"/>
<path d="M78.5277 36.0149C76.6805 34.8624 75.2438 33.2572 74.2586 31.1992C73.2323 29.1412 72.7397 26.7539 72.7397 24.0373C72.7397 21.3208 73.2323 18.9335 74.2586 16.8344C75.2438 14.7764 76.6805 13.13 78.5277 12.0186C80.375 10.8662 82.5095 10.2899 84.9314 10.2899C87.3123 10.2899 89.4469 10.8662 91.2941 11.9775C93.1414 13.13 94.537 14.694 95.5633 16.752C96.5485 18.81 97.0821 21.1561 97.0821 23.8727C97.0821 26.6304 96.5895 29.0177 95.5633 31.1169C94.5781 33.216 93.1414 34.8213 91.2941 35.9737C89.4469 37.1262 87.3534 37.7024 84.9314 37.7024C82.4685 37.7436 80.3339 37.1674 78.5277 36.0149ZM89.6932 30.2937C90.9247 28.7296 91.4994 26.6304 91.4994 24.0373C91.4994 22.3498 91.212 20.8269 90.6784 19.5097C90.1447 18.1926 89.3237 17.1636 88.3386 16.4639C87.3123 15.7642 86.1629 15.3938 84.8494 15.3938C83.5358 15.3938 82.3864 15.7642 81.3601 16.4639C80.3339 17.1636 79.554 18.1926 79.0203 19.5097C78.4867 20.8269 78.1993 22.3498 78.1993 24.0373C78.1993 25.7249 78.4867 27.2478 79.0203 28.5649C79.554 29.8821 80.3339 30.8699 81.3601 31.6108C82.3453 32.3105 83.5358 32.6809 84.8494 32.6809C86.8608 32.6398 88.5028 31.8577 89.6932 30.2937Z" fill="#292C4E"/>
<path d="M99.6272 10.6193H105.99L112.27 30.9111L118.51 10.6193H124.462L115.554 37.2086H108.576L99.6272 10.6193Z" fill="#292C4E"/>
<path d="M126.679 10.6193C127.459 10.5781 128.977 10.5781 131.153 10.5781C133.37 10.5781 134.848 10.5781 135.669 10.6193C138.706 10.7428 140.964 11.4836 142.442 12.8419C143.92 14.2002 144.658 16.0524 144.658 18.3574C144.658 20.333 144.166 21.9794 143.181 23.3789C142.195 24.7372 140.8 25.6427 139.035 26.0543C139.609 26.507 140.143 27.1244 140.759 27.9065C141.333 28.6885 142.154 29.9233 143.181 31.5697C144.289 33.2984 145.356 35.1918 146.506 37.2086H139.815L135.299 28.812C134.807 27.9476 134.396 27.3714 133.986 27.1656C133.616 26.9598 133.041 26.8363 132.261 26.8363V37.2086H126.72V10.6193H126.679ZM134.683 22.391C136.038 22.391 137.105 22.0618 137.885 21.362C138.665 20.6623 139.076 19.7568 139.076 18.5632C139.076 17.493 138.747 16.6698 138.049 16.1347C137.352 15.5585 136.366 15.3115 135.012 15.3115H132.22V22.4322H134.683V22.391Z" fill="#292C4E"/>
<path d="M147.368 35.4799C151.596 28.8531 155.824 22.2675 160.011 15.6408H147.696V10.6193H167.071C167.071 11.1955 167.071 11.7717 167.071 12.3891C162.884 18.9747 158.697 25.6015 154.469 32.1871H167.071V37.2086H147.368C147.368 36.6324 147.368 36.0561 147.368 35.4799Z" fill="#292C4E"/>
<path d="M177.539 26.1366L168.672 10.6193H175.158L180.536 21.1151L185.872 10.6193H192.235L183.327 26.1366V37.2086H177.539V26.1366Z" fill="#292C4E"/>
</svg>
