<svg width="24" height="24" viewBox="0 0 24 24" fill="none" xmlns="http://www.w3.org/2000/svg">
<g id="mail">
<mask id="mask0_1223_3400" style="mask-type:alpha" maskUnits="userSpaceOnUse" x="0" y="0" width="24" height="24">
<rect id="Bounding box" width="24" height="24" rx="12" fill="#D9D9D9"/>
</mask>
<g mask="url(#mask0_1223_3400)">
<path id="mail_2" d="M4 20C3.45 20 2.97917 19.8042 2.5875 19.4125C2.19583 19.0208 2 18.55 2 18V6C2 5.45 2.19583 4.97917 2.5875 4.5875C2.97917 4.19583 3.45 4 4 4H20C20.55 4 21.0208 4.19583 21.4125 4.5875C21.8042 4.97917 22 5.45 22 6V18C22 18.55 21.8042 19.0208 21.4125 19.4125C21.0208 19.8042 20.55 20 20 20H4ZM7.76001 10.35C10.3542 11.9714 13.6458 11.9714 16.24 10.35L19.6014 8.2491C19.8494 8.09414 20 7.82238 20 7.53C20 6.86395 19.2674 6.45789 18.7026 6.8109L14.0583 9.71359C12.7989 10.5007 11.2011 10.5007 9.94175 9.71359L5.29744 6.8109C4.73263 6.45789 4 6.86395 4 7.53C4 7.82238 4.15062 8.09414 4.39856 8.2491L7.76001 10.35Z" fill="#B7B7B7"/>
</g>
</g>
</svg>
