<svg width="18" height="14" viewBox="0 0 18 14" fill="none" xmlns="http://www.w3.org/2000/svg">
<path d="M16.0712 13.569H1.96035C1.13871 13.569 0.459961 12.8902 0.459961 12.0686V1.99453C0.459961 1.17289 1.13871 0.494141 1.96035 0.494141H16.0712C16.8928 0.494141 17.5716 1.17289 17.5716 1.99453V12.0686C17.5716 12.8902 16.8928 13.569 16.0712 13.569ZM1.92463 1.45868C1.63884 1.45868 1.4245 1.67302 1.4245 1.95881V12.0329C1.4245 12.3187 1.63884 12.533 1.92463 12.533H16.0355C16.3212 12.533 16.5356 12.3187 16.5356 12.0329V1.95881C16.5356 1.67302 16.3212 1.45868 16.0355 1.45868H1.92463Z" fill="white"/>
</svg>
