<svg width="67" height="67" viewBox="0 0 67 67" fill="none" xmlns="http://www.w3.org/2000/svg">
<mask id="mask0_14_1042" style="mask-type:alpha" maskUnits="userSpaceOnUse" x="0" y="0" width="67" height="67">
<rect width="67" height="67" fill="#D9D9D9"/>
</mask>
<g mask="url(#mask0_14_1042)">
<path d="M9.93213 59.5933V56.1071C9.93213 55.14 10.171 54.3259 10.6487 53.665C11.1264 53.004 11.8059 52.4025 12.6872 51.8604C15.3077 50.3162 18.0345 49.1911 20.8675 48.4853C23.7006 47.7795 26.3416 47.4266 28.7905 47.4266C31.2394 47.4266 33.8804 47.7795 36.7135 48.4853C39.5465 49.1911 42.2733 50.3162 44.8938 51.8604C45.7751 52.4025 46.4546 53.004 46.9323 53.665C47.41 54.3259 47.6489 55.14 47.6489 56.1071V59.5933H9.93213ZM12.3655 57.1599H45.2155V56.1071C45.2155 55.5061 45.0413 55.0324 44.693 54.686C44.3447 54.3397 43.9281 54.0334 43.4432 53.7673C40.9825 52.3206 38.4341 51.3076 35.798 50.7286C33.1619 50.1495 30.826 49.8599 28.7905 49.8599C26.7549 49.8599 24.419 50.1368 21.7829 50.6905C19.1468 51.2443 16.5984 52.2699 14.1378 53.7673C13.6529 54.0276 13.2363 54.3257 12.888 54.6615C12.5396 54.9974 12.3655 55.4769 12.3655 56.1V57.1599ZM28.7905 40.0331C26.4897 40.0331 24.5965 39.2902 23.1108 37.8044C21.625 36.3187 20.8821 34.3084 20.8821 31.7737H20.0867C19.9299 31.7737 19.7971 31.7193 19.6883 31.6105C19.5795 31.5018 19.5251 31.369 19.5251 31.2122C19.5251 31.0554 19.5795 30.9226 19.6883 30.8139C19.7971 30.7051 19.9299 30.6507 20.0867 30.6507H20.8821C20.9601 29.3638 21.228 28.1789 21.6858 27.0959C22.1436 26.013 22.9208 24.9517 24.0174 23.9122V28.7788C24.0174 28.9356 24.0718 29.0684 24.1806 29.1772C24.2894 29.286 24.4222 29.3404 24.579 29.3404C24.7357 29.3404 24.8685 29.286 24.9773 29.1772C25.0861 29.0684 25.1405 28.9356 25.1405 28.7788V23.2047C25.6591 22.9939 26.23 22.8057 26.853 22.6399C27.476 22.4742 28.1194 22.3913 28.7832 22.3913C29.4471 22.3913 30.0929 22.4742 30.7208 22.6399C31.3486 22.8057 31.9219 22.9939 32.4405 23.2047V28.7788C32.4405 28.9356 32.4949 29.0684 32.6037 29.1772C32.7125 29.286 32.8453 29.3404 33.002 29.3404C33.1588 29.3404 33.2916 29.286 33.4004 29.1772C33.5092 29.0684 33.5636 28.9356 33.5636 28.7788V23.9122C34.6992 24.9467 35.4861 26.0012 35.9244 27.0756C36.3627 28.1501 36.6209 29.3417 36.6989 30.6507H37.4943C37.6511 30.6507 37.7839 30.7051 37.8927 30.8139C38.0015 30.9226 38.0559 31.0554 38.0559 31.2122C38.0559 31.369 38.0015 31.5018 37.8927 31.6105C37.7839 31.7193 37.6511 31.7737 37.4943 31.7737H36.6989C36.6989 34.3084 35.956 36.3187 34.4702 37.8044C32.9845 39.2902 31.0912 40.0331 28.7905 40.0331ZM28.8067 37.5997C30.3947 37.5997 31.7015 37.0831 32.7271 36.0499C33.7527 35.0167 34.2655 33.7083 34.2655 32.1247H23.3155C23.3155 33.7235 23.8337 35.0357 24.8701 36.0613C25.9064 37.0869 27.2186 37.5997 28.8067 37.5997ZM48.8421 43.3321L48.69 41.5242C48.3546 41.4387 48.0047 41.2712 47.6401 41.0216C47.2755 40.772 46.9723 40.5517 46.7305 40.3606L45.0225 41.162L44.0807 39.5826L45.6425 38.6264C45.5645 38.4294 45.5128 38.2353 45.4875 38.0443C45.4621 37.8532 45.4494 37.6426 45.4494 37.4125C45.4494 37.1825 45.4621 36.9816 45.4875 36.81C45.5128 36.6384 45.5645 36.4346 45.6425 36.1987L44.0807 35.2424L45.0225 33.6631L46.7305 34.4645C47.0113 34.2344 47.3284 34.0043 47.682 33.7742C48.0355 33.5441 48.3696 33.3784 48.6842 33.277L48.837 31.493H50.7139L50.7841 33.277C51.1156 33.3784 51.4665 33.5441 51.8369 33.7742C52.2074 34.0043 52.5331 34.2344 52.8139 34.4645L54.5218 33.6631L55.4636 35.2424L53.9018 36.1987C53.9798 36.4346 54.0315 36.6384 54.0568 36.81C54.0822 36.9816 54.0949 37.1825 54.0949 37.4125C54.0949 37.6426 54.0822 37.8532 54.0568 38.0443C54.0315 38.2353 53.9798 38.4294 53.9018 38.6264L55.4636 39.5826L54.5218 41.162L52.8139 40.3606C52.572 40.5517 52.2599 40.7684 51.8774 41.0107C51.4949 41.2531 51.1305 41.4322 50.7841 41.548L50.7139 43.3321H48.8421ZM49.7722 39.7815C50.4858 39.7815 51.059 39.5651 51.4919 39.1322C51.9247 38.6994 52.1411 38.1261 52.1411 37.4125C52.1411 36.6989 51.9247 36.1257 51.4919 35.6928C51.059 35.26 50.4858 35.0435 49.7722 35.0435C49.0586 35.0435 48.4726 35.26 48.0144 35.6928C47.5562 36.1257 47.3271 36.6989 47.3271 37.4125C47.3271 38.1261 47.5562 38.6994 48.0144 39.1322C48.4726 39.5651 49.0586 39.7815 49.7722 39.7815ZM56.6334 27.4452L56.4521 25.4506C55.9296 25.3882 55.3895 25.1971 54.8318 24.8774C54.2742 24.5576 53.8043 24.1735 53.4222 23.725L51.6966 24.5206L50.6905 22.7306L52.2347 21.7245C52.184 21.4828 52.1265 21.2078 52.0622 20.8998C51.9978 20.5917 51.9657 20.3168 51.9657 20.075C51.9657 19.8333 51.9978 19.5457 52.0622 19.2122C52.1265 18.8788 52.184 18.5912 52.2347 18.3495L50.6905 17.3434L51.6966 15.5534L53.4222 16.349C53.8043 15.9005 54.2742 15.5164 54.8318 15.1966C55.3895 14.8769 55.9296 14.6858 56.4521 14.6234L56.6239 12.7048H58.6456L58.903 14.6234C59.4256 14.6858 59.9656 14.8769 60.5233 15.1966C61.0809 15.5164 61.5508 15.9005 61.933 16.349L63.5825 15.5534L64.5886 17.3434L63.1204 18.3495C63.1711 18.5912 63.2159 18.8788 63.2549 19.2122C63.2939 19.5457 63.3135 19.8333 63.3135 20.075C63.3135 20.3168 63.2813 20.6044 63.2169 20.9378C63.1526 21.2712 63.095 21.5588 63.0443 21.8006L64.5886 22.8067L63.5825 24.5966L61.857 23.8011C61.4748 24.2495 61.0049 24.6336 60.4472 24.9534C59.8896 25.2732 59.3495 25.4642 58.827 25.5266L58.6551 27.4452H56.6334ZM57.6363 23.6957C58.668 23.6957 59.5299 23.3507 60.2221 22.6607C60.9142 21.9707 61.2603 21.1098 61.2603 20.0782C61.2603 19.0466 60.9153 18.1847 60.2253 17.4925C59.5352 16.8004 58.6744 16.4543 57.6427 16.4543C56.6111 16.4543 55.7492 16.7993 55.0571 17.4893C54.3649 18.1793 54.0188 19.0402 54.0188 20.0718C54.0188 21.1035 54.3638 21.9654 55.0538 22.6575C55.7439 23.3497 56.6047 23.6957 57.6363 23.6957Z" fill="#7743DC"/>
</g>
</svg>
