<svg width="52" height="52" viewBox="0 0 52 52" fill="none" xmlns="http://www.w3.org/2000/svg">
<path d="M47.1369 0.502563H4.86317C2.45954 0.502563 0.502563 2.45801 0.502563 4.86317V47.1369C0.502563 49.5406 2.45801 51.4975 4.86317 51.4975H47.1369C49.5406 51.4975 51.4975 49.5421 51.4975 47.1369V4.86317C51.4975 2.45801 49.5421 0.502563 47.1369 0.502563ZM4.86317 2.34442H47.1369C48.526 2.34442 49.6557 3.4741 49.6557 4.86317V8.3888H2.34442V4.86317C2.34442 3.4741 3.4741 2.34442 4.86317 2.34442ZM4.86317 49.6557C3.4741 49.6557 2.34442 48.526 2.34442 47.1369V10.2291H25.0791V49.6557H4.86317ZM49.6557 47.1369C49.6557 48.526 48.526 49.6557 47.1369 49.6557H26.921V30.8641H49.6557V47.1369ZM26.921 29.0222V10.2291H49.6557V29.0207H26.921V29.0222Z" fill="white"/>
<path d="M38.3559 26.8196C37.5731 26.8196 36.7919 26.6677 36.0628 26.3653C35.8832 26.2901 35.7006 26.2425 35.5148 26.221L34.6108 26.1166C33.8971 26.0338 33.3599 25.4305 33.3599 24.7122V23.8005C33.3599 21.7913 34.9945 20.1552 37.0052 20.1552H39.7296C41.7388 20.1552 43.375 21.7898 43.375 23.8005V24.7122C43.375 25.4305 42.8378 26.0338 42.124 26.1166L41.1709 26.2272C40.9959 26.2471 40.8255 26.2916 40.6628 26.3592C39.9292 26.6661 39.1418 26.8196 38.3559 26.8196ZM35.2002 24.3316L35.7236 24.3914C36.0812 24.4329 36.4296 24.5234 36.7612 24.6616C37.7788 25.0852 38.9392 25.0837 39.9491 24.6616C40.2714 24.5265 40.6091 24.439 40.956 24.3991L41.53 24.3331V23.8036C41.53 22.809 40.7212 22.0001 39.7266 22.0001H37.0021C36.0075 22.0001 35.1987 22.809 35.1987 23.8036V24.3316H35.2002Z" fill="white"/>
<path d="M38.3651 19.7147C36.8625 19.7147 35.6438 18.5374 35.5916 17.0363L35.5317 15.3004C35.5056 14.5406 35.7819 13.8223 36.3084 13.2758C36.8364 12.7294 37.5455 12.4286 38.3053 12.4286H38.4265C39.1863 12.4286 39.8954 12.7294 40.4234 13.2758C40.9514 13.8223 41.2277 14.5406 41.2 15.3004L41.1402 17.0363C41.0865 18.5374 39.8693 19.7147 38.3651 19.7147ZM38.3053 14.2704C38.0505 14.2704 37.811 14.3718 37.633 14.5559C37.4549 14.7401 37.3628 14.9811 37.372 15.2374L37.4319 16.9734C37.4488 17.4784 37.8586 17.8744 38.3651 17.8744C38.8701 17.8744 39.2799 17.4784 39.2983 16.9734L39.3582 15.2374C39.3674 14.9826 39.2738 14.7401 39.0973 14.5559C38.9192 14.3718 38.6813 14.2704 38.425 14.2704H38.3053Z" fill="white"/>
<path d="M13.6948 41.1386C12.4316 41.1386 11.1684 40.8945 9.99117 40.4049C9.62279 40.2514 9.24675 40.1547 8.86303 40.1102L7.30205 39.9306C6.40721 39.8278 5.7334 39.0711 5.7334 38.1716V36.5984C5.7334 33.4964 8.25675 30.973 11.3587 30.973H16.0632C19.1652 30.973 21.6885 33.4964 21.6885 36.5984V38.1716C21.6885 39.0711 21.0147 39.8278 20.1214 39.9306L18.476 40.1209C18.1122 40.1624 17.7561 40.256 17.4185 40.3972C16.2351 40.8914 14.9642 41.1386 13.6948 41.1386ZM7.57679 38.1072L9.07484 38.2806C9.62893 38.3451 10.1723 38.4847 10.6865 38.6996C12.6081 39.4978 14.7984 39.4962 16.7063 38.6981C17.2036 38.4909 17.727 38.3527 18.2642 38.2913L19.8482 38.1087V36.5984C19.8482 34.5125 18.1506 32.8149 16.0647 32.8149H11.3603C9.27438 32.8149 7.57679 34.5125 7.57679 36.5984V38.1072Z" fill="white"/>
<path d="M13.7117 29.9845C11.4785 29.9845 9.66882 28.2363 9.59055 26.0046L9.48617 23.007C9.44627 21.8788 9.85762 20.8105 10.6404 19.9986C11.4232 19.1866 12.4777 18.74 13.6058 18.74H13.8145C14.9427 18.74 15.9971 19.1866 16.7799 19.9986C17.5643 20.8105 17.9741 21.8788 17.9357 23.007L17.8313 26.0046C17.7546 28.2363 15.945 29.9845 13.7117 29.9845ZM13.6073 20.5834C12.9826 20.5834 12.3994 20.8305 11.9665 21.2802C11.5322 21.7299 11.3065 22.3209 11.328 22.944L11.4324 25.9417C11.4754 27.1772 12.4777 28.1442 13.7132 28.1442C14.9488 28.1442 15.9511 27.1772 15.9941 25.9417L16.0985 22.9456C16.1199 22.3209 15.8928 21.7299 15.4599 21.2818C15.0256 20.832 14.4438 20.5849 13.8192 20.5849H13.6073V20.5834Z" fill="white"/>
<path d="M38.3543 47.6066C37.5715 47.6066 36.7903 47.4546 36.0612 47.1523C35.8816 47.0771 35.699 47.0295 35.5133 47.008L34.6092 46.9036C33.8955 46.8207 33.3583 46.2175 33.3583 45.4992V44.5875C33.3583 42.5783 34.9929 40.9421 37.0036 40.9421H39.728C41.7372 40.9421 43.3734 42.5768 43.3734 44.5875V45.4992C43.3734 46.2175 42.8362 46.8207 42.1225 46.9036L41.1693 47.0141C40.9943 47.0341 40.8239 47.0786 40.6613 47.1461C39.9276 47.4546 39.1402 47.6066 38.3543 47.6066ZM35.2001 45.1186L35.7235 45.1784C36.0796 45.2199 36.4296 45.3104 36.7611 45.4486C37.7787 45.8722 38.9391 45.8706 39.9491 45.4486C40.2699 45.3135 40.6091 45.226 40.956 45.1861L41.53 45.1201V44.5906C41.53 43.596 40.7211 42.7871 39.7265 42.7871H37.0021C36.0075 42.7871 35.1986 43.596 35.1986 44.5906V45.1186H35.2001Z" fill="white"/>
<path d="M38.3651 40.5017C36.8625 40.5017 35.6438 39.3244 35.5916 37.8233L35.5317 36.0873C35.5056 35.3276 35.7819 34.6092 36.3099 34.0628C36.8379 33.5164 37.547 33.2156 38.3068 33.2156H38.428C39.1878 33.2156 39.8969 33.5164 40.4249 34.0628C40.9529 34.6092 41.2292 35.3276 41.2031 36.0873L41.1433 37.8233C41.0865 39.3259 39.8678 40.5017 38.3651 40.5017ZM38.3037 35.0574C38.0489 35.0574 37.8095 35.1587 37.633 35.3429C37.4549 35.5271 37.3628 35.7681 37.372 36.0244L37.4319 37.7604C37.4488 38.2653 37.8586 38.6613 38.3651 38.6613C38.8716 38.6613 39.2799 38.2653 39.2983 37.7604L39.3582 36.0244C39.3674 35.7696 39.2738 35.5271 39.0973 35.3429C38.9192 35.1587 38.6813 35.0574 38.425 35.0574H38.3037Z" fill="white"/>
<path d="M14.9489 6.51778H14.9274C14.292 6.51778 13.7762 6.00206 13.7762 5.36662C13.7762 4.73118 14.292 4.21545 14.9274 4.21545H14.9489C15.5843 4.21545 16.1001 4.73118 16.1001 5.36662C16.1001 6.00206 15.5843 6.51778 14.9489 6.51778Z" fill="white"/>
<path d="M6.30754 6.51778H6.28605C5.65061 6.51778 5.13489 6.00206 5.13489 5.36662C5.13489 4.73118 5.65061 4.21545 6.28605 4.21545H6.30754C6.94298 4.21545 7.4587 4.73118 7.4587 5.36662C7.4587 6.00206 6.94452 6.51778 6.30754 6.51778Z" fill="white"/>
<path d="M10.6282 6.51778H10.6067C9.97129 6.51778 9.45557 6.00206 9.45557 5.36662C9.45557 4.73118 9.97129 4.21545 10.6067 4.21545H10.6282C11.2637 4.21545 11.7794 4.73118 11.7794 5.36662C11.7794 6.00206 11.2637 6.51778 10.6282 6.51778Z" fill="white"/>
<path d="M46.5675 14.0141H46.5461C46.038 14.0141 45.6251 13.6012 45.6251 13.0932C45.6251 12.5851 46.038 12.1722 46.5461 12.1722H46.5675C47.0756 12.1722 47.4885 12.5851 47.4885 13.0932C47.4885 13.6012 47.0756 14.0141 46.5675 14.0141Z" fill="white"/>
<path d="M21.71 14.0141H21.6885C21.1805 14.0141 20.7676 13.6012 20.7676 13.0932C20.7676 12.5851 21.1805 12.1722 21.6885 12.1722H21.71C22.218 12.1722 22.6309 12.5851 22.6309 13.0932C22.6309 13.6012 22.218 14.0141 21.71 14.0141Z" fill="white"/>
<path d="M46.5675 34.735H46.5461C46.038 34.735 45.6251 34.3222 45.6251 33.8141C45.6251 33.3061 46.038 32.8932 46.5461 32.8932H46.5675C47.0756 32.8932 47.4885 33.3061 47.4885 33.8141C47.4885 34.3222 47.0756 34.735 46.5675 34.735Z" fill="white"/>
</svg>
