<svg width="111" height="100" viewBox="0 0 111 100" fill="none" xmlns="http://www.w3.org/2000/svg">
<mask id="mask0_6_192" style="mask-type:alpha" maskUnits="userSpaceOnUse" x="0" y="0" width="97" height="97">
<rect width="97" height="97" fill="#D9D9D9"/>
</mask>
<g mask="url(#mask0_6_192)">
<path d="M40.9607 84.875L39.4996 73.1853C38.2093 72.7967 36.8142 72.1852 35.3141 71.351C33.8141 70.5167 32.5381 69.6229 31.4862 68.6695L20.7058 73.2552L13.1665 60.1198L22.4857 53.0935C22.3665 52.3629 22.2681 51.6102 22.1903 50.8356C22.1126 50.0609 22.0737 49.3083 22.0737 48.5777C22.0737 47.8989 22.1126 47.1851 22.1903 46.4364C22.2681 45.6877 22.3665 44.8444 22.4857 43.9065L13.1665 36.8802L20.7058 23.9002L31.4085 28.4083C32.6158 27.403 33.9215 26.4963 35.3258 25.6879C36.73 24.8796 38.0953 24.2552 39.4219 23.8147L40.9607 12.125H56.0394L57.5006 23.8924C59.0499 24.4365 60.4191 25.0609 61.6083 25.7656C62.7975 26.4703 64.0217 27.3512 65.2808 28.4083L76.2943 23.9002L83.8336 36.8802L76.3566 42.5385C75.5482 42.2639 74.7191 42.0165 73.8693 41.7963C73.0196 41.5761 72.1594 41.3908 71.2889 41.2406L78.5872 35.7687L74.5688 28.8979L64.2548 33.2194C63.0319 31.8773 61.4243 30.6195 59.432 29.4459C57.4396 28.2722 55.5548 27.4937 53.7776 27.1103L52.5417 16.1667H44.4817L43.2226 27.0325C41.1862 27.4678 39.3143 28.1686 37.607 29.135C35.8996 30.1013 34.2014 31.4291 32.5121 33.1183L22.4313 28.8979L18.413 35.7687L27.1803 42.3131C26.8435 43.2199 26.6077 44.2044 26.473 45.2667C26.3383 46.3289 26.2709 47.4326 26.2709 48.5777C26.2709 49.6037 26.3383 50.6219 26.473 51.6323C26.6077 52.6427 26.8176 53.6272 27.1026 54.5858L18.413 61.2313L22.4313 68.1021L32.4344 63.8583C33.7351 65.1589 35.0939 66.2639 36.5111 67.1733C37.9283 68.0827 39.4633 68.8146 41.1162 69.3689C41.2872 72.3277 41.9103 75.1284 42.9855 77.771C44.0607 80.4136 45.4896 82.7816 47.272 84.875H40.9607ZM43.2381 57.2285C43.4868 56.5549 43.7679 55.9188 44.0814 55.3203C44.3949 54.7218 44.7408 54.135 45.119 53.5599C44.2744 53.021 43.5983 52.3176 43.0905 51.4496C42.5827 50.5817 42.3287 49.5985 42.3287 48.5C42.3287 46.816 42.9182 45.3845 44.097 44.2057C45.2758 43.0269 46.7072 42.4375 48.3912 42.4375C49.438 42.4375 50.4121 42.6823 51.3137 43.172C52.2153 43.6616 52.9356 44.3288 53.4745 45.1734C54.0496 44.7951 54.6455 44.4622 55.2621 44.1746C55.8787 43.887 56.4979 43.6267 57.1197 43.3935C56.27 41.8597 55.0653 40.6433 53.5056 39.7443C51.9459 38.8453 50.2411 38.3958 48.3912 38.3958C45.5569 38.3958 43.1643 39.3752 41.2133 41.3338C39.2625 43.2925 38.2871 45.6812 38.2871 48.5C38.2871 50.3861 38.7288 52.0999 39.6122 53.6415C40.4958 55.183 41.7044 56.3787 43.2381 57.2285ZM67.7757 77.8021L77.8022 67.7756L67.7757 57.7492L65.5683 59.9566L71.9106 66.2212H57.6715V69.3301H71.8096L65.5683 75.5947L67.7757 77.8021ZM67.7757 84.875C63.0656 84.875 59.0382 83.2026 55.6934 79.8579C52.3487 76.5131 50.6763 72.4857 50.6763 67.7756C50.6763 63.0655 52.3487 59.0381 55.6934 55.6934C59.0382 52.3486 63.0656 50.6762 67.7757 50.6762C72.4858 50.6762 76.5132 52.3486 79.8579 55.6934C83.2027 59.0381 84.8751 63.0655 84.8751 67.7756C84.8751 72.4857 83.2027 76.5131 79.8579 79.8579C76.5132 83.2026 72.4858 84.875 67.7757 84.875Z" fill="#7743DC"/>
</g>
<path d="M80.7479 81.7725C80.5305 75.6867 79.7637 69.7229 81.3986 63.8374C81.6884 62.7942 81.994 62.1799 82.4967 61.2752C82.8973 60.554 83.5708 60.5833 84.0421 59.9941C84.4866 59.4385 83.3557 61.55 83.2694 61.7226C81.4466 65.368 80.2374 69.3448 78.2671 72.9066C77.8262 73.7036 77.8197 74.3073 77.8197 75.1841C77.8197 76.5342 79.3263 75.4021 80.0158 74.9807C81.8886 73.8363 83.793 71.7184 84.6928 69.6937C85.0381 68.9168 86.5996 66.6117 85.5062 67.3146C83.5677 68.5608 82.944 70.0113 82.944 72.2559" stroke="#F5F5F5" stroke-width="3" stroke-linecap="round"/>
<path d="M63.1137 62.9161C63.3656 62.0976 63.9107 60.821 64.611 60.2897C65.5665 59.5649 67.4863 59.7937 68.5628 59.9584C69.9058 60.1639 70.6892 60.8311 70.2012 62.2227C69.6593 63.768 68.5062 64.6605 67.041 65.3461C64.5446 66.5142 61.412 67.7377 58.7446 66.4752C56.8627 65.5844 55.3963 64.2449 56.1428 62.0693C56.7194 60.3889 57.809 58.49 59.3583 57.5284C60.1248 57.0526 61.4903 56.6319 62.4019 56.8656C63.2094 57.0727 61.2889 59.97 61.1133 60.1793C58.96 62.7457 55.8508 63.6992 52.6451 62.6952C51.1141 62.2157 47.8057 60.8823 49.0369 58.7556C50.5964 56.0619 53.5126 53.7209 56.7258 54.5829C57.5696 54.8093 56.8161 55.9305 56.5724 56.3993C55.8535 57.7817 54.6126 58.9631 53.0808 59.357C52.534 59.4976 51.3478 59.801 51.8106 58.8661C52.3393 57.7981 53.3337 56.9176 54.1915 56.1232C55.3164 55.0812 56.5181 54.1231 57.8487 53.3557C58.4954 52.9827 60.5345 52.142 59.9658 52.6254C57.8226 54.4471 55.6648 56.1646 53.6883 58.1788C52.7458 59.1393 51.8236 59.8763 50.6631 60.5291C49.3466 61.2696 53.3194 59.0876 54.6824 58.4366C56.944 57.3561 59.315 56.4734 61.4078 55.0738C61.9624 54.703 63.5747 53.6221 62.9235 53.7668C62.605 53.8376 62.1989 54.1046 61.9233 54.2454C60.3572 55.0458 58.8867 56.042 57.4069 56.9884C55.9807 57.9004 51.7445 60.702 53.1606 59.7743C56.0239 57.8983 58.9217 56.0924 61.7208 54.1166C63.1513 53.1067 64.5693 52.0782 65.9487 50.9993C65.9715 50.9815 67.0748 50.0842 66.906 50.1525C66.2807 50.4053 65.6797 50.7959 65.1019 51.1343C62.8695 52.4418 60.6905 53.8482 58.5299 55.2702C56.9329 56.3212 55.3793 57.4202 53.8724 58.5961C53.8714 58.5969 53.0961 59.1844 53.3262 59.0809C53.8189 58.8592 54.2562 58.5251 54.6946 58.2156C56.4149 57.0013 58.1558 55.8194 59.8246 54.5338C60.6479 53.8996 61.4711 53.2489 62.2485 52.5579C62.2608 52.547 61.572 52.7151 61.506 52.742C59.0412 53.7455 56.4383 55.1001 54.5106 56.9577C54.2936 57.1668 53.7105 57.6012 53.9951 57.7002C54.5442 57.8912 56.0513 57.0016 56.4558 56.8288C60.353 55.1646 64.1493 53.3183 67.8755 51.3061C70.1082 50.1005 63.423 53.7424 61.2299 55.0186C59.405 56.0805 57.5791 57.1461 55.7071 58.1236C54.352 58.8312 52.8774 59.3837 51.5774 60.1916C50.9551 60.5782 51.7077 60.4215 51.964 60.345C53.3602 59.9282 54.6676 59.2177 55.9465 58.5347C57.6473 57.6265 59.32 56.6669 60.966 55.6629C61.6743 55.2309 62.7205 54.7797 63.3224 54.1779C63.8115 53.6888 62.1975 54.9842 61.6533 55.4113C59.4351 57.1522 57.2642 58.9544 55.0751 60.7316C54.1503 61.4823 53.222 62.2291 52.326 63.0143C52.3133 63.0254 51.7152 63.4301 52.0192 63.2781C56.2202 61.1776 60.1991 58.6273 64.2367 56.2336C65.7461 55.3387 67.2422 54.4012 68.8021 53.595C69.0764 53.4532 69.9087 53.0742 69.606 53.1347C69.1552 53.2249 68.5251 53.6815 68.1578 53.8834C65.3065 55.4507 62.502 57.1079 59.6896 58.7434C57.7006 59.9001 55.714 61.0598 53.7006 62.1736C53.158 62.4737 51.4742 63.2178 52.0806 63.0879C53.0568 62.8787 54.2036 62.0035 55.0567 61.56C58.6814 59.6751 62.2611 57.7338 65.7769 55.6507C68.6557 53.9449 77.3447 48.9219 74.3985 50.5084C72.6814 51.433 71.0892 52.5879 69.4219 53.6011C67.9128 54.5181 66.3981 55.4262 64.8933 56.3502C63.8516 56.9898 62.8277 57.7192 61.7208 58.2463C61.2026 58.4931 61.4205 58.266 61.7637 58.0684C63.521 57.0566 65.3181 56.1087 67.0901 55.1229C70.8973 53.0048 74.7824 51.0281 78.5896 48.9129C78.7362 48.8315 78.2617 48.9841 78.0987 49.0234C76.8948 49.3136 75.6692 49.5441 74.4414 49.7045C72.8384 49.914 71.2333 49.9673 69.6182 49.9254C68.65 49.9003 67.1106 50.0731 66.1819 49.6861C66.1012 49.6525 66.3529 49.6481 66.4396 49.637C66.9193 49.5758 67.3851 49.4786 67.8571 49.3732C69.1672 49.0806 70.4849 48.8359 71.8028 48.5816C72.3442 48.4771 72.8831 48.3627 73.4228 48.2502C73.7507 48.1819 73.0094 48.4322 73.0055 48.4343C72.2 48.8669 71.4688 49.4491 70.7289 49.9807C69.0248 51.2051 67.2854 52.332 65.4455 53.3434C64.4653 53.8822 63.4672 54.3917 62.5124 54.9757C62.1708 55.1845 61.8118 55.3861 62.451 55.3377C66.3898 55.0393 70.2941 54.1516 74.2389 53.9938C74.521 53.9826 75.2131 53.9174 74.7851 54.3559C73.7292 55.4375 72.2022 56.1872 70.8946 56.9025C68.8084 58.0436 66.6163 58.6349 64.4453 59.5288C61.7757 60.6281 69.7375 57.2148 72.3305 55.9452C75.6711 54.3096 79.0076 52.6662 82.4003 51.1404C82.9255 50.9042 84.5301 50.2732 83.9773 50.4348C83.2112 50.6587 82.4745 50.9256 81.7314 51.2202C78.8041 52.3807 75.8683 53.4766 72.8337 54.3313C69.2794 55.3324 65.6627 56.028 62.0092 56.5466C61.1311 56.6712 58.5001 57.068 59.3767 56.9331C60.1246 56.8181 60.8853 56.5527 61.6103 56.3563C64.3031 55.627 66.9821 54.8175 69.7042 54.2025C69.8657 54.166 73.8149 53.2727 73.8707 53.5704C73.947 53.977 70.9165 55.442 70.6982 55.5647C67.4027 57.4185 63.7801 58.8329 60.6653 60.9893C60.47 61.1245 60.0447 61.3668 59.886 61.5784C59.8516 61.6242 60.0011 61.5805 60.0578 61.5722C60.6995 61.4783 61.3374 61.3386 61.9724 61.2102C65.0091 60.5959 67.953 59.8323 70.8885 58.8538C70.9955 58.8182 69.8598 59.2612 69.7533 59.3079C67.2633 60.3991 64.7754 61.501 62.2239 62.4436C58.1778 63.9384 54.165 64.6983 49.8837 64.9902C49.7231 65.0011 49.3733 65.0928 49.6628 64.9656C49.9823 64.8254 50.2711 64.5906 50.5158 64.3459C51.3156 63.546 51.2157 62.475 51.1846 61.4188C51.1788 61.2205 49.8235 62.9841 49.7058 63.2536C48.716 65.5191 48.6712 68.3569 49.1106 70.7584C49.4135 72.4139 49.8751 74.0015 50.6753 75.4833C50.7512 75.6238 51.1446 76.6402 51.3626 76.4222C52.6162 75.1686 53.1969 72.9341 53.676 71.3106C54.1949 69.5523 54.6452 67.6508 54.124 65.8554C53.9037 65.0968 53.982 64.0701 53.4183 63.4438C52.326 62.2302 51.1942 64.8394 51.1846 65.7634C51.1574 68.4063 51.9688 70.8481 52.4426 73.4277C52.4602 73.5233 52.489 74.5378 52.4242 74.0843C52.1413 72.1041 52.7734 69.9547 53.2281 68.0584C53.6123 66.4559 54.0055 64.8521 54.4737 63.272C54.766 62.2856 53.4309 65.0496 53.001 65.9843C52.3384 67.4251 52.1396 69.0264 51.9026 70.5804C51.8042 71.2257 51.5828 72.0073 51.9578 72.6115C52.2563 73.0924 52.8094 72.4462 53.0317 72.1943C53.9555 71.1473 54.5974 69.8188 55.3205 68.6352C56.5179 66.6754 57.6914 64.7111 58.7017 62.6461C59.1837 61.6609 59.627 60.6563 59.9903 59.6209C60.1604 59.1361 60.0899 59.0751 59.8369 59.5534C57.8032 63.3983 56.6433 67.8158 55.6519 72.0224C55.2071 73.9099 54.621 76.06 54.621 78.0238C54.621 78.33 55.0805 77.8796 55.1242 77.8397C55.9258 77.1073 56.5802 76.1969 57.2412 75.3422C59.6593 72.2158 61.9527 68.9942 64.2796 65.8002C64.9182 64.9236 66.7414 62.2386 66.2248 63.1922C65.8266 63.9275 65.3135 64.6165 64.8503 65.3093C63.05 68.0018 61.3342 70.739 59.7142 73.5443C58.1321 76.2837 56.6393 79.0784 54.9401 81.7486C54.333 82.7026 53.7061 83.6758 52.9151 84.4915C52.9058 84.5011 52.6034 84.8648 52.6451 84.6265C52.7838 83.8337 52.9063 83.0375 53.1115 82.2579C54.2617 77.887 56.0838 73.6865 57.4315 69.3715C57.6901 68.5435 57.8644 66.8933 58.7385 66.4077C58.8489 66.3463 58.4325 67.1121 58.4255 67.1256C57.9628 68.0307 57.6375 68.9767 57.3271 69.9422C57.2019 70.3318 57.0609 70.717 56.9405 71.1081C56.9204 71.1736 57.2163 70.6579 57.2474 70.6111C58.9145 68.0993 60.5151 65.5506 62.1442 63.0143C62.6262 62.2638 63.0711 61.4847 63.5862 60.7561C63.6754 60.6299 64.0509 59.9695 64.2796 59.9829C64.3253 59.9856 64.3121 60.0729 64.3042 60.1179C64.2371 60.4982 64.1195 60.8776 64.0342 61.2531C63.5784 63.2587 63.2288 65.2897 62.9174 67.322C62.2289 71.8135 61.2659 76.2747 60.6469 80.7729C60.6018 81.1004 60.221 82.5812 60.8187 82.7733C61.0261 82.84 61.3044 82.6862 61.4692 82.5892C63.0497 81.6587 64.3818 80.1669 65.6296 78.8583C68.5843 75.7599 71.2776 72.4247 73.926 69.0647C76.5388 65.7498 79.2084 62.4423 81.578 58.9459C82.1361 58.1224 82.6358 57.276 83.1244 56.4116C83.1803 56.3125 81.8906 57.2258 81.8296 57.2706C76.4239 61.2499 71.4291 66.0164 66.8017 70.8627C64.7338 73.0284 62.7554 75.277 60.7942 77.539C59.9416 78.5223 58.9918 79.4899 58.2169 80.5397C58.0078 80.8231 58.8469 80.2157 59.1251 79.9997C62.1593 77.6434 64.762 74.6335 67.3846 71.8506C72.1437 66.8006 77.0614 61.7069 81.2589 56.1661C81.3813 56.0045 81.7728 55.6177 81.5719 55.6445C80.5302 55.7834 79.3317 56.552 78.4178 56.9761C71.8824 60.0085 65.3348 63.0859 59.0944 66.6961C58.2497 67.1848 57.7089 67.5042 56.9283 68.0154C56.663 68.1891 55.8615 68.6695 56.1674 68.5861C56.9414 68.375 57.8045 67.5521 58.4378 67.1134C62.406 64.364 66.4967 61.5377 70.0846 58.3016C70.2244 58.1755 70.4055 58.0629 70.4651 57.8843C70.4851 57.824 70.3358 57.9013 70.281 57.9334C69.0194 58.6723 67.8666 59.709 66.8078 60.7009C62.8693 64.3906 60.1346 68.8248 58.0696 73.7774C58.0507 73.8229 57.2014 75.7036 57.6033 75.6183C58.8175 75.3608 60.1487 74.3305 61.2114 73.7529C63.2506 72.6445 65.2752 71.5116 67.2864 70.3534C69.0309 69.3488 67.9665 69.9587 69.4342 69.1015C69.5064 69.0593 70.3294 68.4459 69.9251 68.9849C67.6468 72.0227 65.8839 75.0206 65.4701 78.8829C65.338 80.1155 66.039 81.3148 67.4705 80.9324C68.7305 80.5959 69.7024 79.3577 70.4405 78.3736C72.5259 75.593 73.9768 72.3792 75.5951 69.3224" stroke="#F5F5F5" stroke-width="3" stroke-linecap="round"/>
<path d="M70.6247 54.9634C70.2152 55.2412 69.4051 55.6789 69.3054 56.2275C69.1038 57.3359 68.4959 58.4251 68.0351 59.4552C66.641 62.5722 65.2333 65.806 64.8442 69.2365C64.7119 70.4032 64.5186 72.2369 64.9915 73.3602C65.01 73.4041 65.0945 73.6388 65.1633 73.5504C65.5738 73.0226 65.7019 71.9502 65.9365 71.3474C66.9452 68.7561 68.0663 66.1938 69.2992 63.7015C70.3988 61.4788 71.6166 58.7723 73.5579 57.1234C74.3013 56.4919 75.2479 56.323 76.1903 56.2459C77.4299 56.1445 78.7758 56.0699 80.0133 56.2397C81.4549 56.4376 79.4221 57.2857 79.0069 57.424C78.0053 57.7579 77.129 57.1382 76.221 56.7552C76.1306 56.717 75.7142 56.6521 75.8467 56.4975C76.1596 56.1324 76.7265 55.8835 77.1292 55.6384C77.8904 55.1751 77.3615 55.5112 76.9206 55.7734C74.7512 57.0633 72.732 58.6451 70.9315 60.4125C69.1713 62.1403 67.4912 64.0769 66.2985 66.2481C66.0316 66.7342 65.3474 67.8523 65.3474 68.4695C65.3474 68.798 65.8916 68.0972 66.1329 67.8743C67.7239 66.4047 69.3145 64.9352 70.9192 63.4806C71.7273 62.7481 74.2778 60.7002 73.3983 61.3452C71.7861 62.5275 70.2396 63.7842 69.0415 65.4074C68.9462 65.5365 68.89 65.6807 69.066 65.5179C69.9536 64.6969 71.0164 63.9984 71.9869 63.2843C73.5312 62.148 75.1237 61.0735 76.5953 59.8418C76.8528 59.6263 77.6608 59.166 77.3256 59.1484C77.0848 59.1357 76.3134 59.7253 76.2088 59.7927C71.3927 62.8917 67.4568 67.1641 63.617 71.3597C62.2593 72.8432 60.8369 74.287 59.5424 75.827C59.1346 76.3121 58.9122 76.6607 59.6713 76.4283C60.3661 76.2156 61.005 75.8774 61.6656 75.5815C62.4568 75.2271 61.589 76.0202 61.4079 76.2688C60.267 77.8347 59.4157 79.7467 59.5915 81.724C59.6186 82.0291 59.7345 82.3595 59.9106 82.6138C60.0092 82.7562 60.2008 82.4003 60.2665 82.3315C61.2701 81.2813 62.0729 79.8852 62.8131 78.6436C62.8238 78.6256 63.2985 77.915 63.1445 77.9624C62.6485 78.115 62.2184 78.8087 61.9172 79.1897C61.813 79.3214 61.3731 79.7603 61.3956 79.9629C61.4076 80.0711 61.58 79.8462 61.6656 79.7788C62.0971 79.4388 62.5169 79.0834 62.942 78.7356C64.6349 77.3505 66.297 75.9327 67.9615 74.5138C68.3349 74.1955 68.719 73.8892 69.0906 73.5688C69.1384 73.5275 69.0289 73.6791 68.9985 73.7345C67.8719 75.7889 66.9617 77.8188 66.1206 80.012C66.0533 80.1876 64.9353 83.3656 65.2799 83.4422C65.5349 83.4988 66.112 83.0339 66.2801 82.9206C68.4196 81.4791 70.4312 79.7653 72.2569 77.9501C75.3776 74.8476 78.1497 71.3829 80.6024 67.7331C81.979 65.6847 83.0676 63.5338 84.2412 61.3759C84.4088 61.0677 85.31 60.0526 84.4315 60.3879C77.4601 63.0487 70.7055 66.7741 65.2492 71.8997C63.2038 73.8212 60.3718 76.5267 60.1376 79.5701C60.0753 80.3804 60.8702 79.9888 61.457 79.8033C63.8851 79.0359 66.1889 77.8342 68.434 76.6554C74.0572 73.7028 79.5768 70.5166 84.7506 66.8249C87.11 65.1414 89.5997 63.405 91.6355 61.3206C92.4889 60.4469 91.2873 61.1544 90.936 61.3452C84.4779 64.8533 78.9711 69.4006 73.4904 74.2499C71.8653 75.6877 70.2415 77.124 68.6979 78.6497C68.6846 78.6628 67.5964 79.898 67.8879 79.3247C69.1787 76.7861 70.7552 74.4094 71.9685 71.8261C72.1276 71.4875 72.2616 71.127 72.4594 70.8074C72.5976 70.5843 72.9654 70.4171 73.0363 70.1693C73.4449 68.7391 71.6469 72.8454 71.361 74.3052C71.3485 74.3694 71.1458 75.3437 71.4347 75.1336C72.5488 74.3233 73.5055 73.185 74.466 72.2127C76.5638 70.089 78.6144 67.9186 80.5165 65.6161C81.1313 64.8718 81.7476 64.1116 82.2592 63.2904C82.3377 63.1643 82.571 62.8296 82.431 62.8793C81.6728 63.1483 80.9209 64.1154 80.3876 64.6588C79.2344 65.8339 78.2166 67.104 77.344 68.5002C77.1438 68.8205 76.9183 69.1551 76.7488 69.4943C76.5699 69.8519 77.1521 68.8035 77.3624 68.4633C77.6799 67.9497 78.0192 67.4554 78.3013 66.9477C78.3595 66.8428 78.7364 66.2326 78.7983 66.377C79.2144 67.3478 79.1199 68.6819 79.3751 69.7152C79.6648 70.8882 80.0806 72.0239 80.541 73.1392C80.7746 73.7051 81.216 74.4421 81.216 75.0722C81.216 75.9104 80.7301 76.6273 80.2342 77.2506C80.199 77.2949 79.8871 77.6471 80.1544 77.5267C80.8821 77.1993 81.5856 76.7026 82.2408 76.2565C83.1052 75.668 83.8534 74.8841 84.7628 74.3788C85.6099 73.9082 84.0681 74.5664 83.9037 74.6365C81.4308 75.6917 78.8884 76.6006 76.5033 77.852C74.8667 78.7106 73.3786 79.7182 73.0485 81.5338C72.9659 81.9885 73.023 81.9459 73.3615 81.6074C73.6156 81.3533 74.0502 81.0154 74.2083 80.6992C74.6141 79.8877 75.0576 79.1113 75.4233 78.2754C75.6281 77.8073 75.5951 77.1755 75.5951 76.6677C75.5951 76.1414 76.7417 76.1513 77.0065 76.4161C77.4447 76.8543 77.3624 78.0417 77.3624 78.6067C77.3624 79.2973 77.3802 79.8051 77.0065 80.3924C76.4434 81.2772 75.5321 81.8757 75.0613 82.8408C74.977 83.0135 74.7376 83.4256 74.7606 83.6324C74.7789 83.7969 75.7261 83.2092 75.7547 83.1906C76.495 82.7084 77.2416 82.2392 77.9883 81.767C78.4188 81.4947 78.8488 81.0894 79.3383 80.9263C79.5632 80.8513 80.1891 80.6637 79.9642 80.5888C79.7294 80.5105 79.284 80.5852 79.0499 80.6011C77.9055 80.6786 76.7404 80.9888 75.6319 81.2638C74.1031 81.643 72.5881 82.0438 71.0419 82.3499C70.1716 82.5223 69.269 82.6662 68.4463 83.0126C67.8909 83.2465 67.1812 83.792 66.587 83.792C66.2011 83.792 65.8302 83.8164 65.4579 83.706C65.1644 83.6191 65.2223 83.5285 65.0406 83.2949C64.8099 82.9983 64.466 83.1889 64.2183 83.3747C64.0716 83.4847 63.7011 84.0896 63.6047 84.1172C63.5397 84.1358 63.0524 84.2703 63.0524 84.3442C63.0524 84.4433 65.876 84.5737 66.096 84.5897C67.6863 84.7051 69.2754 84.6756 70.8701 84.6756C71.5484 84.6756 72.5447 84.6213 73.1897 84.4301C73.3722 84.3761 73.9446 84.3442 73.7542 84.3442C72.6093 84.3442 71.4209 84.9073 70.2933 85.0929C67.6465 85.5284 65.2902 84.7878 62.7395 84.3442C62.0227 84.2196 62.2301 82.8381 62.2301 82.2456C62.2301 82.1147 62.3077 81.5841 62.1811 81.8774C61.7107 82.9668 61.1691 84.0799 60.4751 85.0438C60.1155 85.5433 59.6465 85.2932 59.2233 84.9824C57.4395 83.6724 56.5501 81.409 56.0017 79.3492C55.176 76.2477 54.9905 72.7668 55.6274 69.6047C55.6891 69.2983 56.4211 68.4118 56.1552 68.9297C55.503 70.1997 54.5742 71.3189 53.8786 72.5686C53.1491 73.8792 52.5564 75.2551 52.007 76.6492C51.7339 77.3422 51.5149 78.5048 50.9883 79.0792C50.8625 79.2165 50.9609 78.7068 50.9699 78.5208C51.0199 77.4964 51.4003 76.4927 51.6327 75.5017C52.0083 73.8999 52.3089 72.2815 52.7065 70.6847C52.85 70.1083 52.9629 69.1105 53.3693 68.6229C53.6431 68.2943 53.1907 69.4597 53.087 69.8747C52.7752 71.122 52.8415 72.4797 52.8415 73.759C52.8415 75.4114 52.7306 77.0862 53.3324 78.662C53.8625 80.0498 55.1074 81.7126 56.4252 82.4481C57.5207 83.0596 58.2008 83.1408 59.2356 82.3683C62.51 79.9237 64.9191 76.5857 66.4949 72.8263C67.6901 69.975 68.2545 66.5477 67.8388 63.4684C67.6026 61.7187 66.4109 59.6212 66.814 57.8475C67.0031 57.0154 67.9554 56.5562 68.6856 56.2888C71.0565 55.4206 73.763 55.8113 76.2333 55.712C77.3996 55.6651 78.549 55.5356 79.7188 55.5831C80.7126 55.6235 81.691 55.7903 82.6826 55.847C83.2963 55.8821 83.9655 56.0108 84.5787 55.9329C85.1541 55.8598 84.0159 55.4695 83.9528 55.442C79.9598 53.7035 75.7891 52.4915 71.4285 52.1652C70.4475 52.0918 69.4777 52.0668 68.5138 52.2879C68.4094 52.3119 67.5029 52.5334 68.072 52.5334C69.9353 52.5334 71.7983 52.1643 73.6622 52.0977C73.8117 52.0924 74.2536 52.1097 74.1101 52.067C73.1951 51.795 72.3009 51.4381 71.3856 51.1588C68.0946 50.1548 64.7852 48.9513 61.3772 48.4036C60.345 48.2377 59.4187 48.3601 58.8674 49.3486C57.6735 51.4895 57.8386 54.3638 58.3642 56.657C58.6387 57.8542 59.228 58.8954 59.8186 59.9584C60.637 61.4316 61.5495 62.9254 62.8438 64.0329C64.6908 65.6134 67.6018 66.1474 69.827 65.0761C71.7208 64.1642 73.9699 61.974 74.1347 59.7497C74.1791 59.1498 73.8637 58.9643 73.3247 58.8047C71.2117 58.1792 68.855 58.1969 66.6974 58.5225C64.0816 58.9171 59.4243 60.4258 60.0701 63.9777C60.9219 68.6623 67.7231 69.4248 71.3856 69.9852C80.4509 71.3721 89.8487 71.7929 99.0114 71.3106" stroke="#F5F5F5" stroke-width="3" stroke-linecap="round"/>
<path d="M85.9778 76.2811C83.0535 77.6736 80.0053 78.7104 76.988 79.8709C74.571 80.8005 72.3567 82.0317 70.6246 83.9884C70.3314 84.3196 69.6683 84.9898 70.4099 84.3872C70.9863 83.9189 71.1769 83.3086 71.1769 82.6138C71.1769 81.663 71.2874 80.7058 71.2874 79.7666C71.2874 79.4977 72.235 79.2277 72.4655 79.1284C75.0887 77.9984 77.9538 76.909 80.8355 76.8395C83.2336 76.7818 85.5729 77.3857 87.966 77.3857" stroke="#F5F5F5" stroke-width="3" stroke-linecap="round"/>
<mask id="mask1_6_192" style="mask-type:alpha" maskUnits="userSpaceOnUse" x="39" y="28" width="72" height="72">
<rect x="39" y="28" width="72" height="72" fill="#D9D9D9"/>
</mask>
<g mask="url(#mask1_6_192)">
<path d="M52.4251 85.7674C50.3481 85.7674 48.5818 85.0366 47.126 83.5751C45.6703 82.1135 44.9424 80.3443 44.9424 78.2674V62.1135C44.9424 60.7712 45.4145 59.6279 46.3587 58.6837C47.3029 57.7395 48.4462 57.2674 49.7885 57.2674H65.4231V42.3251H77.5962C79.6731 42.3251 81.4424 43.0558 82.9039 44.5174C84.3655 45.9789 85.0963 47.7481 85.0963 49.8251L85.0789 62.3443H89.002V58.3001C89.0135 57.6924 89.1308 57.1097 89.3539 56.552C89.577 55.9943 89.9058 55.4981 90.3405 55.0635L94.6155 50.8059L105.964 72.2674H93.502C92.2751 72.2674 91.228 71.8338 90.3607 70.9665C89.4934 70.0991 89.0405 69.0327 89.002 67.7674V65.3443H85.0789V72.0366C86.1558 72.7328 86.9953 73.6203 87.5972 74.6991C88.1991 75.778 88.5001 76.9674 88.5001 78.2674C88.5001 80.3443 87.7693 82.1135 86.3077 83.5751C84.8462 85.0366 83.077 85.7674 81.0001 85.7674C79.2155 85.7674 77.6347 85.2174 76.2577 84.1174C74.8808 83.0174 74.0155 81.5866 73.6616 79.8251H59.7635C59.4097 81.5866 58.5443 83.0174 57.1674 84.1174C55.7904 85.2174 54.2097 85.7674 52.4251 85.7674ZM52.4251 82.7674C53.6597 82.7674 54.7212 82.3261 55.6096 81.4434C56.4981 80.5607 56.9424 79.502 56.9424 78.2674C56.9424 77.0328 56.501 75.9742 55.6183 75.0915C54.7356 74.2088 53.677 73.7674 52.4424 73.7674C51.2077 73.7674 50.1491 74.2088 49.2664 75.0915C48.3837 75.9742 47.9424 77.0328 47.9424 78.2674C47.9424 79.502 48.3808 80.5607 49.2577 81.4434C50.1347 82.3261 51.1905 82.7674 52.4251 82.7674ZM81.0001 82.7674C82.2347 82.7674 83.2933 82.3261 84.176 81.4434C85.0587 80.5607 85.5001 79.502 85.5001 78.2674C85.5001 77.0328 85.0587 75.9742 84.176 75.0915C83.2933 74.2088 82.2347 73.7674 81.0001 73.7674C79.7655 73.7674 78.7068 74.2088 77.8241 75.0915C76.9414 75.9742 76.5001 77.0328 76.5001 78.2674C76.5001 79.502 76.9414 80.5607 77.8241 81.4434C78.7068 82.3261 79.7655 82.7674 81.0001 82.7674ZM65.4231 76.7674V60.2674H49.7885C49.2501 60.2674 48.8078 60.4405 48.4616 60.7866C48.1155 61.1328 47.9424 61.5751 47.9424 62.1135V72.5039C48.5577 71.9193 49.2472 71.4837 50.0107 71.1972C50.7741 70.9107 51.5847 70.7674 52.4424 70.7674C54.227 70.7674 55.7981 71.327 57.1558 72.4462C58.5135 73.5655 59.3635 75.0059 59.7058 76.7674H65.4231ZM68.4232 76.7674H73.6616C74.0039 75.0059 74.8664 73.5655 76.2491 72.4462C77.6318 71.327 79.2155 70.7674 81.0001 70.7674C81.1924 70.7674 81.3751 70.777 81.5482 70.7962C81.7212 70.8154 81.9039 70.8443 82.0962 70.8828V65.3443H68.4232V76.7674ZM101.025 69.2674L93.8655 55.7616L92.4808 57.2039C92.327 57.3577 92.2116 57.5308 92.1347 57.7232C92.0578 57.9155 92.0193 58.1078 92.0193 58.3001V67.7674C92.0578 68.1905 92.2116 68.5462 92.4808 68.8347C92.7501 69.1231 93.0962 69.2674 93.5193 69.2674H101.025ZM68.4232 62.3443H82.0962V49.8251C82.0962 48.5905 81.6548 47.5318 80.7721 46.6491C79.8895 45.7664 78.8308 45.3251 77.5962 45.3251H68.4232V62.3443ZM65.4231 76.7674V70.7674V72.5039V60.2674V76.7674ZM68.4232 76.7674V65.3443V70.8828V70.7674V76.7674Z" fill="#7743DC"/>
</g>
</svg>
