<svg width="16" height="24" viewBox="0 0 16 24" fill="none" xmlns="http://www.w3.org/2000/svg">
<path d="M12.8965 18.9817H3.30491C3.05514 18.9817 2.85352 18.7793 2.85352 18.5296C2.85352 18.2798 3.05584 18.0775 3.30491 18.0775H12.8972C13.147 18.0775 13.3486 18.2798 13.3486 18.5296C13.3486 18.7793 13.1463 18.9817 12.8965 18.9817Z" fill="white"/>
<path d="M12.8965 15.3677H3.30491C3.05514 15.3677 2.85352 15.1654 2.85352 14.9156C2.85352 14.6659 3.05584 14.4635 3.30491 14.4635H12.8972C13.147 14.4635 13.3486 14.6659 13.3486 14.9156C13.3486 15.1654 13.1463 15.3677 12.8965 15.3677Z" fill="white"/>
<path d="M12.8965 11.7537H3.30491C3.05514 11.7537 2.85352 11.5514 2.85352 11.3016C2.85352 11.0518 3.05584 10.8495 3.30491 10.8495H12.8972C13.147 10.8495 13.3486 11.0518 13.3486 11.3016C13.3486 11.5514 13.1463 11.7537 12.8965 11.7537Z" fill="white"/>
<path d="M12.8965 8.13977H3.30491C3.05514 8.13977 2.85352 7.93744 2.85352 7.68767C2.85352 7.43791 3.05584 7.23558 3.30491 7.23558H12.8972C13.147 7.23558 13.3486 7.43791 13.3486 7.68767C13.3486 7.93744 13.1463 8.13977 12.8965 8.13977Z" fill="white"/>
<path d="M15.4054 23.3526H0.451396C0.201628 23.3526 0 23.1502 0 22.9005V0.452093C0 0.202326 0.202326 0 0.451396 0H11.2654C11.3854 0 11.4998 0.047442 11.5849 0.132558L15.7249 4.27256C15.8093 4.35698 15.8575 4.4721 15.8575 4.5921V22.9005C15.8575 23.1502 15.6551 23.3526 15.4054 23.3526ZM0.902792 22.4491H14.954V4.77977L11.0784 0.904187H0.902792V22.4491Z" fill="white"/>
<path d="M14.6666 4.8956H11.2933C11.0435 4.8956 10.8419 4.69327 10.8419 4.4435V0.579779C10.8419 0.330011 11.0442 0.127686 11.2933 0.127686C11.5424 0.127686 11.7447 0.330011 11.7447 0.579779V3.99211H14.6666C14.9163 3.99211 15.118 4.19443 15.118 4.4442C15.118 4.69397 14.9156 4.8956 14.6666 4.8956Z" fill="white"/>
</svg>
