<svg width="30" height="42" viewBox="0 0 30 42" fill="none" xmlns="http://www.w3.org/2000/svg">
<path d="M15 38.3842C14.8354 38.3842 14.6722 38.3302 14.5353 38.2235L12.747 36.8233C11.8353 36.0974 11.1873 35.0789 10.9173 33.9512C10.9123 33.9324 10.9098 33.9148 10.906 33.896L10.3371 30.3633C10.2731 29.9665 10.5318 29.5898 10.9248 29.5069C12.5247 29.1691 14.1674 28.6353 14.4411 28.3653C14.5843 28.2059 14.7865 28.1167 15.0012 28.1167C15.2147 28.1167 15.4181 28.2096 15.56 28.3691C15.8313 28.6366 17.4739 29.1703 19.0726 29.5081C19.4656 29.591 19.7243 29.9678 19.6603 30.3646L19.0914 33.8972C19.0889 33.916 19.0851 33.9349 19.0801 33.9525C18.8101 35.0802 18.1621 36.0999 17.2541 36.822L15.4621 38.2273C15.3277 38.3315 15.1645 38.3842 15 38.3842ZM12.3891 33.626C12.585 34.4184 13.0434 35.1317 13.6814 35.6403L15 36.6738L16.3223 35.6365C16.9565 35.1317 17.4136 34.4171 17.6095 33.626L18.0616 30.823C17.1135 30.5969 15.8074 30.234 15 29.7869C14.1925 30.2327 12.8864 30.5969 11.9383 30.823L12.3891 33.626Z" fill="white"/>
<path d="M29.9957 9.24433C29.9957 9.23554 29.9944 9.228 29.9944 9.21921C29.9919 9.18656 29.9881 9.15517 29.9831 9.12377C29.9768 9.09112 29.968 9.06098 29.9567 9.02958C29.9542 9.02205 29.9517 9.01452 29.9492 9.00698C29.9379 8.97684 29.9253 8.94796 29.9115 8.92033C29.9115 8.91907 29.9103 8.91782 29.9103 8.91656C29.8952 8.88768 29.8764 8.86005 29.8575 8.83242C29.8525 8.82614 29.8487 8.81986 29.8437 8.81359C29.8236 8.78721 29.8023 8.76084 29.7784 8.73698L21.3996 0.358191C21.3757 0.33433 21.3506 0.312981 21.3243 0.292888C21.318 0.287865 21.3104 0.282842 21.3042 0.277819C21.2778 0.258982 21.2502 0.2414 21.2213 0.22633C21.2188 0.225075 21.2175 0.225075 21.215 0.223819C21.1874 0.210005 21.1597 0.197447 21.1309 0.1874C21.1233 0.184888 21.1145 0.181121 21.107 0.178609C21.0769 0.168563 21.0455 0.159772 21.0141 0.153493C21.0128 0.153493 21.0128 0.153493 21.0116 0.153493C20.9802 0.147214 20.9488 0.143446 20.9174 0.142191C20.9086 0.142191 20.8998 0.140935 20.891 0.140935C20.8822 0.140935 20.8747 0.139679 20.8659 0.139679H0.75654C0.340866 0.139679 0.00305176 0.477493 0.00305176 0.893167V41.1093C0.00305176 41.525 0.340866 41.8628 0.75654 41.8628H29.2434C29.6591 41.8628 29.9969 41.525 29.9969 41.1093V9.2707C29.9969 9.26191 29.9957 9.25312 29.9957 9.24433ZM27.4237 8.51721H21.6181V2.71159L27.4237 8.51721ZM1.51003 40.3546V1.6454H20.1111V9.2707C20.1111 9.68638 20.449 10.0242 20.8646 10.0242H28.4899V40.3546H1.51003Z" fill="white"/>
<path d="M24.4223 14.6795H5.57759C5.16191 14.6795 4.8241 14.3417 4.8241 13.926C4.8241 13.5103 5.16191 13.1725 5.57759 13.1725H24.4223C24.838 13.1725 25.1758 13.5103 25.1758 13.926C25.1758 14.3417 24.838 14.6795 24.4223 14.6795Z" fill="white"/>
<path d="M24.4223 19.7542H5.57759C5.16191 19.7542 4.8241 19.4164 4.8241 19.0007C4.8241 18.5851 5.16191 18.2473 5.57759 18.2473H24.4223C24.838 18.2473 25.1758 18.5851 25.1758 19.0007C25.1758 19.4164 24.838 19.7542 24.4223 19.7542Z" fill="white"/>
<path d="M15.275 24.8302H5.57759C5.16191 24.8302 4.8241 24.4924 4.8241 24.0768C4.8241 23.6611 5.16191 23.3233 5.57759 23.3233H15.275C15.6907 23.3233 16.0285 23.6611 16.0285 24.0768C16.0285 24.4924 15.6907 24.8302 15.275 24.8302Z" fill="white"/>
<path d="M24.4223 24.8302H19.2759C18.8603 24.8302 18.5225 24.4924 18.5225 24.0768C18.5225 23.6611 18.8603 23.3233 19.2759 23.3233H24.4223C24.8379 23.3233 25.1758 23.6611 25.1758 24.0768C25.1758 24.4924 24.8379 24.8302 24.4223 24.8302Z" fill="white"/>
</svg>
