<svg width="36" height="42" viewBox="0 0 36 42" fill="none" xmlns="http://www.w3.org/2000/svg">
<path d="M20.5142 41.8616C20.0985 41.8616 19.7607 41.5238 19.7607 41.1081V33.5682C19.7607 32.5975 18.9708 31.8075 18.0001 31.8075C17.0293 31.8075 16.2394 32.5975 16.2394 33.5682V41.1081C16.2394 41.5238 15.9016 41.8616 15.4859 41.8616C15.0702 41.8616 14.7324 41.5238 14.7324 41.1081V33.5682C14.7324 31.7674 16.198 30.3006 18.0001 30.3006C19.8021 30.3006 21.2677 31.7661 21.2677 33.5682V41.1081C21.2677 41.5238 20.9299 41.8616 20.5142 41.8616Z" fill="white"/>
<path d="M35.5073 22.6125C35.5073 22.6075 35.5073 22.6024 35.5061 22.5961C35.5048 22.5798 35.5011 22.5648 35.4986 22.5484C35.4973 22.5396 35.496 22.5296 35.4935 22.5208C35.491 22.512 35.4885 22.5032 35.486 22.4932C35.4822 22.4768 35.4785 22.4618 35.4734 22.4454C35.4722 22.4404 35.4697 22.4367 35.4684 22.4316C35.4621 22.4128 35.4546 22.3927 35.4471 22.3739C35.4471 22.3726 35.4471 22.3726 35.4458 22.3714L32.5034 15.6691C32.3829 15.3953 32.1129 15.2182 31.814 15.2182H24.7099V13.9486V13.916V13.1374C24.7099 9.69643 22.1053 6.85326 18.7648 6.47275L18.7874 4.99592H24.7023C25.118 4.99592 25.4558 4.6581 25.4558 4.24243V0.891916C25.4558 0.476242 25.118 0.138428 24.7023 0.138428H18.0967C18.0829 0.138428 18.0704 0.139684 18.0566 0.140939C18.0465 0.140939 18.0377 0.140939 18.0277 0.142195C18.0063 0.144707 17.9862 0.147218 17.9661 0.150986C17.9624 0.152241 17.9586 0.152242 17.9548 0.152242C17.8079 0.17987 17.676 0.251451 17.5731 0.35066C17.5567 0.36573 17.5429 0.382056 17.5279 0.398381C17.5266 0.400893 17.5241 0.402149 17.5228 0.40466C17.5103 0.41973 17.4977 0.4348 17.4864 0.451125C17.4839 0.454893 17.4801 0.45866 17.4776 0.462427C17.4676 0.476241 17.4588 0.491311 17.45 0.506381C17.4462 0.51266 17.4425 0.518939 17.4387 0.525218C17.4312 0.539032 17.4249 0.552846 17.4174 0.56666C17.4136 0.575451 17.4086 0.582986 17.406 0.591777C17.401 0.604335 17.396 0.618149 17.391 0.631963C17.3872 0.642009 17.3834 0.652055 17.3797 0.662102C17.3759 0.67466 17.3721 0.687218 17.3696 0.701032C17.3671 0.712335 17.3633 0.723637 17.3608 0.734939C17.3583 0.747497 17.3571 0.760056 17.3546 0.772614C17.352 0.785172 17.3508 0.796474 17.3495 0.809032C17.3483 0.821591 17.3483 0.834149 17.347 0.846707C17.3458 0.858009 17.3445 0.869311 17.3445 0.880614L17.2591 6.4715C13.9073 6.84196 11.2927 9.69015 11.2927 13.1386V13.9172V13.9499V15.2195H4.18609C3.88721 15.2195 3.61596 15.3966 3.49665 15.6703L0.554281 22.3726C0.554281 22.3739 0.554281 22.3739 0.553025 22.3751C0.54549 22.394 0.537956 22.4128 0.531676 22.4329C0.530421 22.4379 0.527909 22.4417 0.526653 22.4467C0.52163 22.4618 0.517863 22.4781 0.514095 22.4944C0.511584 22.5032 0.509071 22.512 0.50656 22.5221C0.504048 22.5308 0.504049 22.5409 0.501537 22.5497C0.499026 22.566 0.496513 22.5811 0.494002 22.5974C0.494002 22.6024 0.494001 22.6075 0.492746 22.6137C0.49149 22.6338 0.490234 22.6539 0.490234 22.674C0.490234 22.6753 0.490234 22.6765 0.490234 22.6765V41.1094C0.490234 41.525 0.828048 41.8628 1.24372 41.8628H34.7576C35.1733 41.8628 35.5111 41.525 35.5111 41.1094V22.6753C35.5111 22.674 35.5111 22.6728 35.5111 22.6728C35.5099 22.6527 35.5086 22.6326 35.5073 22.6125ZM1.99721 23.4288H11.2915V28.6241H1.99721V23.4288ZM23.2029 21.9218H12.7985V14.6707H23.2029V21.9218ZM11.2902 30.1323V40.3546H7.39721V30.1323H11.2902ZM12.7972 23.4288H23.2016V40.3546H12.7972V23.4288ZM24.7099 30.1323H28.6431V40.3546H24.7099V30.1323ZM24.7099 28.6253V23.43H34.0041V28.6253H24.7099ZM31.3217 16.7265L33.6023 21.9218H24.7086V16.7265H31.3217ZM18.8502 1.6454H23.9488V3.4902H18.8502V1.6454ZM18 7.93578C20.8683 7.93578 23.2029 10.2691 23.2029 13.1386V13.1637H12.7985V13.1386C12.7972 10.2691 15.1318 7.93578 18 7.93578ZM4.67837 16.7265H11.2902V21.9218H2.39656L4.67837 16.7265ZM1.99721 30.1323H5.89023V40.3546H1.99721V30.1323ZM30.1488 40.3546V30.1323H34.0029V40.3546H30.1488Z" fill="white"/>
<path d="M18.0001 21.216C16.3813 21.216 15.064 19.8986 15.064 18.2799C15.064 16.6612 16.3813 15.3438 18.0001 15.3438C19.6188 15.3438 20.9362 16.6612 20.9362 18.2799C20.9362 19.8986 19.6188 21.216 18.0001 21.216ZM18.0001 16.852C17.2127 16.852 16.5709 17.4925 16.5709 18.2812C16.5709 19.0698 17.2114 19.7103 18.0001 19.7103C18.7887 19.7103 19.4292 19.0698 19.4292 18.2812C19.4292 17.4925 18.7875 16.852 18.0001 16.852Z" fill="white"/>
<path d="M8.00878 26.7805H5.27863C4.86296 26.7805 4.52515 26.4427 4.52515 26.027C4.52515 25.6113 4.86296 25.2735 5.27863 25.2735H8.01003C8.4257 25.2735 8.76352 25.6113 8.76352 26.027C8.76352 26.4427 8.42571 26.7805 8.00878 26.7805Z" fill="white"/>
<path d="M19.3651 26.7805H16.6337C16.2181 26.7805 15.8802 26.4427 15.8802 26.027C15.8802 25.6113 16.2181 25.2735 16.6337 25.2735H19.3651C19.7808 25.2735 20.1186 25.6113 20.1186 26.027C20.1186 26.4427 19.7821 26.7805 19.3651 26.7805Z" fill="white"/>
<path d="M30.7616 26.7805H28.0302C27.6145 26.7805 27.2767 26.4427 27.2767 26.027C27.2767 25.6113 27.6145 25.2735 28.0302 25.2735H30.7616C31.1773 25.2735 31.5151 25.6113 31.5151 26.027C31.5151 26.4427 31.1773 26.7805 30.7616 26.7805Z" fill="white"/>
</svg>
