<svg width="42" height="38" viewBox="0 0 42 38" fill="none" xmlns="http://www.w3.org/2000/svg">
<path d="M29.1689 6.26605H27.5238V3.57233C27.5238 2.67568 26.7942 1.94605 25.8975 1.94605H16.592C15.6953 1.94605 14.9657 2.67568 14.9657 3.57233V6.20452H13.3206V3.57233C13.3206 1.76772 14.7886 0.300934 16.592 0.300934H25.8975C27.7021 0.300934 29.1689 1.76898 29.1689 3.57233V6.26605Z" fill="white"/>
<path d="M40.4688 23.2899H1.40918V24.935H40.4688V23.2899Z" fill="white"/>
<path d="M25.8511 29.427H16.6297C16.1751 29.427 15.8071 29.0591 15.8071 28.6045V24.572C15.8071 24.1174 16.1751 23.7495 16.6297 23.7495C17.0843 23.7495 17.4522 24.1174 17.4522 24.572V27.7819H25.0286V24.3874C25.0286 23.9328 25.3965 23.5649 25.8511 23.5649C26.3057 23.5649 26.6737 23.9328 26.6737 24.3874V28.6045C26.6749 29.0578 26.3057 29.427 25.8511 29.427Z" fill="white"/>
<path d="M35.6929 37.6991H6.3069C3.1523 37.6991 0.58667 35.1335 0.58667 31.9789V11.4086C0.58667 8.25401 3.1523 5.68839 6.3069 5.68839H35.6929C38.8476 5.68839 41.4132 8.25401 41.4132 11.4086V31.9789C41.4132 35.1335 38.8476 37.6991 35.6929 37.6991ZM6.3069 7.3335C4.06025 7.3335 2.23179 9.16197 2.23179 11.4086V31.9789C2.23179 34.2255 4.06025 36.054 6.3069 36.054H35.6929C37.9396 36.054 39.7681 34.2255 39.7681 31.9789V11.4086C39.7681 9.16197 37.9396 7.3335 35.6929 7.3335H6.3069Z" fill="white"/>
</svg>
