<svg width="42" height="38" viewBox="0 0 42 38" fill="none" xmlns="http://www.w3.org/2000/svg">
<path d="M36.7968 37.2382H28.4319C28.2159 37.2382 28.0099 37.1528 27.8567 36.9996C27.7047 36.8476 27.6181 36.6404 27.6181 36.4244L27.6219 6.22712C27.6219 5.77754 27.986 5.41461 28.4356 5.41461H36.7993C37.0153 5.41461 37.2213 5.50001 37.3745 5.65322C37.5265 5.80517 37.6131 6.01238 37.6131 6.22838L37.6119 36.4257C37.6093 36.874 37.2452 37.2382 36.7968 37.2382ZM29.2444 35.6107H35.9831L35.9843 7.03964H29.2469L29.2444 35.6107ZM25.1806 37.2382H16.8156C16.5996 37.2382 16.3936 37.1528 16.2404 36.9996C16.0872 36.8464 16.0018 36.6404 16.0018 36.4244L16.0056 15.5201C16.0056 15.0706 16.3698 14.7076 16.8193 14.7076H25.1831C25.3991 14.7076 25.605 14.793 25.7582 14.9462C25.9102 15.0982 25.9968 15.3054 25.9968 15.5214L25.9956 36.4257C25.9931 36.874 25.6289 37.2382 25.1806 37.2382ZM17.6281 35.6107H24.3668L24.368 16.3327H17.6306L17.6281 35.6107ZM13.5643 37.2382H5.19804C4.98204 37.2382 4.77609 37.1528 4.62288 36.9996C4.46967 36.8464 4.38428 36.6404 4.38428 36.4244L4.38804 24.8132C4.38804 24.3636 4.75223 24.0007 5.20181 24.0007H13.5655C13.7815 24.0007 13.9875 24.0861 14.1407 24.2393C14.2939 24.3925 14.3793 24.5984 14.3793 24.8144L14.378 36.4257C14.3768 36.874 14.0126 37.2382 13.5643 37.2382ZM6.01181 35.6107H12.7505L12.7518 25.6257H6.01432L6.01181 35.6107Z" fill="white"/>
<path d="M40.9762 37.2382H1.02373C0.574147 37.2382 0.209961 36.874 0.209961 36.4244V1.57558C0.209961 1.126 0.574147 0.76181 1.02373 0.76181C1.47331 0.76181 1.8375 1.126 1.8375 1.57558V35.6106H40.9774C41.427 35.6106 41.7912 35.9748 41.7912 36.4244C41.7912 36.874 41.4258 37.2382 40.9762 37.2382Z" fill="white"/>
</svg>
