<svg width="14" height="22" viewBox="0 0 14 22" fill="none" xmlns="http://www.w3.org/2000/svg">
<g clip-path="url(#clip0_360_447)">
<path d="M2.7182e-05 2.75C2.7182e-05 1.98945 0.625652 1.375 1.40003 1.375H4.20003H4.90003H12.6C13.3744 1.375 14 1.98945 14 2.75C14 3.51055 13.3744 4.125 12.6 4.125H10.1413C10.5613 4.74375 10.8719 5.43984 11.0469 6.1875H12.6C13.3744 6.1875 14 6.80195 14 7.5625C14 8.32305 13.3744 8.9375 12.6 8.9375H11.0425C10.465 11.4426 8.3344 13.3719 5.69628 13.7027L12.0138 18.1328C12.6438 18.5754 12.7882 19.4348 12.3375 20.0492C11.8869 20.6637 11.0119 20.8098 10.3863 20.3672L0.586277 13.4922C0.0919021 13.1484 -0.118098 12.5254 0.0656522 11.9539C0.249402 11.3824 0.791902 11 1.40003 11H4.90003C6.33503 11 7.56878 10.1535 8.1069 8.9375H1.40003C0.625652 8.9375 2.7182e-05 8.32305 2.7182e-05 7.5625C2.7182e-05 6.80195 0.625652 6.1875 1.40003 6.1875H8.1069C7.56878 4.97148 6.33503 4.125 4.90003 4.125H4.20003H1.40003C0.625652 4.125 2.7182e-05 3.51055 2.7182e-05 2.75Z" fill="white"/>
</g>
<defs>
<clipPath id="clip0_360_447">
<rect width="14" height="22" fill="white"/>
</clipPath>
</defs>
</svg>
