<svg width="17" height="17" viewBox="0 0 17 17" fill="none" xmlns="http://www.w3.org/2000/svg">
<g clip-path="url(#clip0_219_291)">
<path d="M5.4752 0.816691C5.21953 0.199113 4.54551 -0.129598 3.90137 0.0463785L0.979492 0.843254C0.401758 1.00263 0 1.52724 0 2.12489C0 10.3393 6.66055 16.9999 14.875 16.9999C15.4727 16.9999 15.9973 16.5981 16.1566 16.0204L16.9535 13.0985C17.1295 12.4544 16.8008 11.7804 16.1832 11.5247L12.9957 10.1966C12.4545 9.97079 11.827 10.1268 11.4584 10.5817L10.117 12.2186C7.77949 11.113 5.88691 9.2204 4.78125 6.8829L6.41816 5.54482C6.87305 5.17294 7.0291 4.54872 6.80332 4.00751L5.4752 0.820011V0.816691Z" fill="white"/>
</g>
<defs>
<clipPath id="clip0_219_291">
<rect width="17" height="17" fill="white"/>
</clipPath>
</defs>
</svg>
