<svg width="48" height="48" viewBox="0 0 48 48" fill="none" xmlns="http://www.w3.org/2000/svg">
<rect width="48" height="48" fill="white"/>
<path d="M25.2787 36.1732H29.6607C30.0127 35.8541 30.3987 35.5222 30.7907 35.1849C31.6127 34.4755 32.4707 33.7351 33.3527 32.8088C34.3607 31.7493 34.4687 31.3828 34.7747 30.3452C34.8327 30.15 34.8967 29.9312 34.9807 29.6595L35.5047 27.98L35.5107 27.9618C35.7907 27.2141 35.8127 26.7199 35.6967 26.4355C35.6607 26.3479 35.6147 26.2896 35.5607 26.2586C35.5187 26.233 35.4627 26.2239 35.4047 26.2294C35.2687 26.2422 35.1147 26.3206 34.9747 26.461L33.4187 29.84C33.4047 29.871 33.3847 29.9002 33.3627 29.9257C33.2707 30.0771 33.1467 30.2248 32.9867 30.3652L30.2267 33.1717C30.0767 33.3248 29.8187 33.3376 29.6527 33.2008C29.4847 33.0641 29.4707 32.8288 29.6207 32.6775L32.3827 29.871C32.3947 29.8583 32.4067 29.8455 32.4207 29.8346C32.7067 29.5866 32.7967 29.3185 32.7467 29.1234C32.7307 29.0632 32.7027 29.0121 32.6627 28.9775C32.6247 28.9465 32.5747 28.9246 32.5127 28.9191C32.2667 28.8954 31.9047 29.0614 31.4627 29.5373C31.4507 29.5501 31.4367 29.5629 31.4227 29.5756L30.3527 30.4363L30.3467 30.4418C29.1887 31.4411 28.6907 31.6782 27.7827 32.1104C27.5927 32.2015 27.3847 32.3 27.1267 32.4276C27.0247 32.4787 26.9247 32.5407 26.8267 32.6082C26.7227 32.6811 26.6227 32.7559 26.5287 32.8288C26.0487 33.1972 25.7967 33.4962 25.6527 33.8263C25.5027 34.1691 25.4487 34.5867 25.3747 35.1593C25.3447 35.3909 25.3227 35.6189 25.3047 35.8468C25.2907 35.958 25.2847 36.0656 25.2787 36.1732ZM23.2907 36.1732H18.9067C18.5547 35.8541 18.1687 35.5222 17.7767 35.1849C16.9547 34.4755 16.0967 33.7351 15.2147 32.8088C14.2067 31.7493 14.0987 31.3828 13.7927 30.3452C13.7347 30.15 13.6707 29.9312 13.5867 29.6595L13.0627 27.98L13.0567 27.9618C12.7767 27.2141 12.7547 26.7199 12.8707 26.4355C12.9067 26.3479 12.9527 26.2896 13.0067 26.2586C13.0487 26.233 13.1047 26.2239 13.1627 26.2294C13.2987 26.2422 13.4527 26.3206 13.5927 26.461L15.1487 29.84C15.1627 29.871 15.1827 29.9002 15.2047 29.9257C15.2967 30.0771 15.4207 30.2248 15.5807 30.3652L18.3407 33.1717C18.4907 33.3248 18.7487 33.3376 18.9147 33.2008C19.0827 33.0641 19.0967 32.8288 18.9467 32.6775L16.1887 29.8692C16.1767 29.8564 16.1647 29.8437 16.1507 29.8327C15.8647 29.5847 15.7747 29.3167 15.8247 29.1216C15.8407 29.0614 15.8687 29.0103 15.9087 28.9757C15.9467 28.9447 15.9967 28.9228 16.0587 28.9173C16.3047 28.8936 16.6687 29.0596 17.1087 29.5355C17.1207 29.5483 17.1347 29.561 17.1487 29.5738L18.2187 30.4345L18.2247 30.44C19.3827 31.4393 19.8807 31.6763 20.7887 32.1085C20.9787 32.1997 21.1867 32.2982 21.4447 32.4258C21.5467 32.4769 21.6467 32.5389 21.7447 32.6064C21.8487 32.6793 21.9487 32.7541 22.0427 32.827C22.5227 33.1954 22.7747 33.4944 22.9187 33.8245C23.0687 34.1673 23.1227 34.5849 23.1967 35.1575C23.2267 35.3891 23.2487 35.617 23.2667 35.845C23.2787 35.958 23.2847 36.0656 23.2907 36.1732ZM17.8867 36.3009C17.8247 36.3665 17.7867 36.4522 17.7867 36.5452V38.759C17.7867 38.9651 17.9707 39.131 18.1947 39.131H23.7107C23.9367 39.131 24.1187 38.9651 24.1187 38.759V36.5233C24.1187 36.2863 24.1027 36.031 24.0847 35.7939C24.0667 35.5514 24.0427 35.3107 24.0127 35.0718C23.9327 34.4463 23.8727 33.9886 23.6807 33.5491C23.4827 33.0987 23.1647 32.7103 22.5747 32.2562C22.4667 32.1724 22.3567 32.0885 22.2407 32.0101C22.1187 31.9262 21.9867 31.8459 21.8387 31.7712C21.5987 31.6526 21.3747 31.5451 21.1707 31.4466C20.3307 31.0454 19.8707 30.8266 18.7887 29.8929C18.7807 29.8856 18.7707 29.8783 18.7627 29.8729L17.7187 29.0322C17.0807 28.352 16.4567 28.1259 15.9787 28.1733H15.9767C15.7427 28.1952 15.5427 28.2791 15.3827 28.4067L14.3287 26.1163H14.3267C14.3107 26.0835 14.2907 26.0525 14.2647 26.0233C13.9727 25.7042 13.6027 25.5182 13.2487 25.4854C13.0067 25.4635 12.7727 25.5109 12.5687 25.6313C12.3747 25.7462 12.2147 25.9249 12.1147 26.171C11.9387 26.5996 11.9427 27.2652 12.2867 28.1861L12.8067 29.8546C12.8827 30.0953 12.9487 30.3269 13.0107 30.5312C13.3507 31.6891 13.4707 32.0994 14.6047 33.2884C15.5027 34.2311 16.3807 34.9897 17.2247 35.7173C17.4427 35.9161 17.6627 36.1058 17.8867 36.3009ZM18.6667 36.9191C18.7207 36.93 18.7767 36.93 18.8327 36.9191H23.3007V38.3888H18.6027V36.9191H18.6667ZM30.6827 36.3009C30.7447 36.3665 30.7827 36.4522 30.7827 36.5452V38.759C30.7827 38.9651 30.6007 39.131 30.3747 39.131H24.8607C24.6347 39.131 24.4527 38.9651 24.4527 38.759V36.5233C24.4527 36.5106 24.4527 36.496 24.4547 36.4832C24.4607 36.2443 24.4707 36.0128 24.4867 35.7939C24.5047 35.5514 24.5287 35.3107 24.5587 35.0718C24.6387 34.4463 24.6987 33.9886 24.8907 33.5491C25.0887 33.0987 25.4067 32.7103 25.9967 32.2562C26.1047 32.1724 26.2147 32.0885 26.3307 32.0101C26.4527 31.9262 26.5847 31.8459 26.7327 31.7712C26.9727 31.6526 27.1967 31.5451 27.4007 31.4466C28.2407 31.0454 28.7007 30.8266 29.7827 29.8929C29.7907 29.8856 29.8007 29.8783 29.8087 29.8729L30.8527 29.0322C31.4907 28.352 32.1147 28.1259 32.5927 28.1733H32.5947C32.8287 28.1952 33.0287 28.2791 33.1887 28.4067L34.2427 26.1163H34.2447C34.2607 26.0835 34.2807 26.0525 34.3067 26.0233C34.5987 25.7042 34.9687 25.5182 35.3227 25.4854C35.5647 25.4635 35.7987 25.5109 36.0027 25.6313C36.1967 25.7462 36.3567 25.9249 36.4567 26.171C36.6327 26.5996 36.6287 27.2652 36.2847 28.1861L35.7647 29.8546C35.6887 30.0953 35.6227 30.3269 35.5607 30.5312C35.2207 31.6891 35.1007 32.0994 33.9667 33.2884C33.0687 34.2311 32.1907 34.9897 31.3467 35.7173C31.1267 35.9161 30.9067 36.1058 30.6827 36.3009ZM29.9027 36.9191C29.8487 36.93 29.7927 36.93 29.7367 36.9191H25.2687V38.3888H29.9667V36.9191H29.9027Z" fill="#7743DC"/>
<mask id="mask0_238_400" style="mask-type:alpha" maskUnits="userSpaceOnUse" x="14" y="12" width="21" height="21">
<rect x="14.3887" y="12.1965" width="20.3056" height="20.3056" fill="#D9D9D9"/>
</mask>
<g mask="url(#mask0_238_400)">
<path d="M18.6192 28.2718V19.0497L17.1321 15.7793L17.9066 15.4181L19.5369 19.0074H29.5465L31.1768 15.4181L31.9512 15.7793L30.4641 19.0497V28.2718H18.6192ZM22.8495 22.7724H26.2338C26.3537 22.7724 26.4541 22.7318 26.5352 22.6506C26.6163 22.5694 26.6568 22.4688 26.6568 22.3488C26.6568 22.2287 26.6163 22.1283 26.5352 22.0475C26.4541 21.9667 26.3537 21.9263 26.2338 21.9263H22.8495C22.7297 21.9263 22.6292 21.9669 22.5481 22.0481C22.467 22.1293 22.4265 22.2299 22.4265 22.3499C22.4265 22.4699 22.467 22.5703 22.5481 22.6511C22.6292 22.732 22.7297 22.7724 22.8495 22.7724ZM19.4653 27.4257H29.6181V19.8534H19.4653V27.4257Z" fill="#7743DC"/>
</g>
<g clip-path="url(#clip0_238_400)">
<path fill-rule="evenodd" clip-rule="evenodd" d="M28.3123 11.5248C28.1242 11.3972 27.8921 11.2933 27.6086 11.2186L26.3402 10.8528L25.8395 10.4556L24.9007 9.28762C24.5464 8.99939 23.9947 9.36064 24.1494 9.8374L24.767 10.8897C25.095 11.4495 25.0242 11.4466 25.5996 11.7522C25.9291 11.9269 26.3238 12.1146 26.7001 12.2703L25.4128 13.762L23.4726 12.3291C23.2282 12.1711 23.0414 12.1976 22.7446 12.2718L20.6077 12.9729C20.2311 13.234 20.4066 14.1305 20.9863 14.0458L22.8608 13.7378L24.6138 15.5574C25.3917 16.1659 26.1148 16.2684 26.7392 15.4475L28.094 13.7967C28.2294 13.89 28.3315 13.9494 28.3524 14.0929L27.2162 15.9419C26.91 16.4612 27.6279 17.0585 27.9299 16.5463L29.4541 14.691C29.6875 14.4763 29.6999 14.1876 29.5284 13.8385L28.7421 12.1548C28.6026 11.8569 28.5882 11.7131 28.3123 11.5248ZM19.8647 13.3371C19.9394 13.3514 19.989 13.4246 19.9757 13.5003C19.9614 13.5759 19.8888 13.6274 19.8141 13.6131L18.7239 13.4074C18.6491 13.3942 18.5996 13.32 18.6129 13.2442C18.6272 13.1686 18.6999 13.1171 18.7746 13.1314L19.8647 13.3371ZM19.928 13.8443C19.9972 13.8099 20.0796 13.8394 20.1135 13.9093C20.1473 13.9793 20.1179 14.0627 20.0497 14.0973L19.3148 14.4583C19.2455 14.4928 19.1631 14.4633 19.1292 14.3933C19.0954 14.3233 19.1248 14.2399 19.193 14.2053L19.928 13.8443ZM20.088 12.7435C20.1526 12.7848 20.1713 12.8713 20.1303 12.9368C20.0893 13.0023 20.0036 13.0216 19.939 12.9802L19.3231 12.582C19.2585 12.5407 19.2398 12.4542 19.2808 12.3887C19.3218 12.3231 19.4074 12.3039 19.4721 12.3453L20.088 12.7435ZM28.6391 8.64613C29.3206 8.73653 29.7988 9.36863 29.7073 10.0583C29.6158 10.748 28.9894 11.2336 28.3079 11.1432C27.6263 11.0528 27.1482 10.4207 27.2397 9.73102C27.3312 9.04132 27.9575 8.55572 28.6391 8.64613ZM21.0539 16.407L22.8575 14.4698L23.8759 15.5174L21.8335 17.2461C21.2219 17.702 20.7011 16.8143 21.0539 16.407Z" fill="#7743DC"/>
</g>
<defs>
<clipPath id="clip0_238_400">
<rect width="13.1389" height="10.75" fill="white" transform="translate(19.3855 7.4187) rotate(7.5558)"/>
</clipPath>
</defs>
</svg>
