<svg width="68" height="68" viewBox="0 0 68 68" fill="none" xmlns="http://www.w3.org/2000/svg">
<path d="M34 33.3091C32.0735 33.3093 30.1901 32.7383 28.5882 31.6681C26.9862 30.598 25.7375 29.0768 25.0001 27.297C24.2626 25.5172 24.0696 23.5587 24.4452 21.6691C24.8209 19.7796 25.7485 18.0439 27.1107 16.6815C28.4729 15.3192 30.2084 14.3913 32.0979 14.0154C33.9875 13.6394 35.946 13.8323 37.7259 14.5695C39.5058 15.3066 41.0272 16.5551 42.0975 18.1569C43.1679 19.7588 43.7392 21.6421 43.7392 23.5686C43.7367 26.1509 42.7099 28.6268 40.884 30.453C39.0581 32.2791 36.5824 33.3063 34 33.3091ZM34 16.6371C32.6287 16.6369 31.2882 17.0433 30.1479 17.805C29.0076 18.5666 28.1188 19.6494 27.5939 20.9162C27.069 22.1831 26.9316 23.5772 27.199 24.9221C27.4665 26.2671 28.1268 27.5025 29.0965 28.4722C30.0661 29.4418 31.3016 30.1021 32.6465 30.3696C33.9915 30.6371 35.3855 30.4996 36.6524 29.9748C37.9193 29.4499 39.002 28.5611 39.7637 27.4208C40.5254 26.2805 40.9318 24.9399 40.9315 23.5686C40.9294 21.7309 40.1985 19.9691 38.899 18.6696C37.5996 17.3702 35.8377 16.6392 34 16.6371ZM49.5484 54.1699H18.4517L17.0479 52.7661C17.0479 50.5399 17.4863 48.3355 18.3383 46.2788C19.1902 44.222 20.4389 42.3532 22.013 40.7791C23.5872 39.2049 25.456 37.9562 27.5127 37.1043C29.5695 36.2524 31.7738 35.8139 34 35.8139C36.2262 35.8139 38.4306 36.2524 40.4874 37.1043C42.5441 37.9562 44.4129 39.2049 45.987 40.7791C47.5612 42.3532 48.8099 44.222 49.6618 46.2788C50.5137 48.3355 50.9522 50.5399 50.9522 52.7661L49.5484 54.1699ZM19.9219 51.3623H48.0782C47.7349 47.8667 46.1034 44.6239 43.5013 42.2648C40.8991 39.9057 37.5124 38.5991 34 38.5991C30.4877 38.5991 27.101 39.9057 24.4988 42.2648C21.8967 44.6239 20.2652 47.8667 19.9219 51.3623Z" fill="#292C4E" fill-opacity="0.25"/>
</svg>
