<svg xmlns="http://www.w3.org/2000/svg" width="42" height="39" viewBox="0 0 42 39" fill="none">
  <path fill-rule="evenodd" clip-rule="evenodd" d="M17.76 19.0683C17.1904 18.59 16.7428 18.2429 16.6452 17.2498H16.5842C16.4417 17.2497 16.3017 17.2152 16.1773 17.1495C15.9778 17.0298 15.8238 16.8528 15.7379 16.6443C15.5344 16.1988 15.3717 15.0264 15.8864 14.6908L15.7908 14.6311L15.7785 14.4999C15.7602 14.2647 15.7541 13.9793 15.7501 13.6804C15.7318 12.5773 15.7073 11.241 14.7715 10.9806L14.3647 10.8669L14.6291 10.5564C15.3211 9.72134 16.1085 8.96143 16.9768 8.29055C17.876 7.61755 18.7915 7.17016 19.6886 7.04096C20.1566 6.96795 20.6358 6.99276 21.0926 7.11368C21.5495 7.23459 21.9729 7.44868 22.3333 7.74096C22.5922 7.94123 22.8282 8.16681 23.0372 8.41397C23.4561 8.45709 23.8606 8.58345 24.2245 8.78481C24.5884 8.98617 24.9034 9.25801 25.1489 9.58257C25.4602 9.9779 25.6931 10.4235 25.8365 10.8977C25.9844 11.3815 26.0469 11.8852 26.0216 12.3884C25.9927 13.2965 25.6007 14.1602 24.9251 14.8046C25.0443 14.8067 25.1613 14.8351 25.2669 14.8875C25.6575 15.0804 25.6738 15.5143 25.5659 15.8749C25.4662 16.1757 25.3361 16.5247 25.216 16.8178C25.0716 17.2228 24.8458 17.2884 24.4287 17.2459C24.4084 18.2236 23.9303 18.4936 23.2895 19.0683C23.3139 20.5435 17.7234 20.3699 17.76 19.0683ZM33.9781 20.7209C34.2222 25.3625 32.4137 28.1047 29.2075 29.2463C26.1111 28.176 24.2822 25.5534 24.4165 20.6495C26.1347 20.7722 27.8385 20.2757 29.1871 19.2592C30.5603 20.0845 32.3099 20.8655 33.976 20.7209H33.9781ZM29.1932 20.1424C30.6661 21.0256 31.9966 21.446 33.1379 21.3457C33.3413 25.1697 31.8481 27.4278 29.2075 28.3708C26.6564 27.4857 25.1489 25.322 25.2608 21.284C26.6763 21.3845 28.0797 20.9755 29.1912 20.1385L29.1932 20.1424ZM17.3735 20.3719L19.0966 24.6625L19.9633 22.3234L19.5381 21.8837C19.2187 21.4421 19.3346 20.9407 19.9205 20.8501C20.1335 20.8307 20.3478 20.8268 20.5614 20.8385C20.7963 20.8235 21.0322 20.8319 21.2653 20.8636C21.8145 20.9774 21.8756 21.4826 21.5989 21.8837L21.1737 22.3234L22.0404 24.6625L23.2264 21.4016C23.3586 24.0126 24.0056 26.0297 25.0797 27.5261H9C9.37229 25.9005 9.33364 23.0735 11.0445 22.1768C12.5683 21.3727 16.1305 21.4325 17.3715 20.368L17.3735 20.3719Z" fill="#FD7350"/>
  <path d="M27 26V25.7124H30.1991V26H27ZM28.7327 24.4281L27.2908 23.0022L27.7002 22.583L29.1566 24.0089L28.7327 24.4281ZM30.3333 22.8451L28.8915 21.4049L29.3154 21L30.7573 22.4259L30.3333 22.8451ZM31.7942 25.6571L28.2002 22.1029L28.406 21.8993L32 25.4535L31.7942 25.6571Z" fill="white" stroke="#FD7350" stroke-width="0.6"/>
</svg>