<svg width="26" height="24" viewBox="0 0 26 24" fill="none" xmlns="http://www.w3.org/2000/svg">
<path d="M20.2818 23.3754C19.4155 23.9925 13.8565 20.0807 12.7918 20.0721C11.7272 20.0636 6.10564 23.8854 5.24938 23.2544C4.39313 22.6235 6.40614 16.1428 6.08534 15.1305C5.76455 14.1182 0.382268 9.96796 0.719418 8.96094C1.05664 7.95392 7.85969 7.86039 8.72606 7.2433C9.59242 6.62628 11.8876 0.239532 12.9523 0.248055C14.0169 0.256653 16.2084 6.67949 17.0646 7.31045C17.9209 7.94132 24.7216 8.1444 25.0425 9.15668C25.3633 10.169 19.9146 14.2321 19.5774 15.2391C19.2403 16.2461 21.1482 22.7583 20.2818 23.3754Z" fill="url(#paint0_linear_255_289)"/>
<defs>
<linearGradient id="paint0_linear_255_289" x1="0.704255" y1="11.8447" x2="25.0561" y2="11.8447" gradientUnits="userSpaceOnUse">
<stop stop-color="#FCD635"/>
<stop offset="1" stop-color="#F7A928"/>
</linearGradient>
</defs>
</svg>
