<svg width="68" height="68" viewBox="0 0 68 68" fill="none" xmlns="http://www.w3.org/2000/svg">
<mask id="mask0_6_217" style="mask-type:alpha" maskUnits="userSpaceOnUse" x="0" y="0" width="68" height="68">
<path d="M68 0H0V68H68V0Z" fill="#7743DC"/>
</mask>
<g mask="url(#mask0_6_217)">
<path d="M55.5763 41.8198V19.9378L39.666 8.81688L23.7559 19.9378V29.8381H21.5763V18.9025L39.666 5.99438L57.7559 18.9025V41.8198H55.5763ZM41.3552 23.0489H43.6437V20.7604H41.3552V23.0489ZM35.6885 23.0489H37.977V20.7604H35.6885V23.0489ZM41.3552 28.7156H43.6437V26.4271H41.3552V28.7156ZM35.6885 28.7156H37.977V26.4271H35.6885V28.7156ZM38.8924 59.6315L16.3184 53.0006V56.6567H5.77502V35.0687H23.5215L40.8757 41.4873C41.7875 41.8142 42.5803 42.3909 43.2541 43.2173C43.9279 44.0436 44.2648 45.3033 44.2648 46.9961H53.9199C55.4311 46.9961 56.5753 47.5595 57.3527 48.6865C58.13 49.8134 58.5187 51.344 58.5187 53.2784V53.5945L38.8924 59.6315ZM7.95457 54.4771H14.068V37.2483H7.95457V54.4771ZM38.6635 57.365L56.252 52.0034C56.1503 51.1062 55.905 50.4105 55.5163 49.9165C55.1278 49.4226 54.5956 49.1756 53.9199 49.1756H40.1293C38.8942 49.1756 37.6383 49.0902 36.3615 48.9195C35.0847 48.7488 33.994 48.5162 33.0895 48.222L27.1885 46.3967L28.202 44.1954L33.3184 46.0043C34.4263 46.3821 35.5659 46.6418 36.7374 46.7836C37.9088 46.9253 39.6516 46.9961 41.9655 46.9961C41.9655 46.1025 41.8228 45.366 41.5377 44.7865C41.2526 44.2072 40.7958 43.7994 40.1674 43.5634L23.2491 37.2483H16.3184V50.6631L38.6635 57.365Z" fill="#7743DC"/>
</g>
<path d="M35.8829 21.1726C37.2482 21.3243 38.3683 21.1452 39.7083 21.5918C40.648 21.9051 41.9092 21.2958 42.8132 21.6573C43.5813 21.9646 41.2263 22.1335 40.4157 22.2993C39.6766 22.4505 38.9459 22.4889 38.241 22.7709C37.3082 23.144 35.5122 22.8636 36.4724 24.5919C36.8426 25.2583 36.8261 26.4201 36.8261 27.1858C36.8261 27.5733 37.3739 28.2144 36.7737 28.4304C36.5634 28.5062 36.0954 28.3751 35.9353 28.5352C35.8726 28.5979 35.8647 29.0272 35.8829 28.7186C35.9341 27.8485 37.7627 25.9858 36.2366 27.1727C35.2786 27.9179 35.9934 28.2961 36.8261 28.6662C37.8055 29.1015 41.5213 29.4711 42.014 28.116C42.4077 27.0334 42.4402 25.3611 42.1974 24.2382C42.064 23.6213 41.7796 23.173 42.4857 22.8757C44.2297 22.1414 43.9005 23.6647 43.9005 25.0635C43.9005 26.0993 43.5177 27.9352 44.0184 28.8365C44.9634 30.5375 38.8022 28.9964 38.0052 28.9544C37.291 28.9169 36.3489 28.5599 35.6471 28.3649C34.5392 28.0572 34.3836 28.2285 34.2453 26.8452C34.0627 25.0192 35.3842 24.474 37.0619 24.474" stroke="#F5F5F5" stroke-width="3" stroke-linecap="round"/>
<path d="M38.9485 25.4173C38.9132 26.0165 38.0265 28.7897 38.9747 27.7361C40.0553 26.5355 41.1039 24.9843 41.8307 23.5308C42.0793 23.0335 44.0194 19.9368 43.3765 19.7054C42.1612 19.2679 39.9834 19.268 38.8306 19.8888C37.2121 20.7602 36.7818 21.5243 36.8262 23.4784C36.8746 25.6095 41.0009 24.7098 42.2499 24.7098" stroke="#F5F5F5" stroke-width="3" stroke-linecap="round"/>
<mask id="mask1_6_217" style="mask-type:alpha" maskUnits="userSpaceOnUse" x="29" y="17" width="22" height="22">
<rect x="29" y="17" width="22" height="22" fill="#D9D9D9"/>
</mask>
<g mask="url(#mask1_6_217)">
<path d="M41.5813 36.25L35.4167 29.8333V28H38.625C39.4347 28 40.1337 27.7365 40.7219 27.2094C41.3101 26.6823 41.6653 26.0292 41.7875 25.25H34.5V23.4167H41.5125C41.2528 22.8819 40.867 22.4427 40.3552 22.099C39.8434 21.7552 39.2667 21.5833 38.625 21.5833H34.5V19.75H45.5V21.5833H42.5208C42.7347 21.8431 42.9257 22.1257 43.0938 22.4313C43.2618 22.7368 43.3917 23.0653 43.4833 23.4167H45.5V25.25H43.6438C43.5215 26.5486 42.9868 27.6372 42.0396 28.5156C41.0924 29.3941 39.9542 29.8333 38.625 29.8333H37.9604L44.125 36.25H41.5813Z" fill="#7743DC"/>
</g>
</svg>
