<svg width="20" height="20" viewBox="0 0 20 20" fill="none" xmlns="http://www.w3.org/2000/svg">
<path d="M10.9453 14.1328C10.668 14.3828 10.2383 14.4453 9.93359 14.293C9.62891 14.1406 9.33984 13.8086 9.33984 13.4727L9.33992 11.2852L5.9375 11.25C5.42188 11.25 5 10.8281 5 10.3125V9.6875C5 9.16797 5.42188 8.75 5.9375 8.75L9.375 8.78516V6.59766C9.375 6.22535 9.59594 5.88828 9.93672 5.73828C10.2785 5.58937 10.6754 5.65648 10.9488 5.90918L14.6988 9.37598C14.8906 9.51953 15 9.76953 15 10.0312C14.9878 10.3352 14.8877 10.5488 14.6936 10.7246L10.9453 14.1328ZM10 20C4.47656 20 0 15.5234 0 10C0 4.47656 4.47656 0 10 0C15.5234 0 20 4.47656 20 10C20 15.5234 15.5234 20 10 20ZM10 1.875C5.51953 1.875 1.875 5.51992 1.875 10C1.875 14.4801 5.51953 18.125 10 18.125C14.4805 18.125 18.125 14.4801 18.125 10C18.125 5.51992 14.4805 1.875 10 1.875Z" fill="#7743DC"/>
</svg>
