<svg width="138" height="134" viewBox="0 0 138 134" fill="none" xmlns="http://www.w3.org/2000/svg">
<path d="M15.2233 119.307C15.4187 117.699 15.5154 116.083 15.5129 114.466C15.5652 110.684 14.9936 106.915 13.8149 103.268L41.532 75.972C40.6491 90.4125 40.7391 104.884 41.8017 119.316L15.2233 119.307Z" stroke="white" stroke-linecap="round" stroke-linejoin="round"/>
<path d="M121.911 114.466C121.909 116.083 122.006 117.699 122.201 119.307H94.9934C96.0745 104.652 96.1478 89.9556 95.2131 75.293L123.594 103.264C122.42 106.913 121.854 110.684 121.911 114.466V114.466Z" stroke="white" stroke-linecap="round" stroke-linejoin="round"/>
<path d="M136.514 114.466C136.524 116.922 136.298 119.374 135.84 121.798H122.596C122.439 121 122.311 120.17 122.211 119.307C122.016 117.699 121.919 116.083 121.921 114.466C121.869 110.683 122.44 106.912 123.619 103.264C124.958 99.4452 126.97 96.9884 129.223 96.9884C133.243 96.9884 136.514 104.825 136.514 114.466Z" stroke="white" stroke-linecap="round" stroke-linejoin="round"/>
<path d="M135.84 121.798C135.84 121.798 135.84 121.836 135.84 121.853C135.78 122.164 135.715 122.47 135.645 122.77C135.42 123.771 135.146 124.713 134.856 125.587H123.594C123.295 124.713 123.03 123.771 122.805 122.77C122.735 122.467 122.67 122.162 122.61 121.853C122.61 121.853 122.61 121.815 122.61 121.798H135.84Z" stroke="white" stroke-linecap="round" stroke-linejoin="round"/>
<path d="M135.84 121.798C135.84 121.798 135.84 121.836 135.84 121.853C135.78 122.164 135.715 122.47 135.645 122.77C135.42 123.771 135.146 124.713 134.856 125.587H123.594C123.295 124.713 123.03 123.771 122.805 122.77C122.735 122.467 122.67 122.162 122.61 121.853C122.61 121.853 122.61 121.815 122.61 121.798H135.84Z" stroke="white" stroke-linecap="round" stroke-linejoin="round"/>
<path d="M42.5757 64.4858C42.1213 68.3047 41.7817 72.1787 41.5319 75.9423C40.6491 90.3829 40.7391 104.854 41.8016 119.286C41.8366 119.711 41.8566 119.944 41.8566 119.944H94.9384C94.9384 119.944 94.9384 119.719 94.9934 119.286C96.0744 104.631 96.1478 89.9345 95.2131 75.2719C94.8885 70.5323 94.4241 65.6951 93.7698 60.9131C93.0194 55.5302 91.9257 50.1858 90.4937 44.9036M89.43 41.1229C88.2764 37.2277 87.0229 33.5404 85.7494 30.1331H51.0456C47.7545 38.9504 44.5534 49.6517 43.0252 60.9131M68.395 110.634C65.0989 110.634 61.8769 109.804 59.1363 108.248C56.3958 106.692 54.2597 104.481 52.9984 101.894C51.737 99.3063 51.407 96.4593 52.05 93.7127C52.6931 90.966 54.2803 88.443 56.6109 86.4628C58.9416 84.4826 61.9111 83.134 65.1438 82.5877C68.3765 82.0413 71.7273 82.3217 74.7725 83.3934C77.8177 84.4651 80.4204 86.28 82.2516 88.6085C84.0828 90.937 85.0602 93.6746 85.0602 96.475C85.0635 98.3363 84.6348 100.18 83.7988 101.9C82.9628 103.62 81.7357 105.184 80.1879 106.501C78.6401 107.818 76.8018 108.863 74.7783 109.576C72.7547 110.289 70.5856 110.656 68.395 110.656V110.634ZM68.395 74.7118C65.6374 74.7121 62.9229 74.1312 60.4945 73.0211C58.0661 71.911 55.9997 70.3064 54.4806 68.3511C52.9614 66.3957 52.0368 64.1507 51.7898 61.8172C51.5427 59.4837 51.9808 57.1345 53.0648 54.9802C54.1489 52.8259 55.845 50.9337 58.0012 49.4732C60.1574 48.0127 62.7064 47.0294 65.4197 46.6116C68.1331 46.1937 70.926 46.3542 73.5484 47.0788C76.1708 47.8034 78.5407 49.0694 80.4457 50.7634L83.3572 54.298C84.6035 56.4592 85.1817 58.8544 85.0374 61.258C84.893 63.6616 84.0308 65.9944 82.532 68.0365C81.0332 70.0787 78.9471 71.7631 76.4703 72.9309C73.9936 74.0988 71.2076 74.7117 68.375 74.7118H68.395Z" stroke="white" stroke-linecap="round" stroke-linejoin="round"/>
<path d="M84.8505 98.7981C86.3411 91.0813 80.1866 83.799 71.1042 82.5325C62.0218 81.2661 53.4507 86.4951 51.9601 94.2119C50.4696 101.929 56.624 109.211 65.7064 110.478C74.7888 111.744 83.3599 106.515 84.8505 98.7981Z" stroke="white" stroke-linecap="round" stroke-linejoin="round"/>
<path d="M85.0603 60.5693C85.0582 63.8566 83.7091 67.0408 81.2447 69.575C78.7803 72.1092 75.3544 73.8354 71.5552 74.4572C67.7559 75.0789 63.8204 74.5575 60.4245 72.9823C57.0285 71.4071 54.3839 68.8765 52.9448 65.825C51.5057 62.7736 51.3619 59.3916 52.5381 56.2598C53.7143 53.1281 56.137 50.442 59.3904 48.6627C62.6437 46.8834 66.5247 46.122 70.3668 46.5092C74.209 46.8964 77.7726 48.408 80.4458 50.7846L83.3573 54.3191C84.4798 56.2645 85.0624 58.4027 85.0603 60.5693V60.5693Z" stroke="white" stroke-linecap="round" stroke-linejoin="round"/>
<path d="M56.9336 16.1943C57.3398 15.3456 57.7277 14.5423 58.0972 13.7842L58.277 13.4192L58.6216 12.7191L59.1809 11.6159L59.4306 11.1364C59.7802 10.4618 60.0899 9.86347 60.3545 9.38399C60.3895 9.31186 60.4294 9.24397 60.4644 9.17608L60.4944 9.11667L60.6642 8.80692C60.834 8.49293 60.9738 8.23834 61.0837 8.04315L61.1636 7.90313L61.3683 7.54246C62.4426 5.48494 63.8041 3.54462 65.4235 1.76327C65.7732 1.37524 66.2233 1.06084 66.7391 0.844456C67.2548 0.628073 67.8223 0.515518 68.3975 0.515518C68.9727 0.515518 69.5401 0.628073 70.0559 0.844456C70.5716 1.06084 71.0218 1.37524 71.3714 1.76327C72.9891 3.54486 74.3489 5.48517 75.4216 7.54246C75.4216 7.54246 75.7063 8.03467 76.2107 8.95968C76.2357 9.01059 76.2656 9.06151 76.2956 9.11667C76.7051 9.88044 77.2494 10.9073 77.8937 12.176C77.9769 12.3429 78.0618 12.5126 78.1484 12.6852C78.5729 13.5338 79.0373 14.4715 79.5267 15.4984C79.5817 15.6087 79.6366 15.7275 79.6915 15.8421C79.8064 16.0755 79.9163 16.3088 80.0262 16.5507C80.0408 16.5736 80.0525 16.5978 80.0611 16.6228C80.166 16.8392 80.2659 17.0471 80.3707 17.2848L80.5455 17.6624C81.2447 19.1815 81.9888 20.8448 82.7479 22.6354C82.8778 22.9324 83.0026 23.2379 83.1325 23.5434C83.3722 24.1205 83.6319 24.7061 83.8566 25.3043C83.9365 25.4953 84.0164 25.6905 84.0913 25.8857C84.6473 27.252 85.2 28.6748 85.7493 30.1543H66.9916" stroke="white" stroke-linecap="round" stroke-linejoin="round"/>
<path d="M62.487 30.1457H51.0457C51.3103 29.4414 51.57 28.7497 51.8347 28.0708C51.9246 27.8332 52.0195 27.5998 52.1094 27.3665C52.6987 25.8601 53.288 24.3963 53.8673 23.0427L54.4216 21.7443C54.4866 21.6 54.5515 21.4515 54.6114 21.32C54.7379 21.0371 54.8628 20.7542 54.986 20.4713" stroke="white" stroke-linecap="round" stroke-linejoin="round"/>
<path d="M66.9916 30.1543H62.4869" stroke="white" stroke-linecap="round" stroke-linejoin="round"/>
<path d="M83.3572 54.3319L80.4456 50.7973C77.5525 48.2329 73.6267 46.6908 69.4531 46.4793C65.2796 46.2679 61.1659 47.4026 57.9346 49.6568C54.7033 51.911 52.5924 55.1183 52.0241 58.6377C51.4558 62.157 52.4718 65.7289 54.8692 68.6392C57.2665 71.5496 60.8684 73.5838 64.9548 74.3353C69.0411 75.0867 73.3107 74.5 76.9098 72.6924C80.509 70.8848 83.1725 67.9896 84.3679 64.5855C85.5632 61.1815 85.2022 57.5196 83.3572 54.3319V54.3319ZM68.375 70.9269C65.9667 70.9277 63.6122 70.3217 61.6093 69.1855C59.6064 68.0493 58.045 66.434 57.1227 64.5438C56.2004 62.6536 55.9586 60.5735 56.4278 58.5665C56.897 56.5595 58.0562 54.7158 59.7588 53.2687C61.4614 51.8215 63.6309 50.8358 65.9928 50.4363C68.3548 50.0368 70.8031 50.2414 73.0282 51.0243C75.2533 51.8071 77.1551 53.133 78.4932 54.8343C79.8313 56.5356 80.5455 58.5359 80.5455 60.5821C80.5415 63.3198 79.2604 65.9446 76.9829 67.8812C74.7054 69.8179 71.6172 70.9086 68.395 70.9142L68.375 70.9269Z" stroke="white" stroke-linecap="round" stroke-linejoin="round"/>
<path d="M68.3949 82.3367C65.0989 82.3367 61.8768 83.1672 59.1362 84.723C56.3957 86.2789 54.2597 88.4903 52.9983 91.0776C51.737 93.6649 51.4069 96.5119 52.05 99.2585C52.693 102.005 54.2802 104.528 56.6109 106.508C58.9415 108.489 61.911 109.837 65.1437 110.384C68.3764 110.93 71.7273 110.649 74.7724 109.578C77.8176 108.506 80.4203 106.691 82.2515 104.363C84.0827 102.034 85.0601 99.2966 85.0601 96.4962C85.0601 92.7408 83.3043 89.1393 80.179 86.4839C77.0537 83.8285 72.8148 82.3367 68.3949 82.3367ZM68.3949 106.837C65.9878 106.837 63.6348 106.23 61.6333 105.094C59.6319 103.958 58.072 102.343 57.1508 100.453C56.2297 98.5638 55.9887 96.4847 56.4583 94.4788C56.9279 92.4729 58.087 90.6304 59.7891 89.1843C61.4911 87.7381 63.6597 86.7532 66.0206 86.3543C68.3814 85.9553 70.8285 86.16 73.0524 86.9427C75.2763 87.7253 77.177 89.0507 78.5143 90.7512C79.8517 92.4517 80.5655 94.451 80.5655 96.4962C80.5655 99.2386 79.2832 101.869 77.0008 103.808C74.7184 105.747 71.6228 106.837 68.3949 106.837Z" stroke="white" stroke-linecap="round" stroke-linejoin="round"/>
<path d="M94.9933 119.965H41.8564V132.945H94.9933V119.965Z" stroke="white" stroke-linecap="round" stroke-linejoin="round"/>
<path d="M48.6985 132.941V120.355" stroke="white" stroke-linecap="round" stroke-linejoin="round"/>
<path d="M58.6515 132.941V120.355" stroke="white" stroke-linecap="round" stroke-linejoin="round"/>
<path d="M68.6047 132.941V120.355" stroke="white" stroke-linecap="round" stroke-linejoin="round"/>
<path d="M78.558 132.941V120.355" stroke="white" stroke-linecap="round" stroke-linejoin="round"/>
<path d="M88.5112 132.941V120.355" stroke="white" stroke-linecap="round" stroke-linejoin="round"/>
<path d="M15.5079 114.466C15.5104 116.083 15.4137 117.699 15.2182 119.307C15.125 120.156 14.9968 120.986 14.8337 121.798H1.58441C1.12598 119.374 0.900503 116.922 0.910213 114.466C0.910213 104.813 4.17633 96.9884 8.21154 96.9884C10.4639 96.9884 12.4765 99.4324 13.8099 103.268C14.9885 106.915 15.5601 110.684 15.5079 114.466Z" stroke="white" stroke-linecap="round" stroke-linejoin="round"/>
<path d="M14.8337 121.798C14.8038 121.972 14.7688 122.142 14.7339 122.307L14.6889 122.52C14.594 122.944 14.4891 123.368 14.3793 123.792C14.3293 124 14.2694 124.217 14.2095 124.408L14.0297 125.002C13.9698 125.197 13.9048 125.392 13.8399 125.579H2.57831C2.47843 125.29 2.38354 124.998 2.29365 124.692C2.24704 124.545 2.20209 124.392 2.15881 124.234C2.07391 123.924 1.98901 123.61 1.90911 123.288C1.87415 123.126 1.8342 122.961 1.79425 122.795C1.71933 122.486 1.65441 122.167 1.59448 121.845C1.59448 121.845 1.59448 121.807 1.59448 121.79L14.8337 121.798Z" stroke="white" stroke-linecap="round" stroke-linejoin="round"/>
<path d="M14.8387 121.798C14.8038 121.968 14.7738 122.138 14.7339 122.307L14.6889 122.52C14.594 122.944 14.4891 123.368 14.3793 123.792C14.3293 124 14.2694 124.217 14.2095 124.408L14.0297 125.002C13.9698 125.197 13.9048 125.392 13.8399 125.579H2.57831C2.47843 125.29 2.38354 124.998 2.29365 124.692C2.24704 124.545 2.20209 124.392 2.15881 124.234C2.07391 123.924 1.98901 123.61 1.90911 123.288C1.87415 123.126 1.8342 122.961 1.79425 122.795C1.72433 122.486 1.65941 122.167 1.59448 121.845C1.59448 121.845 1.59448 121.807 1.59448 121.79L14.8387 121.798Z" stroke="white" stroke-linecap="round" stroke-linejoin="round"/>
</svg>
