<svg width="17" height="28" viewBox="0 0 17 28" fill="none" xmlns="http://www.w3.org/2000/svg">
<g clip-path="url(#clip0_235_705)">
<path d="M-1.87283e-06 3.5C-1.87283e-06 2.53203 0.759686 1.75 1.7 1.75H5.1H5.95H15.3C16.2403 1.75 17 2.53203 17 3.5C17 4.46797 16.2403 5.25 15.3 5.25H12.3144C12.8244 6.0375 13.2016 6.92344 13.4141 7.875H15.3C16.2403 7.875 17 8.65703 17 9.625C17 10.593 16.2403 11.375 15.3 11.375H13.4087C12.7075 14.5633 10.1203 17.0187 6.91687 17.4398L14.5881 23.0781C15.3531 23.6414 15.5284 24.7352 14.9812 25.5172C14.4341 26.2992 13.3716 26.4852 12.6119 25.9219L0.711873 17.1719C0.111561 16.7344 -0.143439 15.9414 0.0796856 15.2141C0.302811 14.4867 0.961561 14 1.7 14H5.95C7.6925 14 9.19062 12.9227 9.84406 11.375H1.7C0.759686 11.375 -1.87283e-06 10.593 -1.87283e-06 9.625C-1.87283e-06 8.65703 0.759686 7.875 1.7 7.875H9.84406C9.19062 6.32734 7.6925 5.25 5.95 5.25H5.1H1.7C0.759686 5.25 -1.87283e-06 4.46797 -1.87283e-06 3.5Z" fill="#7743DC"/>
</g>
<defs>
<clipPath id="clip0_235_705">
<rect width="17" height="28" fill="white"/>
</clipPath>
</defs>
</svg>
