<svg width="48" height="48" viewBox="0 0 48 48" fill="none" xmlns="http://www.w3.org/2000/svg">
<g clip-path="url(#clip0_92_29)">
<rect width="48" height="48" fill="white"/>
<mask id="mask0_92_29" style="mask-type:alpha" maskUnits="userSpaceOnUse" x="0" y="0" width="48" height="48">
<path d="M0 0H48V48H0V0Z" fill="#D9D9D9"/>
</mask>
<g mask="url(#mask0_92_29)">
<path d="M2 36.5385V35H8.78075V33.4C8.00638 33.4 7.35125 33.1306 6.81535 32.5919C6.27948 32.0531 6.01155 31.3994 6.01155 30.6308V11.7692C6.01155 11.0006 6.28093 10.3469 6.8197 9.80815C7.35847 9.26938 8.01215 9 8.78075 9H39.2192C39.9878 9 40.6415 9.26938 41.1803 9.80815C41.7191 10.3469 41.9884 11.0006 41.9884 11.7692V30.6308C41.9884 31.3994 41.7191 32.0531 41.1803 32.5919C40.6415 33.1306 39.9878 33.4 39.2192 33.4V35H46V36.5385H2ZM8.78075 31.8615H39.2192C39.5526 31.8615 39.841 31.7462 40.0846 31.5154C40.3282 31.2846 40.45 30.9898 40.45 30.6308V11.7692C40.45 11.4102 40.3282 11.1154 40.0846 10.8846C39.841 10.6538 39.5526 10.5384 39.2192 10.5384H8.78075C8.44742 10.5384 8.15897 10.6538 7.9154 10.8846C7.6718 11.1154 7.55 11.4102 7.55 11.7692V30.6308C7.55 30.9898 7.6718 31.2846 7.9154 31.5154C8.15897 31.7462 8.44742 31.8615 8.78075 31.8615Z" fill="#FD7350"/>
</g>
<path d="M29 27L27.8333 25.8334L32.6167 21L27.8333 16.1667L29 15L35 21L29 27ZM19 27L13 21L19 15L20.1666 16.1667L15.3833 21L20.1666 25.8334L19 27ZM20 21.9167C19.75 21.9167 19.5347 21.8264 19.3542 21.6458C19.1736 21.4653 19.0833 21.25 19.0833 21C19.0833 20.75 19.1736 20.5347 19.3542 20.3542C19.5347 20.1736 19.75 20.0833 20 20.0833C20.25 20.0833 20.4653 20.1736 20.6458 20.3542C20.8264 20.5347 20.9167 20.75 20.9167 21C20.9167 21.25 20.8264 21.4653 20.6458 21.6458C20.4653 21.8264 20.25 21.9167 20 21.9167ZM24 21.9167C23.75 21.9167 23.5347 21.8264 23.3542 21.6458C23.1736 21.4653 23.0833 21.25 23.0833 21C23.0833 20.75 23.1736 20.5347 23.3542 20.3542C23.5347 20.1736 23.75 20.0833 24 20.0833C24.25 20.0833 24.4653 20.1736 24.6458 20.3542C24.8264 20.5347 24.9167 20.75 24.9167 21C24.9167 21.25 24.8264 21.4653 24.6458 21.6458C24.4653 21.8264 24.25 21.9167 24 21.9167ZM28 21.9167C27.75 21.9167 27.5347 21.8264 27.3542 21.6458C27.1736 21.4653 27.0833 21.25 27.0833 21C27.0833 20.75 27.1736 20.5347 27.3542 20.3542C27.5347 20.1736 27.75 20.0833 28 20.0833C28.25 20.0833 28.4653 20.1736 28.6458 20.3542C28.8264 20.5347 28.9167 20.75 28.9167 21C28.9167 21.25 28.8264 21.4653 28.6458 21.6458C28.4653 21.8264 28.25 21.9167 28 21.9167Z" fill="#FD7350"/>
</g>
<defs>
<clipPath id="clip0_92_29">
<rect width="48" height="48" fill="white"/>
</clipPath>
</defs>
</svg>
