<svg width="75" height="75" viewBox="0 0 75 75" fill="none" xmlns="http://www.w3.org/2000/svg">
<mask id="mask0_20_754" style="mask-type:alpha" maskUnits="userSpaceOnUse" x="22" y="28" width="30" height="29">
<rect x="22.8572" y="28.5714" width="28.2857" height="28.2857" fill="#D9D9D9"/>
</mask>
<g mask="url(#mask0_20_754)">
<path d="M28.75 53.3215C27.7482 53.3215 27.0362 52.8746 26.6138 51.9808C26.1915 51.0871 26.2946 50.2572 26.9232 49.4911L33.4643 41.5357V34.4643H32.2857C31.9518 34.4643 31.6719 34.3514 31.446 34.1255C31.2201 33.8996 31.1071 33.6197 31.1071 33.2857C31.1071 32.9518 31.2201 32.6719 31.446 32.446C31.6719 32.2201 31.9518 32.1072 32.2857 32.1072H41.7143C42.0482 32.1072 42.3281 32.2201 42.554 32.446C42.7799 32.6719 42.8928 32.9518 42.8928 33.2857C42.8928 33.6197 42.7799 33.8996 42.554 34.1255C42.3281 34.3514 42.0482 34.4643 41.7143 34.4643H40.5357V41.5357L47.0768 49.4911C47.7053 50.2572 47.8085 51.0871 47.3862 51.9808C46.9638 52.8746 46.2518 53.3215 45.25 53.3215H28.75ZM28.75 50.9643H45.25L38.1786 42.3607V34.4643H35.8214V42.3607L28.75 50.9643Z" fill="#7743DC"/>
</g>
<mask id="mask1_20_754" style="mask-type:alpha" maskUnits="userSpaceOnUse" x="0" y="0" width="75" height="75">
<rect width="75" height="75" fill="#D9D9D9"/>
</mask>
<g mask="url(#mask1_20_754)">
<path d="M14.423 62.5C12.9848 62.5 11.7839 62.0182 10.8203 61.0547C9.85677 60.0911 9.375 58.8902 9.375 57.452V26.923C9.375 25.4848 9.85677 24.2839 10.8203 23.3203C11.7839 22.3568 12.9848 21.875 14.423 21.875H28.125V17.548C28.125 16.1098 28.6068 14.9089 29.5703 13.9453C30.5339 12.9818 31.7348 12.5 33.173 12.5H41.827C43.2652 12.5 44.4661 12.9818 45.4297 13.9453C46.3932 14.9089 46.875 16.1098 46.875 17.548V21.875H60.577C62.0152 21.875 63.2161 22.3568 64.1797 23.3203C65.1432 24.2839 65.625 25.4848 65.625 26.923V57.452C65.625 58.8902 65.1432 60.0911 64.1797 61.0547C63.2161 62.0182 62.0152 62.5 60.577 62.5H14.423ZM14.423 59.375H60.577C61.0577 59.375 61.4984 59.1747 61.8991 58.7741C62.2997 58.3734 62.5 57.9327 62.5 57.452V26.923C62.5 26.4423 62.2997 26.0016 61.8991 25.6009C61.4984 25.2003 61.0577 25 60.577 25H14.423C13.9423 25 13.5016 25.2003 13.1009 25.6009C12.7003 26.0016 12.5 26.4423 12.5 26.923V57.452C12.5 57.9327 12.7003 58.3734 13.1009 58.7741C13.5016 59.1747 13.9423 59.375 14.423 59.375ZM31.25 21.875H43.75V17.548C43.75 17.0673 43.5497 16.6266 43.1491 16.2259C42.7484 15.8253 42.3077 15.625 41.827 15.625H33.173C32.6923 15.625 32.2516 15.8253 31.8509 16.2259C31.4503 16.6266 31.25 17.0673 31.25 17.548V21.875Z" fill="#7743DC"/>
</g>
</svg>
