<svg width="19" height="18" viewBox="0 0 19 18" fill="none" xmlns="http://www.w3.org/2000/svg">
<path d="M7.77367 15.5632C5.70618 15.5632 3.7625 14.7579 2.30078 13.2962C-0.716798 10.2786 -0.716798 5.36798 2.30078 2.3504C3.7625 0.888676 5.70618 0.083374 7.77367 0.083374C9.84116 0.083374 11.7848 0.888676 13.2466 2.3504C16.2641 5.36798 16.2641 10.2786 13.2466 13.2962C11.7848 14.7579 9.84116 15.5632 7.77367 15.5632ZM7.77367 0.710118C5.87348 0.710118 4.08739 1.44993 2.74385 2.79347C-0.0296812 5.567 -0.0296812 10.0796 2.74385 12.8531C4.08739 14.1966 5.87348 14.9364 7.77367 14.9364C9.67385 14.9364 11.4599 14.1966 12.8035 12.8531C15.577 10.0796 15.577 5.567 12.8035 2.79347C11.4605 1.44993 9.67385 0.710118 7.77367 0.710118Z" fill="#121331"/>
<path d="M2.20106 5.87085C2.16064 5.87085 2.1192 5.86317 2.07929 5.84731C1.9125 5.77978 1.83166 5.58996 1.89869 5.42317C2.21487 4.63936 2.68096 3.93587 3.28366 3.33317C3.99482 2.62201 4.87431 2.08685 5.82696 1.7855C5.99836 1.73127 6.18152 1.82643 6.23627 1.99782C6.2905 2.16922 6.19534 2.35238 6.02394 2.40713C5.15827 2.68136 4.39134 3.14796 3.74464 3.79466C3.20436 4.33494 2.78636 4.96527 2.50343 5.66722C2.45227 5.79359 2.32999 5.87085 2.20106 5.87085Z" fill="#FD7350"/>
<path d="M17.6527 17.9797C17.5576 17.9797 17.4624 17.9438 17.3892 17.8717L12.8844 13.4441C12.736 13.2983 12.7339 13.0604 12.8798 12.9125C13.0256 12.7646 13.2635 12.7621 13.4113 12.9079L17.9162 17.3355C18.0646 17.4813 18.0666 17.7192 17.9208 17.8671C17.8477 17.9418 17.7505 17.9797 17.6527 17.9797Z" fill="#121331"/>
</svg>
