<svg width="22" height="22" viewBox="0 0 22 22" fill="none" xmlns="http://www.w3.org/2000/svg">
<path d="M9.77364 17.5632C7.70615 17.5632 5.76247 16.7579 4.30075 15.2962C1.28317 12.2786 1.28317 7.36798 4.30075 4.3504C5.76247 2.88868 7.70615 2.08337 9.77364 2.08337C11.8411 2.08337 13.7848 2.88868 15.2465 4.3504C18.2641 7.36798 18.2641 12.2786 15.2465 15.2962C13.7848 16.7579 11.8411 17.5632 9.77364 17.5632ZM9.77364 2.71012C7.87345 2.71012 6.08736 3.44993 4.74382 4.79347C1.97029 7.567 1.97029 12.0796 4.74382 14.8531C6.08736 16.1966 7.87345 16.9364 9.77364 16.9364C11.6738 16.9364 13.4599 16.1966 14.8035 14.8531C17.577 12.0796 17.577 7.567 14.8035 4.79347C13.4604 3.44993 11.6738 2.71012 9.77364 2.71012Z" fill="white"/>
<path d="M4.201 7.87085C4.16058 7.87085 4.11914 7.86317 4.07923 7.84731C3.91244 7.77978 3.8316 7.58996 3.89862 7.42317C4.21481 6.63936 4.6809 5.93587 5.2836 5.33317C5.99476 4.62201 6.87425 4.08685 7.8269 3.7855C7.9983 3.73127 8.18146 3.82643 8.23621 3.99782C8.29044 4.16922 8.19527 4.35238 8.02388 4.40713C7.15821 4.68136 6.39128 5.14796 5.74458 5.79466C5.2043 6.33494 4.7863 6.96527 4.50337 7.66722C4.45221 7.79359 4.32993 7.87085 4.201 7.87085Z" fill="#292C4E"/>
<path d="M19.6527 19.9797C19.5575 19.9797 19.4624 19.9438 19.3892 19.8717L14.8843 15.4441C14.7359 15.2983 14.7339 15.0604 14.8797 14.9125C15.0255 14.7646 15.2634 14.7621 15.4113 14.9079L19.9162 19.3355C20.0645 19.4813 20.0666 19.7192 19.9208 19.8671C19.8476 19.9418 19.7504 19.9797 19.6527 19.9797Z" fill="white"/>
</svg>
