<svg width="44" height="44" viewBox="0 0 44 44" fill="none" xmlns="http://www.w3.org/2000/svg">
<path d="M36.632 43.4116H1.52005C1.012 43.4116 0.599121 42.9988 0.599121 42.4907V7.36029C0.599121 3.62591 3.63512 0.588379 7.36796 0.588379H22C22.508 0.588379 22.9209 1.00126 22.9209 1.50931C22.9209 2.01736 22.508 2.43024 22 2.43024H7.36796C4.65121 2.43024 2.44098 4.64201 2.44098 7.36029V41.5698H36.632C39.3488 41.5698 41.559 39.358 41.559 36.6397V21.8373C41.559 21.3293 41.9719 20.9164 42.48 20.9164C42.988 20.9164 43.4009 21.3293 43.4009 21.8373V36.6397C43.4009 40.3741 40.3649 43.4116 36.632 43.4116Z" fill="white"/>
<path d="M42.48 15.9741C41.9719 15.9741 41.5591 15.5612 41.5591 15.0531V2.43024H28.907C28.399 2.43024 27.9861 2.01736 27.9861 1.50931C27.9861 1.00126 28.399 0.588379 28.907 0.588379H42.48C42.988 0.588379 43.4009 1.00126 43.4009 1.50931V15.0547C43.4009 15.5627 42.9896 15.9741 42.48 15.9741Z" fill="white"/>
<path d="M22.0215 22.8994C21.7851 22.8994 21.5503 22.8089 21.3707 22.6293C21.0115 22.2701 21.0115 21.6869 21.3707 21.3262L41.8292 0.858483C42.1883 0.499321 42.7716 0.499321 43.1323 0.858483C43.4914 1.21765 43.4914 1.8009 43.1323 2.1616L22.6723 22.6293C22.4927 22.8104 22.2563 22.8994 22.0215 22.8994Z" fill="white"/>
</svg>
