<svg width="26" height="22" viewBox="0 0 26 22" fill="none" xmlns="http://www.w3.org/2000/svg">
<path d="M19.6234 17.5468H6.93141C5.83591 17.5468 5.40438 17.1247 5.23495 16.7706C5.02932 16.3413 5.12199 15.8011 5.47606 15.3616C5.85836 14.8874 6.58821 14.7809 6.67075 14.7708C6.92707 14.7375 7.16238 14.9192 7.19569 15.1763C7.229 15.4326 7.04798 15.6672 6.79167 15.7005C6.61717 15.7244 6.31162 15.8207 6.20663 15.9503C6.08861 16.0965 6.03575 16.271 6.08137 16.3659C6.13495 16.4781 6.38982 16.6084 6.93213 16.6084H19.6241C19.8833 16.6084 20.0926 16.8184 20.0926 17.0769C20.0926 17.3354 19.8819 17.5468 19.6234 17.5468Z" fill="white"/>
<path d="M7.86902 21.5653C6.50272 21.5653 5.3913 20.4539 5.3913 19.0876C5.3913 17.7213 6.50272 16.6099 7.86902 16.6099C9.23531 16.6099 10.3467 17.7213 10.3467 19.0876C10.3467 20.4539 9.23531 21.5653 7.86902 21.5653ZM7.86902 17.5468C7.0197 17.5468 6.32823 18.2375 6.32823 19.0876C6.32823 19.9376 7.01897 20.6284 7.86902 20.6284C8.71906 20.6284 9.40981 19.9376 9.40981 19.0876C9.40981 18.2375 8.71833 17.5468 7.86902 17.5468Z" fill="white"/>
<path d="M19.7573 21.5653C18.391 21.5653 17.2796 20.4539 17.2796 19.0876C17.2796 17.7213 18.391 16.6099 19.7573 16.6099C21.1236 16.6099 22.235 17.7213 22.235 19.0876C22.235 20.4539 21.1236 21.5653 19.7573 21.5653ZM19.7573 17.5468C18.908 17.5468 18.2165 18.2375 18.2165 19.0876C18.2165 19.9376 18.9073 20.6284 19.7573 20.6284C20.6074 20.6284 21.2981 19.9376 21.2981 19.0876C21.2981 18.2375 20.6066 17.5468 19.7573 17.5468Z" fill="white"/>
<path d="M5.84096 16.1255C5.73742 16.1255 5.63388 16.0914 5.54699 16.0219C5.34571 15.859 5.31385 15.5643 5.47604 15.3623C5.69543 15.0901 5.91988 14.9814 6.11321 14.959L4.13364 3.18802C3.92873 1.96798 3.09317 0.936928 2.30974 0.936928H0.468464C0.209252 0.936928 0 0.726952 0 0.468464C0 0.209976 0.209976 0 0.468464 0H2.31046C3.47547 0 4.5992 1.14763 4.98295 2.67177L22.5703 2.67828C24.0488 2.67901 25.3239 2.67901 25.4165 2.67901C25.5997 2.67901 25.767 2.76227 25.8763 2.90781C25.998 3.07 26.032 3.28649 25.969 3.50298L23.7997 10.9854C23.3327 12.5964 21.6616 14.0069 19.9948 14.1973L9.44531 15.3992C7.89294 15.5759 6.6729 15.7946 6.48103 15.8728C6.40283 15.9097 6.31884 15.9234 6.23774 15.9148C6.22833 15.9249 6.21819 15.9365 6.20661 15.9517C6.11393 16.0661 5.97781 16.1255 5.84096 16.1255ZM5.99808 15.817L5.99881 15.8177C5.99881 15.8177 5.99881 15.817 5.99808 15.817ZM5.15528 3.60942L7.03638 14.7925C7.77636 14.6607 8.74515 14.5354 9.33888 14.4674L19.8884 13.2654C21.1627 13.1199 22.542 11.9563 22.899 10.7247L24.9597 3.61666C24.4441 3.61666 23.5514 3.61594 22.5696 3.61594L5.15528 3.60942Z" fill="white"/>
</svg>
