<svg width="22" height="19" viewBox="0 0 22 19" fill="none" xmlns="http://www.w3.org/2000/svg">
<g opacity="0.7" clip-path="url(#clip0_221_764)">
<path d="M9.67465 1.30272C9.90764 0.864826 9.73195 0.32674 9.28507 0.100373C8.83819 -0.125994 8.28056 0.0447086 8.04757 0.478888L4.49167 7.12518H1.22222C0.546181 7.12518 0 7.65584 0 8.31268C0 8.96951 0.546181 9.50018 1.22222 9.50018L3.20451 17.2004C3.47569 18.258 4.45347 19.0002 5.57639 19.0002H16.4236C17.5465 19.0002 18.5243 18.258 18.7955 17.2004L20.7778 9.50018C21.4538 9.50018 22 8.96951 22 8.31268C22 7.65584 21.4538 7.12518 20.7778 7.12518H17.5083L13.9524 0.478888C13.7194 0.0447086 13.1656 -0.125994 12.7149 0.100373C12.2642 0.32674 12.0924 0.864826 12.3253 1.30272L15.442 7.12518H6.55799L9.67465 1.30272ZM7.33333 11.2814V14.8439C7.33333 15.1705 7.05833 15.4377 6.72222 15.4377C6.38611 15.4377 6.11111 15.1705 6.11111 14.8439V11.2814C6.11111 10.9549 6.38611 10.6877 6.72222 10.6877C7.05833 10.6877 7.33333 10.9549 7.33333 11.2814ZM11 10.6877C11.3361 10.6877 11.6111 10.9549 11.6111 11.2814V14.8439C11.6111 15.1705 11.3361 15.4377 11 15.4377C10.6639 15.4377 10.3889 15.1705 10.3889 14.8439V11.2814C10.3889 10.9549 10.6639 10.6877 11 10.6877ZM15.8889 11.2814V14.8439C15.8889 15.1705 15.6139 15.4377 15.2778 15.4377C14.9417 15.4377 14.6667 15.1705 14.6667 14.8439V11.2814C14.6667 10.9549 14.9417 10.6877 15.2778 10.6877C15.6139 10.6877 15.8889 10.9549 15.8889 11.2814Z" fill="white"/>
</g>
<defs>
<clipPath id="clip0_221_764">
<rect width="22" height="19" fill="white"/>
</clipPath>
</defs>
</svg>
