<svg width="291" height="291" viewBox="0 0 291 291" fill="none" xmlns="http://www.w3.org/2000/svg">
<path d="M252.367 64.2236C251.475 62.7337 250.544 61.2729 249.574 59.8412C236.636 40.8331 215.102 27.8312 194.173 21.9297C185.049 19.3924 175.655 17.9544 166.19 17.6462C104.551 15.4055 81.9052 66.2257 62.0474 79.3382C42.1896 92.4507 11.7102 114.84 15.534 161.842C18.444 197.589 38.7732 231.776 75.9165 247.327C80.1128 249.088 84.4189 250.575 88.8078 251.779C97.6965 254.185 106.827 255.589 116.028 255.964C144.109 257.215 166.912 250.44 189.214 233.399C194.4 229.436 199.557 224.966 206.284 224.477C211.179 224.122 215.812 225.874 210.702 230.606C204.696 236.158 211.627 247.082 226.876 239.493C252.35 226.817 262.826 199.463 267.761 171.649C273.82 137.503 270.886 95.0522 252.367 64.2236Z" fill="#7743DC"/>
<path opacity="0.7" d="M252.367 64.2236C251.475 62.7337 250.544 61.2729 249.574 59.8412C236.636 40.8331 215.102 27.8312 194.173 21.9297C185.049 19.3924 175.655 17.9544 166.19 17.6462C104.551 15.4055 81.9052 66.2257 62.0474 79.3382C42.1896 92.4507 11.7102 114.84 15.534 161.842C18.444 197.589 38.7732 231.776 75.9165 247.327C80.1128 249.088 84.4189 250.575 88.8078 251.779C97.6965 254.185 106.827 255.589 116.028 255.964C144.109 257.215 166.912 250.44 189.214 233.399C194.4 229.436 199.557 224.966 206.284 224.477C211.179 224.122 215.812 225.874 210.702 230.606C204.696 236.158 211.627 247.082 226.876 239.493C252.35 226.817 262.826 199.463 267.761 171.649C273.82 137.503 270.886 95.0522 252.367 64.2236Z" fill="white"/>
<path d="M87.2652 223.535C85.7287 224.018 82.1494 223.535 82.1494 223.535C82.1494 223.535 83.1796 221.271 83.261 221.137C84.2272 219.577 87.0149 217.133 89.0112 217.645C89.3398 217.736 89.6455 217.896 89.9083 218.114C90.1711 218.332 90.3852 218.602 90.5366 218.908C90.6881 219.213 90.7736 219.548 90.7875 219.888C90.8015 220.229 90.7435 220.569 90.6175 220.886C90.1228 222.248 88.5747 223.127 87.2652 223.535Z" fill="#263238"/>
<path d="M53.928 222.534C53.8931 222.534 53.5381 220.083 53.5323 219.92C53.4799 218.087 54.4577 214.514 56.3957 213.827C56.7205 213.722 57.0639 213.686 57.4033 213.723C57.7428 213.759 58.0707 213.867 58.3656 214.039C58.6606 214.211 58.916 214.443 59.1151 214.72C59.3142 214.998 59.4525 215.314 59.521 215.648C59.8644 217.057 59.0554 218.646 58.1941 219.722C57.1756 220.956 53.928 222.534 53.928 222.534Z" fill="#263238"/>
<path d="M54.5507 248.95C55.7497 249.102 58.1242 248.427 58.7877 248.229C58.8983 249.253 59.0263 250.26 59.2067 251.249C59.2882 251.674 59.3464 252.117 59.4512 252.518C59.5559 252.92 59.6491 253.333 59.7422 253.735C59.9692 254.555 60.1729 255.318 60.4057 256.063C60.5162 256.452 60.6326 256.807 60.749 257.18C60.4639 256.598 59.9983 255.667 59.9459 255.585C59.0612 254.235 56.5645 252.146 54.8243 252.623C54.5375 252.71 54.2722 252.855 54.0456 253.051C53.8189 253.247 53.6359 253.488 53.5086 253.76C53.3813 254.031 53.3124 254.326 53.3064 254.625C53.3005 254.925 53.3576 255.222 53.474 255.498C53.9338 256.662 55.319 257.43 56.4772 257.762C57.7517 258.129 60.5512 257.727 60.9004 257.675C61.1914 258.583 61.4824 259.467 61.7617 260.288C61.948 260.829 62.1284 261.335 62.303 261.83H63.467C63.2342 261.248 62.9956 260.602 62.7453 259.927C62.495 259.252 62.1982 258.408 61.9189 257.599C62.2331 257.465 64.6659 256.435 65.6437 255.486C66.4181 255.967 67.2208 256.4 68.0473 256.784C67.7796 257.704 67.5352 258.6 67.3198 259.438C67.1045 260.276 66.9066 261.074 66.7378 261.83H67.9018C68.0473 261.149 68.2045 260.451 68.3791 259.694C68.5537 258.938 68.7632 258.123 68.9611 257.296C69.3044 257.36 72.0922 257.878 73.3784 257.564C74.5424 257.279 75.9625 256.586 76.4631 255.416C76.5877 255.147 76.6547 254.854 76.6597 254.556C76.6647 254.259 76.6075 253.964 76.4919 253.69C76.3764 253.416 76.2049 253.17 75.9884 252.966C75.772 252.762 75.5154 252.605 75.235 252.506C73.489 251.965 70.934 253.95 69.997 255.265C69.9388 255.352 69.3452 256.429 69.0542 256.976C69.1822 256.476 69.3161 255.981 69.4616 255.463C69.6653 254.718 69.9039 253.932 70.1367 253.176L70.5383 252.012C70.6663 251.604 70.8409 251.238 70.9922 250.848C71.225 250.266 71.4928 249.684 71.7605 249.102C72.5054 249.352 74.7112 250.062 75.8752 249.963C77.0392 249.864 78.5757 249.381 79.2508 248.31C79.419 248.062 79.533 247.78 79.5854 247.484C79.6379 247.189 79.6275 246.885 79.5551 246.594C79.4826 246.303 79.3497 246.03 79.1649 245.793C78.9802 245.556 78.7477 245.361 78.4826 245.22C76.8588 244.423 74.0128 246 72.8896 247.158C72.8488 247.193 72.6393 247.461 72.389 247.786C72.6684 247.204 72.971 246.669 73.2446 246.116C74.0943 244.545 74.9906 242.973 75.9218 241.39L76.5038 240.401C77.1323 240.616 79.5185 241.402 80.7349 241.297C81.9513 241.192 83.4354 240.715 84.1105 239.644C84.2786 239.396 84.3926 239.115 84.4449 238.82C84.4973 238.525 84.4869 238.222 84.4144 237.931C84.342 237.64 84.2091 237.367 84.0243 237.131C83.8396 236.895 83.6072 236.7 83.3423 236.56C81.7185 235.762 78.8725 237.334 77.7493 238.492C77.7085 238.533 77.4524 238.859 77.1673 239.219C77.6503 238.352 78.1217 237.473 78.5641 236.606C79.328 235.1 79.991 233.545 80.5487 231.95C80.7698 232.032 83.546 233.015 84.8962 232.893C86.101 232.788 87.5967 232.311 88.2776 231.24C88.4455 230.992 88.5591 230.71 88.6111 230.415C88.663 230.119 88.6521 229.816 88.5791 229.525C88.5061 229.234 88.3726 228.962 88.1873 228.726C88.0019 228.49 87.769 228.296 87.5036 228.156C85.8856 227.358 83.0338 228.93 81.9106 230.088C81.8291 230.169 80.927 231.339 80.6185 231.77V231.717C81.1313 230.142 81.4994 228.523 81.7185 226.881C81.9266 225.419 82.0471 223.946 82.0793 222.469C82.1259 221.096 82.0793 219.845 82.0386 218.733C82.0095 218.151 81.9688 217.569 81.928 217.069H81.9571C81.9571 217.069 82.7137 215.014 82.7428 214.88C83.0978 213.309 82.8592 210.061 81.3053 209.136C81.0429 208.991 80.7529 208.902 80.4542 208.877C80.1554 208.851 79.8547 208.889 79.5714 208.987C79.2881 209.085 79.0287 209.242 78.81 209.447C78.5913 209.652 78.4183 209.901 78.3022 210.178C77.7667 211.342 78.1916 212.843 78.7619 213.908C79.3323 214.973 81.3402 216.585 81.8407 216.975C81.8756 217.511 81.9047 218.081 81.9222 218.721C81.9222 219.833 81.9571 221.084 81.8815 222.452C81.8815 222.813 81.8291 223.203 81.8 223.581C81.7127 222.935 81.5846 222.045 81.5614 221.963C81.154 220.403 79.4429 217.627 77.6445 217.528C77.3422 217.519 77.0414 217.574 76.7619 217.689C76.4824 217.805 76.2306 217.978 76.0232 218.198C75.8158 218.418 75.6575 218.68 75.5587 218.966C75.46 219.252 75.423 219.555 75.4504 219.856C75.5086 221.131 76.5853 222.277 77.5805 222.958C78.5757 223.639 81.1889 224.163 81.7534 224.262C81.6778 225.1 81.5788 225.961 81.4275 226.852C81.1832 228.471 80.7936 230.064 80.2635 231.613H80.1646C80.1646 231.031 80.1122 229.733 80.1005 229.628C79.8619 228.028 78.471 225.083 76.69 224.786C76.3929 224.745 76.0904 224.767 75.8023 224.851C75.5143 224.934 75.2471 225.078 75.0181 225.271C74.7891 225.465 74.6036 225.705 74.4735 225.975C74.3434 226.246 74.2717 226.54 74.2631 226.84C74.1758 228.115 75.1245 229.366 76.0091 230.158C77.0625 231.06 80.0016 231.904 80.1122 231.944C79.536 233.467 78.8614 234.95 78.0926 236.385C77.5106 237.45 76.9286 238.509 76.2884 239.563C76.2884 239.138 76.2361 237.462 76.2186 237.34C75.9858 235.745 74.5948 232.8 72.8139 232.503C72.5205 232.468 72.2231 232.495 71.9404 232.58C71.6577 232.666 71.3958 232.81 71.1711 233.001C70.9464 233.193 70.7639 233.43 70.635 233.695C70.506 233.961 70.4335 234.251 70.4219 234.546C70.3404 235.815 71.2832 237.072 72.197 237.858C73.2213 238.742 76.0382 239.569 76.271 239.638C75.9858 240.116 75.689 240.599 75.4096 241.076C74.4668 242.636 73.5123 244.19 72.6218 245.761C72.3134 246.302 72.0398 246.849 71.7372 247.397C71.7372 246.756 71.6906 245.592 71.6732 245.493C71.4404 243.899 70.0494 240.954 68.2685 240.651C67.971 240.61 67.6683 240.632 67.3799 240.716C67.0915 240.8 66.824 240.943 66.5946 241.137C66.3652 241.33 66.1791 241.57 66.0483 241.84C65.9176 242.111 65.8452 242.406 65.8357 242.706C65.7542 243.98 66.6971 245.232 67.5817 246.023C68.4664 246.815 70.8467 247.554 71.5102 247.769C71.0388 248.683 70.5907 249.597 70.1949 250.516C70.0261 250.918 69.8341 251.319 69.7002 251.715C69.5663 252.111 69.415 252.501 69.2695 252.879C69.0076 253.688 68.7574 254.439 68.5304 255.207C68.414 255.591 68.315 255.952 68.2045 256.33C68.2918 255.678 68.414 254.648 68.414 254.555C68.414 252.937 67.4944 249.818 65.7775 249.253C65.4902 249.167 65.188 249.143 64.8906 249.181C64.5932 249.22 64.3073 249.321 64.0514 249.477C63.7956 249.634 63.5756 249.842 63.4057 250.09C63.2358 250.337 63.1199 250.617 63.0654 250.912C63.0317 251.067 63.0122 251.225 63.0072 251.383C62.2295 252.571 61.7668 253.937 61.6628 255.352C61.6628 255.451 61.7559 256.679 61.8199 257.302C61.6511 256.813 61.4882 256.324 61.3252 255.812C61.0808 255.079 60.8538 254.293 60.6268 253.531L60.3125 252.326C60.1961 251.919 60.1321 251.511 60.0448 251.104C59.9226 250.522 59.8237 249.864 59.7305 249.236C60.493 249.038 62.7278 248.409 63.6416 247.688C64.5553 246.966 65.5738 245.72 65.5447 244.446C65.5476 244.147 65.4878 243.852 65.3694 243.578C65.251 243.304 65.0765 243.058 64.8572 242.856C64.6378 242.653 64.3785 242.499 64.096 242.403C63.8134 242.307 63.5139 242.271 63.2167 242.298C61.4242 242.519 59.9168 245.406 59.6141 246.995C59.6141 247.047 59.5792 247.385 59.5501 247.792C59.4745 247.175 59.3988 246.558 59.3406 245.93C59.1835 244.149 59.0787 242.333 58.9681 240.511C58.9681 240.133 58.9157 239.749 58.8925 239.347C59.5327 239.185 61.9596 238.527 62.9141 237.764C63.8686 237.002 64.8521 235.797 64.823 234.523C64.825 234.225 64.7647 233.929 64.6459 233.656C64.5272 233.382 64.3527 233.137 64.1336 232.935C63.9144 232.732 63.6555 232.578 63.3733 232.482C63.0912 232.386 62.7921 232.349 62.495 232.375C60.7025 232.602 59.1951 235.489 58.8925 237.072C58.8925 237.13 58.8517 237.537 58.8168 237.997C58.7411 237.008 58.6538 236.018 58.5374 235.046C58.3401 233.373 58.0329 231.715 57.6179 230.082C57.8449 230.024 60.7025 229.308 61.7617 228.464C62.7046 227.713 63.6998 226.497 63.6707 225.222C63.6726 224.924 63.6123 224.629 63.4936 224.355C63.3748 224.082 63.2003 223.836 62.9812 223.634C62.7621 223.432 62.5031 223.278 62.221 223.182C61.9388 223.085 61.6397 223.049 61.3427 223.075C59.5501 223.302 58.0427 226.188 57.7401 227.771C57.7401 227.888 57.6121 229.36 57.5888 229.89C57.5915 229.871 57.5915 229.851 57.5888 229.832C57.1491 228.23 56.5647 226.672 55.8428 225.176C55.2059 223.842 54.4927 222.546 53.7068 221.294C52.9852 220.13 52.2577 219.1 51.6058 218.198C51.2508 217.709 50.9191 217.272 50.599 216.871H50.6339C50.6339 216.871 50.1275 214.746 50.0519 214.618C49.4699 213.111 47.4911 210.544 45.6869 210.62C45.3876 210.643 45.0966 210.73 44.8328 210.873C44.569 211.016 44.3382 211.213 44.1554 211.451C43.9727 211.69 43.8421 211.963 43.772 212.255C43.702 212.547 43.6941 212.851 43.7488 213.146C43.9409 214.403 45.134 215.427 46.1932 216.003C47.2525 216.58 49.8249 216.812 50.4535 216.859C50.7794 217.29 51.1169 217.749 51.4778 218.267C52.1063 219.181 52.8106 220.217 53.5031 221.393C53.6836 221.707 53.8698 222.056 54.056 222.388C53.6254 221.893 53.0317 221.224 52.9619 221.166C51.763 220.089 48.8064 218.716 47.2525 219.629C46.9962 219.786 46.7758 219.995 46.6055 220.242C46.4352 220.49 46.3188 220.77 46.2639 221.065C46.209 221.361 46.2169 221.664 46.2869 221.956C46.357 222.248 46.4876 222.522 46.6705 222.76C47.4212 223.791 48.9519 224.151 50.1625 224.175C51.373 224.198 53.8349 223.185 54.3645 222.964C54.7661 223.703 55.156 224.472 55.5285 225.292C56.2098 226.792 56.7552 228.351 57.1581 229.948L57.065 229.989C56.7216 229.488 55.9825 228.447 55.901 228.371C54.8243 227.166 52.0423 225.461 50.3894 226.212C50.1192 226.342 49.8794 226.528 49.6856 226.757C49.4917 226.986 49.3482 227.253 49.2642 227.541C49.1803 227.829 49.1578 228.132 49.1982 228.429C49.2387 228.727 49.3411 229.012 49.499 229.267C50.1275 230.373 51.6116 230.903 52.8047 231.054C54.1841 231.229 57.0999 230.315 57.2105 230.28C57.58 231.877 57.8444 233.496 58.002 235.128C58.1184 236.333 58.1882 237.549 58.2464 238.777C58.0195 238.416 57.0475 237.031 56.966 236.961C55.8893 235.757 53.1074 234.051 51.4545 234.802C51.1843 234.932 50.9445 235.118 50.7506 235.347C50.5568 235.576 50.4132 235.844 50.3293 236.132C50.2453 236.42 50.2229 236.722 50.2633 237.02C50.3037 237.317 50.4062 237.602 50.564 237.858C51.1926 238.963 52.6767 239.493 53.8698 239.644C55.2142 239.819 58.0195 238.952 58.2523 238.876C58.2523 239.458 58.3105 239.988 58.3279 240.546C58.4036 242.368 58.4676 244.196 58.584 245.994C58.6247 246.622 58.6888 247.234 58.7528 247.85C58.3919 247.321 57.7168 246.372 57.647 246.297C56.5703 245.092 53.7883 243.387 52.1354 244.143C51.8648 244.272 51.6244 244.457 51.4301 244.686C51.2357 244.914 51.0918 245.181 51.0078 245.469C50.9237 245.757 50.9014 246.059 50.9423 246.356C50.9831 246.653 51.0863 246.938 51.245 247.193C51.8735 248.27 53.3576 248.799 54.5507 248.95Z" fill="#263238"/>
<path d="M174.402 76.114C172.85 75.2992 171.399 73.8248 170.049 71.6908C168.646 69.4214 167.936 66.7919 168.006 64.1248C168.006 61.3157 168.755 59.2069 170.253 57.7985C171.75 56.3901 173.95 55.3231 176.852 54.5975L187.462 52.0309C192.002 50.8669 194.27 48.6902 194.266 45.5008C194.266 43.7781 193.428 42.2804 191.752 41.0078C190.075 39.7352 187.195 39.1008 183.109 39.1047C179.567 39.0813 176.04 39.5614 172.633 40.5306C169.861 41.2719 167.205 42.3943 164.741 43.8654C163.186 42.6762 161.851 41.2246 160.795 39.5761C159.668 37.7605 159.099 35.6536 159.16 33.5175C159.131 31.2903 159.855 29.1187 161.214 27.3541C162.72 25.4721 164.656 23.9792 166.86 23.0007C169.587 21.77 172.472 20.9219 175.432 20.4807C179.056 19.9146 182.719 19.6421 186.386 19.6659C197.083 19.6503 205.182 22.0191 210.684 26.7721C216.186 31.5251 218.929 37.7622 218.914 45.4834C218.914 59.9985 208.663 69.2969 188.161 73.3786L174.402 76.114ZM169.909 93.9407C169.909 90.2237 171.073 87.1623 173.401 84.7567C175.729 82.3511 178.928 81.1483 182.998 81.1483C187.076 81.1483 190.273 82.3511 192.59 84.7567C194.906 87.1623 196.07 90.2237 196.082 93.9407C196.082 97.6655 194.918 100.727 192.59 103.125C190.262 105.523 187.065 106.725 182.998 106.733C178.913 106.733 175.714 105.53 173.401 103.125C171.089 100.719 169.925 97.6577 169.909 93.9407Z" fill="#FD7350"/>
<path d="M182.975 107.024C178.831 107.024 175.531 105.779 173.168 103.328C170.805 100.878 169.618 97.7237 169.618 93.9407C169.618 90.1577 170.811 87.0032 173.168 84.553C175.525 82.1028 178.831 80.8573 182.975 80.8573C187.119 80.8573 190.419 82.1028 192.776 84.553C195.133 87.0032 196.326 90.1635 196.326 93.9407C196.326 97.7178 195.133 100.884 192.776 103.328C190.419 105.773 187.119 107.024 182.975 107.024ZM182.975 81.416C178.994 81.416 175.834 82.58 173.587 84.908C171.341 87.236 170.2 90.2682 170.2 93.8883C170.2 97.5083 171.364 100.535 173.587 102.874C175.81 105.214 178.994 106.366 182.975 106.366C186.956 106.366 190.11 105.202 192.357 102.874C194.603 100.546 195.744 97.5141 195.744 93.8883C195.744 90.2624 194.609 87.3 192.357 84.972C190.104 82.644 186.956 81.4393 182.975 81.4393V81.416ZM174.402 76.3817C174.353 76.3813 174.305 76.3693 174.262 76.3468C172.685 75.5145 171.183 74.0188 169.798 71.8247C168.376 69.5102 167.653 66.8346 167.715 64.119C167.715 61.2381 168.5 59.0381 170.043 57.5773C171.585 56.1165 173.837 55.0456 176.777 54.3123L187.404 51.7457C191.827 50.5817 193.98 48.5505 193.98 45.5008C193.98 43.8828 193.177 42.4453 191.583 41.2406C189.988 40.0358 187.113 39.3956 183.115 39.3956C179.6 39.3743 176.101 39.8505 172.72 40.8099C169.976 41.547 167.346 42.6573 164.904 44.1098C164.854 44.1426 164.795 44.1601 164.735 44.1601C164.675 44.1601 164.616 44.1426 164.566 44.1098C162.989 42.8982 161.632 41.4235 160.556 39.7506C159.401 37.8834 158.82 35.7179 158.886 33.5232C158.849 31.2248 159.589 28.9812 160.987 27.1562C162.516 25.2331 164.484 23.7044 166.725 22.698C169.478 21.4569 172.388 20.6011 175.374 20.1547C179.013 19.5869 182.691 19.3124 186.374 19.3341C197.1 19.3341 205.335 21.761 210.858 26.5509C216.382 31.3407 219.187 37.7195 219.187 45.4833C219.187 60.0857 208.763 69.5665 188.201 73.6638L174.454 76.3817H174.402ZM183.132 38.7903C187.258 38.7903 190.227 39.448 191.949 40.7517C193.672 42.0553 194.58 43.6617 194.58 45.4775C194.58 48.7833 192.223 51.0763 187.561 52.2869L176.928 54.9001C174.088 55.6101 171.905 56.6461 170.456 58.0254C169.007 59.4048 168.303 61.4243 168.303 64.1423C168.239 66.7491 168.933 69.3183 170.299 71.5395C171.597 73.5765 172.994 75.0315 174.454 75.8113L188.096 73.1109C208.344 69.0776 218.611 59.7889 218.611 45.5008C218.611 37.9348 215.875 31.6899 210.463 27.0048C205.05 22.3197 196.943 19.9335 186.362 19.9335C182.71 19.9099 179.063 20.1824 175.455 20.7483C172.522 21.1852 169.663 22.0234 166.958 23.2393C164.799 24.2012 162.901 25.6659 161.423 27.5112C160.112 29.2372 159.423 31.356 159.468 33.5232C159.409 35.6016 159.961 37.6515 161.057 39.4189C162.06 40.9752 163.317 42.3522 164.776 43.4929C167.218 42.0665 169.838 40.9705 172.569 40.2337C175.997 39.2653 179.546 38.7872 183.109 38.8136L183.132 38.7903Z" fill="#263238"/>
<path d="M126.346 168.734L127.498 261.935H173.086L169.338 169.886L126.346 168.734Z" fill="#263238"/>
<path d="M173.086 262.226H127.498C127.421 262.226 127.347 262.195 127.292 262.141C127.238 262.086 127.207 262.012 127.207 261.935L126.043 168.734C126.045 168.655 126.077 168.581 126.13 168.524C126.159 168.496 126.192 168.475 126.229 168.461C126.266 168.447 126.306 168.44 126.346 168.443L169.338 169.607C169.412 169.609 169.482 169.639 169.535 169.691C169.587 169.743 169.619 169.812 169.623 169.886L173.377 261.9C173.379 261.939 173.373 261.978 173.359 262.014C173.345 262.05 173.324 262.083 173.296 262.11C173.271 262.143 173.24 262.171 173.204 262.191C173.168 262.212 173.127 262.223 173.086 262.226ZM127.783 261.644H172.783L169.059 170.171L126.637 169.007L127.783 261.644Z" fill="#263238"/>
<path d="M126.346 135.437L127.498 228.639H173.086L169.338 136.59L126.346 135.437Z" fill="white"/>
<path d="M173.086 228.93H127.498C127.421 228.93 127.347 228.899 127.292 228.845C127.238 228.79 127.207 228.716 127.207 228.639L126.043 135.443C126.043 135.364 126.075 135.289 126.13 135.234C126.157 135.204 126.191 135.18 126.228 135.165C126.265 135.15 126.305 135.144 126.346 135.146L169.338 136.31C169.412 136.31 169.482 136.339 169.536 136.39C169.589 136.441 169.62 136.51 169.623 136.584L173.371 228.633C173.374 228.673 173.368 228.712 173.354 228.749C173.34 228.787 173.318 228.82 173.29 228.848C173.235 228.9 173.162 228.93 173.086 228.93ZM127.783 228.348H172.783L169.059 136.875L126.637 135.711L127.783 228.348Z" fill="#263238"/>
<path d="M142.205 145.488L146.955 153.404L138.649 213.14L151.174 225.671L159.351 209.98L149.987 153.799L154.736 147.339L149.463 138.894L142.205 145.488Z" fill="#263238"/>
<path d="M151.174 225.962C151.136 225.962 151.098 225.954 151.063 225.939C151.028 225.924 150.996 225.902 150.97 225.874L138.44 213.35C138.408 213.317 138.384 213.277 138.37 213.234C138.356 213.19 138.352 213.144 138.358 213.099L146.663 153.462L141.972 145.64C141.936 145.582 141.921 145.514 141.931 145.447C141.941 145.38 141.974 145.318 142.025 145.273L149.277 138.679C149.309 138.652 149.348 138.631 149.389 138.619C149.43 138.607 149.473 138.604 149.515 138.609C149.557 138.615 149.597 138.63 149.632 138.653C149.667 138.676 149.697 138.707 149.719 138.743L154.992 147.182C155.024 147.23 155.042 147.287 155.042 147.345C155.042 147.403 155.024 147.46 154.992 147.508L150.336 153.869L159.677 209.927C159.688 209.991 159.677 210.056 159.648 210.114L151.5 225.828C151.478 225.868 151.448 225.903 151.41 225.929C151.373 225.955 151.33 225.972 151.284 225.979L151.174 225.962ZM138.952 213.041L151.092 225.182L159.043 209.927L149.696 153.846C149.684 153.768 149.702 153.689 149.748 153.625L154.404 147.322L149.416 139.348L142.589 145.547L147.245 153.252C147.279 153.31 147.293 153.378 147.286 153.444L138.952 213.041Z" fill="#263238"/>
<path d="M146.954 153.404L146.774 154.713L152.07 150.965L154.736 147.339L152.192 143.265L144.248 148.887L146.954 153.404Z" fill="#7743DC"/>
<path d="M146.774 155.004C146.72 155.003 146.668 154.987 146.623 154.957C146.574 154.929 146.535 154.886 146.51 154.836C146.486 154.785 146.476 154.728 146.483 154.672L146.652 153.462L143.998 149.039C143.958 148.976 143.944 148.9 143.959 148.827C143.974 148.754 144.017 148.69 144.079 148.649L152.024 143.032C152.089 142.986 152.171 142.967 152.251 142.98C152.289 142.988 152.325 143.005 152.357 143.028C152.389 143.051 152.416 143.08 152.437 143.114L154.98 147.188C155.013 147.236 155.03 147.293 155.03 147.351C155.03 147.409 155.013 147.466 154.98 147.514L152.32 151.14C152.3 151.164 152.277 151.185 152.251 151.204L146.954 154.952C146.901 154.987 146.838 155.006 146.774 155.004ZM144.632 148.992L147.205 153.275C147.238 153.334 147.252 153.401 147.245 153.468L147.152 154.108L151.866 150.779L154.386 147.345L152.111 143.707L144.632 148.992Z" fill="#263238"/>
<path d="M144.208 173.174L152.269 167.471L151.134 160.661L145.378 164.729L144.208 173.174Z" fill="#7743DC"/>
<path d="M144.208 173.436C144.155 173.437 144.102 173.423 144.056 173.395C144.009 173.366 143.97 173.323 143.945 173.273C143.921 173.222 143.911 173.166 143.917 173.11L145.081 164.665C145.086 164.626 145.1 164.588 145.121 164.554C145.142 164.52 145.17 164.49 145.203 164.467L150.953 160.393C150.993 160.365 151.04 160.347 151.089 160.342C151.138 160.337 151.187 160.345 151.233 160.364C151.278 160.384 151.317 160.414 151.348 160.453C151.378 160.491 151.399 160.537 151.407 160.585L152.542 167.395C152.551 167.449 152.544 167.503 152.524 167.554C152.503 167.604 152.469 167.648 152.426 167.68L144.377 173.436C144.321 173.452 144.263 173.452 144.208 173.436ZM145.651 164.875L144.586 172.522L151.948 167.284L150.924 161.115L145.651 164.875Z" fill="#263238"/>
<path d="M151.407 225.222L157.686 213.169L146.553 221.049L151.011 225.508L151.407 225.222Z" fill="#7743DC"/>
<path d="M151.011 225.816C150.932 225.816 150.857 225.784 150.802 225.729L146.349 221.271C146.318 221.241 146.294 221.205 146.279 221.164C146.264 221.124 146.258 221.081 146.262 221.038C146.266 220.996 146.279 220.956 146.3 220.919C146.321 220.883 146.35 220.852 146.384 220.828L157.518 212.954C157.569 212.913 157.633 212.891 157.698 212.891C157.764 212.891 157.827 212.913 157.879 212.954C157.927 212.996 157.96 213.054 157.972 213.117C157.983 213.181 157.973 213.246 157.943 213.303L151.669 225.356C151.646 225.398 151.614 225.433 151.576 225.461L151.18 225.74C151.134 225.785 151.075 225.812 151.011 225.816ZM147.001 221.096L151.04 225.135L151.18 225.036L156.872 214.118L147.001 221.096Z" fill="#263238"/>
<path d="M153.612 175.549L142.81 183.19L141.641 191.629L154.747 182.358L153.612 175.549Z" fill="#7743DC"/>
<path d="M141.641 191.92C141.587 191.921 141.535 191.907 141.489 191.88C141.44 191.85 141.4 191.807 141.375 191.755C141.35 191.703 141.342 191.645 141.35 191.589L142.514 183.15C142.525 183.071 142.567 183 142.63 182.952L153.432 175.316C153.472 175.286 153.519 175.268 153.568 175.261C153.618 175.255 153.668 175.262 153.714 175.28C153.76 175.299 153.801 175.329 153.832 175.368C153.863 175.407 153.883 175.453 153.892 175.502L155.021 182.311C155.032 182.365 155.027 182.421 155.006 182.472C154.986 182.523 154.95 182.566 154.904 182.597L141.798 191.868C141.751 191.9 141.697 191.918 141.641 191.92ZM143.084 183.33L142.007 191.007L154.421 182.224L153.391 176.055L143.084 183.33Z" fill="#263238"/>
<path d="M156.633 193.666L139.691 205.65L138.649 213.14L139.15 213.641L157.768 200.476L156.633 193.666Z" fill="#7743DC"/>
<path d="M139.15 213.932C139.111 213.933 139.073 213.926 139.037 213.912C139.001 213.898 138.968 213.877 138.94 213.85L138.44 213.35C138.408 213.317 138.384 213.277 138.37 213.234C138.356 213.19 138.352 213.144 138.358 213.099L139.4 205.609C139.414 205.53 139.458 205.459 139.522 205.411L156.464 193.428C156.505 193.4 156.552 193.382 156.6 193.377C156.649 193.372 156.699 193.379 156.744 193.398C156.79 193.417 156.829 193.448 156.86 193.487C156.89 193.525 156.91 193.571 156.918 193.62L158.053 200.429C158.06 200.483 158.053 200.537 158.033 200.587C158.013 200.637 157.979 200.681 157.937 200.714L139.313 213.879C139.265 213.912 139.208 213.93 139.15 213.932ZM138.958 213.041L139.179 213.262L157.448 200.342L156.424 194.173L139.959 205.813L138.958 213.041Z" fill="#263238"/>
<path d="M148.934 141.665L137.329 154.195L133.371 137.975L134.611 133.005L148.934 141.665Z" fill="white"/>
<path d="M137.352 154.486H137.276C137.226 154.473 137.18 154.447 137.143 154.41C137.106 154.373 137.08 154.327 137.067 154.277L133.115 138.056C133.104 138.01 133.104 137.962 133.115 137.917L134.355 132.946C134.366 132.903 134.388 132.863 134.417 132.828C134.446 132.794 134.482 132.767 134.524 132.748C134.564 132.728 134.609 132.718 134.655 132.718C134.7 132.718 134.745 132.728 134.785 132.748L149.085 141.426C149.123 141.448 149.155 141.479 149.179 141.515C149.203 141.551 149.219 141.592 149.225 141.636C149.23 141.678 149.227 141.722 149.213 141.763C149.2 141.804 149.178 141.842 149.149 141.874L137.544 154.405C137.492 154.454 137.424 154.483 137.352 154.486ZM133.697 137.975L137.509 153.602L148.503 141.729L134.826 133.459L133.697 137.975Z" fill="#263238"/>
<path d="M148.934 141.665L157.768 153.27L161.988 137.317L160.539 133.621L148.934 141.665Z" fill="white"/>
<path d="M157.768 153.561C157.724 153.56 157.68 153.55 157.64 153.531C157.599 153.512 157.564 153.484 157.535 153.45L148.701 141.81C148.676 141.779 148.659 141.744 148.65 141.705C148.641 141.667 148.64 141.627 148.648 141.589C148.654 141.55 148.668 141.513 148.689 141.48C148.71 141.447 148.738 141.419 148.77 141.397L160.37 133.354C160.407 133.329 160.449 133.312 160.493 133.305C160.537 133.298 160.583 133.301 160.626 133.313C160.667 133.328 160.705 133.351 160.737 133.381C160.769 133.411 160.794 133.447 160.812 133.488L162.261 137.177C162.278 137.236 162.278 137.299 162.261 137.358L158.042 153.316C158.029 153.37 158 153.418 157.96 153.455C157.919 153.493 157.869 153.517 157.815 153.526L157.768 153.561ZM149.352 141.734L157.64 152.624L161.685 137.352L160.405 134.093L149.352 141.734Z" fill="#263238"/>
<path d="M66.1146 132.853C66.1146 132.853 62.157 124.798 60.1782 122.162C58.1994 119.525 56.2147 117.937 53.974 117.541C51.7333 117.145 50.1445 117.279 48.4276 116.615C46.7107 115.952 43.2769 115.032 42.3573 113.845C41.4378 112.658 39.715 113.449 40.5066 115.428C41.2981 117.407 44.0742 118.728 44.0742 118.728L46.3149 119.781C46.3149 119.781 39.0574 120.841 38.5278 121.236C37.9981 121.632 31.6602 122.162 31.6602 122.162C31.6602 122.162 34.4363 127.045 38.3939 129.291C42.3515 131.538 54.7656 129.687 54.7656 129.687L58.4613 137.474L66.1146 132.853Z" fill="white"/>
<path d="M58.4614 137.765H58.3741C58.3357 137.753 58.3003 137.732 58.2702 137.705C58.2402 137.678 58.2161 137.645 58.1995 137.608L54.5911 130.042C52.8451 130.287 42.0141 131.712 38.2544 129.582C34.2677 127.283 31.5264 122.505 31.4275 122.301C31.4046 122.259 31.3926 122.211 31.3926 122.162C31.3926 122.113 31.4046 122.065 31.4275 122.022C31.4502 121.979 31.4835 121.943 31.5242 121.916C31.565 121.89 31.6118 121.874 31.6603 121.871C34.6809 121.621 38.0216 121.225 38.3824 121.004C38.8422 120.654 43.0384 119.979 45.3664 119.636L43.9929 118.99C43.8765 118.938 41.0829 117.599 40.2855 115.539C39.7792 114.27 40.2157 113.467 40.7453 113.164C41.0663 113.002 41.4358 112.963 41.7835 113.055C42.1311 113.148 42.4328 113.364 42.631 113.665C43.2945 114.52 45.541 115.294 47.2055 115.859C47.7177 116.033 48.1949 116.196 48.579 116.342C49.5943 116.699 50.6537 116.914 51.7277 116.982C52.4377 117.052 53.1768 117.128 54.0207 117.279C56.2556 117.669 58.281 119.176 60.4227 122.01C62.3957 124.641 66.2427 132.417 66.3882 132.748C66.4206 132.814 66.4272 132.889 66.4067 132.959C66.3863 133.029 66.3402 133.089 66.2777 133.127L58.6244 137.748C58.5722 137.767 58.5163 137.773 58.4614 137.765ZM54.7657 129.396C54.8204 129.395 54.8741 129.41 54.9206 129.439C54.967 129.468 55.0042 129.51 55.0276 129.559L58.5836 137.055L65.7655 132.743C65.0904 131.387 61.6915 124.67 59.9455 122.336C57.9085 119.624 55.9995 118.193 53.9218 117.826C53.0954 117.68 52.3679 117.611 51.6695 117.541C50.5234 117.48 49.3913 117.261 48.3055 116.889C47.9272 116.743 47.4616 116.58 46.9553 116.412C45.1394 115.789 42.8813 115.015 42.1072 114.025C41.9941 113.838 41.8166 113.698 41.6078 113.631C41.3989 113.565 41.173 113.577 40.9723 113.665C40.6406 113.857 40.3903 114.398 40.7628 115.317C41.5019 117.174 44.15 118.454 44.1791 118.466L46.4198 119.52C46.4766 119.547 46.5233 119.591 46.5536 119.647C46.5839 119.702 46.5961 119.765 46.5886 119.828C46.5782 119.89 46.5483 119.947 46.5033 119.991C46.4583 120.035 46.4006 120.063 46.3383 120.072C42.9104 120.573 39.0633 121.236 38.6792 121.469C38.1787 121.848 34.0232 122.249 32.1375 122.412C32.8883 123.576 35.3269 127.225 38.5395 129.035C42.3691 131.206 54.5969 129.414 54.7191 129.396H54.7657Z" fill="#263238"/>
<path d="M29.1633 120.858C29.1633 120.858 27.1263 116.522 27.2951 115.585C27.4639 114.648 29.2506 115.248 29.8443 116.522C30.4379 117.797 32.4807 120.858 32.4807 120.858H29.1633Z" fill="white"/>
<path d="M32.4811 121.149H29.1637C29.1087 121.148 29.055 121.132 29.0088 121.102C28.9625 121.072 28.9255 121.03 28.9018 120.98C28.5526 120.241 26.8299 116.511 27.0103 115.533C27.0374 115.352 27.1254 115.185 27.2597 115.06C27.3939 114.935 27.5666 114.86 27.7494 114.846C28.2499 114.855 28.7375 115.006 29.1557 115.281C29.5739 115.556 29.9056 115.944 30.1123 116.4C30.6943 117.646 32.7022 120.672 32.7255 120.701C32.7532 120.745 32.7687 120.796 32.7704 120.849C32.7721 120.901 32.7599 120.953 32.7351 120.999C32.7103 121.045 32.6737 121.084 32.6291 121.111C32.5845 121.139 32.5334 121.154 32.4811 121.155V121.149ZM29.3499 120.567H31.9398C31.0883 119.3 30.3016 117.991 29.5827 116.644C29.4287 116.302 29.1851 116.008 28.8778 115.793C28.5705 115.578 28.2108 115.45 27.8367 115.422C27.6505 115.422 27.6097 115.539 27.5923 115.638C27.4759 116.231 28.5817 118.903 29.3499 120.567Z" fill="#263238"/>
<path d="M25.5498 118.792C25.5498 118.792 28.7159 125.526 30.8285 127.371C32.9412 129.216 37.1665 129.355 37.1665 129.355C37.1665 129.355 32.1497 124.071 31.0963 122.092C30.0428 120.113 26.19 115.358 25.5498 118.792Z" fill="white"/>
<path d="M37.1661 129.646C36.9915 129.646 32.8128 129.489 30.6477 127.592C28.4827 125.695 25.4097 119.194 25.2992 118.914C25.2792 118.858 25.2792 118.796 25.2992 118.74C25.4621 117.872 25.8404 117.389 26.4166 117.302C28.0578 117.052 30.6012 120.486 31.3869 121.958C32.4112 123.879 37.364 129.099 37.4106 129.152C37.4482 129.194 37.4731 129.245 37.4823 129.301C37.4916 129.357 37.4848 129.414 37.4629 129.466C37.4409 129.517 37.4046 129.562 37.3582 129.594C37.3119 129.626 37.2574 129.644 37.2011 129.646H37.1661ZM25.8521 118.757C26.2304 119.549 29.1054 125.479 31.0202 127.155C32.5101 128.459 35.1582 128.901 36.4386 129.006C35.1233 127.598 31.707 123.861 30.834 122.232C29.961 120.602 27.6272 117.698 26.469 117.878C26.1896 117.925 25.9743 118.216 25.8521 118.757Z" fill="#263238"/>
<path d="M28.0986 119.386C28.0986 119.386 31.2647 126.119 33.3774 127.97C35.49 129.821 39.7154 129.949 39.7154 129.949C39.7154 129.949 34.6985 124.67 33.6451 122.686C32.5917 120.701 28.7563 115.958 28.0986 119.386Z" fill="white"/>
<path d="M39.715 130.24C39.5404 130.24 35.3674 130.083 33.1966 128.186C31.0257 126.288 27.9586 119.787 27.848 119.514C27.828 119.455 27.828 119.392 27.848 119.333C28.0148 118.468 28.3873 117.991 28.9654 117.902C30.6125 117.646 33.15 121.079 33.9357 122.558C34.96 124.478 39.9128 129.699 39.9594 129.757C39.9994 129.798 40.0263 129.849 40.0367 129.905C40.047 129.961 40.0404 130.019 40.0176 130.071C39.9912 130.128 39.9478 130.174 39.8935 130.204C39.8392 130.235 39.7767 130.247 39.715 130.24ZM28.4009 119.351C28.7792 120.142 31.6543 126.073 33.569 127.749C35.0648 129.053 37.7071 129.495 38.9933 129.6C37.6721 128.191 34.2558 124.461 33.3886 122.825C32.5214 121.19 30.176 118.303 29.0178 118.478C28.7268 118.519 28.5173 118.815 28.4009 119.351Z" fill="#263238"/>
<path d="M56.7448 126.253C56.7448 126.253 56.0813 125.194 53.8348 123.745C51.5883 122.296 39.7097 125.986 39.7097 125.986C39.7097 125.986 34.2971 119.258 33.5055 118.594C32.714 117.931 31.259 117.541 30.9971 118.862C30.7352 120.183 34.2971 125.846 35.2224 126.783C36.1478 127.72 39.7097 129.949 39.7097 129.949C41.8748 130.694 44.1543 131.05 46.4434 131.002C49.2479 130.8 52.0302 130.36 54.7602 129.687" fill="white"/>
<path d="M45.884 131.305C43.7481 131.284 41.6295 130.919 39.6101 130.222L39.5752 130.193C39.4297 130.1 35.9726 127.924 35.0414 126.987C34.2208 126.166 30.4261 120.334 30.7346 118.804C30.7629 118.574 30.8538 118.356 30.9975 118.174C31.1412 117.993 31.3322 117.854 31.5494 117.774C31.9306 117.692 32.3256 117.703 32.702 117.804C33.0784 117.905 33.4254 118.094 33.7144 118.356C34.4594 118.978 39.0048 124.6 39.8371 125.636C41.7169 125.054 51.8146 122.057 54.0146 123.483C56.2145 124.909 56.977 126.038 57.0061 126.079C57.0272 126.111 57.0415 126.147 57.0483 126.185C57.055 126.223 57.054 126.262 57.0453 126.299C57.0366 126.337 57.0204 126.372 56.9976 126.403C56.9749 126.434 56.9461 126.461 56.9129 126.48C56.8812 126.501 56.8455 126.515 56.808 126.522C56.7705 126.529 56.732 126.528 56.695 126.519C56.6579 126.51 56.623 126.494 56.5924 126.471C56.5619 126.449 56.5363 126.42 56.5172 126.387C55.7303 125.412 54.7692 124.591 53.6828 123.966C51.9368 122.831 43.0672 125.223 39.8021 126.242C39.7465 126.259 39.6867 126.26 39.6306 126.244C39.5746 126.227 39.5248 126.194 39.4879 126.148C37.6255 123.82 33.9356 119.304 33.3245 118.798C33.1129 118.599 32.859 118.45 32.5817 118.364C32.3045 118.277 32.0112 118.254 31.724 118.297C31.6055 118.346 31.5024 118.426 31.4255 118.528C31.3487 118.631 31.301 118.752 31.2875 118.879C31.0663 119.973 34.4245 125.526 35.4313 126.533C36.281 127.382 39.5053 129.443 39.8429 129.646C41.9664 130.361 44.1966 130.708 46.4369 130.671C49.2243 130.48 51.9908 130.055 54.7072 129.402C54.7843 129.383 54.8657 129.396 54.9334 129.438C55.0011 129.479 55.0495 129.546 55.068 129.623C55.0865 129.7 55.0736 129.782 55.0322 129.849C54.9907 129.917 54.924 129.965 54.8468 129.984C52.0976 130.662 49.296 131.106 46.4719 131.311C46.2623 131.305 46.0703 131.305 45.884 131.305Z" fill="#263238"/>
<path d="M70.7239 139.761L65.969 131.352L54.4512 138.301L57.3728 145.436L70.7239 139.761Z" fill="white"/>
<path d="M57.3736 145.727C57.337 145.732 57.2997 145.732 57.263 145.727C57.1923 145.697 57.1359 145.641 57.1059 145.57L54.1959 138.435C54.1707 138.37 54.1691 138.298 54.1915 138.232C54.2138 138.166 54.2586 138.11 54.3181 138.074L65.8359 131.125C65.8717 131.109 65.9103 131.101 65.9494 131.101C65.9884 131.101 66.0271 131.109 66.0629 131.125C66.138 131.144 66.2026 131.192 66.2433 131.258L71.0041 139.622C71.0197 139.659 71.0278 139.698 71.0278 139.738C71.0278 139.778 71.0197 139.818 71.0041 139.855C70.9911 139.894 70.9699 139.93 70.9417 139.96C70.9136 139.99 70.8793 140.014 70.8411 140.029L57.49 145.704C57.4527 145.718 57.4134 145.725 57.3736 145.727ZM54.8128 138.423L57.5307 145.052L70.3347 139.622L65.8883 131.753L54.8128 138.423Z" fill="#263238"/>
<path d="M133.371 137.975L128.883 261.941H96.3321L102.915 173.605C102.915 173.605 85.1752 192.991 83.1615 194.085C81.1478 195.18 78.5928 191.711 78.5928 191.711L54.6318 144.703L68.8967 136.84L84.6107 162.448L86.9852 160.801L88.8127 161.715C88.8127 161.715 105.109 133.004 106.372 132.271C107.635 131.538 113.687 131.904 113.687 131.904L129.401 133.185L134.727 132.021L133.371 137.975Z" fill="#7743DC"/>
<path d="M128.884 262.226H96.3323C96.292 262.226 96.2521 262.218 96.2151 262.202C96.178 262.186 96.1446 262.162 96.117 262.133C96.0871 262.102 96.0639 262.066 96.0488 262.026C96.0338 261.986 96.0273 261.943 96.0297 261.9L102.548 174.402C99.4518 177.778 85.1405 193.317 83.2897 194.324C81.0839 195.529 78.4533 191.996 78.3427 191.862L54.3701 144.837C54.3367 144.768 54.3307 144.69 54.3534 144.617C54.3762 144.545 54.4259 144.484 54.4923 144.447L68.7571 136.584C68.8227 136.548 68.8992 136.539 68.9714 136.557C69.0437 136.575 69.1064 136.62 69.1471 136.683L84.7098 162.029L86.8399 160.556C86.8841 160.531 86.9343 160.517 86.9854 160.517C87.0365 160.517 87.0867 160.531 87.1309 160.556L88.7139 161.348C90.9197 157.46 104.963 132.766 106.244 132.038C107.524 131.311 113.094 131.596 113.722 131.631L129.436 132.911L134.715 131.747C134.763 131.736 134.812 131.737 134.859 131.75C134.906 131.764 134.948 131.789 134.983 131.823C135.017 131.859 135.042 131.902 135.056 131.95C135.069 131.998 135.07 132.048 135.059 132.097L133.685 138.016L129.204 261.941C129.202 261.981 129.193 262.02 129.176 262.056C129.159 262.093 129.134 262.125 129.104 262.152C129.075 262.178 129.04 262.199 129.002 262.211C128.964 262.224 128.924 262.229 128.884 262.226ZM96.6466 261.644H128.622L133.097 137.963C133.095 137.944 133.095 137.924 133.097 137.905L134.372 132.405L129.5 133.464H129.413L113.699 132.184C112.052 132.085 107.542 131.945 106.552 132.51C105.574 133.173 95.5815 150.418 89.0922 161.848C89.0554 161.913 88.995 161.962 88.9234 161.983C88.8519 162.005 88.7748 161.998 88.7081 161.965L87.0319 161.127L84.7971 162.675C84.7646 162.698 84.7276 162.714 84.6885 162.722C84.6494 162.73 84.6091 162.73 84.5701 162.721C84.5316 162.713 84.4952 162.697 84.4632 162.674C84.4312 162.651 84.4042 162.621 84.3839 162.588L68.7921 137.224L55.022 144.819L78.849 191.571C78.849 191.571 81.2585 194.79 83.022 193.824C84.5817 192.974 96.5768 180.094 102.699 173.401C102.74 173.356 102.795 173.325 102.854 173.313C102.914 173.3 102.975 173.307 103.031 173.331C103.086 173.356 103.133 173.397 103.164 173.449C103.195 173.501 103.21 173.562 103.206 173.622L96.6466 261.644Z" fill="#263238"/>
<path d="M103.095 170.852L104.23 159.561L95.7617 181.095L102.915 173.599L103.095 170.852Z" fill="#263238"/>
<path d="M95.7622 181.386C95.7065 181.386 95.6519 181.37 95.6051 181.34C95.5484 181.304 95.5059 181.249 95.4847 181.186C95.4634 181.122 95.4649 181.053 95.4887 180.99L103.963 159.456C103.989 159.391 104.037 159.337 104.098 159.304C104.16 159.271 104.232 159.261 104.3 159.276C104.369 159.292 104.429 159.334 104.47 159.391C104.511 159.449 104.529 159.52 104.521 159.59L103.357 170.881L103.177 173.616C103.172 173.684 103.143 173.748 103.095 173.797L95.9717 181.293C95.9454 181.322 95.9131 181.346 95.877 181.362C95.8409 181.378 95.8017 181.386 95.7622 181.386ZM103.73 161.598L96.577 179.838L102.63 173.488L102.804 170.852L103.73 161.598Z" fill="#263238"/>
<path d="M102.181 163.1C102.112 163.099 102.045 163.073 101.992 163.027C101.94 162.982 101.906 162.918 101.896 162.849C101.71 161.575 100.482 144.359 100.429 143.643C100.427 143.605 100.432 143.567 100.444 143.531C100.456 143.494 100.475 143.461 100.5 143.432C100.551 143.373 100.623 143.337 100.7 143.332C100.777 143.327 100.853 143.352 100.912 143.403C100.97 143.454 101.006 143.526 101.011 143.603C101.011 143.783 102.292 161.528 102.472 162.809C102.482 162.885 102.461 162.962 102.414 163.023C102.368 163.084 102.298 163.124 102.222 163.135L102.181 163.1Z" fill="#263238"/>
<path d="M100.72 169.682C100.651 169.683 100.583 169.659 100.529 169.614C100.476 169.569 100.44 169.507 100.429 169.438L98.4214 156.634C98.4147 156.596 98.4157 156.558 98.4241 156.521C98.4326 156.483 98.4484 156.448 98.4707 156.418C98.4929 156.387 98.5211 156.36 98.5536 156.341C98.5861 156.321 98.6223 156.308 98.66 156.302C98.7371 156.29 98.8157 156.309 98.8789 156.355C98.942 156.401 98.9847 156.47 98.9975 156.546L101.005 169.35C101.012 169.388 101.011 169.426 101.003 169.464C100.994 169.501 100.978 169.536 100.956 169.567C100.934 169.598 100.906 169.624 100.873 169.644C100.841 169.663 100.804 169.677 100.767 169.682H100.72Z" fill="#263238"/>
<path d="M79.6869 174.07C79.6449 174.081 79.6008 174.081 79.5589 174.07C79.4908 174.037 79.4387 173.977 79.4137 173.906C79.3887 173.834 79.3927 173.755 79.425 173.686L84.1799 163.792C84.1945 163.755 84.2167 163.721 84.2449 163.693C84.2732 163.665 84.3069 163.643 84.3441 163.628C84.3813 163.613 84.4211 163.606 84.461 163.608C84.501 163.609 84.5402 163.619 84.5762 163.636C84.6123 163.653 84.6444 163.678 84.6706 163.708C84.6968 163.738 84.7165 163.773 84.7285 163.812C84.7404 163.85 84.7444 163.89 84.7401 163.93C84.7359 163.969 84.7235 164.008 84.7037 164.043L79.9488 173.937C79.9219 173.981 79.8832 174.017 79.8369 174.041C79.7906 174.064 79.7387 174.075 79.6869 174.07Z" fill="#263238"/>
<path d="M84.8084 170.963C84.7641 170.962 84.7205 170.952 84.6803 170.933C84.6118 170.898 84.5596 170.838 84.5346 170.766C84.5097 170.693 84.5139 170.613 84.5465 170.544L88.3876 162.861C88.4043 162.827 88.4278 162.796 88.4566 162.771C88.4854 162.745 88.519 162.726 88.5554 162.714C88.5918 162.702 88.6303 162.698 88.6684 162.701C88.7066 162.704 88.7437 162.715 88.7776 162.733C88.812 162.75 88.8428 162.773 88.8682 162.802C88.8936 162.831 88.913 162.864 88.9255 162.9C88.9379 162.936 88.9431 162.975 88.9407 163.013C88.9383 163.051 88.9283 163.089 88.9115 163.123L85.0703 170.8C85.0463 170.849 85.009 170.89 84.9627 170.919C84.9164 170.947 84.8629 170.963 84.8084 170.963Z" fill="#263238"/>
<path d="M127.422 195.284C127.362 195.286 127.303 195.268 127.254 195.234C127.205 195.199 127.168 195.149 127.149 195.092C124.338 187.229 122.219 175.048 120.933 166.208C120.923 166.132 120.943 166.056 120.989 165.995C121.035 165.934 121.102 165.893 121.178 165.882C121.254 165.872 121.331 165.891 121.393 165.937C121.455 165.983 121.496 166.05 121.509 166.126C122.79 174.938 124.902 187.078 127.696 194.9C127.709 194.936 127.714 194.974 127.712 195.012C127.71 195.05 127.7 195.087 127.683 195.122C127.666 195.156 127.643 195.186 127.614 195.211C127.585 195.236 127.552 195.255 127.516 195.267C127.486 195.278 127.454 195.284 127.422 195.284Z" fill="#263238"/>
<path d="M120.648 162.32C120.578 162.319 120.51 162.294 120.457 162.248C120.403 162.202 120.368 162.139 120.357 162.07C120.008 159.416 119.816 157.734 119.816 157.722C119.81 157.668 119.82 157.613 119.843 157.564C119.867 157.514 119.904 157.472 119.95 157.443L126.631 153.095L118.413 151.757C118.362 151.749 118.314 151.728 118.274 151.695C118.234 151.662 118.204 151.619 118.186 151.57C118.169 151.521 118.164 151.469 118.174 151.418C118.183 151.367 118.205 151.319 118.239 151.279C118.239 151.279 120.078 149.068 121.876 146.367C123.675 143.667 129.495 134.727 129.553 134.669C129.596 134.604 129.662 134.558 129.739 134.542C129.815 134.526 129.894 134.54 129.96 134.582C130.024 134.624 130.068 134.691 130.084 134.766C130.099 134.841 130.084 134.919 130.042 134.983C129.983 135.076 124.169 143.981 122.359 146.693C120.992 148.742 119.612 150.505 119.001 151.262L127.458 152.647C127.516 152.656 127.569 152.683 127.612 152.723C127.655 152.764 127.684 152.816 127.696 152.874C127.707 152.931 127.701 152.991 127.678 153.045C127.655 153.098 127.617 153.144 127.568 153.177L120.404 157.833C120.462 158.327 120.636 159.841 120.922 161.994C120.932 162.07 120.911 162.147 120.864 162.209C120.817 162.27 120.748 162.31 120.671 162.32H120.648Z" fill="#263238"/>
<path d="M229.15 132.853C229.15 132.853 233.108 124.798 235.093 122.162C237.077 119.525 239.05 117.937 241.297 117.541C243.543 117.145 245.12 117.279 246.837 116.615C248.554 115.952 251.988 115.032 252.913 113.845C253.839 112.658 255.55 113.449 254.758 115.428C253.967 117.407 251.197 118.728 251.197 118.728L248.95 119.781C248.95 119.781 256.213 120.841 256.737 121.236C257.261 121.632 263.605 122.162 263.605 122.162C263.605 122.162 260.829 127.045 256.871 129.291C252.913 131.538 240.505 129.687 240.505 129.687L236.81 137.474L229.15 132.853Z" fill="white"/>
<path d="M236.803 137.765C236.752 137.763 236.702 137.749 236.658 137.724L228.998 133.103C228.937 133.065 228.892 133.005 228.871 132.935C228.851 132.866 228.857 132.791 228.888 132.725C229.051 132.393 232.886 124.618 234.859 121.987C236.983 119.153 239.015 117.645 241.261 117.256C242.105 117.104 242.844 117.029 243.554 116.959C244.643 116.903 245.718 116.695 246.749 116.342C247.139 116.196 247.611 116.033 248.123 115.859C249.776 115.277 252.034 114.52 252.697 113.665C252.895 113.363 253.196 113.146 253.545 113.053C253.893 112.961 254.262 113 254.583 113.164C255.113 113.467 255.555 114.27 255.049 115.539C254.222 117.599 251.452 118.938 251.336 118.99L249.962 119.636C252.244 119.979 256.463 120.654 256.946 121.004C257.301 121.225 260.642 121.621 263.662 121.871C263.711 121.874 263.758 121.889 263.799 121.916C263.84 121.943 263.874 121.979 263.897 122.022C263.919 122.066 263.931 122.114 263.929 122.163C263.928 122.212 263.914 122.259 263.889 122.301C263.779 122.505 261.032 127.283 257.051 129.542C253.291 131.672 242.431 130.246 240.708 130.001L237.106 137.567C237.088 137.604 237.063 137.637 237.032 137.665C237.001 137.692 236.964 137.712 236.925 137.724L236.803 137.765ZM229.528 132.743L236.681 137.055L240.237 129.559C240.264 129.503 240.309 129.457 240.365 129.427C240.42 129.398 240.483 129.387 240.545 129.396C240.668 129.396 252.901 131.206 256.725 129.035C259.92 127.225 262.364 123.605 263.127 122.412C261.259 122.249 257.086 121.83 256.579 121.469C256.207 121.231 252.354 120.573 248.926 120.072C248.864 120.064 248.807 120.036 248.763 119.991C248.718 119.947 248.69 119.89 248.682 119.828C248.672 119.766 248.682 119.702 248.712 119.647C248.741 119.591 248.788 119.546 248.845 119.52L251.085 118.466C251.114 118.466 253.768 117.168 254.507 115.317C254.874 114.398 254.624 113.857 254.298 113.665C254.094 113.57 253.862 113.554 253.646 113.621C253.431 113.687 253.249 113.832 253.134 114.025C252.366 115.015 250.102 115.771 248.286 116.412C247.785 116.58 247.32 116.743 246.936 116.889C245.855 117.259 244.729 117.478 243.589 117.541C242.891 117.611 242.163 117.68 241.337 117.826C239.265 118.193 237.35 119.624 235.319 122.336C233.573 124.67 230.203 131.387 229.528 132.743Z" fill="#263238"/>
<path d="M266.102 120.858C266.102 120.858 268.139 116.522 267.97 115.585C267.801 114.648 266.014 115.248 265.421 116.522C264.827 117.797 262.784 120.858 262.784 120.858H266.102Z" fill="white"/>
<path d="M266.102 121.149H262.784C262.732 121.148 262.68 121.132 262.635 121.105C262.59 121.077 262.553 121.038 262.528 120.992C262.5 120.948 262.484 120.896 262.484 120.844C262.484 120.791 262.5 120.739 262.528 120.695C262.528 120.695 264.559 117.64 265.141 116.394C265.345 115.943 265.671 115.559 266.083 115.285C266.494 115.011 266.975 114.859 267.469 114.846C267.652 114.86 267.825 114.935 267.959 115.06C268.093 115.185 268.181 115.352 268.208 115.533C268.389 116.511 266.666 120.241 266.317 120.98C266.297 121.024 266.267 121.062 266.23 121.091C266.192 121.12 266.148 121.14 266.102 121.149ZM263.325 120.567H265.915C266.689 118.903 267.789 116.231 267.661 115.638C267.661 115.539 267.603 115.446 267.417 115.422C267.043 115.451 266.684 115.579 266.376 115.794C266.069 116.009 265.826 116.303 265.671 116.644C264.956 117.991 264.173 119.3 263.325 120.567Z" fill="#263238"/>
<path d="M269.716 118.792C269.716 118.792 266.55 125.526 264.438 127.371C262.325 129.216 258.1 129.355 258.1 129.355C258.1 129.355 263.116 124.071 264.176 122.092C265.235 120.113 269.059 115.358 269.716 118.792Z" fill="white"/>
<path d="M258.099 129.646C258.043 129.645 257.989 129.628 257.942 129.598C257.896 129.567 257.859 129.523 257.837 129.472C257.814 129.419 257.806 129.361 257.815 129.304C257.825 129.247 257.85 129.194 257.889 129.152C257.942 129.099 262.894 123.879 263.919 121.958C264.704 120.486 267.248 117.046 268.889 117.302C269.471 117.389 269.838 117.884 270.001 118.74C270.018 118.797 270.018 118.857 270.001 118.914C269.867 119.194 266.782 125.724 264.646 127.592C262.51 129.46 258.302 129.641 258.128 129.646H258.099ZM268.697 117.872C267.533 117.872 265.257 120.684 264.431 122.232C263.604 123.78 260.142 127.598 258.826 129.006C260.107 128.878 262.755 128.459 264.245 127.155C266.159 125.479 269.035 119.549 269.413 118.757C269.296 118.216 269.087 117.925 268.802 117.878L268.697 117.872Z" fill="#263238"/>
<path d="M267.167 119.386C267.167 119.386 264 126.119 261.888 127.97C259.775 129.821 255.55 129.949 255.55 129.949C255.55 129.949 260.567 124.67 261.626 122.686C262.685 120.701 266.509 115.958 267.167 119.386Z" fill="white"/>
<path d="M255.55 130.24C255.494 130.239 255.44 130.222 255.393 130.191C255.347 130.16 255.31 130.117 255.288 130.065C255.263 130.014 255.254 129.956 255.263 129.9C255.273 129.843 255.3 129.791 255.34 129.751C255.393 129.693 260.34 124.472 261.364 122.552C262.15 121.079 264.681 117.646 266.334 117.896C266.916 117.983 267.289 118.478 267.452 119.328C267.472 119.386 267.472 119.449 267.452 119.508C267.324 119.781 264.233 126.317 262.103 128.18C259.973 130.042 255.759 130.228 255.585 130.234L255.55 130.24ZM266.148 118.466C264.955 118.466 262.702 121.277 261.882 122.825C261.009 124.461 257.592 128.191 256.277 129.6C257.558 129.472 260.206 129.053 261.696 127.749C263.61 126.073 266.485 120.142 266.864 119.351C266.747 118.815 266.538 118.519 266.247 118.478L266.148 118.466Z" fill="#263238"/>
<path d="M238.521 126.253C238.521 126.253 239.184 125.194 241.431 123.745C243.677 122.296 255.556 125.986 255.556 125.986C255.556 125.986 260.968 119.258 261.76 118.594C262.551 117.931 264.006 117.541 264.268 118.862C264.53 120.183 260.968 125.846 260.043 126.783C259.117 127.72 255.556 129.949 255.556 129.949C253.391 130.694 251.111 131.05 248.822 131.002C246.019 130.801 243.239 130.361 240.511 129.687" fill="white"/>
<path d="M249.387 131.305C249.195 131.305 249.003 131.305 248.805 131.305C245.981 131.1 243.179 130.657 240.43 129.978C240.353 129.96 240.286 129.911 240.245 129.844C240.203 129.776 240.19 129.694 240.209 129.617C240.227 129.54 240.276 129.473 240.343 129.432C240.411 129.391 240.492 129.378 240.57 129.396C243.279 130.064 246.04 130.502 248.822 130.706C251.063 130.747 253.294 130.4 255.416 129.681C255.742 129.472 258.978 127.417 259.828 126.568C260.835 125.561 264.193 120.008 263.972 118.914C263.96 118.787 263.912 118.665 263.835 118.562C263.758 118.459 263.655 118.38 263.535 118.332C263.248 118.29 262.955 118.313 262.678 118.399C262.401 118.486 262.147 118.634 261.935 118.833C261.353 119.339 257.64 123.861 255.771 126.183C255.734 126.229 255.685 126.262 255.629 126.279C255.573 126.295 255.513 126.294 255.457 126.277C252.192 125.264 243.328 122.872 241.576 124.001C239.435 125.386 238.771 126.41 238.765 126.416C238.725 126.482 238.659 126.529 238.584 126.546C238.509 126.563 238.429 126.55 238.364 126.509C238.298 126.469 238.252 126.403 238.234 126.328C238.217 126.253 238.23 126.173 238.271 126.108C238.271 126.067 238.992 124.985 241.262 123.512C243.532 122.04 253.56 125.084 255.446 125.666C256.278 124.63 260.817 119.007 261.562 118.385C261.852 118.125 262.199 117.937 262.576 117.836C262.952 117.735 263.346 117.723 263.727 117.803C263.945 117.882 264.137 118.02 264.281 118.202C264.425 118.384 264.515 118.602 264.542 118.833C264.851 120.363 261.05 126.195 260.241 127.016C259.304 127.953 255.847 130.129 255.702 130.223L255.649 130.252C253.632 130.938 251.517 131.293 249.387 131.305Z" fill="#263238"/>
<path d="M224.541 139.762L229.296 131.352L240.82 138.301L237.892 145.436L224.541 139.762Z" fill="white"/>
<path d="M237.892 145.727C237.853 145.733 237.814 145.733 237.775 145.727L224.424 140.053C224.386 140.038 224.352 140.014 224.325 139.984C224.298 139.954 224.278 139.917 224.267 139.878C224.25 139.842 224.241 139.802 224.241 139.762C224.241 139.721 224.25 139.682 224.267 139.645L229.022 131.229C229.063 131.163 229.127 131.115 229.203 131.096C229.238 131.08 229.277 131.072 229.316 131.072C229.355 131.072 229.394 131.08 229.43 131.096L240.947 138.05C241.006 138.088 241.049 138.144 241.071 138.21C241.092 138.276 241.089 138.347 241.064 138.411L238.154 145.547C238.124 145.617 238.067 145.674 237.997 145.704C237.963 145.716 237.928 145.724 237.892 145.727ZM224.954 139.622L237.758 145.052L240.476 138.423L229.418 131.753L224.954 139.622Z" fill="#263238"/>
<path d="M161.895 137.975L166.382 261.941H198.939L192.351 173.599C192.351 173.599 210.09 192.985 212.104 194.08C214.118 195.174 216.679 191.705 216.679 191.705L240.634 144.703L226.398 136.84L210.684 162.448L208.304 160.801L206.476 161.715C206.476 161.715 190.18 133.005 188.917 132.271C187.654 131.538 181.601 131.905 181.601 131.905L165.887 133.185L160.067 132.021L161.895 137.975Z" fill="#7743DC"/>
<path d="M198.939 262.226H166.382C166.306 262.225 166.234 262.194 166.18 262.141C166.125 262.088 166.094 262.016 166.091 261.941L161.604 138.021L159.718 132.114C159.703 132.065 159.701 132.013 159.712 131.963C159.724 131.913 159.747 131.867 159.782 131.829C159.815 131.791 159.858 131.762 159.906 131.746C159.954 131.73 160.006 131.726 160.055 131.736L165.875 132.9L181.56 131.619C182.195 131.584 187.729 131.27 189.045 132.027C190.36 132.783 204.369 157.448 206.575 161.336L208.158 160.545C208.203 160.519 208.254 160.506 208.306 160.506C208.358 160.506 208.409 160.519 208.455 160.545L210.579 162.017L226.147 136.671C226.187 136.609 226.249 136.564 226.32 136.546C226.391 136.528 226.467 136.537 226.531 136.572L240.796 144.435C240.863 144.472 240.912 144.533 240.935 144.606C240.958 144.678 240.952 144.757 240.918 144.825L216.958 191.827C216.824 192.013 214.199 195.535 211.987 194.324C210.142 193.317 195.831 177.778 192.729 174.402L199.23 261.9C199.232 261.941 199.226 261.981 199.212 262.019C199.198 262.057 199.177 262.092 199.148 262.121C199.123 262.153 199.091 262.178 199.055 262.197C199.019 262.215 198.979 262.225 198.939 262.226ZM166.661 261.644H198.625L192.06 173.622C192.055 173.561 192.07 173.5 192.102 173.447C192.135 173.395 192.183 173.354 192.24 173.331C192.295 173.306 192.356 173.3 192.414 173.312C192.473 173.325 192.526 173.356 192.566 173.401C198.694 180.094 210.684 192.974 212.243 193.806C213.989 194.772 216.416 191.548 216.445 191.513L240.249 144.802L226.473 137.207L210.887 162.576C210.867 162.61 210.841 162.64 210.809 162.663C210.776 162.686 210.74 162.702 210.701 162.71C210.662 162.718 210.622 162.719 210.583 162.711C210.543 162.703 210.507 162.686 210.474 162.663L208.239 161.115L206.563 161.953C206.497 161.986 206.421 161.993 206.35 161.971C206.28 161.95 206.22 161.901 206.185 161.837C199.701 150.406 189.708 133.162 188.725 132.498C187.741 131.916 183.231 132.073 181.572 132.172L165.858 133.453H165.776L160.422 132.393L162.168 137.876C162.171 137.901 162.171 137.926 162.168 137.951L166.661 261.644Z" fill="#263238"/>
<path d="M192.351 173.599L192.13 164.677L199.19 180.566L192.351 173.599Z" fill="#263238"/>
<path d="M199.19 180.857C199.151 180.857 199.114 180.849 199.078 180.834C199.043 180.819 199.012 180.797 198.986 180.769L192.147 173.785C192.095 173.732 192.064 173.662 192.06 173.587L191.839 164.706C191.838 164.639 191.86 164.574 191.902 164.521C191.943 164.468 192.001 164.431 192.066 164.415C192.132 164.398 192.201 164.406 192.262 164.435C192.322 164.465 192.371 164.516 192.398 164.578L199.457 180.467C199.485 180.529 199.49 180.598 199.47 180.663C199.451 180.728 199.409 180.785 199.352 180.822C199.303 180.85 199.246 180.862 199.19 180.857ZM192.642 173.477L198.27 179.215L192.45 166.132L192.642 173.477Z" fill="#263238"/>
<path d="M192.17 171.143C192.097 171.143 192.026 171.116 191.972 171.066C191.918 171.016 191.885 170.948 191.879 170.875L190.232 146.734C190.229 146.696 190.234 146.657 190.247 146.621C190.259 146.585 190.278 146.551 190.303 146.522C190.328 146.493 190.359 146.47 190.393 146.452C190.427 146.435 190.465 146.425 190.503 146.422C190.541 146.42 190.579 146.425 190.616 146.437C190.652 146.449 190.686 146.468 190.715 146.493C190.743 146.518 190.767 146.549 190.784 146.583C190.801 146.618 190.811 146.655 190.814 146.693L192.461 170.834C192.464 170.873 192.458 170.911 192.446 170.947C192.433 170.983 192.414 171.017 192.388 171.046C192.363 171.074 192.332 171.098 192.298 171.114C192.263 171.131 192.226 171.141 192.188 171.143H192.17Z" fill="#263238"/>
<path d="M193.084 163.1H193.043C192.968 163.088 192.9 163.048 192.854 162.987C192.808 162.926 192.788 162.849 192.798 162.774C192.973 161.517 193.852 151.39 193.858 151.291C193.868 151.214 193.906 151.144 193.966 151.095C194.025 151.045 194.101 151.02 194.178 151.023C194.254 151.031 194.324 151.068 194.373 151.127C194.422 151.185 194.446 151.261 194.44 151.337C194.405 151.756 193.555 161.581 193.375 162.855C193.362 162.924 193.327 162.985 193.273 163.03C193.22 163.075 193.153 163.099 193.084 163.1Z" fill="#263238"/>
<path d="M194.55 169.682H194.504C194.465 169.677 194.429 169.665 194.395 169.645C194.362 169.626 194.333 169.599 194.31 169.568C194.288 169.537 194.271 169.502 194.262 169.465C194.254 169.427 194.253 169.388 194.259 169.35L196.273 156.546C196.279 156.508 196.292 156.471 196.312 156.438C196.332 156.405 196.358 156.376 196.389 156.353C196.42 156.33 196.455 156.314 196.493 156.304C196.53 156.295 196.569 156.293 196.607 156.299C196.646 156.305 196.682 156.318 196.716 156.338C196.749 156.358 196.777 156.384 196.8 156.415C196.823 156.446 196.84 156.482 196.849 156.519C196.859 156.557 196.861 156.595 196.855 156.634L194.841 169.438C194.831 169.507 194.796 169.57 194.742 169.615C194.689 169.661 194.62 169.684 194.55 169.682Z" fill="#263238"/>
<path d="M211.748 169.49C211.68 169.488 211.614 169.463 211.562 169.419C211.51 169.374 211.475 169.313 211.463 169.246L210.537 163.955C210.531 163.917 210.532 163.878 210.541 163.84C210.549 163.802 210.565 163.767 210.588 163.735C210.61 163.703 210.638 163.676 210.671 163.656C210.704 163.635 210.741 163.621 210.779 163.615C210.817 163.608 210.856 163.609 210.894 163.618C210.932 163.627 210.968 163.643 210.999 163.665C211.031 163.687 211.058 163.716 211.078 163.749C211.099 163.782 211.113 163.818 211.119 163.856L212.051 169.147C212.062 169.223 212.044 169.301 212 169.364C211.955 169.427 211.888 169.47 211.812 169.484L211.748 169.49Z" fill="#263238"/>
<path d="M206.558 166.894C206.481 166.89 206.41 166.857 206.357 166.802C206.304 166.747 206.274 166.674 206.272 166.598L206.331 162.983C206.339 162.908 206.373 162.839 206.427 162.787C206.481 162.735 206.552 162.703 206.627 162.698C206.666 162.699 206.703 162.707 206.738 162.722C206.773 162.738 206.805 162.76 206.832 162.787C206.858 162.815 206.879 162.848 206.893 162.883C206.907 162.919 206.913 162.957 206.913 162.995L206.854 166.603C206.854 166.642 206.847 166.68 206.832 166.716C206.817 166.752 206.795 166.784 206.767 166.811C206.74 166.838 206.707 166.86 206.671 166.874C206.635 166.888 206.596 166.895 206.558 166.894Z" fill="#263238"/>
<path d="M167.848 195.284C167.816 195.293 167.781 195.293 167.749 195.284C167.677 195.259 167.617 195.207 167.584 195.138C167.55 195.069 167.544 194.99 167.569 194.918C168.011 193.684 168.453 192.287 168.884 190.762C168.894 190.724 168.912 190.688 168.936 190.657C168.96 190.625 168.99 190.599 169.025 190.579C169.059 190.56 169.097 190.547 169.136 190.542C169.175 190.537 169.215 190.539 169.253 190.55C169.292 190.56 169.327 190.578 169.359 190.602C169.39 190.626 169.416 190.656 169.436 190.691C169.456 190.725 169.469 190.763 169.474 190.802C169.479 190.841 169.476 190.881 169.466 190.919C169.029 192.456 168.581 193.87 168.139 195.11C168.115 195.166 168.074 195.212 168.022 195.244C167.969 195.275 167.909 195.289 167.848 195.284Z" fill="#263238"/>
<path d="M169.943 188.329H169.867C169.794 188.31 169.731 188.263 169.691 188.198C169.652 188.132 169.64 188.054 169.658 187.98C172.754 175.758 174.663 159.712 174.896 157.844L167.732 153.188C167.683 153.156 167.645 153.11 167.623 153.056C167.601 153.002 167.596 152.942 167.609 152.886C167.62 152.828 167.648 152.775 167.689 152.735C167.731 152.694 167.784 152.667 167.842 152.659L176.31 151.273C175.728 150.517 174.32 148.753 172.952 146.705C171.142 143.993 165.328 135.065 165.27 134.995C165.233 134.93 165.222 134.854 165.24 134.781C165.258 134.709 165.302 134.646 165.365 134.606C165.428 134.566 165.504 134.551 165.577 134.565C165.65 134.579 165.715 134.62 165.759 134.681C165.817 134.768 171.631 143.672 173.435 146.379C175.239 149.085 177.061 151.273 177.078 151.291C177.11 151.332 177.131 151.38 177.139 151.43C177.147 151.481 177.142 151.533 177.125 151.582C177.108 151.631 177.077 151.674 177.037 151.706C176.997 151.739 176.949 151.761 176.898 151.768L168.68 153.107L175.367 157.454C175.413 157.484 175.449 157.526 175.471 157.576C175.494 157.625 175.502 157.68 175.495 157.734C175.495 157.902 173.528 175.135 170.257 188.12C170.239 188.186 170.196 188.244 170.139 188.283C170.081 188.321 170.012 188.338 169.943 188.329Z" fill="#263238"/>
<path d="M134.558 120.567L134.61 133.004L148.933 141.665L160.538 133.621L159.467 119.514C159.467 119.514 150.499 125.334 149.311 125.578C148.124 125.823 134.558 120.567 134.558 120.567Z" fill="white"/>
<path d="M148.934 141.956C148.881 141.957 148.828 141.943 148.782 141.915L134.442 133.278C134.399 133.251 134.363 133.215 134.338 133.171C134.313 133.127 134.298 133.078 134.297 133.028L134.244 120.59C134.245 120.543 134.257 120.497 134.28 120.456C134.302 120.415 134.333 120.379 134.372 120.353C134.411 120.326 134.455 120.309 134.502 120.302C134.548 120.296 134.596 120.301 134.64 120.317C139.878 122.342 148.41 125.485 149.242 125.316C150.075 125.147 155.714 121.609 159.305 119.293C159.348 119.267 159.397 119.253 159.448 119.253C159.498 119.253 159.547 119.267 159.59 119.293C159.635 119.315 159.674 119.349 159.703 119.391C159.731 119.432 159.749 119.481 159.753 119.531L160.807 133.639C160.81 133.69 160.8 133.741 160.778 133.787C160.755 133.833 160.721 133.872 160.679 133.901L149.079 141.944C149.032 141.96 148.983 141.964 148.934 141.956ZM134.902 132.842L148.922 141.321L160.236 133.476L159.229 120.02C157.32 121.254 150.499 125.619 149.394 125.84C148.288 126.061 137.829 122.121 134.844 120.969L134.902 132.842Z" fill="#263238"/>
<path d="M134.756 130.624L148.357 127.254L134.61 121.644L134.756 130.624Z" fill="#263238"/>
<path d="M134.756 130.909C134.691 130.911 134.627 130.89 134.575 130.851C134.541 130.824 134.513 130.79 134.494 130.75C134.474 130.711 134.465 130.668 134.465 130.624L134.319 121.638C134.319 121.59 134.331 121.543 134.353 121.5C134.376 121.457 134.408 121.421 134.447 121.394C134.489 121.371 134.536 121.359 134.584 121.359C134.632 121.359 134.679 121.371 134.721 121.394L148.468 127.004C148.525 127.027 148.573 127.068 148.605 127.12C148.638 127.172 148.653 127.234 148.648 127.295C148.642 127.356 148.618 127.414 148.578 127.46C148.539 127.507 148.486 127.541 148.427 127.557L134.826 130.921L134.756 130.909ZM134.913 122.08L135.041 130.228L147.42 127.161L134.913 122.08Z" fill="#263238"/>
<path d="M159.468 105.005C159.468 105.005 159.334 99.3358 160.917 96.1698C161.424 95.1446 161.688 94.0164 161.688 92.8727C161.688 91.7291 161.424 90.6008 160.917 89.5757L162.378 89.0461C161.583 88.3801 160.747 87.7639 159.875 87.2011C159.48 87.0673 160.137 83.5113 158.95 81.6605C157.763 79.8097 156.575 79.4198 156.575 79.4198L155.918 81.7944C155.918 81.7944 152.356 77.5749 150.377 76.7833C148.398 75.9918 142.736 72.1681 142.59 74.1469C142.445 76.1257 143.253 76.9172 143.253 76.9172C143.253 76.9172 139.296 74.6707 136.269 75.4622C133.243 76.2537 130.333 78.1045 130.991 78.7621C131.648 79.4198 134.553 82.1901 134.553 82.1901C134.553 82.1901 127.83 82.452 127.039 83.2435C126.508 83.8587 126.111 84.5784 125.875 85.3562L129.699 87.335C129.699 87.335 126.271 87.0673 124.95 89.1799C123.628 91.2926 123.367 92.0899 124.292 92.4741C125.206 92.9401 126.087 93.469 126.928 94.0571C126.928 94.0571 126.003 95.6401 127.062 98.2766C128.121 100.913 130.618 106.721 130.618 106.721C130.618 106.721 131.544 97.2232 132.201 95.3782C132.859 93.5333 141.042 89.1799 142.223 88.7842C143.405 88.3884 151.722 90.6291 152.251 90.6291C152.781 90.6291 156.203 103.951 156.995 104.475C157.786 104.999 159.468 105.005 159.468 105.005Z" fill="#263238"/>
<path d="M130.6 107.012C130.544 107.011 130.489 106.993 130.443 106.961C130.396 106.929 130.36 106.884 130.338 106.832C130.338 106.774 127.818 101.012 126.771 98.3871C125.904 96.2221 126.317 94.7264 126.544 94.1618C125.783 93.6326 124.986 93.158 124.158 92.7417C124.002 92.6891 123.861 92.6021 123.744 92.4872C123.627 92.3724 123.538 92.2325 123.482 92.0783C123.285 91.4439 123.733 90.5534 124.687 89.0228C125.584 87.5852 127.347 87.172 128.528 87.0672L125.712 85.6122C125.651 85.5831 125.602 85.5328 125.575 85.4708C125.549 85.4087 125.545 85.339 125.566 85.2747C125.821 84.4484 126.249 83.6863 126.823 83.0398C127.545 82.3181 131.945 82.0271 133.854 81.9282C132.998 81.1076 131.27 79.4547 130.781 78.9658C130.699 78.8887 130.64 78.7893 130.614 78.6798C130.587 78.5703 130.592 78.4553 130.629 78.3489C130.915 77.2955 133.801 75.8055 136.188 75.1828C138.469 74.6008 141.193 75.6135 142.549 76.2362C142.323 75.5584 142.237 74.8414 142.299 74.1294C142.3 73.9846 142.339 73.8426 142.412 73.7179C142.486 73.5932 142.591 73.4902 142.718 73.4193C143.596 72.9363 145.581 73.9315 148.287 75.3981C149.149 75.8637 149.963 76.3061 150.481 76.5156C152.152 77.1791 154.812 80.0949 155.778 81.1716L156.29 79.3208C156.301 79.2827 156.32 79.2471 156.345 79.2161C156.37 79.1852 156.4 79.1594 156.435 79.1404C156.471 79.1234 156.51 79.1145 156.549 79.1145C156.588 79.1145 156.627 79.1234 156.662 79.1404C156.715 79.1404 157.96 79.5885 159.188 81.4684C159.986 82.7081 159.997 84.6228 160.003 85.8916C159.995 86.2376 160.01 86.5837 160.05 86.9276C160.922 87.4957 161.76 88.1157 162.558 88.7841C162.598 88.8177 162.629 88.8611 162.647 88.91C162.666 88.959 162.671 89.0118 162.663 89.0635C162.653 89.1138 162.63 89.1606 162.596 89.1994C162.562 89.2382 162.519 89.2676 162.471 89.2847L161.307 89.7037C161.771 90.7389 162 91.8645 161.976 92.999C161.952 94.1335 161.675 95.2484 161.167 96.2628C159.636 99.33 159.747 104.906 159.747 104.964C159.747 105.042 159.715 105.118 159.66 105.173C159.634 105.201 159.602 105.223 159.567 105.238C159.532 105.253 159.494 105.261 159.456 105.261C159.38 105.261 157.64 105.261 156.79 104.679C156.36 104.393 155.731 102.496 154.061 96.938C153.31 94.4528 152.39 91.3857 152.076 90.8677C151.808 90.8328 151.221 90.6931 149.964 90.4021C147.711 89.8725 143.026 88.7667 142.269 89.0169C141.036 89.4302 133.027 93.7544 132.428 95.4189C131.793 97.2115 130.874 106.593 130.862 106.686C130.857 106.751 130.829 106.812 130.785 106.859C130.741 106.907 130.682 106.938 130.618 106.948L130.6 107.012ZM129.332 87.6143C128.47 87.6143 126.16 87.7656 125.176 89.3603C124.402 90.6058 123.907 91.5195 124.012 91.9328C124.012 92.0084 124.099 92.1248 124.367 92.2412C125.298 92.7124 126.195 93.2492 127.05 93.8475C127.112 93.8891 127.155 93.9527 127.171 94.0252C127.188 94.0977 127.175 94.1736 127.137 94.2375C127.137 94.2375 126.305 95.7449 127.289 98.2009C128.063 100.133 129.617 103.811 130.402 105.604C130.67 103.02 131.357 96.8041 131.887 95.3084C132.626 93.2423 141.129 88.8598 142.095 88.5397C142.933 88.2545 146.361 89.0228 150.097 89.9016C151.104 90.1402 152.059 90.3614 152.21 90.3672C152.594 90.3672 152.74 90.5883 154.62 96.839C155.522 99.8247 156.75 103.904 157.128 104.271C157.765 104.573 158.46 104.732 159.165 104.737C159.165 103.497 159.246 98.876 160.649 96.0708C161.13 95.0856 161.38 94.0038 161.38 92.9076C161.38 91.8114 161.13 90.7296 160.649 89.7444C160.629 89.7076 160.617 89.6668 160.614 89.6249C160.611 89.5829 160.618 89.5409 160.632 89.5017C160.647 89.4624 160.671 89.4268 160.701 89.3974C160.731 89.368 160.767 89.3454 160.806 89.3312L161.772 88.982C161.136 88.4436 160.463 87.9497 159.759 87.5037C159.415 87.3932 159.415 86.9741 159.404 85.9556C159.404 84.7567 159.404 82.9467 158.682 81.8467C158.201 81.0398 157.535 80.3593 156.738 79.8621L156.156 81.8991C156.143 81.9503 156.115 81.9969 156.077 82.0338C156.039 82.0707 155.992 82.0966 155.941 82.1086C155.889 82.1191 155.835 82.1155 155.785 82.0981C155.734 82.0807 155.69 82.0501 155.655 82.0097C155.621 81.9689 152.117 77.8367 150.231 77.0801C149.459 76.7307 148.706 76.3422 147.973 75.9161C146.227 74.9791 143.631 73.5881 142.962 73.9315C142.933 73.9315 142.857 73.9897 142.846 74.1701C142.729 75.9685 143.428 76.7076 143.428 76.7193C143.474 76.7714 143.499 76.8387 143.499 76.9084C143.499 76.9781 143.474 77.0454 143.428 77.0976C143.385 77.1527 143.324 77.1907 143.255 77.2046C143.187 77.2185 143.116 77.2074 143.055 77.1732C143.02 77.1732 139.167 75.0024 136.281 75.7532C133.58 76.4574 131.299 77.9124 131.136 78.5118C131.788 79.2102 134.669 81.9573 134.698 82.0038C134.739 82.0435 134.767 82.0944 134.78 82.1503C134.792 82.2061 134.788 82.2644 134.768 82.3178C134.747 82.3712 134.711 82.4174 134.665 82.4505C134.618 82.4837 134.563 82.5024 134.506 82.5044C131.759 82.6091 127.673 82.9816 127.184 83.4763C126.727 83.9842 126.375 84.5776 126.148 85.2223L129.751 87.0847C129.809 87.1164 129.856 87.167 129.882 87.2282C129.908 87.2895 129.913 87.3578 129.896 87.4223C129.877 87.4867 129.837 87.5428 129.782 87.5818C129.727 87.6208 129.661 87.6404 129.593 87.6376C129.593 87.6376 129.529 87.6143 129.332 87.6143Z" fill="#263238"/>
<path d="M137.724 85.49C137.724 85.49 128.889 94.22 128.755 95.6401C128.621 97.0602 132.579 119.642 132.829 120.433C133.08 121.225 142.456 127.161 145.354 127.819C148.252 128.477 151.29 127.685 152.082 127.027C152.873 126.37 160.521 122.016 161.312 118.454C162.104 114.893 157.139 90.6291 156.557 89.7095C155.975 88.79 143.66 82.8477 137.724 85.49Z" fill="white"/>
<path d="M147.664 128.354C146.872 128.357 146.081 128.273 145.307 128.104C142.543 127.475 132.899 121.522 132.567 120.538C132.206 119.456 128.336 97.0718 128.464 95.6284C128.592 94.1851 136.03 86.7587 137.52 85.2921C137.544 85.2663 137.574 85.2464 137.607 85.2339C143.474 82.6265 156.144 88.3651 156.813 89.5756C157.36 90.5301 162.4 114.875 161.591 118.53C160.916 121.574 155.527 125.101 153.228 126.608C152.757 126.917 152.39 127.155 152.262 127.266C151.604 127.819 149.73 128.354 147.664 128.354ZM137.892 85.7344C134.499 89.0751 129.133 94.6914 129.046 95.6692C128.93 96.9787 132.788 119.351 133.12 120.34C133.527 121.108 142.525 126.876 145.435 127.534C148.345 128.191 151.209 127.394 151.913 126.806C152.064 126.678 152.408 126.451 152.931 126.108C155.172 124.641 160.422 121.207 161.044 118.39C161.807 114.968 156.854 90.8386 156.33 89.8724C155.841 89.1217 143.753 83.226 137.892 85.7344Z" fill="#263238"/>
<path d="M137.724 85.49C137.724 85.49 140.785 87.0032 142.048 87.5677C143.311 88.1323 144.708 86.1651 144.708 86.1651C144.708 86.1651 155.55 89.8841 156.58 89.7095C157.611 89.5349 153.67 85.4609 149.596 83.9186C145.522 82.3763 137.747 82.5683 137.724 85.49Z" fill="#263238"/>
<path d="M156.523 90.0005C155.12 90.0005 146.955 87.2418 144.813 86.5085C144.406 87.009 143.16 88.3767 141.903 87.8354C140.646 87.2942 137.602 85.7635 137.573 85.746C137.524 85.722 137.483 85.6848 137.454 85.6385C137.425 85.5922 137.41 85.5387 137.41 85.4841C137.422 85.1407 137.521 84.8059 137.697 84.5108C137.873 84.2157 138.12 83.9699 138.417 83.7963C140.745 82.2191 146.478 82.4228 149.702 83.6508C153.275 85.0069 157.117 88.5164 157.012 89.5698C157.004 89.6758 156.959 89.7758 156.886 89.8531C156.813 89.9304 156.716 89.9803 156.61 89.9946L156.523 90.0005ZM144.708 85.8741C144.741 85.8685 144.775 85.8685 144.807 85.8741C148.829 87.2534 155.376 89.3661 156.447 89.4068C156.203 88.6095 153.06 85.5191 149.522 84.1688C146.449 83.0048 140.885 82.8128 138.778 84.2561C138.587 84.3662 138.423 84.5155 138.294 84.6941C138.166 84.8727 138.077 85.0765 138.033 85.2921C138.702 85.618 141.1 86.8053 142.171 87.2767C143.026 87.655 144.126 86.4619 144.499 85.973C144.525 85.9425 144.557 85.9179 144.593 85.9008C144.629 85.8837 144.668 85.8746 144.708 85.8741Z" fill="#263238"/>
<path d="M145.814 110.452C145.739 110.458 145.663 110.458 145.587 110.452L144.848 110.33C144.325 110.415 143.795 110.458 143.265 110.458C142.915 110.434 142.581 110.297 142.316 110.067C142.05 109.837 141.866 109.527 141.793 109.183C141.777 109.109 141.79 109.03 141.83 108.965C141.87 108.9 141.934 108.853 142.008 108.834C142.082 108.816 142.16 108.828 142.225 108.868C142.291 108.907 142.338 108.97 142.357 109.044C142.357 109.078 142.584 109.882 143.265 109.882C143.776 109.883 144.286 109.841 144.79 109.754H144.918L145.71 109.882C146.414 110.004 147.933 109.247 148.038 108.916C148.142 108.584 147.38 105.214 146.874 102.775C146.292 99.912 145.919 98.1194 145.919 97.776C145.919 96.9147 147.525 95.1512 147.845 94.8078C147.901 94.7541 147.975 94.7241 148.052 94.7241C148.129 94.7241 148.203 94.7541 148.259 94.8078C148.286 94.8349 148.308 94.8671 148.322 94.9025C148.337 94.938 148.345 94.976 148.345 95.0144C148.345 95.0529 148.337 95.0909 148.322 95.1264C148.308 95.1618 148.286 95.194 148.259 95.2211C147.525 96.0068 146.513 97.3279 146.513 97.7935C146.513 98.1194 147.013 100.541 147.456 102.676C148.393 107.21 148.689 108.77 148.62 109.078C148.41 109.707 146.745 110.452 145.814 110.452Z" fill="#263238"/>
<path d="M148.741 109.294C148.565 109.292 148.39 109.277 148.217 109.247C148.18 109.24 148.144 109.225 148.113 109.203C148.081 109.182 148.054 109.154 148.033 109.123C148.012 109.091 147.997 109.055 147.99 109.017C147.982 108.98 147.983 108.941 147.99 108.904C147.997 108.866 148.012 108.83 148.033 108.798C148.054 108.766 148.081 108.738 148.114 108.717C148.146 108.696 148.182 108.681 148.219 108.675C148.257 108.668 148.296 108.668 148.334 108.677C148.661 108.749 149.002 108.719 149.311 108.59C149.379 108.541 149.425 108.468 149.439 108.386L149.567 107.594C149.582 107.518 149.625 107.451 149.688 107.407C149.751 107.362 149.829 107.344 149.905 107.356C149.943 107.361 149.979 107.374 150.011 107.394C150.044 107.414 150.072 107.44 150.094 107.471C150.117 107.502 150.132 107.537 150.141 107.574C150.149 107.611 150.15 107.65 150.144 107.687L150.01 108.479C149.991 108.596 149.948 108.707 149.885 108.807C149.822 108.907 149.74 108.993 149.643 109.061C149.372 109.225 149.058 109.306 148.741 109.294Z" fill="#263238"/>
<path d="M144.842 110.306C144.783 110.307 144.726 110.289 144.679 110.254C144.357 110.005 144.122 109.66 144.008 109.269C143.894 108.878 143.907 108.461 144.045 108.077C144.053 108.037 144.07 107.999 144.094 107.966C144.119 107.933 144.15 107.905 144.185 107.885C144.221 107.865 144.261 107.852 144.302 107.848C144.343 107.844 144.384 107.849 144.423 107.862C144.462 107.876 144.498 107.897 144.528 107.925C144.558 107.953 144.581 107.987 144.597 108.025C144.613 108.063 144.621 108.104 144.62 108.145C144.619 108.186 144.609 108.227 144.592 108.264C144.493 108.529 144.482 108.819 144.558 109.092C144.634 109.365 144.795 109.607 145.016 109.783C145.065 109.819 145.101 109.87 145.12 109.929C145.138 109.987 145.137 110.05 145.118 110.108C145.099 110.165 145.062 110.216 145.012 110.252C144.962 110.287 144.903 110.306 144.842 110.306Z" fill="#263238"/>
<path d="M142.473 118.35C142.401 118.35 142.331 118.325 142.275 118.28C142.221 118.225 142.191 118.15 142.191 118.073C142.191 117.996 142.221 117.922 142.275 117.867C142.322 117.814 146.821 112.856 151.965 114.887C152.001 114.901 152.033 114.922 152.061 114.949C152.088 114.975 152.11 115.007 152.125 115.042C152.14 115.077 152.148 115.115 152.149 115.153C152.15 115.192 152.143 115.23 152.128 115.265C152.114 115.301 152.093 115.333 152.067 115.361C152.04 115.388 152.008 115.41 151.973 115.425C151.938 115.44 151.9 115.448 151.862 115.449C151.824 115.449 151.786 115.442 151.75 115.428C146.983 113.548 142.752 118.204 142.712 118.257C142.682 118.289 142.644 118.315 142.603 118.331C142.562 118.347 142.517 118.353 142.473 118.35Z" fill="#263238"/>
<path d="M133.37 100.18C133.3 100.18 133.231 100.166 133.167 100.139C133.024 100.084 132.908 99.9752 132.845 99.8357C132.782 99.6963 132.776 99.5376 132.829 99.394C133.449 97.8966 134.488 96.6095 135.82 95.6866C138.044 94.2025 141.897 95.9602 142.06 96.0358C142.129 96.0683 142.192 96.1142 142.243 96.1708C142.295 96.2274 142.335 96.2937 142.362 96.3659C142.388 96.438 142.4 96.5146 142.396 96.5913C142.393 96.668 142.374 96.7433 142.342 96.8128C142.309 96.8824 142.263 96.9448 142.207 96.9967C142.15 97.0485 142.084 97.0886 142.012 97.1149C141.94 97.1411 141.863 97.1528 141.786 97.1494C141.71 97.146 141.634 97.1276 141.565 97.0951C140.622 96.6528 137.857 95.7216 136.466 96.6528C135.34 97.4444 134.457 98.5349 133.917 99.8014C133.876 99.9128 133.801 100.009 133.703 100.076C133.605 100.144 133.489 100.18 133.37 100.18Z" fill="#263238"/>
<path d="M156.453 97.6771C156.347 97.6779 156.242 97.6495 156.151 97.5952C156.06 97.5408 155.985 97.4624 155.935 97.3686C155.275 96.2453 154.268 95.367 153.066 94.866C152.547 94.6779 151.988 94.6294 151.444 94.7254C150.901 94.8214 150.392 95.0586 149.969 95.4131C149.913 95.4651 149.846 95.5053 149.774 95.5314C149.701 95.5575 149.625 95.569 149.548 95.5652C149.471 95.5614 149.396 95.5424 149.326 95.5093C149.257 95.4762 149.194 95.4297 149.143 95.3724C149.04 95.258 148.986 95.1075 148.994 94.9536C149.002 94.7998 149.07 94.6553 149.184 94.5518C149.766 94.0534 150.47 93.719 151.223 93.583C151.977 93.4469 152.754 93.5141 153.473 93.7777C154.941 94.3757 156.17 95.4443 156.965 96.8157C157.002 96.8833 157.025 96.9574 157.033 97.0339C157.04 97.1104 157.033 97.1876 157.011 97.2612C156.989 97.3348 156.952 97.4033 156.903 97.4627C156.854 97.5221 156.794 97.5712 156.727 97.6073C156.642 97.6526 156.549 97.6766 156.453 97.6771Z" fill="#263238"/>
<path d="M139.243 103.555C139.79 103.555 140.233 102.935 140.233 102.17C140.233 101.405 139.79 100.785 139.243 100.785C138.697 100.785 138.254 101.405 138.254 102.17C138.254 102.935 138.697 103.555 139.243 103.555Z" fill="#263238"/>
<path d="M152.035 100.191C152.035 100.954 151.587 101.576 151.046 101.576C150.505 101.576 150.057 100.954 150.057 100.191C150.057 99.4289 150.499 98.8062 151.046 98.8062C151.593 98.8062 152.035 99.4289 152.035 100.191Z" fill="#263238"/>
<path d="M130.368 105.266C130.368 105.266 127.865 101.71 126.678 104.475C125.491 107.239 126.678 109.486 127.842 111.337C129.006 113.187 131.532 114.107 131.532 114.107L130.368 105.266Z" fill="white"/>
<path d="M131.532 114.398C131.499 114.404 131.466 114.404 131.433 114.398C131.328 114.363 128.82 113.42 127.598 111.488C126.265 109.416 125.2 107.123 126.387 104.358C126.477 104.049 126.651 103.771 126.889 103.554C127.127 103.337 127.421 103.191 127.737 103.13C129.059 102.997 130.432 104.876 130.583 105.098C130.613 105.135 130.631 105.179 130.636 105.226L131.8 114.06C131.805 114.111 131.798 114.162 131.779 114.208C131.759 114.255 131.729 114.296 131.689 114.328C131.645 114.366 131.59 114.391 131.532 114.398ZM127.877 103.712H127.796C127.446 103.747 127.155 104.044 126.923 104.585C125.788 107.228 126.923 109.37 128.087 111.174C128.885 112.248 129.95 113.095 131.177 113.63L130.065 105.371C129.681 104.859 128.669 103.712 127.871 103.712H127.877Z" fill="#263238"/>
<path d="M159.747 100.919C159.747 100.919 160.009 98.4104 161.068 98.6723C162.128 98.9342 164.101 100.919 162.913 103.683C161.726 106.448 160.539 109.358 160.539 109.358L159.468 103.951L159.747 100.919Z" fill="white"/>
<path d="M160.538 109.649C160.476 109.641 160.417 109.614 160.371 109.571C160.325 109.528 160.294 109.472 160.282 109.41L159.229 104.003C159.226 103.976 159.226 103.949 159.229 103.922L159.491 100.89C159.491 100.703 159.706 99.0506 160.445 98.5326C160.55 98.4588 160.669 98.4085 160.794 98.3854C160.92 98.3623 161.049 98.3669 161.173 98.3988C161.616 98.5576 162.022 98.803 162.369 99.1208C162.716 99.4386 162.996 99.8223 163.192 100.25C163.461 100.804 163.601 101.412 163.601 102.028C163.601 102.643 163.461 103.251 163.192 103.806C162.028 106.541 160.829 109.445 160.818 109.474C160.795 109.529 160.756 109.575 160.706 109.606C160.656 109.637 160.597 109.652 160.538 109.649ZM159.776 103.934L160.637 108.351C161.085 107.274 161.865 105.383 162.645 103.573C162.875 103.094 162.994 102.57 162.994 102.039C162.994 101.508 162.875 100.984 162.645 100.506C162.323 99.7937 161.734 99.2374 161.004 98.9575C160.961 98.9444 160.915 98.9417 160.87 98.9498C160.826 98.9579 160.784 98.9765 160.748 99.004C160.358 99.2776 160.108 100.337 160.044 100.942L159.776 103.934Z" fill="#263238"/>
<path d="M273.302 262.226H29.3564C29.2793 262.226 29.2052 262.195 29.1507 262.141C29.0961 262.086 29.0654 262.012 29.0654 261.935C29.0654 261.858 29.0961 261.784 29.1507 261.729C29.2052 261.675 29.2793 261.644 29.3564 261.644H273.302C273.379 261.644 273.453 261.675 273.507 261.729C273.562 261.784 273.593 261.858 273.593 261.935C273.591 262.012 273.56 262.085 273.506 262.139C273.452 262.193 273.378 262.224 273.302 262.226Z" fill="#263238"/>
</svg>
