<svg width="291" height="291" viewBox="0 0 291 291" fill="none" xmlns="http://www.w3.org/2000/svg">
<path d="M252.368 64.2235C251.476 62.7336 250.545 61.2728 249.575 59.8411C236.637 40.8329 215.103 27.8311 194.174 21.9296C185.05 19.3923 175.656 17.9543 166.191 17.6461C104.552 15.4054 81.9062 66.2256 62.0484 79.3381C42.1905 92.4505 11.7112 114.84 15.5349 161.842C18.4449 197.589 38.7742 231.775 75.9174 247.327C80.1138 249.088 84.4199 250.575 88.8087 251.779C97.6975 254.185 106.828 255.589 116.029 255.963C144.11 257.215 166.913 250.44 189.215 233.399C194.401 229.436 199.558 224.966 206.285 224.477C211.18 224.122 215.813 225.874 210.703 230.606C204.697 236.158 211.628 247.082 226.877 239.493C252.351 226.817 262.827 199.463 267.762 171.649C273.821 137.503 270.887 95.0521 252.368 64.2235Z" fill="#7743DC"/>
<path opacity="0.7" d="M252.368 64.2235C251.476 62.7336 250.545 61.2728 249.575 59.8411C236.637 40.8329 215.103 27.8311 194.174 21.9296C185.05 19.3923 175.656 17.9543 166.191 17.6461C104.552 15.4054 81.9062 66.2256 62.0484 79.3381C42.1905 92.4505 11.7112 114.84 15.5349 161.842C18.4449 197.589 38.7742 231.775 75.9174 247.327C80.1138 249.088 84.4199 250.575 88.8087 251.779C97.6975 254.185 106.828 255.589 116.029 255.963C144.11 257.215 166.913 250.44 189.215 233.399C194.401 229.436 199.558 224.966 206.285 224.477C211.18 224.122 215.813 225.874 210.703 230.606C204.697 236.158 211.628 247.082 226.877 239.493C252.351 226.817 262.827 199.463 267.762 171.649C273.821 137.503 270.887 95.0521 252.368 64.2235Z" fill="white"/>
<path d="M87.2642 223.535C85.7277 224.018 82.1484 223.535 82.1484 223.535C82.1484 223.535 83.1786 221.271 83.2601 221.137C84.2262 219.578 87.014 217.133 89.0102 217.645C89.3388 217.737 89.6445 217.897 89.9073 218.115C90.1701 218.332 90.3842 218.603 90.5357 218.908C90.6871 219.214 90.7726 219.548 90.7866 219.889C90.8005 220.23 90.7426 220.57 90.6165 220.887C90.1218 222.249 88.5737 223.128 87.2642 223.535Z" fill="#263238"/>
<path d="M53.9271 222.534C53.8921 222.534 53.5371 220.084 53.5313 219.921C53.4789 218.087 54.4567 214.514 56.3947 213.827C56.7195 213.722 57.0629 213.686 57.4023 213.723C57.7418 213.759 58.0697 213.867 58.3647 214.039C58.6596 214.211 58.915 214.443 59.1141 214.721C59.3132 214.998 59.4515 215.314 59.5201 215.649C59.8635 217.057 59.0545 218.646 58.1931 219.723C57.1746 220.957 53.9271 222.534 53.9271 222.534Z" fill="#263238"/>
<path d="M54.5507 248.951C55.7497 249.102 58.1242 248.427 58.7877 248.229C58.8983 249.253 59.0263 250.26 59.2067 251.25C59.2882 251.674 59.3464 252.117 59.4512 252.518C59.5559 252.92 59.6491 253.333 59.7422 253.735C59.9692 254.555 60.1729 255.318 60.4057 256.063C60.5162 256.453 60.6326 256.808 60.749 257.18C60.4639 256.598 59.9983 255.667 59.9459 255.585C59.0612 254.235 56.5645 252.146 54.8243 252.623C54.5375 252.71 54.2722 252.856 54.0456 253.052C53.8189 253.247 53.6359 253.489 53.5086 253.76C53.3813 254.031 53.3124 254.326 53.3064 254.625C53.3005 254.925 53.3576 255.222 53.474 255.498C53.9338 256.662 55.319 257.43 56.4772 257.762C57.7517 258.129 60.5512 257.727 60.9004 257.675C61.1914 258.583 61.4824 259.467 61.7617 260.288C61.948 260.829 62.1284 261.336 62.303 261.83H63.467C63.2342 261.248 62.9956 260.602 62.7453 259.927C62.495 259.252 62.1982 258.408 61.9189 257.599C62.2331 257.465 64.6659 256.435 65.6437 255.487C66.4181 255.967 67.2208 256.4 68.0473 256.784C67.7796 257.704 67.5352 258.6 67.3198 259.438C67.1045 260.276 66.9066 261.074 66.7378 261.83H67.9018C68.0473 261.149 68.2045 260.451 68.3791 259.694C68.5537 258.938 68.7632 258.123 68.9611 257.297C69.3044 257.361 72.0922 257.879 73.3784 257.564C74.5424 257.279 75.9625 256.586 76.4631 255.417C76.5877 255.147 76.6547 254.854 76.6597 254.557C76.6647 254.259 76.6075 253.964 76.4919 253.69C76.3764 253.416 76.2049 253.17 75.9884 252.966C75.772 252.762 75.5154 252.606 75.235 252.507C73.489 251.965 70.934 253.95 69.997 255.265C69.9388 255.353 69.3452 256.429 69.0542 256.976C69.1822 256.476 69.3161 255.981 69.4616 255.463C69.6653 254.718 69.9039 253.933 70.1367 253.176L70.5383 252.012C70.6663 251.605 70.8409 251.238 70.9922 250.848C71.225 250.266 71.4928 249.684 71.7605 249.102C72.5054 249.352 74.7112 250.062 75.8752 249.963C77.0392 249.864 78.5757 249.381 79.2508 248.31C79.419 248.062 79.533 247.78 79.5854 247.485C79.6379 247.189 79.6275 246.886 79.5551 246.594C79.4826 246.303 79.3497 246.03 79.1649 245.793C78.9802 245.556 78.7477 245.361 78.4826 245.22C76.8588 244.423 74.0128 246 72.8896 247.158C72.8488 247.193 72.6393 247.461 72.389 247.787C72.6684 247.205 72.971 246.669 73.2446 246.116C74.0943 244.545 74.9906 242.974 75.9218 241.39L76.5038 240.401C77.1323 240.616 79.5185 241.402 80.7349 241.297C81.9513 241.193 83.4354 240.715 84.1105 239.644C84.2786 239.396 84.3926 239.115 84.4449 238.82C84.4973 238.525 84.4869 238.222 84.4144 237.931C84.342 237.64 84.2091 237.367 84.0243 237.131C83.8396 236.895 83.6072 236.7 83.3423 236.56C81.7185 235.763 78.8725 237.334 77.7493 238.492C77.7085 238.533 77.4524 238.859 77.1673 239.22C77.6503 238.352 78.1217 237.474 78.5641 236.606C79.328 235.1 79.991 233.545 80.5487 231.95C80.7698 232.032 83.546 233.016 84.8962 232.893C86.101 232.789 87.5967 232.311 88.2776 231.24C88.4455 230.992 88.5591 230.71 88.6111 230.415C88.663 230.119 88.6521 229.816 88.5791 229.525C88.5061 229.234 88.3726 228.962 88.1873 228.726C88.0019 228.49 87.769 228.296 87.5036 228.156C85.8856 227.358 83.0338 228.93 81.9106 230.088C81.8291 230.17 80.927 231.339 80.6185 231.77V231.718C81.1313 230.142 81.4994 228.523 81.7185 226.881C81.9266 225.419 82.0471 223.946 82.0793 222.47C82.1259 221.096 82.0793 219.845 82.0386 218.733C82.0095 218.151 81.9688 217.569 81.928 217.069H81.9571C81.9571 217.069 82.7137 215.014 82.7428 214.88C83.0978 213.309 82.8592 210.061 81.3053 209.136C81.0429 208.991 80.7529 208.903 80.4542 208.877C80.1554 208.851 79.8547 208.889 79.5714 208.987C79.2881 209.085 79.0287 209.242 78.81 209.447C78.5913 209.652 78.4183 209.901 78.3022 210.178C77.7667 211.342 78.1916 212.843 78.7619 213.908C79.3323 214.974 81.3402 216.586 81.8407 216.976C81.8756 217.511 81.9047 218.081 81.9222 218.722C81.9222 219.833 81.9571 221.085 81.8815 222.452C81.8815 222.813 81.8291 223.203 81.8 223.581C81.7127 222.935 81.5846 222.045 81.5614 221.963C81.154 220.404 79.4429 217.627 77.6445 217.528C77.3422 217.519 77.0414 217.574 76.7619 217.689C76.4824 217.805 76.2306 217.978 76.0232 218.198C75.8158 218.418 75.6575 218.68 75.5587 218.966C75.46 219.252 75.423 219.555 75.4504 219.856C75.5086 221.131 76.5853 222.278 77.5805 222.959C78.5757 223.639 81.1889 224.163 81.7534 224.262C81.6778 225.1 81.5788 225.962 81.4275 226.852C81.1832 228.471 80.7936 230.064 80.2635 231.613H80.1646C80.1646 231.031 80.1122 229.733 80.1005 229.628C79.8619 228.028 78.471 225.083 76.69 224.786C76.3929 224.745 76.0904 224.767 75.8023 224.851C75.5143 224.934 75.2471 225.078 75.0181 225.272C74.7891 225.465 74.6036 225.705 74.4735 225.976C74.3434 226.246 74.2717 226.541 74.2631 226.84C74.1758 228.115 75.1245 229.366 76.0091 230.158C77.0625 231.06 80.0016 231.904 80.1122 231.945C79.536 233.467 78.8614 234.95 78.0926 236.385C77.5106 237.45 76.9286 238.51 76.2884 239.563C76.2884 239.138 76.2361 237.462 76.2186 237.34C75.9858 235.745 74.5948 232.8 72.8139 232.503C72.5205 232.469 72.2231 232.495 71.9404 232.581C71.6577 232.666 71.3958 232.81 71.1711 233.002C70.9464 233.193 70.7639 233.43 70.635 233.696C70.506 233.961 70.4335 234.251 70.4219 234.546C70.3404 235.815 71.2832 237.072 72.197 237.858C73.2213 238.742 76.0382 239.569 76.271 239.639C75.9858 240.116 75.689 240.599 75.4096 241.076C74.4668 242.636 73.5123 244.19 72.6218 245.761C72.3134 246.303 72.0398 246.85 71.7372 247.397C71.7372 246.757 71.6906 245.593 71.6732 245.494C71.4404 243.899 70.0494 240.954 68.2685 240.651C67.971 240.61 67.6683 240.632 67.3799 240.716C67.0915 240.8 66.824 240.943 66.5946 241.137C66.3652 241.331 66.1791 241.57 66.0483 241.841C65.9176 242.111 65.8452 242.406 65.8357 242.706C65.7542 243.98 66.6971 245.232 67.5817 246.023C68.4664 246.815 70.8467 247.554 71.5102 247.769C71.0388 248.683 70.5907 249.597 70.1949 250.516C70.0261 250.918 69.8341 251.319 69.7002 251.715C69.5663 252.111 69.415 252.501 69.2695 252.879C69.0076 253.688 68.7574 254.439 68.5304 255.207C68.414 255.591 68.315 255.952 68.2045 256.33C68.2918 255.679 68.414 254.648 68.414 254.555C68.414 252.937 67.4944 249.818 65.7775 249.253C65.4902 249.167 65.188 249.143 64.8906 249.182C64.5932 249.22 64.3073 249.321 64.0514 249.478C63.7956 249.634 63.5756 249.843 63.4057 250.09C63.2358 250.337 63.1199 250.617 63.0654 250.912C63.0317 251.067 63.0122 251.225 63.0072 251.383C62.2295 252.571 61.7668 253.937 61.6628 255.353C61.6628 255.452 61.7559 256.68 61.8199 257.302C61.6511 256.813 61.4882 256.325 61.3252 255.812C61.0808 255.079 60.8538 254.293 60.6268 253.531L60.3125 252.326C60.1961 251.919 60.1321 251.511 60.0448 251.104C59.9226 250.522 59.8237 249.864 59.7305 249.236C60.493 249.038 62.7278 248.409 63.6416 247.688C64.5553 246.966 65.5738 245.721 65.5447 244.446C65.5476 244.148 65.4878 243.852 65.3694 243.578C65.251 243.304 65.0765 243.058 64.8572 242.856C64.6378 242.653 64.3785 242.499 64.096 242.403C63.8134 242.307 63.5139 242.272 63.2167 242.298C61.4242 242.52 59.9168 245.406 59.6141 246.995C59.6141 247.048 59.5792 247.385 59.5501 247.792C59.4745 247.176 59.3988 246.559 59.3406 245.93C59.1835 244.149 59.0787 242.333 58.9681 240.512C58.9681 240.133 58.9157 239.749 58.8925 239.348C59.5327 239.185 61.9596 238.527 62.9141 237.765C63.8686 237.002 64.8521 235.797 64.823 234.523C64.825 234.225 64.7647 233.93 64.6459 233.656C64.5272 233.383 64.3527 233.137 64.1336 232.935C63.9144 232.733 63.6555 232.578 63.3733 232.482C63.0912 232.386 62.7921 232.349 62.495 232.375C60.7025 232.602 59.1951 235.489 58.8925 237.072C58.8925 237.13 58.8517 237.538 58.8168 237.997C58.7411 237.008 58.6538 236.019 58.5374 235.047C58.3401 233.373 58.0329 231.715 57.6179 230.082C57.8449 230.024 60.7025 229.308 61.7617 228.464C62.7046 227.713 63.6998 226.497 63.6707 225.223C63.6726 224.924 63.6123 224.629 63.4936 224.356C63.3748 224.082 63.2003 223.837 62.9812 223.634C62.7621 223.432 62.5031 223.278 62.221 223.182C61.9388 223.085 61.6397 223.049 61.3427 223.075C59.5501 223.302 58.0427 226.189 57.7401 227.772C57.7401 227.888 57.6121 229.361 57.5888 229.89C57.5915 229.871 57.5915 229.851 57.5888 229.832C57.1491 228.23 56.5647 226.672 55.8428 225.176C55.2059 223.842 54.4927 222.546 53.7068 221.294C52.9852 220.13 52.2577 219.1 51.6058 218.198C51.2508 217.709 50.9191 217.272 50.599 216.871H50.6339C50.6339 216.871 50.1275 214.747 50.0519 214.618C49.4699 213.111 47.4911 210.544 45.6869 210.62C45.3876 210.644 45.0966 210.73 44.8328 210.873C44.569 211.016 44.3382 211.213 44.1554 211.452C43.9727 211.69 43.8421 211.964 43.772 212.256C43.702 212.547 43.6941 212.851 43.7488 213.146C43.9409 214.403 45.134 215.427 46.1932 216.004C47.2525 216.58 49.8249 216.813 50.4535 216.859C50.7794 217.29 51.1169 217.75 51.4778 218.268C52.1063 219.181 52.8106 220.217 53.5031 221.393C53.6836 221.707 53.8698 222.056 54.056 222.388C53.6254 221.893 53.0317 221.224 52.9619 221.166C51.763 220.089 48.8064 218.716 47.2525 219.63C46.9962 219.786 46.7758 219.995 46.6055 220.242C46.4352 220.49 46.3188 220.77 46.2639 221.065C46.209 221.361 46.2169 221.664 46.2869 221.956C46.357 222.248 46.4876 222.522 46.6705 222.761C47.4212 223.791 48.9519 224.152 50.1625 224.175C51.373 224.198 53.8349 223.186 54.3645 222.964C54.7661 223.704 55.156 224.472 55.5285 225.292C56.2098 226.793 56.7552 228.351 57.1581 229.948L57.065 229.989C56.7216 229.489 55.9825 228.447 55.901 228.371C54.8243 227.166 52.0423 225.461 50.3894 226.212C50.1192 226.342 49.8794 226.528 49.6856 226.757C49.4917 226.986 49.3482 227.253 49.2642 227.542C49.1803 227.83 49.1578 228.132 49.1982 228.429C49.2387 228.727 49.3411 229.012 49.499 229.267C50.1275 230.373 51.6116 230.903 52.8047 231.054C54.1841 231.229 57.0999 230.315 57.2105 230.28C57.58 231.877 57.8444 233.497 58.002 235.128C58.1184 236.333 58.1882 237.549 58.2464 238.777C58.0195 238.416 57.0475 237.031 56.966 236.961C55.8893 235.757 53.1074 234.051 51.4545 234.802C51.1843 234.933 50.9445 235.118 50.7506 235.347C50.5568 235.577 50.4132 235.844 50.3293 236.132C50.2453 236.42 50.2229 236.722 50.2633 237.02C50.3037 237.317 50.4062 237.603 50.564 237.858C51.1926 238.964 52.6767 239.493 53.8698 239.644C55.2142 239.819 58.0195 238.952 58.2523 238.876C58.2523 239.458 58.3105 239.988 58.3279 240.547C58.4036 242.368 58.4676 244.196 58.584 245.994C58.6247 246.623 58.6888 247.234 58.7528 247.851C58.3919 247.321 57.7168 246.372 57.647 246.297C56.5703 245.092 53.7883 243.387 52.1354 244.143C51.8648 244.272 51.6244 244.457 51.4301 244.686C51.2357 244.914 51.0918 245.181 51.0078 245.469C50.9237 245.757 50.9014 246.059 50.9423 246.356C50.9831 246.653 51.0863 246.939 51.245 247.193C51.8735 248.27 53.3576 248.799 54.5507 248.951Z" fill="#263238"/>
<path d="M126.348 168.734L127.5 261.936H173.088L169.34 169.887L126.348 168.734Z" fill="#263238"/>
<path d="M173.086 262.227H127.498C127.421 262.227 127.347 262.197 127.292 262.142C127.238 262.087 127.207 262.013 127.207 261.936L126.043 168.735C126.045 168.657 126.077 168.582 126.13 168.525C126.159 168.497 126.192 168.476 126.229 168.462C126.266 168.448 126.306 168.442 126.346 168.444L169.338 169.608C169.412 169.611 169.482 169.641 169.535 169.692C169.587 169.744 169.619 169.813 169.623 169.887L173.377 261.901C173.379 261.94 173.373 261.979 173.359 262.015C173.345 262.051 173.324 262.084 173.296 262.111C173.271 262.145 173.24 262.173 173.204 262.193C173.168 262.213 173.127 262.225 173.086 262.227ZM127.783 261.645H172.783L169.059 170.172L126.637 169.008L127.783 261.645Z" fill="#263238"/>
<path d="M126.348 135.438L127.5 228.639H173.088L169.34 136.59L126.348 135.438Z" fill="white"/>
<path d="M173.086 228.931H127.498C127.421 228.931 127.347 228.9 127.292 228.845C127.238 228.791 127.207 228.717 127.207 228.64L126.043 135.444C126.043 135.365 126.075 135.29 126.13 135.234C126.157 135.205 126.191 135.181 126.228 135.166C126.265 135.151 126.305 135.144 126.346 135.147L169.338 136.311C169.412 136.311 169.482 136.339 169.536 136.39C169.589 136.441 169.62 136.511 169.623 136.585L173.371 228.634C173.374 228.673 173.368 228.713 173.354 228.75C173.34 228.787 173.318 228.821 173.29 228.849C173.235 228.901 173.162 228.93 173.086 228.931ZM127.783 228.349H172.783L169.059 136.876L126.637 135.712L127.783 228.349Z" fill="#263238"/>
<path d="M142.206 145.489L146.956 153.404L138.65 213.14L151.175 225.671L159.352 209.98L149.988 153.8L154.737 147.339L149.464 138.895L142.206 145.489Z" fill="#263238"/>
<path d="M151.174 225.962C151.136 225.963 151.098 225.955 151.063 225.94C151.028 225.925 150.996 225.903 150.97 225.875L138.44 213.35C138.408 213.317 138.384 213.278 138.37 213.234C138.356 213.191 138.352 213.145 138.358 213.1L146.663 153.462L141.972 145.64C141.936 145.583 141.921 145.515 141.931 145.447C141.941 145.38 141.974 145.319 142.025 145.274L149.277 138.68C149.309 138.652 149.348 138.632 149.389 138.62C149.43 138.608 149.473 138.605 149.515 138.61C149.557 138.616 149.597 138.631 149.632 138.654C149.667 138.677 149.697 138.708 149.719 138.744L154.992 147.183C155.024 147.231 155.042 147.287 155.042 147.346C155.042 147.404 155.024 147.46 154.992 147.509L150.336 153.87L159.677 209.928C159.688 209.992 159.677 210.057 159.648 210.114L151.5 225.828C151.478 225.869 151.448 225.903 151.41 225.93C151.373 225.956 151.33 225.973 151.284 225.98L151.174 225.962ZM138.952 213.042L151.092 225.182L159.043 209.928L149.696 153.847C149.684 153.769 149.702 153.689 149.748 153.625L154.404 147.322L149.416 139.349L142.589 145.547L147.245 153.253C147.279 153.311 147.293 153.378 147.286 153.445L138.952 213.042Z" fill="#263238"/>
<path d="M146.956 153.404L146.776 154.714L152.072 150.965L154.738 147.34L152.194 143.266L144.25 148.888L146.956 153.404Z" fill="#7743DC"/>
<path d="M146.774 155.005C146.72 155.003 146.668 154.987 146.623 154.958C146.574 154.929 146.535 154.887 146.51 154.836C146.486 154.786 146.476 154.729 146.483 154.673L146.652 153.462L143.998 149.039C143.958 148.976 143.944 148.9 143.959 148.828C143.974 148.755 144.017 148.691 144.079 148.649L152.024 143.033C152.089 142.986 152.171 142.968 152.251 142.981C152.289 142.989 152.325 143.005 152.357 143.028C152.389 143.051 152.416 143.081 152.437 143.114L154.98 147.188C155.013 147.237 155.03 147.293 155.03 147.351C155.03 147.409 155.013 147.466 154.98 147.514L152.32 151.14C152.3 151.165 152.277 151.186 152.251 151.204L146.954 154.952C146.901 154.988 146.838 155.006 146.774 155.005ZM144.632 148.993L147.205 153.276C147.238 153.334 147.252 153.401 147.245 153.468L147.152 154.108L151.866 150.779L154.386 147.346L152.111 143.708L144.632 148.993Z" fill="#263238"/>
<path d="M144.209 173.175L152.27 167.472L151.135 160.662L145.379 164.73L144.209 173.175Z" fill="#7743DC"/>
<path d="M144.209 173.437C144.155 173.438 144.103 173.424 144.057 173.397C144.01 173.367 143.971 173.325 143.946 173.274C143.922 173.224 143.912 173.167 143.918 173.111L145.082 164.667C145.087 164.627 145.101 164.589 145.122 164.555C145.143 164.521 145.171 164.491 145.204 164.469L150.954 160.395C150.994 160.366 151.041 160.348 151.09 160.343C151.139 160.338 151.188 160.346 151.234 160.366C151.279 160.385 151.318 160.416 151.349 160.454C151.379 160.493 151.4 160.538 151.408 160.587L152.543 167.396C152.552 167.45 152.545 167.505 152.525 167.555C152.504 167.605 152.47 167.649 152.427 167.681L144.378 173.437C144.322 173.453 144.264 173.453 144.209 173.437ZM145.652 164.876L144.587 172.524L151.949 167.286L150.925 161.116L145.652 164.876Z" fill="#263238"/>
<path d="M151.409 225.223L157.688 213.17L146.555 221.05L151.013 225.508L151.409 225.223Z" fill="#7743DC"/>
<path d="M151.012 225.817C150.933 225.817 150.858 225.786 150.803 225.73L146.35 221.272C146.319 221.242 146.295 221.206 146.28 221.166C146.265 221.125 146.259 221.082 146.263 221.039C146.267 220.997 146.28 220.957 146.301 220.921C146.322 220.885 146.351 220.854 146.385 220.83L157.519 212.955C157.57 212.915 157.634 212.893 157.699 212.893C157.765 212.893 157.828 212.915 157.88 212.955C157.928 212.998 157.961 213.055 157.973 213.119C157.984 213.182 157.974 213.248 157.944 213.304L151.67 225.358C151.647 225.399 151.615 225.435 151.577 225.462L151.181 225.742C151.135 225.786 151.076 225.813 151.012 225.817ZM147.002 221.097L151.041 225.137L151.181 225.038L156.873 214.119L147.002 221.097Z" fill="#263238"/>
<path d="M153.612 175.549L142.81 183.19L141.641 191.629L154.747 182.358L153.612 175.549Z" fill="#7743DC"/>
<path d="M141.642 191.921C141.588 191.922 141.536 191.908 141.49 191.88C141.441 191.851 141.401 191.808 141.376 191.756C141.351 191.704 141.342 191.646 141.351 191.589L142.515 183.15C142.526 183.072 142.568 183.001 142.631 182.952L153.433 175.317C153.473 175.287 153.52 175.268 153.569 175.262C153.619 175.256 153.669 175.262 153.715 175.281C153.761 175.3 153.802 175.33 153.833 175.369C153.864 175.408 153.884 175.454 153.893 175.503L155.022 182.312C155.033 182.366 155.028 182.422 155.007 182.473C154.987 182.524 154.951 182.567 154.905 182.597L141.799 191.869C141.752 191.9 141.698 191.919 141.642 191.921ZM143.085 183.331L142.008 191.007L154.422 182.225L153.392 176.056L143.085 183.331Z" fill="#263238"/>
<path d="M156.634 193.668L139.692 205.651L138.65 213.142L139.151 213.642L157.769 200.477L156.634 193.668Z" fill="#7743DC"/>
<path d="M139.15 213.931C139.111 213.932 139.073 213.926 139.037 213.912C139.001 213.898 138.968 213.877 138.94 213.85L138.44 213.349C138.408 213.316 138.384 213.277 138.37 213.234C138.356 213.19 138.352 213.144 138.358 213.099L139.4 205.609C139.414 205.53 139.458 205.459 139.522 205.411L156.464 193.427C156.505 193.399 156.552 193.382 156.6 193.377C156.649 193.371 156.699 193.379 156.744 193.398C156.79 193.417 156.829 193.448 156.86 193.486C156.89 193.525 156.91 193.571 156.918 193.62L158.053 200.429C158.06 200.483 158.053 200.537 158.033 200.587C158.013 200.637 157.979 200.681 157.937 200.714L139.313 213.879C139.265 213.912 139.208 213.93 139.15 213.931ZM138.958 213.041L139.179 213.262L157.448 200.342L156.424 194.172L139.959 205.812L138.958 213.041Z" fill="#263238"/>
<path d="M148.934 141.666L137.329 154.196L133.371 137.976L134.611 133.006L148.934 141.666Z" fill="white"/>
<path d="M137.353 154.487H137.277C137.227 154.474 137.181 154.448 137.144 154.411C137.107 154.374 137.081 154.328 137.068 154.277L133.116 138.057C133.105 138.011 133.105 137.963 133.116 137.917L134.356 132.947C134.367 132.904 134.389 132.863 134.418 132.829C134.447 132.795 134.483 132.768 134.525 132.749C134.565 132.729 134.61 132.719 134.655 132.719C134.701 132.719 134.746 132.729 134.786 132.749L149.086 141.427C149.124 141.449 149.156 141.479 149.18 141.516C149.204 141.552 149.22 141.593 149.226 141.636C149.231 141.679 149.227 141.723 149.214 141.764C149.201 141.805 149.179 141.843 149.15 141.875L137.545 154.405C137.493 154.454 137.425 154.483 137.353 154.487ZM133.698 137.976L137.51 153.602L148.504 141.729L134.827 133.459L133.698 137.976Z" fill="#263238"/>
<path d="M148.934 141.666L157.768 153.271L161.988 137.319L160.539 133.623L148.934 141.666Z" fill="white"/>
<path d="M157.77 153.562C157.726 153.562 157.682 153.551 157.642 153.532C157.601 153.513 157.566 153.486 157.537 153.452L148.703 141.812C148.678 141.781 148.661 141.745 148.652 141.707C148.643 141.669 148.642 141.629 148.65 141.59C148.656 141.552 148.67 141.514 148.691 141.481C148.712 141.448 148.74 141.42 148.772 141.398L160.372 133.355C160.409 133.33 160.451 133.314 160.495 133.307C160.539 133.3 160.585 133.302 160.628 133.314C160.669 133.329 160.707 133.353 160.739 133.383C160.771 133.413 160.796 133.449 160.814 133.489L162.263 137.179C162.28 137.238 162.28 137.3 162.263 137.359L158.044 153.318C158.031 153.371 158.002 153.419 157.962 153.457C157.921 153.494 157.871 153.519 157.817 153.527L157.77 153.562ZM149.354 141.736L157.642 152.625L161.687 137.353L160.407 134.094L149.354 141.736Z" fill="#263238"/>
<path d="M66.1146 132.853C66.1146 132.853 62.157 124.798 60.1782 122.162C58.1994 119.525 56.2147 117.936 53.974 117.541C51.7333 117.145 50.1445 117.279 48.4276 116.615C46.7107 115.952 43.2769 115.032 42.3573 113.845C41.4378 112.658 39.715 113.449 40.5066 115.428C41.2981 117.407 44.0742 118.728 44.0742 118.728L46.3149 119.781C46.3149 119.781 39.0574 120.841 38.5278 121.236C37.9981 121.632 31.6602 122.162 31.6602 122.162C31.6602 122.162 34.4363 127.045 38.3939 129.291C42.3515 131.538 54.7656 129.687 54.7656 129.687L58.4613 137.474L66.1146 132.853Z" fill="white"/>
<path d="M58.4634 137.767H58.3761C58.3376 137.754 58.3023 137.734 58.2722 137.707C58.2421 137.68 58.218 137.647 58.2015 137.61L54.5931 130.044C52.8471 130.288 42.016 131.714 38.2563 129.584C34.2696 127.285 31.5284 122.507 31.4295 122.303C31.4065 122.26 31.3945 122.212 31.3945 122.163C31.3945 122.115 31.4065 122.067 31.4295 122.024C31.4521 121.981 31.4854 121.944 31.5262 121.918C31.5669 121.891 31.6138 121.876 31.6623 121.872C34.6828 121.622 38.0235 121.226 38.3844 121.005C38.8441 120.656 43.0404 119.981 45.3684 119.637L43.9948 118.991C43.8784 118.939 41.0848 117.6 40.2875 115.54C39.7812 114.271 40.2177 113.468 40.7473 113.166C41.0683 113.003 41.4377 112.965 41.7854 113.057C42.1331 113.149 42.4347 113.366 42.633 113.666C43.2964 114.522 45.543 115.296 47.2075 115.86C47.7196 116.035 48.1969 116.198 48.581 116.343C49.5962 116.7 50.6557 116.915 51.7296 116.984C52.4397 117.053 53.1788 117.129 54.0227 117.28C56.2576 117.67 58.2829 119.178 60.4247 122.012C62.3977 124.643 66.2447 132.418 66.3902 132.75C66.4226 132.815 66.4292 132.891 66.4087 132.961C66.3882 133.031 66.3421 133.091 66.2796 133.128L58.6263 137.749C58.5742 137.768 58.5183 137.774 58.4634 137.767ZM54.7677 129.398C54.8223 129.397 54.8761 129.412 54.9225 129.441C54.969 129.47 55.0061 129.511 55.0296 129.561L58.5856 137.057L65.7675 132.744C65.0923 131.388 61.6935 124.672 59.9475 122.338C57.9105 119.626 56.0015 118.194 53.9238 117.827C53.0973 117.682 52.3698 117.612 51.6714 117.542C50.5253 117.482 49.3932 117.262 48.3075 116.89C47.9292 116.745 47.4636 116.582 46.9572 116.413C45.1414 115.79 42.8832 115.016 42.1092 114.027C41.9961 113.839 41.8186 113.699 41.6097 113.633C41.4009 113.566 41.175 113.578 40.9743 113.666C40.6425 113.858 40.3923 114.399 40.7647 115.319C41.5039 117.176 44.152 118.456 44.1811 118.468L46.4218 119.521C46.4785 119.549 46.5253 119.593 46.5556 119.648C46.5858 119.704 46.598 119.767 46.5906 119.83C46.5801 119.892 46.5502 119.949 46.5053 119.993C46.4603 120.036 46.4025 120.065 46.3403 120.074C42.9123 120.575 39.0653 121.238 38.6812 121.471C38.1807 121.849 34.0252 122.251 32.1395 122.414C32.8903 123.578 35.3289 127.227 38.5415 129.037C42.3711 131.208 54.5989 129.415 54.7211 129.398H54.7677Z" fill="#263238"/>
<path d="M29.1633 120.859C29.1633 120.859 27.1263 116.523 27.2951 115.586C27.4639 114.649 29.2506 115.248 29.8443 116.523C30.4379 117.797 32.4807 120.859 32.4807 120.859H29.1633Z" fill="white"/>
<path d="M32.482 121.151H29.1646C29.1096 121.15 29.056 121.133 29.0098 121.103C28.9635 121.074 28.9265 121.032 28.9027 120.982C28.5535 120.243 26.8308 116.512 27.0112 115.534C27.0384 115.353 27.1264 115.186 27.2606 115.062C27.3949 114.937 27.5676 114.861 27.7504 114.848C28.2508 114.857 28.7384 115.008 29.1567 115.283C29.5749 115.558 29.9066 115.946 30.1133 116.402C30.6953 117.647 32.7032 120.673 32.7265 120.703C32.7542 120.747 32.7697 120.798 32.7714 120.85C32.7731 120.903 32.7609 120.954 32.7361 121.001C32.7113 121.047 32.6747 121.085 32.6301 121.113C32.5855 121.14 32.5344 121.155 32.482 121.157V121.151ZM29.3509 120.569H31.9408C31.0893 119.302 30.3026 117.993 29.5837 116.646C29.4296 116.304 29.1861 116.01 28.8788 115.795C28.5715 115.58 28.2118 115.452 27.8377 115.424C27.6514 115.424 27.6107 115.54 27.5932 115.639C27.4768 116.233 28.5826 118.904 29.3509 120.569Z" fill="#263238"/>
<path d="M25.5508 118.793C25.5508 118.793 28.7169 125.527 30.8295 127.372C32.9422 129.217 37.1675 129.357 37.1675 129.357C37.1675 129.357 32.1507 124.072 31.0972 122.093C30.0438 120.115 26.191 115.36 25.5508 118.793Z" fill="white"/>
<path d="M37.1671 129.646C36.9925 129.646 32.8138 129.489 30.6487 127.592C28.4837 125.694 25.4107 119.194 25.3001 118.914C25.2802 118.858 25.2802 118.796 25.3001 118.74C25.4631 117.872 25.8414 117.389 26.4176 117.302C28.0588 117.052 30.6022 120.486 31.3879 121.958C32.4122 123.879 37.365 129.099 37.4116 129.152C37.4492 129.194 37.474 129.245 37.4833 129.301C37.4926 129.356 37.4858 129.414 37.4638 129.465C37.4419 129.517 37.4056 129.562 37.3592 129.594C37.3129 129.626 37.2583 129.644 37.202 129.646H37.1671ZM25.853 118.757C26.2313 119.549 29.1064 125.479 31.0212 127.155C32.5111 128.459 35.1592 128.901 36.4396 129.006C35.1243 127.598 31.708 123.861 30.835 122.232C29.962 120.602 27.6281 117.698 26.47 117.878C26.1906 117.925 25.9753 118.216 25.853 118.757Z" fill="#263238"/>
<path d="M28.0996 119.386C28.0996 119.386 31.2657 126.119 33.3783 127.97C35.491 129.821 39.7163 129.949 39.7163 129.949C39.7163 129.949 34.6995 124.67 33.6461 122.685C32.5927 120.701 28.7573 115.958 28.0996 119.386Z" fill="white"/>
<path d="M39.7159 130.241C39.5413 130.241 35.3684 130.084 33.1975 128.186C31.0267 126.289 27.9595 119.788 27.849 119.514C27.829 119.456 27.829 119.392 27.849 119.334C28.0158 118.469 28.3883 117.991 28.9664 117.902C30.6135 117.646 33.151 121.08 33.9367 122.558C34.961 124.479 39.9138 129.699 39.9604 129.758C40.0004 129.798 40.0273 129.85 40.0376 129.906C40.048 129.962 40.0414 130.02 40.0186 130.072C39.9922 130.128 39.9487 130.175 39.8944 130.205C39.8401 130.235 39.7777 130.248 39.7159 130.241ZM28.4019 119.351C28.7802 120.143 31.6552 126.074 33.57 127.75C35.0658 129.053 37.708 129.496 38.9943 129.6C37.6731 128.192 34.2568 124.461 33.3896 122.826C32.5224 121.191 30.177 118.304 29.0188 118.478C28.7278 118.519 28.5183 118.816 28.4019 119.351Z" fill="#263238"/>
<path d="M56.7458 126.255C56.7458 126.255 56.0823 125.195 53.8358 123.746C51.5893 122.297 39.7106 125.987 39.7106 125.987C39.7106 125.987 34.298 119.259 33.5065 118.595C32.715 117.932 31.26 117.542 30.9981 118.863C30.7362 120.184 34.298 125.847 35.2234 126.784C36.1488 127.721 39.7106 129.95 39.7106 129.95C41.8758 130.695 44.1553 131.051 46.4444 131.004C49.2489 130.802 52.0312 130.362 54.7612 129.688" fill="white"/>
<path d="M45.886 131.306C43.7501 131.285 41.6315 130.92 39.612 130.224L39.5771 130.195C39.4316 130.102 35.9745 127.925 35.0433 126.988C34.2227 126.167 30.4281 120.336 30.7365 118.805C30.7648 118.575 30.8558 118.357 30.9995 118.176C31.1432 117.994 31.3341 117.855 31.5513 117.775C31.9325 117.694 32.3276 117.704 32.704 117.805C33.0803 117.906 33.4273 118.095 33.7164 118.357C34.4613 118.98 39.0068 124.602 39.839 125.638C41.7189 125.056 51.8166 122.058 54.0165 123.484C56.2165 124.91 56.9789 126.039 57.008 126.08C57.0291 126.112 57.0435 126.148 57.0502 126.186C57.057 126.224 57.056 126.263 57.0473 126.301C57.0386 126.338 57.0224 126.374 56.9996 126.405C56.9769 126.436 56.948 126.462 56.9149 126.482C56.8831 126.503 56.8474 126.517 56.8099 126.524C56.7724 126.53 56.734 126.529 56.6969 126.52C56.6599 126.512 56.625 126.496 56.5944 126.473C56.5638 126.45 56.5382 126.421 56.5191 126.388C55.7322 125.413 54.7712 124.592 53.6848 123.967C51.9388 122.832 43.0691 125.224 39.8041 126.243C39.7484 126.261 39.6887 126.261 39.6326 126.245C39.5765 126.228 39.5268 126.195 39.4898 126.15C37.6274 123.822 33.9375 119.306 33.3264 118.799C33.1149 118.6 32.8609 118.452 32.5837 118.365C32.3065 118.278 32.0132 118.256 31.7259 118.299C31.6075 118.347 31.5043 118.427 31.4275 118.53C31.3506 118.632 31.3029 118.753 31.2894 118.881C31.0683 119.975 34.4264 125.527 35.4333 126.534C36.283 127.384 39.5073 129.444 39.8448 129.648C41.9683 130.363 44.1985 130.709 46.4389 130.672C49.2263 130.481 51.9927 130.057 54.7091 129.403C54.7863 129.385 54.8677 129.398 54.9353 129.439C55.003 129.481 55.0514 129.547 55.07 129.624C55.0885 129.702 55.0756 129.783 55.0341 129.851C54.9926 129.918 54.926 129.967 54.8488 129.985C52.0996 130.663 49.2979 131.107 46.4738 131.312C46.2643 131.306 46.0722 131.306 45.886 131.306Z" fill="#263238"/>
<path d="M70.7258 139.761L65.9709 131.352L54.4531 138.301L57.3748 145.436L70.7258 139.761Z" fill="white"/>
<path d="M57.3736 145.728C57.337 145.733 57.2997 145.733 57.263 145.728C57.1923 145.697 57.1359 145.641 57.1059 145.57L54.1959 138.435C54.1707 138.37 54.1691 138.298 54.1915 138.232C54.2138 138.166 54.2586 138.11 54.3181 138.074L65.8359 131.125C65.8717 131.11 65.9103 131.102 65.9494 131.102C65.9884 131.102 66.0271 131.11 66.0629 131.125C66.138 131.145 66.2026 131.193 66.2433 131.259L71.0041 139.622C71.0197 139.659 71.0278 139.699 71.0278 139.739C71.0278 139.779 71.0197 139.818 71.0041 139.855C70.9911 139.894 70.9699 139.93 70.9417 139.96C70.9136 139.99 70.8793 140.014 70.8411 140.03L57.49 145.704C57.4527 145.718 57.4134 145.726 57.3736 145.728ZM54.8128 138.423L57.5307 145.052L70.3347 139.622L65.8883 131.754L54.8128 138.423Z" fill="#263238"/>
<path d="M133.372 137.976L128.884 261.942H96.3331L102.916 173.606C102.916 173.606 85.1762 192.993 83.1624 194.087C81.1487 195.181 78.5937 191.712 78.5937 191.712L54.6328 144.704L68.8976 136.841L84.6116 162.449L86.9862 160.802L88.8137 161.716C88.8137 161.716 105.11 133.006 106.373 132.273C107.636 131.539 113.688 131.906 113.688 131.906L129.402 133.187L134.728 132.023L133.372 137.976Z" fill="#7743DC"/>
<path d="M128.884 262.226H96.3323C96.292 262.226 96.2521 262.218 96.2151 262.202C96.178 262.186 96.1446 262.162 96.117 262.133C96.0871 262.102 96.0639 262.066 96.0488 262.026C96.0338 261.986 96.0273 261.943 96.0297 261.9L102.548 174.402C99.4518 177.778 85.1405 193.317 83.2897 194.324C81.0839 195.529 78.4533 191.996 78.3427 191.862L54.3701 144.837C54.3367 144.768 54.3307 144.69 54.3534 144.617C54.3762 144.545 54.4259 144.484 54.4923 144.447L68.7571 136.584C68.8227 136.548 68.8992 136.539 68.9714 136.557C69.0437 136.575 69.1064 136.62 69.1471 136.683L84.7098 162.029L86.8399 160.556C86.8841 160.531 86.9343 160.517 86.9854 160.517C87.0365 160.517 87.0867 160.531 87.1309 160.556L88.7139 161.348C90.9197 157.46 104.963 132.766 106.244 132.038C107.524 131.311 113.094 131.596 113.722 131.631L129.436 132.911L134.715 131.747C134.763 131.736 134.812 131.737 134.859 131.75C134.906 131.764 134.948 131.789 134.983 131.823C135.017 131.859 135.042 131.902 135.056 131.95C135.069 131.998 135.07 132.048 135.059 132.097L133.685 138.016L129.204 261.941C129.202 261.981 129.193 262.02 129.176 262.056C129.159 262.093 129.134 262.125 129.104 262.152C129.075 262.178 129.04 262.199 129.002 262.211C128.964 262.224 128.924 262.229 128.884 262.226ZM96.6466 261.644H128.622L133.097 137.963C133.095 137.944 133.095 137.924 133.097 137.905L134.372 132.405L129.5 133.464H129.413L113.699 132.184C112.052 132.085 107.542 131.945 106.552 132.51C105.574 133.173 95.5815 150.418 89.0922 161.848C89.0554 161.913 88.995 161.962 88.9234 161.983C88.8519 162.005 88.7748 161.998 88.7081 161.965L87.0319 161.127L84.7971 162.675C84.7646 162.698 84.7276 162.714 84.6885 162.722C84.6494 162.73 84.6091 162.73 84.5701 162.721C84.5316 162.713 84.4952 162.697 84.4632 162.674C84.4312 162.651 84.4042 162.621 84.3839 162.588L68.7921 137.224L55.022 144.819L78.849 191.571C78.849 191.571 81.2585 194.79 83.022 193.824C84.5817 192.974 96.5768 180.094 102.699 173.401C102.74 173.356 102.795 173.325 102.854 173.313C102.914 173.3 102.975 173.307 103.031 173.331C103.086 173.356 103.133 173.397 103.164 173.449C103.195 173.501 103.21 173.562 103.206 173.622L96.6466 261.644Z" fill="#263238"/>
<path d="M103.097 170.853L104.232 159.562L95.7637 181.097L102.916 173.6L103.097 170.853Z" fill="#263238"/>
<path d="M95.7632 181.386C95.7074 181.386 95.6529 181.37 95.6061 181.34C95.5494 181.304 95.5068 181.249 95.4856 181.186C95.4644 181.122 95.4659 181.053 95.4897 180.99L103.964 159.456C103.99 159.391 104.038 159.338 104.099 159.305C104.161 159.272 104.233 159.261 104.301 159.276C104.37 159.293 104.43 159.334 104.471 159.391C104.512 159.449 104.53 159.52 104.522 159.59L103.358 170.881L103.178 173.617C103.173 173.684 103.144 173.748 103.096 173.797L95.9727 181.293C95.9464 181.323 95.9141 181.346 95.878 181.362C95.8418 181.378 95.8027 181.386 95.7632 181.386ZM103.731 161.598L96.578 179.838L102.631 173.488L102.805 170.852L103.731 161.598Z" fill="#263238"/>
<path d="M102.182 163.1C102.113 163.1 102.046 163.074 101.993 163.028C101.941 162.982 101.907 162.919 101.897 162.85C101.711 161.576 100.483 144.36 100.43 143.644C100.428 143.606 100.433 143.568 100.445 143.531C100.457 143.495 100.476 143.461 100.501 143.432C100.552 143.374 100.624 143.338 100.701 143.333C100.778 143.327 100.854 143.353 100.913 143.404C100.971 143.454 101.007 143.526 101.012 143.603C101.012 143.784 102.293 161.529 102.473 162.809C102.483 162.886 102.462 162.963 102.415 163.024C102.369 163.085 102.299 163.125 102.223 163.135L102.182 163.1Z" fill="#263238"/>
<path d="M100.721 169.682C100.651 169.683 100.584 169.659 100.53 169.614C100.477 169.569 100.441 169.507 100.43 169.438L98.4223 156.634C98.4157 156.596 98.4166 156.558 98.4251 156.521C98.4336 156.484 98.4494 156.449 98.4716 156.418C98.4939 156.387 98.5221 156.361 98.5546 156.341C98.5871 156.321 98.6233 156.308 98.661 156.302C98.7381 156.29 98.8167 156.31 98.8799 156.355C98.943 156.401 98.9856 156.47 98.9985 156.547L101.006 169.351C101.013 169.388 101.012 169.427 101.004 169.464C100.995 169.501 100.979 169.536 100.957 169.567C100.935 169.598 100.907 169.624 100.874 169.644C100.842 169.664 100.805 169.677 100.768 169.682H100.721Z" fill="#263238"/>
<path d="M79.6879 174.072C79.6459 174.083 79.6018 174.083 79.5598 174.072C79.4918 174.038 79.4397 173.979 79.4146 173.907C79.3896 173.836 79.3937 173.757 79.426 173.688L84.1809 163.794C84.1955 163.757 84.2176 163.723 84.2459 163.695C84.2741 163.666 84.3079 163.644 84.3451 163.63C84.3823 163.615 84.4221 163.608 84.462 163.61C84.5019 163.611 84.5412 163.621 84.5772 163.638C84.6133 163.655 84.6454 163.68 84.6716 163.71C84.6978 163.74 84.7175 163.775 84.7294 163.813C84.7414 163.851 84.7454 163.892 84.7411 163.931C84.7369 163.971 84.7245 164.01 84.7047 164.044L79.9498 173.938C79.9229 173.983 79.8841 174.019 79.8379 174.042C79.7916 174.066 79.7397 174.076 79.6879 174.072Z" fill="#263238"/>
<path d="M84.8093 170.964C84.7651 170.963 84.7214 170.953 84.6813 170.935C84.6128 170.9 84.5606 170.839 84.5356 170.767C84.5106 170.694 84.5149 170.614 84.5474 170.545L88.3886 162.862C88.4053 162.828 88.4287 162.797 88.4576 162.772C88.4864 162.747 88.52 162.727 88.5564 162.715C88.5928 162.703 88.6312 162.699 88.6694 162.702C88.7076 162.705 88.7447 162.716 88.7786 162.734C88.813 162.751 88.8438 162.774 88.8692 162.803C88.8946 162.832 88.914 162.865 88.9265 162.901C88.9389 162.938 88.9441 162.976 88.9417 163.014C88.9392 163.052 88.9293 163.09 88.9124 163.124L85.0712 170.801C85.0472 170.85 85.01 170.891 84.9636 170.92C84.9173 170.949 84.8639 170.964 84.8093 170.964Z" fill="#263238"/>
<path d="M127.423 195.284C127.363 195.286 127.304 195.268 127.255 195.234C127.206 195.199 127.169 195.149 127.15 195.092C124.339 187.229 122.22 175.048 120.934 166.207C120.924 166.132 120.944 166.055 120.99 165.995C121.036 165.934 121.103 165.893 121.179 165.881C121.255 165.871 121.332 165.891 121.394 165.937C121.456 165.982 121.497 166.05 121.51 166.126C122.791 174.937 124.903 187.078 127.697 194.9C127.71 194.936 127.715 194.974 127.713 195.012C127.711 195.05 127.701 195.087 127.684 195.121C127.667 195.156 127.644 195.186 127.615 195.211C127.586 195.236 127.553 195.255 127.517 195.267C127.487 195.278 127.455 195.284 127.423 195.284Z" fill="#263238"/>
<path d="M120.649 162.32C120.579 162.319 120.511 162.294 120.458 162.248C120.404 162.202 120.369 162.139 120.358 162.069C120.009 159.416 119.817 157.734 119.817 157.722C119.811 157.668 119.821 157.613 119.844 157.563C119.868 157.514 119.905 157.472 119.951 157.443L126.632 153.095L118.414 151.756C118.363 151.749 118.315 151.728 118.275 151.695C118.235 151.662 118.205 151.619 118.187 151.57C118.17 151.521 118.165 151.469 118.175 151.418C118.184 151.367 118.206 151.319 118.24 151.279C118.24 151.279 120.079 149.068 121.877 146.367C123.676 143.667 129.496 134.727 129.554 134.669C129.597 134.604 129.663 134.558 129.74 134.542C129.816 134.525 129.895 134.54 129.961 134.582C130.025 134.624 130.069 134.69 130.085 134.766C130.1 134.841 130.085 134.919 130.043 134.983C129.984 135.076 124.17 143.981 122.36 146.693C120.992 148.742 119.613 150.505 119.002 151.262L127.458 152.647C127.517 152.656 127.57 152.683 127.613 152.723C127.656 152.764 127.685 152.816 127.697 152.874C127.708 152.931 127.702 152.991 127.679 153.045C127.656 153.098 127.618 153.144 127.569 153.176L120.405 157.832C120.463 158.327 120.637 159.84 120.923 161.994C120.933 162.07 120.912 162.147 120.865 162.208C120.818 162.27 120.749 162.31 120.672 162.32H120.649Z" fill="#263238"/>
<path d="M229.152 132.853C229.152 132.853 233.11 124.798 235.095 122.162C237.079 119.525 239.052 117.936 241.299 117.541C243.545 117.145 245.122 117.279 246.839 116.615C248.556 115.952 251.99 115.032 252.915 113.845C253.841 112.658 255.552 113.449 254.76 115.428C253.969 117.407 251.198 118.728 251.198 118.728L248.952 119.781C248.952 119.781 256.215 120.841 256.739 121.236C257.263 121.632 263.607 122.162 263.607 122.162C263.607 122.162 260.831 127.045 256.873 129.291C252.915 131.538 240.507 129.687 240.507 129.687L236.811 137.474L229.152 132.853Z" fill="white"/>
<path d="M236.803 137.767C236.752 137.765 236.702 137.751 236.658 137.726L228.998 133.105C228.937 133.066 228.892 133.006 228.871 132.937C228.851 132.867 228.857 132.792 228.888 132.726C229.051 132.395 232.886 124.619 234.859 121.989C236.983 119.154 239.015 117.647 241.261 117.257C242.105 117.106 242.844 117.03 243.554 116.96C244.643 116.904 245.718 116.697 246.749 116.343C247.139 116.198 247.611 116.035 248.123 115.86C249.776 115.278 252.034 114.521 252.697 113.666C252.895 113.365 253.196 113.147 253.545 113.055C253.893 112.962 254.262 113.002 254.583 113.165C255.113 113.468 255.555 114.271 255.049 115.54C254.222 117.6 251.452 118.939 251.336 118.991L249.962 119.637C252.244 119.981 256.463 120.656 256.946 121.005C257.301 121.226 260.642 121.622 263.662 121.872C263.711 121.875 263.758 121.891 263.799 121.917C263.84 121.944 263.874 121.981 263.897 122.024C263.919 122.067 263.931 122.115 263.929 122.164C263.928 122.213 263.914 122.261 263.889 122.303C263.779 122.507 261.032 127.285 257.051 129.543C253.291 131.673 242.431 130.247 240.708 130.003L237.106 137.569C237.088 137.606 237.063 137.639 237.032 137.666C237.001 137.693 236.964 137.713 236.925 137.726L236.803 137.767ZM229.528 132.744L236.681 137.057L240.237 129.56C240.264 129.504 240.309 129.458 240.365 129.429C240.42 129.4 240.483 129.389 240.545 129.397C240.668 129.397 252.901 131.207 256.725 129.037C259.92 127.227 262.364 123.607 263.127 122.413C261.259 122.25 257.086 121.831 256.579 121.471C256.207 121.232 252.354 120.574 248.926 120.074C248.864 120.065 248.807 120.037 248.763 119.993C248.718 119.949 248.69 119.891 248.682 119.829C248.672 119.767 248.682 119.704 248.712 119.648C248.741 119.592 248.788 119.548 248.845 119.521L251.085 118.467C251.114 118.467 253.768 117.17 254.507 115.319C254.874 114.399 254.624 113.858 254.298 113.666C254.094 113.571 253.862 113.555 253.646 113.622C253.431 113.689 253.249 113.833 253.134 114.027C252.366 115.016 250.102 115.773 248.286 116.413C247.785 116.582 247.32 116.745 246.936 116.89C245.855 117.26 244.729 117.48 243.589 117.542C242.891 117.612 242.163 117.682 241.337 117.827C239.265 118.194 237.35 119.626 235.319 122.338C233.573 124.672 230.203 131.388 229.528 132.744Z" fill="#263238"/>
<path d="M266.103 120.859C266.103 120.859 268.14 116.523 267.971 115.586C267.802 114.649 266.015 115.248 265.422 116.523C264.828 117.797 262.785 120.859 262.785 120.859H266.103Z" fill="white"/>
<path d="M266.104 121.151H262.786C262.733 121.149 262.682 121.134 262.637 121.106C262.592 121.079 262.555 121.04 262.53 120.994C262.502 120.949 262.486 120.898 262.486 120.845C262.486 120.793 262.502 120.741 262.53 120.697C262.53 120.697 264.561 117.641 265.143 116.396C265.347 115.945 265.673 115.561 266.085 115.287C266.496 115.013 266.977 114.861 267.471 114.848C267.654 114.861 267.827 114.937 267.961 115.062C268.095 115.186 268.183 115.353 268.21 115.534C268.391 116.512 266.668 120.243 266.319 120.982C266.299 121.025 266.269 121.063 266.232 121.093C266.194 121.122 266.15 121.142 266.104 121.151ZM263.327 120.569H265.917C266.691 118.904 267.791 116.233 267.663 115.639C267.663 115.54 267.605 115.447 267.419 115.424C267.045 115.452 266.686 115.581 266.378 115.796C266.071 116.011 265.827 116.304 265.673 116.646C264.958 117.992 264.175 119.302 263.327 120.569Z" fill="#263238"/>
<path d="M269.718 118.793C269.718 118.793 266.552 125.527 264.44 127.372C262.327 129.217 258.102 129.357 258.102 129.357C258.102 129.357 263.118 124.072 264.178 122.093C265.237 120.115 269.061 115.36 269.718 118.793Z" fill="white"/>
<path d="M258.1 129.647C258.044 129.646 257.99 129.629 257.943 129.598C257.897 129.567 257.86 129.523 257.838 129.472C257.815 129.42 257.807 129.361 257.816 129.304C257.826 129.248 257.851 129.195 257.89 129.152C257.943 129.1 262.895 123.879 263.92 121.959C264.705 120.486 267.249 117.047 268.89 117.303C269.472 117.39 269.839 117.885 270.002 118.74C270.019 118.797 270.019 118.858 270.002 118.915C269.868 119.194 266.783 125.724 264.647 127.592C262.511 129.461 258.303 129.641 258.129 129.647H258.1ZM268.698 117.873C267.534 117.873 265.258 120.684 264.432 122.232C263.605 123.78 260.143 127.598 258.827 129.007C260.108 128.879 262.756 128.46 264.246 127.156C266.16 125.48 269.035 119.549 269.414 118.758C269.297 118.216 269.088 117.925 268.803 117.879L268.698 117.873Z" fill="#263238"/>
<path d="M267.167 119.386C267.167 119.386 264.001 126.119 261.889 127.97C259.776 129.821 255.551 129.949 255.551 129.949C255.551 129.949 260.568 124.67 261.627 122.685C262.686 120.701 266.51 115.958 267.167 119.386Z" fill="white"/>
<path d="M255.552 130.24C255.496 130.239 255.441 130.222 255.395 130.191C255.349 130.16 255.312 130.117 255.29 130.065C255.265 130.014 255.256 129.956 255.265 129.9C255.275 129.843 255.302 129.791 255.342 129.751C255.394 129.693 260.341 124.472 261.366 122.552C262.152 121.079 264.683 117.646 266.336 117.896C266.918 117.983 267.291 118.478 267.454 119.328C267.473 119.386 267.473 119.449 267.454 119.508C267.325 119.781 264.235 126.317 262.105 128.18C259.975 130.042 255.761 130.228 255.587 130.234L255.552 130.24ZM266.15 118.466C264.957 118.466 262.704 121.277 261.884 122.825C261.011 124.461 257.594 128.191 256.279 129.6C257.56 129.472 260.208 129.053 261.698 127.749C263.612 126.073 266.487 120.142 266.866 119.351C266.749 118.815 266.54 118.519 266.249 118.478L266.15 118.466Z" fill="#263238"/>
<path d="M238.521 126.255C238.521 126.255 239.185 125.195 241.431 123.746C243.678 122.297 255.557 125.987 255.557 125.987C255.557 125.987 260.969 119.259 261.761 118.595C262.552 117.932 264.007 117.542 264.269 118.863C264.531 120.184 260.969 125.847 260.044 126.784C259.118 127.721 255.557 129.95 255.557 129.95C253.392 130.695 251.112 131.051 248.823 131.004C246.02 130.802 243.24 130.362 240.512 129.688" fill="white"/>
<path d="M249.387 131.307C249.195 131.307 249.003 131.307 248.805 131.307C245.981 131.102 243.179 130.658 240.43 129.98C240.353 129.961 240.286 129.913 240.245 129.845C240.203 129.777 240.19 129.696 240.209 129.619C240.227 129.542 240.276 129.475 240.343 129.433C240.411 129.392 240.492 129.379 240.57 129.398C243.279 130.065 246.04 130.503 248.822 130.707C251.063 130.748 253.294 130.402 255.416 129.683C255.742 129.473 258.978 127.419 259.828 126.569C260.835 125.562 264.193 120.01 263.972 118.916C263.96 118.788 263.912 118.666 263.835 118.563C263.758 118.461 263.655 118.381 263.535 118.334C263.248 118.291 262.955 118.314 262.678 118.401C262.401 118.487 262.147 118.636 261.935 118.834C261.353 119.341 257.64 123.863 255.771 126.185C255.734 126.23 255.685 126.263 255.629 126.28C255.573 126.297 255.513 126.296 255.457 126.278C252.192 125.265 243.328 122.873 241.576 124.002C239.435 125.388 238.771 126.412 238.765 126.418C238.725 126.483 238.659 126.53 238.584 126.547C238.509 126.565 238.429 126.552 238.364 126.511C238.298 126.47 238.252 126.405 238.234 126.329C238.217 126.254 238.23 126.175 238.271 126.109C238.271 126.069 238.992 124.986 241.262 123.514C243.532 122.041 253.56 125.085 255.446 125.667C256.278 124.631 260.817 119.009 261.562 118.386C261.852 118.126 262.199 117.938 262.576 117.837C262.952 117.736 263.346 117.725 263.727 117.804C263.945 117.883 264.137 118.022 264.281 118.204C264.425 118.386 264.515 118.604 264.542 118.834C264.851 120.365 261.05 126.197 260.241 127.017C259.304 127.954 255.847 130.131 255.702 130.224L255.649 130.253C253.632 130.939 251.517 131.295 249.387 131.307Z" fill="#263238"/>
<path d="M224.543 139.761L229.298 131.352L240.822 138.301L237.894 145.436L224.543 139.761Z" fill="white"/>
<path d="M237.893 145.727C237.854 145.733 237.815 145.733 237.776 145.727L224.425 140.053C224.387 140.038 224.353 140.014 224.326 139.984C224.299 139.954 224.279 139.918 224.268 139.878C224.251 139.842 224.242 139.802 224.242 139.762C224.242 139.722 224.251 139.682 224.268 139.645L229.023 131.23C229.064 131.164 229.128 131.116 229.204 131.096C229.239 131.08 229.278 131.072 229.317 131.072C229.356 131.072 229.395 131.08 229.431 131.096L240.948 138.051C241.007 138.088 241.05 138.144 241.072 138.21C241.093 138.276 241.09 138.347 241.065 138.412L238.155 145.547C238.125 145.618 238.068 145.674 237.998 145.704C237.964 145.717 237.929 145.725 237.893 145.727ZM224.955 139.622L237.759 145.052L240.477 138.423L229.419 131.753L224.955 139.622Z" fill="#263238"/>
<path d="M161.896 137.976L166.383 261.942H198.94L192.352 173.601C192.352 173.601 210.091 192.987 212.105 194.081C214.119 195.175 216.679 191.707 216.679 191.707L240.635 144.704L226.399 136.841L210.685 162.449L208.305 160.802L206.477 161.716C206.477 161.716 190.181 133.006 188.918 132.273C187.655 131.539 181.602 131.906 181.602 131.906L165.888 133.187L160.068 132.023L161.896 137.976Z" fill="#7743DC"/>
<path d="M198.941 262.226H166.384C166.308 262.225 166.236 262.194 166.182 262.141C166.127 262.088 166.096 262.017 166.093 261.941L161.605 138.022L159.72 132.114C159.705 132.065 159.703 132.013 159.714 131.963C159.725 131.913 159.749 131.867 159.784 131.829C159.817 131.791 159.86 131.763 159.908 131.746C159.956 131.73 160.008 131.726 160.057 131.736L165.877 132.9L181.562 131.62C182.197 131.585 187.731 131.27 189.047 132.027C190.362 132.784 204.371 157.449 206.577 161.336L208.16 160.545C208.205 160.519 208.256 160.506 208.308 160.506C208.36 160.506 208.411 160.519 208.456 160.545L210.581 162.017L226.149 136.671C226.189 136.609 226.251 136.565 226.322 136.546C226.393 136.528 226.469 136.537 226.533 136.572L240.798 144.435C240.865 144.472 240.914 144.533 240.937 144.606C240.96 144.678 240.954 144.757 240.92 144.825L216.959 191.827C216.826 192.014 214.201 195.535 211.989 194.324C210.144 193.317 195.833 177.778 192.731 174.402L199.232 261.9C199.234 261.941 199.228 261.981 199.214 262.019C199.2 262.058 199.179 262.092 199.15 262.121C199.125 262.153 199.093 262.179 199.057 262.197C199.021 262.215 198.981 262.225 198.941 262.226ZM166.663 261.644H198.626L192.062 173.623C192.057 173.561 192.072 173.5 192.104 173.448C192.137 173.395 192.185 173.355 192.242 173.332C192.297 173.307 192.358 173.3 192.416 173.312C192.475 173.325 192.528 173.356 192.568 173.401C198.696 180.094 210.686 192.974 212.245 193.806C213.991 194.772 216.418 191.548 216.447 191.513L240.251 144.802L226.475 137.207L210.889 162.576C210.869 162.61 210.843 162.64 210.81 162.663C210.778 162.686 210.742 162.702 210.703 162.71C210.664 162.719 210.624 162.719 210.585 162.711C210.545 162.703 210.508 162.687 210.476 162.663L208.241 161.115L206.565 161.953C206.499 161.987 206.423 161.993 206.352 161.972C206.282 161.95 206.222 161.902 206.187 161.837C199.703 150.407 189.71 133.162 188.727 132.498C187.743 131.916 183.233 132.074 181.574 132.172L165.86 133.453H165.778L160.424 132.394L162.17 137.876C162.173 137.901 162.173 137.927 162.17 137.952L166.663 261.644Z" fill="#263238"/>
<path d="M192.352 173.6L192.131 164.678L199.191 180.566L192.352 173.6Z" fill="#263238"/>
<path d="M199.191 180.857C199.152 180.857 199.115 180.849 199.079 180.834C199.044 180.819 199.013 180.797 198.987 180.769L192.148 173.785C192.096 173.732 192.065 173.662 192.061 173.587L191.84 164.706C191.839 164.639 191.861 164.574 191.903 164.521C191.944 164.468 192.002 164.431 192.067 164.415C192.132 164.398 192.202 164.406 192.263 164.435C192.323 164.465 192.372 164.516 192.399 164.578L199.458 180.467C199.486 180.529 199.49 180.598 199.471 180.663C199.452 180.728 199.41 180.785 199.353 180.822C199.304 180.85 199.247 180.862 199.191 180.857ZM192.643 173.477L198.271 179.215L192.451 166.132L192.643 173.477Z" fill="#263238"/>
<path d="M192.171 171.143C192.098 171.143 192.027 171.116 191.973 171.066C191.919 171.017 191.886 170.948 191.88 170.875L190.233 146.734C190.23 146.696 190.235 146.657 190.248 146.621C190.26 146.585 190.279 146.551 190.304 146.522C190.329 146.493 190.36 146.47 190.394 146.453C190.428 146.435 190.466 146.425 190.504 146.423C190.542 146.42 190.58 146.425 190.617 146.437C190.653 146.449 190.687 146.468 190.716 146.493C190.744 146.519 190.768 146.549 190.785 146.583C190.802 146.618 190.812 146.655 190.815 146.693L192.462 170.835C192.465 170.873 192.459 170.911 192.447 170.947C192.434 170.984 192.415 171.017 192.389 171.046C192.364 171.074 192.333 171.098 192.299 171.114C192.264 171.131 192.227 171.141 192.189 171.143H192.171Z" fill="#263238"/>
<path d="M193.085 163.1H193.044C192.969 163.089 192.901 163.048 192.855 162.987C192.809 162.926 192.789 162.85 192.799 162.774C192.974 161.517 193.853 151.39 193.859 151.292C193.869 151.215 193.907 151.145 193.967 151.095C194.026 151.046 194.102 151.02 194.179 151.024C194.255 151.031 194.325 151.068 194.374 151.127C194.423 151.186 194.447 151.262 194.441 151.338C194.406 151.757 193.556 161.581 193.376 162.856C193.363 162.924 193.328 162.986 193.274 163.031C193.221 163.075 193.154 163.1 193.085 163.1Z" fill="#263238"/>
<path d="M194.551 169.683H194.505C194.466 169.678 194.43 169.666 194.396 169.646C194.363 169.627 194.334 169.601 194.311 169.57C194.289 169.539 194.272 169.503 194.263 169.466C194.255 169.428 194.253 169.389 194.26 169.351L196.274 156.547C196.28 156.509 196.293 156.473 196.313 156.439C196.333 156.406 196.359 156.377 196.39 156.354C196.421 156.332 196.456 156.315 196.494 156.306C196.531 156.296 196.57 156.294 196.608 156.3C196.647 156.306 196.683 156.319 196.716 156.339C196.75 156.359 196.778 156.385 196.801 156.416C196.824 156.447 196.841 156.483 196.85 156.52C196.86 156.558 196.862 156.597 196.856 156.635L194.842 169.439C194.832 169.508 194.797 169.571 194.743 169.617C194.69 169.662 194.621 169.685 194.551 169.683Z" fill="#263238"/>
<path d="M211.75 169.491C211.681 169.489 211.616 169.464 211.564 169.419C211.512 169.375 211.477 169.314 211.465 169.246L210.539 163.956C210.533 163.918 210.534 163.879 210.543 163.841C210.551 163.803 210.567 163.767 210.59 163.736C210.612 163.704 210.64 163.677 210.673 163.657C210.706 163.636 210.743 163.622 210.781 163.616C210.819 163.609 210.858 163.61 210.896 163.619C210.934 163.627 210.97 163.643 211.001 163.666C211.033 163.688 211.06 163.717 211.08 163.749C211.101 163.782 211.115 163.819 211.121 163.857L212.053 169.147C212.064 169.224 212.046 169.302 212.002 169.365C211.957 169.428 211.89 169.471 211.814 169.485L211.75 169.491Z" fill="#263238"/>
<path d="M206.559 166.895C206.482 166.891 206.411 166.858 206.358 166.803C206.305 166.748 206.275 166.675 206.273 166.599L206.332 162.984C206.34 162.91 206.374 162.84 206.428 162.788C206.482 162.736 206.553 162.704 206.628 162.699C206.667 162.7 206.704 162.708 206.739 162.724C206.774 162.739 206.806 162.761 206.833 162.789C206.859 162.816 206.88 162.849 206.894 162.884C206.908 162.92 206.914 162.958 206.914 162.996L206.855 166.604C206.855 166.643 206.848 166.681 206.833 166.717C206.818 166.753 206.796 166.785 206.768 166.812C206.741 166.839 206.708 166.861 206.672 166.875C206.636 166.889 206.597 166.896 206.559 166.895Z" fill="#263238"/>
<path d="M167.849 195.284C167.817 195.293 167.782 195.293 167.75 195.284C167.678 195.259 167.618 195.206 167.585 195.138C167.551 195.069 167.545 194.99 167.57 194.917C168.012 193.684 168.454 192.287 168.885 190.762C168.895 190.724 168.913 190.688 168.937 190.657C168.961 190.625 168.991 190.599 169.026 190.579C169.06 190.559 169.098 190.547 169.137 190.542C169.176 190.536 169.216 190.539 169.254 190.549C169.293 190.56 169.328 190.578 169.36 190.602C169.391 190.626 169.417 190.656 169.437 190.69C169.457 190.725 169.47 190.762 169.475 190.802C169.48 190.841 169.477 190.881 169.467 190.919C169.03 192.456 168.582 193.87 168.14 195.109C168.116 195.165 168.075 195.212 168.023 195.244C167.97 195.275 167.91 195.289 167.849 195.284Z" fill="#263238"/>
<path d="M169.944 188.33H169.868C169.795 188.311 169.732 188.264 169.692 188.198C169.653 188.133 169.641 188.055 169.659 187.981C172.755 175.759 174.664 159.713 174.897 157.845L167.733 153.189C167.684 153.157 167.646 153.111 167.624 153.057C167.602 153.003 167.597 152.943 167.61 152.886C167.621 152.829 167.649 152.776 167.69 152.736C167.732 152.695 167.785 152.668 167.843 152.659L176.311 151.274C175.729 150.518 174.321 148.754 172.953 146.706C171.143 143.993 165.329 135.066 165.271 134.996C165.234 134.931 165.223 134.855 165.241 134.782C165.259 134.71 165.303 134.647 165.366 134.607C165.429 134.566 165.504 134.552 165.578 134.566C165.651 134.58 165.716 134.621 165.76 134.681C165.818 134.769 171.632 143.673 173.436 146.38C175.24 149.086 177.062 151.274 177.079 151.292C177.111 151.333 177.132 151.38 177.14 151.431C177.148 151.482 177.143 151.534 177.126 151.583C177.109 151.631 177.078 151.674 177.038 151.707C176.998 151.74 176.95 151.761 176.899 151.769L168.681 153.108L175.368 157.455C175.414 157.485 175.45 157.527 175.472 157.577C175.495 157.626 175.503 157.681 175.496 157.734C175.496 157.903 173.529 175.136 170.258 188.121C170.24 188.187 170.197 188.245 170.14 188.283C170.082 188.322 170.013 188.338 169.944 188.33Z" fill="#263238"/>
<path d="M134.559 120.567L134.611 133.004L148.934 141.665L160.539 133.621L159.468 119.514C159.468 119.514 150.5 125.334 149.312 125.578C148.125 125.823 134.559 120.567 134.559 120.567Z" fill="white"/>
<path d="M148.936 141.956C148.882 141.957 148.83 141.943 148.784 141.915L134.444 133.278C134.401 133.252 134.365 133.215 134.34 133.171C134.315 133.128 134.3 133.079 134.298 133.028L134.246 120.591C134.247 120.544 134.259 120.498 134.281 120.457C134.304 120.415 134.335 120.38 134.374 120.353C134.413 120.326 134.457 120.309 134.504 120.303C134.55 120.297 134.598 120.302 134.642 120.317C139.88 122.343 148.412 125.486 149.244 125.317C150.076 125.148 155.716 121.609 159.307 119.293C159.35 119.267 159.399 119.254 159.45 119.254C159.5 119.254 159.549 119.267 159.592 119.293C159.637 119.316 159.676 119.349 159.705 119.391C159.733 119.433 159.751 119.481 159.755 119.532L160.809 133.639C160.812 133.69 160.802 133.741 160.78 133.787C160.757 133.833 160.723 133.873 160.681 133.901L149.081 141.944C149.034 141.96 148.984 141.964 148.936 141.956ZM134.904 132.842L148.924 141.322L160.238 133.476L159.231 120.021C157.322 121.254 150.501 125.619 149.396 125.841C148.29 126.062 137.831 122.122 134.846 120.969L134.904 132.842Z" fill="#263238"/>
<path d="M134.757 130.625L148.358 127.255L134.611 121.645L134.757 130.625Z" fill="#263238"/>
<path d="M134.757 130.91C134.692 130.911 134.628 130.891 134.576 130.852C134.542 130.825 134.514 130.791 134.495 130.751C134.475 130.712 134.466 130.669 134.466 130.625L134.32 121.639C134.32 121.591 134.332 121.543 134.354 121.501C134.377 121.458 134.409 121.422 134.448 121.394C134.49 121.371 134.537 121.359 134.585 121.359C134.633 121.359 134.68 121.371 134.722 121.394L148.469 127.005C148.526 127.028 148.574 127.069 148.606 127.121C148.639 127.173 148.654 127.234 148.649 127.296C148.643 127.357 148.619 127.414 148.579 127.461C148.54 127.508 148.487 127.542 148.428 127.558L134.827 130.922L134.757 130.91ZM134.914 122.081L135.042 130.229L147.421 127.162L134.914 122.081Z" fill="#263238"/>
<path d="M159.469 105.005C159.469 105.005 159.335 99.3366 160.918 96.1705C161.425 95.1453 161.689 94.0171 161.689 92.8735C161.689 91.7298 161.425 90.6016 160.918 89.5764L162.379 89.0468C161.584 88.3808 160.748 87.7646 159.876 87.2019C159.481 87.068 160.138 83.512 158.951 81.6612C157.764 79.8105 156.576 79.4205 156.576 79.4205L155.919 81.7951C155.919 81.7951 152.357 77.5756 150.378 76.7841C148.399 75.9925 142.736 72.1688 142.591 74.1476C142.445 76.1264 143.254 76.9179 143.254 76.9179C143.254 76.9179 139.297 74.6714 136.27 75.4629C133.244 76.2545 130.334 78.1052 130.992 78.7629C131.649 79.4205 134.554 82.1909 134.554 82.1909C134.554 82.1909 127.831 82.4528 127.04 83.2443C126.509 83.8595 126.112 84.5792 125.876 85.3569L129.7 87.3357C129.7 87.3357 126.272 87.068 124.951 89.1807C123.629 91.2933 123.368 92.0907 124.293 92.4748C125.207 92.9408 126.088 93.4697 126.929 94.0578C126.929 94.0578 126.004 95.6409 127.063 98.2773C128.122 100.914 130.619 106.722 130.619 106.722C130.619 106.722 131.545 97.2239 132.202 95.379C132.86 93.534 141.043 89.1807 142.224 88.7849C143.406 88.3892 151.723 90.6299 152.252 90.6299C152.782 90.6299 156.204 103.952 156.995 104.476C157.787 104.999 159.469 105.005 159.469 105.005Z" fill="#263238"/>
<path d="M130.601 107.013C130.545 107.012 130.49 106.994 130.444 106.962C130.397 106.93 130.361 106.885 130.339 106.833C130.339 106.774 127.819 101.013 126.772 98.3879C125.905 96.2228 126.318 94.7271 126.545 94.1625C125.784 93.6333 124.987 93.1588 124.159 92.7425C124.003 92.6899 123.862 92.6029 123.745 92.488C123.628 92.3731 123.539 92.2333 123.483 92.079C123.286 91.4446 123.734 90.5542 124.688 89.0235C125.584 87.586 127.348 87.1727 128.529 87.068L125.713 85.613C125.652 85.5838 125.603 85.5336 125.576 85.4715C125.55 85.4094 125.546 85.3398 125.567 85.2754C125.821 84.4491 126.25 83.687 126.824 83.0405C127.546 82.3188 131.946 82.0278 133.855 81.9289C132.999 81.1083 131.271 79.4554 130.782 78.9665C130.699 78.8894 130.641 78.7901 130.615 78.6805C130.588 78.571 130.593 78.456 130.63 78.3496C130.916 77.2962 133.802 75.8063 136.189 75.1835C138.47 74.6015 141.194 75.6142 142.55 76.237C142.324 75.5591 142.238 74.8421 142.3 74.1301C142.301 73.9853 142.34 73.8433 142.413 73.7186C142.487 73.5939 142.592 73.4909 142.719 73.4201C143.597 72.937 145.582 73.9322 148.288 75.3989C149.15 75.8645 149.964 76.3068 150.482 76.5163C152.153 77.1798 154.813 80.0956 155.779 81.1723L156.291 79.3215C156.302 79.2834 156.321 79.2478 156.346 79.2169C156.371 79.1859 156.401 79.1602 156.436 79.1411C156.472 79.1241 156.511 79.1153 156.55 79.1153C156.589 79.1153 156.628 79.1241 156.663 79.1411C156.716 79.1411 157.961 79.5893 159.189 81.4691C159.987 82.7088 159.998 84.6236 160.004 85.8923C159.996 86.2383 160.011 86.5844 160.051 86.9283C160.923 87.4965 161.761 88.1164 162.559 88.7849C162.599 88.8184 162.63 88.8618 162.648 88.9107C162.667 88.9597 162.672 89.0126 162.664 89.0642C162.654 89.1146 162.631 89.1614 162.597 89.2001C162.563 89.2389 162.52 89.2683 162.472 89.2854L161.308 89.7044C161.772 90.7396 162.001 91.8652 161.977 92.9997C161.953 94.1342 161.676 95.2491 161.168 96.2636C159.637 99.3307 159.748 104.906 159.748 104.964C159.748 105.043 159.716 105.118 159.661 105.174C159.635 105.202 159.603 105.224 159.568 105.239C159.533 105.254 159.495 105.262 159.457 105.261C159.381 105.261 157.641 105.261 156.791 104.679C156.361 104.394 155.732 102.497 154.062 96.9387C153.311 94.4535 152.391 91.3864 152.077 90.8684C151.809 90.8335 151.222 90.6938 149.964 90.4028C147.712 89.8732 143.027 88.7674 142.27 89.0177C141.037 89.4309 133.028 93.7551 132.429 95.4197C131.794 97.2122 130.875 106.594 130.863 106.687C130.858 106.752 130.83 106.813 130.786 106.86C130.742 106.908 130.683 106.939 130.619 106.949L130.601 107.013ZM129.333 87.615C128.471 87.615 126.161 87.7664 125.177 89.361C124.403 90.6065 123.908 91.5203 124.013 91.9335C124.013 92.0091 124.1 92.1255 124.368 92.2419C125.299 92.7132 126.196 93.2499 127.051 93.8483C127.113 93.8898 127.156 93.9534 127.172 94.0259C127.189 94.0984 127.176 94.1743 127.138 94.2382C127.138 94.2382 126.306 95.7456 127.29 98.2016C128.064 100.134 129.618 103.812 130.403 105.605C130.671 103.021 131.358 96.8048 131.888 95.3091C132.627 93.243 141.13 88.8605 142.096 88.5404C142.934 88.2552 146.362 89.0235 150.098 89.9023C151.105 90.1409 152.06 90.3621 152.211 90.3679C152.595 90.3679 152.741 90.5891 154.62 96.8397C155.523 99.8254 156.751 103.905 157.129 104.272C157.766 104.574 158.461 104.733 159.166 104.737C159.166 103.498 159.247 98.8768 160.65 96.0715C161.131 95.0864 161.381 94.0046 161.381 92.9083C161.381 91.8121 161.131 90.7303 160.65 89.7452C160.63 89.7083 160.618 89.6675 160.615 89.6256C160.612 89.5837 160.619 89.5417 160.633 89.5024C160.648 89.4631 160.672 89.4276 160.702 89.3981C160.732 89.3687 160.768 89.3461 160.807 89.332L161.773 88.9827C161.137 88.4443 160.464 87.9504 159.76 87.5045C159.416 87.3939 159.416 86.9748 159.405 85.9563C159.405 84.7574 159.405 82.9474 158.683 81.8474C158.202 81.0405 157.536 80.3601 156.739 79.8628L156.157 81.8998C156.144 81.951 156.116 81.9976 156.078 82.0345C156.04 82.0714 155.993 82.0973 155.942 82.1093C155.89 82.1198 155.836 82.1162 155.786 82.0988C155.735 82.0814 155.691 82.0509 155.656 82.0104C155.622 81.9696 152.118 77.8374 150.232 77.0808C149.46 76.7314 148.706 76.3429 147.974 75.9168C146.228 74.9798 143.632 73.5888 142.963 73.9322C142.934 73.9322 142.858 73.9904 142.847 74.1708C142.73 75.9692 143.429 76.7084 143.429 76.72C143.475 76.7722 143.5 76.8395 143.5 76.9092C143.5 76.9789 143.475 77.0461 143.429 77.0983C143.386 77.1535 143.325 77.1915 143.256 77.2053C143.188 77.2192 143.117 77.2081 143.056 77.174C143.021 77.174 139.168 75.0031 136.282 75.7539C133.581 76.4581 131.3 77.9131 131.137 78.5126C131.789 79.211 134.67 81.958 134.699 82.0046C134.74 82.0442 134.768 82.0952 134.781 82.151C134.793 82.2068 134.789 82.2651 134.769 82.3185C134.748 82.3719 134.712 82.4181 134.666 82.4513C134.619 82.4845 134.564 82.5032 134.507 82.5051C131.76 82.6098 127.674 82.9823 127.185 83.477C126.728 83.9849 126.376 84.5783 126.149 85.223L129.752 87.0854C129.81 87.1172 129.857 87.1677 129.883 87.229C129.909 87.2902 129.914 87.3586 129.897 87.423C129.878 87.4874 129.838 87.5436 129.783 87.5825C129.728 87.6215 129.662 87.6412 129.594 87.6383C129.594 87.6383 129.53 87.615 129.333 87.615Z" fill="#263238"/>
<path d="M137.726 85.4901C137.726 85.4901 128.891 94.2201 128.757 95.6402C128.623 97.0603 132.581 119.642 132.831 120.433C133.081 121.225 142.458 127.161 145.356 127.819C148.254 128.477 151.292 127.685 152.084 127.027C152.875 126.37 160.523 122.016 161.314 118.455C162.106 114.893 157.141 90.6292 156.559 89.7096C155.977 88.7901 143.662 82.8479 137.726 85.4901Z" fill="white"/>
<path d="M147.664 128.355C146.872 128.358 146.081 128.274 145.307 128.105C142.543 127.476 132.899 121.522 132.567 120.539C132.206 119.456 128.336 97.0723 128.464 95.6289C128.592 94.1855 136.03 86.7592 137.52 85.2926C137.544 85.2668 137.574 85.2469 137.607 85.2344C143.474 82.627 156.144 88.3655 156.813 89.5761C157.36 90.5306 162.4 114.876 161.591 118.531C160.916 121.574 155.527 125.101 153.228 126.609C152.757 126.917 152.39 127.156 152.262 127.266C151.604 127.819 149.73 128.355 147.664 128.355ZM137.892 85.7349C134.499 89.0756 129.133 94.6919 129.046 95.6696C128.93 96.9791 132.788 119.351 133.12 120.341C133.527 121.109 142.525 126.876 145.435 127.534C148.345 128.192 151.209 127.394 151.913 126.807C152.064 126.679 152.408 126.452 152.931 126.108C155.172 124.642 160.422 121.208 161.044 118.391C161.807 114.969 156.854 90.839 156.33 89.8729C155.841 89.1221 143.753 83.2265 137.892 85.7349Z" fill="#263238"/>
<path d="M137.725 85.4908C137.725 85.4908 140.786 87.004 142.049 87.5686C143.312 88.1331 144.709 86.1659 144.709 86.1659C144.709 86.1659 155.551 89.8849 156.581 89.7103C157.612 89.5357 153.671 85.4617 149.597 83.9194C145.523 82.3771 137.748 82.5692 137.725 85.4908Z" fill="#263238"/>
<path d="M156.523 90.0008C155.12 90.0008 146.955 87.2421 144.813 86.5088C144.406 87.0093 143.16 88.377 141.903 87.8358C140.646 87.2945 137.602 85.7639 137.573 85.7464C137.524 85.7224 137.483 85.6851 137.454 85.6388C137.425 85.5925 137.41 85.539 137.41 85.4845C137.422 85.1411 137.521 84.8062 137.697 84.5111C137.873 84.216 138.12 83.9703 138.417 83.7967C140.745 82.2195 146.478 82.4232 149.702 83.6512C153.275 85.0073 157.117 88.5167 157.012 89.5701C157.004 89.6762 156.959 89.7762 156.886 89.8535C156.813 89.9308 156.716 89.9807 156.61 89.995L156.523 90.0008ZM144.708 85.8744C144.741 85.8689 144.775 85.8689 144.807 85.8744C148.829 87.2538 155.376 89.3664 156.447 89.4072C156.203 88.6098 153.06 85.5194 149.522 84.1692C146.449 83.0052 140.885 82.8131 138.778 84.2565C138.587 84.3666 138.423 84.5159 138.294 84.6945C138.166 84.8731 138.077 85.0769 138.033 85.2924C138.702 85.6184 141.1 86.8056 142.171 87.2771C143.026 87.6554 144.126 86.4623 144.499 85.9734C144.525 85.9429 144.557 85.9182 144.593 85.9012C144.629 85.8841 144.668 85.875 144.708 85.8744Z" fill="#263238"/>
<path d="M145.815 110.452C145.74 110.459 145.664 110.459 145.588 110.452L144.849 110.33C144.326 110.416 143.796 110.459 143.266 110.458C142.916 110.435 142.582 110.297 142.317 110.067C142.051 109.837 141.867 109.527 141.794 109.184C141.778 109.109 141.791 109.031 141.831 108.966C141.871 108.901 141.935 108.854 142.009 108.835C142.083 108.817 142.161 108.829 142.226 108.868C142.292 108.907 142.339 108.97 142.358 109.044C142.358 109.079 142.585 109.882 143.266 109.882C143.777 109.884 144.287 109.841 144.791 109.754H144.919L145.711 109.882C146.415 110.004 147.934 109.248 148.039 108.916C148.143 108.584 147.381 105.214 146.875 102.776C146.293 99.9125 145.92 98.1199 145.92 97.7765C145.92 96.9152 147.526 95.1517 147.846 94.8083C147.902 94.7546 147.976 94.7246 148.053 94.7246C148.13 94.7246 148.204 94.7546 148.26 94.8083C148.287 94.8354 148.309 94.8676 148.323 94.903C148.338 94.9385 148.346 94.9765 148.346 95.0149C148.346 95.0533 148.338 95.0914 148.323 95.1268C148.309 95.1623 148.287 95.1945 148.26 95.2215C147.526 96.0072 146.514 97.3284 146.514 97.794C146.514 98.1199 147.014 100.541 147.457 102.677C148.394 107.211 148.69 108.771 148.621 109.079C148.411 109.708 146.746 110.452 145.815 110.452Z" fill="#263238"/>
<path d="M148.741 109.295C148.565 109.294 148.39 109.278 148.217 109.249C148.18 109.241 148.144 109.226 148.113 109.205C148.081 109.183 148.054 109.156 148.033 109.124C148.012 109.092 147.997 109.056 147.99 109.019C147.982 108.981 147.983 108.943 147.99 108.905C147.997 108.867 148.012 108.831 148.033 108.799C148.054 108.767 148.081 108.74 148.114 108.718C148.146 108.697 148.182 108.683 148.219 108.676C148.257 108.669 148.296 108.67 148.334 108.678C148.661 108.751 149.002 108.72 149.311 108.591C149.379 108.542 149.425 108.469 149.439 108.387L149.567 107.596C149.582 107.52 149.625 107.453 149.688 107.408C149.751 107.363 149.829 107.345 149.905 107.357C149.943 107.363 149.979 107.376 150.011 107.396C150.044 107.416 150.072 107.442 150.094 107.473C150.117 107.504 150.132 107.539 150.141 107.576C150.149 107.613 150.15 107.651 150.144 107.689L150.01 108.48C149.991 108.597 149.948 108.708 149.885 108.808C149.822 108.908 149.74 108.995 149.643 109.062C149.372 109.227 149.058 109.308 148.741 109.295Z" fill="#263238"/>
<path d="M144.843 110.307C144.784 110.308 144.727 110.289 144.68 110.255C144.358 110.006 144.123 109.661 144.009 109.27C143.895 108.879 143.908 108.461 144.046 108.078C144.054 108.038 144.071 108 144.095 107.967C144.12 107.934 144.151 107.906 144.186 107.886C144.222 107.865 144.262 107.853 144.303 107.849C144.344 107.845 144.385 107.85 144.424 107.863C144.463 107.876 144.499 107.898 144.529 107.926C144.559 107.954 144.582 107.988 144.598 108.026C144.614 108.064 144.622 108.105 144.621 108.146C144.62 108.187 144.61 108.227 144.593 108.264C144.494 108.53 144.483 108.82 144.559 109.093C144.635 109.366 144.796 109.607 145.017 109.783C145.066 109.82 145.102 109.871 145.121 109.929C145.139 109.988 145.138 110.05 145.119 110.108C145.1 110.166 145.063 110.217 145.013 110.252C144.963 110.288 144.904 110.307 144.843 110.307Z" fill="#263238"/>
<path d="M142.475 118.35C142.403 118.35 142.333 118.325 142.277 118.28C142.223 118.224 142.193 118.15 142.193 118.073C142.193 117.996 142.223 117.922 142.277 117.867C142.324 117.814 146.822 112.856 151.967 114.887C152.003 114.901 152.035 114.922 152.063 114.949C152.09 114.975 152.112 115.007 152.127 115.042C152.142 115.077 152.15 115.115 152.151 115.153C152.151 115.192 152.144 115.23 152.13 115.265C152.116 115.301 152.095 115.333 152.069 115.36C152.042 115.388 152.01 115.41 151.975 115.425C151.94 115.44 151.902 115.448 151.864 115.449C151.826 115.449 151.788 115.442 151.752 115.428C146.985 113.548 142.754 118.204 142.714 118.257C142.684 118.289 142.646 118.315 142.605 118.331C142.564 118.347 142.519 118.353 142.475 118.35Z" fill="#263238"/>
<path d="M133.37 100.18C133.3 100.181 133.231 100.167 133.167 100.14C133.024 100.085 132.908 99.9758 132.845 99.8363C132.782 99.6969 132.776 99.5382 132.829 99.3946C133.449 97.8972 134.488 96.6101 135.82 95.6872C138.044 94.2031 141.897 95.9608 142.06 96.0364C142.129 96.0689 142.192 96.1148 142.243 96.1714C142.295 96.228 142.335 96.2943 142.362 96.3665C142.388 96.4386 142.4 96.5152 142.396 96.5919C142.393 96.6686 142.374 96.7439 142.342 96.8134C142.309 96.883 142.263 96.9454 142.207 96.9973C142.15 97.0491 142.084 97.0893 142.012 97.1155C141.94 97.1417 141.863 97.1534 141.786 97.15C141.71 97.1466 141.634 97.1282 141.565 97.0957C140.622 96.6534 137.857 95.7222 136.466 96.6534C135.34 97.445 134.457 98.5355 133.917 99.802C133.876 99.9134 133.801 100.009 133.703 100.077C133.605 100.145 133.489 100.181 133.37 100.18Z" fill="#263238"/>
<path d="M156.454 97.6783C156.348 97.6791 156.243 97.6508 156.152 97.5964C156.061 97.542 155.986 97.4637 155.936 97.3699C155.276 96.2466 154.269 95.3682 153.067 94.8672C152.548 94.6791 151.989 94.6306 151.445 94.7266C150.902 94.8227 150.393 95.0598 149.97 95.4143C149.914 95.4663 149.847 95.5065 149.775 95.5326C149.702 95.5587 149.626 95.5702 149.549 95.5664C149.472 95.5626 149.397 95.5436 149.327 95.5105C149.258 95.4774 149.195 95.4309 149.144 95.3736C149.041 95.2592 148.987 95.1087 148.995 94.9549C149.002 94.8011 149.071 94.6565 149.185 94.553C149.767 94.0546 150.471 93.7202 151.224 93.5842C151.978 93.4481 152.755 93.5154 153.474 93.7789C154.942 94.377 156.171 95.4455 156.966 96.817C157.003 96.8845 157.026 96.9587 157.034 97.0351C157.041 97.1116 157.034 97.1888 157.012 97.2624C156.99 97.336 156.953 97.4045 156.904 97.4639C156.855 97.5233 156.795 97.5724 156.727 97.6085C156.643 97.6539 156.549 97.6778 156.454 97.6783Z" fill="#263238"/>
<path d="M139.243 103.555C139.79 103.555 140.233 102.935 140.233 102.17C140.233 101.405 139.79 100.785 139.243 100.785C138.697 100.785 138.254 101.405 138.254 102.17C138.254 102.935 138.697 103.555 139.243 103.555Z" fill="#263238"/>
<path d="M152.037 100.192C152.037 100.954 151.589 101.577 151.048 101.577C150.507 101.577 150.059 100.954 150.059 100.192C150.059 99.4294 150.501 98.8066 151.048 98.8066C151.595 98.8066 152.037 99.4294 152.037 100.192Z" fill="#263238"/>
<path d="M130.368 105.268C130.368 105.268 127.865 101.712 126.678 104.476C125.491 107.241 126.678 109.487 127.842 111.338C129.006 113.189 131.532 114.108 131.532 114.108L130.368 105.268Z" fill="white"/>
<path d="M131.534 114.399C131.501 114.405 131.468 114.405 131.435 114.399C131.33 114.364 128.822 113.422 127.6 111.489C126.267 109.417 125.202 107.124 126.389 104.36C126.479 104.051 126.653 103.772 126.891 103.555C127.129 103.339 127.423 103.192 127.739 103.132C129.06 102.998 130.434 104.878 130.585 105.099C130.614 105.136 130.633 105.18 130.638 105.227L131.802 114.062C131.807 114.112 131.8 114.163 131.781 114.21C131.761 114.256 131.73 114.298 131.691 114.329C131.647 114.368 131.592 114.392 131.534 114.399ZM127.879 103.714H127.798C127.448 103.749 127.157 104.046 126.925 104.587C125.79 107.229 126.925 109.371 128.089 111.175C128.887 112.25 129.952 113.096 131.179 113.631L130.067 105.373C129.683 104.86 128.671 103.714 127.873 103.714H127.879Z" fill="#263238"/>
<path d="M159.748 100.92C159.748 100.92 160.01 98.4116 161.069 98.6735C162.128 98.9354 164.101 100.92 162.914 103.684C161.727 106.449 160.54 109.359 160.54 109.359L159.469 103.952L159.748 100.92Z" fill="white"/>
<path d="M160.54 109.649C160.478 109.641 160.419 109.614 160.373 109.571C160.327 109.529 160.296 109.472 160.284 109.41L159.231 104.004C159.228 103.977 159.228 103.949 159.231 103.922L159.493 100.89C159.493 100.704 159.708 99.0508 160.447 98.5328C160.551 98.459 160.671 98.4087 160.796 98.3856C160.922 98.3625 161.051 98.367 161.175 98.3989C161.617 98.5577 162.024 98.8032 162.371 99.121C162.718 99.4388 162.998 99.8225 163.194 100.25C163.463 100.804 163.603 101.412 163.603 102.028C163.603 102.644 163.463 103.252 163.194 103.806C162.03 106.541 160.831 109.445 160.82 109.474C160.797 109.529 160.758 109.575 160.708 109.606C160.658 109.637 160.599 109.652 160.54 109.649ZM159.778 103.934L160.639 108.351C161.087 107.274 161.867 105.383 162.647 103.573C162.876 103.094 162.996 102.57 162.996 102.039C162.996 101.509 162.876 100.985 162.647 100.506C162.325 99.7938 161.735 99.2376 161.006 98.9577C160.963 98.9445 160.917 98.9419 160.872 98.95C160.828 98.9581 160.786 98.9767 160.75 99.0042C160.36 99.2778 160.11 100.337 160.046 100.942L159.778 103.934Z" fill="#263238"/>
<path d="M273.303 262.227H29.3574C29.2802 262.227 29.2062 262.196 29.1516 262.141C29.0971 262.087 29.0664 262.013 29.0664 261.936C29.0664 261.858 29.0971 261.784 29.1516 261.73C29.2062 261.675 29.2802 261.645 29.3574 261.645H273.303C273.38 261.645 273.454 261.675 273.508 261.73C273.563 261.784 273.594 261.858 273.594 261.936C273.592 262.012 273.561 262.085 273.507 262.14C273.453 262.194 273.379 262.225 273.303 262.227Z" fill="#263238"/>
</svg>
