<svg width="419" height="533" viewBox="0 0 419 533" fill="none" xmlns="http://www.w3.org/2000/svg">
<path d="M419.001 96.7018H306.944L307.41 95.9481C307.609 95.6308 312.269 88.1637 318.269 87.5687C320.596 87.4251 322.929 87.7453 325.131 88.5108C327.581 89.2148 329.346 89.7206 330.774 88.2926C331.587 87.3891 332.256 86.3656 332.757 85.2582C334.026 82.7989 335.345 80.2503 340.353 79.4173C343.526 78.8818 346.134 79.9727 348.653 81.0238C351.935 82.3824 355.029 83.6715 359.452 81.7775C362.477 80.4784 364.014 78.0588 365.491 75.7284C367.921 71.8808 370.222 68.2514 378.383 70.1057C390.421 72.8427 395.33 87.7769 396.113 90.4544C397.404 90.1819 398.619 89.6302 399.674 88.838C402.222 87.2415 405.405 85.2482 410.512 87.6084C418.237 91.1783 418.921 95.9481 418.941 96.1465L419.001 96.7018ZM308.749 95.7101H417.831C417.404 94.421 415.788 91.1287 410.116 88.5108C405.494 86.3787 402.807 88.0546 400.199 89.6809C398.731 90.5932 397.343 91.4659 395.747 91.4659H395.36L395.261 91.099C395.261 90.9205 390.531 73.8839 378.165 71.0776C370.678 69.3719 368.665 72.565 366.324 76.254C364.767 78.7232 363.151 81.2717 359.839 82.6898C355.039 84.7524 351.598 83.3145 348.276 81.9361C345.777 80.8949 343.407 79.9528 340.512 80.3991C336 81.1428 334.849 83.374 333.63 85.7143C333.089 86.9142 332.36 88.0192 331.468 88.9868C329.623 90.8411 327.412 90.2065 324.844 89.4628C322.762 88.7376 320.559 88.4276 318.358 88.5504C313.896 88.9967 310.078 93.826 308.749 95.7101Z" fill="white"/>
<path d="M89.3062 188.033H39.9121L40.3782 187.279C40.4674 187.13 42.5598 183.779 45.3364 183.511C46.3785 183.448 47.4229 183.589 48.4106 183.927C49.5113 184.245 50.0964 184.383 50.5823 183.927C50.9147 183.554 51.1889 183.133 51.3954 182.678C51.6752 181.954 52.1489 181.321 52.7647 180.849C53.3805 180.377 54.1144 180.083 54.886 180C56.1818 179.863 57.4893 180.111 58.6444 180.714C60.0129 181.28 61.302 181.815 63.1068 181.042C64.1865 180.493 65.0597 179.609 65.5959 178.523C66.6569 176.857 67.7477 175.121 71.4863 175.964C76.5536 177.125 78.7749 183.084 79.3005 184.74C79.7226 184.589 80.1228 184.382 80.4904 184.126C81.1754 183.565 82.0079 183.214 82.8876 183.116C83.7672 183.017 84.6567 183.175 85.4487 183.57C88.9393 185.187 89.2566 187.398 89.2666 187.537L89.3062 188.033ZM41.7665 187.041H88.0468C87.3607 185.853 86.2853 184.939 85.0025 184.453C84.3597 184.129 83.6355 184.002 82.9209 184.088C82.2062 184.175 81.5331 184.471 80.9863 184.939C80.3856 185.407 79.6626 185.693 78.9038 185.762H78.5171L78.4278 185.395C78.4278 185.316 76.4445 178.096 71.2185 176.916C68.1741 176.222 67.3907 177.462 66.3892 179.038C65.7392 180.302 64.6947 181.319 63.4142 181.934C62.5747 182.277 61.6687 182.425 60.7638 182.369C59.8589 182.312 58.9784 182.051 58.1882 181.607C57.2042 181.08 56.0864 180.856 54.9753 180.962C54.3558 181.02 53.7655 181.253 53.2737 181.634C52.782 182.015 52.409 182.529 52.1987 183.114C51.9468 183.658 51.6123 184.16 51.207 184.602C50.2848 185.524 49.1543 185.197 48.0635 184.879C47.1944 184.577 46.2752 184.446 45.3563 184.493C43.8589 184.641 42.5003 186.099 41.7665 187.041Z" fill="white"/>
<path d="M331.705 286.593H282.321L282.787 285.839C282.867 285.7 284.959 282.349 287.696 282.071C288.742 282.006 289.791 282.151 290.78 282.497C291.871 282.805 292.466 282.944 292.952 282.497C293.281 282.128 293.552 281.71 293.755 281.258C294.035 280.531 294.51 279.896 295.127 279.422C295.745 278.948 296.481 278.653 297.256 278.57C298.548 278.432 299.853 278.681 301.004 279.284C302.372 279.85 303.662 280.395 305.466 279.612C306.546 279.067 307.419 278.187 307.955 277.103C309.017 275.427 310.117 273.692 313.846 274.544C318.913 275.695 321.134 281.654 321.66 283.311C322.086 283.161 322.49 282.954 322.86 282.696C323.544 282.133 324.376 281.781 325.257 281.682C326.137 281.583 327.027 281.743 327.818 282.14C331.309 283.757 331.626 285.968 331.636 286.107L331.705 286.593ZM284.166 285.601H330.456C329.767 284.412 328.688 283.497 327.402 283.013C326.758 282.69 326.033 282.565 325.319 282.653C324.604 282.742 323.931 283.039 323.386 283.509C322.781 283.969 322.059 284.25 321.303 284.322H320.926L320.827 283.955C320.827 283.886 318.844 276.657 313.628 275.477C310.573 274.782 309.79 276.032 308.798 277.599C308.144 278.859 307.101 279.874 305.823 280.494C304.984 280.836 304.078 280.984 303.173 280.928C302.268 280.871 301.388 280.611 300.597 280.167C299.613 279.64 298.496 279.416 297.384 279.522C296.763 279.58 296.172 279.814 295.68 280.197C295.188 280.58 294.816 281.096 294.608 281.684C294.36 282.23 294.025 282.733 293.616 283.172C292.704 284.084 291.573 283.757 290.473 283.449C289.604 283.146 288.684 283.014 287.765 283.063C286.268 283.231 284.89 284.679 284.166 285.601Z" fill="white"/>
<path d="M125.571 40.9215H27.7744L28.2405 40.1678C28.4091 39.8902 32.4847 33.3552 37.7405 32.8296C39.7592 32.7148 41.7808 32.9978 43.6904 33.6626C45.8026 34.2675 47.3198 34.6543 48.5396 33.4841C49.2523 32.7066 49.8349 31.8193 50.265 30.8562C51.3261 28.8035 52.5359 26.4732 56.9289 25.7393C59.7056 25.2733 61.9963 26.2252 64.1977 27.1376C67.0438 28.3176 69.7212 29.4382 73.549 27.802C76.1669 26.6715 77.5156 24.5791 78.775 22.5462C80.8178 19.3333 82.9201 16.0013 90.0798 17.588C100.522 19.958 104.816 32.8296 105.55 35.2988C106.645 35.0551 107.675 34.5819 108.574 33.9105C110.805 32.5123 113.592 30.767 118.064 32.8396C124.837 35.9533 125.432 40.148 125.452 40.3265L125.571 40.9215ZM29.609 39.9299H124.381C123.974 38.7597 122.527 35.9633 117.717 33.7717C113.75 31.9372 111.41 33.385 109.169 34.7634C108.022 35.6513 106.646 36.1947 105.202 36.3302H104.826L104.726 35.9633C104.726 35.8145 100.611 21.0092 89.8517 18.5697C83.3762 17.0921 81.6309 19.8588 79.608 23.052C78.3089 25.1047 76.8313 27.4351 73.9258 28.6845C69.7212 30.4893 66.7165 29.2299 63.8011 28.0201C61.6393 27.1177 59.5865 26.2649 57.0777 26.6814C53.1805 27.3359 52.1888 29.2597 51.1278 31.2827C50.645 32.3336 50.0028 33.3037 49.2238 34.1584C47.5876 35.7848 45.6439 35.2294 43.3929 34.5849C41.5903 33.9483 39.6786 33.6785 37.7702 33.7915C34.0714 34.1981 30.8089 38.2242 29.609 39.9299Z" fill="white"/>
<path d="M271.261 208.778L111.457 208.838L159.086 257.389L-76 485.582L-19.4958 545.805L216.949 316.342L268.187 368.553L271.261 208.778Z" fill="#FD7350"/>
<path d="M104.109 422.875L46.9307 361.919L158.382 257.369L110.277 208.342H111.457L271.768 208.282L268.664 369.743L216.939 317.037L104.109 422.875ZM48.3289 361.968L104.159 421.467L216.969 315.648L267.712 367.363L270.756 209.274L112.637 209.333L159.8 257.448L48.3289 361.968Z" fill="#FD7350"/>
<path d="M147.71 88.8082C147.71 88.8082 145.727 93.9351 145.578 94.887C145.524 97.081 145.926 99.2623 146.758 101.293C147.75 103.098 148.741 104.595 147.75 104.595C146.758 104.595 146.153 104.595 145.409 103.098C144.957 102.224 144.623 101.294 144.418 100.331C144.418 100.331 137.704 108.433 137.278 108.859C136.851 109.286 135.889 109.395 135.998 108.433C136.108 107.471 139.192 101.819 139.192 101.819L133.242 108.968C133.242 108.968 131.645 110.03 132.072 108.433C132.498 106.836 136.445 100.44 136.445 100.44C136.445 100.44 132.28 104.06 131.219 104.804C130.158 105.547 128.442 106.727 128.333 105.875C128.224 105.022 133.777 98.4074 133.876 97.8719C133.975 97.3364 129.91 100.44 129.513 100.966C129.116 101.491 126.955 103.633 126.419 103.633C125.884 103.633 125.566 102.999 126.627 101.075C127.688 99.1511 131.536 95.7399 132.389 94.6788C133.242 93.6177 144.289 84.5441 144.289 84.5441L147.71 88.8082Z" fill="white"/>
<path d="M132.321 109.811C132.139 109.817 131.961 109.761 131.815 109.653C131.478 109.415 131.389 108.959 131.557 108.304C132.354 106.401 133.306 104.567 134.403 102.82C133.253 103.812 132.003 104.804 131.428 105.21C129.812 106.351 128.87 106.876 128.235 106.599C128.107 106.538 127.998 106.444 127.918 106.328C127.838 106.211 127.79 106.075 127.779 105.934C127.7 105.349 128.433 104.238 131.498 100.232L132.112 99.4289C131.307 99.9898 130.545 100.61 129.832 101.283C129.832 101.283 127.283 104.129 126.351 104.129C126.185 104.129 126.022 104.087 125.876 104.007C125.731 103.928 125.608 103.813 125.518 103.673C125.181 103.108 125.379 102.176 126.133 100.837C127.351 99.0852 128.761 97.4753 130.337 96.0375C131.051 95.3136 131.666 94.6988 131.934 94.3715C132.797 93.2906 142.842 85.0996 143.953 84.1674L144.339 83.8501L148.247 88.729L148.138 88.9968C147.325 90.9388 146.623 92.9253 146.035 94.9467C145.995 97.0374 146.376 99.115 147.156 101.055C147.324 101.382 147.503 101.69 147.662 101.987C148.395 103.306 148.842 104.1 148.504 104.685C148.417 104.823 148.293 104.934 148.146 105.006C147.999 105.078 147.834 105.107 147.671 105.091C146.462 105.091 145.688 105.012 144.885 103.326C144.578 102.707 144.322 102.064 144.121 101.402C142.386 103.495 137.943 108.84 137.576 109.207C137.379 109.413 137.125 109.557 136.847 109.62C136.568 109.684 136.277 109.664 136.01 109.564C135.797 109.456 135.626 109.281 135.526 109.065C135.425 108.849 135.4 108.605 135.454 108.374C135.73 107.437 136.106 106.533 136.575 105.676L133.451 109.375C133.119 109.617 132.729 109.768 132.321 109.811ZM138.548 97.9117L136.833 100.698C135.752 102.463 132.866 107.303 132.519 108.562C132.496 108.637 132.479 108.713 132.469 108.79C132.614 108.736 132.753 108.67 132.886 108.592L138.836 101.501L139.649 102.057C138.442 104.121 137.392 106.272 136.505 108.493C136.493 108.555 136.493 108.619 136.505 108.681C136.664 108.683 136.817 108.622 136.932 108.512C137.239 108.205 141.355 103.267 144.052 100.014L144.736 99.181L144.915 100.252C145.11 101.163 145.42 102.046 145.837 102.88C146.432 104.07 146.7 104.1 147.662 104.1C147.443 103.534 147.174 102.99 146.858 102.473L146.333 101.482C145.46 99.3646 145.044 97.0869 145.113 94.7979C145.678 92.7754 146.363 90.7885 147.166 88.848L144.25 85.1987C139.808 88.8381 133.342 94.2029 132.767 94.9367C132.469 95.3136 131.865 95.9284 131.101 96.6821C129.593 98.0604 128.236 99.5963 127.055 101.263C126.252 102.711 126.43 103.118 126.43 103.118C127.41 102.377 128.311 101.536 129.118 100.609C129.118 100.609 133.223 96.93 134.076 97.3167L134.423 97.4853V97.9216C134.363 98.2092 133.987 98.7249 132.44 100.787C131.214 102.318 130.072 103.914 129.019 105.567C129.721 105.233 130.386 104.824 131.002 104.348C131.993 103.634 136.148 100.054 136.188 100.014L138.548 97.9117Z" fill="#263238"/>
<path d="M152.916 195.688C152.916 195.688 146.709 202.094 145.261 206.438C143.813 210.781 144.646 217.594 147.125 218.01C149.604 218.427 154.771 211.813 156.219 206.438C157.666 201.063 158.499 198.376 158.499 198.376L152.916 195.688Z" fill="white"/>
<path d="M147.355 218.526C147.253 218.536 147.15 218.536 147.048 218.526C146.671 218.444 146.318 218.278 146.015 218.041C145.711 217.804 145.464 217.502 145.292 217.158C143.884 214.817 143.646 209.74 144.797 206.309C146.264 201.906 152.303 195.639 152.561 195.401L152.809 195.143L159.096 198.118L158.967 198.524C158.967 198.524 158.134 201.271 156.706 206.577C155.278 211.882 150.37 218.526 147.355 218.526ZM153.027 196.283C151.867 197.523 146.968 202.888 145.739 206.587C144.688 209.74 144.876 214.52 146.145 216.612C146.248 216.831 146.395 217.025 146.578 217.182C146.761 217.339 146.975 217.456 147.206 217.524C149.249 217.862 154.307 211.644 155.744 206.309C156.865 202.154 157.619 199.576 157.896 198.634L153.027 196.283Z" fill="#263238"/>
<path d="M156.219 206.438L152.916 210.573L146.709 208.5L146.302 204.99L145.985 204.782C145.701 205.314 145.459 205.868 145.261 206.438C143.813 210.771 144.646 217.594 147.125 218.01C149.604 218.427 154.771 211.832 156.219 206.438Z" fill="white"/>
<path d="M147.355 218.526C147.253 218.536 147.15 218.536 147.048 218.526C146.671 218.443 146.318 218.278 146.015 218.041C145.711 217.804 145.464 217.502 145.292 217.158C143.884 214.817 143.646 209.74 144.797 206.309C144.999 205.714 145.251 205.136 145.55 204.583L145.798 204.088L146.79 204.732L147.186 208.163L152.76 210.018L157.341 204.306L156.726 206.596C155.308 211.743 150.37 218.526 147.355 218.526ZM145.927 206.071C145.858 206.249 145.788 206.428 145.739 206.587C144.688 209.74 144.876 214.52 146.145 216.612C146.248 216.831 146.395 217.025 146.578 217.182C146.761 217.339 146.975 217.456 147.206 217.524C148.882 217.802 152.631 213.607 154.693 209.135L153.087 211.118L146.254 208.838L145.927 206.071Z" fill="#263238"/>
<path d="M230.286 198.187C230.286 198.187 232.349 201.698 234.421 203.145C236.494 204.593 244.338 207.895 244.129 209.095C243.921 210.295 235.661 210.841 232.557 210.841C229.453 210.841 225.318 208.986 222.422 207.33C219.527 205.674 217.464 205.674 218.287 202.779C219.11 199.883 222.254 196.372 222.254 196.372L230.286 198.187Z" fill="white"/>
<path d="M232.557 211.287C228.848 211.287 224.069 208.788 222.184 207.707C221.54 207.34 220.925 207.053 220.38 206.795C218.525 205.922 217.058 205.228 217.811 202.59C218.664 199.615 221.718 196.145 221.847 195.996L222.046 195.778L230.603 197.761L230.713 197.939C230.713 197.939 232.745 201.38 234.679 202.749C235.856 203.474 237.071 204.136 238.319 204.732C242.821 207.043 244.774 208.163 244.606 209.224C244.278 211.267 233.033 211.287 232.557 211.287ZM222.403 196.878C221.728 197.682 219.428 200.518 218.773 202.828C218.248 204.653 218.942 204.98 220.806 205.863C221.361 206.121 221.996 206.418 222.67 206.805C224.485 207.846 229.086 210.256 232.587 210.256C237.029 210.256 242.86 209.691 243.644 209.016C243.237 208.302 239.915 206.606 237.912 205.575C236.626 204.956 235.374 204.268 234.164 203.513C232.504 202.108 231.096 200.431 229.999 198.554L222.403 196.878Z" fill="#263238"/>
<path d="M244.13 209.135C244.299 208.143 239.092 205.734 236.048 204.097L234.005 206.656C230.896 205.263 227.876 203.68 224.961 201.916L220.4 198.762C219.516 199.973 218.821 201.31 218.337 202.729C217.514 205.625 219.587 205.625 222.472 207.281C225.358 208.937 229.503 210.791 232.607 210.791C235.711 210.791 243.932 210.385 244.13 209.135Z" fill="white"/>
<path d="M232.557 211.287C228.848 211.287 224.069 208.788 222.184 207.707C221.54 207.34 220.925 207.053 220.38 206.795C218.525 205.922 217.058 205.228 217.811 202.59C218.305 201.116 219.024 199.728 219.943 198.475L220.221 198.068L220.627 198.346L225.189 201.499C227.979 203.198 230.874 204.719 233.856 206.051L235.919 203.473L236.286 203.661C236.9 203.998 237.605 204.355 238.328 204.732C242.84 207.043 244.794 208.163 244.625 209.224C244.278 211.267 233.033 211.287 232.557 211.287ZM220.479 199.447C219.742 200.495 219.167 201.649 218.773 202.868C218.248 204.692 218.942 205.02 220.806 205.902C221.361 206.16 221.996 206.458 222.67 206.844C224.485 207.886 229.086 210.295 232.587 210.295C237.029 210.295 242.86 209.73 243.644 209.056C243.237 208.342 239.915 206.646 237.912 205.615L236.206 204.732L234.223 207.271L233.866 207.112C230.711 205.707 227.647 204.104 224.693 202.312L220.479 199.447Z" fill="#263238"/>
<path d="M259.254 159.701C254.107 134.484 235.871 106.39 235.246 104.942C234.621 103.495 230.288 91.9221 230.288 91.9221C230.288 91.9221 213.122 93.7864 207.956 93.1617C202.789 92.5369 189.352 90.2661 189.352 90.2661V96.0573C189.352 96.0573 183.075 110.545 180.804 116.584C178.533 122.624 177.829 142.764 177.532 144.023C177.234 145.283 174.765 159.632 174.765 159.632L149.756 198.019C149.756 198.019 149.597 202.422 153.871 202.67C158.145 202.918 158.482 202.6 158.482 202.6L193.011 164.789C193.011 164.789 194.767 160.009 195.272 158.997C195.778 157.986 209.77 125.033 210.474 122.981L215.542 126.402L241.652 161.794C239.582 164.128 237.907 166.784 236.694 169.658C234.829 174.199 222.225 196.323 222.225 196.323C222.225 196.323 225.736 199.427 227.799 199.833C230.186 200.168 232.589 200.384 234.998 200.478C234.998 200.478 256.378 168.577 256.993 166.504C257.608 164.432 259.859 162.657 259.254 159.701Z" fill="#263238"/>
<path d="M156.596 203.265C155.921 203.265 155.019 203.265 153.839 203.165C153.194 203.139 152.562 202.984 151.979 202.707C151.397 202.431 150.876 202.04 150.448 201.557C150.02 201.075 149.694 200.511 149.49 199.9C149.285 199.288 149.206 198.642 149.257 197.999V197.86L174.297 159.444C174.535 158.065 176.805 145.134 177.043 143.924C177.043 143.666 177.192 142.268 177.301 140.493C177.718 134.206 178.571 121.126 180.336 116.416C182.488 110.684 188.269 97.2175 188.854 95.9581V89.681L189.429 89.7801C189.568 89.7801 202.916 92.0609 208.013 92.6757C213.11 93.2906 230.057 91.4461 230.226 91.4263H230.612L230.741 91.7932C230.791 91.9023 235.085 103.376 235.699 104.794C235.769 104.952 236.225 105.726 236.81 106.698C249.057 127.274 256.772 145.084 259.737 159.642C260.173 161.784 259.241 163.361 258.428 164.759C258.023 165.362 257.69 166.011 257.436 166.693C256.812 168.765 237.603 197.523 235.382 200.795L235.224 201.023H234.946C232.513 200.929 230.087 200.71 227.677 200.369C225.505 199.943 222.005 196.878 221.856 196.74L221.559 196.482L221.757 196.125C221.886 195.907 234.371 173.981 236.205 169.519C237.388 166.717 239 164.117 240.985 161.814L215.202 126.818L210.72 123.784C208.737 128.742 196.252 158.214 195.726 159.275C195.201 160.336 193.495 164.967 193.485 165.007L193.386 165.175L158.847 202.908C158.728 203.046 158.519 203.265 156.596 203.265ZM150.249 198.167C150.228 198.668 150.305 199.167 150.477 199.637C150.649 200.107 150.912 200.539 151.251 200.908C151.59 201.276 151.998 201.574 152.453 201.784C152.907 201.995 153.398 202.114 153.898 202.134C155.325 202.295 156.765 202.295 158.192 202.134L192.573 164.451C192.83 163.767 194.348 159.662 194.824 158.71C194.923 158.521 209.183 125.152 210.006 122.743L210.214 122.128L215.936 126.035L242.294 161.734L242.016 162.042C239.988 164.33 238.344 166.932 237.147 169.747C235.402 174.001 224.543 193.15 222.848 196.115C223.73 196.859 226.318 198.941 227.895 199.248C229.631 199.595 233.647 199.814 234.738 199.873C243.315 187.071 256.078 167.724 256.554 166.266C256.813 165.508 257.166 164.785 257.605 164.114C258.369 162.815 259.152 161.476 258.795 159.701C255.82 145.253 248.174 127.542 235.987 107.075C235.223 105.785 234.906 105.26 234.817 105.042C234.252 103.733 230.731 94.3616 229.978 92.3584C227.36 92.6361 212.723 94.1335 207.923 93.5583C203.411 93.0129 192.513 91.1982 189.875 90.7519V96.1564C189.806 96.3052 183.568 110.704 181.337 116.664C179.622 121.235 178.769 134.216 178.362 140.463C178.223 142.645 178.144 143.716 178.085 144.023C177.837 145.263 175.348 159.473 175.318 159.612L175.248 159.801L150.249 198.167Z" fill="#263238"/>
<path d="M205.317 35.1303L196.878 38.72C196.878 38.72 202.828 61.528 202.441 63.5113C202.054 65.4946 193.982 95.0359 193.982 95.0359C193.982 95.0359 204.028 99.7065 213.716 98.2686C223.405 96.8307 226.459 94.302 226.459 94.302C226.459 94.302 221.828 59.9017 221.828 58.4638C221.828 57.0259 222.363 39.8009 222.363 39.8009C222.363 39.8009 213.925 33.5139 205.317 35.1303Z" fill="white"/>
<path d="M209.807 99.0124C204.283 98.8777 198.837 97.672 193.772 95.4623L193.396 95.2838L193.505 94.8772C193.584 94.5797 201.606 65.3161 201.953 63.3923C202.201 62.0337 198.681 47.6151 196.4 38.839L196.291 38.4325L205.216 34.6444C213.933 33.0081 222.292 39.1365 222.649 39.3944L222.857 39.553V39.8108C222.857 39.9794 222.322 57.0457 222.322 58.4539C222.322 59.5645 225.346 82.3328 226.953 94.2227V94.5004L226.745 94.6689C226.616 94.778 223.472 97.2869 213.764 98.7248C212.454 98.917 211.131 99.0131 209.807 99.0124ZM194.576 94.7284C196.489 95.5416 205.275 98.9925 213.645 97.7034C221.658 96.5233 225.079 94.5797 225.932 94.0244C225.446 90.4247 221.33 59.8124 221.33 58.4142C221.33 57.016 221.786 42.2701 221.856 40.0092C220.527 39.077 213 34.1882 205.454 35.5666L197.471 38.9679C198.463 42.6767 203.282 61.5974 202.935 63.5311C202.588 65.4648 195.597 90.9899 194.576 94.7284Z" fill="#263238"/>
<path d="M229.494 60.7742L233.708 72.674C238.155 73.0555 242.577 73.6746 246.957 74.5284C251.786 75.639 262.189 77.5033 262.189 77.5033L261.574 83.9391C261.574 83.9391 249.307 84.9308 243.119 85.2977C236.931 85.6646 229.871 85.6745 229.871 85.6745L224.05 71.7914L229.494 60.7742Z" fill="white"/>
<path d="M229.919 86.1606H229.592L223.553 71.7718L229.622 59.505L234.114 72.1982C238.459 72.5697 242.782 73.1688 247.065 73.993C251.835 75.0938 262.168 76.968 262.277 76.968L262.723 77.0473L262.029 84.3558H261.612C261.483 84.3558 249.276 85.3474 243.148 85.7144C237.019 86.0813 229.919 86.1606 229.919 86.1606ZM224.644 71.8114L230.246 85.1689C231.714 85.1689 237.783 85.1194 243.138 84.7921C248.493 84.4649 259.004 83.6418 261.166 83.4633L261.702 77.9001C259.649 77.5233 251.111 75.9763 246.896 75.0045C242.539 74.1569 238.139 73.538 233.717 73.1501H233.4L229.433 62.0635L224.644 71.8114Z" fill="#263238"/>
<path d="M218.228 45.0468C218.228 45.0468 218.357 63.3725 219.091 66.4664C219.824 69.5604 235.225 117.883 235.225 118.498C235.225 119.113 236.96 118.746 239.439 117.636C241.918 116.525 246.867 110.823 246.867 110.823C246.867 110.823 236.692 97.0291 233.232 90.3454C229.771 83.6616 228.511 74.4789 228.273 73.1601C228.035 71.8412 230.743 65.3558 230.871 60.8933C231 56.4309 231.119 55.6971 231.119 54.9434C231.119 54.1898 232.726 45.7806 232.974 43.4205C233.222 41.0603 230.495 40.4455 227.153 38.839C224.238 37.6092 221.222 36.6337 218.139 35.9236L218.228 45.0468Z" fill="white"/>
<path d="M235.749 119.292C235.511 119.3 235.275 119.246 235.065 119.133C234.961 119.063 234.876 118.968 234.817 118.858C234.758 118.747 234.728 118.624 234.728 118.498C234.609 117.913 230.97 106.321 227.449 95.0953C223.294 81.8766 219 68.2116 218.614 66.5853C217.86 63.4716 217.741 45.7607 217.731 45.0467L217.622 35.3186L218.237 35.4674C221.361 36.1825 224.415 37.1782 227.36 38.4423C227.995 38.7497 228.6 39.0175 229.175 39.2753C231.703 40.3859 233.697 41.2586 233.459 43.5295C233.32 44.7889 232.814 47.7341 232.358 50.3322C232.001 52.375 231.604 54.6855 231.604 54.9929C231.604 55.3004 231.604 55.5383 231.555 55.9846C231.555 56.768 231.436 58.0869 231.356 60.9428C231.099 63.8077 230.51 66.6331 229.601 69.362C229.174 70.5712 228.888 71.8256 228.748 73.1005C228.748 73.2294 228.798 73.4178 228.848 73.6756C229.978 80.6172 231.604 86.1704 233.667 90.1469C237.078 96.7216 247.163 110.416 247.262 110.555L247.5 110.882L247.243 111.18C247.034 111.418 242.185 116.971 239.637 118.121C238.424 118.747 237.106 119.143 235.749 119.292ZM235.749 118.3C236.994 118.157 238.199 117.777 239.3 117.179C241.332 116.267 245.249 111.963 246.301 110.793C244.744 108.671 236.007 96.6423 232.854 90.5734C229.7 84.5045 228.362 76.4324 227.896 73.8045C227.896 73.5566 227.826 73.3682 227.796 73.2393C227.677 72.5848 228.015 71.3552 228.679 69.0545C229.564 66.4061 230.14 63.6641 230.395 60.8833C230.474 58.0175 230.553 56.6887 230.603 55.9251C230.603 55.4987 230.603 55.2409 230.603 54.9334C230.603 54.626 230.88 52.9501 231.376 50.1041C231.822 47.5159 232.368 44.5905 232.457 43.3609C232.616 41.8932 231.297 41.2388 228.768 40.1182C228.183 39.8604 227.558 39.5926 226.914 39.2852C224.233 38.1301 221.456 37.2142 218.614 36.5482L218.713 45.0169C218.713 45.2054 218.842 63.3228 219.566 66.3275C219.952 67.9241 224.435 82.1939 228.381 94.778C233.885 112.36 235.442 117.298 235.68 118.3H235.749Z" fill="#263238"/>
<path d="M204.612 45.2352C204.612 45.2352 208.846 57.9482 208.846 61.6371C208.846 65.3261 202.589 81.1131 200.011 84.8021C197.432 88.491 182.449 116.475 182.449 116.475C182.449 116.475 174.158 112.786 171.203 109.653C169.321 107.484 167.994 104.891 167.336 102.096L192.395 75.7384L188.022 60.11L169.428 69.8877L146.759 92.5568L141.414 86.1111L160.176 60.4075C160.176 60.4075 179.384 43.1627 180.118 42.5578C180.852 41.9529 200.388 35.1898 200.388 35.1898L204.612 45.2352Z" fill="white"/>
<path d="M182.668 117.07L182.251 116.882C181.904 116.733 173.832 113.123 170.847 109.94C168.907 107.706 167.545 105.029 166.88 102.146L166.831 101.898L167.009 101.71L191.87 75.5498L187.745 60.8337L169.736 70.2841L146.73 93.2805L140.78 86.1109L159.84 60.0305C160.623 59.3264 179.068 42.7658 179.812 42.1808C180.555 41.5957 196.947 35.8838 200.22 34.7434L200.656 34.5847L205.128 45.0367C205.307 45.5524 209.393 57.8687 209.393 61.5973C209.393 65.3259 203.135 81.2319 200.468 85.0498C197.929 88.6693 183.084 116.386 182.935 116.664L182.668 117.07ZM167.882 102.195C168.54 104.809 169.804 107.231 171.571 109.266C174.04 111.894 180.496 114.988 182.231 115.781C184.215 112.171 197.175 87.9355 199.605 84.4647C202.144 80.8353 208.351 65.1573 208.351 61.5873C208.351 58.0174 204.335 45.9292 204.137 45.3639L200.091 35.8639C192.386 38.5513 181.081 42.5675 180.377 43.0137C179.673 43.46 165.879 55.9052 160.544 60.7444L142.02 86.091L146.77 91.8228L169.181 69.4511L188.34 59.3958L192.951 75.8374L167.882 102.195Z" fill="#263238"/>
<path d="M189.133 61.4586L180.01 55.3699L180.555 54.5468L186.912 58.7812L185.355 55.1518L186.267 54.765L189.133 61.4586Z" fill="#263238"/>
<path d="M200.011 84.7625C200.011 84.7625 174.526 106.113 174.893 107.769C175.26 109.425 178.582 113.669 182.449 116.436L200.011 84.7625Z" fill="#FD7350"/>
<path d="M182.618 117.16L182.162 116.832C178.304 114.085 174.823 109.762 174.407 107.907C174.03 106.212 190.085 92.4576 199.694 84.4153L201.737 82.6997L182.618 117.16ZM175.379 107.709C175.775 109.197 178.73 113.014 182.271 115.642L198.276 86.8845C188.954 94.7384 176.013 106.063 175.379 107.709Z" fill="#263238"/>
<path d="M204.226 31.7189C204.226 31.7189 201.489 30.8463 200.626 31.471C199.763 32.0958 198.762 34.5749 198.762 34.5749C198.762 34.5749 197.641 49.8364 197.77 50.3421C197.899 50.8479 210.8 44.6302 210.8 44.6302C210.8 44.6302 222.591 50.2132 222.7 49.2215C222.809 48.2299 218.109 35.9334 218.109 35.9334L204.226 31.7189Z" fill="white"/>
<path d="M197.758 50.8479C197.696 50.8639 197.632 50.8639 197.57 50.8479L197.362 50.7487L197.282 50.5008C197.163 49.9951 197.847 40.3067 198.274 34.5749V34.4262C198.383 34.1584 199.355 31.7884 200.317 31.1042C201.279 30.4199 203.847 31.1042 204.353 31.2827L218.484 35.5765L218.563 35.7947C219.684 38.7101 223.323 48.2895 223.194 49.3208C223.181 49.4166 223.146 49.5081 223.091 49.5874C223.036 49.6668 222.962 49.7318 222.877 49.7769C221.954 50.2926 215.836 47.6052 210.779 45.2153C200.287 50.1934 198.274 50.8479 197.758 50.8479ZM199.246 34.684C198.859 39.9695 198.333 47.6647 198.254 49.7571C200.099 49.1224 206.534 46.1277 210.59 44.184L210.798 44.0749L211.017 44.184C215.588 46.3458 220.695 48.5275 222.173 48.815C221.806 47.2482 219.733 41.5264 217.75 36.3401L204.075 32.1851C202.865 31.8082 201.318 31.5802 200.912 31.8677C200.186 32.6947 199.621 33.6498 199.246 34.684Z" fill="#263238"/>
<path d="M221.581 5.31136C218.048 2.4887 213.614 1.03773 209.096 1.22576C203.146 1.65217 195.868 3.58589 193.626 12.4512C191.385 21.3166 198.525 28.2582 201.56 29.4878C202.8 29.9113 203.996 30.456 205.13 31.1141C205.13 31.1141 203.702 32.1058 202.68 32.7503L201.689 33.3651C201.689 33.3651 202.908 41.2984 206.885 46.5243C208.574 48.6082 210.144 50.7868 211.585 53.0494C214.041 49.9723 215.562 46.2553 215.968 42.3396L219.439 34.5849C219.439 34.5849 224.338 34.7931 224.943 33.7717C225.548 32.7503 227.7 23.7759 227.7 23.7759C227.7 23.7759 230.555 21.4257 230.248 19.9977C229.941 18.5697 227.809 17.6475 227.194 16.9335C226.194 15.9263 225.505 14.6525 225.21 13.2644C224.566 10.3901 223.33 7.68161 221.581 5.31136Z" fill="white"/>
<path d="M211.485 53.9121L211.148 53.2874C209.716 51.0489 208.164 48.8905 206.497 46.8218C202.53 41.5859 201.251 33.7717 201.191 33.4345L201.142 33.1073L202.451 32.3437C203.016 32.0066 203.72 31.5306 204.216 31.1835C203.72 30.9455 202.857 30.5488 201.4 29.9638C198.117 28.6548 190.839 21.4851 193.149 12.3421C194.954 5.16258 200.17 1.36456 209.095 0.729905C213.735 0.52799 218.289 2.02265 221.907 4.9345L221.957 4.994C223.774 7.41949 225.061 10.2001 225.735 13.1553C225.976 14.4 226.564 15.5514 227.43 16.4773L227.569 16.636C227.838 16.8939 228.13 17.1262 228.442 17.3301C229.354 17.9648 230.485 18.7581 230.733 19.9183C231.06 21.4455 228.858 23.4585 228.144 24.0634C227.797 25.5311 225.973 33.0379 225.368 34.0494C224.763 35.0608 221.401 35.1699 219.755 35.1104L216.453 42.4883C216.035 46.4824 214.472 50.2706 211.951 53.3965L211.485 53.9121ZM202.233 33.613C202.51 35.1501 203.879 41.7743 207.28 46.2268C209.878 49.6183 211.088 51.3735 211.633 52.1767C213.765 49.2677 215.089 45.8464 215.471 42.2602V42.1115L219.081 34.0494H219.418C221.828 34.1485 224.237 33.8808 224.485 33.4742C225.551 30.2365 226.451 26.9465 227.183 23.6172V23.4585L227.302 23.3495C228.392 22.457 229.85 20.8406 229.691 20.0671C229.533 19.2936 228.561 18.6193 227.797 18.0838C227.411 17.8427 227.055 17.5564 226.736 17.231L226.597 17.0723C225.632 16.032 224.973 14.745 224.694 13.3536C224.057 10.5609 222.848 7.93051 221.143 5.62866C217.724 2.91442 213.448 1.50806 209.085 1.66206C203.7 2.0488 196.283 3.58586 194.032 12.5107C191.87 21.0587 198.633 27.7425 201.687 28.9622C202.972 29.4104 204.211 29.9816 205.386 30.6678L205.892 31.0843L205.366 31.4612C205.307 31.4612 203.908 32.4528 202.877 33.1172L202.233 33.613Z" fill="#263238"/>
<path d="M216.375 6.3228C218.715 5.00391 220.451 5.00391 221.601 5.33115C218.066 2.49681 213.623 1.03845 209.096 1.22572C203.146 1.65213 195.868 3.58585 193.626 12.4512C191.385 21.3166 198.525 28.2581 201.56 29.4878C202.8 29.9113 203.996 30.456 205.13 31.1141C207.371 30.6083 209.82 27.0384 209.82 27.0384C208.563 27.2068 207.288 27.1733 206.042 26.9392C204.515 26.5227 202.878 22.7544 204.614 20.2059C206.349 17.6574 208.799 19.7894 209.205 20.0968C209.691 20.2968 210.227 20.3421 210.74 20.2268C211.253 20.1115 211.717 19.841 212.071 19.4523C213.192 18.4606 213.499 15.2675 213.192 13.3239C212.884 11.3802 211.684 8.98042 216.375 6.3228Z" fill="#263238"/>
<path d="M205.029 31.6595L204.841 31.5008C203.74 30.8858 202.588 30.365 201.4 29.9439C198.117 28.6349 190.839 21.4653 193.149 12.3223C194.954 5.16258 200.17 1.36456 209.095 0.729905C213.735 0.52799 218.289 2.02265 221.907 4.9345L221.986 5.02375L222.839 6.1939L221.461 5.80716C220.629 5.64449 219.772 5.64837 218.942 5.81858C218.111 5.98879 217.323 6.32195 216.621 6.79881C212.804 8.9606 213.19 10.7654 213.557 12.59C213.617 12.8413 213.666 13.0892 213.706 13.3338C214.013 15.3171 213.706 18.6986 212.427 19.8985C211.984 20.3558 211.41 20.663 210.783 20.7769C210.157 20.8907 209.511 20.8055 208.936 20.5332L208.847 20.4637C208.194 19.8399 207.33 19.4857 206.427 19.4721C206.14 19.5264 205.869 19.6434 205.632 19.8149C205.396 19.9863 205.2 20.2079 205.059 20.4637C204.682 21.0766 204.456 21.77 204.399 22.487C204.342 23.2041 204.456 23.9245 204.732 24.589C204.834 24.9817 205.018 25.3486 205.271 25.6662C205.523 25.9838 205.84 26.2451 206.199 26.4335C207.38 26.6555 208.589 26.6856 209.779 26.5227L210.89 26.374L210.255 27.2962C210.156 27.4549 207.667 31.0347 205.297 31.5801L205.029 31.6595ZM210.235 1.68189C209.878 1.68189 209.531 1.68189 209.164 1.68189C203.78 2.06864 196.362 3.60569 194.111 12.5305C191.949 21.0786 198.712 27.7623 201.767 28.982C202.955 29.4275 204.114 29.9475 205.237 30.5389C206.556 30.1323 207.974 28.5556 208.777 27.564C207.827 27.6295 206.872 27.5594 205.941 27.3557C205.426 27.13 204.967 26.7921 204.598 26.3667C204.229 25.9413 203.96 25.439 203.809 24.8964C203.476 24.0848 203.341 23.2054 203.415 22.3311C203.489 21.4567 203.77 20.6127 204.236 19.8688C204.457 19.5049 204.753 19.1915 205.103 18.949C205.453 18.7064 205.85 18.54 206.269 18.4606C207.438 18.4074 208.582 18.8171 209.452 19.601C209.844 19.7584 210.275 19.7934 210.687 19.7014C211.099 19.6093 211.474 19.3946 211.762 19.0854C212.675 18.2524 213.032 15.3468 212.754 13.4032C212.754 13.1751 212.665 12.947 212.625 12.709C212.238 10.8745 211.713 8.36561 216.165 5.85674C217.295 5.17613 218.562 4.75605 219.874 4.62709C217 2.76181 213.661 1.74132 210.235 1.68189Z" fill="#263238"/>
<path d="M223.909 16.0012C224.078 16.8342 223.909 17.5581 223.602 17.6275C223.294 17.697 222.878 17.0722 222.709 16.2392C222.541 15.4062 222.709 14.6823 223.017 14.6228C223.324 14.5633 223.751 15.1782 223.909 16.0012Z" fill="#263238"/>
<path d="M221.601 13.6213L220.748 13.1156C221.127 12.4677 221.742 11.9915 222.464 11.7868C222.774 11.7323 223.093 11.7458 223.397 11.8263C223.702 11.9067 223.986 12.0523 224.229 12.2528L223.634 13.0462C223.498 12.9303 223.34 12.8448 223.169 12.7952C222.998 12.7456 222.818 12.7331 222.642 12.7586C222.205 12.9153 221.836 13.2206 221.601 13.6213Z" fill="#263238"/>
<path d="M225.14 26.2253C224.401 26.2328 223.675 26.0236 223.053 25.6236C222.431 25.2236 221.94 24.6502 221.64 23.9743L222.542 23.5677C222.787 24.1064 223.194 24.5554 223.705 24.8522C224.217 25.149 224.809 25.2789 225.398 25.2238L225.517 26.2154L225.14 26.2253Z" fill="#263238"/>
<path d="M219.436 34.5847L215.251 33.6723L217.601 37.8571L219.436 34.5847Z" fill="#263238"/>
<path d="M217.604 38.8687L214.282 32.9188L220.232 34.2179L217.604 38.8687ZM216.226 34.3865L217.604 36.8358L218.675 34.9319L216.226 34.3865Z" fill="#263238"/>
<path d="M195.052 8.36559C195.052 8.36559 189.102 3.77425 183.826 3.57592C178.551 3.37759 174.753 8.98041 173.117 13.4924C171.48 18.0044 163.626 18.0838 157.409 15.4757C151.191 12.8677 146.084 20.0968 146.62 26.7309C147.155 33.3651 160.909 38.363 168.148 35.8145C175.387 33.2659 179.473 19.3828 182.131 13.8792C184.788 8.37551 194.368 10.2001 194.368 10.2001L195.052 8.36559Z" fill="#263238"/>
<path d="M163.65 36.9747C159.112 36.919 154.677 35.619 150.828 33.2163C147.912 31.3223 146.276 29.0911 146.108 26.7706C145.77 22.4668 147.694 17.9251 150.768 15.7137C151.732 14.9804 152.876 14.5222 154.079 14.3877C155.282 14.2532 156.499 14.4476 157.601 14.9501C162.014 16.8243 167.002 17.2111 170.006 15.9418C170.605 15.7189 171.151 15.3723 171.607 14.9247C172.063 14.477 172.42 13.9383 172.654 13.3437C174.419 8.49448 178.415 2.92141 183.85 3.11974C189.284 3.31807 195.115 7.82016 195.363 8.01849L195.65 8.24657L194.659 10.805L194.252 10.7356C194.153 10.7356 185 9.02998 182.551 14.1271C182.015 15.2377 181.43 16.6756 180.746 18.3317C178.019 25.0352 174.27 34.1981 168.291 36.3202C166.79 36.7919 165.222 37.0131 163.65 36.9747ZM154.814 15.3468C153.562 15.365 152.347 15.778 151.343 16.5268C148.537 18.5101 146.782 22.7247 147.089 26.6913C147.248 28.6746 148.765 30.6579 151.373 32.3833C156.331 35.5864 163.57 36.8854 167.954 35.3583C173.517 33.375 177.315 24.0931 179.853 17.935C180.538 16.2492 181.123 14.8014 181.668 13.6709C184.167 8.49448 192.12 9.36713 194.044 9.7043L194.48 8.60357C193.231 7.69125 188.263 4.2998 183.84 4.13122C178.961 3.95273 175.262 9.16881 173.606 13.7006C173.327 14.4228 172.899 15.0784 172.351 15.6251C171.803 16.1717 171.146 16.5971 170.423 16.8739C167.18 18.2821 161.875 17.8656 157.234 15.8823C156.472 15.5401 155.649 15.3578 154.814 15.3468Z" fill="#263238"/>
<path d="M262.188 77.4935C262.188 77.4935 269.001 75.1334 271.48 73.8938C273.959 72.6543 279.026 74.0227 279.413 74.1417C279.8 74.2607 283.251 73.1501 283.251 74.1417C283.251 75.1334 282.884 75.2623 281.148 76.006C279.06 76.9445 277.103 78.1512 275.327 79.5958C274.703 80.3396 274.336 80.7065 275.446 80.7065C276.557 80.7065 282.388 78.7232 282.259 80.3396C282.13 81.9559 279.909 82.4419 278.173 82.9377C276.438 83.4335 277.43 84.0483 271.985 84.4252C268.401 84.5521 264.837 83.8318 261.583 82.3229L262.188 77.4935Z" fill="white"/>
<path d="M270.826 84.9605C267.546 84.8998 264.316 84.1497 261.345 82.7591L261.038 82.6004L261.742 77.1166L262.03 77.0174C262.099 77.0174 268.832 74.6672 271.252 73.4574C274.039 72.0691 279.513 73.6557 279.562 73.6756L280.336 73.5169C281.813 73.2293 282.904 73.0607 283.439 73.5169C283.533 73.5943 283.608 73.6913 283.659 73.801C283.711 73.9107 283.737 74.0304 283.737 74.1516C283.737 75.4407 283.132 75.6985 281.506 76.3927L281.327 76.472C279.313 77.3828 277.421 78.5421 275.695 79.923L275.605 80.032L275.447 80.2205C276.039 80.1433 276.625 80.0273 277.202 79.8734C279.78 79.2784 281.654 78.8817 282.418 79.566C282.533 79.6684 282.622 79.7961 282.679 79.9389C282.735 80.0818 282.758 80.2359 282.745 80.389C282.606 82.2236 280.435 82.8285 278.699 83.3144L278.303 83.4235C277.952 83.5119 277.617 83.6559 277.311 83.8499C276.627 84.2466 275.913 84.663 271.976 84.9308C271.569 84.901 271.212 84.9605 270.826 84.9605ZM262.109 81.9856C265.198 83.3563 268.559 84.0074 271.936 83.8896C275.635 83.6416 276.25 83.2847 276.845 82.8979C277.213 82.6728 277.61 82.4993 278.025 82.3822L278.432 82.2732C279.949 81.8468 281.664 81.3608 281.754 80.2205C281.367 79.8436 278.501 80.508 277.43 80.7559C276.781 80.9374 276.118 81.0602 275.447 81.1229C275.12 81.1229 274.515 81.1229 274.296 80.6667C274.078 80.2105 274.425 79.8139 274.852 79.3081L274.941 79.1991C276.768 77.6923 278.789 76.4381 280.95 75.4704L281.129 75.3911C282.656 74.7366 282.745 74.6672 282.755 74.1714C282.007 74.1511 281.26 74.2311 280.534 74.4094C280.123 74.5477 279.685 74.5917 279.255 74.5383C278.62 74.3201 273.9 73.1698 271.708 74.2606C269.517 75.3514 263.993 77.305 262.654 77.781L262.109 81.9856Z" fill="#263238"/>
<path d="M272.947 76.6904L272.48 75.8177L273.839 75.074C275.609 74.3998 277.448 73.9242 279.323 73.6559L279.482 74.6476C277.716 74.8879 275.982 75.3271 274.315 75.9566L272.947 76.6904Z" fill="#263238"/>
<path d="M271.103 74.8855C271.103 74.8855 272.59 74.3897 274.692 73.6459L271.103 74.8855Z" fill="white"/>
<path d="M271.261 75.3615L270.943 74.4194C270.943 74.4194 272.431 73.9236 274.533 73.1799L274.86 74.1219C272.748 74.8657 271.261 75.3615 271.261 75.3615Z" fill="#263238"/>
</svg>
