<svg width="411" height="404" viewBox="0 0 411 404" fill="none" xmlns="http://www.w3.org/2000/svg">
<path d="M205.5 403.878C318.994 403.878 411 398.507 411 391.88C411 385.254 318.994 379.882 205.5 379.882C92.0055 379.882 0 385.254 0 391.88C0 398.507 92.0055 403.878 205.5 403.878Z" fill="#F5F5F5" fill-opacity="0.13"/>
<path d="M108.957 98.2729C100.341 97.0646 92.9215 120.435 100.341 126.084C107.76 131.733 124.336 134.775 139.143 128.204C149.922 123.445 147.961 112.581 140.468 100.477C134.426 90.7583 121.167 80.4669 108.957 98.2729Z" fill="#263238"/>
<path d="M146.252 149.603C146.739 155.464 147.099 161.346 147.417 167.218C147.735 173.09 148 178.983 148.234 184.865L148.064 183.953C147.992 183.696 147.866 183.458 147.693 183.254C147.913 183.471 148.151 183.669 148.403 183.847C149.148 184.371 149.927 184.846 150.735 185.268C152.462 186.179 154.36 187.07 156.289 187.886C158.218 188.702 160.189 189.528 162.171 190.334L168.138 192.719L166.983 197.297C164.757 197.022 162.605 196.619 160.422 196.237C158.239 195.856 156.087 195.294 153.925 194.711C151.709 194.123 149.526 193.415 147.386 192.591C146.211 192.133 145.07 191.591 143.973 190.97C143.291 190.596 142.649 190.156 142.054 189.656C141.668 189.314 141.313 188.938 140.995 188.532C140.471 187.91 140.078 187.189 139.839 186.412L139.733 186.073L139.67 185.501C139.087 179.64 138.504 173.768 138.048 167.896C137.592 162.025 137.094 156.142 136.766 150.26L146.252 149.603Z" fill="#B65B52"/>
<path d="M145.583 141.717C147.64 146.201 148.763 158.188 149.028 175.347C145.236 176.23 141.702 177.982 138.705 180.467L134.062 153.514L136.638 149.03C137.324 147.114 138.519 145.42 140.095 144.132C141.671 142.843 143.569 142.009 145.583 141.717Z" fill="#FD7350"/>
<path opacity="0.1" d="M145.583 141.717C147.64 146.201 148.763 158.188 149.028 175.347C145.236 176.23 141.702 177.982 138.705 180.467L134.062 153.514L136.638 149.03C137.324 147.114 138.519 145.42 140.095 144.132C141.671 142.843 143.569 142.009 145.583 141.717Z" fill="white"/>
<path d="M166.39 192.114L175.219 191.648L169.845 198.749C169.845 198.749 164.281 197.944 163.041 194.51L166.39 192.114Z" fill="#B55B52"/>
<path d="M179.277 198.209L177.761 200C177.376 200.459 176.854 200.781 176.271 200.918C175.689 201.056 175.078 201.001 174.528 200.763L169.844 198.749L175.217 191.648L178.747 194.128C179.065 194.349 179.333 194.635 179.535 194.966C179.736 195.297 179.866 195.667 179.916 196.051C179.966 196.435 179.935 196.826 179.825 197.198C179.715 197.569 179.528 197.914 179.277 198.209Z" fill="#B55B52"/>
<path d="M145.171 144.547C145.319 150.907 144.429 164.102 139.956 191.553H104.387C104.98 177.075 105.691 168.002 98.7695 138.283C103.522 137.315 108.34 136.699 113.184 136.439C118.561 136.057 123.959 136.057 129.336 136.439C132.823 136.757 136.533 137.319 139.374 137.806C140.972 138.082 142.425 138.905 143.483 140.135C144.541 141.365 145.138 142.925 145.171 144.547Z" fill="#263238"/>
<path d="M118.314 154.574C118.28 154.576 118.246 154.57 118.215 154.557C118.184 154.545 118.156 154.525 118.134 154.5C115.389 151.394 110.46 143.254 110.396 138.061C110.396 137.996 110.422 137.934 110.468 137.888C110.514 137.843 110.576 137.817 110.64 137.817C110.673 137.816 110.706 137.821 110.737 137.832C110.768 137.844 110.796 137.862 110.82 137.885C110.843 137.907 110.862 137.935 110.875 137.965C110.888 137.995 110.895 138.028 110.895 138.061C110.895 142.597 115.23 150.334 118.314 153.959C119.982 151.649 122.054 149.66 124.429 148.087C124.456 148.07 124.487 148.058 124.518 148.052C124.55 148.046 124.583 148.046 124.614 148.053C124.646 148.06 124.676 148.073 124.702 148.092C124.729 148.11 124.751 148.134 124.768 148.161C124.802 148.216 124.815 148.281 124.803 148.343C124.791 148.406 124.756 148.462 124.705 148.501C122.3 150.1 120.216 152.135 118.558 154.5C118.54 154.535 118.512 154.564 118.479 154.585C118.445 154.606 118.406 154.616 118.367 154.616L118.314 154.574Z" fill="white"/>
<path d="M132.983 154.574C132.944 154.573 132.906 154.562 132.872 154.541C132.839 154.521 132.811 154.492 132.793 154.457C131.141 152.091 129.059 150.056 126.656 148.458C126.601 148.423 126.563 148.368 126.549 148.304C126.535 148.24 126.547 148.174 126.582 148.119C126.617 148.064 126.672 148.026 126.736 148.012C126.8 147.998 126.866 148.01 126.921 148.045C129.296 149.618 131.368 151.607 133.036 153.917C135.782 150.377 134.987 142.258 133.153 137.912C133.139 137.883 133.131 137.85 133.13 137.817C133.129 137.784 133.135 137.752 133.146 137.721C133.158 137.69 133.176 137.662 133.199 137.639C133.222 137.615 133.25 137.596 133.28 137.584C133.342 137.559 133.411 137.56 133.473 137.586C133.534 137.611 133.583 137.66 133.609 137.722C135.538 142.343 136.322 150.959 133.195 154.499C133.168 154.527 133.135 154.548 133.098 154.561C133.061 154.574 133.022 154.578 132.983 154.574Z" fill="white"/>
<path d="M114.786 118.251C115.846 123.445 116.821 132.973 113.186 136.439C116.135 141.209 120.521 144.919 125.713 147.038C132.666 142.682 129.338 136.439 129.338 136.439C123.541 135.051 123.7 130.758 124.706 126.72L114.786 118.251Z" fill="#B55B52"/>
<path opacity="0.2" d="M118.833 121.707L124.694 126.709C124.452 127.652 124.286 128.612 124.196 129.582C121.992 129.264 118.95 126.826 118.706 124.505C118.576 123.572 118.619 122.624 118.833 121.707Z" fill="black"/>
<path d="M109.307 108.713C111.342 117.192 112.031 120.785 117.118 124.41C124.781 129.857 134.712 125.469 135.242 116.609C135.719 108.607 132.306 96.1319 123.34 94.2135C121.365 93.7812 119.312 93.8609 117.377 94.4451C115.441 95.0292 113.687 96.0984 112.281 97.5511C110.875 99.0038 109.864 100.792 109.343 102.745C108.823 104.699 108.81 106.753 109.307 108.713Z" fill="#B55B52"/>
<path d="M109.539 99.5448C114.838 102.502 132.803 101.442 130.133 96.0471C127.462 90.6524 116.068 91.9878 109.539 99.5448Z" fill="#263238"/>
<path d="M113.513 99.2797C118.145 105.862 116.82 114.934 106.486 114.966C96.1526 114.998 103.402 96.9797 113.513 99.2797Z" fill="#263238"/>
<path d="M121.164 114.998L130.703 116.28C130.703 116.28 129.484 119.025 125.022 118.4C121.334 117.775 121.164 114.998 121.164 114.998Z" fill="white"/>
<path d="M139.958 191.553C139.958 191.553 136.959 257.509 136.386 284.218C135.782 312.008 135.517 376.894 135.517 376.894H128.511C128.511 376.894 117.319 322.967 120.636 284.218C115.623 254.467 112.242 191.553 112.242 191.553H139.958Z" fill="#B55B52"/>
<path d="M130.662 191.553C130.662 191.553 115.824 260.244 108.723 285.988C103.423 305.31 66.497 360.264 66.232 362.299L60.6465 359.226C60.6465 359.226 82.2256 299.109 91.8387 282.035C91.8387 251.86 104.388 191.595 104.388 191.595L130.662 191.553Z" fill="#B55B52"/>
<path d="M123.942 108.639C124.069 109.338 124.536 109.836 125.002 109.698C125.468 109.561 125.723 108.988 125.606 108.299C125.49 107.611 125.013 107.102 124.546 107.187C124.08 107.271 123.826 107.939 123.942 108.639Z" fill="#263238"/>
<path d="M131.807 107.239C131.935 107.928 132.401 108.437 132.867 108.299C133.334 108.162 133.588 107.589 133.471 106.89C133.355 106.19 132.878 105.703 132.412 105.777C131.945 105.851 131.691 106.519 131.807 107.239Z" fill="#263238"/>
<path d="M132.219 105.904L133.798 105.13C133.798 105.13 133.173 106.582 132.219 105.904Z" fill="#263238"/>
<path d="M129.264 108.49C130.169 109.964 131.271 111.308 132.539 112.486C132.227 112.801 131.85 113.045 131.435 113.201C131.019 113.356 130.575 113.42 130.133 113.387L129.264 108.49Z" fill="#A02724"/>
<path d="M108.121 113.535C108.771 115.087 110.009 116.318 111.565 116.959C113.632 117.785 114.914 115.994 114.543 113.917C114.204 112.051 112.731 109.359 110.558 109.412C110.083 109.434 109.621 109.573 109.214 109.818C108.807 110.063 108.466 110.405 108.225 110.814C107.983 111.224 107.846 111.687 107.828 112.162C107.81 112.637 107.911 113.109 108.121 113.535Z" fill="#B55B52"/>
<path d="M120.317 105.3C120.425 105.269 120.519 105.202 120.582 105.109C120.843 104.657 121.208 104.273 121.647 103.989C122.085 103.705 122.585 103.53 123.105 103.477C123.214 103.471 123.316 103.424 123.391 103.345C123.466 103.266 123.508 103.162 123.508 103.053C123.506 102.998 123.494 102.943 123.471 102.893C123.448 102.843 123.416 102.797 123.375 102.76C123.335 102.722 123.287 102.693 123.235 102.674C123.183 102.655 123.128 102.647 123.073 102.65C122.419 102.706 121.788 102.92 121.235 103.272C120.681 103.625 120.221 104.106 119.893 104.674C119.864 104.72 119.844 104.772 119.834 104.825C119.825 104.879 119.826 104.934 119.838 104.987C119.85 105.04 119.872 105.091 119.903 105.135C119.935 105.18 119.975 105.218 120.021 105.247C120.111 105.298 120.215 105.316 120.317 105.3Z" fill="#263238"/>
<path d="M133.427 103.085C133.479 103.08 133.529 103.064 133.575 103.039C133.621 103.013 133.66 102.978 133.692 102.936C133.726 102.894 133.751 102.845 133.767 102.793C133.782 102.741 133.787 102.686 133.781 102.632C133.775 102.577 133.759 102.525 133.732 102.477C133.706 102.429 133.671 102.387 133.628 102.353C133.122 101.931 132.522 101.636 131.879 101.492C131.235 101.348 130.567 101.36 129.929 101.527C129.839 101.573 129.769 101.65 129.731 101.744C129.692 101.837 129.689 101.942 129.721 102.038C129.753 102.134 129.818 102.215 129.905 102.267C129.992 102.319 130.094 102.338 130.194 102.321C130.699 102.196 131.226 102.192 131.733 102.31C132.24 102.427 132.711 102.664 133.109 103C133.2 103.068 133.314 103.098 133.427 103.085Z" fill="#263238"/>
<path d="M124.355 107.303L125.935 106.519C125.935 106.519 125.309 107.981 124.355 107.303Z" fill="#263238"/>
<path d="M140.466 196.29L138.876 284.26C138.876 284.26 127.821 286.242 114.795 279.512C107.065 275.49 98.3441 273.769 89.6656 274.552C86.8145 221.261 96.1308 204.505 103.274 196.333L140.466 196.29Z" fill="#263238"/>
<path opacity="0.2" d="M133.693 251.425L113.969 236.831L107.535 224.95L133.693 251.425Z" fill="black"/>
<path d="M141.983 186.126L140.668 198.463C131.235 199.597 117.521 199.184 102.947 198.463L104.103 186.126C117.817 186.593 130.864 186.762 141.983 186.126Z" fill="white"/>
<path d="M112.231 135.761C112.231 135.761 112.506 204.653 109.221 221.314C103.794 216.216 96.3008 204.356 96.3008 204.356C96.3008 204.356 100.54 190.906 101.717 187.695C101.06 182.851 95.6331 142.661 96.4174 138.474C101.876 136.577 112.231 135.761 112.231 135.761Z" fill="#FD7350"/>
<path opacity="0.2" d="M112.231 135.761C112.231 135.761 112.506 204.653 109.221 221.314C103.794 216.216 96.3008 204.356 96.3008 204.356C96.3008 204.356 100.54 190.906 101.717 187.695C101.06 182.851 95.6331 142.661 96.4174 138.474C101.876 136.577 112.231 135.761 112.231 135.761Z" fill="white"/>
<path d="M100.476 148.978C97.7624 152.655 95.0279 156.513 92.4206 160.339C89.8133 164.166 87.2696 168.055 85.0014 171.998C84.4397 172.984 83.9415 173.97 83.401 174.955C83.1254 175.443 82.8817 175.941 82.6591 176.428L82.0126 177.774C82.0126 177.616 82.0126 177.414 82.0126 177.414C82.0126 177.414 82.0126 177.573 82.0126 177.817C82.3391 178.54 82.7752 179.209 83.3056 179.799C84.7164 181.396 86.2703 182.862 87.9479 184.176C89.6861 185.586 91.5833 186.995 93.4063 188.288L91.3607 192.528C88.9816 191.728 86.6647 190.754 84.4291 189.613C82.0705 188.427 79.8611 186.965 77.8472 185.257C76.6322 184.224 75.594 183 74.7736 181.632C74.2295 180.727 73.8492 179.734 73.6501 178.697C73.4077 177.406 73.4989 176.074 73.9151 174.828L73.9999 174.595V174.468L74.0953 174.235L74.2754 173.789L74.6358 172.899C74.869 172.284 75.1127 171.701 75.3777 171.129C75.8971 169.974 76.4376 168.829 76.9993 167.737C79.2349 163.364 81.7118 159.118 84.4185 155.019C85.7327 152.984 87.1 150.981 88.499 149.009C89.8981 147.038 91.3077 145.098 92.8445 143.138L100.476 148.978Z" fill="#B65B52"/>
<path d="M92.3389 187.843L101.782 187.133L96.5678 194.351C96.5678 194.351 90.9822 193.662 89.668 190.27L92.3389 187.843Z" fill="#B55B52"/>
<path d="M105.872 193.715L104.494 195.411C104.112 195.886 103.59 196.228 103.002 196.39C102.414 196.552 101.79 196.524 101.219 196.312L96.5449 194.351L101.76 187.133L105.225 189.454C105.561 189.68 105.847 189.974 106.064 190.316C106.281 190.658 106.424 191.042 106.485 191.442C106.545 191.843 106.522 192.252 106.417 192.643C106.311 193.034 106.126 193.399 105.872 193.715Z" fill="#B55B52"/>
<path d="M132.178 135.761C132.178 135.761 136.163 163.148 136.884 185.066C137.318 198.219 134.923 214.955 135.198 221.314C138.675 217.843 141.365 213.664 143.084 209.062C143.084 209.062 144.695 203.317 142.702 187.695C143.243 183.752 145.628 156.683 146.094 144.505C146.157 142.901 145.664 141.324 144.699 140.041C143.733 138.759 142.354 137.849 140.795 137.467C136.364 136.418 132.178 135.761 132.178 135.761Z" fill="#FD7350"/>
<g opacity="0.2">
<path d="M132.176 135.761C132.176 135.761 136.161 163.148 136.882 185.066C137.316 198.219 134.921 214.955 135.196 221.314C138.673 217.843 141.363 213.664 143.082 209.062C143.082 209.062 144.693 203.317 142.7 187.695C143.241 183.752 145.626 156.683 146.092 144.505C146.155 142.901 145.662 141.324 144.697 140.041C143.731 138.759 142.352 137.849 140.793 137.467C136.362 136.418 132.176 135.761 132.176 135.761Z" fill="white"/>
</g>
<path d="M126.262 153.334C125.881 153.334 125.478 152.825 125.319 152.083C125.149 151.299 125.319 150.631 125.743 150.546C126.167 150.461 126.633 151.002 126.803 151.786C126.928 152.225 126.883 152.694 126.676 153.1C126.599 153.217 126.482 153.3 126.347 153.334H126.262ZM125.563 152.03C125.711 152.708 126.082 153.09 126.305 153.09C126.34 153.081 126.373 153.066 126.403 153.044C126.432 153.022 126.456 152.994 126.474 152.963C126.633 152.61 126.663 152.212 126.559 151.839C126.421 151.171 126.04 150.779 125.796 150.779C125.552 150.779 125.414 151.352 125.563 152.019V152.03Z" fill="white"/>
<path d="M127.387 160.774C126.974 160.774 126.613 160.212 126.528 159.449C126.444 158.686 126.687 158.029 127.111 157.976C127.183 157.971 127.254 157.981 127.322 158.005C127.389 158.028 127.451 158.065 127.504 158.114C127.818 158.432 128.006 158.854 128.033 159.301C128.107 159.743 128.013 160.197 127.769 160.572C127.727 160.628 127.674 160.674 127.614 160.709C127.554 160.743 127.488 160.765 127.419 160.774H127.387ZM127.164 158.22C126.921 158.22 126.719 158.728 126.793 159.407C126.868 160.085 127.164 160.467 127.408 160.467C127.444 160.463 127.479 160.451 127.51 160.433C127.541 160.415 127.568 160.39 127.588 160.361C127.783 160.044 127.858 159.668 127.8 159.301C127.79 158.904 127.631 158.526 127.355 158.241C127.295 158.214 127.229 158.206 127.164 158.22Z" fill="white"/>
<path d="M127.725 168.172C127.301 168.172 126.983 167.557 126.973 166.784C126.973 165.999 127.28 165.406 127.704 165.395C127.774 165.396 127.844 165.411 127.908 165.44C127.972 165.469 128.029 165.512 128.075 165.565C128.361 165.905 128.508 166.34 128.488 166.784C128.514 167.216 128.386 167.644 128.128 167.992C128.076 168.048 128.014 168.092 127.945 168.123C127.876 168.154 127.801 168.171 127.725 168.172ZM127.206 166.784C127.206 167.451 127.481 167.918 127.725 167.928C127.8 167.918 127.868 167.881 127.916 167.822C128.15 167.521 128.26 167.142 128.223 166.762C128.252 166.38 128.134 166.002 127.895 165.702C127.871 165.675 127.842 165.652 127.809 165.636C127.776 165.619 127.741 165.61 127.704 165.607C127.471 165.607 127.216 166.073 127.216 166.741L127.206 166.784Z" fill="white"/>
<path d="M127.323 175.464H127.259C126.846 175.411 126.581 174.796 126.655 174.033C126.729 173.259 127.111 172.698 127.524 172.74C127.665 172.76 127.794 172.832 127.884 172.941C128.121 173.309 128.219 173.748 128.16 174.181C128.139 174.616 127.958 175.028 127.651 175.337C127.559 175.415 127.443 175.459 127.323 175.464ZM126.899 174.054C126.835 174.711 127.058 175.188 127.291 175.22C127.329 175.223 127.368 175.217 127.405 175.205C127.441 175.192 127.474 175.172 127.503 175.146C127.753 174.877 127.9 174.527 127.916 174.16C127.965 173.792 127.886 173.418 127.694 173.1C127.646 173.04 127.579 172.998 127.503 172.984C127.27 172.984 126.984 173.408 126.92 174.044L126.899 174.054Z" fill="white"/>
<path d="M126.677 182.629C126.254 182.576 125.999 181.961 126.073 181.198C126.137 180.456 126.497 179.915 126.9 179.915C126.971 179.923 127.039 179.945 127.101 179.98C127.163 180.014 127.217 180.061 127.26 180.117C127.5 180.479 127.595 180.918 127.525 181.346C127.513 181.778 127.335 182.188 127.027 182.491C126.931 182.577 126.807 182.626 126.677 182.629ZM126.847 180.17C126.614 180.17 126.328 180.583 126.264 181.23C126.201 181.887 126.413 182.364 126.656 182.396C126.735 182.396 126.811 182.365 126.868 182.311C127.117 182.045 127.26 181.699 127.271 181.336C127.333 180.968 127.258 180.591 127.059 180.276C127.037 180.244 127.009 180.217 126.976 180.197C126.943 180.177 126.906 180.164 126.868 180.159L126.847 180.17Z" fill="white"/>
<path opacity="0.2" d="M100.338 153.673C99.959 156.217 99.2795 158.708 98.314 161.092C98.102 159.28 97.89 157.467 97.6992 155.729L100.338 153.673Z" fill="black"/>
<path d="M96.3316 138.474C92.3888 141.431 84.4715 153.62 76.0879 168.585C78.8291 170.853 81.4438 173.27 83.9204 175.824L100.878 154.33L100.751 149.158C101.059 147.143 100.81 145.083 100.031 143.2C99.252 141.316 97.9727 139.682 96.3316 138.474Z" fill="#FD7350"/>
<path opacity="0.2" d="M96.3316 138.474C92.3888 141.431 84.4715 153.62 76.0879 168.585C78.8291 170.853 81.4438 173.27 83.9204 175.824L100.878 154.33L100.751 149.158C101.059 147.143 100.81 145.083 100.031 143.2C99.252 141.316 97.9727 139.682 96.3316 138.474Z" fill="white"/>
<path d="M135.547 370.513C136.787 380.9 143.412 388.934 143.412 388.934L132.633 386.168L127.715 378.441L128.775 376.406L135.547 370.513Z" fill="#B55B52"/>
<path d="M127.28 375.824C126.858 376.721 126.655 377.705 126.687 378.696C126.75 382.289 127.153 391.838 127.153 391.838H128.001C127.991 388.9 128.14 385.964 128.446 383.041C128.86 380.667 130.566 383.476 131.477 386.157C132.389 388.839 136.194 391.711 141.674 391.838C148.096 391.997 150.704 391.711 148.838 390.153C146.973 388.595 142.712 387.599 142.712 387.599C140.969 387.552 139.269 387.048 137.781 386.139C136.293 385.229 135.07 383.946 134.233 382.416C132.325 378.971 129.994 375.548 128.414 374.743C128.155 374.823 127.917 374.962 127.72 375.15C127.524 375.337 127.373 375.568 127.28 375.824Z" fill="#263238"/>
<path d="M67.4086 360.052C64.4516 367.334 64.1124 378.367 64.1124 378.367L57.1172 368.076L58.4738 359.024L60.5936 358.198L67.4086 360.052Z" fill="#B55B52"/>
<path d="M59.8722 356.767C58.9676 357.162 58.1715 357.769 57.5511 358.537C55.23 361.292 49.2734 368.765 49.2734 368.765L49.9094 369.316C51.8336 367.089 53.875 364.966 56.0249 362.956C57.8903 361.441 57.3179 364.663 56.258 367.302C55.1982 369.941 56.1733 374.583 60.222 378.282C64.9597 382.617 67.1112 384.112 66.7297 381.716C66.3481 379.321 63.7938 375.728 63.7938 375.728C62.52 374.548 61.5762 373.057 61.0557 371.4C60.5352 369.744 60.4561 367.981 60.8261 366.284C61.6422 362.426 62.151 358.325 61.4727 356.671C61.217 356.561 60.939 356.512 60.6611 356.529C60.3832 356.545 60.113 356.627 59.8722 356.767Z" fill="#263238"/>
<path d="M176.883 198.336H341.366C345.948 198.406 350.34 200.183 353.682 203.319C357.024 206.455 359.076 210.725 359.437 215.294L365.902 316.343C366.063 318.521 365.771 320.71 365.043 322.77C364.315 324.83 363.168 326.716 361.674 328.31C360.18 329.904 358.371 331.17 356.362 332.029C354.354 332.889 352.188 333.321 350.004 333.301H185.468C180.896 333.215 176.519 331.432 173.188 328.297C169.858 325.163 167.813 320.902 167.45 316.343L160.985 215.315C160.819 213.134 161.108 210.943 161.834 208.879C162.56 206.816 163.706 204.927 165.201 203.33C166.696 201.733 168.506 200.465 170.517 199.605C172.528 198.746 174.696 198.313 176.883 198.336Z" fill="#FD7350"/>
<path opacity="0.3" d="M176.883 198.336H341.366C345.948 198.406 350.34 200.183 353.682 203.319C357.024 206.455 359.076 210.725 359.437 215.294L365.902 316.343C366.063 318.521 365.771 320.71 365.043 322.77C364.315 324.83 363.168 326.716 361.674 328.31C360.18 329.904 358.371 331.17 356.362 332.029C354.354 332.889 352.188 333.321 350.004 333.301H185.468C180.896 333.215 176.519 331.432 173.188 328.297C169.858 325.163 167.813 320.902 167.45 316.343L160.985 215.315C160.819 213.134 161.108 210.943 161.834 208.879C162.56 206.816 163.706 204.927 165.201 203.33C166.696 201.733 168.506 200.465 170.517 199.605C172.528 198.746 174.696 198.313 176.883 198.336Z" fill="white"/>
<path d="M185.479 333.333H349.993C354.031 333.369 357.929 331.851 360.878 329.093L262.5 251.51L174.021 329.093C177.22 331.815 181.279 333.317 185.479 333.333Z" fill="#FD7350"/>
<path opacity="0.5" d="M185.479 333.333H349.993C354.031 333.369 357.929 331.851 360.878 329.093L262.5 251.51L174.021 329.093C177.22 331.815 181.279 333.317 185.479 333.333Z" fill="white"/>
<path d="M264.069 276.099L350.099 200.668C347.443 199.135 344.433 198.323 341.366 198.315H176.883C173.893 198.294 170.956 199.109 168.404 200.668L264.069 276.099Z" fill="#FD7350"/>
<path d="M323.251 198.728L317.518 108.956C317.337 106.497 316.241 104.195 314.445 102.505C312.649 100.816 310.285 99.8611 307.82 99.8306H179.574C182.04 99.8633 184.404 100.818 186.201 102.507C187.998 104.196 189.098 106.497 189.283 108.956L194.974 197.986" fill="white"/>
<path d="M323.252 200.032C322.912 200.032 322.585 199.903 322.337 199.671C322.089 199.439 321.939 199.12 321.917 198.781L316.183 109.009C316.029 106.889 315.084 104.903 313.535 103.447C311.986 101.99 309.947 101.169 307.821 101.145H186.698C187.83 102.102 188.759 103.275 189.431 104.597C190.103 105.918 190.503 107.361 190.609 108.84L196.3 197.87C196.323 198.052 196.309 198.237 196.257 198.414C196.206 198.59 196.119 198.754 196.002 198.896C195.885 199.038 195.74 199.154 195.576 199.237C195.412 199.321 195.233 199.37 195.05 199.382C194.866 199.393 194.682 199.367 194.509 199.305C194.336 199.243 194.178 199.146 194.044 199.02C193.91 198.894 193.803 198.742 193.73 198.574C193.657 198.405 193.619 198.223 193.619 198.039L187.938 109.009C187.783 106.887 186.837 104.9 185.286 103.443C183.735 101.986 181.692 101.166 179.565 101.145C179.23 101.115 178.918 100.961 178.691 100.713C178.464 100.465 178.338 100.141 178.338 99.8043C178.338 99.4679 178.464 99.1438 178.691 98.8957C178.918 98.6475 179.23 98.4933 179.565 98.4635H307.81C310.624 98.4874 313.326 99.5671 315.381 101.489C317.436 103.411 318.694 106.034 318.907 108.84L324.651 198.612C324.672 198.967 324.55 199.316 324.314 199.582C324.078 199.848 323.746 200.01 323.39 200.032H323.252Z" fill="#FD7350"/>
<path d="M179.565 99.7989C178.39 99.7867 177.225 100.019 176.144 100.481C175.063 100.943 174.09 101.625 173.287 102.483C172.484 103.341 171.868 104.357 171.478 105.466C171.088 106.575 170.933 107.752 171.023 108.924H189.274C189.089 106.465 187.989 104.165 186.192 102.476C184.396 100.787 182.031 99.8317 179.565 99.7989Z" fill="#FD7350"/>
<path d="M189.274 110.27H171.023C170.681 110.271 170.352 110.141 170.104 109.906C169.855 109.671 169.706 109.35 169.687 109.009C169.583 107.654 169.761 106.292 170.212 105.01C170.662 103.728 171.375 102.553 172.304 101.561C173.233 100.569 174.359 99.7815 175.609 99.2482C176.859 98.7149 178.206 98.4476 179.565 98.4634C182.378 98.4897 185.079 99.5702 187.133 101.491C189.188 103.413 190.447 106.035 190.662 108.84C190.673 109.023 190.646 109.207 190.585 109.38C190.523 109.553 190.426 109.712 190.302 109.847C190.169 109.985 190.009 110.094 189.832 110.167C189.655 110.24 189.465 110.275 189.274 110.27ZM172.379 107.578H187.716C187.264 105.752 186.219 104.128 184.743 102.962C183.268 101.795 181.446 101.152 179.565 101.134C177.775 101.1 176.037 101.746 174.704 102.942C173.371 104.138 172.54 105.795 172.379 107.578Z" fill="#FD7350"/>
<path d="M307.82 99.799H179.574C182.04 99.8317 184.404 100.787 186.201 102.476C187.998 104.165 189.098 106.465 189.283 108.925L196.564 222.872L264.068 276.099L324.841 223.572L317.518 108.903C317.332 106.448 316.234 104.151 314.438 102.466C312.643 100.781 310.282 99.8291 307.82 99.799Z" fill="white"/>
<path opacity="0.3" d="M196.553 222.872L264.056 276.12L324.841 223.593L259.245 266.91L196.553 222.872Z" fill="#FD7350"/>
<path opacity="0.3" d="M310.939 171.913H203.902L203.361 163.572H310.409L310.939 171.913Z" fill="#FD7350"/>
<path opacity="0.3" d="M288.891 197.763H205.542L205.012 189.422H288.361L288.891 197.763Z" fill="#FD7350"/>
<path opacity="0.3" d="M314.243 223.614H251.329L250.799 215.262H313.713L314.243 223.614Z" fill="#FD7350"/>
<path opacity="0.3" d="M207.196 223.614H240.879L240.338 215.262H206.666L207.196 223.614Z" fill="#FD7350"/>
<g opacity="0.5">
<path d="M202.372 133.164L201.916 126.084H205.573C206.098 126.066 206.623 126.127 207.131 126.264C207.493 126.376 207.812 126.598 208.042 126.9C208.283 127.238 208.42 127.64 208.434 128.055C208.476 128.389 208.421 128.728 208.274 129.031C208.127 129.334 207.896 129.588 207.608 129.762C207.374 129.898 207.12 129.995 206.855 130.048C207.061 130.104 207.257 130.19 207.438 130.302C207.718 130.533 207.958 130.809 208.148 131.118L209.346 133.164H206.866L205.562 131.044C205.45 130.84 205.303 130.657 205.127 130.503C204.966 130.391 204.773 130.332 204.576 130.334H204.439L204.629 133.206L202.372 133.164ZM204.301 128.924H205.223C205.416 128.911 205.608 128.879 205.795 128.829C205.936 128.802 206.061 128.722 206.145 128.606C206.225 128.484 206.262 128.339 206.251 128.193C206.25 128.091 206.227 127.991 206.183 127.899C206.139 127.808 206.075 127.727 205.997 127.663C205.746 127.519 205.457 127.456 205.17 127.483H204.205L204.301 128.924Z" fill="#FD7350"/>
<path d="M209.578 126.084H215.45L215.545 127.599H211.857L211.92 128.723H215.333L215.418 130.164H212.016L212.101 131.563H215.884L215.99 133.164H210.013L209.578 126.084Z" fill="#FD7350"/>
<path d="M221.715 130.27L223.676 130.853C223.6 131.335 223.419 131.795 223.146 132.199C222.905 132.558 222.567 132.841 222.171 133.015C221.68 133.215 221.153 133.308 220.624 133.291C219.971 133.312 219.321 133.196 218.716 132.952C218.167 132.693 217.7 132.285 217.37 131.775C216.967 131.139 216.737 130.408 216.702 129.656C216.635 129.177 216.667 128.689 216.799 128.224C216.93 127.758 217.157 127.326 217.465 126.953C217.804 126.62 218.21 126.364 218.656 126.201C219.102 126.039 219.578 125.973 220.052 126.01C220.796 125.977 221.534 126.165 222.171 126.55C222.744 126.966 223.177 127.546 223.411 128.214L221.514 128.638C221.453 128.473 221.372 128.316 221.27 128.172C221.14 128.01 220.977 127.876 220.793 127.78C220.605 127.689 220.398 127.642 220.189 127.642C219.975 127.638 219.763 127.693 219.577 127.799C219.39 127.905 219.236 128.06 219.129 128.246C218.924 128.678 218.85 129.161 218.917 129.634C218.901 130.21 219.064 130.777 219.384 131.256C219.516 131.404 219.68 131.521 219.863 131.596C220.047 131.671 220.246 131.704 220.444 131.691C220.615 131.705 220.788 131.681 220.949 131.62C221.111 131.56 221.256 131.464 221.376 131.341C221.584 131.021 221.701 130.651 221.715 130.27Z" fill="#FD7350"/>
<path d="M224.388 129.634C224.324 129.153 224.361 128.664 224.498 128.198C224.635 127.733 224.868 127.301 225.183 126.932C225.528 126.594 225.941 126.334 226.394 126.167C226.847 126.001 227.33 125.933 227.812 125.967C228.827 125.912 229.826 126.25 230.599 126.91C231.306 127.617 231.709 128.571 231.723 129.571C231.796 130.262 231.697 130.961 231.437 131.606C231.198 132.128 230.801 132.562 230.302 132.846C229.707 133.163 229.037 133.317 228.363 133.291C227.675 133.312 226.991 133.182 226.36 132.909C225.803 132.642 225.333 132.223 225.003 131.701C224.623 131.077 224.412 130.365 224.388 129.634ZM226.572 129.634C226.566 130.187 226.74 130.727 227.07 131.171C227.204 131.319 227.367 131.437 227.55 131.517C227.733 131.598 227.93 131.638 228.13 131.637C228.33 131.65 228.53 131.616 228.714 131.537C228.898 131.457 229.061 131.336 229.19 131.182C229.463 130.681 229.56 130.102 229.465 129.539C229.475 129.008 229.299 128.49 228.967 128.076C228.824 127.922 228.65 127.801 228.456 127.721C228.262 127.64 228.053 127.602 227.844 127.61C227.642 127.596 227.441 127.632 227.256 127.713C227.072 127.794 226.91 127.919 226.784 128.076C226.534 128.559 226.459 129.113 226.572 129.645V129.634Z" fill="#FD7350"/>
<path d="M232.652 126.084H235.525L236.913 130.397L237.74 126.084H240.623L241.068 133.164H239.277L238.937 127.769L237.878 133.164H236.235L234.507 127.769L234.857 133.164H233.066L232.652 126.084Z" fill="#FD7350"/>
<path d="M241.99 126.084H244.873L246.251 130.397L247.078 126.084H250.014L250.469 133.164H248.667L248.328 127.769L247.268 133.164H245.647L243.919 127.769L244.269 133.164H242.478L241.99 126.084Z" fill="#FD7350"/>
<path d="M251.35 126.084H257.221L257.317 127.599H253.639L253.713 128.723H257.115L257.211 130.164H253.809L253.893 131.563H257.677L257.772 133.164H251.805L251.35 126.084Z" fill="#FD7350"/>
<path d="M258.492 126.084H260.612L263.527 130.005L263.283 126.084H265.339L265.795 133.164H263.728L260.835 129.285L261.078 133.164H259.022L258.492 126.084Z" fill="#FD7350"/>
<path d="M266.768 126.084H270.021C270.557 126.062 271.091 126.153 271.59 126.349C271.998 126.506 272.362 126.761 272.65 127.091C272.931 127.429 273.147 127.817 273.286 128.235C273.431 128.678 273.52 129.137 273.551 129.602C273.607 130.193 273.557 130.789 273.402 131.362C273.275 131.764 273.049 132.129 272.745 132.422C272.486 132.689 272.16 132.882 271.802 132.983C271.381 133.103 270.946 133.167 270.509 133.174H267.255L266.768 126.084ZM269.089 127.716L269.333 131.584H269.862C270.195 131.609 270.53 131.555 270.838 131.425C271.036 131.306 271.183 131.117 271.251 130.896C271.361 130.496 271.39 130.077 271.336 129.666C271.358 129.116 271.194 128.574 270.869 128.129C270.703 127.978 270.506 127.863 270.293 127.792C270.079 127.721 269.853 127.695 269.629 127.716H269.089Z" fill="#FD7350"/>
<path d="M278.746 131.955H276.266L275.99 133.121H273.754L275.969 126.041H278.354L281.47 133.121H279.18L278.746 131.955ZM278.195 130.429L277.252 127.875L276.637 130.429H278.195Z" fill="#FD7350"/>
<path d="M280.537 126.084H287.183L287.299 127.833H285.063L285.413 133.132H283.219L282.879 127.833H280.643L280.537 126.084Z" fill="#FD7350"/>
<path d="M288.266 126.084H290.46L290.915 133.164H288.721L288.266 126.084Z" fill="#FD7350"/>
<path d="M291.984 129.634C291.919 129.153 291.957 128.664 292.094 128.198C292.23 127.733 292.464 127.301 292.779 126.932C293.123 126.593 293.536 126.332 293.989 126.166C294.442 125.999 294.926 125.932 295.407 125.967C296.42 125.912 297.415 126.25 298.184 126.91C298.895 127.615 299.302 128.57 299.318 129.571C299.391 130.262 299.293 130.961 299.032 131.606C298.794 132.128 298.397 132.562 297.898 132.846C297.303 133.164 296.633 133.317 295.959 133.291C295.271 133.313 294.587 133.183 293.955 132.909C293.399 132.642 292.928 132.223 292.599 131.701C292.219 131.077 292.007 130.365 291.984 129.634ZM294.167 129.634C294.161 130.187 294.336 130.727 294.666 131.171C294.805 131.326 294.978 131.448 295.17 131.528C295.362 131.609 295.57 131.646 295.778 131.638C295.978 131.65 296.179 131.616 296.363 131.537C296.547 131.458 296.71 131.336 296.838 131.182C297.112 130.681 297.209 130.102 297.114 129.539C297.12 129.009 296.944 128.493 296.616 128.076C296.473 127.923 296.299 127.801 296.105 127.721C295.911 127.64 295.702 127.603 295.492 127.61C295.291 127.597 295.09 127.632 294.905 127.713C294.721 127.794 294.558 127.919 294.432 128.076C294.159 128.551 294.065 129.107 294.167 129.645V129.634Z" fill="#FD7350"/>
<path d="M300.283 126.084H302.329L305.243 130.005L305 126.084H307.056L307.512 133.164H305.455L302.551 129.285L302.795 133.164H300.739L300.283 126.084Z" fill="#FD7350"/>
</g>
<path d="M281.4 42.7456H280.34L279.863 35.8564H280.923L281.4 42.7456Z" fill="#FD7350"/>
<path d="M280.56 30.5571H279.5L278.44 15.9519C278.168 12.1487 276.774 8.51157 274.434 5.50153L275.26 4.8974C277.733 8.08315 279.208 11.9295 279.5 15.9519L280.56 30.5571Z" fill="#FD7350"/>
<path d="M152.284 0.297457H259.088C263.322 0.369073 267.38 2.00991 270.473 4.90206C273.567 7.7942 275.477 11.7318 275.834 15.9519L279.596 70.2919C279.765 72.2993 279.512 74.3198 278.854 76.2238C278.196 78.1278 277.147 79.8732 275.775 81.3481C274.403 82.823 272.738 83.9949 270.886 84.7886C269.034 85.5823 267.037 85.9802 265.023 85.9569H257.127L258.505 105.766L237.297 85.9569H158.219C153.984 85.8827 149.926 84.2396 146.833 81.3457C143.739 78.4518 141.829 74.513 141.473 70.2919L137.668 15.9519C137.502 13.942 137.759 11.9198 138.421 10.0148C139.083 8.1099 140.135 6.3644 141.512 4.89034C142.888 3.41629 144.557 2.24624 146.412 1.45529C148.267 0.664339 150.267 0.269958 152.284 0.297457Z" fill="#FD7350"/>
<path d="M180.424 40.2867H180.625C179.574 40.2717 178.559 39.8977 177.75 39.2269C176.94 38.556 176.384 37.6286 176.174 36.5983C176.122 35.9876 176.199 35.3728 176.398 34.7934C176.598 34.214 176.917 33.6827 177.334 33.2336C177.751 32.7845 178.258 32.4276 178.821 32.1857C179.384 31.9438 179.991 31.8223 180.604 31.8289H182.183L199.406 30.2073C198.712 27.2378 198.195 24.2294 197.859 21.1983C197.361 16.2063 200.233 10.0484 204.992 12.2529C206.91 13.1432 206.221 19.3435 207.292 21.7918C208.362 24.2401 217.414 31.4791 220.169 36.6301C220.908 36.9241 221.549 37.4199 222.02 38.0608C222.49 38.7017 222.771 39.4621 222.83 40.2549L223.964 56.6089C224.051 57.7624 223.902 58.9217 223.525 60.0154C223.147 61.109 222.55 62.1139 221.77 62.9681C220.972 63.8084 220.01 64.4762 218.943 64.9301C217.877 65.384 216.729 65.6145 215.57 65.6072H187.207C186.22 65.6113 185.257 65.3071 184.451 64.7371C183.645 64.167 183.038 63.3596 182.713 62.4276C182.504 61.8328 182.44 61.1961 182.529 60.5717C182.618 59.9473 182.856 59.3535 183.223 58.8407C183.59 58.3279 184.076 57.9112 184.638 57.626C185.201 57.3408 185.824 57.1955 186.455 57.2024H182.83C181.834 57.1875 180.878 56.8029 180.15 56.1233C179.421 55.4436 178.971 54.5174 178.887 53.5246C178.758 52.9489 178.76 52.3513 178.894 51.7766C179.028 51.2019 179.291 50.6651 179.662 50.2063C180.033 49.7475 180.503 49.3786 181.037 49.1273C181.571 48.876 182.155 48.7487 182.745 48.7551H180.816C179.7 48.7372 178.628 48.3147 177.8 47.5662C176.971 46.8177 176.442 45.794 176.312 44.6852C176.256 44.1181 176.321 43.5455 176.504 43.0057C176.687 42.4659 176.983 41.9713 177.372 41.555C177.761 41.1387 178.235 40.8102 178.761 40.5915C179.287 40.3728 179.854 40.2689 180.424 40.2867Z" fill="white"/>
<path d="M231.309 65.6389H236.608C237.016 65.6436 237.421 65.5626 237.795 65.4011C238.17 65.2397 238.506 65.0014 238.783 64.7017C239.06 64.402 239.271 64.0476 239.402 63.6613C239.533 63.275 239.581 62.8655 239.544 62.4593L237.901 38.7498C237.835 37.8938 237.452 37.0932 236.827 36.5051C236.201 35.9169 235.379 35.5835 234.52 35.5702H229.274C228.866 35.5656 228.461 35.6467 228.086 35.808C227.711 35.9694 227.374 36.2074 227.096 36.5069C226.818 36.8064 226.607 37.1607 226.474 37.547C226.342 37.9333 226.292 38.343 226.328 38.7498L227.97 62.4593C228.038 63.3073 228.416 64.1007 229.032 64.6874C229.648 65.2741 230.459 65.6129 231.309 65.6389Z" fill="white"/>
</svg>
