<svg width="404" height="377" viewBox="0 0 404 377" fill="none" xmlns="http://www.w3.org/2000/svg">
<g opacity="0.2">
<path d="M288.85 304.192V236.381C288.85 235.1 288.598 233.833 288.108 232.65C287.618 231.468 286.899 230.393 285.994 229.488C285.088 228.584 284.013 227.866 282.83 227.377C281.647 226.888 280.379 226.637 279.099 226.638H190.002V304.903" stroke="white" stroke-linejoin="round"/>
<path d="M190.748 226.621H99.9906C98.7094 226.619 97.4406 226.871 96.2569 227.361C95.0732 227.852 93.9979 228.571 93.0928 229.478C92.1877 230.384 91.4704 231.461 90.9823 232.646C90.4941 233.83 90.2446 235.099 90.2481 236.381V304.209" stroke="white" stroke-linejoin="round"/>
<path d="M297.652 310.666V333.507H190.045V304.192H291.178C292.895 304.192 294.542 304.874 295.756 306.088C296.97 307.302 297.652 308.949 297.652 310.666Z" stroke="white" stroke-linejoin="round"/>
<path d="M190.862 304.192H87.9286C87.0776 304.191 86.2348 304.357 85.4482 304.682C84.6617 305.007 83.9469 305.484 83.3448 306.085C82.7426 306.686 82.2649 307.401 81.939 308.187C81.6131 308.973 81.4453 309.815 81.4453 310.666V333.507H190.862" stroke="white" stroke-linejoin="round"/>
<path d="M297.837 333.481H81.4453V370.228H297.837V333.481Z" stroke="white" stroke-linejoin="round"/>
<path d="M90.2483 265.274C89.6383 264.638 88.9058 264.132 88.0951 263.786C87.2844 263.441 86.4122 263.263 85.5308 263.263H65.9315C64.2034 263.26 62.5449 263.943 61.3197 265.162C60.0945 266.381 59.4025 268.035 59.3955 269.764V363.675C59.3978 365.407 60.0875 367.067 61.313 368.291C62.5385 369.515 64.1996 370.202 65.9315 370.202H85.5308" stroke="white" stroke-linejoin="round"/>
<path d="M291.302 370.228H310.901C312.632 370.228 314.292 369.541 315.516 368.317C316.74 367.093 317.428 365.432 317.428 363.701V269.764C317.421 268.037 316.73 266.383 315.507 265.165C314.284 263.947 312.627 263.263 310.901 263.263H291.302C290.462 263.26 289.629 263.422 288.851 263.737" stroke="white" stroke-linejoin="round"/>
</g>
<path d="M195.704 95.1358V64.4587H192.928V25.1898C192.934 22.0078 192.312 18.8559 191.098 15.9144C189.884 12.9729 188.102 10.2997 185.855 8.0476C183.607 5.79553 180.936 4.00885 177.997 2.78981C175.058 1.57077 171.907 0.943295 168.725 0.9433H38.7075C35.5243 0.942142 32.3722 1.5687 29.4314 2.78711C26.4906 4.00553 23.819 5.79189 21.5693 8.04396C19.3197 10.296 17.5363 12.9696 16.3211 15.9117C15.1058 18.8538 14.4827 22.0066 14.4873 25.1898V289.389C14.4873 295.81 17.0382 301.969 21.5787 306.509C26.1192 311.05 32.2775 313.601 38.6987 313.601H168.716C171.895 313.601 175.043 312.974 177.98 311.757C180.917 310.541 183.586 308.757 185.833 306.509C188.081 304.26 189.863 301.591 191.079 298.654C192.295 295.716 192.92 292.568 192.919 289.389V121.297H195.695V103.156H192.919V95.1358H195.704Z" fill="#707070" stroke="#263238" stroke-linejoin="round"/>
<path d="M163.314 4.31671H44.1018C29.2941 4.31671 17.29 16.3207 17.29 31.1285V283.45C17.29 298.258 29.2941 310.262 44.1018 310.262H163.314C178.122 310.262 190.126 298.258 190.126 283.45V31.1285C190.126 16.3207 178.122 4.31671 163.314 4.31671Z" fill="#263238" stroke="#263238" stroke-linejoin="round"/>
<path d="M161.117 6.51294H113.116L113.063 6.68864C111.649 11.8015 108.372 15.1222 104.753 15.1222H102.697C99.0687 15.1222 95.8007 11.8015 94.3775 6.68864L94.3336 6.51294H46.3061C39.8849 6.51294 33.7266 9.06377 29.1861 13.6043C24.6456 18.1448 22.0947 24.3031 22.0947 30.7243V272.1C22.0947 275.279 22.721 278.427 23.9379 281.364C25.1547 284.301 26.9383 286.97 29.1866 289.217C31.435 291.465 34.1041 293.247 37.0415 294.463C39.9789 295.679 43.127 296.304 46.3061 296.303H161.117C164.296 296.304 167.443 295.679 170.38 294.463C173.317 293.247 175.986 291.464 178.233 289.217C180.481 286.969 182.264 284.301 183.48 281.364C184.695 278.427 185.321 275.279 185.32 272.1V30.7243C185.321 27.5453 184.696 24.3971 183.48 21.4597C182.264 18.5223 180.481 15.8532 178.234 13.6048C175.986 11.3565 173.318 9.57294 170.381 8.35609C167.444 7.13925 164.296 6.51294 161.117 6.51294Z" fill="white" stroke="#263238" stroke-linejoin="round"/>
<path d="M161.117 6.51294H113.116L113.063 6.68864C111.649 11.8015 108.372 15.1222 104.753 15.1222H102.697C99.0687 15.1222 95.8007 11.8015 94.3775 6.68864L94.3336 6.51294H46.3061C39.8849 6.51294 33.7266 9.06377 29.1861 13.6043C24.6456 18.1448 22.0947 24.3031 22.0947 30.7243V33.4477H185.32V30.7243C185.321 27.5453 184.696 24.3971 183.48 21.4597C182.264 18.5223 180.481 15.8532 178.234 13.6048C175.986 11.3565 173.318 9.57294 170.381 8.35609C167.444 7.13925 164.296 6.51294 161.117 6.51294Z" fill="#FD7350"/>
<path d="M157.858 143.26C157.858 137.989 165.044 131.787 163.744 126.902C162.391 121.851 153.035 120.103 150.478 115.675C147.922 111.247 151.014 102.225 147.369 98.5795C143.723 94.9337 134.771 98.0787 130.273 95.4784C125.775 92.878 124.124 83.566 119.055 82.2131C114.17 80.9129 107.994 88.099 102.697 88.099C97.3996 88.099 91.2238 80.9129 86.3393 82.2131C81.288 83.566 79.5398 92.922 75.1121 95.4784C70.6845 98.0348 61.6623 94.9425 58.0166 98.5883C54.3708 102.234 57.5158 111.186 54.9155 115.684C52.3151 120.182 43.0031 121.833 41.6502 126.902C40.3236 131.787 47.5361 137.989 47.5361 143.26C47.5361 148.531 40.35 154.733 41.6502 159.617C43.0031 164.669 52.3591 166.417 54.9155 170.845C57.4719 175.272 54.3796 184.294 58.0254 187.94C61.6711 191.586 70.623 188.441 75.1209 191.041C79.6188 193.642 81.2704 202.954 86.3393 204.307C91.2238 205.607 97.3996 198.421 102.697 198.421C107.994 198.421 114.17 205.607 119.055 204.307C124.106 202.954 125.854 193.598 130.282 191.041C134.709 188.485 143.732 191.577 147.377 187.931C151.023 184.286 147.878 175.334 150.478 170.836C153.079 166.338 162.391 164.686 163.744 159.617C165.07 154.733 157.858 148.531 157.858 143.26Z" fill="#FD7350"/>
<path d="M101.933 165.363L78.0992 140.132C77.5517 139.55 77.258 138.774 77.2827 137.975C77.3074 137.176 77.6485 136.419 78.231 135.872C78.8135 135.324 79.5896 135.03 80.3886 135.055C81.1877 135.08 81.9442 135.421 82.4917 136.003L101.204 155.822L124.835 121.561C125.05 121.214 125.333 120.914 125.667 120.679C126.002 120.444 126.38 120.28 126.78 120.196C127.18 120.113 127.592 120.111 127.993 120.191C128.393 120.272 128.773 120.433 129.109 120.665C129.445 120.897 129.731 121.195 129.948 121.54C130.166 121.886 130.311 122.272 130.375 122.676C130.438 123.079 130.419 123.491 130.319 123.887C130.218 124.283 130.038 124.654 129.79 124.978L101.933 165.363Z" fill="white"/>
<path d="M40.455 232.761L39.7347 233.49L34.7799 238.445L29.0873 232.761C28.4328 232.103 28.0654 231.212 28.0654 230.284C28.0654 229.355 28.4328 228.465 29.0873 227.806C29.7457 227.152 30.6363 226.785 31.5646 226.785C32.493 226.785 33.3836 227.152 34.042 227.806L34.7799 228.536L35.5003 227.806C36.1587 227.152 37.0493 226.785 37.9777 226.785C38.906 226.785 39.7966 227.152 40.455 227.806C41.1095 228.465 41.4769 229.355 41.4769 230.284C41.4769 231.212 41.1095 232.103 40.455 232.761Z" stroke="#263238" stroke-linejoin="round"/>
<path d="M54.2749 240.097C58.2777 240.097 61.5226 236.852 61.5226 232.849C61.5226 228.846 58.2777 225.601 54.2749 225.601C50.2722 225.601 47.0273 228.846 47.0273 232.849C47.0273 236.852 50.2722 240.097 54.2749 240.097Z" stroke="#263238" stroke-linecap="round" stroke-linejoin="round"/>
<path d="M50.0391 234.176C50.2193 235.158 50.7457 236.042 51.5226 236.669C52.2995 237.296 53.2755 237.624 54.2734 237.593C55.2812 237.667 56.2795 237.356 57.0659 236.721C57.8523 236.086 58.3678 235.176 58.5078 234.176H50.0391Z" stroke="#263238" stroke-linecap="round" stroke-linejoin="round"/>
<path d="M52.5522 231.514C52.5522 232.34 52.3063 233.007 52.0076 233.007C51.7089 233.007 51.4629 232.34 51.4629 231.514C51.4629 230.688 51.7089 230.012 52.0076 230.012C52.3063 230.012 52.5522 230.679 52.5522 231.514Z" fill="#263238"/>
<path d="M56.6382 231.514C56.6382 232.34 56.3922 233.007 56.0935 233.007C55.7948 233.007 55.5488 232.34 55.5488 231.514C55.5488 230.688 55.7948 230.012 56.0935 230.012C56.3922 230.012 56.6382 230.679 56.6382 231.514Z" fill="#263238"/>
<path d="M29.2373 247.362H79.4171" stroke="#263238" stroke-linejoin="round"/>
<path d="M119.68 253.951H136.67" stroke="#263238" stroke-linejoin="round"/>
<path d="M105.623 253.951H116.165" stroke="#263238" stroke-linejoin="round"/>
<path d="M63.4551 253.951H101.529" stroke="#263238" stroke-linejoin="round"/>
<path d="M29.2373 253.951H58.7724" stroke="#263238" stroke-linejoin="round"/>
<path d="M93.3242 260.979H126.417" stroke="#263238" stroke-linejoin="round"/>
<path d="M64.043 260.979H89.2295" stroke="#263238" stroke-linejoin="round"/>
<path d="M29.2373 260.979H59.9408" stroke="#263238" stroke-linejoin="round"/>
<path d="M170.052 268.007H174.146" stroke="#263238" stroke-linejoin="round"/>
<path d="M139.595 268.007H167.118" stroke="#263238" stroke-linejoin="round"/>
<path d="M85.7158 268.007H132.566" stroke="#263238" stroke-linejoin="round"/>
<path d="M41.2021 268.007H81.0244" stroke="#263238" stroke-linejoin="round"/>
<path d="M29.2373 268.007H36.52" stroke="#263238" stroke-linejoin="round"/>
<path d="M39.3315 65.627C44.649 65.627 48.9598 61.3163 48.9598 55.9987C48.9598 50.6811 44.649 46.3704 39.3315 46.3704C34.0139 46.3704 29.7031 50.6811 29.7031 55.9987C29.7031 61.3163 34.0139 65.627 39.3315 65.627Z" fill="#595959"/>
<path d="M53.7734 56.4379H87.0421" stroke="#263238" stroke-linejoin="round"/>
<path d="M103.216 9.9479C104.472 9.9479 105.491 8.9292 105.491 7.67259C105.491 6.41597 104.472 5.39728 103.216 5.39728C101.959 5.39728 100.94 6.41597 100.94 7.67259C100.94 8.9292 101.959 9.9479 103.216 9.9479Z" fill="#707070"/>
<path d="M36.6 16.3873C36.6 18.6801 34.026 19.5147 33.9645 21.2629V21.3859H36.477V22.159H33.1738V21.5089C33.1738 19.0403 35.7566 18.5659 35.7566 16.4136C35.7566 15.6317 35.4931 15.2189 34.8781 15.2189C34.2632 15.2189 33.9996 15.6669 33.9996 16.3433V17.0198H33.209V16.396C33.209 15.2276 33.7449 14.4546 34.966 14.4546C36.1871 14.4546 36.6 15.2189 36.6 16.3873Z" fill="white"/>
<path d="M40.7806 16.3697V16.5717C40.8164 16.8982 40.7448 17.2274 40.5768 17.5095C40.4088 17.7917 40.1534 18.0114 39.8494 18.1355C40.1548 18.2627 40.4107 18.4857 40.5787 18.7708C40.7466 19.056 40.8174 19.3879 40.7806 19.7167V20.2702C40.7806 21.4386 40.2359 22.2029 39.0236 22.2029C37.8112 22.2029 37.2666 21.4386 37.2666 20.2702V19.7519H38.066V20.3229C38.066 21.0081 38.3471 21.4298 38.9445 21.4298C39.5419 21.4298 39.823 21.0257 39.823 20.2526V19.664C39.823 18.9085 39.5067 18.5483 38.8654 18.5308H38.4086V17.7665H38.9094C39.0402 17.7689 39.17 17.742 39.2891 17.6878C39.4082 17.6336 39.5138 17.5535 39.598 17.4533C39.6822 17.3531 39.7429 17.2354 39.7758 17.1087C39.8086 16.982 39.8128 16.8496 39.7879 16.7211V16.3697C39.7879 15.5878 39.5155 15.1837 38.9094 15.1837C38.3032 15.1837 38.0309 15.6054 38.0309 16.2906V16.7562H37.2314V16.4048C37.2314 15.2452 37.7761 14.4897 38.9884 14.4897C40.2008 14.4897 40.7806 15.2101 40.7806 16.3697Z" fill="white"/>
<path d="M42.4234 16.9495V18.0037H41.6064V16.9495H42.4234ZM42.4234 21.1048V22.159H41.6064V21.1487L42.4234 21.1048Z" fill="white"/>
<path d="M44.1451 17.6347C44.2562 17.4341 44.4212 17.2686 44.6215 17.1568C44.8217 17.045 45.0493 16.9915 45.2783 17.0022C46.2623 17.0022 46.6927 17.7226 46.6927 18.8119V20.2702C46.6927 21.4386 46.1393 22.2029 44.9357 22.2029C43.7322 22.2029 43.2314 21.4386 43.2314 20.2702V19.7607H44.0221V20.3229C44.0221 21.0082 44.3032 21.4298 44.9006 21.4298C45.498 21.4298 45.7791 21.0082 45.7791 20.3229V18.8822C45.7791 18.197 45.4892 17.7753 44.9006 17.7753C44.7885 17.7681 44.6762 17.7839 44.5704 17.8216C44.4647 17.8593 44.3677 17.9182 44.2855 17.9947C44.2032 18.0712 44.1375 18.1636 44.0922 18.2663C44.0469 18.3691 44.0231 18.48 44.0221 18.5923V18.768H43.2227L43.4335 14.5336H46.4731V15.2979H44.2681L44.1451 17.6347Z" fill="white"/>
<path d="M50.9359 16.3609V16.5015H50.1364V16.3082C50.1364 15.623 49.8553 15.2189 49.2579 15.2189C48.6606 15.2189 48.3267 15.6317 48.3267 16.4487V18.2057C48.4157 17.9548 48.5837 17.7395 48.8054 17.5921C49.0272 17.4448 49.2908 17.3734 49.5566 17.3887C50.5406 17.3887 50.971 18.0915 50.971 19.1984V20.2702C50.971 21.4386 50.4 22.2029 49.214 22.2029C48.0281 22.2029 47.457 21.4386 47.457 20.2702V16.4136C47.457 15.2101 48.0017 14.4546 49.214 14.4546C50.4264 14.4546 50.9359 15.1925 50.9359 16.3609ZM48.3004 19.216V20.3581C48.3004 21.0433 48.5815 21.465 49.1789 21.465C49.7763 21.465 50.0574 21.0433 50.0574 20.3581V19.216C50.0574 18.5308 49.7587 18.1179 49.1789 18.1179C48.5991 18.1179 48.3092 18.5132 48.3092 19.216H48.3004Z" fill="white"/>
<path d="M134.2 16.6948H132.048V22.08H134.2V16.6948Z" fill="white"/>
<path d="M137.072 15.6142H134.92V22.0799H137.072V15.6142Z" fill="white"/>
<path d="M139.945 14.8499H137.793V22.0799H139.945V14.8499Z" fill="white"/>
<path d="M142.817 13.5234H140.665V22.0799H142.817V13.5234Z" fill="white"/>
<path d="M169.463 21.9306H156.549V14.0241H169.463V21.9306ZM157.252 21.219H168.742V14.7533H157.26L157.252 21.219Z" fill="white"/>
<path d="M165.158 15.5351H158.341V20.4371H165.158V15.5351Z" fill="white"/>
<path d="M170.649 17.0549H169.023V18.9173H170.649V17.0549Z" fill="white"/>
<path d="M151.805 20.2175C151.718 20.2146 151.634 20.1905 151.559 20.1472C148.923 18.5835 147.166 20.033 147.123 20.0945C147.077 20.1459 147.021 20.187 146.959 20.2152C146.896 20.2433 146.828 20.2578 146.76 20.2577C146.691 20.2576 146.623 20.2428 146.561 20.2145C146.498 20.1862 146.443 20.1448 146.397 20.0933C146.352 20.0418 146.318 19.9812 146.298 19.9156C146.278 19.85 146.273 19.7809 146.281 19.7128C146.29 19.6448 146.313 19.5794 146.349 19.521C146.385 19.4626 146.433 19.4126 146.49 19.3742C146.578 19.2863 148.8 17.3888 152.06 19.3214C152.169 19.3872 152.247 19.4932 152.279 19.6166C152.31 19.7399 152.291 19.8706 152.227 19.9803C152.182 20.0523 152.12 20.1117 152.046 20.1532C151.973 20.1947 151.889 20.2168 151.805 20.2175Z" fill="white"/>
<path d="M152.771 18.5923C152.684 18.5938 152.598 18.5693 152.525 18.522C148.721 16.2643 146.165 18.4517 146.138 18.4693C146.092 18.5126 146.037 18.5459 145.977 18.5673C145.918 18.5886 145.854 18.5975 145.791 18.5934C145.727 18.5893 145.666 18.5723 145.609 18.5434C145.552 18.5145 145.502 18.4743 145.462 18.4254C145.42 18.3784 145.388 18.3234 145.367 18.2638C145.346 18.2041 145.338 18.1409 145.342 18.0779C145.346 18.0149 145.363 17.9534 145.391 17.8969C145.419 17.8404 145.458 17.7901 145.506 17.7489C145.506 17.7489 148.616 15.1134 153.017 17.6962C153.072 17.7279 153.12 17.7703 153.158 17.8208C153.196 17.8714 153.224 17.929 153.24 17.9904C153.255 18.0519 153.258 18.1158 153.249 18.1784C153.239 18.241 153.217 18.3011 153.184 18.3551C153.143 18.4281 153.083 18.4887 153.01 18.5305C152.938 18.5722 152.855 18.5936 152.771 18.5923Z" fill="white"/>
<path d="M153.651 16.7562C153.565 16.7589 153.48 16.7376 153.405 16.6948C148.582 13.8309 145.384 16.5191 145.252 16.642C145.156 16.7271 145.029 16.7702 144.901 16.762C144.772 16.7538 144.652 16.6948 144.567 16.5981C144.482 16.5014 144.439 16.3749 144.447 16.2464C144.456 16.1179 144.514 15.9979 144.611 15.9129C144.655 15.9129 148.459 12.6273 153.897 15.8602C154.006 15.9259 154.085 16.0319 154.116 16.1553C154.147 16.2787 154.128 16.4094 154.064 16.5191C154.022 16.5915 153.962 16.6516 153.889 16.6932C153.817 16.7349 153.735 16.7566 153.651 16.7562Z" fill="white"/>
<path d="M150.355 21.0257C150.355 21.2655 150.284 21.4999 150.151 21.6993C150.018 21.8986 149.828 22.054 149.607 22.1458C149.385 22.2375 149.142 22.2616 148.906 22.2148C148.671 22.168 148.455 22.0525 148.286 21.883C148.116 21.7134 148.001 21.4974 147.954 21.2623C147.907 21.0271 147.931 20.7833 148.023 20.5618C148.115 20.3403 148.27 20.1509 148.469 20.0177C148.669 19.8845 148.903 19.8134 149.143 19.8134C149.465 19.8134 149.773 19.9411 150 20.1685C150.228 20.3959 150.355 20.7042 150.355 21.0257Z" fill="white"/>
<path d="M373.756 206.055C373.756 206.055 363.258 200.222 362.485 213.443C361.712 226.664 359.762 336.336 359.762 336.336" stroke="#263238" stroke-width="2" stroke-linecap="round" stroke-linejoin="round"/>
<path d="M357.03 214.603C357.03 214.603 365.596 257.394 361.704 335.168" stroke="#263238" stroke-width="2" stroke-linecap="round" stroke-linejoin="round"/>
<path d="M365.447 208.717C365.447 208.717 361.432 211.291 359.148 208.339C356.864 205.387 360.694 200.002 357.312 197.692C353.93 195.381 348.105 198.913 348.105 198.913C348.105 198.913 352.594 200.23 352.454 202.681C352.313 205.132 350.143 206.055 349.818 204.983C349.493 203.911 347.394 198.517 343.748 200.758C342.697 201.379 341.783 202.207 341.061 203.191C340.34 204.176 339.825 205.296 339.549 206.485C339.549 206.485 348.026 205.607 348.544 208.769C349.063 211.932 345.03 208.216 341.56 208.014C338.09 207.812 334.875 208.321 335.095 210.439C335.177 212.313 335.068 214.191 334.77 216.043C336.681 214.452 339.1 213.598 341.587 213.636C345.434 213.856 345.285 216.272 341.789 216.105C338.292 215.938 335.279 219.232 335.279 219.232C335.279 219.232 338.468 224.688 342.527 227.385C346.585 230.082 348.044 229.142 348.518 227.042C348.992 224.943 347.903 219.628 350.354 219.768C352.805 219.909 346.295 229.019 349.423 229.555C352.55 230.091 355.072 229.186 355.889 227.121L356.714 225.066C356.714 225.066 355.625 219.733 356.099 217.651C356.574 215.569 357.154 217.713 357.707 220.207C358.261 222.702 358.586 228.685 359.684 228.404C360.782 228.123 364.173 223.748 364.955 222.035C365.737 220.322 360.448 215.095 360.509 214.049C360.571 213.004 364.674 214.998 365.306 216.087C365.77 216.908 366.189 217.752 366.562 218.617C366.562 218.617 369.119 217.01 369.057 212.09C368.996 207.171 365.447 208.717 365.447 208.717Z" fill="#FD7350"/>
<path opacity="0.3" d="M365.447 208.717C365.447 208.717 361.432 211.291 359.148 208.339C356.864 205.387 360.694 200.002 357.312 197.692C353.93 195.381 348.105 198.913 348.105 198.913C348.105 198.913 352.594 200.23 352.454 202.681C352.313 205.132 350.143 206.055 349.818 204.983C349.493 203.911 347.394 198.517 343.748 200.758C342.697 201.379 341.783 202.207 341.061 203.191C340.34 204.176 339.825 205.296 339.549 206.485C339.549 206.485 348.026 205.607 348.544 208.769C349.063 211.932 345.03 208.216 341.56 208.014C338.09 207.812 334.875 208.321 335.095 210.439C335.177 212.313 335.068 214.191 334.77 216.043C336.681 214.452 339.1 213.598 341.587 213.636C345.434 213.856 345.285 216.272 341.789 216.105C338.292 215.938 335.279 219.232 335.279 219.232C335.279 219.232 338.468 224.688 342.527 227.385C346.585 230.082 348.044 229.142 348.518 227.042C348.992 224.943 347.903 219.628 350.354 219.768C352.805 219.909 346.295 229.019 349.423 229.555C352.55 230.091 355.072 229.186 355.889 227.121L356.714 225.066C356.714 225.066 355.625 219.733 356.099 217.651C356.574 215.569 357.154 217.713 357.707 220.207C358.261 222.702 358.586 228.685 359.684 228.404C360.782 228.123 364.173 223.748 364.955 222.035C365.737 220.322 360.448 215.095 360.509 214.049C360.571 213.004 364.674 214.998 365.306 216.087C365.77 216.908 366.189 217.752 366.562 218.617C366.562 218.617 369.119 217.01 369.057 212.09C368.996 207.171 365.447 208.717 365.447 208.717Z" fill="#263238"/>
<path d="M345.083 220.251C347.719 217.019 351.566 212.635 354.799 210.544" stroke="#263238" stroke-linecap="round" stroke-linejoin="round"/>
<path d="M342.052 224.196C342.052 224.196 342.719 223.265 343.809 221.859" stroke="#263238" stroke-linecap="round" stroke-linejoin="round"/>
<path d="M356.502 211.352C356.502 211.352 360.394 216.852 361.114 222.509" stroke="#263238" stroke-linecap="round" stroke-linejoin="round"/>
<path d="M352.103 214.603C352.103 214.603 353.192 213.961 352.779 220.963" stroke="#263238" stroke-linecap="round" stroke-linejoin="round"/>
<path d="M354.939 208.093C354.939 208.093 357.171 206.116 355.994 202.181" stroke="#263238" stroke-linecap="round" stroke-linejoin="round"/>
<path d="M351.935 211.431L350.354 208.523" stroke="#263238" stroke-linecap="round" stroke-linejoin="round"/>
<path d="M348.596 214.418C348.596 214.418 343.553 210.614 340.399 210.421" stroke="#263238" stroke-linecap="round" stroke-linejoin="round"/>
<path d="M379.756 198.342C379.756 198.342 379.598 204.113 375.091 204.394C370.585 204.676 367.791 197.164 363.179 198.974C358.567 200.784 358.128 209.015 358.128 209.015C358.128 209.015 362.52 205.422 364.857 207.258C367.194 209.094 366.667 211.871 365.402 211.431C364.137 210.992 357.267 209.455 357.03 214.629C356.934 216.104 357.139 217.583 357.631 218.977C358.123 220.37 358.893 221.65 359.893 222.738C359.893 222.738 364.778 213.627 368.318 215.288C371.859 216.948 365.393 218.398 362.801 221.762C360.21 225.127 358.549 228.667 360.825 229.888C362.766 231.076 364.582 232.456 366.245 234.009C365.952 231.012 366.744 228.011 368.476 225.549C371.332 221.841 373.686 223.66 371.112 227.025C368.538 230.389 369.803 235.669 369.803 235.669C369.803 235.669 377.446 236.196 382.91 233.974C388.374 231.751 388.41 229.634 386.644 227.736C384.878 225.839 378.808 223.3 380.617 220.945C382.427 218.591 387.109 231.312 389.78 228.544C392.451 225.777 393.294 222.641 391.757 220.418L390.254 218.187C390.254 218.187 384.175 215.639 382.409 213.75C380.644 211.862 383.191 212.74 386.064 213.882C388.937 215.024 395.174 218.758 395.613 217.493C396.052 216.228 394.014 209.824 392.855 207.829C391.695 205.835 382.831 207.61 381.821 206.837C380.811 206.064 385.607 203.323 387.136 203.419C388.274 203.518 389.406 203.676 390.527 203.894C390.527 203.894 390.658 200.239 385.695 196.945C380.731 193.65 379.756 198.342 379.756 198.342Z" fill="#FD7350"/>
<path opacity="0.2" d="M379.756 198.342C379.756 198.342 379.598 204.113 375.091 204.394C370.585 204.676 367.791 197.164 363.179 198.974C358.567 200.784 358.128 209.015 358.128 209.015C358.128 209.015 362.52 205.422 364.857 207.258C367.194 209.094 366.667 211.871 365.402 211.431C364.137 210.992 357.267 209.455 357.03 214.629C356.934 216.104 357.139 217.583 357.631 218.977C358.123 220.37 358.893 221.65 359.893 222.738C359.893 222.738 364.778 213.627 368.318 215.288C371.859 216.948 365.393 218.398 362.801 221.762C360.21 225.127 358.549 228.667 360.825 229.888C362.766 231.076 364.582 232.456 366.245 234.009C365.952 231.012 366.744 228.011 368.476 225.549C371.332 221.841 373.686 223.66 371.112 227.025C368.538 230.389 369.803 235.669 369.803 235.669C369.803 235.669 377.446 236.196 382.91 233.974C388.374 231.751 388.41 229.634 386.644 227.736C384.878 225.839 378.808 223.3 380.617 220.945C382.427 218.591 387.109 231.312 389.78 228.544C392.451 225.777 393.294 222.641 391.757 220.418L390.254 218.187C390.254 218.187 384.175 215.639 382.409 213.75C380.644 211.862 383.191 212.74 386.064 213.882C388.937 215.024 395.174 218.758 395.613 217.493C396.052 216.228 394.014 209.824 392.855 207.829C391.695 205.835 382.831 207.61 381.821 206.837C380.811 206.064 385.607 203.323 387.136 203.419C388.274 203.518 389.406 203.676 390.527 203.894C390.527 203.894 390.658 200.239 385.695 196.945C380.731 193.65 379.756 198.342 379.756 198.342Z" fill="#263238"/>
<path d="M377.438 226.585C375.98 221.762 374.223 214.91 374.337 210.245" stroke="#263238" stroke-linecap="round" stroke-linejoin="round"/>
<path d="M379.309 232.313C379.309 232.313 378.835 231.004 378.176 228.957" stroke="#263238" stroke-linecap="round" stroke-linejoin="round"/>
<path d="M376.305 209.086C376.305 209.086 384.466 208.936 390.624 212.073" stroke="#263238" stroke-linecap="round" stroke-linejoin="round"/>
<path d="M376.56 215.71C376.56 215.71 376.665 214.181 383.394 219.373" stroke="#263238" stroke-linecap="round" stroke-linejoin="round"/>
<path d="M371.982 208.436C371.982 208.436 371.516 204.86 366.781 203.349" stroke="#263238" stroke-linecap="round" stroke-linejoin="round"/>
<path d="M373.273 213.715L369.284 213.32" stroke="#263238" stroke-linecap="round" stroke-linejoin="round"/>
<path d="M373.968 219.074C373.968 219.074 366.712 221.534 364.375 224.556" stroke="#263238" stroke-linecap="round" stroke-linejoin="round"/>
<path d="M331.378 236.776C331.378 236.776 354.316 275.676 353.947 334.395" stroke="#263238" stroke-width="2" stroke-linecap="round" stroke-linejoin="round"/>
<path d="M359.665 232.77C359.665 232.77 358.936 239.411 353.709 239.315C348.482 239.218 345.97 230.284 340.479 231.927C334.988 233.569 333.688 243.04 333.688 243.04C333.688 243.04 339.082 239.306 341.595 241.625C344.107 243.944 343.246 247.116 341.823 246.483C340.4 245.851 332.634 243.435 331.87 249.391C331.616 251.09 331.71 252.823 332.146 254.484C332.583 256.145 333.352 257.7 334.409 259.055C334.409 259.055 340.901 249.005 344.836 251.254C348.772 253.502 341.156 254.557 337.852 258.194C334.549 261.831 332.291 265.766 334.804 267.392C336.916 268.948 338.864 270.714 340.62 272.663C340.62 272.663 340.356 267.102 344.002 263.104C347.648 259.107 350.151 261.418 346.875 265.055C343.598 268.692 344.555 274.911 344.555 274.911C344.555 274.911 353.34 276.238 359.841 274.191C366.342 272.144 366.588 269.693 364.743 267.348C362.898 265.002 356.108 261.488 358.427 258.94C360.746 256.393 364.936 271.512 368.275 268.604C371.613 265.696 372.843 262.121 371.323 259.415L369.803 256.7C369.803 256.7 363.021 253.186 361.176 250.841C359.332 248.495 362.169 249.751 365.376 251.341C368.582 252.931 375.426 257.825 376.058 256.402C376.691 254.978 374.934 247.406 373.783 245.025C372.632 242.644 362.239 243.83 361.141 242.838C360.043 241.845 365.841 239.13 367.598 239.394C369.355 239.657 371.464 240.272 371.464 240.272C371.464 240.272 371.964 236.073 366.544 231.804C361.124 227.534 359.665 232.77 359.665 232.77Z" fill="#FD7350"/>
<path opacity="0.3" d="M359.665 232.77C359.665 232.77 358.936 239.411 353.709 239.315C348.482 239.218 345.97 230.284 340.479 231.927C334.988 233.569 333.688 243.04 333.688 243.04C333.688 243.04 339.082 239.306 341.595 241.625C344.107 243.944 343.246 247.116 341.823 246.483C340.4 245.851 332.634 243.435 331.87 249.391C331.616 251.09 331.71 252.823 332.146 254.484C332.583 256.145 333.352 257.7 334.409 259.055C334.409 259.055 340.901 249.005 344.836 251.254C348.772 253.502 341.156 254.557 337.852 258.194C334.549 261.831 332.291 265.766 334.804 267.392C336.916 268.948 338.864 270.714 340.62 272.663C340.62 272.663 340.356 267.102 344.002 263.104C347.648 259.107 350.151 261.418 346.875 265.055C343.598 268.692 344.555 274.911 344.555 274.911C344.555 274.911 353.34 276.238 359.841 274.191C366.342 272.144 366.588 269.693 364.743 267.348C362.898 265.002 356.108 261.488 358.427 258.94C360.746 256.393 364.936 271.512 368.275 268.604C371.613 265.696 372.843 262.121 371.323 259.415L369.803 256.7C369.803 256.7 363.021 253.186 361.176 250.841C359.332 248.495 362.169 249.751 365.376 251.341C368.582 252.931 375.426 257.825 376.058 256.402C376.691 254.978 374.934 247.406 373.783 245.025C372.632 242.644 362.239 243.83 361.141 242.838C360.043 241.845 365.841 239.13 367.598 239.394C369.355 239.657 371.464 240.272 371.464 240.272C371.464 240.272 371.964 236.073 366.544 231.804C361.124 227.534 359.665 232.77 359.665 232.77Z" fill="#263238"/>
<path d="M354.316 265.143C353.095 259.441 351.681 251.368 352.278 245.991" stroke="#263238" stroke-linecap="round" stroke-linejoin="round"/>
<path d="M355.941 271.933C355.941 271.933 355.51 270.37 354.948 267.954" stroke="#263238" stroke-linecap="round" stroke-linejoin="round"/>
<path d="M354.667 244.841C354.667 244.841 364.093 245.438 370.902 249.646" stroke="#263238" stroke-linecap="round" stroke-linejoin="round"/>
<path d="M354.324 252.51C354.324 252.51 354.597 250.753 361.871 257.377" stroke="#263238" stroke-linecap="round" stroke-linejoin="round"/>
<path d="M349.73 243.681C349.73 243.681 349.537 239.508 344.213 237.321" stroke="#263238" stroke-linecap="round" stroke-linejoin="round"/>
<path d="M350.723 249.901L346.164 249.066" stroke="#263238" stroke-linecap="round" stroke-linejoin="round"/>
<path d="M351.021 256.147C351.021 256.147 342.42 258.299 339.442 261.567" stroke="#263238" stroke-linecap="round" stroke-linejoin="round"/>
<path d="M359.665 288.352C359.665 288.352 358.936 295.003 353.709 294.906C348.482 294.809 345.97 285.866 340.479 287.518C334.988 289.169 333.688 298.631 333.688 298.631C333.688 298.631 339.082 294.897 341.595 297.217C344.107 299.536 343.246 302.707 341.823 302.075C340.4 301.442 332.634 299.026 331.87 304.982C331.616 306.681 331.71 308.414 332.146 310.075C332.583 311.736 333.352 313.291 334.409 314.646C334.409 314.646 340.901 304.596 344.836 306.845C348.772 309.094 341.156 310.148 337.852 313.785C334.549 317.422 332.291 321.358 334.804 322.983C336.918 324.536 338.866 326.303 340.62 328.254C340.62 328.254 340.356 322.693 344.002 318.696C347.648 314.699 350.151 317.009 346.875 320.646C343.598 324.283 344.555 330.503 344.555 330.503C344.555 330.503 353.34 331.829 359.841 329.782C366.342 327.736 366.588 325.285 364.743 322.939C362.898 320.593 356.108 317.079 358.427 314.532C360.746 311.984 364.936 327.103 368.275 324.195C371.613 321.287 372.843 317.712 371.323 314.997L369.803 312.292C369.803 312.292 363.021 308.778 361.176 306.432C359.332 304.086 362.169 305.334 365.376 306.924C368.582 308.514 375.426 313.416 376.058 311.993C376.691 310.57 374.934 302.997 373.783 300.616C372.632 298.236 362.239 299.413 361.141 298.42C360.043 297.427 365.841 294.722 367.598 294.985C368.901 295.21 370.191 295.503 371.464 295.864C371.464 295.864 371.964 291.664 366.544 287.395C361.124 283.125 359.665 288.352 359.665 288.352Z" fill="#FD7350"/>
<path opacity="0.3" d="M359.665 288.352C359.665 288.352 358.936 295.003 353.709 294.906C348.482 294.809 345.97 285.866 340.479 287.518C334.988 289.169 333.688 298.631 333.688 298.631C333.688 298.631 339.082 294.897 341.595 297.217C344.107 299.536 343.246 302.707 341.823 302.075C340.4 301.442 332.634 299.026 331.87 304.982C331.616 306.681 331.71 308.414 332.146 310.075C332.583 311.736 333.352 313.291 334.409 314.646C334.409 314.646 340.901 304.596 344.836 306.845C348.772 309.094 341.156 310.148 337.852 313.785C334.549 317.422 332.291 321.358 334.804 322.983C336.918 324.536 338.866 326.303 340.62 328.254C340.62 328.254 340.356 322.693 344.002 318.696C347.648 314.699 350.151 317.009 346.875 320.646C343.598 324.283 344.555 330.503 344.555 330.503C344.555 330.503 353.34 331.829 359.841 329.782C366.342 327.736 366.588 325.285 364.743 322.939C362.898 320.593 356.108 317.079 358.427 314.532C360.746 311.984 364.936 327.103 368.275 324.195C371.613 321.287 372.843 317.712 371.323 314.997L369.803 312.292C369.803 312.292 363.021 308.778 361.176 306.432C359.332 304.086 362.169 305.334 365.376 306.924C368.582 308.514 375.426 313.416 376.058 311.993C376.691 310.57 374.934 302.997 373.783 300.616C372.632 298.236 362.239 299.413 361.141 298.42C360.043 297.427 365.841 294.722 367.598 294.985C368.901 295.21 370.191 295.503 371.464 295.864C371.464 295.864 371.964 291.664 366.544 287.395C361.124 283.125 359.665 288.352 359.665 288.352Z" fill="#263238"/>
<path d="M354.316 320.716C353.095 315.006 351.681 306.942 352.278 301.565" stroke="#263238" stroke-linecap="round" stroke-linejoin="round"/>
<path d="M355.941 327.525C355.941 327.525 355.51 325.961 354.948 323.536" stroke="#263238" stroke-linecap="round" stroke-linejoin="round"/>
<path d="M354.667 300.432C354.667 300.432 364.093 301.029 370.902 305.228" stroke="#263238" stroke-linecap="round" stroke-linejoin="round"/>
<path d="M354.324 308.101C354.324 308.101 354.597 306.344 361.871 312.968" stroke="#263238" stroke-linecap="round" stroke-linejoin="round"/>
<path d="M349.73 299.263C349.73 299.263 349.537 295.099 344.213 292.912" stroke="#263238" stroke-linecap="round" stroke-linejoin="round"/>
<path d="M350.723 305.483L346.164 304.657" stroke="#263238" stroke-linecap="round" stroke-linejoin="round"/>
<path d="M351.021 311.738C351.021 311.738 342.42 313.882 339.442 317.158" stroke="#263238" stroke-linecap="round" stroke-linejoin="round"/>
<path d="M340.321 283.046C340.321 283.046 355.098 318.081 356.653 334.772L353.543 255.04" stroke="#263238" stroke-width="2" stroke-linecap="round" stroke-linejoin="round"/>
<path d="M376.093 274.885C356.652 271.371 356.652 334.781 356.652 334.781" stroke="#263238" stroke-width="2" stroke-linecap="round" stroke-linejoin="round"/>
<path d="M358.981 334.395C358.981 334.395 347.71 228.606 380.372 228.606" stroke="#263238" stroke-width="2" stroke-linecap="round" stroke-linejoin="round"/>
<path d="M368.688 272.522C366.053 269.535 360.386 269.535 357.066 277.169C353.745 284.803 356.732 283.477 356.732 283.477C356.732 283.477 363.04 281.483 367.028 280.156C371.016 278.83 376.322 275.509 376.691 277.521C377.06 279.532 374.056 281.5 370.384 282.168C366.712 282.836 357.101 285.489 358.085 287.439C359.069 289.389 361.406 295.398 361.406 295.398C364.245 292.991 367.242 290.775 370.375 288.765C374.688 286.13 377.341 287.105 375.022 290.092C372.703 293.079 366.053 296.4 367.388 300.379C368.723 304.359 376.683 309.349 376.683 309.349C376.683 309.349 377.675 301.047 380.003 298.394C382.331 295.741 382.323 298.719 381.664 303.366C381.329 305.346 381.107 307.343 380.996 309.349L390.291 312.669C391.81 310.353 393.474 308.135 395.272 306.028L396.932 304.368C396.932 304.368 389.623 298.06 389.298 294.072C388.973 290.083 394.279 294.072 395.93 294.739C397.582 295.407 400.253 300.054 400.253 300.054C400.253 300.054 401.913 292.411 402.238 289.758L402.572 287.123C402.572 287.123 395.605 284.487 392.908 284.487C390.211 284.487 388.929 286.481 388.929 283.828C388.929 281.175 391.564 279.515 394.569 279.84C397.273 280.293 399.938 280.96 402.537 281.834C402.537 281.834 404.531 280.174 403.863 275.193C403.196 270.212 401.544 270.22 397.556 271.547C393.567 272.873 390.923 275.86 387.936 275.86C384.949 275.86 386.601 272.206 388.595 271.213C390.589 270.22 395.57 268.226 396.563 267.892C397.556 267.558 391.292 262.911 387.936 262.252C384.58 261.593 380.311 263.921 380.627 267.225C381.303 274.156 371.341 275.509 368.688 272.522Z" fill="#FD7350"/>
<path d="M390.053 306.704C390.158 307.706 390.228 308.707 390.264 309.7" stroke="#263238" stroke-linecap="round" stroke-linejoin="round"/>
<path d="M383.386 282.871C386.307 289.446 388.408 296.356 389.641 303.445" stroke="#263238" stroke-linecap="round" stroke-linejoin="round"/>
<path d="M382.19 280.209C380.547 276.695 379.309 274.516 379.309 274.516C381.121 273.659 382.626 272.267 383.622 270.528C384.397 268.956 385.536 267.592 386.943 266.548" stroke="#263238" stroke-linecap="round" stroke-linejoin="round"/>
<path d="M367.687 285.805C367.687 285.805 379.643 280.824 379.643 281.816" stroke="#263238" stroke-linecap="round" stroke-linejoin="round"/>
<path d="M386.284 279.497C386.284 279.497 391.555 276.862 396.238 276.862" stroke="#263238" stroke-linecap="round" stroke-linejoin="round"/>
<path d="M384.29 287.465C381.987 289.357 379.874 291.47 377.982 293.773C376.041 296.057 374.473 298.634 373.335 301.407" stroke="#263238" stroke-linecap="round" stroke-linejoin="round"/>
<path d="M387.944 288.792C387.944 288.792 394.911 286.798 398.565 290.118" stroke="#263238" stroke-linecap="round" stroke-linejoin="round"/>
<path d="M400.568 243.936C396.957 241.792 392.96 241.748 391.001 239.49C389.042 237.233 392.881 236.091 394.946 236.943C397.01 237.795 401.772 240.255 402.676 240.782C403.581 241.309 402.949 233.508 401.28 230.565C399.61 227.622 395.016 225.918 392.732 228.316C387.9 233.394 380.363 226.743 380.881 222.773C381.399 218.802 377.666 214.55 369.759 217.054C361.853 219.557 364.778 220.945 364.778 220.945C364.778 220.945 370.409 224.398 374.029 226.533C377.648 228.667 383.631 230.512 382.348 232.067C381.065 233.622 377.595 232.673 374.696 230.31C371.797 227.947 363.487 222.465 362.635 224.521C361.782 226.577 358.795 232.252 358.795 232.252C362.476 232.816 366.115 233.623 369.689 234.668C374.521 236.187 375.513 238.84 371.727 239.06C367.941 239.28 361.088 236.425 358.954 240.044C356.819 243.663 358.277 252.94 358.277 252.94C358.277 252.94 365.2 248.249 368.731 248.267C372.263 248.284 369.996 250.234 366.052 252.782C364.341 253.829 362.69 254.97 361.106 256.199L364.699 265.371C367.442 264.997 370.206 264.798 372.974 264.774L375.311 264.941C375.311 264.941 375.311 255.277 378.079 252.431C380.846 249.584 381.347 256.191 381.935 257.877C382.524 259.564 380.749 264.616 380.749 264.616C380.749 264.616 387.601 260.864 389.824 259.345L392.047 257.851C392.047 257.851 389.481 250.823 387.742 248.838C386.003 246.852 383.631 247.133 385.634 245.394C387.637 243.655 390.632 244.577 392.345 247.046C393.774 249.386 395.017 251.836 396.061 254.372C396.061 254.372 398.618 254.785 401.947 251.016C405.277 247.248 404.179 246.044 400.568 243.936ZM369.153 254.557C366.517 253.23 372.799 250.577 372.799 250.577C375.127 250.243 371.806 255.883 369.153 254.557ZM373.625 242.161C372.491 241.599 375.891 240.466 375.891 240.466C380.793 241.406 374.758 242.732 373.625 242.161Z" fill="#FD7350"/>
<path d="M369.084 261.321C368.39 262.05 367.678 262.762 366.949 263.447" stroke="#263238" stroke-linecap="round" stroke-linejoin="round"/>
<path d="M382.71 240.659C379.657 247.171 375.822 253.287 371.289 258.87" stroke="#263238" stroke-linecap="round" stroke-linejoin="round"/>
<path d="M383.93 238.015C385.529 234.448 386.346 232.102 386.346 232.102C388.178 232.91 390.214 233.136 392.179 232.752C393.874 232.307 395.65 232.271 397.362 232.647" stroke="#263238" stroke-linecap="round" stroke-linejoin="round"/>
<path d="M370.199 230.732C370.199 230.732 381.795 236.486 381.049 237.145" stroke="#263238" stroke-linecap="round" stroke-linejoin="round"/>
<path d="M387.154 240.633C387.154 240.633 392.636 242.899 395.685 246.413" stroke="#263238" stroke-linecap="round" stroke-linejoin="round"/>
<path d="M379.828 244.349C376.888 243.853 373.908 243.644 370.929 243.725C367.94 243.762 364.976 244.266 362.144 245.218" stroke="#263238" stroke-linecap="round" stroke-linejoin="round"/>
<path d="M381.225 247.977C381.225 247.977 387.295 251.939 387.181 256.876" stroke="#263238" stroke-linecap="round" stroke-linejoin="round"/>
<path d="M348.982 289.969C346.075 288.212 342.833 288.212 341.278 286.393C339.723 284.575 342.798 283.661 344.458 284.347C346.118 285.032 349.949 286.982 350.678 287.439C351.407 287.896 350.898 281.579 349.553 279.216C348.209 276.853 344.511 275.465 342.675 277.398C338.783 281.483 332.721 276.133 333.143 272.944C333.565 269.755 330.578 266.32 324.182 268.332C317.787 270.343 320.176 271.459 320.176 271.459C320.176 271.459 324.718 274.244 327.626 275.957C330.534 277.67 335.348 279.155 334.32 280.411C333.292 281.667 330.499 280.894 328.171 279.032C325.843 277.169 319.149 272.706 318.507 274.367C317.866 276.027 315.415 280.587 315.415 280.587C318.383 281.039 321.318 281.687 324.2 282.528C328.092 283.749 328.882 285.893 325.843 286.042C322.803 286.191 317.286 283.916 315.564 286.833C313.842 289.749 315.02 297.208 315.02 297.208C315.02 297.208 320.589 293.43 323.427 293.448C326.264 293.465 324.455 295.029 321.275 297.076C319.901 297.922 318.572 298.84 317.295 299.826L320.185 307.231C322.393 306.931 324.617 306.77 326.844 306.748L328.733 306.889C328.733 306.889 328.733 299.123 330.956 296.812C333.178 294.502 333.591 299.843 334.057 301.205C334.522 302.567 333.099 306.625 333.099 306.625C333.099 306.625 338.616 303.603 340.408 302.408L342.165 301.205C342.165 301.205 340.101 295.574 338.695 293.957C337.29 292.341 335.383 292.587 337 291.181C338.616 289.776 341.023 290.522 342.394 292.517C343.549 294.395 344.551 296.363 345.389 298.403C345.389 298.403 347.454 298.736 350.124 295.706C352.795 292.675 351.89 291.656 348.982 289.969ZM323.699 298.517C321.564 297.454 326.633 295.31 326.633 295.31C328.469 295.011 325.834 299.553 323.699 298.482V298.517ZM327.301 288.546C326.423 288.089 329.12 287.175 329.12 287.175C333.064 287.904 328.206 288.967 327.301 288.511V288.546Z" fill="#FD7350"/>
<path d="M323.639 303.928C323.085 304.517 322.514 305.088 321.926 305.633" stroke="#263238" stroke-linecap="round" stroke-linejoin="round"/>
<path d="M334.62 287.333C332.161 292.576 329.069 297.497 325.413 301.987" stroke="#263238" stroke-linecap="round" stroke-linejoin="round"/>
<path d="M335.595 285.164C336.877 282.3 337.536 280.411 337.536 280.411C339.013 281.059 340.653 281.24 342.236 280.929C343.598 280.574 345.025 280.547 346.4 280.85" stroke="#263238" stroke-linecap="round" stroke-linejoin="round"/>
<path d="M324.544 279.304C324.544 279.304 333.874 283.942 333.267 284.47" stroke="#263238" stroke-linecap="round" stroke-linejoin="round"/>
<path d="M338.188 287.272C338.188 287.272 342.58 289.099 345.057 291.928" stroke="#263238" stroke-linecap="round" stroke-linejoin="round"/>
<path d="M332.292 290.268C329.928 289.868 327.53 289.701 325.132 289.767C322.721 289.791 320.328 290.197 318.043 290.97" stroke="#263238" stroke-linecap="round" stroke-linejoin="round"/>
<path d="M333.417 293.193C333.417 293.193 338.301 296.373 338.214 300.344" stroke="#263238" stroke-linecap="round" stroke-linejoin="round"/>
<path d="M337.124 235.116C337.124 235.116 333.469 237.751 331.15 235.116C328.831 232.48 332.143 227.148 328.822 225.153C325.501 223.159 320.195 226.814 320.195 226.814C320.195 226.814 324.508 227.806 324.508 230.134C324.508 232.463 322.514 233.455 322.18 232.454C321.847 231.452 319.545 226.48 316.207 228.808C315.248 229.452 314.429 230.284 313.801 231.253C313.173 232.223 312.748 233.309 312.552 234.448C312.552 234.448 320.52 233.121 321.188 236.108C321.855 239.095 317.867 235.774 314.546 235.774C311.225 235.774 308.239 236.442 308.572 238.41C308.754 240.177 308.754 241.958 308.572 243.725C310.293 242.122 312.53 241.187 314.88 241.089C318.535 241.089 318.535 243.409 315.214 243.409C311.893 243.409 309.24 246.729 309.24 246.729C309.24 246.729 312.552 251.71 316.54 254.038C320.529 256.366 321.855 255.365 322.18 253.371C322.505 251.377 321.188 246.395 323.516 246.395C325.844 246.395 320.195 255.365 323.199 255.708C326.204 256.05 328.47 255.04 329.173 253.072L329.841 251.078C329.841 251.078 328.47 246.044 328.822 244.076C329.173 242.108 329.823 244.076 330.482 246.395C331.141 248.715 331.809 254.363 332.81 254.038C333.812 253.713 336.79 249.391 337.457 247.731C338.125 246.07 332.81 241.423 332.81 240.422C332.81 239.42 336.79 241.089 337.457 242.082C338.125 243.075 338.784 244.41 338.784 244.41C338.784 244.41 341.103 242.75 340.778 238.102C340.453 233.455 337.124 235.116 337.124 235.116Z" fill="#FD7350"/>
<path d="M318.525 247.151C320.818 243.944 324.227 239.596 327.161 237.435" stroke="#263238" stroke-linecap="round" stroke-linejoin="round"/>
<path d="M315.873 251.043C315.873 251.043 316.462 250.164 317.41 248.741" stroke="#263238" stroke-linecap="round" stroke-linejoin="round"/>
<path d="M328.821 238.138C328.821 238.138 332.81 243.119 333.802 248.425" stroke="#263238" stroke-linecap="round" stroke-linejoin="round"/>
<path d="M324.843 241.423C324.843 241.423 325.835 240.756 325.835 247.397" stroke="#263238" stroke-linecap="round" stroke-linejoin="round"/>
<path d="M327.162 235.116C327.162 235.116 329.156 233.121 327.83 229.467" stroke="#263238" stroke-linecap="round" stroke-linejoin="round"/>
<path d="M324.509 238.427L322.849 235.774" stroke="#263238" stroke-linecap="round" stroke-linejoin="round"/>
<path d="M321.521 241.423C321.521 241.423 316.54 238.138 313.535 238.138" stroke="#263238" stroke-linecap="round" stroke-linejoin="round"/>
<path d="M369.479 305.668C369.479 305.668 365.825 308.303 363.497 305.668C361.168 303.032 364.498 297.7 361.177 295.706C357.857 293.711 352.542 297.366 352.542 297.366C352.542 297.366 356.864 298.359 356.864 300.687C356.864 303.015 354.87 304.007 354.536 303.006C354.202 302.004 351.9 297.032 348.562 299.36C347.603 300.004 346.785 300.836 346.157 301.805C345.528 302.775 345.103 303.862 344.907 305C344.907 305 352.875 303.673 353.543 306.66C354.211 309.647 350.222 306.327 346.902 306.327C343.581 306.327 340.594 306.994 340.928 308.962C341.107 310.714 341.107 312.481 340.928 314.233C342.649 312.63 344.886 311.695 347.236 311.598C350.881 311.598 350.881 313.917 347.569 313.917C344.257 313.917 341.587 317.237 341.587 317.237C341.587 317.237 344.908 322.219 348.896 324.547C352.884 326.875 354.167 325.873 354.536 323.879C354.905 321.885 353.543 316.912 355.862 316.912C358.182 316.912 352.542 325.873 355.529 326.207C358.515 326.541 360.843 325.539 361.511 323.571L362.17 321.586C362.17 321.586 360.843 316.605 361.177 314.611C361.511 312.617 362.17 314.611 362.838 316.939C363.505 319.267 364.164 324.898 365.157 324.573C366.15 324.248 369.145 319.926 369.804 318.265C370.463 316.605 365.157 311.958 365.157 310.956C365.157 309.955 369.145 311.624 369.804 312.617C370.288 313.369 370.734 314.146 371.139 314.945C371.139 314.945 373.459 313.284 373.125 308.637C372.791 303.99 369.479 305.668 369.479 305.668Z" fill="#FD7350"/>
<path d="M350.882 317.703C353.175 314.497 356.574 310.148 359.517 307.987" stroke="#263238" stroke-linecap="round" stroke-linejoin="round"/>
<path d="M348.228 321.595C348.228 321.595 348.807 320.672 349.765 319.284" stroke="#263238" stroke-linecap="round" stroke-linejoin="round"/>
<path d="M361.177 308.655C361.177 308.655 365.156 313.636 366.158 318.942" stroke="#263238" stroke-linecap="round" stroke-linejoin="round"/>
<path d="M357.188 311.975C357.188 311.975 358.19 311.308 358.19 317.949" stroke="#263238" stroke-linecap="round" stroke-linejoin="round"/>
<path d="M359.517 305.668C359.517 305.668 361.511 303.674 360.175 300.019" stroke="#263238" stroke-linecap="round" stroke-linejoin="round"/>
<path d="M356.863 308.988L355.203 306.327" stroke="#263238" stroke-linecap="round" stroke-linejoin="round"/>
<path d="M353.876 311.975C353.876 311.975 348.895 308.655 345.908 308.655" stroke="#263238" stroke-linecap="round" stroke-linejoin="round"/>
<path d="M370.647 333.288H344.986V370.228H370.647V333.288Z" fill="white"/>
<path d="M51.7435 370.228H0" stroke="white" stroke-linejoin="round"/>
<path d="M389.087 370.228H61.4072" stroke="white" stroke-linejoin="round"/>
<path d="M228.505 225.839C228.505 225.839 225.245 245.227 227.626 256.349C230.007 267.471 234.988 282.089 235.532 284.399C236.077 286.71 233.696 296.953 234.654 304.534C235.612 312.116 237.799 335.95 237.799 335.95C237.799 335.95 237.395 341.888 238.3 343.338C239.129 344.729 239.558 346.322 239.538 347.941C239.609 349.637 238.405 351.376 239.538 352.597C240.672 353.818 241.533 354.846 241.585 356.111C241.638 357.376 241.682 358.641 241.717 359.484C241.752 360.328 235.155 370.114 235.269 373.075C235.383 376.035 237.904 376.15 241.48 374.946C245.055 373.742 248.2 368.331 248.2 368.331L248.517 370.861C248.657 370.914 248.807 370.937 248.957 370.93C249.107 370.924 249.254 370.887 249.389 370.822C249.524 370.757 249.645 370.666 249.744 370.553C249.844 370.441 249.919 370.309 249.966 370.167C250.245 368.629 250.325 367.061 250.203 365.502C250.203 364.624 250.95 362.937 250.845 360.187C250.712 358.132 250.418 356.091 249.966 354.082C249.966 354.082 250.713 351.517 250.845 350.454C250.976 349.391 249.966 348.582 250.669 345.806C251.372 343.03 252.426 342.978 252.426 341.291C252.441 339.584 252.231 337.883 251.802 336.231C251.328 334.772 253.384 322.631 253.322 320.936C253.261 319.24 253.489 314.584 253.489 314.584C253.489 314.584 255.738 307.082 255.624 304.13C255.51 301.179 255.369 281.702 255.369 281.702L255.088 274.516C255.088 274.516 255.72 285.058 256.994 290.742C258.268 296.426 260.614 312.608 262.019 316.148C263.425 319.689 265.454 328.078 266.218 331.434C266.983 334.79 268.09 341.308 268.09 341.308C267.691 342.686 267.604 344.136 267.835 345.551C267.915 346.688 268.101 347.814 268.388 348.916C268.388 348.916 267.027 351.929 267.273 352.764C267.499 354.162 267.625 355.574 267.65 356.99C267.65 357.622 266.289 360.003 265.155 363.649C264.022 367.294 260.183 371.669 263.495 375.139C266.807 378.609 272.465 371.819 273.378 368.19C274.292 364.562 276.365 357.912 276.55 357.271C277.344 355.882 277.858 354.351 278.061 352.764C278.244 351.147 278.244 349.514 278.061 347.897C278.464 346.714 278.759 345.497 278.939 344.26C279.088 342.775 278.939 339.604 278.939 339.604C278.939 339.604 282.189 325.548 282.453 320.848C282.717 316.148 281.039 306.511 280.758 304.824C280.476 303.138 280.758 299.114 280.064 297.875C279.37 296.637 277.946 292.455 277.946 292.455C277.946 292.455 288.488 268.973 290.061 256.208C291.633 243.444 291.054 232.893 290.333 230.802C289.613 228.711 288.91 226.84 288.91 226.84C288.91 226.84 280.055 233.113 260.903 230.477C241.752 227.842 234.303 226.875 232.379 226.313C231.117 225.967 229.812 225.807 228.505 225.839Z" fill="#263238" stroke="#263238" stroke-linejoin="round"/>
<path d="M246.479 96.6995C246.479 96.6995 241.41 97.1212 236.561 103.06C231.711 108.998 229.366 116.826 230.78 118.978C232.195 121.131 233.881 124.829 233.916 125.708C233.952 126.586 227.354 133.043 229.234 135.837C231.114 138.63 231.624 140.387 230.113 140.668C228.602 140.949 226.019 143.26 226.52 144.788C227.02 146.317 229.717 147.538 228.689 149.348C227.662 151.158 226.766 150.964 226.845 153.178C226.924 155.392 229.111 157.079 227.96 157.448C226.809 157.817 224.622 158.326 225.325 159.863C225.986 161.089 226.773 162.243 227.67 163.307C227.67 163.307 236.183 171.811 253.033 173.138C269.882 174.464 285.423 159.266 287.76 156.964C290.096 154.663 290.518 153.978 290.465 152.66C290.413 151.342 289.473 149.822 288.963 148.267C288.454 146.712 289.007 143.629 288.963 142.996C288.919 142.364 287.32 140.633 286.178 139.799C285.036 138.964 284.729 136.539 285.08 134.308C285.432 132.077 283.165 130.627 282.26 130.003C281.355 129.38 280.609 127.412 281.197 125.4C281.786 123.388 279.054 121.508 277.912 120.674C276.77 119.839 276.48 117.854 276.831 115.631C277.182 113.409 274.134 108.884 272.509 106.96C270.884 105.036 268.652 98.7113 260.157 96.4184C251.662 94.1255 246.479 96.6995 246.479 96.6995Z" fill="#263238" stroke="#263238" stroke-linejoin="round"/>
<path d="M257.241 144.033C257.241 144.033 247.727 149.48 241.252 151.641C234.777 153.802 234.496 168.209 234.637 171.793C234.777 175.378 231.211 197.753 233.442 200.626C235.674 203.498 255.967 202.91 262.933 202.427C269.9 201.944 274.819 203.437 279.405 201.548C283.991 199.659 284.562 198.175 284.474 195.847C284.386 193.519 284.861 168.113 284.667 163.246C284.474 158.379 283.148 151.456 281.399 150.068C279.651 148.68 276.005 147.529 270.655 146.053C265.305 144.578 257.241 144.033 257.241 144.033Z" fill="white" stroke="#263238" stroke-linejoin="round"/>
<path d="M231.43 208.752C231.43 208.752 227.916 227.086 227.986 228.773C228.007 229.983 227.913 231.192 227.705 232.383C227.705 232.383 235.418 234.624 238.598 234.922C241.779 235.221 248.78 235.362 251.776 236.091C254.772 236.82 267.229 236.091 271.63 235.098C276.031 234.105 279.176 233.113 281.68 232.375C283.739 231.71 285.758 230.924 287.724 230.02L290.201 228.263L285.009 209.428C285.009 209.428 275.97 210.843 267.106 211.607C258.242 212.371 241.445 210.289 239.108 209.964C236.771 209.639 231.43 208.752 231.43 208.752Z" fill="white" stroke="#263238" stroke-linejoin="round"/>
<path d="M239.363 223.555L239.108 225.944" stroke="#263238" stroke-linejoin="round"/>
<path d="M240.47 213.074L239.583 221.49" stroke="#263238" stroke-linejoin="round"/>
<path d="M239.092 213.601L237.036 220.664" stroke="#263238" stroke-linejoin="round"/>
<path d="M267.984 213.856L267.677 223.888" stroke="#263238" stroke-linejoin="round"/>
<path d="M275.048 224.099L275.487 226.84" stroke="#263238" stroke-linejoin="round"/>
<path d="M273.317 213.18L274.609 221.306" stroke="#263238" stroke-linejoin="round"/>
<path d="M284.473 195.864C284.376 193.545 284.86 168.13 284.666 163.263C284.57 160.812 284.341 161.787 283.788 159.257C280.713 162.139 273.905 166.9 260.508 168.446C251.723 169.416 242.854 167.623 235.137 163.316C234.746 166.124 234.591 168.96 234.671 171.793C234.812 175.387 231.245 197.753 233.476 200.626C235.708 203.498 256.001 202.91 262.967 202.427C269.934 201.944 274.854 203.437 279.439 201.548C284.025 199.659 284.543 198.192 284.473 195.864Z" fill="white" stroke="#263238" stroke-linejoin="round"/>
<path d="M261.703 195.135C263.939 194.943 266.162 194.623 268.362 194.178" stroke="#263238" stroke-linejoin="round"/>
<path d="M240.162 194.011C246.392 195.176 252.736 195.616 259.067 195.32" stroke="#263238" stroke-linejoin="round"/>
<path d="M242.807 191.156C243.769 192.458 245.043 193.498 246.512 194.179C247.981 194.861 249.598 195.162 251.214 195.056" stroke="#263238" stroke-linejoin="round"/>
<path d="M252.611 192.886C253.723 193.794 254.964 194.531 256.292 195.074" stroke="#263238" stroke-linejoin="round"/>
<path d="M264.523 194.538C266.061 193.081 267.352 191.384 268.345 189.513" stroke="#263238" stroke-linejoin="round"/>
<path d="M231.703 199.422C231.703 199.422 250.88 202.69 260.386 202.312C269.891 201.935 284.307 197.138 284.307 197.138L285.001 209.393C285.001 209.393 276.506 213.953 258.743 214.234C240.98 214.515 230.903 211.308 230.903 211.308L231.703 199.422Z" fill="#263238" stroke="#263238" stroke-linejoin="round"/>
<path d="M250.142 157.219C250.142 157.219 249.94 151.948 249.747 147.073C249.755 144.731 249.459 142.398 248.868 140.132C251.082 140.827 253.376 141.234 255.694 141.345C259.085 141.415 264.163 136.144 264.549 135.274C264.936 134.405 265.516 132.911 265.516 132.911C265.516 132.911 266.052 141.143 266.816 144.288C267.58 147.433 268.072 149.322 268.072 149.322" fill="white"/>
<path d="M250.142 157.219C250.142 157.219 249.94 151.948 249.747 147.073C249.755 144.731 249.459 142.398 248.868 140.132C251.082 140.827 253.376 141.234 255.694 141.345C259.085 141.415 264.163 136.144 264.549 135.274C264.936 134.405 265.516 132.911 265.516 132.911C265.516 132.911 266.052 141.143 266.816 144.288C267.58 147.433 268.072 149.322 268.072 149.322" stroke="#263238" stroke-miterlimit="10"/>
<path d="M253.252 148.531C258.4 145.702 262.836 139.14 262.836 139.14L263.135 136.917C261.308 138.762 258.057 141.397 255.659 141.31C253.341 141.199 251.047 140.792 248.833 140.097C249.424 142.363 249.719 144.696 249.712 147.037C249.755 148.136 249.799 149.251 249.834 150.323C250.704 149.919 251.794 149.33 253.252 148.531Z" fill="#263238" stroke="#263238" stroke-linejoin="round"/>
<path d="M268.731 118.179L265.358 118.53C265.358 118.53 265.288 118.047 265.085 117.265L264.655 116.861C263.996 116.255 263.777 116.475 262.731 116.299C261.686 116.123 261.176 114.463 261.106 112.785C261.036 111.107 258.91 110.755 256.52 109.157C254.561 107.848 253.683 105.08 253.428 104.114C252.641 104.02 251.848 103.991 251.056 104.026C250.707 105.795 250.046 107.487 249.106 109.025C247.507 111.414 246.022 111.265 245.653 112.539C245.284 113.813 244.283 115.341 243.439 115.587C242.596 115.833 240.496 115.921 240.531 116.975C240.567 118.029 240.013 119.743 239.389 120.191L238.924 120.533C239.302 122.914 239.802 124.838 239.802 125.259C239.802 126.138 240.048 131.593 242.499 134.677C244.95 137.761 249.659 144.551 255.158 144.34C260.658 144.13 265.006 136.548 265.78 134.615C266.553 132.683 266.755 127.166 266.755 127.166C267.875 126.044 268.77 124.716 269.39 123.257C270.304 120.867 268.731 118.179 268.731 118.179Z" fill="white" stroke="#263238" stroke-linejoin="round"/>
<path d="M239.055 117.45C238.994 115.965 240.373 113.373 241.005 113.347C242.303 112.944 243.403 112.07 244.089 110.896C244.467 109.824 244.212 108.779 245.257 108.313C246.303 107.848 246.232 106.372 246.232 106.372C246.232 106.372 243.395 109.447 241.734 110.36C240.56 110.966 239.515 111.796 238.66 112.802C238.382 114.699 238.382 116.625 238.66 118.521C238.81 118.39 238.925 118.223 238.994 118.036C239.063 117.849 239.084 117.647 239.055 117.45Z" fill="white" stroke="#263238" stroke-linejoin="round"/>
<path d="M250.897 133.271C250.897 133.271 252.233 135.125 254.719 133.544" stroke="#263238" stroke-linejoin="round"/>
<path d="M251.021 136.443C251.021 136.443 255.316 137.971 256.88 134.686" stroke="#263238" stroke-linejoin="round"/>
<path d="M246.557 125.426C246.68 126.305 246.399 127.052 245.934 127.113C245.468 127.175 245.011 126.568 244.888 125.69C244.765 124.811 245.046 124.073 245.503 124.003C245.96 123.933 246.443 124.557 246.557 125.426Z" fill="#263238"/>
<path d="M257.091 124.065C257.205 124.943 256.932 125.681 256.467 125.743C256.001 125.804 255.527 125.154 255.413 124.293C255.298 123.432 255.571 122.668 256.036 122.606C256.502 122.545 256.968 123.195 257.091 124.065Z" fill="#263238"/>
<path d="M241.99 122.176C241.99 122.176 242.974 120.234 246.383 120.524" stroke="#263238" stroke-linejoin="round"/>
<path d="M253.797 119.83C253.797 119.83 257.118 118.214 259.736 120.234" stroke="#263238" stroke-linejoin="round"/>
<path d="M247.024 120.937C247.024 120.937 249.888 123.792 250.003 126.753" stroke="#263238" stroke-linejoin="round"/>
<path d="M259.437 237.259C259.437 237.259 255.967 240.571 255.229 248.68C254.491 256.788 254.491 273.049 254.491 273.049C254.491 273.049 255.018 278.417 255.255 281.694" stroke="#808080" stroke-linejoin="round"/>
<path d="M255.862 241.959C254.699 241.142 253.65 240.173 252.743 239.078" stroke="#808080" stroke-linejoin="round"/>
<path d="M263.347 320.532C264.454 324.389 265.578 329.088 266.105 331.399C266.87 334.755 267.977 341.273 267.977 341.273C267.578 342.651 267.491 344.101 267.722 345.516C267.802 346.653 267.988 347.779 268.275 348.881C268.275 348.881 266.914 351.894 267.16 352.729C267.385 354.127 267.512 355.539 267.537 356.954C267.537 357.587 266.176 359.968 265.042 363.613C263.909 367.259 260.07 371.634 263.382 375.104C266.694 378.574 272.352 371.783 273.265 368.155C274.179 364.527 276.252 357.877 276.437 357.236C277.231 355.847 277.745 354.316 277.948 352.729C278.131 351.112 278.131 349.479 277.948 347.862C278.351 346.679 278.646 345.462 278.826 344.225C278.975 342.74 278.826 339.569 278.826 339.569C278.826 339.569 282.076 325.513 282.34 320.813C282.377 319.767 282.36 318.721 282.287 317.677C276.424 320.572 269.804 321.57 263.347 320.532Z" fill="#595959" stroke="#263238" stroke-linejoin="round"/>
<path d="M248.086 368.296L248.403 370.826C248.543 370.878 248.693 370.902 248.843 370.895C248.993 370.889 249.14 370.852 249.275 370.787C249.41 370.722 249.531 370.631 249.63 370.518C249.729 370.406 249.805 370.274 249.852 370.132C250.131 368.594 250.211 367.026 250.089 365.467C250.089 364.589 250.836 362.902 250.731 360.152C250.598 358.097 250.304 356.056 249.852 354.047C249.852 354.047 250.599 351.481 250.731 350.418C250.862 349.355 249.852 348.547 250.555 345.771C251.258 342.995 252.312 342.942 252.312 341.256C252.327 339.549 252.117 337.848 251.688 336.196C251.214 334.737 253.269 322.596 253.208 320.901C253.208 320.374 253.208 319.557 253.208 318.678C247.594 320.813 240.549 319.899 236.077 318.915C236.956 327.384 237.702 335.906 237.702 335.906C237.702 335.906 237.298 341.844 238.203 343.294C239.032 344.685 239.461 346.278 239.442 347.897C239.512 349.593 238.309 351.332 239.442 352.553C240.575 353.774 241.436 354.802 241.489 356.067C241.541 357.332 241.585 358.597 241.621 359.441C241.656 360.284 235.058 370.07 235.172 373.031C235.287 375.991 237.808 376.106 241.383 374.902C244.959 373.699 248.086 368.296 248.086 368.296Z" fill="#595959" stroke="#263238" stroke-linejoin="round"/>
<path d="M249.571 148.144C249.571 148.144 244.941 159.565 243.606 168.482C242.271 177.398 240.092 192.956 239.214 195.952C238.335 198.948 235.867 202.435 232.924 219.057C229.981 235.678 232.045 255.075 232.045 255.075C232.045 255.075 231.228 255.954 227.609 255.462C225.114 255.06 222.673 254.373 220.335 253.415C220.335 253.415 221.714 234.738 223.348 227.938C224.982 221.139 228.795 204.869 228.795 204.869L228.698 197.041C227.498 200.306 226.048 203.472 224.358 206.512C221.986 210.632 219.509 212.204 215.494 212.362C211.479 212.521 208.642 205.018 211.348 198.561C214.053 192.104 216.689 183.75 218.209 179.234C219.729 174.719 224.446 160.364 227.934 157.474C231.421 154.584 247.867 147.784 249.571 148.144Z" fill="#FD7350" stroke="#263238" stroke-linejoin="round"/>
<path d="M268.731 145.272C268.731 145.272 267.852 170.915 269.249 179.955C270.646 188.994 275.557 200.45 277.015 205.264C278.473 210.078 280.213 227.358 281.53 233.868C282.848 240.378 282.409 256.05 282.409 256.05C282.409 256.05 285.791 255.918 287.917 256.05C290.043 256.182 298.529 251.605 298.529 251.605C298.529 251.605 297.431 239.798 295.209 231.637C292.986 223.475 288.708 206.283 288.137 202.497C287.566 198.711 286.547 194.511 286.503 193.246C286.459 191.981 288.26 184.461 288.26 184.461C288.26 184.461 294.734 166.013 294.075 160.109C293.416 154.206 285.879 150.912 282.216 149.146C278.552 147.38 268.731 145.272 268.731 145.272Z" fill="#FD7350" stroke="#263238" stroke-linejoin="round"/>
<path d="M287.11 182.221L292.135 202.339C292.135 202.339 290.985 205.343 291.863 206.16C292.375 206.652 292.687 207.315 292.741 208.023C292.741 208.023 292.012 211.018 292.917 212.415C293.822 213.812 297.951 243.54 297.951 243.54C297.951 243.54 294.499 247.054 294.551 248.539C294.575 249.988 294.346 251.429 293.875 252.8C293.497 253.88 292.118 256.05 292.741 256.235C293.365 256.419 295.878 255.26 296.053 254.407C296.232 253.734 296.491 253.085 296.827 252.475L297.398 250.972C297.583 252.938 297.662 254.911 297.635 256.885C297.52 258.004 297.205 259.093 296.704 260.1C296.106 261.181 294.701 262.929 295.772 263.307C296.844 263.684 300.059 259.336 300.059 259.336C301.018 259.093 301.931 258.698 302.765 258.167C304.206 257.289 305.401 254.258 305.532 253.186C305.664 252.115 305.532 247.915 305.532 247.265C305.532 246.615 304.654 241.792 304.654 241.792C304.654 241.792 307.149 219.267 306.903 212.925C306.734 208.973 306.365 205.032 305.796 201.118L304.97 196.286C304.97 196.286 303.064 169.272 300.086 163.457C297.108 157.641 292.267 153.187 288.428 152.282" fill="white"/>
<path d="M287.11 182.221L292.135 202.339C292.135 202.339 290.985 205.343 291.863 206.16C292.375 206.652 292.687 207.315 292.741 208.023C292.741 208.023 292.012 211.018 292.917 212.415C293.822 213.812 297.951 243.54 297.951 243.54C297.951 243.54 294.499 247.054 294.551 248.539C294.575 249.988 294.346 251.429 293.875 252.8C293.497 253.88 292.118 256.05 292.741 256.235C293.365 256.419 295.878 255.26 296.053 254.407C296.232 253.734 296.491 253.085 296.827 252.475L297.398 250.972C297.583 252.937 297.662 254.911 297.635 256.885C297.52 258.004 297.205 259.093 296.704 260.1C296.106 261.181 294.701 262.929 295.772 263.307C296.844 263.684 300.059 259.336 300.059 259.336C301.018 259.093 301.931 258.698 302.765 258.167C304.206 257.289 305.401 254.258 305.532 253.186C305.664 252.115 305.532 247.915 305.532 247.265C305.532 246.615 304.654 241.792 304.654 241.792C304.654 241.792 307.149 219.267 306.903 212.925C306.734 208.973 306.365 205.032 305.796 201.118L304.97 196.286C304.97 196.286 303.064 169.272 300.086 163.457C297.108 157.641 292.267 153.187 288.428 152.282" stroke="#263238" stroke-linejoin="round"/>
<path d="M286.749 181.571L292.134 202.339C292.134 202.339 290.983 205.343 291.862 206.16C292.373 206.652 292.686 207.315 292.74 208.023C292.74 208.023 292.011 211.018 292.916 212.415C293.174 213.087 293.356 213.785 293.461 214.497C295.982 212.854 301.763 209.999 306.129 214.647C306.341 214.89 306.605 215.082 306.902 215.209C306.902 214.33 306.902 213.54 306.902 212.925C306.733 208.973 306.364 205.032 305.795 201.118L304.969 196.286C304.969 196.286 303.063 169.272 300.085 163.457C297.107 157.641 291.229 153.231 287.382 152.317" fill="#FD7350"/>
<path d="M286.749 181.571L292.134 202.339C292.134 202.339 290.983 205.343 291.862 206.16C292.373 206.652 292.686 207.315 292.74 208.023C292.74 208.023 292.011 211.018 292.916 212.415C293.174 213.087 293.356 213.785 293.461 214.497C295.982 212.854 301.763 209.999 306.129 214.647C306.341 214.89 306.605 215.082 306.902 215.209C306.902 214.33 306.902 213.54 306.902 212.925C306.733 208.973 306.364 205.032 305.795 201.118L304.969 196.286C304.969 196.286 303.063 169.272 300.085 163.457C297.107 157.641 291.229 153.231 287.382 152.317" stroke="#263238" stroke-linejoin="round"/>
<path d="M219.966 174.262L227.266 196.418L239.187 195.961L233.099 172.593L219.966 174.262Z" fill="#263238" stroke="#263238" stroke-linejoin="round"/>
<path d="M227.505 200.564C227.822 200.344 228.071 200.04 228.225 199.686C228.673 198.509 229.437 196.998 229.437 196.998C229.437 196.998 233.171 195.364 233.654 195.012C234.137 194.661 237.397 193.712 237.853 192.869C238.31 192.025 238.301 191.533 236.667 192.087C235.033 192.64 229.991 194.169 229.991 194.169C229.991 194.169 230.799 193.809 231.44 193.448C232.082 193.088 236.439 190.444 236.931 190.259C237.423 190.075 237.546 189.082 237.186 188.441C236.826 187.8 236.544 188.792 235.077 189.319C233.61 189.847 228.234 191.577 228.234 191.577L231.124 189.486C231.607 189.135 235.982 187.15 235.982 187.15C235.982 187.15 237.274 186.438 237.238 185.612C237.203 184.786 236.711 184.646 236.219 184.83C235.727 185.015 232.442 185.305 231.309 185.849C230.175 186.394 226.459 188.344 226.459 188.344L228.128 184.655C228.128 184.655 232.626 181.501 233.276 181.316C233.927 181.132 235.218 180.245 235.033 179.559C234.849 178.874 233.522 178.795 233.522 178.795C233.522 178.795 227.821 180.666 226.705 181.87C225.59 183.073 223.393 185.63 223.393 185.63C222.957 184.581 222.636 183.488 222.436 182.371C222.436 181.378 222.33 179.568 221.628 178.602C220.925 177.635 220.749 177.978 220.749 177.978C220.749 177.978 220.749 183.249 220.477 183.759C220.204 184.268 222.805 192.544 222.805 192.544L223.929 195.97C221.749 196.292 219.552 196.488 217.349 196.558C215.698 196.453 213.51 199.51 213.168 203.323C213.094 204.144 213.19 204.971 213.45 205.753C213.71 206.535 214.128 207.255 214.679 207.868C215.23 208.481 215.901 208.975 216.65 209.317C217.4 209.66 218.212 209.844 219.036 209.859C221.997 209.736 224.21 207.346 225.308 205.818C226.08 204.574 226.641 203.212 226.969 201.785L227.505 200.564Z" fill="white" stroke="#263238" stroke-linejoin="round"/>
</svg>
