<svg width="44" height="44" viewBox="0 0 44 44" fill="none" xmlns="http://www.w3.org/2000/svg">
<circle cx="22.2325" cy="22.0369" r="21.4202" fill="#7743DC"/>
<path d="M13.9857 32.7812C13.5065 32.7812 13.0873 32.6016 12.7279 32.2422C12.3685 31.8828 12.1888 31.4635 12.1888 30.9844V20.832C11.6298 20.3529 11.2604 19.7639 11.0808 19.0651C10.9011 18.3663 10.921 17.6676 11.1407 16.9687L12.4284 12.9258C12.5881 12.3867 12.8677 11.9674 13.267 11.668C13.6663 11.3685 14.1255 11.2188 14.6446 11.2188H31.2058C31.7648 11.2188 32.254 11.3735 32.6732 11.6829C33.0925 11.9924 33.382 12.4067 33.5417 12.9258L34.8594 16.9687C35.079 17.6676 35.094 18.3663 34.9044 19.0651C34.7147 19.7639 34.3403 20.3529 33.7813 20.832V30.9844C33.7813 31.4635 33.6016 31.8828 33.2422 32.2422C32.8829 32.6016 32.4636 32.7812 31.9844 32.7812H13.9857ZM25.6954 19.9036C26.2743 19.9036 26.7635 19.714 27.1628 19.3346C27.5621 18.9553 27.7218 18.4961 27.642 17.957L26.8933 13.0156H23.8985V17.957C23.8985 18.4761 24.0682 18.9303 24.4076 19.3197C24.747 19.709 25.1763 19.9036 25.6954 19.9036ZM20.0951 19.9036C20.6541 19.9036 21.1283 19.714 21.5176 19.3346C21.907 18.9553 22.1016 18.4961 22.1016 17.957V13.0156H19.1068L18.3581 17.957C18.2782 18.4761 18.418 18.9303 18.7774 19.3197C19.1368 19.709 19.576 19.9036 20.0951 19.9036ZM14.6446 19.9036C15.1238 19.9036 15.538 19.7389 15.8874 19.4095C16.2368 19.0801 16.4415 18.6758 16.5014 18.1966L17.28 13.0156H14.2852L12.9076 17.388C12.7079 18.0069 12.7878 18.581 13.1472 19.11C13.5065 19.6391 14.0057 19.9036 14.6446 19.9036ZM31.3256 19.9036C31.9644 19.9036 32.4686 19.6441 32.8379 19.125C33.2073 18.6059 33.2921 18.0269 33.0925 17.388L31.7149 13.0156H28.7201L29.4988 18.1966C29.5586 18.6758 29.7633 19.0801 30.1127 19.4095C30.4621 19.7389 30.8664 19.9036 31.3256 19.9036ZM13.9857 30.9844H31.9844V21.6706C32.0044 21.6905 31.9395 21.7005 31.7898 21.7005H31.3256C30.8264 21.7005 30.3523 21.5957 29.9031 21.3861C29.4538 21.1764 29.0096 20.852 28.5704 20.4128C28.2509 20.8121 27.8516 21.1265 27.3725 21.3561C26.8933 21.5857 26.3642 21.7005 25.7852 21.7005C25.1863 21.7005 24.6721 21.6156 24.2429 21.446C23.8136 21.2763 23.3993 20.9918 23.0001 20.5924C22.7006 20.9518 22.3212 21.2263 21.862 21.416C21.4028 21.6057 20.8837 21.7005 20.3047 21.7005C19.6858 21.7005 19.1368 21.5907 18.6576 21.3711C18.1784 21.1515 17.7691 20.832 17.4297 20.4128C16.9506 20.832 16.4814 21.1515 16.0222 21.3711C15.563 21.5907 15.1038 21.7005 14.6446 21.7005H14.2403C14.1105 21.7005 14.0256 21.6905 13.9857 21.6706V30.9844Z" fill="white"/>
</svg>
