<svg width="90" height="96" viewBox="0 0 90 96" fill="none" xmlns="http://www.w3.org/2000/svg">
<mask id="mask0_20_307" style="mask-type:alpha" maskUnits="userSpaceOnUse" x="20" y="34" width="70" height="62">
<rect x="20.0152" y="34.0153" width="69" height="61" fill="#D9D9D9"/>
</mask>
<g mask="url(#mask0_20_307)">
<path d="M28.6402 84.6531V82.5025H80.3902V84.6531H28.6402ZM31.5152 77.6147V64.5153H36.8229V77.6147H31.5152ZM45.035 77.6147V51.8069H50.3428V77.6147H45.035ZM58.6213 77.6147V59.4319H63.929V77.6147H58.6213ZM72.2075 77.6147V44.1819H77.5152V77.6147H72.2075Z" fill="#FD7350"/>
</g>
<mask id="mask1_20_307" style="mask-type:alpha" maskUnits="userSpaceOnUse" x="1" y="1" width="58" height="58">
<rect x="1.7157" y="30" width="40" height="40" transform="rotate(-45 1.7157 30)" fill="#D9D9D9"/>
</mask>
<g mask="url(#mask1_20_307)">
<path d="M20.7585 37.5297L25.2451 35.7158C24.8573 34.5524 24.5236 33.3686 24.2441 32.1644C23.9646 30.9602 23.7599 29.7381 23.63 28.4981L21.2268 30.1322C21.0757 30.2229 20.9624 30.3437 20.8869 30.4948C20.8113 30.6459 20.7736 30.8121 20.7736 30.9934L20.7585 37.5297ZM26.6548 35.5541L33.6783 35.5519C34.2142 34.055 34.635 32.5056 34.9407 30.9035C35.2464 29.3015 35.3992 27.6936 35.3992 26.08C35.3992 23.4147 35.0139 21.0312 34.2434 18.9295C33.4728 16.8279 32.1067 14.6688 30.145 12.4522C28.1733 14.6788 26.8055 16.8345 26.0418 18.9193C25.278 21.0042 24.8961 23.3792 24.8961 26.0444C24.8961 27.6581 25.0527 29.2697 25.366 30.8793C25.6792 32.489 26.1088 34.0472 26.6548 35.5541ZM30.1276 25.9001C29.484 25.9102 28.9311 25.6842 28.469 25.2221C28.007 24.76 27.7759 24.2021 27.7759 23.5484C27.7759 22.8947 28.0111 22.3326 28.4815 21.8622C28.9519 21.3918 29.5139 21.1566 30.1677 21.1566C30.8214 21.1566 31.3793 21.3877 31.8414 21.8498C32.3035 22.3118 32.5295 22.8647 32.5194 23.5084C32.5194 24.1621 32.2842 24.7241 31.8138 25.1945C31.3434 25.6649 30.7813 25.9001 30.1276 25.9001ZM39.524 37.5523L39.5391 31.0161C39.5391 30.8348 39.4963 30.6686 39.4107 30.5175C39.3251 30.3664 39.2168 30.2455 39.0858 30.1549L36.6676 28.5359C36.5276 29.7658 36.32 30.9799 36.0448 32.1783C35.7695 33.3767 35.438 34.5677 35.0502 35.7513L39.524 37.5523ZM30.1654 10.5085C32.4872 12.6882 34.1781 15.0538 35.2383 17.6052C36.2984 20.1567 36.8235 22.9765 36.8134 26.0648C36.8134 26.2219 36.8159 26.3715 36.821 26.5136C36.826 26.6556 36.8235 26.8001 36.8134 26.9472L39.8421 28.9756C40.1845 29.2173 40.4479 29.5135 40.6323 29.864C40.8166 30.2146 40.9088 30.5903 40.9088 30.9912L40.9057 39.6306L34.3249 36.966L25.9499 36.9812L19.3465 39.5928L19.3488 30.9934C19.3588 30.5825 19.4526 30.1976 19.6302 29.8387C19.8077 29.4799 20.0727 29.1846 20.4253 28.9529L23.4917 26.9019C23.5018 26.7548 23.5013 26.6148 23.4902 26.4818C23.4791 26.3489 23.4786 26.2089 23.4887 26.0618C23.4887 22.9634 24.0185 20.1441 25.0781 17.6037C26.1378 15.0634 27.8336 12.6983 30.1654 10.5085ZM26.7001 43.0558C26.6901 42.1241 27.0174 41.3361 27.6822 40.692C28.347 40.0478 29.1453 39.7207 30.077 39.7106C30.9987 39.7106 31.7856 40.039 32.4378 40.6958C33.09 41.3525 33.4212 42.1467 33.4313 43.0785C33.4212 43.8954 33.1287 44.8738 32.5538 46.0138C31.9789 47.1538 31.1472 48.3798 30.0589 49.6917C28.9705 48.3798 28.1361 47.15 27.5557 46.0025C26.9752 44.8549 26.6901 43.8727 26.7001 43.0558ZM28.1347 43.0959C28.1478 43.6065 28.3245 44.2365 28.6647 44.9856C29.0049 45.7348 29.4749 46.4949 30.0747 47.266C30.6645 46.4848 31.1286 45.7188 31.4671 44.9679C31.8055 44.217 31.9762 43.5811 31.9793 43.0603C31.9954 42.5225 31.8163 42.0634 31.4421 41.6831C31.0679 41.3029 30.6053 41.1112 30.0544 41.1082C29.5034 41.1112 29.0442 41.3063 28.6768 41.6933C28.3094 42.0804 28.1287 42.5479 28.1347 43.0959Z" fill="#FD7350"/>
</g>
<mask id="mask2_20_307" style="mask-type:alpha" maskUnits="userSpaceOnUse" x="27" y="19" width="49" height="49">
<rect x="27" y="19" width="49" height="49" fill="#D9D9D9"/>
</mask>
<g mask="url(#mask2_20_307)">
<path d="M34.3631 53.9046L33.125 52.6666L45.9378 39.8014L54.2117 48.0754L67.0376 35.4145H59.8734V33.6869H69.875V43.6885H68.1553V36.6604L54.2039 50.638L45.9299 42.364L34.3631 53.9046Z" fill="#FD7350"/>
</g>
</svg>
