<svg width="46" height="46" viewBox="0 0 46 46" fill="none" xmlns="http://www.w3.org/2000/svg">
<path opacity="0.4" d="M8.98905 28.9208C7.30622 30.6046 6.47438 34.8145 6.70438 39.2948C11.2028 39.5267 15.4013 38.6862 17.0774 37.0091C19.7003 34.3871 19.869 30.8911 17.4895 28.5106C15.108 26.1301 11.612 26.2988 8.98905 28.9208ZM15.1713 34.1983C14.4726 34.897 12.7237 35.2468 10.8492 35.1509C10.7533 33.2841 11.0993 31.5284 11.8008 30.8279C12.8933 29.7354 14.3509 29.6645 15.3428 30.6563C16.3347 31.6482 16.2647 33.1058 15.1713 34.1983ZM10.048 16.0571L6.8328 22.4923C6.7318 22.7112 6.67575 22.9481 6.66797 23.189C6.66746 23.3943 6.70752 23.5976 6.78585 23.7874C6.86417 23.9771 6.97921 24.1495 7.12436 24.2947C7.26952 24.4398 7.44192 24.5549 7.63167 24.6332C7.82142 24.7115 8.02477 24.7516 8.23005 24.7511H14.3155C15.8411 21.6653 18.2868 16.7193 19.3851 14.5084L19.4847 14.335H12.8406C11.7768 14.335 10.5272 15.1074 10.049 16.059L10.048 16.0571ZM31.4926 26.6103C28.0814 28.3106 24.6672 30.0049 21.25 31.6933V37.7844C21.255 38.1957 21.4213 38.5885 21.7131 38.8783C22.0049 39.1682 22.3989 39.3318 22.8101 39.334C23.0497 39.3245 23.2845 39.2689 23.5011 39.1692L29.9286 35.953C30.8812 35.4768 31.6536 34.228 31.6536 33.1633V26.5537L31.667 26.5451V26.5106L31.4936 26.6103H31.4926Z" fill="#FD7350"/>
<path d="M39.5541 7.27075C39.5084 7.07169 39.4077 6.88947 39.2635 6.74479C39.1193 6.60011 38.9375 6.49879 38.7386 6.45233C36.6293 6 34.9455 6 33.3249 6C27.5213 6 23.1254 8.64404 19.4904 14.3212L19.385 14.5071C18.2858 16.718 15.8392 21.663 14.3135 24.7498H14.9997C16.6573 24.75 18.2469 25.4086 19.419 26.5807C20.5911 27.7528 21.2497 29.3424 21.2499 31V31.6929C24.3271 30.1692 29.2817 27.7178 31.4926 26.6099L31.6747 26.5064C37.3538 22.8561 39.9988 18.465 39.9988 12.6863C40.0036 11.0523 40.0084 9.39058 39.5541 7.27075ZM30.6244 18.4995C30.0062 18.4995 29.4025 18.3175 28.8888 17.9725C28.3739 17.6298 27.9723 17.142 27.735 16.5708C27.4977 15.9996 27.4355 15.3707 27.5561 14.7641C27.6767 14.1574 27.9748 13.6003 28.4126 13.1633C28.8503 12.7263 29.408 12.4292 30.0149 12.3097C30.6209 12.1888 31.2493 12.2504 31.8203 12.4869C32.3913 12.7233 32.8792 13.1239 33.2224 13.6379C33.6246 14.2389 33.8058 14.9609 33.735 15.6806C33.6642 16.4003 33.3459 17.0732 32.8343 17.5843C32.248 18.1701 31.4532 18.4993 30.6244 18.4995ZM11.8008 30.8275C11.0993 31.529 10.7524 33.2838 10.8482 35.1496C12.7227 35.2464 14.4726 34.8966 15.1712 34.198C16.2637 33.1055 16.3337 31.6488 15.3428 30.656C14.3509 29.6641 12.8933 29.735 11.8008 30.8275Z" fill="#FD7350"/>
</svg>
