<svg width="34" height="34" viewBox="0 0 34 34" fill="none" xmlns="http://www.w3.org/2000/svg">
<path opacity="0.4" d="M2.98905 22.9208C1.30622 24.6046 0.474385 28.8145 0.704385 33.2948C5.2028 33.5267 9.40126 32.6862 11.0774 31.0091C13.7003 28.3871 13.869 24.8911 11.4895 22.5106C9.10801 20.1301 5.61201 20.2988 2.98905 22.9208ZM9.17126 28.1983C8.47263 28.897 6.72368 29.2468 4.84918 29.1509C4.75334 27.2841 5.0993 25.5284 5.8008 24.8279C6.8933 23.7354 8.35093 23.6645 9.3428 24.6563C10.3347 25.6482 10.2647 27.1058 9.17126 28.1983ZM4.04801 10.0571L0.832802 16.4923C0.731803 16.7112 0.675752 16.9481 0.667969 17.189C0.667463 17.3943 0.707522 17.5976 0.785845 17.7874C0.864168 17.9771 0.979211 18.1495 1.12436 18.2947C1.26952 18.4398 1.44192 18.5549 1.63167 18.6332C1.82142 18.7115 2.02477 18.7516 2.23005 18.7511H8.31547C9.84113 15.6653 12.2868 10.7193 13.3851 8.50842L13.4847 8.33496H6.84059C5.77684 8.33496 4.52718 9.10738 4.04897 10.059L4.04801 10.0571ZM25.4926 20.6103C22.0814 22.3106 18.6672 24.0049 15.25 25.6933V31.7844C15.255 32.1957 15.4213 32.5885 15.7131 32.8783C16.0049 33.1682 16.3989 33.3318 16.8101 33.334C17.0497 33.3245 17.2845 33.2689 17.5011 33.1692L23.9286 29.953C24.8812 29.4768 25.6536 28.228 25.6536 27.1633V20.5537L25.667 20.5451V20.5106L25.4936 20.6103H25.4926Z" fill="#7743DC"/>
<path d="M33.5541 1.27075C33.5084 1.07169 33.4077 0.889469 33.2635 0.744791C33.1193 0.600113 32.9375 0.498787 32.7386 0.452333C30.6293 -3.42727e-07 28.9455 0 27.3249 0C21.5213 0 17.1254 2.64404 13.4904 8.32121L13.385 8.50712C12.2858 10.718 9.83919 15.663 8.31352 18.7498H8.99969C10.6573 18.75 12.2469 19.4086 13.419 20.5807C14.5911 21.7528 15.2497 23.3424 15.2499 25V25.6929C18.3271 24.1692 23.2817 21.7178 25.4926 20.6099L25.6747 20.5064C31.3538 16.8561 33.9988 12.465 33.9988 6.68629C34.0036 5.05233 34.0084 3.39058 33.5541 1.27075ZM24.6244 12.4995C24.0062 12.4995 23.4025 12.3175 22.8888 11.9725C22.3739 11.6298 21.9723 11.142 21.735 10.5708C21.4977 9.99955 21.4355 9.37074 21.5561 8.7641C21.6767 8.15745 21.9748 7.6003 22.4126 7.16332C22.8503 6.72634 23.408 6.42923 24.0149 6.30967C24.6209 6.18876 25.2493 6.25043 25.8203 6.48688C26.3913 6.72334 26.8792 7.12392 27.2224 7.63792C27.6246 8.23894 27.8058 8.96091 27.735 9.68063C27.6642 10.4003 27.3459 11.0732 26.8343 11.5843C26.248 12.1701 25.4532 12.4993 24.6244 12.4995ZM5.80077 24.8275C5.09927 25.529 4.75236 27.2838 4.84819 29.1496C6.72269 29.2464 8.47261 28.8966 9.17123 28.198C10.2637 27.1055 10.3337 25.6488 9.34277 24.656C8.3509 23.6641 6.89327 23.735 5.80077 24.8275Z" fill="#7743DC"/>
</svg>
