<svg width="44" height="44" viewBox="0 0 44 44" fill="none" xmlns="http://www.w3.org/2000/svg">
<circle cx="22.2325" cy="22.0369" r="21.4202" fill="#7743DC"/>
<path d="M17.3698 21.2211C17.7292 20.5024 18.1135 19.7936 18.5228 19.0948C18.9321 18.3961 19.3663 17.7272 19.8255 17.0883L17.4596 16.6091L14.1953 19.8735L17.3698 21.2211ZM32.793 11.8774C30.7565 11.9772 28.9197 12.4115 27.2826 13.1801C25.6454 13.9488 24.0482 15.1117 22.4909 16.669C21.872 17.288 21.2331 18.0966 20.5742 19.0948C19.9154 20.0931 19.3264 21.1612 18.8073 22.2992L22.7904 26.2823C23.9284 25.7633 24.9965 25.1742 25.9948 24.5154C26.9931 23.8565 27.8017 23.2177 28.4206 22.5987C29.9779 21.0414 31.1409 19.4492 31.9095 17.822C32.6781 16.1949 33.1124 14.363 33.2122 12.3266C33.2122 12.2667 33.2022 12.2068 33.1823 12.1469C33.1623 12.087 33.1324 12.0371 33.0924 11.9972C33.0525 11.9572 33.0076 11.9273 32.9577 11.9073C32.9078 11.8874 32.8529 11.8774 32.793 11.8774ZM25.6953 19.4242C25.296 19.025 25.0964 18.5308 25.0964 17.9418C25.0964 17.3529 25.296 16.8587 25.6953 16.4594C26.0946 16.0601 26.5888 15.8604 27.1777 15.8604C27.7667 15.8604 28.2608 16.0601 28.6602 16.4594C29.0595 16.8587 29.2591 17.3529 29.2591 17.9418C29.2591 18.5308 29.0595 19.025 28.6602 19.4242C28.2608 19.8236 27.7667 20.0232 27.1777 20.0232C26.5888 20.0232 26.0946 19.8236 25.6953 19.4242ZM23.8685 27.7498L25.2161 30.8943L28.4805 27.63L28.0312 25.2641C27.3923 25.7233 26.7185 26.1625 26.0098 26.5818C25.301 27.0011 24.5872 27.3904 23.8685 27.7498ZM35.0391 11.0089C35.099 13.5046 34.6947 15.8056 33.8262 17.9119C32.9577 20.0182 31.585 22.0098 29.7083 23.8865C29.6884 23.9065 29.6684 23.9215 29.6484 23.9314C29.6285 23.9414 29.6085 23.9564 29.5885 23.9763L30.2474 27.2706C30.3073 27.5701 30.2973 27.8596 30.2174 28.1391C30.1376 28.4186 29.9879 28.6682 29.7682 28.8878L25.5456 33.1104C25.3259 33.3301 25.0614 33.4099 24.752 33.35C24.4425 33.2901 24.2279 33.1104 24.1081 32.811L22.0716 28.1091L17.0104 23.018L12.2786 21.0115C11.9792 20.8917 11.8045 20.6721 11.7546 20.3526C11.7046 20.0332 11.7895 19.7637 12.0091 19.544L16.2018 15.3513C16.4215 15.1317 16.671 14.977 16.9505 14.8871C17.2301 14.7973 17.5195 14.7823 17.819 14.8422L21.1133 15.5011C21.1332 15.4811 21.1532 15.4661 21.1732 15.4561C21.1931 15.4462 21.2131 15.4312 21.2331 15.4112C23.1098 13.5345 25.0964 12.1619 27.1927 11.2934C29.2891 10.4249 31.5851 10.0206 34.0807 10.0805C34.2005 10.0805 34.3153 10.1055 34.4251 10.1554C34.5349 10.2053 34.6397 10.2802 34.7396 10.38C34.8394 10.4798 34.9143 10.5796 34.9642 10.6795C35.0141 10.7793 35.0391 10.8891 35.0391 11.0089ZM13.0872 26.6417C13.786 25.9429 14.6396 25.5885 15.6478 25.5785C16.656 25.5686 17.5095 25.913 18.2083 26.6117C18.9071 27.3105 19.2515 28.1641 19.2415 29.1723C19.2315 30.1806 18.8772 31.0341 18.1784 31.7328C17.24 32.6712 16.117 33.2353 14.8092 33.4249C13.5015 33.6146 12.1888 33.7992 10.8711 33.9789L11.4102 30.0258C11.5898 28.7081 12.1489 27.5801 13.0872 26.6417ZM14.3451 27.9295C13.8659 28.4486 13.5564 29.0475 13.4167 29.7263C13.2769 30.4052 13.1471 31.094 13.0273 31.7927C13.7261 31.6729 14.4149 31.5432 15.0938 31.4034C15.7725 31.2637 16.3715 30.9542 16.8906 30.475C17.29 30.1357 17.4896 29.7114 17.4896 29.2022C17.4896 28.6931 17.3099 28.2489 16.9505 27.8696C16.5712 27.5102 16.127 27.3305 15.6178 27.3305C15.1087 27.3305 14.6845 27.5302 14.3451 27.9295Z" fill="white"/>
</svg>
