<svg width="17" height="13" viewBox="0 0 17 13" fill="none" xmlns="http://www.w3.org/2000/svg">
<path d="M5.85996 12.9999C5.72285 12.9995 5.58729 12.9708 5.4617 12.9158C5.33612 12.8607 5.2232 12.7804 5.12996 12.6799L0.269964 7.50991C0.0882905 7.3163 -0.00903135 7.05845 -0.000592218 6.79309C0.00784692 6.52773 0.121356 6.27658 0.314964 6.09491C0.508572 5.91324 0.76642 5.81592 1.03178 5.82435C1.29715 5.83279 1.54829 5.9463 1.72996 6.13991L5.84996 10.5299L14.26 1.32991C14.3453 1.22363 14.4515 1.13593 14.572 1.07217C14.6924 1.00842 14.8247 0.969974 14.9606 0.95919C15.0964 0.948405 15.2331 0.965513 15.3621 1.00946C15.4911 1.05341 15.6098 1.12327 15.7108 1.21476C15.8119 1.30624 15.8932 1.41742 15.9497 1.54145C16.0062 1.66549 16.0367 1.79977 16.0395 1.93605C16.0422 2.07233 16.017 2.20772 15.9655 2.33392C15.914 2.46012 15.8373 2.57446 15.74 2.66991L6.59996 12.6699C6.50761 12.7723 6.39508 12.8544 6.26945 12.9112C6.14383 12.968 6.00782 12.9982 5.86996 12.9999H5.85996Z" fill="white"/>
</svg>
