<svg width="48" height="48" viewBox="0 0 48 48" fill="none" xmlns="http://www.w3.org/2000/svg">
<path d="M27.7076 7.70366C27.8897 7.51506 27.9905 7.26246 27.9882 7.00026C27.986 6.73807 27.8808 6.48725 27.6954 6.30184C27.51 6.11644 27.2592 6.01127 26.997 6.00899C26.7348 6.00671 26.4822 6.10751 26.2936 6.28966L24.0006 8.58266L21.7076 6.28966C21.6153 6.19415 21.505 6.11797 21.383 6.06556C21.261 6.01315 21.1298 5.98557 20.997 5.98441C20.8642 5.98326 20.7325 6.00856 20.6096 6.05884C20.4867 6.10912 20.3751 6.18338 20.2812 6.27727C20.1873 6.37116 20.113 6.48281 20.0627 6.60571C20.0125 6.72861 19.9872 6.86029 19.9883 6.99306C19.9895 7.12584 20.0171 7.25706 20.0695 7.37907C20.1219 7.50107 20.1981 7.61142 20.2936 7.70366L22.5866 9.99666L20.2936 12.2897C20.1114 12.4783 20.0106 12.7309 20.0129 12.9931C20.0152 13.2553 20.1203 13.5061 20.3058 13.6915C20.4912 13.8769 20.742 13.9821 21.0042 13.9843C21.2664 13.9866 21.519 13.8858 21.7076 13.7037L24.0006 11.4107L26.2936 13.7037C26.4812 13.8912 26.7357 13.9965 27.0009 13.9964C27.2662 13.9963 27.5206 13.8908 27.7081 13.7032C27.8956 13.5155 28.0009 13.2611 28.0008 12.9958C28.0007 12.7305 27.8952 12.4762 27.7076 12.2887L25.4146 9.99666L27.7076 7.70366ZM33.9496 32.1807C33.9911 32.3053 34.0077 32.4369 33.9983 32.5679C33.989 32.6989 33.9539 32.8268 33.8951 32.9443C33.8364 33.0618 33.755 33.1665 33.6557 33.2525C33.5565 33.3386 33.4412 33.4042 33.3166 33.4457L28.8166 34.9457C28.5649 35.0295 28.2902 35.0099 28.053 34.8912C27.8157 34.7724 27.6354 34.5644 27.5516 34.3127C27.4678 34.061 27.4874 33.7863 27.6061 33.5491C27.7248 33.3118 27.9329 33.1315 28.1846 33.0477L32.6846 31.5477C32.8092 31.5061 32.9408 31.4896 33.0718 31.4989C33.2028 31.5082 33.3307 31.5433 33.4482 31.6021C33.5657 31.6609 33.6704 31.7422 33.7565 31.8415C33.8425 31.9408 33.9081 32.056 33.9496 32.1807Z" fill="#726D7D"/>
<path fill-rule="evenodd" clip-rule="evenodd" d="M6.68445 26.449L10.0004 27.554V36C10.0005 36.2079 10.0653 36.4107 10.1859 36.58C10.3065 36.7494 10.4769 36.877 10.6734 36.945L23.6654 41.442C23.8709 41.515 24.0946 41.5189 24.3024 41.453L24.3164 41.449L24.3314 41.444L37.3274 36.945C37.524 36.877 37.6944 36.7494 37.815 36.58C37.9356 36.4107 38.0004 36.2079 38.0005 36V27.554L41.3165 26.449C41.4694 26.3981 41.6078 26.311 41.7198 26.1951C41.8319 26.0792 41.9143 25.938 41.9599 25.7834C42.0056 25.6288 42.0132 25.4655 41.9821 25.3073C41.9511 25.1491 41.8822 25.0008 41.7814 24.875L37.7814 19.875C37.6628 19.7273 37.5047 19.6163 37.3254 19.555L24.3274 15.055C24.1156 14.9817 23.8853 14.9817 23.6734 15.055L10.6754 19.555C10.4962 19.6163 10.3381 19.7273 10.2194 19.875L6.21945 24.875C6.11869 25.0008 6.04983 25.1491 6.01876 25.3073C5.98768 25.4655 5.9953 25.6288 6.04097 25.7834C6.08664 25.938 6.16901 26.0792 6.28105 26.1951C6.39309 26.311 6.53149 26.3981 6.68445 26.449ZM21.3194 30.573L23.0004 28.173V39.096L12.0004 35.288V28.22L20.1844 30.948C20.3889 31.0159 20.6098 31.016 20.8143 30.9483C21.0188 30.8805 21.196 30.7495 21.3194 30.573ZM14.0574 20.5L24.0004 23.942L33.9434 20.5L24.0004 17.058L14.0574 20.5ZM26.6814 30.574L25.0004 28.172V39.096L36.0004 35.288V28.22L27.8164 30.948C27.612 31.0159 27.3911 31.016 27.1866 30.9483C26.9821 30.8805 26.8049 30.7486 26.6814 30.572M11.3404 21.676L8.67745 25.005L14.1884 26.842L20.1084 28.815L22.4214 25.512L22.2864 25.465L11.3404 21.676ZM39.3235 25.005L36.6604 21.675L25.5794 25.512L27.8924 28.815L39.3235 25.005Z" fill="#726D7D"/>
</svg>
