<svg width="22" height="22" viewBox="0 0 22 22" fill="none" xmlns="http://www.w3.org/2000/svg">
<path d="M11 2.0625C6.06289 2.0625 2.0625 6.06289 2.0625 11V12.7188C2.0625 13.2902 1.60273 13.75 1.03125 13.75C0.459766 13.75 0 13.2902 0 12.7188V11C0 4.92422 4.92422 0 11 0C17.0758 0 22 4.92422 22 11V17.1918C22 19.2801 20.307 20.973 18.2145 20.973L13.475 20.9688C13.1184 21.5832 12.4523 22 11.6875 22H10.3125C9.17383 22 8.25 21.0762 8.25 19.9375C8.25 18.7988 9.17383 17.875 10.3125 17.875H11.6875C12.4523 17.875 13.1184 18.2918 13.475 18.9063L18.2188 18.9105C19.1684 18.9105 19.9375 18.1414 19.9375 17.1918V11C19.9375 6.06289 15.9371 2.0625 11 2.0625ZM6.1875 8.9375H6.875C7.63555 8.9375 8.25 9.55195 8.25 10.3125V15.125C8.25 15.8855 7.63555 16.5 6.875 16.5H6.1875C4.6707 16.5 3.4375 15.2668 3.4375 13.75V11.6875C3.4375 10.1707 4.6707 8.9375 6.1875 8.9375ZM15.8125 8.9375C17.3293 8.9375 18.5625 10.1707 18.5625 11.6875V13.75C18.5625 15.2668 17.3293 16.5 15.8125 16.5H15.125C14.3645 16.5 13.75 15.8855 13.75 15.125V10.3125C13.75 9.55195 14.3645 8.9375 15.125 8.9375H15.8125Z" fill="white"/>
</svg>
