<svg width="419" height="420" viewBox="0 0 419 420" fill="none" xmlns="http://www.w3.org/2000/svg">
<path d="M45.2939 372.481H373.706" stroke="white" stroke-linecap="round" stroke-linejoin="round"/>
<path d="M244.671 202.272V78.6744H252.305" stroke="white" stroke-linecap="round" stroke-linejoin="round"/>
<path d="M244.671 216.98V213.704" stroke="white" stroke-linecap="round" stroke-linejoin="round"/>
<path d="M271.939 78.6744H350.72V228.505H244.671" stroke="white" stroke-linecap="round" stroke-linejoin="round"/>
<path d="M262.286 78.6744H269.208" stroke="white" stroke-linecap="round" stroke-linejoin="round"/>
<path d="M346.731 82.6644H248.66V224.515H346.731V82.6644Z" stroke="white" stroke-linecap="round" stroke-linejoin="round"/>
<path d="M342.172 90.258V149.167H253.219V145.32" stroke="white" stroke-linecap="round" stroke-linejoin="round"/>
<path d="M253.219 136.315V86.8476H342.172" stroke="white" stroke-linecap="round" stroke-linejoin="round"/>
<path d="M253.219 142.372V138.634" stroke="white" stroke-linecap="round" stroke-linejoin="round"/>
<path d="M327.146 153.586H346.731" stroke="white" stroke-linecap="round" stroke-linejoin="round"/>
<path d="M320.183 153.586H322.956" stroke="white" stroke-linecap="round" stroke-linejoin="round"/>
<path d="M248.66 153.586H316.882" stroke="white" stroke-linecap="round" stroke-linejoin="round"/>
<path d="M292.764 149.167V147.134H300.968V148.285H297.7V149.167" stroke="white" stroke-linecap="round" stroke-linejoin="round"/>
<path d="M248.827 206.64C248.827 206.64 250.193 207.673 251.148 213.923C251.148 213.923 252.824 203.944 254.785 203.792C256.746 203.641 256.378 210.277 256.378 210.277C256.378 210.277 256.713 207.01 258.271 207.161C259.83 207.312 258.271 213.881 258.271 213.881C258.271 213.881 260.149 208.723 261.925 208.841C263.702 208.958 260.752 218.182 260.752 218.182C260.752 218.182 265.311 214.872 267.154 216.502C268.998 218.131 266.132 222.197 266.132 222.197C266.132 222.197 272.668 220.777 273.674 224.624" stroke="white" stroke-linecap="round" stroke-linejoin="round"/>
<path d="M273.683 220.92C273.683 220.92 276.532 219.047 278.778 219.92C278.778 219.92 277.353 217.745 278.778 216.418C280.202 215.09 282.029 219.92 282.029 219.92C282.029 219.92 282.239 211.814 285.088 212.226C287.937 212.638 285.088 219.92 285.088 219.92C285.088 219.92 290.174 215.401 291.398 216.972C292.621 218.543 290.56 220.92 290.56 220.92C291.48 220.658 292.451 220.641 293.38 220.869C294.308 221.097 295.162 221.563 295.856 222.222C295.856 222.222 299.267 218.736 303.055 218.232C303.055 218.232 300.541 210.899 301.756 209.42C302.971 207.942 305.2 215.821 305.2 215.821C305.2 215.821 306.172 210.697 309.39 210.294C309.39 210.294 306.733 208.849 307.521 206.657C308.309 204.464 311.971 207.178 311.971 207.178C311.971 207.178 310.462 203.322 312.851 202.264C315.239 201.205 316.203 205.489 316.203 205.489C316.203 205.489 316.873 201.004 319.672 201.289C322.471 201.575 321.566 206.699 321.566 206.699C321.566 206.699 324.206 202.6 325.622 203.011C328.446 203.851 327.591 210.336 327.591 210.336C327.591 210.336 331.53 207.589 332.552 208.858C333.574 210.126 328.446 213.738 328.446 213.738C328.446 213.738 332.359 214.166 334.798 216.46" stroke="white" stroke-linecap="round" stroke-linejoin="round"/>
<path d="M346.731 208.152C346.731 208.152 346.278 204.036 342.172 203.818C338.066 203.599 343.304 212.848 343.304 212.848C343.304 212.848 339.91 210.034 338.695 210.899C337.479 211.764 342.172 216.535 342.172 216.535C342.172 216.535 339.918 214.444 337.546 215.09C335.175 215.737 338.896 222.365 338.896 222.365C335.387 221.66 331.746 222.09 328.496 223.591" stroke="white" stroke-linecap="round" stroke-linejoin="round"/>
<path d="M206.727 335.706V372.263" stroke="white" stroke-linecap="round" stroke-linejoin="round"/>
<path d="M206.727 323.744V331.573" stroke="white" stroke-linecap="round" stroke-linejoin="round"/>
<path d="M53.2041 372.481V304.357H206.726V319.309" stroke="white" stroke-linecap="round" stroke-linejoin="round"/>
<path d="M75.5703 311.808H62.2461V366.232" stroke="white" stroke-linecap="round" stroke-linejoin="round"/>
<path d="M197.684 372.263V311.808H83.3057" stroke="white" stroke-linecap="round" stroke-linejoin="round"/>
<path d="M191.298 297.301H187.066" stroke="white" stroke-linecap="round" stroke-linejoin="round"/>
<path d="M180.991 297.301H49.3916V304.307H210.539V297.301H193.997" stroke="white" stroke-linecap="round" stroke-linejoin="round"/>
<path d="M58.4668 252.412C58.4668 252.412 71.0368 253.411 71.6066 262.735C71.6066 262.735 58.8271 268.632 58.4668 252.412Z" stroke="white" stroke-linecap="round" stroke-linejoin="round"/>
<path d="M83.4141 254.73C83.4141 254.73 90.4616 245.179 101.85 250.076C101.85 250.076 94.8947 261.618 83.4141 254.73Z" stroke="white" stroke-linecap="round" stroke-linejoin="round"/>
<path d="M100.887 224.574C100.887 224.574 102.915 242.945 86.2305 237.888C86.2305 237.888 91.5266 224.381 100.887 224.574Z" stroke="white" stroke-linecap="round" stroke-linejoin="round"/>
<path d="M80.3979 214.343C80.3979 214.343 93.5964 221.483 83.8924 232.302C83.8924 232.302 74.6409 224.574 80.3979 214.343Z" stroke="white" stroke-linecap="round" stroke-linejoin="round"/>
<path d="M64.166 230.765C64.166 230.765 78.5126 229.32 78.5126 242.626C78.5126 242.626 64.166 243.197 64.166 230.765Z" stroke="white" stroke-linecap="round" stroke-linejoin="round"/>
<path d="M74.917 270.253C74.7075 265.784 74.7075 260.039 77.431 253.966C83.7077 239.954 85.811 228.152 82.5512 219.836" stroke="white" stroke-linecap="round" stroke-linejoin="round"/>
<path d="M68.875 234.36C68.875 234.36 77.4729 237.787 80.3975 246.666" stroke="white" stroke-linecap="round" stroke-linejoin="round"/>
<path d="M96.3699 231.924C96.3699 231.924 91.4006 238.711 82.9619 237.98" stroke="white" stroke-linecap="round" stroke-linejoin="round"/>
<path d="M96.3697 252C96.3697 252 82.6014 255.973 77.0957 254.671" stroke="white" stroke-linecap="round" stroke-linejoin="round"/>
<path d="M62.5732 256.612C62.5732 256.612 68.7325 263.382 74.917 263.273" stroke="white" stroke-linecap="round" stroke-linejoin="round"/>
<path d="M91.2828 270.253H61.3746C61.1812 270.253 60.9958 270.33 60.859 270.467C60.7223 270.604 60.6455 270.79 60.6455 270.984V273.26C60.6455 273.356 60.6644 273.451 60.7012 273.539C60.7379 273.627 60.7917 273.707 60.8595 273.774C60.9274 273.841 61.0078 273.894 61.0962 273.93C61.1846 273.966 61.2792 273.984 61.3746 273.983H62.2126L64.8774 297.301H87.738L90.4029 273.983H91.2828C91.3777 273.984 91.472 273.966 91.5599 273.93C91.6478 273.894 91.7277 273.841 91.7949 273.774C91.862 273.706 91.9151 273.626 91.9509 273.538C91.9867 273.45 92.0046 273.356 92.0035 273.26V270.984C92.0046 270.888 91.9868 270.794 91.951 270.705C91.9153 270.616 91.8624 270.536 91.7954 270.468C91.7283 270.4 91.6485 270.346 91.5605 270.309C91.4725 270.272 91.3781 270.253 91.2828 270.253Z" stroke="white" stroke-miterlimit="10"/>
<path d="M64.166 273.983H81.5629" stroke="white" stroke-linecap="round" stroke-linejoin="round"/>
<path d="M84.8389 273.983H87.4534" stroke="white" stroke-linecap="round" stroke-linejoin="round"/>
<path d="M275.459 177.316L272.107 195.577L244.771 212.226L248.551 219.181C248.551 219.181 280.152 209.521 280.923 207.262C281.694 205.002 288.976 181.07 288.976 181.07L275.459 177.316Z" fill="#263238"/>
<path d="M287.434 146.437L285.607 168.58L284.644 180.197C279.373 182.767 274.219 178.903 273.9 178.651C275.333 174.434 277.001 150.637 287.434 146.437Z" fill="#999999" stroke="#263238" stroke-linecap="round" stroke-linejoin="round"/>
<path d="M285.574 168.58L284.61 180.197C279.339 182.767 274.186 178.903 273.867 178.651C274.093 178.752 276.867 179.928 278.669 178.651C278.039 177.969 277.477 177.226 276.993 176.434C276.884 175.997 278.669 175.879 278.669 175.879C278.669 175.879 277.496 166.463 280.621 162.439C281.845 160.91 283.756 164.102 285.574 168.58Z" fill="#263238"/>
<path d="M306.365 351.49L307.203 353.959C305.933 356.061 304.51 358.065 302.946 359.957C302.946 359.957 302.108 359.688 300.733 360.906C299.887 361.752 299.365 362.871 299.259 364.064C299.259 364.064 292.856 371.759 284.736 371.868C276.616 371.977 279.063 367.878 279.063 367.878L306.365 351.49Z" fill="#FD7350" stroke="#263238" stroke-linecap="round" stroke-linejoin="round"/>
<path d="M298.731 331.909C298.731 331.909 287.837 327.886 285.708 335.933C285.708 335.933 287.652 344.795 286.487 349.642C285.323 354.488 279.457 363.745 279.096 365.501C278.384 368.945 278.92 369.18 278.92 369.18C278.92 369.18 283.186 371.65 288.918 369.004C294.65 366.358 304.571 354.967 306.122 352.624C307.672 350.28 301.261 341.04 301.261 341.04L298.731 331.909Z" fill="white"/>
<mask id="mask0_505_5745" style="mask-type:luminance" maskUnits="userSpaceOnUse" x="278" y="330" width="29" height="41">
<path d="M298.731 331.909C298.731 331.909 287.837 327.886 285.708 335.933C285.708 335.933 287.652 344.795 286.487 349.642C285.323 354.488 279.457 363.745 279.096 365.501C278.384 368.945 278.92 369.18 278.92 369.18C278.92 369.18 283.186 371.65 288.918 369.004C294.65 366.358 304.571 354.967 306.122 352.624C307.672 350.28 301.261 341.04 301.261 341.04L298.731 331.909Z" fill="white"/>
</mask>
<g mask="url(#mask0_505_5745)">
<path opacity="0.4" d="M298.731 331.909C298.731 331.909 287.837 327.886 285.708 335.933C285.708 335.933 287.652 344.795 286.487 349.642C285.323 354.488 279.457 363.745 279.096 365.501C278.384 368.945 278.92 369.18 278.92 369.18C278.92 369.18 283.186 371.65 288.918 369.004C294.65 366.358 304.571 354.967 306.122 352.624C307.672 350.28 301.261 341.04 301.261 341.04L298.731 331.909Z" fill="#FD7350"/>
</g>
<path d="M298.731 331.909C298.731 331.909 287.837 327.886 285.708 335.933C285.708 335.933 287.652 344.795 286.487 349.642C285.323 354.488 279.457 363.745 279.096 365.501C278.384 368.945 278.92 369.18 278.92 369.18C278.92 369.18 283.186 371.65 288.918 369.004C294.65 366.358 304.571 354.967 306.122 352.624C307.672 350.28 301.261 341.04 301.261 341.04L298.731 331.909Z" stroke="#263238" stroke-linecap="round" stroke-linejoin="round"/>
<path d="M293.158 343.291C294.106 348.712 293.143 354.296 290.435 359.083" stroke="#263238" stroke-linecap="round" stroke-linejoin="round"/>
<path d="M290.435 361.2C290.029 362.223 289.4 363.142 288.594 363.889C287.787 364.636 286.824 365.193 285.775 365.518C283.579 366.107 281.267 366.107 279.071 365.518L281.686 360.209C284.461 361.317 287.482 361.66 290.435 361.2Z" fill="#FD7350" stroke="#263238" stroke-linecap="round" stroke-linejoin="round"/>
<path d="M291.976 357.983C291.976 357.983 286.278 358.327 283.303 357.143" stroke="#263238" stroke-linecap="round" stroke-linejoin="round"/>
<path d="M293.032 354.833C293.032 354.833 287.702 355.673 284.728 353.993" stroke="#263238" stroke-linecap="round" stroke-linejoin="round"/>
<path d="M293.937 351.33C293.937 351.33 289.269 352.01 286.219 350.566" stroke="#263238" stroke-linecap="round" stroke-linejoin="round"/>
<path d="M294.457 347.365C294.457 347.365 289.261 348.995 286.806 347.365" stroke="#263238" stroke-linecap="round" stroke-linejoin="round"/>
<path d="M295.236 337.571L296.141 343.291C296.141 343.291 289.269 347.827 284.728 342.157V336.185C284.728 336.185 286.437 340.2 295.236 337.571Z" fill="#FD7350" stroke="#263238" stroke-linecap="round" stroke-linejoin="round"/>
<path d="M289.27 209.16C282.306 231.277 260.694 266.75 262.881 275.831C264.08 280.787 271.211 308.868 276.792 321.191C278.912 325.903 283.496 329.053 283.496 329.053L286.806 336.168C294.876 339.688 297.767 332.531 297.767 332.531L296.141 324.467C300.466 316.588 298.655 316.588 293.032 275.747C292.37 270.934 303.507 256.057 303.507 256.057L309.223 293.488L310.153 324.148L313.119 333.623C313.119 333.623 313.857 342.518 313.79 343.056H327.055L328.497 333.278C328.497 333.278 334.656 327.457 334.656 320.737C334.656 314.017 333.332 279.787 334.656 269.816C335.98 259.846 331.555 213.36 331.555 213.36L289.27 209.16Z" fill="#263238"/>
<path d="M199.089 189.453L217.525 191.116C217.943 191.154 218.329 191.356 218.598 191.679C218.866 192.002 218.996 192.419 218.959 192.837L217.775 206.025L196.188 204.078L197.372 190.89C197.409 190.471 197.612 190.084 197.934 189.815C198.256 189.545 198.671 189.415 199.089 189.453Z" fill="#FD7350"/>
<mask id="mask1_505_5745" style="mask-type:luminance" maskUnits="userSpaceOnUse" x="196" y="189" width="23" height="18">
<path d="M199.089 189.453L217.525 191.116C217.943 191.154 218.329 191.356 218.598 191.679C218.866 192.002 218.996 192.419 218.959 192.837L217.775 206.025L196.188 204.078L197.372 190.89C197.409 190.471 197.612 190.084 197.934 189.815C198.256 189.545 198.671 189.415 199.089 189.453Z" fill="white"/>
</mask>
<g mask="url(#mask1_505_5745)">
<path opacity="0.3" d="M199.089 189.453L217.525 191.116C217.943 191.154 218.329 191.356 218.598 191.679C218.866 192.002 218.996 192.419 218.959 192.837L217.775 206.025L196.188 204.078L197.372 190.89C197.409 190.471 197.612 190.084 197.934 189.815C198.256 189.545 198.671 189.415 199.089 189.453Z" fill="black" fill-opacity="0.7"/>
<path opacity="0.3" d="M217.814 190.887L212.529 190.432L211.621 201.028L216.906 201.483L217.814 190.887Z" fill="white" fill-opacity="0.7"/>
</g>
<path d="M199.089 189.453L217.525 191.116C217.943 191.154 218.329 191.356 218.598 191.679C218.866 192.002 218.996 192.419 218.959 192.837L217.775 206.025L196.188 204.078L197.372 190.89C197.409 190.471 197.612 190.084 197.934 189.815C198.256 189.545 198.671 189.415 199.089 189.453Z" stroke="#263238" stroke-width="1.00404" stroke-linecap="round" stroke-linejoin="round"/>
<path d="M230.91 190.62L249.279 192.202C249.695 192.238 250.08 192.438 250.349 192.759C250.618 193.079 250.749 193.493 250.714 193.911L249.588 207.05L228.08 205.198L229.206 192.059C229.242 191.641 229.441 191.255 229.761 190.986C230.081 190.716 230.494 190.585 230.91 190.62Z" fill="#FD7350"/>
<mask id="mask2_505_5745" style="mask-type:luminance" maskUnits="userSpaceOnUse" x="228" y="190" width="23" height="18">
<path d="M230.91 190.62L249.279 192.202C249.695 192.238 250.08 192.438 250.349 192.759C250.618 193.079 250.749 193.493 250.714 193.911L249.588 207.05L228.08 205.198L229.206 192.059C229.242 191.641 229.441 191.255 229.761 190.986C230.081 190.716 230.494 190.585 230.91 190.62Z" fill="white"/>
</mask>
<g mask="url(#mask2_505_5745)">
<path opacity="0.3" d="M230.91 190.62L249.279 192.202C249.695 192.238 250.08 192.438 250.349 192.759C250.618 193.079 250.749 193.493 250.714 193.911L249.588 207.05L228.08 205.198L229.206 192.059C229.242 191.641 229.441 191.255 229.761 190.986C230.081 190.716 230.494 190.585 230.91 190.62Z" fill="black" fill-opacity="0.7"/>
<path opacity="0.3" d="M249.18 193.593L245.99 193.319L245.082 203.914L248.272 204.189L249.18 193.593Z" fill="white" fill-opacity="0.7"/>
</g>
<path d="M230.91 190.62L249.279 192.202C249.695 192.238 250.08 192.438 250.349 192.759C250.618 193.079 250.749 193.493 250.714 193.911L249.588 207.05L228.08 205.198L229.206 192.059C229.242 191.641 229.441 191.255 229.761 190.986C230.081 190.716 230.494 190.585 230.91 190.62Z" stroke="#263238" stroke-linecap="round" stroke-linejoin="round"/>
<path d="M224.239 190.041L242.607 191.623C243.023 191.659 243.408 191.859 243.677 192.179C243.946 192.5 244.078 192.914 244.042 193.331L242.916 206.471L221.408 204.619L222.534 191.479C222.57 191.062 222.77 190.676 223.089 190.406C223.409 190.137 223.822 190.005 224.239 190.041Z" fill="#FD7350" stroke="#263238" stroke-linecap="round" stroke-linejoin="round"/>
<path d="M255.958 192.778L274.327 194.36C274.743 194.396 275.128 194.596 275.397 194.916C275.666 195.237 275.797 195.651 275.762 196.069L274.636 209.2L253.128 207.348L254.255 194.208C254.292 193.792 254.493 193.409 254.812 193.141C255.131 192.873 255.543 192.743 255.958 192.778Z" fill="#FD7350" stroke="#263238" stroke-linecap="round" stroke-linejoin="round"/>
<path opacity="0.3" d="M242.863 193.045L237.578 192.59L236.67 203.185L241.955 203.641L242.863 193.045Z" fill="white" fill-opacity="0.7"/>
<path opacity="0.3" d="M274.235 195.744L268.95 195.289L268.042 205.884L273.327 206.339L274.235 195.744Z" fill="white" fill-opacity="0.7"/>
<path d="M284.242 206.968L279.054 267.389L181.938 258.989L187.126 198.576C187.168 198.076 187.308 197.589 187.538 197.144C187.768 196.698 188.084 196.303 188.467 195.979C188.85 195.656 189.293 195.412 189.77 195.261C190.248 195.11 190.75 195.055 191.249 195.098L280.764 202.81C281.266 202.851 281.754 202.991 282.202 203.223C282.649 203.455 283.046 203.774 283.369 204.16C283.693 204.547 283.936 204.994 284.086 205.476C284.236 205.958 284.289 206.465 284.242 206.968Z" fill="#FD7350"/>
<mask id="mask3_505_5745" style="mask-type:luminance" maskUnits="userSpaceOnUse" x="181" y="195" width="104" height="73">
<path d="M284.242 206.968L279.054 267.389L181.938 258.989L187.126 198.576C187.168 198.076 187.308 197.589 187.538 197.144C187.768 196.698 188.084 196.303 188.467 195.979C188.85 195.656 189.293 195.412 189.77 195.261C190.248 195.11 190.75 195.055 191.249 195.098L280.764 202.81C281.266 202.851 281.754 202.991 282.202 203.223C282.649 203.455 283.046 203.774 283.369 204.16C283.693 204.547 283.936 204.994 284.086 205.476C284.236 205.958 284.289 206.465 284.242 206.968Z" fill="white"/>
</mask>
<g mask="url(#mask3_505_5745)">
<path opacity="0.3" d="M284.242 206.968L279.054 267.389L181.938 258.989L187.126 198.576C187.168 198.076 187.308 197.589 187.538 197.144C187.768 196.698 188.084 196.303 188.467 195.979C188.85 195.656 189.293 195.412 189.77 195.261C190.248 195.11 190.75 195.055 191.249 195.098L280.764 202.81C281.266 202.851 281.754 202.991 282.202 203.223C282.649 203.455 283.046 203.774 283.369 204.16C283.693 204.547 283.936 204.994 284.086 205.476C284.236 205.958 284.289 206.465 284.242 206.968Z" fill="black" fill-opacity="0.7"/>
</g>
<path d="M284.242 206.968L279.054 267.389L181.938 258.989L187.126 198.576C187.168 198.076 187.308 197.589 187.538 197.144C187.768 196.698 188.084 196.303 188.467 195.979C188.85 195.656 189.293 195.412 189.77 195.261C190.248 195.11 190.75 195.055 191.249 195.098L280.764 202.81C281.266 202.851 281.754 202.991 282.202 203.223C282.649 203.455 283.046 203.774 283.369 204.16C283.693 204.547 283.936 204.994 284.086 205.476C284.236 205.958 284.289 206.465 284.242 206.968Z" stroke="#263238" stroke-linecap="round" stroke-linejoin="round"/>
<path d="M284.242 206.968L279.054 267.389L206.986 261.173L212.182 200.76C212.224 200.26 212.364 199.773 212.595 199.328C212.825 198.882 213.14 198.487 213.523 198.163C213.906 197.84 214.349 197.596 214.827 197.445C215.304 197.294 215.806 197.239 216.305 197.282L280.772 202.835C281.271 202.877 281.757 203.018 282.201 203.248C282.646 203.479 283.04 203.796 283.363 204.179C283.685 204.563 283.928 205.007 284.079 205.486C284.23 205.964 284.285 206.468 284.242 206.968Z" fill="#FD7350" stroke="#263238" stroke-linecap="round" stroke-linejoin="round"/>
<path opacity="0.3" d="M279.18 208.698L217.578 203.389C217.168 203.353 216.788 203.156 216.52 202.842C216.252 202.528 216.117 202.121 216.145 201.709C216.182 201.298 216.377 200.917 216.691 200.648C217.004 200.38 217.41 200.245 217.821 200.273L279.423 205.582C279.833 205.618 280.213 205.814 280.481 206.128C280.749 206.442 280.883 206.849 280.856 207.262C280.819 207.673 280.623 208.054 280.31 208.323C279.997 208.591 279.591 208.726 279.18 208.698Z" fill="white" fill-opacity="0.7"/>
<path d="M327.491 343.4C327.491 343.4 322.848 340.082 313.245 340.746C313.245 340.746 312.541 352.296 311.234 355.656C309.926 359.016 303.038 364.837 301.756 365.837C300.474 366.836 300.474 370.322 300.474 370.322H329.653C329.278 365.323 328.502 360.362 327.332 355.488L327.491 343.4Z" fill="white"/>
<mask id="mask4_505_5745" style="mask-type:luminance" maskUnits="userSpaceOnUse" x="300" y="340" width="30" height="31">
<path d="M327.491 343.4C327.491 343.4 322.848 340.082 313.245 340.746C313.245 340.746 312.541 352.296 311.234 355.656C309.926 359.016 303.038 364.837 301.756 365.837C300.474 366.836 300.474 370.322 300.474 370.322H329.653C329.278 365.323 328.502 360.362 327.332 355.488L327.491 343.4Z" fill="white"/>
</mask>
<g mask="url(#mask4_505_5745)">
<path opacity="0.4" d="M327.491 343.4C327.491 343.4 322.848 340.082 313.245 340.746C313.245 340.746 312.541 352.296 311.234 355.656C309.926 359.016 303.038 364.837 301.756 365.837C300.474 366.836 300.474 370.322 300.474 370.322H329.653C329.278 365.323 328.502 360.362 327.332 355.488L327.491 343.4Z" fill="#FD7350"/>
</g>
<path d="M327.491 343.4C327.491 343.4 322.848 340.082 313.245 340.746C313.245 340.746 312.541 352.296 311.234 355.656C309.926 359.016 303.038 364.837 301.756 365.837C300.474 366.836 300.474 370.322 300.474 370.322H329.653C329.278 365.323 328.502 360.362 327.332 355.488L327.491 343.4Z" stroke="#263238" stroke-linecap="round" stroke-linejoin="round"/>
<path d="M321.465 344.896C321.465 344.896 320.778 355.53 319.127 358.336C318.246 359.877 317.157 361.29 315.893 362.536" stroke="#263238" stroke-linecap="round" stroke-linejoin="round"/>
<path d="M315.089 364.006C315.089 364.006 313.622 365.837 311.996 366.08C310.371 366.324 301.781 365.837 301.781 365.837L305.284 362.796C305.284 362.796 312.407 361.595 315.089 364.006Z" fill="#FD7350" stroke="#263238" stroke-linecap="round" stroke-linejoin="round"/>
<path d="M318.122 361.511C318.122 361.511 311.904 357.932 307.471 360.671" stroke="#263238" stroke-linecap="round" stroke-linejoin="round"/>
<path d="M319.622 359.083C319.622 359.083 315.281 355.681 310.161 357.546" stroke="#263238" stroke-linecap="round" stroke-linejoin="round"/>
<path d="M321.466 355.379C321.466 355.379 316.79 351.733 311.862 354.052" stroke="#263238" stroke-linecap="round" stroke-linejoin="round"/>
<path d="M322.102 350.75C322.102 350.75 316.429 347.693 312.306 350.011" stroke="#263238" stroke-linecap="round" stroke-linejoin="round"/>
<path d="M329.645 370.322V372.481H326.293C326.293 372.481 323.418 370.801 320.686 372.481H304.949C303.286 372.476 301.644 372.106 300.139 371.398L300.465 370.322H329.645Z" fill="#FD7350" stroke="#263238" stroke-linecap="round" stroke-linejoin="round"/>
<path d="M325.463 342.72L324.717 347.432C324.717 347.432 315.96 344.585 311.125 346.433V340.637C311.125 340.637 320.117 337.478 325.463 342.72Z" fill="#FD7350" stroke="#263238" stroke-linecap="round" stroke-linejoin="round"/>
<path d="M334.932 225.313C334.932 225.313 316.32 228.967 298.06 223.037C293.903 221.709 289.925 219.869 286.219 217.56C286.219 217.56 286.27 216.384 286.303 214.46C286.454 206.951 286.412 188.059 282.465 183.38C279.951 180.432 277.982 162.204 282.834 152.989L297.675 141.028C318.222 145.051 322.563 150.503 325.957 162.263C326.586 164.413 327.172 166.774 327.826 169.378C328.538 172.217 329.209 175.686 329.846 179.458C332.929 198.24 334.932 225.313 334.932 225.313Z" fill="#999999"/>
<mask id="mask5_505_5745" style="mask-type:luminance" maskUnits="userSpaceOnUse" x="279" y="141" width="56" height="86">
<path d="M334.932 225.313C334.932 225.313 316.32 228.967 298.06 223.037C293.903 221.709 289.925 219.869 286.219 217.56C286.219 217.56 286.27 216.384 286.303 214.46C286.454 206.951 286.412 188.059 282.465 183.38C279.951 180.432 277.982 162.204 282.834 152.989L297.675 141.028C318.222 145.051 322.563 150.503 325.957 162.263C326.586 164.413 327.172 166.774 327.826 169.378C328.538 172.217 329.209 175.686 329.846 179.458C332.929 198.24 334.932 225.313 334.932 225.313Z" fill="white"/>
</mask>
<g mask="url(#mask5_505_5745)">
<path opacity="0.2" d="M329.846 179.458L321.466 216.98C321.466 216.98 309.357 220.34 298.069 223.037C293.909 221.709 289.928 219.87 286.22 217.56C286.22 217.56 286.27 216.384 286.304 214.46C296.443 209.261 311.242 201.617 311.125 201.256C310.932 200.693 311.125 181.096 311.125 181.096C311.125 181.096 324.533 177.979 325.958 162.238C326.586 164.388 327.173 166.748 327.826 169.352C328.539 172.2 329.209 175.644 329.846 179.458Z" fill="black"/>
</g>
<path d="M334.932 225.313C334.932 225.313 316.32 228.967 298.06 223.037C293.903 221.709 289.925 219.869 286.219 217.56C286.219 217.56 286.27 216.384 286.303 214.46C286.454 206.951 286.412 188.059 282.465 183.38C279.951 180.432 277.982 162.204 282.834 152.989L297.675 141.028C318.222 145.051 322.563 150.503 325.957 162.263C326.586 164.413 327.172 166.774 327.826 169.378C328.538 172.217 329.209 175.686 329.846 179.458C332.929 198.24 334.932 225.313 334.932 225.313Z" stroke="#263238" stroke-linecap="round" stroke-linejoin="round"/>
<path d="M298.328 125.328C298.328 125.328 291.775 134.736 300.49 142.078C300.49 142.078 289.915 153.972 286.437 152.334C284.97 151.645 286.437 147.353 286.437 147.353L280.303 135.979L298.328 125.328Z" fill="white" stroke="#263238" stroke-linecap="round" stroke-linejoin="round"/>
<path d="M296.191 130.2C298.236 121.237 297.255 107.89 284.727 109.074C275.945 109.914 269.685 114.786 272.157 126.596C273.188 131.578 274.034 138.634 278.593 145.001C279.859 146.765 293.099 140.524 292.294 135.475" fill="white"/>
<path d="M296.191 130.2C298.236 121.237 297.255 107.89 284.727 109.074C275.945 109.914 269.685 114.786 272.157 126.596C273.188 131.578 274.034 138.634 278.593 145.001C279.859 146.765 293.099 140.524 292.294 135.475" stroke="#263238" stroke-linecap="round" stroke-linejoin="round"/>
<path d="M278.267 124.597C279.15 124.254 280.101 124.124 281.044 124.215C281.987 124.307 282.896 124.619 283.697 125.126" stroke="#263238" stroke-linecap="round" stroke-linejoin="round"/>
<path d="M271.965 125.698C272.126 125.354 272.405 125.079 272.751 124.925C273.098 124.771 273.488 124.747 273.85 124.858" stroke="#263238" stroke-linecap="round" stroke-linejoin="round"/>
<path d="M275.099 127.562C275.099 127.562 272.518 132.275 272.51 132.947C272.501 133.619 275.686 133.846 275.686 133.846" fill="white"/>
<path d="M275.099 127.562C275.099 127.562 272.518 132.275 272.51 132.947C272.501 133.619 275.686 133.846 275.686 133.846" stroke="#263238" stroke-linecap="round" stroke-linejoin="round"/>
<path d="M280.647 128.52C280.647 129.032 280.421 129.452 280.102 129.469C279.784 129.486 279.516 129.066 279.499 128.554C279.482 128.041 279.725 127.621 280.044 127.613C280.362 127.604 280.63 128.024 280.647 128.52Z" fill="#263238"/>
<path d="M277.001 137.273C277.001 137.273 281.954 136.34 282.867 134.593" stroke="#263238" stroke-linecap="round" stroke-linejoin="round"/>
<path d="M271.931 118.44L275.786 117.314C275.786 117.314 281.191 114.794 282.339 115.147C283.487 115.5 285.817 119.087 285.742 121.136C285.742 121.136 289.378 124.345 289.839 128.999L290.946 128.495C290.946 128.495 290.887 124.295 293.267 124.404C295.647 124.513 296.719 127.369 296.56 128.268C296.401 129.167 293.795 132.896 293.795 132.896C293.795 132.896 299.761 132.006 299.954 120.296C300.147 108.587 287.342 106.68 281.116 107.159C277.963 107.462 274.796 107.579 271.63 107.512L271.982 110.872L269.468 111.535L271.361 113.862L269.283 114.811L271.931 118.44Z" fill="#263238"/>
<path d="M293.519 246.12C293.519 246.12 308.686 250.144 312.793 261.467" stroke="white" stroke-linecap="round" stroke-linejoin="round"/>
<path d="M300.465 252.21C300.465 252.21 292.269 265.894 279.725 273" stroke="white" stroke-linecap="round" stroke-linejoin="round"/>
<path d="M288.942 329.162C288.942 329.162 293.602 328.112 294.875 326.298" stroke="white" stroke-linecap="round" stroke-linejoin="round"/>
<path d="M314.887 330.901C314.887 330.901 319.445 328.532 323.987 330.901" stroke="white" stroke-linecap="round" stroke-linejoin="round"/>
<path d="M329.645 267.196C329.645 267.196 321.994 287.062 318.122 288.901" stroke="white" stroke-linecap="round" stroke-linejoin="round"/>
<path d="M296.142 236.082C296.351 238.241 305.36 248.245 312.793 252.21" stroke="white" stroke-linecap="round" stroke-linejoin="round"/>
<path d="M303.825 227.64C304.91 230.319 305.135 233.269 304.47 236.082C303.748 238.51 303.748 241.097 304.47 243.524" stroke="white" stroke-linecap="round" stroke-linejoin="round"/>
<path d="M287.435 186.329C287.435 186.329 301.538 204.624 316.698 210.63" stroke="#263238" stroke-linecap="round" stroke-linejoin="round"/>
<path d="M302.032 156.752C302.032 156.752 301.982 169.193 310.932 174.804" stroke="#263238" stroke-linecap="round" stroke-linejoin="round"/>
<path d="M307.069 174.905C305.175 176.77 307.236 200.172 307.236 200.172C307.236 200.172 296.233 204.49 292.789 207.27C289.345 210.05 273.029 216.434 273.029 216.434C273.029 216.434 270.515 225.019 273.649 225.313C276.783 225.607 309.239 214.519 316.664 210.63C316.664 210.63 321.499 182.07 321.466 174.804" fill="white"/>
<path d="M307.069 174.905C305.175 176.77 307.236 200.172 307.236 200.172C307.236 200.172 296.233 204.49 292.789 207.27C289.345 210.05 273.029 216.434 273.029 216.434C273.029 216.434 270.515 225.019 273.649 225.313C276.783 225.607 309.239 214.519 316.664 210.63C316.664 210.63 321.499 182.07 321.466 174.804" stroke="#263238" stroke-linecap="round" stroke-linejoin="round"/>
<path d="M274.32 215.922C272.811 215.636 270.13 214.645 268.722 214.973C267.314 215.3 264.741 216.854 262.093 217.493C259.445 218.131 260.543 219.173 262.093 219.484C263.228 219.673 264.386 219.673 265.521 219.484L263.367 221.592C262.134 222.261 260.86 222.853 259.554 223.364C258.775 223.364 256.018 224.112 256.202 225.288C256.387 226.464 257.97 226.33 259.739 226.397C259.739 226.397 256.923 226.96 257.225 228.564C257.409 229.664 260.577 228.673 262.194 228.673C262.194 228.673 260.87 230.118 261.859 230.563C262.848 231.008 265.043 229.9 265.043 229.9C265.043 229.9 264.959 231.092 265.948 231.21C266.937 231.328 269.426 230.37 271.119 229.345C272.786 228.268 274.381 227.084 275.895 225.8C276.536 225.213 277.269 224.736 278.066 224.389" fill="white"/>
<path d="M274.32 215.922C272.811 215.636 270.13 214.645 268.722 214.973C267.314 215.3 264.741 216.854 262.093 217.493C259.445 218.131 260.543 219.173 262.093 219.484C263.228 219.673 264.386 219.673 265.521 219.484L263.367 221.592C262.134 222.261 260.86 222.853 259.554 223.364C258.775 223.364 256.018 224.112 256.202 225.288C256.387 226.464 257.97 226.33 259.739 226.397C259.739 226.397 256.923 226.96 257.225 228.564C257.409 229.664 260.577 228.673 262.194 228.673C262.194 228.673 260.87 230.118 261.859 230.563C262.848 231.008 265.043 229.9 265.043 229.9C265.043 229.9 264.959 231.092 265.948 231.21C266.937 231.328 269.426 230.37 271.119 229.345C272.786 228.268 274.381 227.084 275.895 225.8C276.536 225.213 277.269 224.736 278.066 224.389" stroke="#263238" stroke-linecap="round" stroke-linejoin="round"/>
<path d="M259.78 226.43C260.559 226.388 261.334 226.298 262.102 226.162C262.764 225.994 263.426 225.775 263.426 225.775" stroke="#263238" stroke-linecap="round" stroke-linejoin="round"/>
<path d="M262.202 228.707C263.215 228.564 264.191 228.228 265.076 227.716" stroke="#263238" stroke-linecap="round" stroke-linejoin="round"/>
<path d="M265.052 229.933C265.801 229.839 266.518 229.571 267.147 229.152" stroke="#263238" stroke-linecap="round" stroke-linejoin="round"/>
<path d="M263.635 222.23C263.635 222.23 263.032 223.616 263.635 224.389C264.239 225.162 264.968 225.229 265.077 226.069C265.186 226.909 266.627 226.909 267.147 227.455C267.666 228.001 268.06 229.051 269.719 229.135" stroke="#263238" stroke-linecap="round" stroke-linejoin="round"/>
<path d="M306.364 150.637C300.658 163.582 306.364 181.541 306.364 181.541C306.364 181.541 320.175 186.245 321.448 184.22C322.722 182.196 325.052 172.267 325.446 167.681" fill="#999999"/>
<path d="M306.364 150.637C300.658 163.582 306.364 181.541 306.364 181.541C306.364 181.541 320.175 186.245 321.448 184.22C322.722 182.196 325.052 172.267 325.446 167.681" stroke="#263238" stroke-linecap="round" stroke-linejoin="round"/>
<path d="M321.465 169.117C321.465 169.117 315.599 177.206 310.932 177.316" stroke="#263238" stroke-linecap="round" stroke-linejoin="round"/>
<path d="M111.798 372.481C111.798 372.481 110.365 366.996 112.041 364.963C115.041 361.318 111.672 358.243 114.689 356.992L115.955 358.462C116.198 356.975 115.494 352.43 121.092 351.842C127.863 351.128 127.988 356.042 128.357 357.722L128.24 355.446C131.131 355.446 129.631 358.336 134.005 363.056C135.152 364.331 136.025 365.828 136.57 367.456C137.115 369.083 137.32 370.805 137.173 372.515L111.798 372.481Z" fill="#263238"/>
<path d="M163.41 372.481C160.687 371.263 163.184 360.965 163.184 360.965C163.184 360.965 159.522 358.504 163.184 355.925C164.601 357.128 166.318 357.92 168.151 358.216C169.983 358.512 171.862 358.301 173.584 357.605C173.584 357.605 174.296 350.717 178.612 351.599C178.612 351.599 179.718 355.967 182.24 358.462C189.07 365.182 197.894 366.022 199.369 369.247C199.813 370.222 199.277 372.448 199.277 372.448L163.41 372.481Z" fill="#263238"/>
<path d="M151.77 208.244L155.122 215.368C155.122 215.368 168.983 244.079 177.472 276.956C177.673 277.738 182.064 293.311 178.544 332.094L180.556 338.898L178.36 350.137C178.36 350.137 181.662 354.917 181.544 356.479C181.544 356.479 173.399 358 170.65 359.461C168.539 360.604 162.195 366.878 162.195 366.878C160.393 366.509 160.234 359.218 160.234 359.218C160.234 359.218 156.472 294.479 155.39 291.69C154.309 288.901 147.706 276.872 137.399 249.346C137.399 249.346 137.164 287.792 134.415 297.52C131.96 306.172 134.868 330.389 134.868 330.389L133.192 357.344C133.192 357.344 138.991 363.384 134.29 365.005C134.29 365.005 131.147 358.949 122.197 357.571C117.647 356.866 111.982 364.963 111.982 364.963C109.988 364.325 112.82 354.152 112.82 354.152C106.476 306.172 111.144 314.857 109.887 291.404C109.049 276.352 104.817 211.957 109.812 206.724L151.77 208.244Z" fill="#BFBFBF"/>
<mask id="mask6_505_5745" style="mask-type:luminance" maskUnits="userSpaceOnUse" x="107" y="206" width="75" height="161">
<path d="M151.77 208.244L155.122 215.368C155.122 215.368 168.983 244.079 177.472 276.956C177.673 277.738 182.064 293.311 178.544 332.094L180.556 338.898L178.36 350.137C178.36 350.137 181.662 354.917 181.544 356.479C181.544 356.479 173.399 358 170.65 359.461C168.539 360.604 162.195 366.878 162.195 366.878C160.393 366.509 160.234 359.218 160.234 359.218C160.234 359.218 156.472 294.479 155.39 291.69C154.309 288.901 147.706 276.872 137.399 249.346C137.399 249.346 137.164 287.792 134.415 297.52C131.96 306.172 134.868 330.389 134.868 330.389L133.192 357.344C133.192 357.344 138.991 363.384 134.29 365.005C134.29 365.005 131.147 358.949 122.197 357.571C117.647 356.866 111.982 364.963 111.982 364.963C109.988 364.325 112.82 354.152 112.82 354.152C106.476 306.172 111.144 314.857 109.887 291.404C109.049 276.352 104.817 211.957 109.812 206.724L151.77 208.244Z" fill="white"/>
</mask>
<g mask="url(#mask6_505_5745)">
<path opacity="0.2" d="M107.483 230.42C129.891 232.184 149.29 224.834 157.712 220.996C156.112 217.4 155.131 215.368 155.131 215.368L151.779 208.253L109.879 206.724C108.103 208.614 107.474 218.215 107.483 230.42Z" fill="black"/>
<path opacity="0.2" d="M137.625 249.841C147.823 277.015 154.385 288.91 155.441 291.682C156.053 293.294 157.553 315.277 158.726 333.724C160.067 316.924 161.449 299.225 161.567 295.756C161.818 288.834 156.832 279.35 156.086 276.898C155.34 274.445 157.025 271.79 157.025 271.79L148.058 260.45C148.36 256.603 143.608 239.812 143.608 239.812C140.784 242.491 138.27 248.195 137.625 249.841Z" fill="black"/>
</g>
<path d="M151.77 208.244L155.122 215.368C155.122 215.368 168.983 244.079 177.472 276.956C177.673 277.738 182.064 293.311 178.544 332.094L180.556 338.898L178.36 350.137C178.36 350.137 181.662 354.917 181.544 356.479C181.544 356.479 173.399 358 170.65 359.461C168.539 360.604 162.195 366.878 162.195 366.878C160.393 366.509 160.234 359.218 160.234 359.218C160.234 359.218 156.472 294.479 155.39 291.69C154.309 288.901 147.706 276.872 137.399 249.346C137.399 249.346 137.164 287.792 134.415 297.52C131.96 306.172 134.868 330.389 134.868 330.389L133.192 357.344C133.192 357.344 138.991 363.384 134.29 365.005C134.29 365.005 131.147 358.949 122.197 357.571C117.647 356.866 111.982 364.963 111.982 364.963C109.988 364.325 112.82 354.152 112.82 354.152C106.476 306.172 111.144 314.857 109.887 291.404C109.049 276.352 104.817 211.957 109.812 206.724L151.77 208.244Z" stroke="#263238" stroke-linecap="round" stroke-linejoin="round"/>
<path d="M137.433 249.346C137.433 249.346 142.553 239.442 146.919 236.678" stroke="#263238" stroke-linecap="round" stroke-linejoin="round"/>
<path d="M148.846 233.47C148.846 233.47 133.292 238.216 127.896 239.131" stroke="#263238" stroke-linecap="round" stroke-linejoin="round"/>
<path d="M140.885 217.56C141.556 230.538 146.123 232.747 141.723 235.578C141.723 235.578 141.849 241.651 139.653 245.498" stroke="#263238" stroke-linecap="round" stroke-linejoin="round"/>
<path d="M113.633 212.596C113.633 212.596 115.469 232.546 109.343 236.3" stroke="#263238" stroke-linecap="round" stroke-linejoin="round"/>
<path d="M109.343 219.03C109.343 219.03 108.882 232.31 109.343 243.012C109.343 243.012 110.876 288.246 112.41 293.924C113.943 299.603 110.046 308.204 110.382 332.749" stroke="#263238" stroke-linecap="round" stroke-linejoin="round"/>
<path d="M124.024 351.96C122.574 351.644 121.059 351.846 119.742 352.531" stroke="#263238" stroke-linecap="round" stroke-linejoin="round"/>
<path d="M133.242 357.344C131.32 355.47 129.092 353.938 126.655 352.817" stroke="#263238" stroke-linecap="round" stroke-linejoin="round"/>
<path d="M130.729 252.479C127.293 256.343 121.846 263.626 116.265 264.239" stroke="#263238" stroke-linecap="round" stroke-linejoin="round"/>
<path d="M135.983 246.196C134.927 247.531 133.838 248.842 132.731 250.144" stroke="#263238" stroke-linecap="round" stroke-linejoin="round"/>
<path d="M131.088 291.404C131.088 291.404 123.278 302.064 118.996 302.677" stroke="#263238" stroke-linecap="round" stroke-linejoin="round"/>
<path d="M140.273 247.422C140.273 247.422 154.184 286.255 159.019 290.086C159.019 290.086 159.564 318.646 159.723 328.616C159.883 338.587 162.17 351.842 162.17 351.842" stroke="#263238" stroke-linecap="round" stroke-linejoin="round"/>
<path d="M177.02 351.557C177.02 351.557 171.665 353.413 169.059 354.598C167.458 355.381 166.204 356.73 165.539 358.386" stroke="#263238" stroke-linecap="round" stroke-linejoin="round"/>
<path d="M163.469 276.083C156.002 271.387 146.156 265.516 142.184 257.242" stroke="#263238" stroke-linecap="round" stroke-linejoin="round"/>
<path d="M169.98 279.955C168.564 279.174 167.173 278.359 165.79 277.519" stroke="#263238" stroke-linecap="round" stroke-linejoin="round"/>
<path d="M146.449 222.81C142.435 222.751 138.069 222.222 134.608 219.946" stroke="#263238" stroke-linecap="round" stroke-linejoin="round"/>
<path d="M152.826 222.432C151.678 222.592 150.522 222.692 149.365 222.751" stroke="#263238" stroke-linecap="round" stroke-linejoin="round"/>
<path d="M160.276 133.258C157.209 128.604 141.58 127.42 131.549 127.42C121.519 127.42 109.342 125.74 103.845 137.08C99.6551 145.74 109.309 191.537 109.309 191.537L106.946 211.31C125.114 217.022 156.237 215.762 156.237 215.762L152.047 197.887C152.047 197.887 163.343 137.903 160.276 133.258Z" fill="#263238"/>
<path d="M125.591 115.92C125.591 115.92 126.94 126.697 122.851 129.024C122.851 129.024 124.895 136.928 132.069 137.424C139.242 137.92 142.41 130.2 142.41 130.2L125.591 115.92Z" fill="white" stroke="#263238" stroke-linecap="round" stroke-linejoin="round"/>
<path d="M163.606 88.2487L181.964 86.5513C182.38 86.5128 182.794 86.6416 183.115 86.9093C183.437 87.177 183.639 87.5617 183.677 87.9788L184.886 101.111L163.423 103.095L162.215 89.9631C162.177 89.5518 162.301 89.142 162.561 88.8215C162.821 88.501 163.196 88.2953 163.606 88.2487Z" fill="#FD7350"/>
<mask id="mask7_505_5745" style="mask-type:luminance" maskUnits="userSpaceOnUse" x="162" y="86" width="23" height="18">
<path d="M163.606 88.2487L181.964 86.5513C182.38 86.5128 182.794 86.6416 183.115 86.9093C183.437 87.177 183.639 87.5617 183.677 87.9788L184.886 101.111L163.423 103.095L162.215 89.9631C162.177 89.5518 162.301 89.142 162.561 88.8215C162.821 88.501 163.196 88.2953 163.606 88.2487Z" fill="white"/>
</mask>
<g mask="url(#mask7_505_5745)">
<path opacity="0.3" d="M163.606 88.2487L181.964 86.5513C182.38 86.5128 182.794 86.6416 183.115 86.9093C183.437 87.177 183.639 87.5617 183.677 87.9788L184.886 101.111L163.423 103.095L162.215 89.9631C162.177 89.5518 162.301 89.142 162.561 88.8215C162.821 88.501 163.196 88.2953 163.606 88.2487Z" fill="black" fill-opacity="0.7"/>
<path opacity="0.3" d="M182.499 87.8797L177.217 88.3681L178.191 98.9575L183.473 98.4691L182.499 87.8797Z" fill="white" fill-opacity="0.7"/>
</g>
<path d="M163.606 88.2487L181.964 86.5513C182.38 86.5128 182.794 86.6416 183.115 86.9093C183.437 87.177 183.639 87.5617 183.677 87.9788L184.886 101.111L163.423 103.095L162.215 89.9631C162.177 89.5518 162.301 89.142 162.561 88.8215C162.821 88.501 163.196 88.2953 163.606 88.2487Z" stroke="#263238" stroke-linecap="round" stroke-linejoin="round"/>
<path d="M195.347 85.2966L213.705 83.5992C214.121 83.5607 214.535 83.6895 214.857 83.9572C215.178 84.2249 215.38 84.6096 215.419 85.0267L216.627 98.1589L195.131 100.146L193.923 87.0141C193.885 86.5971 194.013 86.1818 194.28 85.8597C194.547 85.5376 194.931 85.335 195.347 85.2966Z" fill="#FD7350"/>
<mask id="mask8_505_5745" style="mask-type:luminance" maskUnits="userSpaceOnUse" x="193" y="83" width="24" height="18">
<path d="M195.347 85.2965L213.705 83.5992C214.121 83.5607 214.535 83.6895 214.857 83.9572C215.178 84.2249 215.38 84.6096 215.419 85.0266L216.627 98.1589L195.131 100.146L193.923 87.0141C193.885 86.5971 194.013 86.1818 194.28 85.8597C194.547 85.5376 194.931 85.335 195.347 85.2965Z" fill="white"/>
</mask>
<g mask="url(#mask8_505_5745)">
<path opacity="0.3" d="M195.347 85.2965L213.705 83.5992C214.121 83.5607 214.535 83.6895 214.857 83.9572C215.178 84.2249 215.38 84.6096 215.419 85.0266L216.627 98.1589L195.131 100.146L193.923 87.0141C193.885 86.5971 194.013 86.1818 194.28 85.8597C194.547 85.5376 194.931 85.335 195.347 85.2965Z" fill="black" fill-opacity="0.7"/>
<path opacity="0.3" d="M213.86 84.9884L210.673 85.2832L211.647 95.8726L214.835 95.5779L213.86 84.9884Z" fill="white" fill-opacity="0.7"/>
</g>
<path d="M195.347 85.2966L213.705 83.5992C214.121 83.5607 214.535 83.6895 214.857 83.9572C215.178 84.2249 215.38 84.6096 215.419 85.0267L216.627 98.1589L195.131 100.146L193.923 87.0141C193.885 86.5971 194.013 86.1818 194.28 85.8597C194.547 85.5376 194.931 85.335 195.347 85.2966Z" stroke="#263238" stroke-linecap="round" stroke-linejoin="round"/>
<path d="M188.677 85.9081L207.035 84.2107C207.452 84.1723 207.866 84.301 208.187 84.5687C208.508 84.8364 208.711 85.2211 208.749 85.6382L209.957 98.7705L188.428 100.761L187.22 87.6288C187.201 87.4194 187.223 87.2083 187.286 87.0078C187.35 86.8073 187.452 86.6215 187.588 86.4612C187.723 86.301 187.89 86.1695 188.077 86.0745C188.264 85.9795 188.468 85.923 188.677 85.9081Z" fill="#FD7350" stroke="#263238" stroke-linecap="round" stroke-linejoin="round"/>
<path d="M220.387 82.9758L238.745 81.2785C239.161 81.24 239.576 81.3688 239.897 81.6365C240.218 81.9042 240.42 82.2889 240.459 82.7059L241.667 95.8382L220.171 97.8257L218.963 84.6934C218.925 84.2763 219.053 83.8611 219.32 83.539C219.587 83.2169 219.971 83.0143 220.387 82.9758Z" fill="#FD7350" stroke="#263238" stroke-linecap="round" stroke-linejoin="round"/>
<path opacity="0.3" d="M207.539 85.5673L202.257 86.0557L203.231 96.6451L208.513 96.1568L207.539 85.5673Z" fill="white" fill-opacity="0.7"/>
<path opacity="0.3" d="M238.901 82.6589L233.619 83.1473L234.594 93.7368L239.876 93.2484L238.901 82.6589Z" fill="white" fill-opacity="0.7"/>
<path d="M250.738 91.9128L256.302 152.292L159.22 161.28L153.689 100.884C153.596 99.8748 153.906 98.8699 154.552 98.0901C155.198 97.3104 156.127 96.8197 157.133 96.726L246.598 88.452C247.097 88.4058 247.6 88.4588 248.078 88.6078C248.556 88.7569 249 88.9992 249.385 89.3207C249.77 89.6422 250.087 90.0367 250.319 90.4815C250.551 90.9264 250.694 91.4127 250.738 91.9128Z" fill="#FD7350"/>
<mask id="mask9_505_5745" style="mask-type:luminance" maskUnits="userSpaceOnUse" x="153" y="88" width="104" height="74">
<path d="M250.738 91.9128L256.302 152.292L159.22 161.28L153.689 100.884C153.596 99.8748 153.906 98.8699 154.552 98.0901C155.198 97.3104 156.127 96.8197 157.133 96.726L246.598 88.452C247.097 88.4058 247.6 88.4588 248.078 88.6078C248.556 88.7569 249 88.9992 249.385 89.3207C249.77 89.6422 250.087 90.0367 250.319 90.4815C250.551 90.9264 250.694 91.4127 250.738 91.9128Z" fill="white"/>
</mask>
<g mask="url(#mask9_505_5745)">
<path opacity="0.3" d="M250.738 91.9128L256.302 152.292L159.22 161.28L153.689 100.884C153.596 99.8748 153.906 98.8699 154.552 98.0901C155.198 97.3104 156.127 96.8197 157.133 96.726L246.598 88.452C247.097 88.4058 247.6 88.4588 248.078 88.6078C248.556 88.7569 249 88.9992 249.385 89.3207C249.77 89.6422 250.087 90.0367 250.319 90.4815C250.551 90.9264 250.694 91.4127 250.738 91.9128Z" fill="black" fill-opacity="0.7"/>
</g>
<path d="M250.738 91.9128L256.302 152.292L159.22 161.28L153.689 100.884C153.596 99.8748 153.906 98.8699 154.552 98.0901C155.198 97.3104 156.127 96.8197 157.133 96.726L246.598 88.452C247.097 88.4058 247.6 88.4588 248.078 88.6078C248.556 88.7569 249 88.9992 249.385 89.3207C249.77 89.6422 250.087 90.0367 250.319 90.4815C250.551 90.9264 250.694 91.4127 250.738 91.9128Z" stroke="#263238" stroke-linecap="round" stroke-linejoin="round"/>
<path d="M250.738 91.9128L256.302 152.292L184.234 158.953L178.678 98.574C178.585 97.5648 178.896 96.5598 179.541 95.7801C180.187 95.0004 181.116 94.5097 182.123 94.416L246.556 88.452C247.058 88.3999 247.566 88.4485 248.049 88.5949C248.532 88.7412 248.981 88.9825 249.37 89.3046C249.759 89.6266 250.081 90.0231 250.316 90.4709C250.55 90.9187 250.694 91.4088 250.738 91.9128Z" fill="#FD7350" stroke="#263238" stroke-linecap="round" stroke-linejoin="round"/>
<path opacity="0.3" d="M246.07 94.5084L184.503 100.204C184.093 100.232 183.688 100.098 183.375 99.8313C183.062 99.5646 182.865 99.1857 182.827 98.7756C182.796 98.3655 182.928 97.9598 183.192 97.6457C183.457 97.3316 183.834 97.1341 184.243 97.0956L245.811 91.4004C246.221 91.3723 246.625 91.5059 246.938 91.7727C247.252 92.0395 247.448 92.4183 247.487 92.8284C247.513 93.2376 247.38 93.6409 247.116 93.9541C246.852 94.2672 246.477 94.4659 246.07 94.5084Z" fill="white" fill-opacity="0.7"/>
<path d="M137.884 94.5504C137.884 94.5504 123.68 91.6944 122.088 100.859C120.496 110.023 125.7 113.921 125.7 113.921L137.884 94.5504Z" fill="#263238"/>
<path d="M125.7 118.952C124.077 114.397 123.823 109.464 124.971 104.765C126.362 98.8848 133.351 90.7956 143.951 98.1456C149.407 101.934 149.742 110.158 148.041 117.684C147.639 119.482 147.94 121.237 147.345 122.892C145.25 128.688 141.421 133.148 139.326 133.249C135.831 133.426 128.842 129.184 129.127 125.488" fill="white"/>
<path d="M125.7 118.952C124.077 114.397 123.823 109.464 124.971 104.765C126.362 98.8848 133.351 90.7956 143.951 98.1456C149.407 101.934 149.742 110.158 148.041 117.684C147.639 119.482 147.94 121.237 147.345 122.892C145.25 128.688 141.421 133.148 139.326 133.249C135.831 133.426 128.842 129.184 129.127 125.488" stroke="#263238" stroke-linecap="round" stroke-linejoin="round"/>
<path d="M139.854 116.29C139.854 116.29 137.03 114.24 134.314 115.92" stroke="#263238" stroke-linecap="round" stroke-linejoin="round"/>
<path d="M145.184 115.92C145.184 115.92 147.32 113.954 148.712 114.24" stroke="#263238" stroke-linecap="round" stroke-linejoin="round"/>
<path d="M135.865 119.431C135.865 119.952 136.125 120.38 136.452 120.38C136.779 120.38 137.047 119.952 137.047 119.431C137.047 118.91 136.779 118.49 136.452 118.49C136.125 118.49 135.865 118.91 135.865 119.431Z" fill="#263238"/>
<path d="M145.184 119.851C145.512 119.851 145.779 119.43 145.779 118.91C145.779 118.391 145.512 117.97 145.184 117.97C144.855 117.97 144.589 118.391 144.589 118.91C144.589 119.43 144.855 119.851 145.184 119.851Z" fill="#263238"/>
<path d="M143.986 117.902C142.947 119.263 144.405 124.446 143.986 124.816C143.567 125.185 140.902 124.135 140.902 124.135C140.902 124.135 140.282 123.346 141.581 122.926" stroke="#263238" stroke-linecap="round" stroke-linejoin="round"/>
<path d="M141.622 127.42C141.622 127.42 138.044 127.42 137.089 126.109" stroke="#263238" stroke-linecap="round" stroke-linejoin="round"/>
<path d="M133.057 108.007L132.781 112.342C132.781 112.342 129.714 113.929 128.943 115.542C128.484 116.598 128.316 117.759 128.457 118.902C128.457 118.902 126.596 115.643 125.591 115.912C125.231 116.004 125.231 117.373 125.231 117.373C125.231 117.373 121.041 107.999 124.828 103.043C128.616 98.0868 133.057 108.007 133.057 108.007Z" fill="#757575" stroke="#263238" stroke-linecap="round" stroke-linejoin="round"/>
<path d="M127.15 117.97C127.15 117.97 126.312 114.82 123.488 113.988C120.664 113.156 122.6 120.708 125.005 121.691C127.41 122.674 128.013 123.371 128.156 122.472" fill="white"/>
<path d="M127.15 117.97C127.15 117.97 126.312 114.82 123.488 113.988C120.664 113.156 122.6 120.708 125.005 121.691C127.41 122.674 128.013 123.371 128.156 122.472" stroke="#263238" stroke-linecap="round" stroke-linejoin="round"/>
<path d="M123.303 107.461C123.069 107.142 122.029 99.0612 127.351 95.4324C132.672 91.8036 141.664 92.19 147.387 97.2132C153.111 102.236 151.485 110.947 147.387 113.921V110.284C147.387 110.284 145.502 113.929 139.845 114.232L141.572 111.56C141.572 111.56 138.789 113.24 133.887 113.098C133.887 113.098 136.192 111.258 135.856 109.62C135.865 109.62 128.08 114.013 123.303 107.461Z" fill="#263238"/>
<path d="M124.301 136.592C120.379 137.063 114.798 142.195 118.435 151.309C120.756 157.088 139.829 153.653 139.829 153.653C146.902 150.73 157.234 140.213 164.818 135.332C164.818 135.332 163.218 125.252 161.374 126.68C152.801 133.258 145.754 133.711 133.795 139.474C133.821 139.44 126.765 136.298 124.301 136.592Z" fill="white" stroke="#263238" stroke-linecap="round" stroke-linejoin="round"/>
<path d="M133.058 147.781C132.941 151.544 134.483 152.208 137.08 153.098L133.058 147.781Z" fill="white"/>
<path d="M133.058 147.781C132.941 151.544 134.483 152.208 137.08 153.098" stroke="#263238" stroke-linecap="round" stroke-linejoin="round"/>
<path d="M160.804 127.42C160.98 126.874 164.156 121.279 165.052 119.86C165.949 118.44 169.955 117.155 171.505 116.298C173.055 115.441 173.181 114.139 174.019 115.072C174.857 116.004 174.019 118.129 169.376 120.389C171.026 120.48 172.679 120.48 174.329 120.389C175.569 120.204 176.675 119.078 177.229 119.86C177.782 120.641 177.891 122.044 175.125 122.9C173.81 123.378 172.432 123.661 171.036 123.74C172.389 124.03 173.719 124.418 175.016 124.9C175.46 125.227 176.122 125.992 176.784 126.109C177.446 126.227 178.167 126.949 176.952 127.789C176.521 128.028 176.038 128.157 175.546 128.166C175.054 128.175 174.567 128.063 174.128 127.84C174.128 127.84 177.337 129.394 176.34 130.36C175.343 131.326 172.15 131.132 172.15 131.132C172.15 131.132 167.416 136.92 163.41 135.71" fill="white"/>
<path d="M160.804 127.42C160.98 126.874 164.156 121.279 165.052 119.86C165.949 118.44 169.955 117.155 171.505 116.298C173.055 115.441 173.181 114.139 174.019 115.072C174.857 116.004 174.019 118.129 169.376 120.389C171.026 120.48 172.679 120.48 174.329 120.389C175.569 120.204 176.675 119.078 177.229 119.86C177.782 120.641 177.891 122.044 175.125 122.9C173.81 123.378 172.432 123.661 171.036 123.74C172.389 124.03 173.719 124.418 175.016 124.9C175.46 125.227 176.122 125.992 176.784 126.109C177.446 126.227 178.167 126.949 176.952 127.789C176.521 128.028 176.038 128.157 175.546 128.166C175.054 128.175 174.567 128.063 174.128 127.84C174.128 127.84 177.337 129.394 176.34 130.36C175.343 131.326 172.15 131.132 172.15 131.132C172.15 131.132 167.416 136.92 163.41 135.71" stroke="#263238" stroke-linecap="round" stroke-linejoin="round"/>
<path d="M166.478 119.851C166.749 119.914 166.997 120.051 167.195 120.247C167.393 120.443 167.533 120.689 167.6 120.96C167.877 121.951 168.69 122.01 169.184 123.119C169.679 124.228 169.536 125.941 170.022 126.529C170.508 127.117 170.022 129.595 170.022 129.595" stroke="#263238" stroke-linecap="round" stroke-linejoin="round"/>
<path d="M125.122 135.878C123.069 133.258 118.46 134.442 118.46 134.442" stroke="white" stroke-linecap="round" stroke-linejoin="round"/>
<path d="M115.946 129.612C115.946 129.612 120.689 130.309 122.089 134.266" stroke="white" stroke-linecap="round" stroke-linejoin="round"/>
<path d="M124.301 154.661C124.301 154.661 119.675 158.248 112.636 153.098" stroke="white" stroke-linecap="round" stroke-linejoin="round"/>
<path d="M118.46 155.744C118.46 155.744 116.114 158.995 110.398 158.953" stroke="white" stroke-linecap="round" stroke-linejoin="round"/>
<path d="M147.857 196.644C147.857 196.644 135.756 206.312 123.463 205.044" stroke="white" stroke-linecap="round" stroke-linejoin="round"/>
<path d="M115.149 175.4C115.149 175.4 133.929 189.21 147.831 190.092" stroke="white" stroke-linecap="round" stroke-linejoin="round"/>
<path d="M115.644 277.628C118.874 275.832 122.672 275.356 126.244 276.301C132.37 277.847 148.284 300.661 150.496 302.887C152.708 305.113 156.848 306.247 160.661 310.271C166.695 316.579 175.468 322.157 176.357 322.157C177.245 322.157 177.957 321.602 179.063 321.384C180.17 321.166 188.734 320.384 188.734 320.384C188.734 320.384 191.608 321.023 188.734 322.258C185.86 323.492 186.077 324.593 186.077 324.593C186.077 324.593 185.499 325.525 186.656 326.416C187.812 327.306 188.491 326.819 190.142 329.162C191.793 331.506 187.812 330.179 187.812 330.179C187.812 330.179 188.692 332.699 186.924 332.447C185.156 332.195 186.706 334.908 183.832 334.538C180.957 334.169 174.806 330.28 173.264 326.206C173.264 326.206 148.175 314.185 144.42 311.086C140.666 307.986 124.862 291.362 123.781 291.144" fill="#263238"/>
<path d="M181.284 300.14H199.72C200.138 300.14 200.539 300.307 200.834 300.603C201.13 300.899 201.296 301.301 201.296 301.72V314.908H179.709V301.72C179.709 301.301 179.875 300.899 180.17 300.603C180.466 300.307 180.867 300.14 181.284 300.14Z" fill="#FD7350"/>
<mask id="mask10_505_5745" style="mask-type:luminance" maskUnits="userSpaceOnUse" x="179" y="300" width="23" height="15">
<path d="M181.284 300.14H199.72C200.138 300.14 200.539 300.307 200.834 300.603C201.13 300.899 201.296 301.301 201.296 301.72V314.908H179.709V301.72C179.709 301.301 179.875 300.899 180.17 300.603C180.466 300.307 180.867 300.14 181.284 300.14Z" fill="white"/>
</mask>
<g mask="url(#mask10_505_5745)">
<path opacity="0.3" d="M181.284 300.14H199.72C200.138 300.14 200.539 300.307 200.834 300.603C201.13 300.899 201.296 301.301 201.296 301.72V314.908H179.709V301.72C179.709 301.301 179.875 300.899 180.17 300.603C180.466 300.307 180.867 300.14 181.284 300.14Z" fill="black" fill-opacity="0.7"/>
<path opacity="0.3" d="M200.098 301.535H194.793V312.169H200.098V301.535Z" fill="white" fill-opacity="0.7"/>
</g>
<path d="M181.284 300.14H199.72C200.138 300.14 200.539 300.307 200.834 300.603C201.13 300.899 201.296 301.301 201.296 301.72V314.908H179.709V301.72C179.709 301.301 179.875 300.899 180.17 300.603C180.466 300.307 180.867 300.14 181.284 300.14Z" stroke="#263238" stroke-linecap="round" stroke-linejoin="round"/>
<path d="M213.128 300.14H231.564C231.982 300.14 232.383 300.307 232.678 300.603C232.974 300.899 233.14 301.301 233.14 301.72V314.908H211.553V301.72C211.553 301.512 211.593 301.307 211.673 301.115C211.752 300.924 211.868 300.75 212.014 300.603C212.16 300.456 212.334 300.34 212.525 300.261C212.716 300.181 212.921 300.14 213.128 300.14Z" fill="#FD7350"/>
<mask id="mask11_505_5745" style="mask-type:luminance" maskUnits="userSpaceOnUse" x="211" y="300" width="23" height="15">
<path d="M213.128 300.14H231.564C231.982 300.14 232.383 300.307 232.678 300.603C232.974 300.899 233.14 301.301 233.14 301.72V314.908H211.553V301.72C211.553 301.512 211.593 301.307 211.673 301.115C211.752 300.924 211.868 300.75 212.014 300.603C212.16 300.456 212.334 300.34 212.525 300.261C212.716 300.181 212.921 300.14 213.128 300.14Z" fill="white"/>
</mask>
<g mask="url(#mask11_505_5745)">
<path opacity="0.3" d="M213.128 300.14H231.564C231.982 300.14 232.383 300.307 232.678 300.603C232.974 300.899 233.14 301.301 233.14 301.72V314.908H211.553V301.72C211.553 301.512 211.593 301.307 211.673 301.115C211.752 300.924 211.868 300.75 212.014 300.603C212.16 300.456 212.334 300.34 212.525 300.261C212.716 300.181 212.921 300.14 213.128 300.14Z" fill="black" fill-opacity="0.7"/>
<path opacity="0.3" d="M231.589 301.535H228.388V312.169H231.589V301.535Z" fill="white" fill-opacity="0.7"/>
</g>
<path d="M213.128 300.14H231.564C231.982 300.14 232.383 300.307 232.678 300.603C232.974 300.899 233.14 301.301 233.14 301.72V314.908H211.553V301.72C211.553 301.512 211.593 301.307 211.673 301.115C211.752 300.924 211.868 300.75 212.014 300.603C212.16 300.456 212.334 300.34 212.525 300.261C212.716 300.181 212.921 300.14 213.128 300.14Z" stroke="#263238" stroke-linecap="round" stroke-linejoin="round"/>
<path d="M206.425 300.14H224.861C225.279 300.14 225.68 300.307 225.975 300.603C226.271 300.899 226.436 301.301 226.436 301.72V314.908H204.85V301.72C204.85 301.512 204.89 301.307 204.97 301.115C205.049 300.924 205.165 300.75 205.311 300.603C205.457 300.456 205.631 300.34 205.822 300.261C206.013 300.181 206.218 300.14 206.425 300.14Z" fill="#FD7350" stroke="#263238" stroke-linecap="round" stroke-linejoin="round"/>
<path d="M238.269 300.14H256.705C257.123 300.14 257.523 300.307 257.819 300.603C258.114 300.899 258.28 301.301 258.28 301.72V314.908H236.693V301.72C236.693 301.301 236.859 300.899 237.155 300.603C237.45 300.307 237.851 300.14 238.269 300.14Z" fill="#FD7350" stroke="#263238" stroke-linecap="round" stroke-linejoin="round"/>
<path opacity="0.3" d="M225.238 301.535H219.934V312.169H225.238V301.535Z" fill="white" fill-opacity="0.7"/>
<path opacity="0.3" d="M256.729 301.535H251.425V312.169H256.729V301.535Z" fill="white" fill-opacity="0.7"/>
<path d="M267.674 311.833V372.473H170.206V311.833C170.206 310.82 170.608 309.847 171.323 309.131C172.038 308.414 173.008 308.011 174.019 308.011H263.861C264.872 308.011 265.842 308.414 266.557 309.131C267.272 309.847 267.674 310.82 267.674 311.833Z" fill="#FD7350"/>
<mask id="mask12_505_5745" style="mask-type:luminance" maskUnits="userSpaceOnUse" x="170" y="308" width="98" height="65">
<path d="M267.674 311.833V372.473H170.206V311.833C170.206 310.82 170.608 309.847 171.323 309.131C172.038 308.414 173.008 308.011 174.019 308.011H263.861C264.872 308.011 265.842 308.414 266.557 309.131C267.272 309.847 267.674 310.82 267.674 311.833Z" fill="white"/>
</mask>
<g mask="url(#mask12_505_5745)">
<path opacity="0.3" d="M267.674 311.833V372.473H170.206V311.833C170.206 310.82 170.608 309.847 171.323 309.131C172.038 308.414 173.008 308.011 174.019 308.011H263.861C264.872 308.011 265.842 308.414 266.557 309.131C267.272 309.847 267.674 310.82 267.674 311.833Z" fill="black" fill-opacity="0.7"/>
</g>
<path d="M267.674 311.833V372.473H170.206V311.833C170.206 310.82 170.608 309.847 171.323 309.131C172.038 308.414 173.008 308.011 174.019 308.011H263.861C264.872 308.011 265.842 308.414 266.557 309.131C267.272 309.847 267.674 310.82 267.674 311.833Z" stroke="#263238" stroke-linecap="round" stroke-linejoin="round"/>
<path d="M267.674 311.833V372.473H195.347V311.833C195.347 310.82 195.748 309.847 196.463 309.131C197.179 308.414 198.148 308.011 199.16 308.011H263.862C264.873 308.011 265.843 308.414 266.558 309.131C267.273 309.847 267.674 310.82 267.674 311.833Z" fill="#FD7350" stroke="#263238" stroke-linecap="round" stroke-linejoin="round"/>
<path opacity="0.3" d="M262.78 313.992H200.953C200.535 313.992 200.134 313.826 199.839 313.529C199.543 313.233 199.377 312.832 199.377 312.413C199.373 312.203 199.41 311.994 199.487 311.798C199.565 311.603 199.68 311.425 199.827 311.274C199.973 311.124 200.149 311.005 200.342 310.923C200.535 310.842 200.743 310.8 200.953 310.8H262.78C263.198 310.8 263.599 310.966 263.894 311.263C264.19 311.559 264.356 311.96 264.356 312.379C264.36 312.589 264.323 312.798 264.246 312.994C264.169 313.189 264.053 313.367 263.906 313.518C263.76 313.668 263.584 313.787 263.391 313.869C263.198 313.95 262.99 313.992 262.78 313.992Z" fill="white" fill-opacity="0.7"/>
<path d="M148.326 372.473C143.298 372.473 136.234 369.23 128.097 365.803C119.658 362.242 110.046 358.478 100.292 357.916C96.6549 357.706 98.8589 372.473 98.8589 372.473H90.8979C90.8979 372.473 83.0374 361.956 82.124 352.54C82.124 352.54 88.5431 348.566 90.085 348.34C90.6167 348.284 91.1511 348.259 91.6856 348.264C93.4119 348.264 95.7164 348.34 95.7164 348.34C95.3477 348.121 89.4733 344.576 86.2302 340.973C83.557 337.999 82.3335 333.304 82.2413 330.498C82.345 328.64 82.5492 326.79 82.8531 324.954L124.686 325.651C124.686 325.651 125.139 325.97 125.943 326.567C130.795 330.112 148.527 343.316 157.393 353.27C160.259 356.488 162.195 359.36 162.48 361.46C163.812 371.146 155.91 372.473 148.326 372.473Z" fill="#757575" stroke="#263238" stroke-linecap="round" stroke-linejoin="round"/>
<path d="M157.402 353.254L137.055 357.916C133.567 359.916 130.515 362.598 128.08 365.803C119.641 362.242 110.029 358.478 100.275 357.916C96.6382 357.706 98.8421 372.473 98.8421 372.473H90.8811C90.8811 372.473 83.0374 361.956 82.124 352.54C82.124 352.54 89.5319 363.124 91.342 368.5C91.342 368.5 94.2164 358.554 98.884 354.564C96.7758 352.184 94.3803 350.076 91.7526 348.289C93.4789 348.289 95.7834 348.365 95.7834 348.365C95.4147 348.146 89.5403 344.602 86.2973 340.998C83.624 338.024 82.543 333.32 82.3084 330.523C82.1911 329.146 82.3587 324.979 82.3587 324.979C82.3587 324.979 113.557 329.44 126.01 326.592C130.803 330.12 148.536 343.3 157.402 353.254Z" fill="#263238"/>
<path d="M124.694 352.54C124.694 352.54 141.27 360.864 145.695 364.123C150.119 367.382 151.435 366.5 151.435 366.5" stroke="#263238" stroke-linecap="round" stroke-linejoin="round"/>
<path d="M86.2383 351.658C86.2383 351.658 90.2188 357.748 90.4283 359.57" stroke="#263238" stroke-linecap="round" stroke-linejoin="round"/>
<path d="M152.91 234.763C152.91 234.763 161.734 230.916 160.896 247.279C160.058 263.642 163.05 264.482 163.05 264.482C163.05 264.482 140.843 273.622 135.203 265.81C129.564 257.998 134.918 236.62 152.91 234.763Z" fill="#263238"/>
<path d="M151.678 264.482C151.678 264.482 142.544 268.8 141.715 272.79C140.885 276.78 129.446 270.774 129.446 270.774L137.734 258.829L151.678 264.482Z" fill="white" stroke="#263238" stroke-linecap="round" stroke-linejoin="round"/>
<path d="M91.7865 308.28C70.8365 335.026 87.8396 347.928 111.588 345.794L106.829 353.354L118.779 355.429C118.779 355.429 127.938 349.432 140.424 343.022C161.676 332.102 170.265 332.758 168.078 321.829C165.891 310.901 139.846 303.811 113.734 315.328C113.709 315.319 99.5297 298.435 91.7865 308.28Z" fill="#757575" stroke="#263238" stroke-linecap="round" stroke-linejoin="round"/>
<path d="M99.094 366.5C99.094 366.5 104.549 351.38 106.829 350.54C109.108 349.7 117.723 352.976 118.779 355.412C118.779 355.412 121.686 350.944 122.876 352.842C124.066 354.74 122.348 357.882 122.876 360.284C123.404 362.687 129.296 366.047 131.65 366.492C134.005 366.937 135.346 368.264 135.346 369.592V372.473H99.094C98.6917 371.529 98.4844 370.513 98.4844 369.487C98.4844 368.46 98.6917 367.444 99.094 366.5Z" fill="white" stroke="#263238" stroke-linecap="round" stroke-linejoin="round"/>
<path d="M122.876 357.916C122.876 357.916 118.074 360.293 116.322 359.596C114.571 358.898 117.219 363.586 117.881 364.031C118.543 364.476 122.909 362.477 122.909 362.477" stroke="#263238" stroke-linecap="round" stroke-linejoin="round"/>
<path d="M103.627 355.421C103.627 355.421 110.147 355.547 112.133 357.941" stroke="#263238" stroke-linecap="round" stroke-linejoin="round"/>
<path d="M99.0938 366.5C99.0938 366.5 109.485 368.936 110.365 368.936C111.794 368.652 113.196 368.245 114.555 367.718C114.555 367.718 117.404 369.155 119.298 370.045C121.192 370.936 133.544 370.045 133.544 370.045" stroke="#263238" stroke-linecap="round" stroke-linejoin="round"/>
<path d="M111.588 345.811C121.51 344.736 140.784 332.48 147.488 328.222C154.192 323.963 155.868 325.08 155.868 325.08" stroke="#263238" stroke-linecap="round" stroke-linejoin="round"/>
<path d="M82.2998 324.937L83.8836 312.883L87.7049 309.994C93.8977 294.932 121.954 266.801 129.605 266.893C141.094 267.028 143.122 279.115 144.538 292.345C145.954 305.575 128.055 303.584 128.055 303.584V306.902L117.873 312.186L124.041 311.993C124.041 311.993 106.3 329.28 82.2998 324.937Z" fill="#FD7350" stroke="#263238" stroke-linecap="round" stroke-linejoin="round"/>
<path d="M132.027 243.6C134.432 236.04 145.435 234.024 149.391 235.259C152.638 236.53 155.298 238.963 156.857 242.088C157.863 244.264 155.76 248.111 157.26 250.354C159.405 253.571 159.22 260.358 158.449 264.634C158.03 266.902 148.62 268.246 140.927 262.954C132.664 257.225 129.698 250.874 132.027 243.6Z" fill="white" stroke="#263238" stroke-linecap="round" stroke-linejoin="round"/>
<path d="M143.147 232.999C143.147 232.999 152.834 231.42 152.901 233.915C153.329 250.488 143.415 253.966 143.415 253.966C143.415 253.966 139.368 250.732 138.462 252.949C137.557 255.167 139.887 261.299 142.753 261.425C142.093 262.453 141.732 263.646 141.711 264.869C141.69 266.092 142.011 267.296 142.636 268.346C142.636 268.346 126.228 271.093 124.87 263.474C125.504 260.826 125.958 258.137 126.228 255.427C127.292 244.751 124.803 237.569 143.147 232.999Z" fill="#263238"/>
<path d="M156.086 249.892C158.106 251.714 159.555 251.714 159.53 252.37C159.455 254.411 157.016 255.427 157.016 255.427" fill="white"/>
<path d="M156.086 249.892C158.106 251.714 159.555 251.714 159.53 252.37C159.455 254.411 157.016 255.427 157.016 255.427" stroke="#263238" stroke-linecap="round" stroke-linejoin="round"/>
<path d="M156.966 258.829C155.539 259.313 153.999 259.351 152.55 258.938" stroke="#263238" stroke-linecap="round" stroke-linejoin="round"/>
<path d="M151.594 239.719C151.594 239.719 158.038 237.846 156.856 248.329C156.856 248.329 159.538 244.675 159.53 240.568C159.53 233.453 150.035 234.881 150.035 234.881L151.275 239.921" fill="#263238"/>
<path d="M157.451 244.852C157.207 244.689 156.933 244.578 156.645 244.524C156.357 244.471 156.061 244.477 155.775 244.541" stroke="#263238" stroke-linecap="round" stroke-linejoin="round"/>
<path d="M153.111 244.734C153.111 244.734 149.65 244.936 148.15 247.254" stroke="#263238" stroke-linecap="round" stroke-linejoin="round"/>
<path d="M152.282 250.253C152.332 250.807 152.097 251.286 151.754 251.32C151.41 251.353 151.092 250.925 151.033 250.37C150.975 249.816 151.218 249.337 151.561 249.304C151.905 249.27 152.232 249.698 152.282 250.253Z" fill="#263238"/>
<path d="M112.133 348.331C112.133 348.331 119.842 349.171 121.518 352.531" stroke="#263238" stroke-linecap="round" stroke-linejoin="round"/>
<path d="M131.649 272.563C134.88 270.767 138.678 270.291 142.25 271.236C148.384 272.79 164.29 295.596 166.502 297.822C168.714 300.048 172.854 301.182 176.667 305.206C182.7 311.514 191.474 317.092 192.363 317.092C193.251 317.092 193.963 316.537 195.069 316.319C196.175 316.1 204.74 315.319 204.74 315.319C204.74 315.319 207.614 315.966 204.74 317.192C201.865 318.419 202.083 319.536 202.083 319.536C202.083 319.536 201.513 320.46 202.662 321.35C203.81 322.241 204.497 321.754 206.148 324.097C207.798 326.441 203.818 325.114 203.818 325.114C203.818 325.114 204.698 327.634 202.93 327.382C201.162 327.13 202.712 329.843 199.837 329.473C196.963 329.104 190.812 325.214 189.27 321.14C189.27 321.14 164.181 309.12 160.426 306.02C156.672 302.921 140.884 286.297 139.77 286.079" fill="white"/>
<path d="M131.649 272.563C134.88 270.767 138.678 270.291 142.25 271.236C148.384 272.79 164.29 295.596 166.502 297.822C168.714 300.048 172.854 301.182 176.667 305.206C182.7 311.514 191.474 317.092 192.363 317.092C193.251 317.092 193.963 316.537 195.069 316.319C196.175 316.1 204.74 315.319 204.74 315.319C204.74 315.319 207.614 315.966 204.74 317.192C201.865 318.419 202.083 319.536 202.083 319.536C202.083 319.536 201.513 320.46 202.662 321.35C203.81 322.241 204.497 321.754 206.148 324.097C207.798 326.441 203.818 325.114 203.818 325.114C203.818 325.114 204.698 327.634 202.93 327.382C201.162 327.13 202.712 329.843 199.837 329.473C196.963 329.104 190.812 325.214 189.27 321.14C189.27 321.14 164.181 309.12 160.426 306.02C156.672 302.921 140.884 286.297 139.77 286.079" stroke="#263238" stroke-linecap="round" stroke-linejoin="round"/>
<path d="M128.047 270.127C128.047 270.127 140.416 266.809 144.731 269.245C149.047 271.681 157.226 282.979 157.226 282.979C157.226 282.979 147.254 291.925 144.17 291.11C141.086 290.296 131.65 288.96 131.65 288.96" fill="#FD7350"/>
<path d="M128.047 270.127C128.047 270.127 140.416 266.809 144.731 269.245C149.047 271.681 157.226 282.979 157.226 282.979C157.226 282.979 147.254 291.925 144.17 291.11C141.086 290.296 131.65 288.96 131.65 288.96" stroke="#263238" stroke-linecap="round" stroke-linejoin="round"/>
<path d="M138.773 290.052C138.773 290.052 134.29 292.522 132.639 292.522" stroke="#263238" stroke-linecap="round" stroke-linejoin="round"/>
<path d="M131.649 277.662C132.027 278.326 131.901 285.592 139.77 287.851" stroke="#263238" stroke-linecap="round" stroke-linejoin="round"/>
<path d="M89.5908 310.229C89.5908 310.229 106.351 313.11 112.133 308.011" stroke="#263238" stroke-linecap="round" stroke-linejoin="round"/>
<path d="M117.865 312.186C117.865 312.186 113.675 311.447 112.133 313.606C110.591 315.764 102.194 317.806 102.194 317.806" stroke="#263238" stroke-linecap="round" stroke-linejoin="round"/>
<path d="M84.1774 328.222C84.1774 328.222 81.7555 338.688 92.0881 343.342" stroke="#263238" stroke-linecap="round" stroke-linejoin="round"/>
<path d="M89.5908 328.944C89.5908 328.944 89.6495 334.102 91.2668 336.924L96.4038 338.604L102.152 335.395C102.152 335.395 100.929 328.801 100.82 327.466" stroke="#263238" stroke-linecap="round" stroke-linejoin="round"/>
</svg>
