<svg width="40" height="40" viewBox="0 0 40 40" fill="none" xmlns="http://www.w3.org/2000/svg">
<path opacity="0.4" d="M21.9942 29.0636L20.2167 32.392L18.44 29.0636L19.3108 25.1453L18.3042 23.1311C19.565 23.4011 20.8683 23.4011 22.1292 23.1311L21.1225 25.1453L21.9933 29.0636H21.9942ZM20.2175 21.522C22.1315 21.5216 23.9677 20.7641 25.3254 19.4149C26.683 18.0657 27.4519 16.2343 27.4642 14.3203C27.0392 14.4078 26.5858 14.4903 26.1058 14.5578V14.9311C26.0992 14.9378 25.7617 15.1278 25.7125 15.287C25.4733 16.017 25.2833 16.7953 24.7008 17.3353C24.0817 17.9053 21.7567 18.7086 20.7758 15.802C20.6058 15.287 19.8308 15.287 19.6533 15.802C18.6117 18.8811 16.2192 17.7886 15.7283 17.3353C15.145 16.7953 14.9492 16.017 14.7158 15.287C14.6675 15.1336 14.33 14.937 14.33 14.9311V14.5586C13.8751 14.4923 13.4221 14.4131 12.9717 14.3211C12.9829 16.2353 13.7513 18.0671 15.1091 19.4164C16.4668 20.7657 18.3034 21.5227 20.2175 21.522Z" fill="#7743DC"/>
<path d="M14.3301 14.5584V14.9317C14.3301 14.9375 14.6692 15.1342 14.7159 15.2867C14.9492 16.0175 15.1459 16.795 15.7284 17.3359C16.2192 17.7884 18.6109 18.8817 19.6534 15.8025C19.8309 15.2867 20.6034 15.2867 20.7759 15.8025C21.7567 18.7092 24.0809 17.9059 24.7009 17.3359C25.2834 16.7959 25.4734 16.0175 25.7126 15.2867C25.7617 15.1284 26.0992 14.9375 26.1051 14.9317V14.5584C29.1026 14.115 31.0867 13.3434 31.0867 12.4642C31.0867 11.685 29.5292 10.9917 27.0901 10.5342C26.5609 8.71586 25.5792 6.90586 24.8259 5.96419C24.567 5.63687 24.2034 5.40865 23.796 5.31789C23.3887 5.22714 22.9626 5.27939 22.5892 5.46586L21.0267 6.24753C20.7751 6.3726 20.498 6.43762 20.217 6.43748C19.9361 6.43733 19.659 6.37203 19.4076 6.24669L17.8451 5.46586C17.4718 5.27977 17.0459 5.22772 16.6387 5.31846C16.2316 5.4092 15.8681 5.63719 15.6092 5.96419C14.8609 6.90586 13.8767 8.71586 13.3451 10.5342C10.9051 10.9925 9.34756 11.685 9.34756 12.4642C9.34756 13.3425 11.3317 14.1142 14.3301 14.5584ZM29.2701 22.6692L30.6226 19.1267C30.7011 18.9193 30.7011 18.6903 30.6225 18.4829C30.5439 18.2755 30.3922 18.1041 30.1959 18.0009C30.0656 17.9326 29.9205 17.8975 29.7734 17.8984H27.9551L20.2176 32.3917L12.4801 17.8984H10.7242C10.5743 17.8982 10.4267 17.9354 10.2948 18.0066C10.1628 18.0777 10.0507 18.1806 9.96839 18.3059C9.88569 18.4308 9.83545 18.5745 9.82221 18.7238C9.80896 18.873 9.83314 19.0233 9.89256 19.1609L11.3492 22.5609C10.191 23.2226 9.22832 24.1787 8.55866 25.3323C7.88899 26.486 7.53615 27.7961 7.53589 29.13V31.4859C7.53589 32.2059 7.82255 32.8975 8.33255 33.4067C8.84172 33.9167 9.53256 34.2034 10.2534 34.2034H30.1809C30.5378 34.2035 30.8912 34.1333 31.221 33.9967C31.5507 33.8602 31.8503 33.66 32.1027 33.4077C32.3551 33.1553 32.5552 32.8557 32.6918 32.5259C32.8283 32.1962 32.8985 31.8428 32.8984 31.4859V29.13C32.8993 27.8322 32.566 26.556 31.9305 25.4244C31.295 24.2927 30.3788 23.3439 29.2701 22.6692Z" fill="#7743DC"/>
</svg>
