<svg width="36" height="36" viewBox="0 0 36 36" fill="none" xmlns="http://www.w3.org/2000/svg">
<path d="M22.0359 2.31316C23.8641 2.67879 25.0523 4.4577 24.6867 6.28582L24.525 7.08738C24.1523 8.96473 23.4633 10.7507 22.5 12.3749H32.625C34.4883 12.3749 36 13.8866 36 15.7499C36 17.5288 34.6289 18.9843 32.8852 19.1179C33.4266 19.7155 33.75 20.51 33.75 21.3749C33.75 23.0202 32.5688 24.3913 31.0148 24.6866C31.3242 25.1929 31.5 25.7975 31.5 26.4374C31.5 27.935 30.5227 29.2077 29.1727 29.6436C29.2219 29.8757 29.25 30.1218 29.25 30.3749C29.25 32.2382 27.7383 33.7499 25.875 33.7499H20.707C19.3711 33.7499 18.0703 33.3561 16.9594 32.6179L14.2523 30.8108C12.375 29.5593 11.25 27.4499 11.25 25.1929V22.4999V19.1249V17.3741C11.25 15.321 12.1852 13.3874 13.7812 12.1007L14.3016 11.6858C16.1648 10.1952 17.4375 8.09988 17.9016 5.76551L18.0633 4.96394C18.4289 3.13582 20.2078 1.94754 22.0359 2.31316ZM2.25 13.4999H6.75C7.99453 13.4999 9 14.5054 9 15.7499V31.4999C9 32.7444 7.99453 33.7499 6.75 33.7499H2.25C1.00547 33.7499 0 32.7444 0 31.4999V15.7499C0 14.5054 1.00547 13.4999 2.25 13.4999Z" fill="white"/>
</svg>
