<svg width="36" height="36" viewBox="0 0 36 36" fill="none" xmlns="http://www.w3.org/2000/svg">
<path d="M22.0359 33.6868C23.8641 33.3212 25.0523 31.5423 24.6867 29.7142L24.525 28.9126C24.1523 27.0353 23.4633 25.2493 22.5 23.6251H32.625C34.4883 23.6251 36 22.1134 36 20.2501C36 18.4712 34.6289 17.0157 32.8852 16.8821C33.4266 16.2845 33.75 15.49 33.75 14.6251C33.75 12.9798 32.5688 11.6087 31.0148 11.3134C31.3242 10.8071 31.5 10.2025 31.5 9.56262C31.5 8.06496 30.5227 6.7923 29.1727 6.35637C29.2219 6.12433 29.25 5.87824 29.25 5.62512C29.25 3.76184 27.7383 2.25012 25.875 2.25012H20.707C19.3711 2.25012 18.0703 2.64387 16.9594 3.38215L14.2523 5.18918C12.375 6.44074 11.25 8.55012 11.25 10.8071V13.5001V16.8751V18.6259C11.25 20.679 12.1852 22.6126 13.7812 23.8993L14.3016 24.3142C16.1648 25.8048 17.4375 27.9001 17.9016 30.2345L18.0633 31.0361C18.4289 32.8642 20.2078 34.0525 22.0359 33.6868ZM2.25 22.5001H6.75C7.99453 22.5001 9 21.4946 9 20.2501V4.50012C9 3.25558 7.99453 2.25012 6.75 2.25012H2.25C1.00547 2.25012 0 3.25558 0 4.50012V20.2501C0 21.4946 1.00547 22.5001 2.25 22.5001Z" fill="white"/>
</svg>
