<svg width="20" height="17" viewBox="0 0 20 17" fill="none" xmlns="http://www.w3.org/2000/svg">
<path d="M18.7905 0.500535C18.4853 0.510055 18.1956 0.643588 17.9828 0.872844L5.8909 13.5314L2.0224 9.4816C1.91415 9.36357 1.78449 9.26934 1.64102 9.20442C1.49754 9.13951 1.34314 9.10521 1.18685 9.10355C1.03055 9.10188 0.875514 9.13288 0.730808 9.19473C0.586102 9.25658 0.45464 9.34803 0.344118 9.46373C0.233597 9.57943 0.146239 9.71705 0.0871604 9.86854C0.028082 10.02 -0.00152933 10.1823 6.08081e-05 10.3459C0.00165095 10.5096 0.0344103 10.6712 0.0964207 10.8214C0.158431 10.9716 0.248446 11.1073 0.361193 11.2206L5.06029 16.1399C5.28061 16.3705 5.57938 16.5 5.8909 16.5C6.20241 16.5 6.50118 16.3705 6.7215 16.1399L19.644 2.61189C19.8138 2.43915 19.9297 2.21674 19.9767 1.97383C20.0236 1.73092 19.9994 1.47882 19.9071 1.25058C19.8148 1.02235 19.6588 0.828613 19.4596 0.694773C19.2603 0.560932 19.0271 0.493229 18.7905 0.500535Z" fill="white"/>
</svg>
