<svg width="18" height="22" viewBox="0 0 18 22" fill="none" xmlns="http://www.w3.org/2000/svg">
<path d="M6 2.5V0.5H12V2.5H6ZM8 13.5H10V7.5H8V13.5ZM9 21.5C7.76667 21.5 6.60417 21.2625 5.5125 20.7875C4.42083 20.3125 3.46667 19.6667 2.65 18.85C1.83333 18.0333 1.1875 17.0792 0.7125 15.9875C0.2375 14.8958 0 13.7333 0 12.5C0 11.2667 0.2375 10.1042 0.7125 9.0125C1.1875 7.92083 1.83333 6.96667 2.65 6.15C3.46667 5.33333 4.42083 4.6875 5.5125 4.2125C6.60417 3.7375 7.76667 3.5 9 3.5C10.0333 3.5 11.025 3.66667 11.975 4C12.925 4.33333 13.8167 4.81667 14.65 5.45L16.05 4.05L17.45 5.45L16.05 6.85C16.6833 7.68333 17.1667 8.575 17.5 9.525C17.8333 10.475 18 11.4667 18 12.5C18 13.7333 17.7625 14.8958 17.2875 15.9875C16.8125 17.0792 16.1667 18.0333 15.35 18.85C14.5333 19.6667 13.5792 20.3125 12.4875 20.7875C11.3958 21.2625 10.2333 21.5 9 21.5ZM9 19.5C10.9333 19.5 12.5833 18.8167 13.95 17.45C15.3167 16.0833 16 14.4333 16 12.5C16 10.5667 15.3167 8.91667 13.95 7.55C12.5833 6.18333 10.9333 5.5 9 5.5C7.06667 5.5 5.41667 6.18333 4.05 7.55C2.68333 8.91667 2 10.5667 2 12.5C2 14.4333 2.68333 16.0833 4.05 17.45C5.41667 18.8167 7.06667 19.5 9 19.5Z" fill="#FD7350"/>
</svg>
