<svg width="18" height="20" viewBox="0 0 18 20" fill="none" xmlns="http://www.w3.org/2000/svg">
<g clip-path="url(#clip0_354_202)">
<path d="M5.43214 0.691406L5.14286 1.25H1.28571C0.574554 1.25 0 1.80859 0 2.5C0 3.19141 0.574554 3.75 1.28571 3.75H16.7143C17.4254 3.75 18 3.19141 18 2.5C18 1.80859 17.4254 1.25 16.7143 1.25H12.8571L12.5679 0.691406C12.3509 0.265625 11.9049 0 11.4188 0H6.58125C6.09509 0 5.64911 0.265625 5.43214 0.691406ZM16.7143 5H1.28571L2.1375 18.2422C2.20179 19.2305 3.04554 20 4.06205 20H13.9379C14.9545 20 15.7982 19.2305 15.8625 18.2422L16.7143 5Z" fill="#FD7350"/>
</g>
<defs>
<clipPath id="clip0_354_202">
<rect width="18" height="20" fill="white"/>
</clipPath>
</defs>
</svg>
