<svg version="1.2" xmlns="http://www.w3.org/2000/svg" viewBox="0 0 20 23" width="20" height="23">
	<title>trash-solid-svg</title>
	<defs>
		<clipPath clipPathUnits="userSpaceOnUse" id="cp1">
			<path d="m0 0h20v23h-20z"/>
		</clipPath>
	</defs>
	<style>
		.s0 { fill: #ffffff } 
	</style>
	<g id="Clip-Path" clip-path="url(#cp1)">
		<g id="Layer">
			<path id="Layer" class="s0" d="m7.3 0h5.4c0.5 0 1 0.3 1.3 0.8l0.3 0.6h4.3c0.8 0 1.4 0.7 1.4 1.5 0 0.8-0.6 1.4-1.4 1.4h-17.2c-0.8 0-1.4-0.6-1.4-1.4 0-0.8 0.6-1.5 1.4-1.5h4.3l0.3-0.6c0.3-0.5 0.8-0.8 1.3-0.8zm10.3 21c0 1.1-1 2-2.1 2h-11c-1.1 0-2.1-0.9-2.1-2l-1-15.3 17.2 0.1z"/>
		</g>
	</g>
</svg>