<svg width="90" height="69" viewBox="0 0 90 69" fill="none" xmlns="http://www.w3.org/2000/svg">
<path d="M70.2326 39.8911C69.9343 40.2526 69.789 40.7174 69.8277 41.1855C69.8665 41.6537 70.0862 42.0879 70.4398 42.3949L73.5224 45.0183C73.882 45.3182 74.3442 45.4643 74.8097 45.4254C75.2753 45.3864 75.7071 45.1654 76.0125 44.8099L82.1598 37.5063C83.2186 39.4188 83.6727 41.6103 83.4614 43.7888C83.2502 45.9674 82.3837 48.0294 80.9774 49.7002C79.5711 51.371 77.6919 52.5712 75.59 53.1408C73.4882 53.7104 71.2637 53.6224 69.2129 52.8885L57.9455 66.2752C57.2968 67.0459 56.3702 67.5259 55.3696 67.6097C54.3689 67.6934 53.3761 67.374 52.6097 66.7217C51.8432 66.0694 51.3658 65.1377 51.2826 64.1315C51.1993 63.1253 51.5169 62.1271 52.1656 61.3563L63.433 47.9696C62.3742 46.0571 61.9201 43.8656 62.1314 41.6871C62.3426 39.5085 63.2091 37.4465 64.6154 35.7757C66.0217 34.1049 67.9009 32.9047 70.0027 32.3351C72.1045 31.7655 74.3291 31.8535 76.3799 32.5874L70.2489 39.8717L70.2326 39.8911Z" stroke="#7743DC" stroke-width="2" stroke-linecap="round" stroke-linejoin="round"/>
<mask id="mask0_14_1020" style="mask-type:alpha" maskUnits="userSpaceOnUse" x="5" y="0" width="65" height="64">
<rect x="5.94922" width="63.0615" height="63.4107" fill="#D9D9D9"/>
</mask>
<g mask="url(#mask0_14_1020)">
<path d="M44.0489 55.4844C41.8592 55.4844 39.998 54.7138 38.4653 53.1726C36.9326 51.6313 36.1662 49.7598 36.1662 47.5581C36.1662 45.3563 36.9326 43.4848 38.4653 41.9436C39.998 40.4024 41.8592 39.6318 44.0489 39.6318C46.2385 39.6318 48.0997 40.4024 49.6324 41.9436C51.1652 43.4848 51.9316 45.3563 51.9316 47.5581C51.9316 49.7598 51.1652 51.6313 49.6324 53.1726C48.0997 54.7138 46.2385 55.4844 44.0489 55.4844ZM44.0489 50.2002C44.7933 50.2002 45.4174 49.947 45.921 49.4406C46.4246 48.9342 46.6764 48.3067 46.6764 47.5581C46.6764 46.8095 46.4246 46.182 45.921 45.6756C45.4174 45.1692 44.7933 44.916 44.0489 44.916C43.3044 44.916 42.6803 45.1692 42.1767 45.6756C41.6731 46.182 41.4213 46.8095 41.4213 47.5581C41.4213 48.3067 41.6731 48.9342 42.1767 49.4406C42.6803 49.947 43.3044 50.2002 44.0489 50.2002ZM49.304 36.9896C45.2751 36.9896 41.8592 35.5805 39.0565 32.7623C36.2538 29.944 34.8524 26.5093 34.8524 22.458C34.8524 18.4068 36.2538 14.972 39.0565 12.1538C41.8592 9.33552 45.2751 7.92639 49.304 7.92639C53.3329 7.92639 56.7487 9.33552 59.5515 12.1538C62.3542 14.972 63.7556 18.4068 63.7556 22.458C63.7556 26.5093 62.3542 29.944 59.5515 32.7623C56.7487 35.5805 53.3329 36.9896 49.304 36.9896ZM49.304 31.7054C51.8878 31.7054 54.0664 30.8137 55.8401 29.0303C57.6137 27.2468 58.5005 25.0561 58.5005 22.458C58.5005 19.8599 57.6137 17.6692 55.8401 15.8858C54.0664 14.1023 51.8878 13.2106 49.304 13.2106C46.7202 13.2106 44.5415 14.1023 42.7679 15.8858C40.9943 17.6692 40.1075 19.8599 40.1075 22.458C40.1075 25.0561 40.9943 27.2468 42.7679 29.0303C44.5415 30.8137 46.7202 31.7054 49.304 31.7054ZM24.3422 47.5581C21.4518 47.5581 18.9776 46.5233 16.9193 44.4536C14.861 42.3839 13.8319 39.896 13.8319 36.9896C13.8319 34.0833 14.861 31.5953 16.9193 29.5257C18.9776 27.456 21.4518 26.4212 24.3422 26.4212C27.2325 26.4212 29.7068 27.456 31.765 29.5257C33.8233 31.5953 34.8524 34.0833 34.8524 36.9896C34.8524 39.896 33.8233 42.3839 31.765 44.4536C29.7068 46.5233 27.2325 47.5581 24.3422 47.5581ZM24.3422 42.2739C25.7873 42.2739 27.0245 41.7565 28.0536 40.7216C29.0827 39.6868 29.5973 38.4428 29.5973 36.9896C29.5973 35.5365 29.0827 34.2925 28.0536 33.2577C27.0245 32.2228 25.7873 31.7054 24.3422 31.7054C22.897 31.7054 21.6599 32.2228 20.6307 33.2577C19.6016 34.2925 19.087 35.5365 19.087 36.9896C19.087 38.4428 19.6016 39.6868 20.6307 40.7216C21.6599 41.7565 22.897 42.2739 24.3422 42.2739Z" fill="#7743DC"/>
</g>
</svg>
