<svg width="20" height="21" viewBox="0 0 20 21" fill="none" xmlns="http://www.w3.org/2000/svg">
<path d="M19.4125 4.24484C20.1938 3.47754 20.1938 2.23145 19.4125 1.46415C18.6313 0.696847 17.3625 0.696847 16.5813 1.46415L10 7.93401L3.41255 1.47028C2.6313 0.702985 1.36255 0.702985 0.581299 1.47028C-0.199951 2.23758 -0.199951 3.48368 0.581299 4.25098L7.1688 10.7147L0.587549 17.1846C-0.193701 17.9519 -0.193701 19.198 0.587549 19.9653C1.3688 20.7326 2.63755 20.7326 3.4188 19.9653L10 13.4954L16.5875 19.9591C17.3688 20.7264 18.6376 20.7264 19.4188 19.9591C20.2001 19.1918 20.2001 17.9457 19.4188 17.1784L12.8313 10.7147L19.4125 4.24484Z" fill="#7743DC"/>
</svg>
