<svg width="79" height="74" viewBox="0 0 79 74" fill="none" xmlns="http://www.w3.org/2000/svg">
<mask id="mask0_20_737" style="mask-type:alpha" maskUnits="userSpaceOnUse" x="0" y="0" width="73" height="72">
<path d="M72.5698 0H0.850464V72H72.5698V0Z" fill="#7743DC"/>
</mask>
<g mask="url(#mask0_20_737)">
<path d="M12.1141 57.6922H22.4583V33.6921H50.9621V57.6922H61.3062V24.5767L36.7102 14.6652L12.1141 24.5767V57.6922ZM9.81543 59.9998V23.019L36.7102 12.2306L63.605 23.019V59.9998H48.6634V35.9998H24.7569V59.9998H9.81543ZM29.7566 59.9998V56.0768H33.6645V59.9998H29.7566ZM34.7562 50.9998V47.0768H38.6641V50.9998H34.7562ZM39.756 59.9998V56.0768H43.6638V59.9998H39.756Z" fill="#7743DC"/>
</g>
<path d="M55.8429 71.1981C57.5368 69.5043 58.4475 66.8568 59.6545 64.8199C60.6117 63.2046 61.8915 61.6502 63.0639 60.1847C64.2992 58.6405 65.1078 56.6793 66.186 55.0131C68.7254 51.0887 72.4373 47.8533 74.9393 43.9614C75.6377 42.8749 75.0071 43.4147 74.4221 43.9997C72.462 45.9598 70.4487 47.7419 68.5994 49.8224C64.7371 54.1675 61.8489 58.8685 58.7734 63.7665C57.5517 65.7121 56.3521 68.0659 54.8277 69.7808C54.3308 70.3398 53.9518 71.264 53.2954 71.6578C52.0438 72.4088 54.726 69.111 55.5173 67.8845C56.9 65.7413 58.2672 63.467 59.9801 61.5638C62.1867 59.112 64.4245 56.6373 66.3584 53.9597C68.0105 51.6721 70.4425 50.3022 72.0471 48.022C72.3577 47.5806 73.6599 46.3591 72.3152 47.1409C70.3789 48.2667 68.4595 49.6176 66.8755 51.2015C63.9021 54.1749 61.8915 57.9747 59.214 61.1998C57.978 62.6886 56.8083 64.2593 55.4981 65.6818C54.7298 66.516 54.3927 68.0849 53.4295 68.7081C52.5698 69.2644 54.5415 67.1053 54.8852 66.7928C57.688 64.2448 60.3963 61.5478 63.0831 58.7865C65.2559 56.5532 67.034 53.917 68.676 51.2781C69.3345 50.2198 70.185 49.0298 71.0127 48.0986C71.1867 47.9029 72.0182 46.5214 71.8938 46.528C68.8071 46.6904 64.9955 50.6681 62.9107 52.753C61.5784 54.0852 60.5467 55.6477 59.2906 57.0435C58.0295 58.4446 56.5542 59.6919 55.6705 61.3914C54.5745 63.4991 53.2215 65.5095 52.0504 67.5589C50.1776 70.8363 54.6522 60.3072 57.0687 57.4074C61.3439 52.2772 78.1931 41.2045 72.3727 44.4785C67.4436 47.2512 62.3184 49.5528 58.2563 53.6149C57.2223 54.6489 56.2018 55.6986 55.1534 56.7178C54.2293 57.6163 52.8308 58.1933 52.0504 59.2078C51.2538 60.2434 50.0903 61.9833 48.9475 62.6555C47.6687 63.4078 49.1759 62.4918 49.637 62.2341C50.7019 61.6391 51.7476 60.6416 52.74 59.8974C55.9139 57.5169 58.9663 54.97 62.0487 52.504C64.7356 50.3545 67.2775 47.861 70.2466 46.1066C71.0785 45.615 74.8651 43.3134 72.0471 44.038C69.6972 44.6422 66.4598 45.8049 64.3855 47.0643C63.3075 47.7188 60.8978 48.7595 60.2483 49.8224C59.3643 51.2689 57.9296 52.6066 56.8772 53.9597C55.4898 55.7435 54.3334 57.8431 52.5484 59.3036C51.4582 60.1957 49.9917 61.1633 49.2923 62.3874C48.5637 63.6623 48.4055 63.1953 49.139 62.0426C52.5083 56.7481 57.7624 52.7637 61.704 47.9262C63.2828 45.9885 65.2884 44.5141 67.0479 42.7547C67.2387 42.5639 68.5611 41.563 68.5611 41.3948C68.5611 41.3603 66.3732 42.7814 66.186 42.9271C64.5954 44.1641 62.5913 45.0583 61.0911 46.4514C59.5907 47.8445 57.8907 49.3234 56.2643 50.512C54.5354 51.7754 52.1177 54.7818 51.0927 56.7178C50.6969 57.4656 49.7465 57.9112 49.637 58.7865C49.5789 59.2517 48.9475 60.4811 48.9475 60.0123C48.9475 59.0311 50.0059 58.0118 50.25 57.0626C50.5028 56.0795 49.2905 55.8627 49.3689 55.6835C49.6279 55.0915 50.5416 55.2357 50.9395 54.9174C51.6106 54.3805 52.6776 53.7891 53.4295 53.3468C55.2654 52.2668 57.1326 51.0082 58.7926 49.6501C59.9451 48.7071 61.4647 48.0521 62.7191 47.2367C63.5841 46.6745 64.3848 45.7579 65.3241 45.3404C66.4317 44.8482 69.256 42.9271 68.0439 42.9271C65.6003 42.9271 63.1547 44.7683 61.0144 45.8384C58.0865 47.3024 54.485 49.1064 52.3952 51.7187C51.7599 52.5128 50.7335 52.9467 49.9818 53.6149C49.6376 53.9209 47.5876 55.4729 48.3346 54.7258C49.154 53.9064 50.1027 53.2811 50.9395 52.504C52.1746 51.3571 53.732 51.0717 55.1534 50.1672C59.5185 47.3894 63.7838 44.6834 68.5994 42.7355C70.1006 42.1283 71.6576 41.6844 73.0814 40.9351C73.6738 40.6233 74.3605 40.2114 73.1963 40.6669C64.2523 44.1667 55.1294 48.8121 48.258 55.6835C48.0994 55.8421 50.1912 53.907 50.6714 53.3468C52.1103 51.668 53.3598 49.6756 55.1534 48.3668C58.8108 45.6978 63.33 44.8722 67.2203 42.9271" stroke="#F5F5F5" stroke-width="4" stroke-linecap="round"/>
<path fill-rule="evenodd" clip-rule="evenodd" d="M77.9451 51.7916L76.5777 50.4176C75.926 49.7554 75.0429 49.3751 74.1163 49.3576H68.907V48.5986C68.907 46.6112 67.3035 45 65.3256 45H54.5814C54.042 45 53.6047 45.4394 53.6047 45.9814C53.6047 46.5235 54.042 46.9629 54.5814 46.9629H65.2865C66.1856 46.9629 66.9144 47.6952 66.9144 48.5986V56.882C66.9144 57.424 67.3517 57.8634 67.8912 57.8634C68.4306 57.8634 68.8679 57.424 68.8679 56.882V51.3205H74.0772C74.5088 51.3188 74.9225 51.4935 75.2233 51.8047L76.5907 53.1132C76.7772 53.3075 76.9116 53.5461 76.9814 53.8068H71.5116C70.9722 53.8068 70.5349 54.2462 70.5349 54.7882C70.5349 55.3303 70.9722 55.7697 71.5116 55.7697H77.0465V61.3312C77.0642 61.7762 76.9006 62.2093 76.5934 62.5303C76.2861 62.8514 75.8619 63.0327 75.4186 63.0323H73.973C73.6525 61.5225 72.3252 60.4433 70.7888 60.4433C69.2524 60.4433 67.9251 61.5225 67.6046 63.0323H60.6502C60.2997 61.4717 58.8696 60.4006 57.281 60.5089C55.6925 60.6173 54.4195 61.8727 54.282 63.4666C54.1445 65.0605 55.1836 66.5172 56.7299 66.8986C58.2762 67.2799 59.8684 66.472 60.4809 64.9952H67.787C68.2946 66.2098 69.4778 67 70.7888 67C72.0999 67 73.2831 66.2098 73.7907 64.9952H75.4186C77.3966 64.9952 79 63.3841 79 61.3966V54.3433C79.0018 53.3853 78.6219 52.4664 77.9451 51.7916ZM57.4726 64.7858C57.0353 64.8073 56.6294 64.5584 56.4483 64.158C56.2672 63.7575 56.3477 63.2866 56.6513 62.9698C56.9549 62.6529 57.4202 62.5544 57.8253 62.7211C58.2304 62.8878 58.4932 63.2861 58.4884 63.7259C58.4888 64.2963 58.0398 64.7647 57.4726 64.7858ZM69.7945 64.1204C69.959 64.5229 70.3492 64.7858 70.7823 64.7858C71.3671 64.7859 71.8431 64.3134 71.8502 63.7259C71.8555 63.2907 71.5987 62.8955 71.2001 62.7252C70.8015 62.555 70.34 62.6436 70.0319 62.9494C69.7238 63.2552 69.63 63.7178 69.7945 64.1204Z" fill="#7743DC"/>
<path d="M63.3721 52.3804C63.3651 51.8413 62.9319 51.406 62.3953 51.399H51.9767C51.4373 51.399 51 51.8384 51 52.3804C51 52.9225 51.4373 53.3619 51.9767 53.3619H62.3953C62.9319 53.3548 63.3651 52.9195 63.3721 52.3804Z" fill="#7743DC"/>
<path d="M62.3953 55.3248H55.8837C55.3443 55.3248 54.907 55.7642 54.907 56.3062C54.907 56.8482 55.3443 57.2876 55.8837 57.2876H62.3953C62.9348 57.2876 63.3721 56.8482 63.3721 56.3062C63.3721 55.7642 62.9348 55.3248 62.3953 55.3248Z" fill="#7743DC"/>
</svg>
