<svg width="76" height="77" viewBox="0 0 76 77" fill="none" xmlns="http://www.w3.org/2000/svg">
<g filter="url(#filter0_d_243_6997)">
<circle cx="37.8608" cy="38.2817" r="33.8433" fill="white"/>
<circle cx="37.8608" cy="38.2817" r="33.3433" stroke="#263238"/>
</g>
<g clip-path="url(#clip0_243_6997)">
<path d="M62.3088 33.7632C62.3013 33.7479 62.3013 33.7326 62.2938 33.7096C62.2562 33.6073 62.2031 33.5117 62.1363 33.4263C62.1288 33.4187 62.1288 33.4034 62.1213 33.3957L53.3838 22.4702C53.3688 22.4549 53.3613 22.4473 53.3463 22.4396C53.3163 22.4013 53.2863 22.3707 53.2488 22.3324C53.2263 22.3171 53.2038 22.2941 53.1813 22.2788C53.1438 22.2559 53.1063 22.2252 53.0613 22.2023C53.0361 22.185 53.0082 22.172 52.9788 22.164C52.9713 22.1563 52.9638 22.1487 52.9563 22.1487C52.9188 22.1334 52.8813 22.1257 52.8513 22.118C52.8213 22.1104 52.7988 22.0951 52.7688 22.0874C52.7088 22.0798 52.6488 22.0721 52.5888 22.0721C52.5738 22.0721 52.5588 22.0645 52.5513 22.0645H24.1788C24.1638 22.0645 24.1563 22.0721 24.1413 22.0721C24.0813 22.0721 24.0213 22.0798 23.9613 22.0874C23.9313 22.0951 23.9013 22.1104 23.8788 22.118C23.8413 22.1257 23.8038 22.1334 23.7738 22.1487C23.7663 22.1487 23.7513 22.1563 23.7438 22.164C23.7138 22.1716 23.6913 22.1946 23.6613 22.2099C23.6238 22.2252 23.5788 22.2559 23.5488 22.2788C23.5188 22.2941 23.5038 22.3171 23.4813 22.3324C23.4438 22.3707 23.4063 22.4013 23.3763 22.432C23.3688 22.4473 23.3538 22.4549 23.3463 22.4702L14.6088 33.3957C14.6013 33.4034 14.5938 33.4187 14.5938 33.4263C14.5263 33.5105 14.4738 33.6101 14.4363 33.7096C14.4288 33.7326 14.4213 33.7479 14.4213 33.7632C14.3838 33.8704 14.3613 33.9776 14.3613 34.0924V34.1001C14.3613 34.2149 14.3838 34.3221 14.4213 34.4293C14.4213 34.4446 14.4288 34.4599 14.4363 34.4752C14.4738 34.5824 14.5263 34.682 14.5938 34.7662C14.6013 34.7738 14.6013 34.7815 14.6088 34.7891L37.5363 63.1938C37.5888 63.2627 37.6563 63.324 37.7313 63.3776C37.7463 63.3929 37.7688 63.4006 37.7838 63.4082C37.8513 63.4541 37.9188 63.4924 37.9938 63.5154C38.0163 63.5307 38.0463 63.5384 38.0688 63.546C38.1663 63.569 38.2638 63.592 38.3613 63.592C38.4663 63.592 38.5638 63.569 38.6538 63.546C38.6838 63.5384 38.7063 63.5307 38.7363 63.5154C38.8038 63.4924 38.8788 63.4541 38.9388 63.4082C38.9602 63.4011 38.9804 63.3908 38.9988 63.3776C39.0663 63.324 39.1338 63.2627 39.1938 63.1938L62.1213 34.7891C62.1213 34.7815 62.1288 34.7738 62.1288 34.7662C62.1963 34.682 62.2563 34.5824 62.2938 34.4752C62.3013 34.4599 62.3013 34.4446 62.3088 34.4293C62.3388 34.3221 62.3613 34.2149 62.3613 34.1001V34.0924C62.3613 33.9776 62.3388 33.8704 62.3088 33.7632ZM50.9538 24.2618L47.8413 32.0712L40.8063 24.2618H50.9538ZM45.7488 32.9976H30.9813L38.3613 24.7824L45.7488 32.9976ZM35.9163 24.2618L28.8888 32.0712L25.7763 24.2618H35.9163ZM23.8638 25.2877L26.9388 32.9976H17.6988L23.8638 25.2877ZM17.7138 35.1873H27.7713L35.3238 56.9999L17.7138 35.1873ZM38.3613 59.2049L30.0513 35.1873H46.6713L38.3613 59.2049ZM41.4063 56.9999L48.9513 35.1873H59.0088L41.4063 56.9999ZM49.7913 32.9976L52.8588 25.2877L59.0238 32.9976H49.7913Z" fill="#7743DC"/>
<path d="M35.3239 56.9998L17.7139 35.1872H27.7714L35.3239 56.9998ZM46.6714 35.1872L38.3614 59.2048L30.0514 35.1872H46.6714ZM59.0089 35.1872L41.4064 56.9998L48.9514 35.1872H59.0089ZM50.9539 24.2617L47.8414 32.0711L40.8064 24.2617H50.9539ZM35.9164 24.2617L28.8889 32.0711L25.7764 24.2617H35.9164Z" fill="#7743DC" fill-opacity="0.52"/>
<path d="M26.9387 32.9974H17.6987L23.8637 25.2875L26.9387 32.9974ZM45.7487 32.9974H30.9812L38.3612 24.7822L45.7487 32.9974ZM59.0237 32.9974H49.7912L52.8587 25.2875L59.0237 32.9974Z" fill="#7743DC" fill-opacity="0.25"/>
</g>
<defs>
<filter id="filter0_d_243_6997" x="0.0175781" y="0.438477" width="75.6865" height="75.6865" filterUnits="userSpaceOnUse" color-interpolation-filters="sRGB">
<feFlood flood-opacity="0" result="BackgroundImageFix"/>
<feColorMatrix in="SourceAlpha" type="matrix" values="0 0 0 0 0 0 0 0 0 0 0 0 0 0 0 0 0 0 127 0" result="hardAlpha"/>
<feOffset/>
<feGaussianBlur stdDeviation="2"/>
<feComposite in2="hardAlpha" operator="out"/>
<feColorMatrix type="matrix" values="0 0 0 0 0 0 0 0 0 0 0 0 0 0 0 0 0 0 0.25 0"/>
<feBlend mode="normal" in2="BackgroundImageFix" result="effect1_dropShadow_243_6997"/>
<feBlend mode="normal" in="SourceGraphic" in2="effect1_dropShadow_243_6997" result="shape"/>
</filter>
<clipPath id="clip0_243_6997">
<rect width="48" height="49" fill="white" transform="translate(14.3613 18.3281)"/>
</clipPath>
</defs>
</svg>
