<svg width="77" height="77" viewBox="0 0 77 77" fill="none" xmlns="http://www.w3.org/2000/svg">
<g filter="url(#filter0_d_243_6955)">
<circle cx="38.4341" cy="38.6792" r="33.8433" fill="white"/>
<circle cx="38.4341" cy="38.6792" r="33.3433" stroke="#263238"/>
</g>
<path d="M19.151 47.211C19.0067 47.2111 18.8644 47.1763 18.7359 47.1096L11.8285 43.4904C11.6155 43.3789 11.4546 43.1861 11.3809 42.9543C11.3072 42.7225 11.3267 42.4704 11.4352 42.2532L19.5497 25.9489C19.6036 25.8407 19.6779 25.7443 19.7685 25.6653C19.8591 25.5863 19.9641 25.5263 20.0775 25.4887C20.1909 25.4511 20.3105 25.4367 20.4294 25.4462C20.5483 25.4557 20.6642 25.489 20.7704 25.5442L27.3417 28.9551C27.5526 29.0644 27.7132 29.2532 27.7891 29.4813C27.865 29.7094 27.8501 29.9586 27.7477 30.1757L19.9684 46.6846C19.9158 46.7957 19.842 46.8949 19.7513 46.9766C19.6606 47.0583 19.5548 47.1207 19.4401 47.1603C19.3469 47.1927 19.2494 47.2098 19.151 47.211ZM13.4588 42.2698L18.7368 45.0354L25.7313 30.1932L20.7559 27.612L13.4588 42.2698Z" fill="#7743DC"/>
<path d="M28.5398 34.3822C28.3839 34.3822 28.2307 34.3412 28.0949 34.2633L25.4613 32.7542C25.3576 32.6948 25.2664 32.6152 25.1929 32.52C25.1194 32.4248 25.0651 32.3157 25.033 32.1992C25.001 32.0826 24.9918 31.9607 25.006 31.8405C25.0203 31.7203 25.0576 31.6041 25.116 31.4986C25.1744 31.3931 25.2526 31.3003 25.3462 31.2256C25.4399 31.1508 25.547 31.0956 25.6617 31.063C25.7763 31.0303 25.8961 31.021 26.0142 31.0355C26.1324 31.05 26.2466 31.088 26.3503 31.1474L28.5253 32.3928C29.3745 31.8692 31.2124 30.7418 32.3887 30.066C34.309 28.9598 35.6611 29.1119 37.2135 30.6081C37.3835 30.7773 37.4813 31.0076 37.4858 31.2494C37.4903 31.4913 37.4013 31.7252 37.2378 31.9009C37.0743 32.0765 36.8494 32.1797 36.6118 32.1883C36.3742 32.1969 36.1428 32.1101 35.9674 31.9466C35.0032 31.0174 34.5011 30.9695 33.2804 31.6701C31.7688 32.5394 29.0419 34.2301 29.0138 34.2513C28.8707 34.3385 28.7066 34.3838 28.5398 34.3822Z" fill="#7743DC"/>
<path d="M52.3803 50.4223C51.7199 50.4396 51.0685 50.2646 50.5025 49.9181C49.6688 49.352 46.0003 45.6922 45.2735 44.9648C45.1132 44.7913 45.0252 44.5615 45.0278 44.3235C45.0303 44.0854 45.1233 43.8576 45.2873 43.6878C45.4512 43.5179 45.6734 43.4191 45.9073 43.4121C46.1412 43.4051 46.3687 43.4905 46.5422 43.6502C48.1735 45.2884 50.972 48.0218 51.5057 48.3841C51.8498 48.5458 52.2303 48.6102 52.6073 48.5706C52.9843 48.5311 53.3438 48.3889 53.6481 48.1591C53.7906 48.0334 53.9043 47.8774 53.981 47.7021C54.0578 47.5269 54.0957 47.3366 54.0923 47.1447C54.0888 46.9529 54.044 46.7642 53.961 46.5919C53.878 46.4196 53.7588 46.2679 53.6119 46.1476C52.6857 45.0874 48.8377 41.3216 47.9931 40.4956C45.0459 39.3967 42.1879 38.0645 39.4454 36.5112L38.492 37.1455C38.2779 38.1562 37.7069 39.052 36.887 39.6631C36.5993 39.8937 36.2652 40.0572 35.9084 40.1419C35.5517 40.2267 35.181 40.2307 34.8226 40.1536C34.3877 40.0984 33.9688 39.9516 33.5929 39.7223C33.217 39.4931 32.8922 39.1866 32.6394 38.8224C32.1575 37.7749 32.1034 36.5759 32.489 35.488C33.262 32.3407 34.5163 31.5303 36.2517 30.4093L36.6333 30.1614C38.5455 28.9122 40.1867 28.2466 41.9883 29.0717C43.1084 29.5852 47.0842 31.1515 48.2133 31.5958L51.9978 30.3338C52.2246 30.2636 52.4692 30.2866 52.6795 30.3978C52.8897 30.509 53.0488 30.6995 53.1227 30.9285C53.1965 31.1576 53.1792 31.4069 53.0745 31.6231C52.9698 31.8394 52.7859 32.0053 52.5624 32.0853L48.4707 33.4497C48.2726 33.5154 48.0583 33.5102 47.8635 33.4349C47.6487 33.3501 42.5937 31.3718 41.2479 30.7541C40.4404 30.3854 39.5877 30.4232 37.6157 31.712L37.226 31.9655C35.6427 32.9878 34.848 33.5022 34.2498 35.9351C33.9435 37.1814 34.0849 37.6866 34.1964 37.871C34.3396 38.1144 34.6712 38.213 35.1996 38.3476C35.313 38.367 35.4292 38.3606 35.5399 38.3287C35.6506 38.2968 35.7529 38.2403 35.8394 38.1632C36.095 37.9673 36.3085 37.7203 36.4667 37.4373C36.6249 37.1543 36.7245 36.8413 36.7592 36.5177C36.7711 36.3787 36.8138 36.2443 36.8841 36.1245C36.9544 36.0047 37.0506 35.9028 37.1652 35.8263L38.9098 34.6656C39.0473 34.5747 39.2065 34.5234 39.3704 34.5172C39.5343 34.511 39.6968 34.5502 39.8405 34.6306C39.9021 34.6647 46.0121 38.0637 48.6882 38.779C48.837 38.8195 48.9734 38.8971 49.0852 39.0049C49.2809 39.1957 53.8883 43.6834 54.9703 44.9252C55.2702 45.2204 55.5079 45.5745 55.6692 45.966C55.8304 46.3575 55.9118 46.7783 55.9084 47.2027C55.9051 47.6272 55.8169 48.0466 55.6495 48.4353C55.482 48.8241 55.2386 49.1743 54.9341 49.4645C54.2368 50.108 53.3213 50.4514 52.3803 50.4223Z" fill="#7743DC"/>
<path d="M54.2928 46.4572C54.0851 46.4571 53.8838 46.3844 53.7226 46.2513C53.5613 46.1182 53.4498 45.9328 53.4068 45.7262C53.3639 45.5195 53.3919 45.3041 53.4864 45.116C53.5809 44.9279 53.736 44.7784 53.9258 44.6927L57.1049 43.2601C57.2142 43.2077 57.3327 43.1779 57.4534 43.1727C57.5741 43.1675 57.6947 43.1869 57.8079 43.2298C57.9212 43.2726 58.0249 43.3381 58.1129 43.4224C58.2009 43.5066 58.2715 43.6079 58.3204 43.7203C58.3694 43.8327 58.3957 43.9539 58.398 44.0768C58.4002 44.1997 58.3782 44.3218 58.3334 44.436C58.2885 44.5501 58.2217 44.654 58.1367 44.7415C58.0518 44.8289 57.9506 44.8982 57.839 44.9453L54.6589 46.3816C54.5434 46.4324 54.4187 46.4581 54.2928 46.4572Z" fill="#7743DC"/>
<path d="M58.4494 47.2111C58.2688 47.211 58.0923 47.156 57.9426 47.0532C57.7929 46.9504 57.6769 46.8044 57.6093 46.634L50.7689 29.3709C50.7232 29.2558 50.7008 29.1325 50.7031 29.0083C50.7054 28.8842 50.7323 28.7618 50.7823 28.6485C50.8322 28.5352 50.9041 28.4333 50.9937 28.349C51.0833 28.2647 51.1887 28.1996 51.3036 28.1578L58.6135 25.4972C58.8346 25.4168 59.0778 25.4268 59.2918 25.5251C59.5058 25.6235 59.674 25.8025 59.7608 26.0245L66.467 43.1474C66.5109 43.2606 66.5323 43.3816 66.53 43.5032C66.5277 43.6249 66.5018 43.7449 66.4537 43.8563C66.4056 43.9677 66.3362 44.0683 66.2497 44.1524C66.1632 44.2364 66.0612 44.3022 65.9495 44.3459L58.7739 47.1465C58.6705 47.1881 58.5605 47.21 58.4494 47.2111ZM52.7999 29.5701L58.9542 45.1009L64.4406 42.9621L58.4005 27.5327L52.7999 29.5701ZM48.2976 53.218C47.5505 53.2408 46.821 52.9854 46.2459 52.4999C45.0324 51.4028 41.9131 48.2316 41.7808 48.097C41.6157 47.9231 41.5243 47.6903 41.5264 47.4485C41.5285 47.2068 41.6238 46.9756 41.7918 46.8047C41.9598 46.6338 42.1871 46.5368 42.4247 46.5347C42.6624 46.5326 42.8913 46.6255 43.0622 46.7935C43.0939 46.8257 46.2767 50.0615 47.4494 51.1263C47.6924 51.2769 47.9677 51.3656 48.2517 51.3849C48.5357 51.4041 48.82 51.3534 49.0806 51.2369C49.5062 51.0892 49.8837 50.8255 50.172 50.4746C50.4603 50.1236 50.6483 49.6988 50.7155 49.2466C50.7357 49.1273 50.7788 49.0132 50.8424 48.9108C50.906 48.8085 50.9888 48.7199 51.086 48.6501C51.1832 48.5802 51.293 48.5306 51.4091 48.504C51.5252 48.4773 51.6454 48.4742 51.7627 48.4948C51.8799 48.5154 51.9921 48.5592 52.0927 48.6239C52.1933 48.6886 52.2804 48.7728 52.3491 48.8717C52.4177 48.9706 52.4665 49.0823 52.4927 49.2004C52.5189 49.3185 52.5219 49.4407 52.5017 49.56C52.3785 50.3345 52.0514 51.0605 51.5552 51.6611C51.0589 52.2616 50.4121 52.7143 49.6833 52.9709C49.2382 53.1316 48.7698 53.2151 48.2976 53.218Z" fill="#7743DC"/>
<path d="M44.08 55.4522C43.3345 55.4845 42.6059 55.22 42.0491 54.7147L38.8301 51.4402L40.1124 50.1357L43.3314 53.4102C43.5306 53.524 43.7511 53.594 43.9785 53.6156C44.206 53.6372 44.4354 53.6099 44.6518 53.5356C45.0675 53.4318 45.4482 53.2162 45.754 52.9115C46.0598 52.6068 46.2794 52.2241 46.39 51.8034C46.4235 51.6861 46.4796 51.5767 46.5551 51.4816C46.6305 51.3865 46.7238 51.3076 46.8295 51.2495C46.9352 51.1914 47.0512 51.1553 47.1707 51.1432C47.2903 51.1312 47.411 51.1434 47.5258 51.1792C47.6407 51.215 47.7474 51.2737 47.8398 51.3518C47.9321 51.43 48.0083 51.526 48.0638 51.6343C48.1194 51.7427 48.1532 51.8612 48.1633 51.983C48.1734 52.1047 48.1596 52.2273 48.1228 52.3436C47.8706 53.237 47.3403 54.0231 46.6115 54.5836C45.8826 55.1442 44.9946 55.449 44.0809 55.4522H44.08Z" fill="#7743DC"/>
<path d="M40.6257 57.9147C39.8848 57.9308 39.1603 57.692 38.5694 57.2372C37.753 56.5723 36.9329 55.9122 36.1089 55.257C36.0132 55.1832 35.9328 55.0907 35.8725 54.9851C35.8122 54.8794 35.7731 54.7626 35.7576 54.6414C35.7421 54.5202 35.7504 54.3971 35.782 54.2792C35.8137 54.1613 35.8681 54.051 35.942 53.9547C36.016 53.8584 36.108 53.778 36.2128 53.7182C36.3176 53.6584 36.433 53.6204 36.5523 53.6064C36.6716 53.5924 36.7925 53.6027 36.9079 53.6366C37.0233 53.6705 37.131 53.7275 37.2245 53.8041C37.2245 53.8041 38.3564 54.7029 39.7022 55.7981C39.9889 55.9717 40.3151 56.0666 40.6486 56.0736C40.9822 56.0805 41.3119 55.9993 41.6053 55.8378C41.8677 55.723 42.0898 55.53 42.2422 55.2843C42.3946 55.0386 42.4702 54.7517 42.459 54.4614C42.4517 54.217 42.5401 53.9797 42.7048 53.8016C42.8695 53.6236 43.097 53.5193 43.3372 53.5119C43.5767 53.5076 43.8084 53.5987 43.9828 53.7657C44.1572 53.9328 44.2605 54.1626 44.2706 54.4061C44.292 55.0482 44.1275 55.6826 43.7975 56.2305C43.4676 56.7784 42.9867 57.2156 42.4146 57.4879C41.8584 57.768 41.2463 57.914 40.6257 57.9147Z" fill="#7743DC"/>
<path d="M33.8342 57.4885C33.5396 57.4875 33.2481 57.428 32.976 57.3134C32.237 56.9445 31.6278 56.3528 31.2314 55.619C30.5883 55.7459 29.9218 55.644 29.3437 55.3304C28.8588 55.0071 28.442 54.5889 28.1174 54.1002C27.7929 53.6115 27.5671 53.062 27.4533 52.4837C27.4055 52.2482 27.4501 52.0031 27.5774 51.8006C28.3142 50.6316 29.4253 48.8146 29.5911 48.4357C29.7403 48.1334 29.952 47.8675 30.2117 47.6562C30.4713 47.4449 30.7728 47.2932 31.0955 47.2115C31.5344 47.0945 31.9935 47.0788 32.4391 47.1656C32.8847 47.2523 33.3057 47.4394 33.6711 47.713C34.076 47.9857 34.4012 48.3644 34.6123 48.8092C34.8235 49.2541 34.9128 49.7486 34.8709 50.2408C35.302 50.2596 35.724 50.3724 36.1086 50.5713C36.4932 50.7703 36.8314 51.0508 37.1003 51.394C37.3615 51.8093 37.5282 52.2786 37.5883 52.7678C37.6483 53.257 37.6002 53.7536 37.4474 54.2214C36.9721 55.571 35.9961 56.6775 34.7286 57.3042C34.4456 57.4259 34.1415 57.4886 33.8342 57.4885ZM32.7576 54.6114C33.0421 55.1009 33.5505 55.8034 34.0263 55.6015C34.8162 55.183 35.4244 54.4799 35.7319 53.6296C35.7924 53.4414 35.8155 53.2429 35.8 53.0455C35.7844 52.8482 35.7305 52.656 35.6412 52.48C35.5034 52.3426 35.3397 52.235 35.16 52.1634C34.9803 52.0918 34.7883 52.0577 34.5954 52.0633L32.7576 54.6114ZM29.322 52.445C29.4662 52.9572 29.7787 53.4036 30.2074 53.7098C30.3412 53.7796 30.4877 53.8208 30.6378 53.8308C30.7879 53.8408 30.9384 53.8194 31.0801 53.7679L33.0149 50.3938C33.0918 50.1853 33.0968 49.9564 33.0289 49.7446C32.9611 49.5329 32.8245 49.3509 32.6416 49.2285C32.5024 49.1169 32.3418 49.0362 32.1701 48.9916C31.9984 48.947 31.8194 48.9395 31.6447 48.9695C31.4904 48.9954 31.3496 49.0745 31.2459 49.1935C31.0067 49.7328 29.8557 51.5913 29.322 52.445Z" fill="#7743DC"/>
<path d="M26.9073 53.884C26.6926 53.8847 26.4789 53.8536 26.273 53.7919C24.7205 53.3171 24.1125 51.2724 24.0481 51.041C24.0156 50.9236 24.0063 50.8008 24.0208 50.6798C24.0353 50.5587 24.0732 50.4418 24.1324 50.3357C24.9027 48.9746 25.7546 47.6631 26.6835 46.4086C27.1498 45.7915 27.8254 45.3734 28.5785 45.2358C29.3315 45.0982 30.108 45.2511 30.7562 45.6646C31.6117 46.2684 32.2388 47.5821 31.1894 49.2986C31.1266 49.4015 31.0445 49.4909 30.9478 49.5615C30.8511 49.6321 30.7416 49.6827 30.6257 49.7103C30.5098 49.7379 30.3897 49.742 30.2722 49.7224C30.1547 49.7028 30.0422 49.6598 29.941 49.5959C29.8398 49.5321 29.752 49.4486 29.6826 49.3502C29.6132 49.2518 29.5635 49.1405 29.5363 49.0226C29.5092 48.9047 29.5051 48.7824 29.5244 48.6629C29.5437 48.5434 29.586 48.429 29.6487 48.3261C29.8816 47.9435 30.0837 47.4355 29.7221 47.1802C29.4579 47.0333 29.1505 46.9881 28.8561 47.0528C28.5618 47.1174 28.3001 47.2876 28.119 47.5323C27.3229 48.6084 26.5862 49.7287 25.9123 50.8879C26.1107 51.3701 26.4488 51.9223 26.794 52.0265C27.0995 52.1186 27.519 51.7997 27.7465 51.6024C27.9285 51.4425 28.1654 51.3627 28.4052 51.3805C28.645 51.3983 28.868 51.5123 29.0252 51.6974C29.1824 51.8824 29.2609 52.1235 29.2434 52.3674C29.2259 52.6113 29.1138 52.8382 28.9319 52.9981C28.387 53.5365 27.6663 53.8519 26.9073 53.884Z" fill="#7743DC"/>
<path d="M24.9185 51.7098C24.8189 51.7097 24.72 51.6929 24.6258 51.66C24.4727 51.6075 20.8604 50.3233 20.8604 47.4452C20.8603 47.3486 20.8749 47.2524 20.9039 47.1604C21.2318 46.2424 21.6808 45.374 22.2388 44.5791C22.6539 44.0744 23.2274 43.7307 23.8626 43.6058C24.4977 43.4808 25.1558 43.5824 25.726 43.8932C26.2628 44.1352 26.6908 44.5731 26.9257 45.1204C27.1606 45.6678 27.1852 46.2848 26.9948 46.8497C26.4021 48.7912 25.794 51.0101 25.7876 51.0332C25.7344 51.227 25.6203 51.3978 25.4627 51.5195C25.3051 51.6411 25.1128 51.707 24.9149 51.707L24.9185 51.7098ZM22.6801 47.5881C22.7707 48.451 23.6389 49.1074 24.3349 49.501C24.5714 48.6603 24.9222 47.4369 25.2665 46.3058C25.2981 46.2339 25.3143 46.156 25.314 46.0773C25.3136 45.9986 25.2967 45.9209 25.2645 45.8493C25.2322 45.7777 25.1853 45.714 25.1269 45.6624C25.0685 45.6107 24.9999 45.5724 24.9258 45.5498C24.7386 45.4424 24.5242 45.3938 24.3098 45.4102C24.0955 45.4266 23.8907 45.5073 23.7214 45.642C23.3012 46.2474 22.9518 46.9005 22.6801 47.5881Z" fill="#7743DC"/>
<path d="M22.5103 46.7773C22.3278 46.7771 22.1497 46.7209 21.9992 46.616L19.6221 44.9566C19.4237 44.8185 19.2873 44.6058 19.243 44.3654C19.1988 44.125 19.2502 43.8766 19.386 43.6748C19.5218 43.4729 19.7308 43.3342 19.9672 43.2892C20.2035 43.2442 20.4477 43.2965 20.6461 43.4346L23.0232 45.094C23.1833 45.2051 23.3042 45.3656 23.3681 45.5518C23.4319 45.738 23.4354 45.9401 23.378 46.1284C23.3206 46.3168 23.2054 46.4814 23.0492 46.5982C22.893 46.715 22.7041 46.7778 22.5103 46.7773Z" fill="#7743DC"/>
<defs>
<filter id="filter0_d_243_6955" x="0.59082" y="0.835938" width="75.6865" height="75.6865" filterUnits="userSpaceOnUse" color-interpolation-filters="sRGB">
<feFlood flood-opacity="0" result="BackgroundImageFix"/>
<feColorMatrix in="SourceAlpha" type="matrix" values="0 0 0 0 0 0 0 0 0 0 0 0 0 0 0 0 0 0 127 0" result="hardAlpha"/>
<feOffset/>
<feGaussianBlur stdDeviation="2"/>
<feComposite in2="hardAlpha" operator="out"/>
<feColorMatrix type="matrix" values="0 0 0 0 0 0 0 0 0 0 0 0 0 0 0 0 0 0 0.25 0"/>
<feBlend mode="normal" in2="BackgroundImageFix" result="effect1_dropShadow_243_6955"/>
<feBlend mode="normal" in="SourceGraphic" in2="effect1_dropShadow_243_6955" result="shape"/>
</filter>
</defs>
</svg>
