<svg width="76" height="76" viewBox="0 0 76 76" fill="none" xmlns="http://www.w3.org/2000/svg">
<g filter="url(#filter0_d_243_6974)">
<circle cx="38.1055" cy="37.8403" r="33.8433" fill="white"/>
<circle cx="38.1055" cy="37.8403" r="33.3433" stroke="#263238"/>
</g>
<g clip-path="url(#clip0_243_6974)">
<path d="M38.1055 59.8398C50.2557 59.8398 60.1055 49.9901 60.1055 37.8398C60.1055 25.6896 50.2557 15.8398 38.1055 15.8398C25.9552 15.8398 16.1055 25.6896 16.1055 37.8398C16.1055 49.9901 25.9552 59.8398 38.1055 59.8398Z" fill="#5F2EE5" fill-opacity="0.62"/>
<path fill-rule="evenodd" clip-rule="evenodd" d="M38.9212 59.809C39.1684 59.8047 39.4155 59.7963 39.6624 59.7836C40.3935 59.732 41.1215 59.6439 41.8438 59.5196C42.5667 59.3942 43.2829 59.2327 43.9897 59.0356C44.6968 58.8404 45.3938 58.61 46.078 58.3452C46.761 58.0792 47.4303 57.7793 48.0834 57.4466C48.737 57.1136 49.3735 56.7482 49.9906 56.3516C50.6078 55.9558 51.2048 55.5294 51.7794 55.0739C52.3544 54.6178 52.9062 54.1332 53.4327 53.6219C53.9591 53.1108 54.4595 52.5737 54.9321 52.0126C55.4044 51.4513 55.8484 50.8667 56.2623 50.261C56.6769 49.6556 57.061 49.0298 57.413 48.386C57.7651 47.7423 58.0848 47.0815 58.3709 46.406C58.6562 45.7307 58.9075 45.0417 59.124 44.3413C59.3399 43.64 59.5207 42.9284 59.6655 42.209C59.8123 41.4901 59.923 40.7644 59.9972 40.0344C60.0698 39.305 60.106 38.5725 60.1055 37.8395C60.1053 37.32 60.0867 36.8007 60.0497 36.2826C59.998 35.5515 59.9099 34.8235 59.7857 34.1012C59.7823 34.0871 59.7789 34.073 59.7755 34.0589L54.7815 29.0632C54.8822 28.9384 54.9454 28.7875 54.9637 28.6281C54.982 28.4688 54.9546 28.3075 54.8847 28.1631C54.8148 28.0187 54.7053 27.8972 54.569 27.8126C54.4327 27.7281 54.2751 27.6841 54.1147 27.6856C53.9237 27.6872 53.7388 27.7534 53.5901 27.8735L50.2224 30.4983L46.562 26.8395C46.562 26.7269 46.5396 26.6155 46.496 26.5117C46.4524 26.4079 46.3886 26.3139 46.3082 26.2351C46.2278 26.1563 46.1325 26.0943 46.0279 26.0528C45.9233 26.0113 45.8114 25.9911 45.6989 25.9933C42.9455 26.0526 40.1329 26.0509 37.305 26.0356C34.4738 26.0221 31.6274 25.9933 28.7978 25.9933C28.5734 25.9933 28.3582 26.0825 28.1995 26.2412C28.0408 26.3999 27.9517 26.6151 27.9517 26.8395V48.8395C27.9517 49.0639 28.0408 49.2791 28.1995 49.4378C28.3582 49.5965 28.5734 49.6856 28.7978 49.6856L38.9212 59.809Z" fill="#7743DC"/>
<path fill-rule="evenodd" clip-rule="evenodd" d="M28.7978 25.9933C28.5734 25.9933 28.3582 26.0825 28.1995 26.2412C28.0408 26.3999 27.9517 26.6151 27.9517 26.8395V48.8395C27.9517 49.0639 28.0408 49.2791 28.1995 49.4378C28.3582 49.5965 28.5734 49.6856 28.7978 49.6856H45.7209C45.9447 49.6847 46.1591 49.5952 46.317 49.4366C46.475 49.278 46.5637 49.0633 46.5637 48.8395V41.2241H44.8747V47.9933H29.644V27.6856C34.7209 27.7026 39.8621 27.7703 44.8747 27.6856V29.5201H46.5704L46.5637 28.6739V26.8395C46.5637 26.7269 46.5412 26.6155 46.4977 26.5117C46.4541 26.4079 46.3902 26.3139 46.3099 26.2351C46.2295 26.1563 46.1342 26.0943 46.0296 26.0528C45.925 26.0113 45.8131 25.9911 45.7006 25.9933C40.1921 26.1118 34.4603 25.9933 28.7978 25.9933ZM54.1147 27.6856C53.9237 27.6872 53.7388 27.7534 53.5901 27.8735L39.0938 39.1595L34.5246 33.8389C34.4521 33.7543 34.3637 33.6848 34.2644 33.6344C34.1651 33.584 34.0569 33.5537 33.9459 33.5451C33.8349 33.5366 33.7232 33.55 33.6174 33.5845C33.5115 33.6191 33.4135 33.6742 33.329 33.7466C33.1582 33.893 33.0525 34.1011 33.0352 34.3253C33.0179 34.5496 33.0904 34.7715 33.2367 34.9423L38.8552 41.483L54.6275 29.2104C54.7698 29.1037 54.8749 28.9548 54.9277 28.785C54.9806 28.6151 54.9786 28.4329 54.922 28.2643C54.8654 28.0957 54.7571 27.9491 54.6125 27.8456C54.4679 27.742 54.2943 27.6866 54.1164 27.6873L54.1147 27.6856Z" fill="white"/>
</g>
<defs>
<filter id="filter0_d_243_6974" x="0.262207" y="-0.00292969" width="75.6865" height="75.6865" filterUnits="userSpaceOnUse" color-interpolation-filters="sRGB">
<feFlood flood-opacity="0" result="BackgroundImageFix"/>
<feColorMatrix in="SourceAlpha" type="matrix" values="0 0 0 0 0 0 0 0 0 0 0 0 0 0 0 0 0 0 127 0" result="hardAlpha"/>
<feOffset/>
<feGaussianBlur stdDeviation="2"/>
<feComposite in2="hardAlpha" operator="out"/>
<feColorMatrix type="matrix" values="0 0 0 0 0 0 0 0 0 0 0 0 0 0 0 0 0 0 0.25 0"/>
<feBlend mode="normal" in2="BackgroundImageFix" result="effect1_dropShadow_243_6974"/>
<feBlend mode="normal" in="SourceGraphic" in2="effect1_dropShadow_243_6974" result="shape"/>
</filter>
<clipPath id="clip0_243_6974">
<rect width="44" height="44" fill="white" transform="translate(16.1055 15.8398)"/>
</clipPath>
</defs>
</svg>
