<svg width="77" height="76" viewBox="0 0 77 76" fill="none" xmlns="http://www.w3.org/2000/svg">
<g filter="url(#filter0_d_243_6986)">
<circle cx="38.4487" cy="38.041" r="33.8433" fill="white"/>
<circle cx="38.4487" cy="38.041" r="33.3433" stroke="#263238"/>
</g>
<g clip-path="url(#clip0_243_6986)">
<path d="M44.3343 39.0578C49.6854 39.0578 54.0421 34.7012 54.0421 29.35C54.0421 23.9988 49.6854 19.6348 44.3343 19.6348C38.9831 19.6348 34.6265 23.9914 34.6265 29.3426C34.6265 34.6938 38.9831 39.0578 44.3343 39.0578ZM44.3343 21.1191C48.8765 21.1191 52.5651 24.8004 52.5651 29.3426C52.5651 33.8848 48.8839 37.5734 44.3417 37.5734C39.7995 37.5734 36.1108 33.8922 36.1108 29.35C36.1108 29.35 36.1108 29.35 36.1108 29.3426C36.1183 24.8078 39.7921 21.1266 44.3343 21.1191Z" fill="#7743DC"/>
<path d="M44.3343 32.5268C43.6589 32.5268 43.1171 31.9775 43.1171 31.3096C43.1171 30.9014 42.7831 30.5674 42.3749 30.5674C41.9593 30.5674 41.6253 30.8939 41.6179 31.3096C41.6179 32.5193 42.4565 33.5436 43.4956 33.885V34.5529C43.4956 34.9611 43.8296 35.2951 44.2378 35.2951C44.646 35.2951 44.98 34.9611 44.98 34.5529V33.9295C46.4272 33.5658 47.303 32.0963 46.9394 30.649C46.6351 29.4541 45.5589 28.608 44.3269 28.608C43.6515 28.608 43.1097 28.0588 43.1171 27.3834C43.1245 26.708 43.6663 26.1662 44.3417 26.1736C45.0097 26.1736 45.5515 26.7229 45.5515 27.3908C45.5515 27.799 45.8855 28.133 46.2937 28.133C46.6944 28.133 47.021 27.8064 47.021 27.3982V27.3908C47.021 26.1514 46.1823 25.0752 44.98 24.7709V24.4814C44.98 24.0732 44.646 23.7393 44.2378 23.7393C43.8296 23.7393 43.4956 24.0732 43.4956 24.4814V24.8154C42.4565 25.1643 41.6179 26.1885 41.6179 27.3908C41.6179 28.8826 42.8276 30.0924 44.3269 30.0924C45.0022 30.0924 45.544 30.6416 45.5366 31.317C45.5366 31.9775 45.0022 32.5193 44.3343 32.5268ZM55.5265 41.9822C54.569 40.8021 52.8397 40.624 51.6522 41.5814C50.1679 42.7912 48.0081 44.5354 46.6054 45.6709C45.6183 46.465 44.4011 46.9178 43.1319 46.9623L39.3319 47.0885C39.1761 47.0959 39.0351 47.0143 38.9534 46.8881L38.5304 46.1607C38.4562 46.042 38.4487 45.901 38.5081 45.7748C38.5675 45.6486 38.6788 45.5596 38.8124 45.5373L42.7386 44.7951C44.119 44.5354 45.0839 43.2291 44.928 41.8115C44.7796 40.4459 43.6218 39.4217 42.2562 39.4217C42.219 39.4217 42.1745 39.4217 42.1226 39.4217L36.8753 39.2064C34.7823 39.1322 32.9862 39.533 30.8858 40.5498L28.1397 41.8783C27.7538 41.0768 26.9448 40.5646 26.0542 40.5646H23.0187C21.7495 40.5572 20.7179 41.5814 20.7104 42.8506V54.1541C20.7179 55.4232 21.7495 56.4475 23.0187 56.4475H26.0542C27.3233 56.4475 28.3476 55.4232 28.355 54.1541V53.3897L31.2718 52.8553C32.2144 52.7143 32.8081 52.6623 33.8101 52.7068L41.7886 53.0779C44.6608 53.2041 47.4737 52.2541 49.678 50.4135L55.2073 45.8268L55.2147 45.8193C56.3206 44.8768 56.4839 43.2217 55.5858 42.0787C55.571 42.0416 55.5487 42.0119 55.5265 41.9822ZM26.8706 54.1541C26.8706 54.5994 26.5069 54.9631 26.0616 54.9631H23.0038C22.5585 54.9631 22.1948 54.5994 22.1948 54.1541V42.858C22.1948 42.4127 22.5585 42.049 23.0038 42.049H26.0616C26.5069 42.049 26.8706 42.4127 26.8706 42.858V54.1541ZM54.2573 44.6838L48.7354 49.2631C46.8132 50.8662 44.3565 51.69 41.8554 51.5861L33.8769 51.215C32.7562 51.1631 32.0733 51.2299 31.0417 51.3783C31.0343 51.3783 31.0269 51.3783 31.0194 51.3857L28.355 51.8756V43.4146L31.5315 41.8783C33.4019 40.9729 34.9827 40.6166 36.8159 40.6834L42.1003 40.8986C42.13 40.8986 42.1671 40.8986 42.1968 40.8986C42.2042 40.8986 42.2339 40.8986 42.2562 40.8986C42.8647 40.9061 43.3843 41.3588 43.4585 41.9674C43.5327 42.6057 43.1022 43.1994 42.4714 43.3256L38.5452 44.0678C37.5136 44.2607 36.8382 45.2627 37.0312 46.2943C37.0757 46.5096 37.1499 46.7174 37.2612 46.9029L37.6843 47.6229C38.0405 48.224 38.6937 48.5803 39.3913 48.558L43.1913 48.4318C44.7796 48.3725 46.3085 47.801 47.5479 46.8139C48.9507 45.6783 51.1179 43.9342 52.6022 42.7244C53.1366 42.3088 53.9011 42.3756 54.3538 42.8803C54.3687 42.91 54.3909 42.9397 54.4132 42.9693C54.8362 43.4814 54.7694 44.2533 54.2573 44.6838Z" fill="#7743DC"/>
</g>
<defs>
<filter id="filter0_d_243_6986" x="0.605469" y="0.197754" width="75.6865" height="75.687" filterUnits="userSpaceOnUse" color-interpolation-filters="sRGB">
<feFlood flood-opacity="0" result="BackgroundImageFix"/>
<feColorMatrix in="SourceAlpha" type="matrix" values="0 0 0 0 0 0 0 0 0 0 0 0 0 0 0 0 0 0 127 0" result="hardAlpha"/>
<feOffset/>
<feGaussianBlur stdDeviation="2"/>
<feComposite in2="hardAlpha" operator="out"/>
<feColorMatrix type="matrix" values="0 0 0 0 0 0 0 0 0 0 0 0 0 0 0 0 0 0 0.25 0"/>
<feBlend mode="normal" in2="BackgroundImageFix" result="effect1_dropShadow_243_6986"/>
<feBlend mode="normal" in="SourceGraphic" in2="effect1_dropShadow_243_6986" result="shape"/>
</filter>
<clipPath id="clip0_243_6986">
<rect width="38" height="38" fill="white" transform="translate(19.4487 19.041)"/>
</clipPath>
</defs>
</svg>
