<svg width="44" height="44" viewBox="0 0 44 44" fill="none" xmlns="http://www.w3.org/2000/svg">
<circle cx="22.2325" cy="22.0369" r="21.4202" fill="#7743DC"/>
<path d="M22.5505 14.3333H19.7353C19.4808 14.3333 19.2674 14.2466 19.0954 14.0733C18.923 13.9002 18.8369 13.6856 18.8369 13.4294C18.8369 13.1735 18.923 12.9606 19.0954 12.7909C19.2674 12.6212 19.4808 12.5364 19.7353 12.5364H22.5505V9.75122C22.5505 9.49666 22.6371 9.28324 22.8104 9.11093C22.9835 8.93884 23.1981 8.85278 23.4543 8.85278C23.7102 8.85278 23.9231 8.93884 24.0928 9.11093C24.2625 9.28324 24.3473 9.49666 24.3473 9.75122V12.5364H27.1325C27.387 12.5364 27.6004 12.623 27.7728 12.7963C27.9448 12.9694 28.0309 13.1841 28.0309 13.4402C28.0309 13.6961 27.9448 13.909 27.7728 14.0787C27.6004 14.2484 27.387 14.3333 27.1325 14.3333H24.3473V17.1184C24.3473 17.373 24.2607 17.5863 24.0874 17.7584C23.9143 17.9307 23.6997 18.0168 23.4435 18.0168C23.1876 18.0168 22.9747 17.9307 22.805 17.7584C22.6353 17.5863 22.5505 17.373 22.5505 17.1184V14.3333ZM17.3033 33.9791C16.7085 33.9791 16.2015 33.7674 15.7822 33.3439C15.3629 32.9204 15.1533 32.4113 15.1533 31.8165C15.1533 31.2218 15.365 30.7148 15.7885 30.2955C16.212 29.8762 16.7211 29.6666 17.3159 29.6666C17.9106 29.6666 18.4176 29.8783 18.8369 30.3018C19.2562 30.7252 19.4658 31.2344 19.4658 31.8291C19.4658 32.4239 19.2541 32.9309 18.8306 33.3502C18.4072 33.7694 17.898 33.9791 17.3033 33.9791ZM29.4022 33.9791C28.8075 33.9791 28.3005 33.7674 27.8812 33.3439C27.4619 32.9204 27.2523 32.4113 27.2523 31.8165C27.2523 31.2218 27.464 30.7148 27.8875 30.2955C28.3109 29.8762 28.82 29.6666 29.4148 29.6666C30.0096 29.6666 30.5166 29.8783 30.9359 30.3018C31.3551 30.7252 31.5648 31.2344 31.5648 31.8291C31.5648 32.4239 31.353 32.9309 30.9296 33.3502C30.5061 33.7694 29.997 33.9791 29.4022 33.9791ZM12.8174 11.8176H11.3799C11.1253 11.8176 10.912 11.731 10.7399 11.5577C10.5676 11.3846 10.4814 11.17 10.4814 10.9138C10.4814 10.6578 10.5676 10.445 10.7399 10.2753C10.912 10.1056 11.1253 10.0208 11.3799 10.0208H13.3864C13.5661 10.0208 13.7278 10.065 13.8715 10.1534C14.0153 10.2421 14.1231 10.3675 14.195 10.5299L19.0465 20.9218H27.6715L32.2236 12.9856C32.3035 12.8458 32.4108 12.736 32.5456 12.6562C32.6803 12.5763 32.8301 12.5364 32.9948 12.5364C33.3392 12.5364 33.5963 12.6761 33.7659 12.9556C33.9356 13.2352 33.9407 13.5247 33.7809 13.8241L29.6182 21.6106C29.3985 21.9899 29.1134 22.2944 28.7628 22.524C28.4123 22.7536 28.0285 22.8684 27.6116 22.8684H18.5374L16.8603 25.983H30.6663C30.9209 25.983 31.1343 26.0697 31.3066 26.2429C31.4787 26.416 31.5648 26.6306 31.5648 26.8868C31.5648 27.1428 31.4787 27.3556 31.3066 27.5253C31.1343 27.695 30.9209 27.7799 30.6663 27.7799H17.1299C16.378 27.7799 15.8057 27.4804 15.413 26.8814C15.0202 26.2825 14.9936 25.6735 15.333 25.0546L17.2497 21.5208L12.8174 11.8176Z" fill="white"/>
</svg>
