<svg width="44" height="44" viewBox="0 0 44 44" fill="none" xmlns="http://www.w3.org/2000/svg">
<circle cx="22.2325" cy="22.0369" r="21.4202" fill="#7743DC"/>
<path d="M23.0001 34.2543C22.8697 34.2543 22.7422 34.2393 22.6176 34.2094C22.4932 34.1794 22.3812 34.1245 22.2813 34.0447C21.4028 33.4656 20.4688 33.0115 19.4791 32.682C18.4896 32.3526 17.4671 32.1879 16.4115 32.1879C15.573 32.1879 14.7494 32.2977 13.9408 32.5173C13.1322 32.737 12.3586 33.0464 11.6199 33.4457C11.2006 33.6653 10.7963 33.6553 10.407 33.4158C10.0177 33.1762 9.823 32.8268 9.823 32.3676V17.9327C9.823 17.713 9.8779 17.5034 9.98771 17.3038C10.0975 17.1041 10.2622 16.9544 10.4819 16.8546C11.4003 16.3754 12.3586 16.016 13.3569 15.7764C14.3551 15.5369 15.3734 15.4171 16.4115 15.4171C17.5695 15.4171 18.7026 15.5668 19.8106 15.8663C20.9187 16.1658 21.9819 16.615 23.0001 17.2139V32.3676C24.0183 31.7087 25.0864 31.2146 26.2045 30.8852C27.3226 30.5557 28.4506 30.391 29.5886 30.391C30.3074 30.391 31.091 30.4609 31.9395 30.6006C32.7881 30.7404 33.6016 31.0299 34.3803 31.4691V16.3454C34.5778 16.4203 34.7718 16.4989 34.9625 16.5811C35.1534 16.6636 35.3386 16.7547 35.5183 16.8546C35.7179 16.9743 35.8777 17.1309 35.9975 17.3241C36.1173 17.5172 36.1772 17.72 36.1772 17.9327V32.3676C36.1772 32.8268 35.9825 33.1762 35.5932 33.4158C35.2039 33.6553 34.7996 33.6653 34.3803 33.4457C33.6416 33.0464 32.8679 32.737 32.0593 32.5173C31.2507 32.2977 30.4272 32.1879 29.5886 32.1879C28.5331 32.1879 27.5105 32.3526 26.5211 32.682C25.5314 33.0115 24.5973 33.4656 23.7188 34.0447C23.619 34.1245 23.5069 34.1794 23.3825 34.2094C23.2579 34.2393 23.1305 34.2543 23.0001 34.2543ZM25.5457 28.9236C25.3859 29.0434 25.2212 29.0683 25.0515 28.9984C24.8818 28.9285 24.797 28.7938 24.797 28.5941V19.1905C24.797 19.1334 24.807 19.0799 24.8269 19.03C24.8468 18.9801 24.8768 18.9337 24.9167 18.891L31.8048 12.003C31.9445 11.8632 32.1092 11.8287 32.2989 11.8994C32.4886 11.9701 32.5834 12.1044 32.5834 12.3025V22.6046C32.5834 22.6644 32.5692 22.7224 32.5406 22.7783C32.512 22.8341 32.4764 22.8861 32.4337 22.934L25.5457 28.9236ZM21.2032 31.4691V18.322C20.5244 17.9427 19.7358 17.6631 18.8373 17.4835C17.9389 17.3038 17.1303 17.2139 16.4115 17.2139C15.4732 17.2139 14.5997 17.3138 13.7911 17.5134C12.9825 17.713 12.2588 17.9679 11.6199 18.278V31.4691C12.3187 31.1297 13.0723 30.8652 13.8809 30.6755C14.6895 30.4858 15.5381 30.391 16.4265 30.391C17.3149 30.391 18.1585 30.4858 18.9571 30.6755C19.7557 30.8652 20.5044 31.1297 21.2032 31.4691Z" fill="white"/>
<path d="M23.043 18.5631C23.0475 19.2376 22.8136 19.814 22.3414 20.2921C21.8693 20.7702 21.296 21.0115 20.6217 21.016L15.3343 21.0509C14.9843 21.0532 14.6833 20.9052 14.4313 20.6069C14.1794 20.3085 14.0522 19.9843 14.0499 19.6344C14.0476 19.2844 14.1955 18.9584 14.4935 18.6564C14.7915 18.3544 15.1155 18.2023 15.4655 18.2C15.8488 18.1974 16.1831 18.3369 16.4683 18.6184C16.7534 18.8998 16.8973 19.2322 16.8999 19.6155L16.9043 20.2905L20.6167 20.266C21.0917 20.2629 21.4906 20.0977 21.8135 19.7706C22.1363 19.4434 22.2962 19.0424 22.293 18.5674C22.2899 18.0924 22.1248 17.6935 21.7976 17.3706C21.4705 17.0478 21.0694 16.8879 20.5944 16.8911L16.457 16.9184C15.7861 16.9228 15.2127 16.6889 14.7366 16.2166C14.2606 15.7443 14.0204 15.1708 14.016 14.4963C14.0115 13.8218 14.2441 13.2454 14.7138 12.7673C15.1836 12.2892 15.7539 12.0479 16.4248 12.0435L21.5622 12.0096C21.9539 12.007 22.2922 12.1214 22.577 12.3529C22.8619 12.5843 23.0056 12.8938 23.0082 13.2813C23.0107 13.6688 22.8714 14.0281 22.5903 14.3591C22.3091 14.6901 21.9748 14.8569 21.5873 14.8595C21.1998 14.862 20.8635 14.7247 20.5783 14.4474C20.2931 14.1701 20.1493 13.8398 20.1467 13.4565L20.1422 12.769L16.4298 12.7935C15.9645 12.7966 15.5701 12.963 15.2466 13.2928C14.9231 13.6227 14.7629 14.0217 14.766 14.4898C14.769 14.9579 14.9345 15.3555 15.2623 15.6825C15.5903 16.0095 15.9868 16.1715 16.4521 16.1684L20.5895 16.1411C21.2638 16.1366 21.8402 16.3705 22.3187 16.8428C22.7971 17.3152 23.0386 17.8886 23.043 18.5631ZM16.1543 20.2955L16.1499 19.6205C16.1487 19.4455 16.0789 19.2876 15.9405 19.1469C15.8021 19.0061 15.6453 18.9363 15.4703 18.9375C15.2953 18.9386 15.1396 19.0105 15.003 19.1531C14.8664 19.2956 14.7987 19.4544 14.7999 19.6294C14.8011 19.8044 14.8708 19.9602 15.0092 20.0968C15.1476 20.2334 15.3043 20.3011 15.4793 20.2999L16.1543 20.2955ZM22.2592 13.4363C22.258 13.2571 22.1882 13.1013 22.0498 12.9689C21.9114 12.8365 21.7506 12.7709 21.5673 12.7721L20.8923 12.7765L20.8967 13.4515C20.8979 13.6265 20.9677 13.7802 21.106 13.9126C21.2444 14.045 21.4032 14.1107 21.5823 14.1095C21.7615 14.1083 21.9194 14.0406 22.056 13.9064C22.1926 13.7721 22.2603 13.6154 22.2592 13.4363Z" fill="white"/>
</svg>
