<svg width="44" height="44" viewBox="0 0 44 44" fill="none" xmlns="http://www.w3.org/2000/svg">
<circle cx="22.2325" cy="22.0369" r="21.4202" fill="#7743DC"/>
<path d="M22.1016 29.1575V29.9062C22.1016 30.026 22.1466 30.1308 22.2364 30.2206C22.3263 30.3105 22.4311 30.3554 22.5509 30.3554H23.4493C23.5691 30.3554 23.6739 30.3105 23.7638 30.2206C23.8536 30.1308 23.8985 30.026 23.8985 29.9062V29.1575H25.6954C25.95 29.1575 26.1634 29.0713 26.3357 28.899C26.5078 28.7269 26.5938 28.5136 26.5938 28.259V24.3658C26.5938 24.1112 26.5078 23.8978 26.3357 23.7255C26.1634 23.5534 25.95 23.4674 25.6954 23.4674H21.2032V21.371H25.6954C25.95 21.371 26.1634 21.2843 26.3357 21.1111C26.5078 20.938 26.5938 20.7234 26.5938 20.4672C26.5938 20.2112 26.5078 19.9984 26.3357 19.8287C26.1634 19.659 25.95 19.5741 25.6954 19.5741H23.8985V18.8254C23.8985 18.7056 23.8536 18.6008 23.7638 18.511C23.6739 18.4211 23.5691 18.3762 23.4493 18.3762H22.5509C22.4311 18.3762 22.3263 18.4211 22.2364 18.511C22.1466 18.6008 22.1016 18.7056 22.1016 18.8254V19.5741H20.3048C20.0502 19.5741 19.8369 19.6602 19.6648 19.8323C19.4925 20.0046 19.4063 20.218 19.4063 20.4726V24.3658C19.4063 24.6204 19.4925 24.8337 19.6648 25.0058C19.8369 25.1781 20.0502 25.2642 20.3048 25.2642H24.797V27.3606H20.3048C20.0502 27.3606 19.8369 27.4473 19.6648 27.6205C19.4925 27.7936 19.4063 28.0082 19.4063 28.2644C19.4063 28.5204 19.4925 28.7332 19.6648 28.9029C19.8369 29.0726 20.0502 29.1575 20.3048 29.1575H22.1016ZM15.2136 33.9791C14.7345 33.9791 14.3152 33.7994 13.9558 33.44C13.5964 33.0806 13.4167 32.6614 13.4167 32.1822V11.8176C13.4167 11.3385 13.5964 10.9192 13.9558 10.5598C14.3152 10.2004 14.7345 10.0208 15.2136 10.0208H26.0248L32.5834 16.5793V32.1822C32.5834 32.6614 32.4037 33.0806 32.0444 33.44C31.685 33.7994 31.2657 33.9791 30.7865 33.9791H15.2136ZM15.2136 32.1822H30.7865V17.3879H26.1147C25.8601 17.3879 25.6468 17.3018 25.4747 17.1295C25.3024 16.9574 25.2162 16.7441 25.2162 16.4895V11.8176H15.2136V32.1822Z" fill="white"/>
</svg>
