<svg width="44" height="44" viewBox="0 0 44 44" fill="none" xmlns="http://www.w3.org/2000/svg">
<circle cx="22.2325" cy="22.0369" r="21.4202" fill="#7743DC"/>
<path d="M10.7214 32.7812C10.4669 32.7812 10.2535 32.6946 10.0814 32.5213C9.90915 32.3482 9.823 32.1336 9.823 31.8774C9.823 31.6215 9.90915 31.4086 10.0814 31.2389C10.2535 31.0692 10.4669 30.9844 10.7214 30.9844H35.2787C35.5333 30.9844 35.7467 31.071 35.919 31.2443C36.0911 31.4174 36.1772 31.632 36.1772 31.8882C36.1772 32.1441 36.0911 32.357 35.919 32.5267C35.7467 32.6964 35.5333 32.7812 35.2787 32.7812H10.7214ZM12.8178 29.1875C12.3386 29.1875 11.9194 29.0078 11.56 28.6484C11.2006 28.2891 11.0209 27.8698 11.0209 27.3906V13.0156C11.0209 12.5365 11.2006 12.1172 11.56 11.7578C11.9194 11.3984 12.3386 11.2188 12.8178 11.2188H33.1824C33.6615 11.2188 34.0808 11.3984 34.4402 11.7578C34.7996 12.1172 34.9792 12.5365 34.9792 13.0156V27.3906C34.9792 27.8698 34.7996 28.2891 34.4402 28.6484C34.0808 29.0078 33.6615 29.1875 33.1824 29.1875H12.8178ZM12.8178 27.3906H33.1824V13.0156H12.8178V27.3906Z" fill="white"/>
<g clip-path="url(#clip0_248_7252)">
<path d="M19.4889 19.395C19.3392 19.3576 19.1988 19.3033 19.0678 19.2322C18.9368 19.161 18.8188 19.0731 18.714 18.9683L18.467 19.0693C18.3921 19.0993 18.3191 19.103 18.248 19.0806C18.1768 19.0581 18.1226 19.0132 18.0851 18.9458L18.0177 18.8335C17.9803 18.7736 17.9653 18.7062 17.9728 18.6313C17.9803 18.5565 18.014 18.4928 18.0739 18.4404L18.2985 18.2271C18.2611 18.0773 18.2424 17.9313 18.2424 17.7891C18.2424 17.6468 18.2611 17.5008 18.2985 17.3511L18.0739 17.1377C18.014 17.0853 17.9803 17.0198 17.9728 16.9412C17.9653 16.8625 17.9803 16.7933 18.0177 16.7334L18.0739 16.6436C18.1113 16.5762 18.1675 16.5294 18.2424 16.5032C18.3172 16.477 18.3921 16.4788 18.467 16.5088L18.714 16.6099C18.8188 16.505 18.9368 16.4171 19.0678 16.3459C19.1988 16.2748 19.3392 16.2205 19.4889 16.1831L19.5226 15.9248C19.5376 15.8424 19.575 15.7732 19.6349 15.717C19.6948 15.6609 19.7659 15.6328 19.8483 15.6328H19.9381C20.0205 15.6328 20.0916 15.6609 20.1515 15.717C20.2114 15.7732 20.2489 15.8424 20.2638 15.9248L20.2975 16.1831C20.4473 16.2205 20.5877 16.2748 20.7187 16.3459C20.8497 16.4171 20.9676 16.505 21.0724 16.6099L21.3195 16.5088C21.3944 16.4788 21.4674 16.4751 21.5385 16.4976C21.6096 16.52 21.6639 16.5649 21.7013 16.6323L21.7687 16.7334C21.8062 16.7933 21.8211 16.8625 21.8136 16.9412C21.8062 17.0198 21.7725 17.0853 21.7126 17.1377L21.4767 17.3511C21.5142 17.4933 21.5329 17.6375 21.5329 17.7834C21.5329 17.9294 21.5142 18.0773 21.4767 18.2271L21.7126 18.4404C21.7725 18.4928 21.8062 18.5565 21.8136 18.6313C21.8211 18.7062 21.8062 18.7773 21.7687 18.8447L21.7126 18.9346C21.6751 19.002 21.619 19.0487 21.5441 19.075C21.4692 19.1012 21.3944 19.0993 21.3195 19.0693L21.0724 18.9683C20.9676 19.0806 20.8497 19.1704 20.7187 19.2378C20.5877 19.3052 20.4473 19.3576 20.2975 19.395L20.2638 19.6533C20.2489 19.7357 20.2114 19.8049 20.1515 19.8611C20.0916 19.9172 20.0205 19.9453 19.9381 19.9453H19.8483C19.7659 19.9453 19.6948 19.9172 19.6349 19.8611C19.575 19.8049 19.5376 19.7357 19.5226 19.6533L19.4889 19.395ZM19.8932 18.8223C20.1777 18.8223 20.4211 18.7212 20.6232 18.519C20.8254 18.3169 20.9264 18.0736 20.9264 17.7891C20.9264 17.5045 20.8254 17.2612 20.6232 17.0591C20.4211 16.8569 20.1777 16.7559 19.8932 16.7559C19.6087 16.7559 19.3654 16.8569 19.1632 17.0591C18.9611 17.2612 18.86 17.5045 18.86 17.7891C18.86 18.0736 18.9611 18.3169 19.1632 18.519C19.3654 18.7212 19.6087 18.8223 19.8932 18.8223ZM24.0597 24.4263C23.8576 24.3739 23.6648 24.2953 23.4814 24.1904C23.2979 24.0856 23.1388 23.9508 23.0041 23.7861L22.7121 23.876C22.6222 23.9059 22.5324 23.9041 22.4425 23.8704C22.3527 23.8367 22.2816 23.7787 22.2292 23.6963L22.1393 23.5391C22.0869 23.4567 22.0682 23.3669 22.0832 23.2695C22.0981 23.1722 22.1431 23.0898 22.2179 23.0225L22.4425 22.8203C22.3826 22.6256 22.3527 22.4235 22.3527 22.2139C22.3527 22.0042 22.3826 21.8021 22.4425 21.6074L22.2179 21.4165C22.1431 21.3566 22.0981 21.2761 22.0832 21.175C22.0682 21.074 22.0869 20.9823 22.1393 20.8999L22.2404 20.7314C22.2853 20.6491 22.3508 20.5929 22.4369 20.563C22.523 20.533 22.611 20.5293 22.7008 20.5518L23.0041 20.6304C23.1463 20.4731 23.3073 20.3402 23.487 20.2317C23.6667 20.1231 23.8576 20.0464 24.0597 20.0015L24.1383 19.6758C24.1608 19.5859 24.2076 19.5111 24.2787 19.4512C24.3499 19.3913 24.4341 19.3613 24.5314 19.3613H24.7336C24.8309 19.3613 24.917 19.3913 24.9919 19.4512C25.0667 19.5111 25.1154 19.5859 25.1379 19.6758L25.2165 20.0015C25.4336 20.0314 25.6301 20.1025 25.8061 20.2148C25.982 20.3271 26.1411 20.4657 26.2834 20.6304L26.5866 20.5518C26.6764 20.5293 26.7644 20.5349 26.8505 20.5686C26.9366 20.6023 27.0021 20.6603 27.047 20.7427L27.1481 20.8999C27.2005 20.9823 27.2174 21.0721 27.1986 21.1694C27.1799 21.2668 27.1331 21.3491 27.0583 21.4165L26.8449 21.6074C26.9048 21.8021 26.9347 22.0042 26.9347 22.2139C26.9347 22.4235 26.9048 22.6256 26.8449 22.8203L27.0695 23.0225C27.1444 23.0898 27.1893 23.1722 27.2043 23.2695C27.2192 23.3669 27.2005 23.4567 27.1481 23.5391L27.0583 23.6963C27.0059 23.7787 26.9347 23.8385 26.8449 23.876C26.755 23.9134 26.6614 23.9134 26.5641 23.876L26.2834 23.7861C26.1486 23.9583 25.9895 24.095 25.8061 24.196C25.6226 24.2971 25.4261 24.3739 25.2165 24.4263L25.1379 24.752C25.1154 24.8418 25.0686 24.9167 24.9975 24.9766C24.9263 25.0365 24.8421 25.0664 24.7448 25.0664H24.5426C24.4453 25.0664 24.3592 25.0365 24.2843 24.9766C24.2095 24.9167 24.1608 24.8418 24.1383 24.752L24.0597 24.4263ZM24.6437 23.7749C25.078 23.7749 25.4467 23.6233 25.7499 23.3201C26.0531 23.0168 26.2047 22.6481 26.2047 22.2139C26.2047 21.7796 26.0531 21.4109 25.7499 21.1077C25.4467 20.8044 25.078 20.6528 24.6437 20.6528C24.2095 20.6528 23.8407 20.8044 23.5375 21.1077C23.2343 21.4109 23.0827 21.7796 23.0827 22.2139C23.0827 22.6481 23.2343 23.0168 23.5375 23.3201C23.8407 23.6233 24.2095 23.7749 24.6437 23.7749Z" fill="white"/>
</g>
<defs>
<clipPath id="clip0_248_7252">
<rect width="11.25" height="11.25" fill="white" transform="translate(16.75 14.5)"/>
</clipPath>
</defs>
</svg>
