<svg width="44" height="44" viewBox="0 0 44 44" fill="none" xmlns="http://www.w3.org/2000/svg">
<circle cx="22.2325" cy="22.0369" r="21.4202" fill="#7743DC"/>
<path d="M20.9936 25.5936L18.5977 23.1978C18.438 23.0381 18.2334 22.9633 17.9838 22.9732C17.7342 22.9832 17.5296 23.0681 17.3699 23.2278C17.2101 23.3875 17.1303 23.5922 17.1303 23.8417C17.1303 24.0913 17.2101 24.2959 17.3699 24.4556L20.3347 27.3905C20.5144 27.5702 20.724 27.66 20.9636 27.66C21.2032 27.66 21.4128 27.5702 21.5925 27.3905L27.2527 21.7304C27.4124 21.5707 27.4923 21.371 27.4923 21.1314C27.4923 20.8918 27.4124 20.6922 27.2527 20.5324C27.0929 20.3728 26.8933 20.2929 26.6537 20.2929C26.4141 20.2929 26.2145 20.3728 26.0548 20.5324L20.9936 25.5936ZM16.142 31.5832C14.3851 31.5832 12.8927 30.9693 11.6648 29.7414C10.4369 28.5136 9.823 27.0212 9.823 25.2642C9.823 23.7069 10.3221 22.3393 11.3204 21.1613C12.3187 19.9834 13.5865 19.2746 15.1238 19.035C15.5231 17.0984 16.4614 15.5162 17.9389 14.2883C19.4163 13.0605 21.1234 12.4465 23.06 12.4465C25.2961 12.4465 27.1828 13.2601 28.7201 14.8873C30.2575 16.5144 31.0261 18.466 31.0261 20.7421V21.4608C32.4636 21.4209 33.6815 21.8851 34.6798 22.8534C35.6781 23.8217 36.1772 25.0446 36.1772 26.522C36.1772 27.8996 35.6781 29.0876 34.6798 30.0858C33.6815 31.0841 32.4936 31.5832 31.116 31.5832H16.142ZM16.142 29.7863H31.116C32.0144 29.7863 32.783 29.4669 33.422 28.828C34.0609 28.1892 34.3803 27.4205 34.3803 26.522C34.3803 25.6236 34.0609 24.8549 33.422 24.216C32.783 23.5772 32.0144 23.2577 31.116 23.2577H29.2292V20.7421C29.2292 18.9253 28.6203 17.3879 27.4024 16.1301C26.1846 14.8723 24.6971 14.2434 22.9402 14.2434C21.1833 14.2434 19.6908 14.8723 18.463 16.1301C17.2351 17.3879 16.6212 18.9253 16.6212 20.7421H16.0522C14.8143 20.7421 13.7661 21.1763 12.9076 22.0448C12.0491 22.9133 11.6199 23.9865 11.6199 25.2642C11.6199 26.522 12.0591 27.5902 12.9376 28.4686C13.8161 29.3471 14.8842 29.7863 16.142 29.7863Z" fill="white"/>
</svg>
