<svg width="269" height="168" viewBox="0 0 269 168" fill="none" xmlns="http://www.w3.org/2000/svg">
<rect width="269" height="168" rx="7" fill="#7743DC"/>
<path d="M162.909 81C162.729 81 162.589 80.9533 162.489 80.86C162.396 80.76 162.349 80.62 162.349 80.44V74.51C162.349 74.33 162.396 74.1933 162.489 74.1C162.589 74 162.729 73.95 162.909 73.95H165.289C165.776 73.95 166.189 74.0233 166.529 74.17C166.876 74.3167 167.139 74.5267 167.319 74.8C167.506 75.0733 167.599 75.4033 167.599 75.79C167.599 76.2167 167.472 76.5767 167.219 76.87C166.966 77.1633 166.622 77.36 166.189 77.46V77.31C166.682 77.3767 167.069 77.5633 167.349 77.87C167.629 78.17 167.769 78.5633 167.769 79.05C167.769 79.6767 167.562 80.16 167.149 80.5C166.736 80.8333 166.156 81 165.409 81H162.909ZM163.349 80.2H165.289C165.789 80.2 166.159 80.1033 166.399 79.91C166.639 79.71 166.759 79.41 166.759 79.01C166.759 78.61 166.639 78.3133 166.399 78.12C166.159 77.9267 165.789 77.83 165.289 77.83H163.349V80.2ZM163.349 77.03H165.129C165.609 77.03 165.972 76.9333 166.219 76.74C166.466 76.5467 166.589 76.2633 166.589 75.89C166.589 75.5167 166.466 75.2333 166.219 75.04C165.972 74.8467 165.609 74.75 165.129 74.75H163.349V77.03ZM171.545 81.09C171.012 81.09 170.552 80.99 170.165 80.79C169.785 80.5833 169.489 80.2933 169.275 79.92C169.069 79.54 168.965 79.09 168.965 78.57C168.965 78.0633 169.069 77.62 169.275 77.24C169.482 76.86 169.765 76.5633 170.125 76.35C170.485 76.1367 170.895 76.03 171.355 76.03C171.695 76.03 171.999 76.0867 172.265 76.2C172.532 76.3067 172.759 76.4667 172.945 76.68C173.139 76.8867 173.282 77.14 173.375 77.44C173.475 77.74 173.525 78.0767 173.525 78.45C173.525 78.5633 173.492 78.65 173.425 78.71C173.359 78.7633 173.259 78.79 173.125 78.79H169.765V78.17H172.845L172.675 78.31C172.675 77.9767 172.625 77.6933 172.525 77.46C172.432 77.2267 172.289 77.05 172.095 76.93C171.909 76.8033 171.675 76.74 171.395 76.74C171.082 76.74 170.815 76.8133 170.595 76.96C170.382 77.1067 170.219 77.31 170.105 77.57C169.992 77.83 169.935 78.1333 169.935 78.48V78.54C169.935 79.1267 170.072 79.57 170.345 79.87C170.625 80.1633 171.029 80.31 171.555 80.31C171.755 80.31 171.965 80.2833 172.185 80.23C172.412 80.1767 172.625 80.0867 172.825 79.96C172.939 79.8933 173.039 79.8633 173.125 79.87C173.219 79.8767 173.292 79.9067 173.345 79.96C173.405 80.0133 173.442 80.08 173.455 80.16C173.469 80.24 173.455 80.3233 173.415 80.41C173.375 80.49 173.305 80.5633 173.205 80.63C172.979 80.7833 172.715 80.9 172.415 80.98C172.115 81.0533 171.825 81.09 171.545 81.09ZM175.326 81.07C175.166 81.07 175.043 81.0267 174.956 80.94C174.87 80.8467 174.826 80.72 174.826 80.56V74.39C174.826 74.2233 174.87 74.0967 174.956 74.01C175.043 73.9233 175.166 73.88 175.326 73.88C175.486 73.88 175.61 73.9233 175.696 74.01C175.79 74.0967 175.836 74.2233 175.836 74.39V77.16H175.696C175.843 76.7867 176.073 76.5067 176.386 76.32C176.7 76.1267 177.06 76.03 177.466 76.03C177.853 76.03 178.173 76.1033 178.426 76.25C178.686 76.39 178.88 76.6067 179.006 76.9C179.133 77.1867 179.196 77.55 179.196 77.99V80.56C179.196 80.72 179.153 80.8467 179.066 80.94C178.98 81.0267 178.856 81.07 178.696 81.07C178.53 81.07 178.403 81.0267 178.316 80.94C178.23 80.8467 178.186 80.72 178.186 80.56V78.05C178.186 77.63 178.103 77.3233 177.936 77.13C177.776 76.9367 177.523 76.84 177.176 76.84C176.77 76.84 176.443 76.9667 176.196 77.22C175.956 77.4733 175.836 77.8133 175.836 78.24V80.56C175.836 80.9 175.666 81.07 175.326 81.07ZM181.288 81.06C181.128 81.06 181.005 81.0133 180.918 80.92C180.831 80.82 180.788 80.6833 180.788 80.51V76.61C180.788 76.4367 180.831 76.3033 180.918 76.21C181.005 76.1167 181.128 76.07 181.288 76.07C181.448 76.07 181.571 76.1167 181.658 76.21C181.751 76.3033 181.798 76.4367 181.798 76.61V80.51C181.798 80.6833 181.755 80.82 181.668 80.92C181.581 81.0133 181.455 81.06 181.288 81.06ZM181.288 75.03C181.088 75.03 180.931 74.98 180.818 74.88C180.711 74.78 180.658 74.64 180.658 74.46C180.658 74.2733 180.711 74.1333 180.818 74.04C180.931 73.94 181.088 73.89 181.288 73.89C181.488 73.89 181.641 73.94 181.748 74.04C181.861 74.1333 181.918 74.2733 181.918 74.46C181.918 74.64 181.861 74.78 181.748 74.88C181.641 74.98 181.488 75.03 181.288 75.03ZM183.92 81.07C183.76 81.07 183.636 81.0267 183.55 80.94C183.463 80.8467 183.42 80.72 183.42 80.56V76.56C183.42 76.3933 183.463 76.2667 183.55 76.18C183.636 76.0933 183.756 76.05 183.91 76.05C184.07 76.05 184.19 76.0933 184.27 76.18C184.356 76.2667 184.4 76.3933 184.4 76.56V77.34L184.29 77.16C184.436 76.7867 184.666 76.5067 184.98 76.32C185.293 76.1267 185.653 76.03 186.06 76.03C186.446 76.03 186.766 76.1033 187.02 76.25C187.28 76.39 187.473 76.6067 187.6 76.9C187.726 77.1867 187.79 77.55 187.79 77.99V80.56C187.79 80.72 187.746 80.8467 187.66 80.94C187.573 81.0267 187.45 81.07 187.29 81.07C187.123 81.07 186.996 81.0267 186.91 80.94C186.823 80.8467 186.78 80.72 186.78 80.56V78.05C186.78 77.63 186.696 77.3233 186.53 77.13C186.37 76.9367 186.116 76.84 185.77 76.84C185.363 76.84 185.036 76.9667 184.79 77.22C184.55 77.4733 184.43 77.8133 184.43 78.24V80.56C184.43 80.9 184.26 81.07 183.92 81.07ZM191.241 81.09C190.815 81.09 190.438 80.99 190.111 80.79C189.791 80.5833 189.541 80.29 189.361 79.91C189.181 79.5233 189.091 79.0733 189.091 78.56C189.091 78.0333 189.181 77.5833 189.361 77.21C189.541 76.8367 189.791 76.5467 190.111 76.34C190.438 76.1333 190.815 76.03 191.241 76.03C191.668 76.03 192.035 76.1367 192.341 76.35C192.655 76.5567 192.865 76.8367 192.971 77.19H192.861V74.39C192.861 74.2233 192.905 74.0967 192.991 74.01C193.078 73.9233 193.201 73.88 193.361 73.88C193.521 73.88 193.645 73.9233 193.731 74.01C193.825 74.0967 193.871 74.2233 193.871 74.39V80.56C193.871 80.72 193.828 80.8467 193.741 80.94C193.655 81.0267 193.531 81.07 193.371 81.07C193.211 81.07 193.088 81.0267 193.001 80.94C192.915 80.8467 192.871 80.72 192.871 80.56V79.68L192.981 79.9C192.875 80.26 192.665 80.55 192.351 80.77C192.045 80.9833 191.675 81.09 191.241 81.09ZM191.501 80.31C191.775 80.31 192.015 80.2433 192.221 80.11C192.428 79.9767 192.588 79.78 192.701 79.52C192.821 79.26 192.881 78.94 192.881 78.56C192.881 77.9867 192.755 77.5533 192.501 77.26C192.248 76.9667 191.915 76.82 191.501 76.82C191.221 76.82 190.978 76.8867 190.771 77.02C190.565 77.1467 190.401 77.34 190.281 77.6C190.168 77.86 190.111 78.18 190.111 78.56C190.111 79.1267 190.238 79.56 190.491 79.86C190.745 80.16 191.081 80.31 191.501 80.31ZM200.406 81.09C200.006 81.09 199.67 81.02 199.396 80.88C199.123 80.74 198.92 80.5333 198.786 80.26C198.653 79.9867 198.586 79.6533 198.586 79.26V76.9H197.986C197.853 76.9 197.75 76.8667 197.676 76.8C197.603 76.7267 197.566 76.63 197.566 76.51C197.566 76.3833 197.603 76.2867 197.676 76.22C197.75 76.1533 197.853 76.12 197.986 76.12H198.586V75.09C198.586 74.9233 198.63 74.7967 198.716 74.71C198.81 74.6233 198.936 74.58 199.096 74.58C199.256 74.58 199.38 74.6233 199.466 74.71C199.553 74.7967 199.596 74.9233 199.596 75.09V76.12H200.766C200.9 76.12 201.003 76.1533 201.076 76.22C201.15 76.2867 201.186 76.3833 201.186 76.51C201.186 76.63 201.15 76.7267 201.076 76.8C201.003 76.8667 200.9 76.9 200.766 76.9H199.596V79.18C199.596 79.5333 199.67 79.8 199.816 79.98C199.97 80.16 200.216 80.25 200.556 80.25C200.676 80.25 200.78 80.24 200.866 80.22C200.96 80.1933 201.036 80.1767 201.096 80.17C201.17 80.17 201.23 80.1967 201.276 80.25C201.323 80.2967 201.346 80.39 201.346 80.53C201.346 80.63 201.326 80.7233 201.286 80.81C201.253 80.8967 201.19 80.9533 201.096 80.98C201.016 81.0067 200.906 81.03 200.766 81.05C200.633 81.0767 200.513 81.09 200.406 81.09ZM202.767 81.07C202.607 81.07 202.483 81.0267 202.397 80.94C202.31 80.8467 202.267 80.72 202.267 80.56V74.39C202.267 74.2233 202.31 74.0967 202.397 74.01C202.483 73.9233 202.607 73.88 202.767 73.88C202.927 73.88 203.05 73.9233 203.137 74.01C203.23 74.0967 203.277 74.2233 203.277 74.39V77.16H203.137C203.283 76.7867 203.513 76.5067 203.827 76.32C204.14 76.1267 204.5 76.03 204.907 76.03C205.293 76.03 205.613 76.1033 205.867 76.25C206.127 76.39 206.32 76.6067 206.447 76.9C206.573 77.1867 206.637 77.55 206.637 77.99V80.56C206.637 80.72 206.593 80.8467 206.507 80.94C206.42 81.0267 206.297 81.07 206.137 81.07C205.97 81.07 205.843 81.0267 205.757 80.94C205.67 80.8467 205.627 80.72 205.627 80.56V78.05C205.627 77.63 205.543 77.3233 205.377 77.13C205.217 76.9367 204.963 76.84 204.617 76.84C204.21 76.84 203.883 76.9667 203.637 77.22C203.397 77.4733 203.277 77.8133 203.277 78.24V80.56C203.277 80.9 203.107 81.07 202.767 81.07ZM210.518 81.09C209.985 81.09 209.525 80.99 209.138 80.79C208.758 80.5833 208.462 80.2933 208.248 79.92C208.042 79.54 207.938 79.09 207.938 78.57C207.938 78.0633 208.042 77.62 208.248 77.24C208.455 76.86 208.738 76.5633 209.098 76.35C209.458 76.1367 209.868 76.03 210.328 76.03C210.668 76.03 210.972 76.0867 211.238 76.2C211.505 76.3067 211.732 76.4667 211.918 76.68C212.112 76.8867 212.255 77.14 212.348 77.44C212.448 77.74 212.498 78.0767 212.498 78.45C212.498 78.5633 212.465 78.65 212.398 78.71C212.332 78.7633 212.232 78.79 212.098 78.79H208.738V78.17H211.818L211.648 78.31C211.648 77.9767 211.598 77.6933 211.498 77.46C211.405 77.2267 211.262 77.05 211.068 76.93C210.882 76.8033 210.648 76.74 210.368 76.74C210.055 76.74 209.788 76.8133 209.568 76.96C209.355 77.1067 209.192 77.31 209.078 77.57C208.965 77.83 208.908 78.1333 208.908 78.48V78.54C208.908 79.1267 209.045 79.57 209.318 79.87C209.598 80.1633 210.002 80.31 210.528 80.31C210.728 80.31 210.938 80.2833 211.158 80.23C211.385 80.1767 211.598 80.0867 211.798 79.96C211.912 79.8933 212.012 79.8633 212.098 79.87C212.192 79.8767 212.265 79.9067 212.318 79.96C212.378 80.0133 212.415 80.08 212.428 80.16C212.442 80.24 212.428 80.3233 212.388 80.41C212.348 80.49 212.278 80.5633 212.178 80.63C211.952 80.7833 211.688 80.9 211.388 80.98C211.088 81.0533 210.798 81.09 210.518 81.09ZM219.096 81.09C218.79 81.09 218.49 81.0667 218.196 81.02C217.903 80.9733 217.626 80.9033 217.366 80.81C217.106 80.71 216.873 80.59 216.666 80.45C216.566 80.3767 216.496 80.2933 216.456 80.2C216.423 80.1067 216.413 80.0167 216.426 79.93C216.446 79.8367 216.486 79.7567 216.546 79.69C216.606 79.6233 216.68 79.5833 216.766 79.57C216.853 79.55 216.95 79.5767 217.056 79.65C217.356 79.8433 217.673 79.9867 218.006 80.08C218.34 80.1667 218.703 80.21 219.096 80.21C219.663 80.21 220.08 80.11 220.346 79.91C220.62 79.7033 220.756 79.4367 220.756 79.11C220.756 78.8433 220.66 78.6333 220.466 78.48C220.273 78.32 219.95 78.1933 219.496 78.1L218.426 77.88C217.793 77.7467 217.32 77.5267 217.006 77.22C216.7 76.9133 216.546 76.5 216.546 75.98C216.546 75.6667 216.61 75.38 216.736 75.12C216.87 74.86 217.053 74.6367 217.286 74.45C217.52 74.2567 217.8 74.11 218.126 74.01C218.453 73.91 218.81 73.86 219.196 73.86C219.61 73.86 219.996 73.9133 220.356 74.02C220.723 74.1267 221.05 74.29 221.336 74.51C221.423 74.57 221.48 74.6467 221.506 74.74C221.54 74.8267 221.546 74.9133 221.526 75C221.513 75.0867 221.476 75.16 221.416 75.22C221.356 75.28 221.28 75.3167 221.186 75.33C221.093 75.3367 220.99 75.3033 220.876 75.23C220.616 75.0567 220.35 74.9333 220.076 74.86C219.81 74.78 219.513 74.74 219.186 74.74C218.86 74.74 218.573 74.79 218.326 74.89C218.086 74.99 217.9 75.13 217.766 75.31C217.64 75.49 217.576 75.7033 217.576 75.95C217.576 76.23 217.666 76.4533 217.846 76.62C218.026 76.7867 218.326 76.9133 218.746 77L219.806 77.22C220.473 77.36 220.97 77.5767 221.296 77.87C221.623 78.1633 221.786 78.5533 221.786 79.04C221.786 79.3533 221.723 79.6367 221.596 79.89C221.47 80.1367 221.29 80.35 221.056 80.53C220.823 80.71 220.54 80.85 220.206 80.95C219.88 81.0433 219.51 81.09 219.096 81.09ZM225.108 81.09C224.708 81.09 224.371 81.02 224.098 80.88C223.824 80.74 223.621 80.5333 223.488 80.26C223.354 79.9867 223.288 79.6533 223.288 79.26V76.9H222.688C222.554 76.9 222.451 76.8667 222.378 76.8C222.304 76.7267 222.268 76.63 222.268 76.51C222.268 76.3833 222.304 76.2867 222.378 76.22C222.451 76.1533 222.554 76.12 222.688 76.12H223.288V75.09C223.288 74.9233 223.331 74.7967 223.418 74.71C223.511 74.6233 223.638 74.58 223.798 74.58C223.958 74.58 224.081 74.6233 224.168 74.71C224.254 74.7967 224.298 74.9233 224.298 75.09V76.12H225.468C225.601 76.12 225.704 76.1533 225.778 76.22C225.851 76.2867 225.888 76.3833 225.888 76.51C225.888 76.63 225.851 76.7267 225.778 76.8C225.704 76.8667 225.601 76.9 225.468 76.9H224.298V79.18C224.298 79.5333 224.371 79.8 224.518 79.98C224.671 80.16 224.918 80.25 225.258 80.25C225.378 80.25 225.481 80.24 225.568 80.22C225.661 80.1933 225.738 80.1767 225.798 80.17C225.871 80.17 225.931 80.1967 225.978 80.25C226.024 80.2967 226.048 80.39 226.048 80.53C226.048 80.63 226.028 80.7233 225.988 80.81C225.954 80.8967 225.891 80.9533 225.798 80.98C225.718 81.0067 225.608 81.03 225.468 81.05C225.334 81.0767 225.214 81.09 225.108 81.09ZM228.44 81.09C228.1 81.09 227.793 81.0233 227.52 80.89C227.253 80.7567 227.043 80.5767 226.89 80.35C226.737 80.1233 226.66 79.8667 226.66 79.58C226.66 79.22 226.75 78.9367 226.93 78.73C227.117 78.5167 227.42 78.3667 227.84 78.28C228.267 78.1867 228.84 78.14 229.56 78.14H230.03V78.76H229.57C229.09 78.76 228.71 78.7833 228.43 78.83C228.15 78.8767 227.95 78.9567 227.83 79.07C227.717 79.1767 227.66 79.3267 227.66 79.52C227.66 79.7733 227.747 79.98 227.92 80.14C228.093 80.2933 228.333 80.37 228.64 80.37C228.887 80.37 229.103 80.3133 229.29 80.2C229.477 80.08 229.623 79.92 229.73 79.72C229.843 79.52 229.9 79.29 229.9 79.03V77.88C229.9 77.5 229.82 77.2267 229.66 77.06C229.5 76.8933 229.237 76.81 228.87 76.81C228.657 76.81 228.433 76.8367 228.2 76.89C227.973 76.9433 227.737 77.0333 227.49 77.16C227.377 77.2133 227.28 77.23 227.2 77.21C227.12 77.19 227.057 77.1467 227.01 77.08C226.963 77.0067 226.937 76.93 226.93 76.85C226.93 76.7633 226.95 76.68 226.99 76.6C227.037 76.52 227.113 76.46 227.22 76.42C227.513 76.28 227.803 76.18 228.09 76.12C228.377 76.06 228.647 76.03 228.9 76.03C229.347 76.03 229.713 76.1 230 76.24C230.293 76.38 230.51 76.5933 230.65 76.88C230.79 77.1667 230.86 77.5367 230.86 77.99V80.56C230.86 80.72 230.82 80.8467 230.74 80.94C230.66 81.0267 230.543 81.07 230.39 81.07C230.243 81.07 230.127 81.0267 230.04 80.94C229.953 80.8467 229.91 80.72 229.91 80.56V79.91H230C229.947 80.1567 229.847 80.37 229.7 80.55C229.56 80.7233 229.383 80.8567 229.17 80.95C228.957 81.0433 228.713 81.09 228.44 81.09ZM234.531 81.09C234.131 81.09 233.794 81.02 233.521 80.88C233.248 80.74 233.044 80.5333 232.911 80.26C232.778 79.9867 232.711 79.6533 232.711 79.26V76.9H232.111C231.978 76.9 231.874 76.8667 231.801 76.8C231.728 76.7267 231.691 76.63 231.691 76.51C231.691 76.3833 231.728 76.2867 231.801 76.22C231.874 76.1533 231.978 76.12 232.111 76.12H232.711V75.09C232.711 74.9233 232.754 74.7967 232.841 74.71C232.934 74.6233 233.061 74.58 233.221 74.58C233.381 74.58 233.504 74.6233 233.591 74.71C233.678 74.7967 233.721 74.9233 233.721 75.09V76.12H234.891C235.024 76.12 235.128 76.1533 235.201 76.22C235.274 76.2867 235.311 76.3833 235.311 76.51C235.311 76.63 235.274 76.7267 235.201 76.8C235.128 76.8667 235.024 76.9 234.891 76.9H233.721V79.18C233.721 79.5333 233.794 79.8 233.941 79.98C234.094 80.16 234.341 80.25 234.681 80.25C234.801 80.25 234.904 80.24 234.991 80.22C235.084 80.1933 235.161 80.1767 235.221 80.17C235.294 80.17 235.354 80.1967 235.401 80.25C235.448 80.2967 235.471 80.39 235.471 80.53C235.471 80.63 235.451 80.7233 235.411 80.81C235.378 80.8967 235.314 80.9533 235.221 80.98C235.141 81.0067 235.031 81.03 234.891 81.05C234.758 81.0767 234.638 81.09 234.531 81.09ZM238.013 81.09C237.72 81.09 237.417 81.0567 237.103 80.99C236.797 80.9233 236.513 80.81 236.253 80.65C236.167 80.59 236.107 80.5233 236.073 80.45C236.04 80.3767 236.027 80.3033 236.033 80.23C236.047 80.15 236.077 80.0833 236.123 80.03C236.177 79.97 236.24 79.9333 236.313 79.92C236.393 79.9067 236.477 79.9233 236.563 79.97C236.823 80.1167 237.073 80.22 237.313 80.28C237.553 80.3333 237.79 80.36 238.023 80.36C238.377 80.36 238.643 80.2967 238.823 80.17C239.003 80.0433 239.093 79.8733 239.093 79.66C239.093 79.4867 239.033 79.3533 238.913 79.26C238.793 79.16 238.613 79.0833 238.373 79.03L237.423 78.84C237.01 78.7533 236.697 78.6 236.483 78.38C236.27 78.16 236.163 77.88 236.163 77.54C236.163 77.2333 236.247 76.9667 236.413 76.74C236.58 76.5133 236.813 76.34 237.113 76.22C237.413 76.0933 237.76 76.03 238.153 76.03C238.447 76.03 238.723 76.0667 238.983 76.14C239.243 76.2133 239.483 76.3233 239.703 76.47C239.79 76.5167 239.847 76.58 239.873 76.66C239.9 76.7333 239.903 76.8067 239.883 76.88C239.87 76.9533 239.837 77.02 239.783 77.08C239.73 77.1333 239.663 77.1667 239.583 77.18C239.51 77.1867 239.427 77.1667 239.333 77.12C239.133 76.9933 238.933 76.9033 238.733 76.85C238.54 76.7967 238.347 76.77 238.153 76.77C237.8 76.77 237.533 76.8367 237.353 76.97C237.18 77.0967 237.093 77.27 237.093 77.49C237.093 77.6567 237.147 77.7933 237.253 77.9C237.36 78.0067 237.527 78.0833 237.753 78.13L238.703 78.32C239.137 78.4067 239.463 78.5533 239.683 78.76C239.91 78.9667 240.023 79.2467 240.023 79.6C240.023 80.06 239.84 80.4233 239.473 80.69C239.107 80.9567 238.62 81.09 238.013 81.09ZM244.524 78.74C244.404 78.74 244.304 78.7 244.224 78.62C244.144 78.54 244.104 78.4433 244.104 78.33C244.104 78.21 244.144 78.1133 244.224 78.04C244.304 77.96 244.404 77.92 244.524 77.92H246.724C246.837 77.92 246.934 77.96 247.014 78.04C247.094 78.1133 247.134 78.21 247.134 78.33C247.134 78.4433 247.094 78.54 247.014 78.62C246.934 78.7 246.837 78.74 246.724 78.74H244.524ZM186.809 95.07C186.642 95.07 186.512 95.0233 186.419 94.93C186.332 94.8367 186.289 94.7033 186.289 94.53V91.36L186.519 92.02L184.049 88.59C183.976 88.49 183.942 88.3867 183.949 88.28C183.956 88.1667 183.999 88.0733 184.079 88C184.166 87.92 184.279 87.88 184.419 87.88C184.526 87.88 184.622 87.9067 184.709 87.96C184.802 88.0133 184.889 88.0967 184.969 88.21L186.949 90.96H186.709L188.689 88.21C188.776 88.09 188.859 88.0067 188.939 87.96C189.019 87.9067 189.119 87.88 189.239 87.88C189.379 87.88 189.486 87.9167 189.559 87.99C189.639 88.0567 189.679 88.1467 189.679 88.26C189.686 88.3667 189.646 88.48 189.559 88.6L187.109 92.02L187.319 91.36V94.53C187.319 94.89 187.149 95.07 186.809 95.07ZM192.063 95.09C191.569 95.09 191.143 94.9867 190.783 94.78C190.429 94.5733 190.153 94.28 189.953 93.9C189.753 93.52 189.653 93.0733 189.653 92.56C189.653 92.1667 189.709 91.8167 189.823 91.51C189.936 91.2033 190.096 90.94 190.303 90.72C190.516 90.4933 190.769 90.3233 191.063 90.21C191.363 90.09 191.696 90.03 192.063 90.03C192.549 90.03 192.969 90.1333 193.323 90.34C193.683 90.5467 193.963 90.84 194.163 91.22C194.363 91.5933 194.463 92.04 194.463 92.56C194.463 92.9467 194.406 93.2967 194.293 93.61C194.179 93.9233 194.016 94.19 193.803 94.41C193.596 94.63 193.343 94.8 193.043 94.92C192.749 95.0333 192.423 95.09 192.063 95.09ZM192.063 94.31C192.336 94.31 192.576 94.2433 192.783 94.11C192.989 93.9767 193.149 93.78 193.263 93.52C193.383 93.26 193.443 92.94 193.443 92.56C193.443 91.9867 193.316 91.5533 193.063 91.26C192.809 90.9667 192.476 90.82 192.063 90.82C191.783 90.82 191.539 90.8867 191.333 91.02C191.126 91.1467 190.963 91.34 190.843 91.6C190.729 91.86 190.673 92.18 190.673 92.56C190.673 93.1267 190.799 93.56 191.053 93.86C191.306 94.16 191.643 94.31 192.063 94.31ZM197.537 95.09C197.144 95.09 196.814 95.0167 196.547 94.87C196.287 94.7233 196.09 94.5067 195.957 94.22C195.83 93.9267 195.767 93.56 195.767 93.12V90.56C195.767 90.3867 195.81 90.26 195.897 90.18C195.984 90.0933 196.107 90.05 196.267 90.05C196.427 90.05 196.55 90.0933 196.637 90.18C196.73 90.26 196.777 90.3867 196.777 90.56V93.13C196.777 93.5233 196.857 93.8133 197.017 94C197.177 94.1867 197.43 94.28 197.777 94.28C198.157 94.28 198.464 94.1533 198.697 93.9C198.937 93.64 199.057 93.3 199.057 92.88V90.56C199.057 90.3867 199.1 90.26 199.187 90.18C199.274 90.0933 199.4 90.05 199.567 90.05C199.727 90.05 199.85 90.0933 199.937 90.18C200.024 90.26 200.067 90.3867 200.067 90.56V94.56C200.067 94.9 199.904 95.07 199.577 95.07C199.424 95.07 199.304 95.0267 199.217 94.94C199.13 94.8467 199.087 94.72 199.087 94.56V93.71L199.217 93.93C199.084 94.3033 198.87 94.59 198.577 94.79C198.284 94.99 197.937 95.09 197.537 95.09ZM202.2 95.07C202.034 95.07 201.907 95.0267 201.82 94.94C201.734 94.8467 201.69 94.72 201.69 94.56V90.56C201.69 90.3933 201.734 90.2667 201.82 90.18C201.907 90.0933 202.027 90.05 202.18 90.05C202.34 90.05 202.46 90.0933 202.54 90.18C202.627 90.2667 202.67 90.3933 202.67 90.56V91.29H202.57C202.677 90.89 202.874 90.5867 203.16 90.38C203.447 90.1733 203.814 90.0533 204.26 90.02C204.38 90.0133 204.474 90.0433 204.54 90.11C204.614 90.1767 204.654 90.28 204.66 90.42C204.674 90.56 204.644 90.6733 204.57 90.76C204.497 90.84 204.384 90.8867 204.23 90.9L204.04 90.92C203.607 90.96 203.277 91.0967 203.05 91.33C202.824 91.5633 202.71 91.8833 202.71 92.29V94.56C202.71 94.72 202.667 94.8467 202.58 94.94C202.5 95.0267 202.374 95.07 202.2 95.07ZM211.868 95.09C211.101 95.09 210.454 94.9467 209.928 94.66C209.401 94.3667 209.001 93.95 208.728 93.41C208.461 92.87 208.328 92.2267 208.328 91.48C208.328 90.92 208.404 90.42 208.558 89.98C208.718 89.5333 208.944 89.1533 209.238 88.84C209.538 88.52 209.901 88.2767 210.328 88.11C210.761 87.9433 211.251 87.86 211.798 87.86C212.198 87.86 212.591 87.9133 212.978 88.02C213.364 88.12 213.718 88.2867 214.038 88.52C214.131 88.5867 214.191 88.6633 214.218 88.75C214.244 88.8367 214.244 88.9267 214.218 89.02C214.198 89.1067 214.154 89.1833 214.088 89.25C214.028 89.3167 213.951 89.3567 213.858 89.37C213.771 89.3833 213.674 89.3567 213.568 89.29C213.308 89.11 213.034 88.98 212.748 88.9C212.461 88.8133 212.144 88.77 211.798 88.77C211.278 88.77 210.838 88.8767 210.478 89.09C210.124 89.3033 209.858 89.6133 209.678 90.02C209.498 90.42 209.408 90.9067 209.408 91.48C209.408 92.3667 209.618 93.04 210.038 93.5C210.458 93.96 211.081 94.19 211.908 94.19C212.208 94.19 212.501 94.1633 212.788 94.11C213.081 94.05 213.361 93.9667 213.628 93.86L213.418 94.38V92.05H212.128C211.994 92.05 211.888 92.0167 211.808 91.95C211.734 91.8767 211.698 91.7767 211.698 91.65C211.698 91.5233 211.734 91.43 211.808 91.37C211.888 91.3033 211.994 91.27 212.128 91.27H213.858C213.998 91.27 214.104 91.3067 214.178 91.38C214.251 91.4533 214.288 91.56 214.288 91.7V94.22C214.288 94.34 214.264 94.4433 214.218 94.53C214.178 94.61 214.108 94.67 214.008 94.71C213.721 94.8233 213.384 94.9167 212.998 94.99C212.611 95.0567 212.234 95.09 211.868 95.09ZM217.712 95.09C217.319 95.09 216.989 95.0167 216.722 94.87C216.462 94.7233 216.265 94.5067 216.132 94.22C216.005 93.9267 215.942 93.56 215.942 93.12V90.56C215.942 90.3867 215.985 90.26 216.072 90.18C216.159 90.0933 216.282 90.05 216.442 90.05C216.602 90.05 216.725 90.0933 216.812 90.18C216.905 90.26 216.952 90.3867 216.952 90.56V93.13C216.952 93.5233 217.032 93.8133 217.192 94C217.352 94.1867 217.605 94.28 217.952 94.28C218.332 94.28 218.639 94.1533 218.872 93.9C219.112 93.64 219.232 93.3 219.232 92.88V90.56C219.232 90.3867 219.275 90.26 219.362 90.18C219.449 90.0933 219.575 90.05 219.742 90.05C219.902 90.05 220.025 90.0933 220.112 90.18C220.199 90.26 220.242 90.3867 220.242 90.56V94.56C220.242 94.9 220.079 95.07 219.752 95.07C219.599 95.07 219.479 95.0267 219.392 94.94C219.305 94.8467 219.262 94.72 219.262 94.56V93.71L219.392 93.93C219.259 94.3033 219.045 94.59 218.752 94.79C218.459 94.99 218.112 95.09 217.712 95.09ZM222.365 95.06C222.205 95.06 222.082 95.0133 221.995 94.92C221.909 94.82 221.865 94.6833 221.865 94.51V90.61C221.865 90.4367 221.909 90.3033 221.995 90.21C222.082 90.1167 222.205 90.07 222.365 90.07C222.525 90.07 222.649 90.1167 222.735 90.21C222.829 90.3033 222.875 90.4367 222.875 90.61V94.51C222.875 94.6833 222.832 94.82 222.745 94.92C222.659 95.0133 222.532 95.06 222.365 95.06ZM222.365 89.03C222.165 89.03 222.009 88.98 221.895 88.88C221.789 88.78 221.735 88.64 221.735 88.46C221.735 88.2733 221.789 88.1333 221.895 88.04C222.009 87.94 222.165 87.89 222.365 87.89C222.565 87.89 222.719 87.94 222.825 88.04C222.939 88.1333 222.995 88.2733 222.995 88.46C222.995 88.64 222.939 88.78 222.825 88.88C222.719 88.98 222.565 89.03 222.365 89.03ZM226.357 95.09C225.93 95.09 225.554 94.99 225.227 94.79C224.907 94.5833 224.657 94.29 224.477 93.91C224.297 93.5233 224.207 93.0733 224.207 92.56C224.207 92.0333 224.297 91.5833 224.477 91.21C224.657 90.8367 224.907 90.5467 225.227 90.34C225.554 90.1333 225.93 90.03 226.357 90.03C226.784 90.03 227.15 90.1367 227.457 90.35C227.77 90.5567 227.98 90.8367 228.087 91.19H227.977V88.39C227.977 88.2233 228.02 88.0967 228.107 88.01C228.194 87.9233 228.317 87.88 228.477 87.88C228.637 87.88 228.76 87.9233 228.847 88.01C228.94 88.0967 228.987 88.2233 228.987 88.39V94.56C228.987 94.72 228.944 94.8467 228.857 94.94C228.77 95.0267 228.647 95.07 228.487 95.07C228.327 95.07 228.204 95.0267 228.117 94.94C228.03 94.8467 227.987 94.72 227.987 94.56V93.68L228.097 93.9C227.99 94.26 227.78 94.55 227.467 94.77C227.16 94.9833 226.79 95.09 226.357 95.09ZM226.617 94.31C226.89 94.31 227.13 94.2433 227.337 94.11C227.544 93.9767 227.704 93.78 227.817 93.52C227.937 93.26 227.997 92.94 227.997 92.56C227.997 91.9867 227.87 91.5533 227.617 91.26C227.364 90.9667 227.03 90.82 226.617 90.82C226.337 90.82 226.094 90.8867 225.887 91.02C225.68 91.1467 225.517 91.34 225.397 91.6C225.284 91.86 225.227 92.18 225.227 92.56C225.227 93.1267 225.354 93.56 225.607 93.86C225.86 94.16 226.197 94.31 226.617 94.31ZM232.895 95.09C232.362 95.09 231.902 94.99 231.515 94.79C231.135 94.5833 230.839 94.2933 230.625 93.92C230.419 93.54 230.315 93.09 230.315 92.57C230.315 92.0633 230.419 91.62 230.625 91.24C230.832 90.86 231.115 90.5633 231.475 90.35C231.835 90.1367 232.245 90.03 232.705 90.03C233.045 90.03 233.349 90.0867 233.615 90.2C233.882 90.3067 234.109 90.4667 234.295 90.68C234.489 90.8867 234.632 91.14 234.725 91.44C234.825 91.74 234.875 92.0767 234.875 92.45C234.875 92.5633 234.842 92.65 234.775 92.71C234.709 92.7633 234.609 92.79 234.475 92.79H231.115V92.17H234.195L234.025 92.31C234.025 91.9767 233.975 91.6933 233.875 91.46C233.782 91.2267 233.639 91.05 233.445 90.93C233.259 90.8033 233.025 90.74 232.745 90.74C232.432 90.74 232.165 90.8133 231.945 90.96C231.732 91.1067 231.569 91.31 231.455 91.57C231.342 91.83 231.285 92.1333 231.285 92.48V92.54C231.285 93.1267 231.422 93.57 231.695 93.87C231.975 94.1633 232.379 94.31 232.905 94.31C233.105 94.31 233.315 94.2833 233.535 94.23C233.762 94.1767 233.975 94.0867 234.175 93.96C234.289 93.8933 234.389 93.8633 234.475 93.87C234.569 93.8767 234.642 93.9067 234.695 93.96C234.755 94.0133 234.792 94.08 234.805 94.16C234.819 94.24 234.805 94.3233 234.765 94.41C234.725 94.49 234.655 94.5633 234.555 94.63C234.329 94.7833 234.065 94.9 233.765 94.98C233.465 95.0533 233.175 95.09 232.895 95.09ZM241.093 95.09C240.693 95.09 240.356 95.02 240.083 94.88C239.81 94.74 239.606 94.5333 239.473 94.26C239.34 93.9867 239.273 93.6533 239.273 93.26V90.9H238.673C238.54 90.9 238.436 90.8667 238.363 90.8C238.29 90.7267 238.253 90.63 238.253 90.51C238.253 90.3833 238.29 90.2867 238.363 90.22C238.436 90.1533 238.54 90.12 238.673 90.12H239.273V89.09C239.273 88.9233 239.316 88.7967 239.403 88.71C239.496 88.6233 239.623 88.58 239.783 88.58C239.943 88.58 240.066 88.6233 240.153 88.71C240.24 88.7967 240.283 88.9233 240.283 89.09V90.12H241.453C241.586 90.12 241.69 90.1533 241.763 90.22C241.836 90.2867 241.873 90.3833 241.873 90.51C241.873 90.63 241.836 90.7267 241.763 90.8C241.69 90.8667 241.586 90.9 241.453 90.9H240.283V93.18C240.283 93.5333 240.356 93.8 240.503 93.98C240.656 94.16 240.903 94.25 241.243 94.25C241.363 94.25 241.466 94.24 241.553 94.22C241.646 94.1933 241.723 94.1767 241.783 94.17C241.856 94.17 241.916 94.1967 241.963 94.25C242.01 94.2967 242.033 94.39 242.033 94.53C242.033 94.63 242.013 94.7233 241.973 94.81C241.94 94.8967 241.876 94.9533 241.783 94.98C241.703 95.0067 241.593 95.03 241.453 95.05C241.32 95.0767 241.2 95.09 241.093 95.09ZM244.937 95.09C244.443 95.09 244.017 94.9867 243.657 94.78C243.303 94.5733 243.027 94.28 242.827 93.9C242.627 93.52 242.527 93.0733 242.527 92.56C242.527 92.1667 242.583 91.8167 242.697 91.51C242.81 91.2033 242.97 90.94 243.177 90.72C243.39 90.4933 243.643 90.3233 243.937 90.21C244.237 90.09 244.57 90.03 244.937 90.03C245.423 90.03 245.843 90.1333 246.197 90.34C246.557 90.5467 246.837 90.84 247.037 91.22C247.237 91.5933 247.337 92.04 247.337 92.56C247.337 92.9467 247.28 93.2967 247.167 93.61C247.053 93.9233 246.89 94.19 246.677 94.41C246.47 94.63 246.217 94.8 245.917 94.92C245.623 95.0333 245.297 95.09 244.937 95.09ZM244.937 94.31C245.21 94.31 245.45 94.2433 245.657 94.11C245.863 93.9767 246.023 93.78 246.137 93.52C246.257 93.26 246.317 92.94 246.317 92.56C246.317 91.9867 246.19 91.5533 245.937 91.26C245.683 90.9667 245.35 90.82 244.937 90.82C244.657 90.82 244.413 90.8867 244.207 91.02C244 91.1467 243.837 91.34 243.717 91.6C243.603 91.86 243.547 92.18 243.547 92.56C243.547 93.1267 243.673 93.56 243.927 93.86C244.18 94.16 244.517 94.31 244.937 94.31ZM148.709 109.07C148.542 109.07 148.412 109.023 148.319 108.93C148.232 108.837 148.189 108.707 148.189 108.54V102.41C148.189 102.237 148.232 102.107 148.319 102.02C148.412 101.927 148.542 101.88 148.709 101.88C148.875 101.88 149.002 101.927 149.089 102.02C149.182 102.107 149.229 102.237 149.229 102.41V108.54C149.229 108.707 149.185 108.837 149.099 108.93C149.012 109.023 148.882 109.07 148.709 109.07ZM151.455 109.07C151.295 109.07 151.171 109.027 151.085 108.94C150.998 108.847 150.955 108.72 150.955 108.56V104.56C150.955 104.393 150.998 104.267 151.085 104.18C151.171 104.093 151.291 104.05 151.445 104.05C151.605 104.05 151.725 104.093 151.805 104.18C151.891 104.267 151.935 104.393 151.935 104.56V105.34L151.825 105.16C151.971 104.787 152.201 104.507 152.515 104.32C152.828 104.127 153.188 104.03 153.595 104.03C153.981 104.03 154.301 104.103 154.555 104.25C154.815 104.39 155.008 104.607 155.135 104.9C155.261 105.187 155.325 105.55 155.325 105.99V108.56C155.325 108.72 155.281 108.847 155.195 108.94C155.108 109.027 154.985 109.07 154.825 109.07C154.658 109.07 154.531 109.027 154.445 108.94C154.358 108.847 154.315 108.72 154.315 108.56V106.05C154.315 105.63 154.231 105.323 154.065 105.13C153.905 104.937 153.651 104.84 153.305 104.84C152.898 104.84 152.571 104.967 152.325 105.22C152.085 105.473 151.965 105.813 151.965 106.24V108.56C151.965 108.9 151.795 109.07 151.455 109.07ZM158.626 109.09C158.333 109.09 158.03 109.057 157.716 108.99C157.41 108.923 157.126 108.81 156.866 108.65C156.78 108.59 156.72 108.523 156.686 108.45C156.653 108.377 156.64 108.303 156.646 108.23C156.66 108.15 156.69 108.083 156.736 108.03C156.79 107.97 156.853 107.933 156.926 107.92C157.006 107.907 157.09 107.923 157.176 107.97C157.436 108.117 157.686 108.22 157.926 108.28C158.166 108.333 158.403 108.36 158.636 108.36C158.99 108.36 159.256 108.297 159.436 108.17C159.616 108.043 159.706 107.873 159.706 107.66C159.706 107.487 159.646 107.353 159.526 107.26C159.406 107.16 159.226 107.083 158.986 107.03L158.036 106.84C157.623 106.753 157.31 106.6 157.096 106.38C156.883 106.16 156.776 105.88 156.776 105.54C156.776 105.233 156.86 104.967 157.026 104.74C157.193 104.513 157.426 104.34 157.726 104.22C158.026 104.093 158.373 104.03 158.766 104.03C159.06 104.03 159.336 104.067 159.596 104.14C159.856 104.213 160.096 104.323 160.316 104.47C160.403 104.517 160.46 104.58 160.486 104.66C160.513 104.733 160.516 104.807 160.496 104.88C160.483 104.953 160.45 105.02 160.396 105.08C160.343 105.133 160.276 105.167 160.196 105.18C160.123 105.187 160.04 105.167 159.946 105.12C159.746 104.993 159.546 104.903 159.346 104.85C159.153 104.797 158.96 104.77 158.766 104.77C158.413 104.77 158.146 104.837 157.966 104.97C157.793 105.097 157.706 105.27 157.706 105.49C157.706 105.657 157.76 105.793 157.866 105.9C157.973 106.007 158.14 106.083 158.366 106.13L159.316 106.32C159.75 106.407 160.076 106.553 160.296 106.76C160.523 106.967 160.636 107.247 160.636 107.6C160.636 108.06 160.453 108.423 160.086 108.69C159.72 108.957 159.233 109.09 158.626 109.09ZM163.7 109.09C163.307 109.09 162.977 109.017 162.71 108.87C162.45 108.723 162.253 108.507 162.12 108.22C161.993 107.927 161.93 107.56 161.93 107.12V104.56C161.93 104.387 161.973 104.26 162.06 104.18C162.147 104.093 162.27 104.05 162.43 104.05C162.59 104.05 162.713 104.093 162.8 104.18C162.893 104.26 162.94 104.387 162.94 104.56V107.13C162.94 107.523 163.02 107.813 163.18 108C163.34 108.187 163.593 108.28 163.94 108.28C164.32 108.28 164.627 108.153 164.86 107.9C165.1 107.64 165.22 107.3 165.22 106.88V104.56C165.22 104.387 165.263 104.26 165.35 104.18C165.437 104.093 165.563 104.05 165.73 104.05C165.89 104.05 166.013 104.093 166.1 104.18C166.187 104.26 166.23 104.387 166.23 104.56V108.56C166.23 108.9 166.067 109.07 165.74 109.07C165.587 109.07 165.467 109.027 165.38 108.94C165.293 108.847 165.25 108.72 165.25 108.56V107.71L165.38 107.93C165.247 108.303 165.033 108.59 164.74 108.79C164.447 108.99 164.1 109.09 163.7 109.09ZM168.363 109.07C168.197 109.07 168.07 109.027 167.983 108.94C167.897 108.847 167.853 108.72 167.853 108.56V104.56C167.853 104.393 167.897 104.267 167.983 104.18C168.07 104.093 168.19 104.05 168.343 104.05C168.503 104.05 168.623 104.093 168.703 104.18C168.79 104.267 168.833 104.393 168.833 104.56V105.29H168.733C168.84 104.89 169.037 104.587 169.323 104.38C169.61 104.173 169.977 104.053 170.423 104.02C170.543 104.013 170.637 104.043 170.703 104.11C170.777 104.177 170.817 104.28 170.823 104.42C170.837 104.56 170.807 104.673 170.733 104.76C170.66 104.84 170.547 104.887 170.393 104.9L170.203 104.92C169.77 104.96 169.44 105.097 169.213 105.33C168.987 105.563 168.873 105.883 168.873 106.29V108.56C168.873 108.72 168.83 108.847 168.743 108.94C168.663 109.027 168.537 109.07 168.363 109.07ZM173.295 109.09C172.955 109.09 172.648 109.023 172.375 108.89C172.108 108.757 171.898 108.577 171.745 108.35C171.592 108.123 171.515 107.867 171.515 107.58C171.515 107.22 171.605 106.937 171.785 106.73C171.972 106.517 172.275 106.367 172.695 106.28C173.122 106.187 173.695 106.14 174.415 106.14H174.885V106.76H174.425C173.945 106.76 173.565 106.783 173.285 106.83C173.005 106.877 172.805 106.957 172.685 107.07C172.572 107.177 172.515 107.327 172.515 107.52C172.515 107.773 172.602 107.98 172.775 108.14C172.948 108.293 173.188 108.37 173.495 108.37C173.742 108.37 173.958 108.313 174.145 108.2C174.332 108.08 174.478 107.92 174.585 107.72C174.698 107.52 174.755 107.29 174.755 107.03V105.88C174.755 105.5 174.675 105.227 174.515 105.06C174.355 104.893 174.092 104.81 173.725 104.81C173.512 104.81 173.288 104.837 173.055 104.89C172.828 104.943 172.592 105.033 172.345 105.16C172.232 105.213 172.135 105.23 172.055 105.21C171.975 105.19 171.912 105.147 171.865 105.08C171.818 105.007 171.792 104.93 171.785 104.85C171.785 104.763 171.805 104.68 171.845 104.6C171.892 104.52 171.968 104.46 172.075 104.42C172.368 104.28 172.658 104.18 172.945 104.12C173.232 104.06 173.502 104.03 173.755 104.03C174.202 104.03 174.568 104.1 174.855 104.24C175.148 104.38 175.365 104.593 175.505 104.88C175.645 105.167 175.715 105.537 175.715 105.99V108.56C175.715 108.72 175.675 108.847 175.595 108.94C175.515 109.027 175.398 109.07 175.245 109.07C175.098 109.07 174.982 109.027 174.895 108.94C174.808 108.847 174.765 108.72 174.765 108.56V107.91H174.855C174.802 108.157 174.702 108.37 174.555 108.55C174.415 108.723 174.238 108.857 174.025 108.95C173.812 109.043 173.568 109.09 173.295 109.09ZM177.806 109.07C177.646 109.07 177.523 109.027 177.436 108.94C177.349 108.847 177.306 108.72 177.306 108.56V104.56C177.306 104.393 177.349 104.267 177.436 104.18C177.523 104.093 177.643 104.05 177.796 104.05C177.956 104.05 178.076 104.093 178.156 104.18C178.243 104.267 178.286 104.393 178.286 104.56V105.34L178.176 105.16C178.323 104.787 178.553 104.507 178.866 104.32C179.179 104.127 179.539 104.03 179.946 104.03C180.333 104.03 180.653 104.103 180.906 104.25C181.166 104.39 181.359 104.607 181.486 104.9C181.613 105.187 181.676 105.55 181.676 105.99V108.56C181.676 108.72 181.633 108.847 181.546 108.94C181.459 109.027 181.336 109.07 181.176 109.07C181.009 109.07 180.883 109.027 180.796 108.94C180.709 108.847 180.666 108.72 180.666 108.56V106.05C180.666 105.63 180.583 105.323 180.416 105.13C180.256 104.937 180.003 104.84 179.656 104.84C179.249 104.84 178.923 104.967 178.676 105.22C178.436 105.473 178.316 105.813 178.316 106.24V108.56C178.316 108.9 178.146 109.07 177.806 109.07ZM185.418 109.09C184.918 109.09 184.484 108.987 184.118 108.78C183.758 108.567 183.478 108.27 183.278 107.89C183.078 107.503 182.978 107.05 182.978 106.53C182.978 106.143 183.034 105.797 183.148 105.49C183.261 105.177 183.421 104.913 183.628 104.7C183.841 104.487 184.098 104.323 184.398 104.21C184.704 104.09 185.044 104.03 185.418 104.03C185.651 104.03 185.894 104.067 186.148 104.14C186.408 104.207 186.648 104.32 186.868 104.48C186.954 104.533 187.008 104.6 187.028 104.68C187.054 104.753 187.058 104.83 187.038 104.91C187.024 104.99 186.988 105.06 186.928 105.12C186.874 105.173 186.808 105.207 186.728 105.22C186.648 105.227 186.561 105.203 186.468 105.15C186.308 105.037 186.144 104.957 185.978 104.91C185.811 104.857 185.651 104.83 185.498 104.83C185.258 104.83 185.044 104.87 184.858 104.95C184.678 105.023 184.524 105.133 184.398 105.28C184.271 105.42 184.174 105.597 184.108 105.81C184.048 106.023 184.018 106.267 184.018 106.54C184.018 107.087 184.144 107.517 184.398 107.83C184.658 108.137 185.024 108.29 185.498 108.29C185.651 108.29 185.811 108.267 185.978 108.22C186.144 108.173 186.308 108.093 186.468 107.98C186.561 107.927 186.648 107.907 186.728 107.92C186.808 107.933 186.871 107.97 186.918 108.03C186.971 108.083 187.004 108.15 187.018 108.23C187.038 108.303 187.034 108.38 187.008 108.46C186.981 108.54 186.924 108.607 186.838 108.66C186.624 108.813 186.391 108.923 186.138 108.99C185.891 109.057 185.651 109.09 185.418 109.09ZM190.328 109.09C189.795 109.09 189.335 108.99 188.948 108.79C188.568 108.583 188.271 108.293 188.058 107.92C187.851 107.54 187.748 107.09 187.748 106.57C187.748 106.063 187.851 105.62 188.058 105.24C188.265 104.86 188.548 104.563 188.908 104.35C189.268 104.137 189.678 104.03 190.138 104.03C190.478 104.03 190.781 104.087 191.048 104.2C191.315 104.307 191.541 104.467 191.728 104.68C191.921 104.887 192.065 105.14 192.158 105.44C192.258 105.74 192.308 106.077 192.308 106.45C192.308 106.563 192.275 106.65 192.208 106.71C192.141 106.763 192.041 106.79 191.908 106.79H188.548V106.17H191.628L191.458 106.31C191.458 105.977 191.408 105.693 191.308 105.46C191.215 105.227 191.071 105.05 190.878 104.93C190.691 104.803 190.458 104.74 190.178 104.74C189.865 104.74 189.598 104.813 189.378 104.96C189.165 105.107 189.001 105.31 188.888 105.57C188.775 105.83 188.718 106.133 188.718 106.48V106.54C188.718 107.127 188.855 107.57 189.128 107.87C189.408 108.163 189.811 108.31 190.338 108.31C190.538 108.31 190.748 108.283 190.968 108.23C191.195 108.177 191.408 108.087 191.608 107.96C191.721 107.893 191.821 107.863 191.908 107.87C192.001 107.877 192.075 107.907 192.128 107.96C192.188 108.013 192.225 108.08 192.238 108.16C192.251 108.24 192.238 108.323 192.198 108.41C192.158 108.49 192.088 108.563 191.988 108.63C191.761 108.783 191.498 108.9 191.198 108.98C190.898 109.053 190.608 109.09 190.328 109.09ZM199.716 109.09C199.003 109.09 198.393 108.943 197.886 108.65C197.379 108.357 196.989 107.94 196.716 107.4C196.449 106.853 196.316 106.21 196.316 105.47C196.316 104.917 196.393 104.42 196.546 103.98C196.699 103.533 196.919 103.153 197.206 102.84C197.499 102.52 197.856 102.277 198.276 102.11C198.703 101.943 199.183 101.86 199.716 101.86C200.109 101.86 200.486 101.913 200.846 102.02C201.213 102.127 201.529 102.28 201.796 102.48C201.909 102.553 201.983 102.643 202.016 102.75C202.056 102.85 202.063 102.947 202.036 103.04C202.016 103.133 201.973 103.213 201.906 103.28C201.839 103.34 201.753 103.373 201.646 103.38C201.546 103.387 201.436 103.35 201.316 103.27C201.096 103.103 200.853 102.98 200.586 102.9C200.319 102.82 200.039 102.78 199.746 102.78C199.239 102.78 198.813 102.887 198.466 103.1C198.119 103.307 197.856 103.61 197.676 104.01C197.496 104.41 197.406 104.897 197.406 105.47C197.406 106.043 197.496 106.533 197.676 106.94C197.856 107.34 198.119 107.647 198.466 107.86C198.813 108.067 199.239 108.17 199.746 108.17C200.039 108.17 200.319 108.13 200.586 108.05C200.859 107.963 201.116 107.837 201.356 107.67C201.476 107.597 201.583 107.563 201.676 107.57C201.776 107.577 201.859 107.61 201.926 107.67C201.993 107.73 202.036 107.807 202.056 107.9C202.083 107.987 202.079 108.08 202.046 108.18C202.019 108.273 201.956 108.353 201.856 108.42C201.583 108.64 201.259 108.807 200.886 108.92C200.513 109.033 200.123 109.09 199.716 109.09ZM205.172 109.09C204.679 109.09 204.252 108.987 203.892 108.78C203.539 108.573 203.262 108.28 203.062 107.9C202.862 107.52 202.762 107.073 202.762 106.56C202.762 106.167 202.819 105.817 202.932 105.51C203.046 105.203 203.206 104.94 203.412 104.72C203.626 104.493 203.879 104.323 204.172 104.21C204.472 104.09 204.806 104.03 205.172 104.03C205.659 104.03 206.079 104.133 206.432 104.34C206.792 104.547 207.072 104.84 207.272 105.22C207.472 105.593 207.572 106.04 207.572 106.56C207.572 106.947 207.516 107.297 207.402 107.61C207.289 107.923 207.126 108.19 206.912 108.41C206.706 108.63 206.452 108.8 206.152 108.92C205.859 109.033 205.532 109.09 205.172 109.09ZM205.172 108.31C205.446 108.31 205.686 108.243 205.892 108.11C206.099 107.977 206.259 107.78 206.372 107.52C206.492 107.26 206.552 106.94 206.552 106.56C206.552 105.987 206.426 105.553 206.172 105.26C205.919 104.967 205.586 104.82 205.172 104.82C204.892 104.82 204.649 104.887 204.442 105.02C204.236 105.147 204.072 105.34 203.952 105.6C203.839 105.86 203.782 106.18 203.782 106.56C203.782 107.127 203.909 107.56 204.162 107.86C204.416 108.16 204.752 108.31 205.172 108.31ZM209.406 109.07C209.246 109.07 209.123 109.027 209.036 108.94C208.95 108.847 208.906 108.72 208.906 108.56V104.56C208.906 104.393 208.95 104.267 209.036 104.18C209.123 104.093 209.243 104.05 209.396 104.05C209.556 104.05 209.676 104.093 209.756 104.18C209.843 104.267 209.886 104.393 209.886 104.56V105.34L209.776 105.16C209.923 104.787 210.153 104.507 210.466 104.32C210.78 104.127 211.14 104.03 211.546 104.03C211.933 104.03 212.253 104.103 212.506 104.25C212.766 104.39 212.96 104.607 213.086 104.9C213.213 105.187 213.276 105.55 213.276 105.99V108.56C213.276 108.72 213.233 108.847 213.146 108.94C213.06 109.027 212.936 109.07 212.776 109.07C212.61 109.07 212.483 109.027 212.396 108.94C212.31 108.847 212.266 108.72 212.266 108.56V106.05C212.266 105.63 212.183 105.323 212.016 105.13C211.856 104.937 211.603 104.84 211.256 104.84C210.85 104.84 210.523 104.967 210.276 105.22C210.036 105.473 209.916 105.813 209.916 106.24V108.56C209.916 108.9 209.746 109.07 209.406 109.07ZM215.668 109.07C215.508 109.07 215.382 109.027 215.288 108.94C215.202 108.847 215.158 108.72 215.158 108.56V104.9H214.598C214.472 104.9 214.372 104.867 214.298 104.8C214.225 104.727 214.188 104.63 214.188 104.51C214.188 104.383 214.225 104.287 214.298 104.22C214.372 104.153 214.472 104.12 214.598 104.12H215.448L215.158 104.39V104.03C215.158 103.383 215.318 102.89 215.638 102.55C215.958 102.21 216.428 102.01 217.048 101.95L217.348 101.93C217.468 101.917 217.565 101.933 217.638 101.98C217.712 102.02 217.762 102.08 217.788 102.16C217.815 102.233 217.818 102.31 217.798 102.39C217.778 102.47 217.742 102.54 217.688 102.6C217.642 102.653 217.582 102.683 217.508 102.69L217.238 102.71C216.865 102.737 216.592 102.847 216.418 103.04C216.252 103.233 216.168 103.517 216.168 103.89V104.28L216.028 104.12H218.768C218.935 104.12 219.062 104.17 219.148 104.27C219.235 104.363 219.278 104.493 219.278 104.66V108.51C219.278 108.683 219.235 108.82 219.148 108.92C219.068 109.013 218.942 109.06 218.768 109.06C218.608 109.06 218.485 109.013 218.398 108.92C218.312 108.82 218.268 108.683 218.268 108.51V104.9H216.168V108.56C216.168 108.9 216.002 109.07 215.668 109.07ZM218.788 103.03C218.595 103.03 218.445 102.98 218.338 102.88C218.232 102.78 218.178 102.64 218.178 102.46C218.178 102.273 218.232 102.133 218.338 102.04C218.445 101.94 218.595 101.89 218.788 101.89C218.988 101.89 219.138 101.94 219.238 102.04C219.345 102.133 219.398 102.273 219.398 102.46C219.398 102.64 219.345 102.78 219.238 102.88C219.138 102.98 218.988 103.03 218.788 103.03ZM222.749 109.09C222.322 109.09 221.945 108.99 221.619 108.79C221.299 108.583 221.049 108.29 220.869 107.91C220.689 107.523 220.599 107.073 220.599 106.56C220.599 106.033 220.689 105.583 220.869 105.21C221.049 104.837 221.299 104.547 221.619 104.34C221.945 104.133 222.322 104.03 222.749 104.03C223.175 104.03 223.542 104.137 223.849 104.35C224.162 104.557 224.372 104.837 224.479 105.19H224.369V102.39C224.369 102.223 224.412 102.097 224.499 102.01C224.585 101.923 224.709 101.88 224.869 101.88C225.029 101.88 225.152 101.923 225.239 102.01C225.332 102.097 225.379 102.223 225.379 102.39V108.56C225.379 108.72 225.335 108.847 225.249 108.94C225.162 109.027 225.039 109.07 224.879 109.07C224.719 109.07 224.595 109.027 224.509 108.94C224.422 108.847 224.379 108.72 224.379 108.56V107.68L224.489 107.9C224.382 108.26 224.172 108.55 223.859 108.77C223.552 108.983 223.182 109.09 222.749 109.09ZM223.009 108.31C223.282 108.31 223.522 108.243 223.729 108.11C223.935 107.977 224.095 107.78 224.209 107.52C224.329 107.26 224.389 106.94 224.389 106.56C224.389 105.987 224.262 105.553 224.009 105.26C223.755 104.967 223.422 104.82 223.009 104.82C222.729 104.82 222.485 104.887 222.279 105.02C222.072 105.147 221.909 105.34 221.789 105.6C221.675 105.86 221.619 106.18 221.619 106.56C221.619 107.127 221.745 107.56 221.999 107.86C222.252 108.16 222.589 108.31 223.009 108.31ZM229.287 109.09C228.753 109.09 228.293 108.99 227.907 108.79C227.527 108.583 227.23 108.293 227.017 107.92C226.81 107.54 226.707 107.09 226.707 106.57C226.707 106.063 226.81 105.62 227.017 105.24C227.223 104.86 227.507 104.563 227.867 104.35C228.227 104.137 228.637 104.03 229.097 104.03C229.437 104.03 229.74 104.087 230.007 104.2C230.273 104.307 230.5 104.467 230.687 104.68C230.88 104.887 231.023 105.14 231.117 105.44C231.217 105.74 231.267 106.077 231.267 106.45C231.267 106.563 231.233 106.65 231.167 106.71C231.1 106.763 231 106.79 230.867 106.79H227.507V106.17H230.587L230.417 106.31C230.417 105.977 230.367 105.693 230.267 105.46C230.173 105.227 230.03 105.05 229.837 104.93C229.65 104.803 229.417 104.74 229.137 104.74C228.823 104.74 228.557 104.813 228.337 104.96C228.123 105.107 227.96 105.31 227.847 105.57C227.733 105.83 227.677 106.133 227.677 106.48V106.54C227.677 107.127 227.813 107.57 228.087 107.87C228.367 108.163 228.77 108.31 229.297 108.31C229.497 108.31 229.707 108.283 229.927 108.23C230.153 108.177 230.367 108.087 230.567 107.96C230.68 107.893 230.78 107.863 230.867 107.87C230.96 107.877 231.033 107.907 231.087 107.96C231.147 108.013 231.183 108.08 231.197 108.16C231.21 108.24 231.197 108.323 231.157 108.41C231.117 108.49 231.047 108.563 230.947 108.63C230.72 108.783 230.457 108.9 230.157 108.98C229.857 109.053 229.567 109.09 229.287 109.09ZM233.068 109.07C232.908 109.07 232.784 109.027 232.698 108.94C232.611 108.847 232.568 108.72 232.568 108.56V104.56C232.568 104.393 232.611 104.267 232.698 104.18C232.784 104.093 232.904 104.05 233.058 104.05C233.218 104.05 233.338 104.093 233.418 104.18C233.504 104.267 233.548 104.393 233.548 104.56V105.34L233.438 105.16C233.584 104.787 233.814 104.507 234.128 104.32C234.441 104.127 234.801 104.03 235.208 104.03C235.594 104.03 235.914 104.103 236.168 104.25C236.428 104.39 236.621 104.607 236.748 104.9C236.874 105.187 236.938 105.55 236.938 105.99V108.56C236.938 108.72 236.894 108.847 236.808 108.94C236.721 109.027 236.598 109.07 236.438 109.07C236.271 109.07 236.144 109.027 236.058 108.94C235.971 108.847 235.928 108.72 235.928 108.56V106.05C235.928 105.63 235.844 105.323 235.678 105.13C235.518 104.937 235.264 104.84 234.918 104.84C234.511 104.84 234.184 104.967 233.938 105.22C233.698 105.473 233.578 105.813 233.578 106.24V108.56C233.578 108.9 233.408 109.07 233.068 109.07ZM240.68 109.09C240.18 109.09 239.746 108.987 239.38 108.78C239.02 108.567 238.74 108.27 238.54 107.89C238.34 107.503 238.24 107.05 238.24 106.53C238.24 106.143 238.296 105.797 238.41 105.49C238.523 105.177 238.683 104.913 238.89 104.7C239.103 104.487 239.36 104.323 239.66 104.21C239.966 104.09 240.306 104.03 240.68 104.03C240.913 104.03 241.156 104.067 241.41 104.14C241.67 104.207 241.91 104.32 242.13 104.48C242.216 104.533 242.27 104.6 242.29 104.68C242.316 104.753 242.32 104.83 242.3 104.91C242.286 104.99 242.25 105.06 242.19 105.12C242.136 105.173 242.07 105.207 241.99 105.22C241.91 105.227 241.823 105.203 241.73 105.15C241.57 105.037 241.406 104.957 241.24 104.91C241.073 104.857 240.913 104.83 240.76 104.83C240.52 104.83 240.306 104.87 240.12 104.95C239.94 105.023 239.786 105.133 239.66 105.28C239.533 105.42 239.436 105.597 239.37 105.81C239.31 106.023 239.28 106.267 239.28 106.54C239.28 107.087 239.406 107.517 239.66 107.83C239.92 108.137 240.286 108.29 240.76 108.29C240.913 108.29 241.073 108.267 241.24 108.22C241.406 108.173 241.57 108.093 241.73 107.98C241.823 107.927 241.91 107.907 241.99 107.92C242.07 107.933 242.133 107.97 242.18 108.03C242.233 108.083 242.266 108.15 242.28 108.23C242.3 108.303 242.296 108.38 242.27 108.46C242.243 108.54 242.186 108.607 242.1 108.66C241.886 108.813 241.653 108.923 241.4 108.99C241.153 109.057 240.913 109.09 240.68 109.09ZM245.59 109.09C245.057 109.09 244.597 108.99 244.21 108.79C243.83 108.583 243.533 108.293 243.32 107.92C243.113 107.54 243.01 107.09 243.01 106.57C243.01 106.063 243.113 105.62 243.32 105.24C243.527 104.86 243.81 104.563 244.17 104.35C244.53 104.137 244.94 104.03 245.4 104.03C245.74 104.03 246.043 104.087 246.31 104.2C246.577 104.307 246.803 104.467 246.99 104.68C247.183 104.887 247.327 105.14 247.42 105.44C247.52 105.74 247.57 106.077 247.57 106.45C247.57 106.563 247.537 106.65 247.47 106.71C247.403 106.763 247.303 106.79 247.17 106.79H243.81V106.17H246.89L246.72 106.31C246.72 105.977 246.67 105.693 246.57 105.46C246.477 105.227 246.333 105.05 246.14 104.93C245.953 104.803 245.72 104.74 245.44 104.74C245.127 104.74 244.86 104.813 244.64 104.96C244.427 105.107 244.263 105.31 244.15 105.57C244.037 105.83 243.98 106.133 243.98 106.48V106.54C243.98 107.127 244.117 107.57 244.39 107.87C244.67 108.163 245.073 108.31 245.6 108.31C245.8 108.31 246.01 108.283 246.23 108.23C246.457 108.177 246.67 108.087 246.87 107.96C246.983 107.893 247.083 107.863 247.17 107.87C247.263 107.877 247.337 107.907 247.39 107.96C247.45 108.013 247.487 108.08 247.5 108.16C247.513 108.24 247.5 108.323 247.46 108.41C247.42 108.49 247.35 108.563 247.25 108.63C247.023 108.783 246.76 108.9 246.46 108.98C246.16 109.053 245.87 109.09 245.59 109.09Z" fill="white"/>
<path d="M102.079 25.16C100.906 25.16 99.8979 24.9253 99.0552 24.456C98.2232 23.976 97.5832 23.304 97.1352 22.44C96.6872 21.5653 96.4632 20.536 96.4632 19.352C96.4632 18.4667 96.5912 17.672 96.8472 16.968C97.1032 16.2533 97.4712 15.6453 97.9512 15.144C98.4312 14.632 99.0179 14.2427 99.7112 13.976C100.415 13.6987 101.205 13.56 102.079 13.56C102.666 13.56 103.242 13.6347 103.807 13.784C104.373 13.9333 104.869 14.1467 105.295 14.424C105.519 14.5627 105.669 14.7333 105.743 14.936C105.818 15.128 105.834 15.32 105.791 15.512C105.749 15.6933 105.658 15.848 105.519 15.976C105.391 16.104 105.226 16.1787 105.023 16.2C104.831 16.2107 104.618 16.1413 104.383 15.992C104.053 15.7787 103.695 15.624 103.311 15.528C102.927 15.432 102.538 15.384 102.143 15.384C101.386 15.384 100.746 15.5387 100.223 15.848C99.7005 16.1573 99.3059 16.6053 99.0392 17.192C98.7725 17.7787 98.6392 18.4987 98.6392 19.352C98.6392 20.1947 98.7725 20.9147 99.0392 21.512C99.3059 22.1093 99.7005 22.5627 100.223 22.872C100.746 23.1813 101.386 23.336 102.143 23.336C102.549 23.336 102.949 23.288 103.343 23.192C103.738 23.0853 104.111 22.9253 104.463 22.712C104.698 22.5733 104.906 22.5147 105.087 22.536C105.279 22.5467 105.439 22.6107 105.567 22.728C105.695 22.8453 105.781 22.9947 105.823 23.176C105.866 23.3467 105.855 23.528 105.791 23.72C105.727 23.9013 105.599 24.0613 105.407 24.2C104.981 24.5093 104.469 24.7493 103.871 24.92C103.285 25.08 102.687 25.16 102.079 25.16ZM108.586 25C108.256 25 108 24.9093 107.818 24.728C107.637 24.536 107.546 24.2747 107.546 23.944V14.712C107.546 14.3707 107.632 14.1147 107.802 13.944C107.984 13.7627 108.24 13.672 108.57 13.672C108.901 13.672 109.152 13.7627 109.322 13.944C109.504 14.1147 109.594 14.3707 109.594 14.712V23.256H114.234C114.522 23.256 114.741 23.3307 114.89 23.48C115.05 23.6293 115.13 23.8427 115.13 24.12C115.13 24.3973 115.05 24.616 114.89 24.776C114.741 24.9253 114.522 25 114.234 25H108.586ZM116.233 25.128C115.977 25.128 115.769 25.0693 115.609 24.952C115.459 24.8347 115.369 24.68 115.337 24.488C115.305 24.2853 115.342 24.0613 115.449 23.816L119.673 14.456C119.811 14.1467 119.977 13.928 120.169 13.8C120.371 13.6613 120.601 13.592 120.857 13.592C121.102 13.592 121.321 13.6613 121.513 13.8C121.715 13.928 121.886 14.1467 122.025 14.456L126.265 23.816C126.382 24.0613 126.425 24.2853 126.393 24.488C126.361 24.6907 126.27 24.8507 126.121 24.968C125.971 25.0747 125.774 25.128 125.529 25.128C125.23 25.128 124.995 25.0587 124.825 24.92C124.665 24.7707 124.521 24.5467 124.393 24.248L123.353 21.832L124.217 22.392H117.465L118.329 21.832L117.305 24.248C117.166 24.5573 117.022 24.7813 116.873 24.92C116.723 25.0587 116.51 25.128 116.233 25.128ZM120.825 15.944L118.585 21.272L118.169 20.76H123.513L123.113 21.272L120.857 15.944H120.825ZM128.891 25.128C128.56 25.128 128.304 25.0373 128.123 24.856C127.952 24.664 127.867 24.4027 127.867 24.072V14.648C127.867 14.3067 127.952 14.0453 128.123 13.864C128.304 13.6827 128.56 13.592 128.891 13.592C129.222 13.592 129.472 13.6827 129.643 13.864C129.824 14.0453 129.915 14.3067 129.915 14.648V24.072C129.915 24.4027 129.83 24.664 129.659 24.856C129.488 25.0373 129.232 25.128 128.891 25.128ZM133.182 25.128C132.884 25.128 132.654 25.0427 132.494 24.872C132.334 24.7013 132.254 24.4667 132.254 24.168V14.552C132.254 14.2427 132.34 14.008 132.51 13.848C132.681 13.6773 132.916 13.592 133.214 13.592C133.481 13.592 133.689 13.6453 133.838 13.752C133.998 13.848 134.142 14.0187 134.27 14.264L138.222 21.576H137.71L141.662 14.264C141.79 14.0187 141.929 13.848 142.078 13.752C142.228 13.6453 142.436 13.592 142.702 13.592C143.001 13.592 143.23 13.6773 143.39 13.848C143.55 14.008 143.63 14.2427 143.63 14.552V24.168C143.63 24.4667 143.55 24.7013 143.39 24.872C143.241 25.0427 143.012 25.128 142.702 25.128C142.404 25.128 142.174 25.0427 142.014 24.872C141.854 24.7013 141.774 24.4667 141.774 24.168V16.76H142.126L138.766 22.888C138.66 23.0693 138.548 23.2027 138.43 23.288C138.313 23.3733 138.153 23.416 137.95 23.416C137.748 23.416 137.582 23.3733 137.454 23.288C137.326 23.192 137.214 23.0587 137.118 22.888L133.726 16.744H134.11V24.168C134.11 24.4667 134.03 24.7013 133.87 24.872C133.721 25.0427 133.492 25.128 133.182 25.128ZM154.025 25.16C153.556 25.16 153.086 25.1227 152.617 25.048C152.148 24.984 151.705 24.8827 151.289 24.744C150.873 24.5947 150.5 24.4133 150.169 24.2C149.977 24.072 149.844 23.9173 149.769 23.736C149.694 23.5547 149.668 23.3787 149.689 23.208C149.721 23.0267 149.79 22.872 149.897 22.744C150.014 22.6053 150.158 22.52 150.329 22.488C150.5 22.456 150.686 22.504 150.889 22.632C151.358 22.9093 151.854 23.112 152.377 23.24C152.9 23.368 153.449 23.432 154.025 23.432C154.868 23.432 155.481 23.2933 155.865 23.016C156.249 22.728 156.441 22.36 156.441 21.912C156.441 21.5387 156.302 21.2453 156.025 21.032C155.758 20.8187 155.294 20.6427 154.633 20.504L152.873 20.136C151.86 19.9227 151.102 19.5653 150.601 19.064C150.11 18.552 149.865 17.88 149.865 17.048C149.865 16.5253 149.972 16.0507 150.185 15.624C150.398 15.1973 150.697 14.8293 151.081 14.52C151.476 14.2107 151.94 13.976 152.473 13.816C153.017 13.6453 153.614 13.56 154.265 13.56C154.905 13.56 155.513 13.64 156.089 13.8C156.665 13.96 157.182 14.1947 157.641 14.504C157.812 14.6213 157.924 14.7653 157.977 14.936C158.041 15.1067 158.057 15.2773 158.025 15.448C157.993 15.608 157.918 15.7467 157.801 15.864C157.684 15.9813 157.534 16.0507 157.353 16.072C157.182 16.0933 156.985 16.04 156.761 15.912C156.366 15.688 155.966 15.528 155.561 15.432C155.156 15.336 154.718 15.288 154.249 15.288C153.758 15.288 153.337 15.3573 152.985 15.496C152.633 15.6347 152.361 15.832 152.169 16.088C151.988 16.3333 151.897 16.6267 151.897 16.968C151.897 17.352 152.025 17.6613 152.281 17.896C152.537 18.12 152.974 18.296 153.593 18.424L155.337 18.792C156.393 19.016 157.177 19.368 157.689 19.848C158.212 20.328 158.473 20.968 158.473 21.768C158.473 22.28 158.366 22.744 158.153 23.16C157.95 23.576 157.652 23.9333 157.257 24.232C156.873 24.5307 156.409 24.76 155.865 24.92C155.321 25.08 154.708 25.16 154.025 25.16ZM161.159 25C160.807 25 160.535 24.9093 160.343 24.728C160.161 24.536 160.071 24.264 160.071 23.912V14.808C160.071 14.456 160.161 14.1893 160.343 14.008C160.535 13.816 160.807 13.72 161.159 13.72H166.871C167.137 13.72 167.34 13.7893 167.479 13.928C167.628 14.0667 167.703 14.264 167.703 14.52C167.703 14.7867 167.628 14.9947 167.479 15.144C167.34 15.2827 167.137 15.352 166.871 15.352H162.039V18.456H166.519C166.796 18.456 167.004 18.5253 167.143 18.664C167.281 18.8027 167.351 19.0053 167.351 19.272C167.351 19.5387 167.281 19.7413 167.143 19.88C167.004 20.0187 166.796 20.088 166.519 20.088H162.039V23.368H166.871C167.137 23.368 167.34 23.4373 167.479 23.576C167.628 23.7147 167.703 23.9173 167.703 24.184C167.703 24.4507 167.628 24.6533 167.479 24.792C167.34 24.9307 167.137 25 166.871 25H161.159ZM173.123 25.128C172.793 25.128 172.537 25.0373 172.355 24.856C172.185 24.664 172.099 24.4027 172.099 24.072V15.432H168.979C168.702 15.432 168.483 15.3573 168.323 15.208C168.174 15.048 168.099 14.8347 168.099 14.568C168.099 14.2907 168.174 14.0827 168.323 13.944C168.483 13.7947 168.702 13.72 168.979 13.72H177.267C177.545 13.72 177.758 13.7947 177.907 13.944C178.067 14.0827 178.147 14.2907 178.147 14.568C178.147 14.8347 178.067 15.048 177.907 15.208C177.758 15.3573 177.545 15.432 177.267 15.432H174.147V24.072C174.147 24.4027 174.062 24.664 173.891 24.856C173.721 25.0373 173.465 25.128 173.123 25.128ZM183.104 25.128C182.773 25.128 182.517 25.0373 182.336 24.856C182.165 24.664 182.08 24.4027 182.08 24.072V15.432H178.96C178.683 15.432 178.464 15.3573 178.304 15.208C178.155 15.048 178.08 14.8347 178.08 14.568C178.08 14.2907 178.155 14.0827 178.304 13.944C178.464 13.7947 178.683 13.72 178.96 13.72H187.248C187.525 13.72 187.739 13.7947 187.888 13.944C188.048 14.0827 188.128 14.2907 188.128 14.568C188.128 14.8347 188.048 15.048 187.888 15.208C187.739 15.3573 187.525 15.432 187.248 15.432H184.128V24.072C184.128 24.4027 184.043 24.664 183.872 24.856C183.701 25.0373 183.445 25.128 183.104 25.128ZM190.177 25C189.847 25 189.591 24.9093 189.409 24.728C189.228 24.536 189.137 24.2747 189.137 23.944V14.712C189.137 14.3707 189.223 14.1147 189.393 13.944C189.575 13.7627 189.831 13.672 190.161 13.672C190.492 13.672 190.743 13.7627 190.913 13.944C191.095 14.1147 191.185 14.3707 191.185 14.712V23.256H195.825C196.113 23.256 196.332 23.3307 196.481 23.48C196.641 23.6293 196.721 23.8427 196.721 24.12C196.721 24.3973 196.641 24.616 196.481 24.776C196.332 24.9253 196.113 25 195.825 25H190.177ZM199.05 25C198.698 25 198.426 24.9093 198.234 24.728C198.053 24.536 197.962 24.264 197.962 23.912V14.808C197.962 14.456 198.053 14.1893 198.234 14.008C198.426 13.816 198.698 13.72 199.05 13.72H204.762C205.029 13.72 205.231 13.7893 205.37 13.928C205.519 14.0667 205.594 14.264 205.594 14.52C205.594 14.7867 205.519 14.9947 205.37 15.144C205.231 15.2827 205.029 15.352 204.762 15.352H199.93V18.456H204.41C204.687 18.456 204.895 18.5253 205.034 18.664C205.173 18.8027 205.242 19.0053 205.242 19.272C205.242 19.5387 205.173 19.7413 205.034 19.88C204.895 20.0187 204.687 20.088 204.41 20.088H199.93V23.368H204.762C205.029 23.368 205.231 23.4373 205.37 23.576C205.519 23.7147 205.594 23.9173 205.594 24.184C205.594 24.4507 205.519 24.6533 205.37 24.792C205.231 24.9307 205.029 25 204.762 25H199.05ZM208.309 25.128C208.01 25.128 207.781 25.0427 207.621 24.872C207.461 24.7013 207.381 24.4667 207.381 24.168V14.552C207.381 14.2427 207.466 14.008 207.637 13.848C207.807 13.6773 208.042 13.592 208.341 13.592C208.607 13.592 208.815 13.6453 208.965 13.752C209.125 13.848 209.269 14.0187 209.397 14.264L213.349 21.576H212.837L216.789 14.264C216.917 14.0187 217.055 13.848 217.205 13.752C217.354 13.6453 217.562 13.592 217.829 13.592C218.127 13.592 218.357 13.6773 218.517 13.848C218.677 14.008 218.757 14.2427 218.757 14.552V24.168C218.757 24.4667 218.677 24.7013 218.517 24.872C218.367 25.0427 218.138 25.128 217.829 25.128C217.53 25.128 217.301 25.0427 217.141 24.872C216.981 24.7013 216.901 24.4667 216.901 24.168V16.76H217.253L213.893 22.888C213.786 23.0693 213.674 23.2027 213.557 23.288C213.439 23.3733 213.279 23.416 213.077 23.416C212.874 23.416 212.709 23.3733 212.581 23.288C212.453 23.192 212.341 23.0587 212.245 22.888L208.853 16.744H209.237V24.168C209.237 24.4667 209.157 24.7013 208.997 24.872C208.847 25.0427 208.618 25.128 208.309 25.128ZM222.167 25C221.815 25 221.543 24.9093 221.351 24.728C221.17 24.536 221.079 24.264 221.079 23.912V14.808C221.079 14.456 221.17 14.1893 221.351 14.008C221.543 13.816 221.815 13.72 222.167 13.72H227.879C228.146 13.72 228.349 13.7893 228.487 13.928C228.637 14.0667 228.711 14.264 228.711 14.52C228.711 14.7867 228.637 14.9947 228.487 15.144C228.349 15.2827 228.146 15.352 227.879 15.352H223.047V18.456H227.527C227.805 18.456 228.013 18.5253 228.151 18.664C228.29 18.8027 228.359 19.0053 228.359 19.272C228.359 19.5387 228.29 19.7413 228.151 19.88C228.013 20.0187 227.805 20.088 227.527 20.088H223.047V23.368H227.879C228.146 23.368 228.349 23.4373 228.487 23.576C228.637 23.7147 228.711 23.9173 228.711 24.184C228.711 24.4507 228.637 24.6533 228.487 24.792C228.349 24.9307 228.146 25 227.879 25H222.167ZM231.426 25.128C231.117 25.128 230.877 25.0427 230.706 24.872C230.546 24.7013 230.466 24.456 230.466 24.136V14.616C230.466 14.2853 230.546 14.0347 230.706 13.864C230.877 13.6827 231.096 13.592 231.362 13.592C231.608 13.592 231.789 13.64 231.906 13.736C232.034 13.8213 232.184 13.9707 232.354 14.184L238.482 22.136H238.066V14.568C238.066 14.2587 238.146 14.0187 238.306 13.848C238.477 13.6773 238.717 13.592 239.026 13.592C239.336 13.592 239.57 13.6773 239.73 13.848C239.89 14.0187 239.97 14.2587 239.97 14.568V24.168C239.97 24.4667 239.896 24.7013 239.746 24.872C239.597 25.0427 239.394 25.128 239.138 25.128C238.893 25.128 238.696 25.08 238.546 24.984C238.408 24.888 238.253 24.7333 238.082 24.52L231.97 16.568H232.37V24.136C232.37 24.456 232.29 24.7013 232.13 24.872C231.97 25.0427 231.736 25.128 231.426 25.128ZM246.019 25.128C245.688 25.128 245.432 25.0373 245.251 24.856C245.08 24.664 244.995 24.4027 244.995 24.072V15.432H241.875C241.598 15.432 241.379 15.3573 241.219 15.208C241.07 15.048 240.995 14.8347 240.995 14.568C240.995 14.2907 241.07 14.0827 241.219 13.944C241.379 13.7947 241.598 13.72 241.875 13.72H250.163C250.44 13.72 250.654 13.7947 250.803 13.944C250.963 14.0827 251.043 14.2907 251.043 14.568C251.043 14.8347 250.963 15.048 250.803 15.208C250.654 15.3573 250.44 15.432 250.163 15.432H247.043V24.072C247.043 24.4027 246.958 24.664 246.787 24.856C246.616 25.0373 246.36 25.128 246.019 25.128ZM205.439 47.128C205.108 47.128 204.852 47.0373 204.671 46.856C204.5 46.664 204.415 46.4027 204.415 46.072V36.76C204.415 36.4187 204.506 36.1627 204.687 35.992C204.868 35.8107 205.124 35.72 205.455 35.72H209.311C210.548 35.72 211.503 36.0187 212.175 36.616C212.847 37.2027 213.183 38.0293 213.183 39.096C213.183 39.7893 213.028 40.3867 212.719 40.888C212.42 41.3893 211.983 41.7733 211.407 42.04C210.831 42.3067 210.132 42.44 209.311 42.44L209.455 42.2H209.983C210.42 42.2 210.799 42.3067 211.119 42.52C211.45 42.7333 211.738 43.0693 211.983 43.528L213.183 45.752C213.311 45.976 213.37 46.1947 213.359 46.408C213.348 46.6213 213.268 46.7973 213.119 46.936C212.97 47.064 212.751 47.128 212.463 47.128C212.175 47.128 211.94 47.0693 211.759 46.952C211.578 46.824 211.418 46.632 211.279 46.376L209.663 43.4C209.471 43.0373 209.242 42.7973 208.975 42.68C208.719 42.552 208.388 42.488 207.983 42.488H206.463V46.072C206.463 46.4027 206.378 46.664 206.207 46.856C206.036 47.0373 205.78 47.128 205.439 47.128ZM206.463 40.968H208.959C209.695 40.968 210.25 40.8187 210.623 40.52C211.007 40.2107 211.199 39.752 211.199 39.144C211.199 38.5467 211.007 38.0987 210.623 37.8C210.25 37.4907 209.695 37.336 208.959 37.336H206.463V40.968ZM215.133 47.128C214.877 47.128 214.669 47.0693 214.509 46.952C214.359 46.8347 214.269 46.68 214.237 46.488C214.205 46.2853 214.242 46.0613 214.349 45.816L218.573 36.456C218.711 36.1467 218.877 35.928 219.069 35.8C219.271 35.6613 219.501 35.592 219.757 35.592C220.002 35.592 220.221 35.6613 220.413 35.8C220.615 35.928 220.786 36.1467 220.925 36.456L225.165 45.816C225.282 46.0613 225.325 46.2853 225.293 46.488C225.261 46.6907 225.17 46.8507 225.021 46.968C224.871 47.0747 224.674 47.128 224.429 47.128C224.13 47.128 223.895 47.0587 223.725 46.92C223.565 46.7707 223.421 46.5467 223.293 46.248L222.253 43.832L223.117 44.392H216.365L217.229 43.832L216.205 46.248C216.066 46.5573 215.922 46.7813 215.773 46.92C215.623 47.0587 215.41 47.128 215.133 47.128ZM219.725 37.944L217.485 43.272L217.069 42.76H222.413L222.013 43.272L219.757 37.944H219.725ZM229.261 47.128C228.93 47.128 228.674 47.0373 228.493 46.856C228.322 46.664 228.237 46.4027 228.237 46.072V37.432H225.117C224.84 37.432 224.621 37.3573 224.461 37.208C224.312 37.048 224.237 36.8347 224.237 36.568C224.237 36.2907 224.312 36.0827 224.461 35.944C224.621 35.7947 224.84 35.72 225.117 35.72H233.405C233.682 35.72 233.896 35.7947 234.045 35.944C234.205 36.0827 234.285 36.2907 234.285 36.568C234.285 36.8347 234.205 37.048 234.045 37.208C233.896 37.3573 233.682 37.432 233.405 37.432H230.285V46.072C230.285 46.4027 230.2 46.664 230.029 46.856C229.858 47.0373 229.602 47.128 229.261 47.128ZM236.318 47.128C235.988 47.128 235.732 47.0373 235.55 46.856C235.38 46.664 235.294 46.4027 235.294 46.072V36.648C235.294 36.3067 235.38 36.0453 235.55 35.864C235.732 35.6827 235.988 35.592 236.318 35.592C236.649 35.592 236.9 35.6827 237.07 35.864C237.252 36.0453 237.342 36.3067 237.342 36.648V46.072C237.342 46.4027 237.257 46.664 237.086 46.856C236.916 47.0373 236.66 47.128 236.318 47.128ZM244.706 47.16C243.618 47.16 242.663 46.92 241.842 46.44C241.031 45.96 240.402 45.288 239.954 44.424C239.506 43.5493 239.282 42.5253 239.282 41.352C239.282 40.4667 239.41 39.672 239.666 38.968C239.922 38.2533 240.285 37.6453 240.754 37.144C241.234 36.632 241.805 36.2427 242.466 35.976C243.138 35.6987 243.885 35.56 244.706 35.56C245.805 35.56 246.759 35.8 247.57 36.28C248.381 36.7493 249.01 37.416 249.458 38.28C249.906 39.144 250.13 40.1627 250.13 41.336C250.13 42.2213 250.002 43.0213 249.746 43.736C249.49 44.4507 249.122 45.064 248.642 45.576C248.173 46.088 247.602 46.4827 246.93 46.76C246.269 47.0267 245.527 47.16 244.706 47.16ZM244.706 45.4C245.399 45.4 245.986 45.24 246.466 44.92C246.957 44.6 247.33 44.136 247.586 43.528C247.853 42.92 247.986 42.1947 247.986 41.352C247.986 40.072 247.698 39.08 247.122 38.376C246.557 37.672 245.751 37.32 244.706 37.32C244.023 37.32 243.437 37.48 242.946 37.8C242.455 38.1093 242.077 38.568 241.81 39.176C241.554 39.7733 241.426 40.4987 241.426 41.352C241.426 42.6213 241.714 43.6133 242.29 44.328C242.866 45.0427 243.671 45.4 244.706 45.4Z" fill="white"/>
<g clip-path="url(#clip0_1324_721)">
<path fill-rule="evenodd" clip-rule="evenodd" d="M93.0775 58.5727C92.3755 56.5691 91.7432 54.5428 91.2097 52.4848C93.1994 50.3721 100.889 50.6529 103.101 52.4518L101.053 57.1616C102.154 55.7621 102.525 55.1876 103.181 54.4078C103.457 54.5831 103.718 54.7789 103.962 54.9934C104.545 55.5036 105.065 56.0673 105.17 56.853C105.238 57.3626 105.088 57.8803 104.619 58.4095L99.9211 63.703C99.3164 63.6071 98.7255 63.4667 98.1521 63.2695C98.4185 62.6629 98.7398 61.9956 99.0062 61.389L97.2959 63.1761C95.5141 62.8124 94.0812 63.0294 92.746 63.7126L87.9817 58.1809C87.6987 57.851 87.5699 57.521 87.5709 57.1911C87.5755 55.8539 89.6335 54.6999 90.7153 54.2631L93.0775 58.5727ZM92.6765 79.2808L93.2783 77.9694H95.5478C95.4046 77.504 94.8421 77.2422 94.371 77.2422H92.6765L93.2783 75.9307H99.7747L99.1729 77.2422H97.6037C97.812 77.3967 98.0351 77.715 98.0741 77.9694H99.7747L99.1729 79.2808H97.9426C97.5454 80.2589 96.3343 80.9234 95.3013 81.0671L98.7149 84.4669H96.0161L92.9722 81.236V80.0319H94.3196C94.7781 80.0319 95.349 79.7203 95.4944 79.2808H92.6765ZM99.1827 68.5671L98.2529 64.453C102.235 65.1696 108.619 73.0071 110.682 76.5706C111.734 78.3893 112.656 80.3931 113.411 82.6332C114.915 88.0544 113.467 93.1259 107.388 94.3073C103.579 95.0475 96.476 95.0999 92.4703 94.8994C88.1641 94.6838 81.5 94.6905 79.7593 90.4129C76.9497 83.5086 82.0973 75.2835 86.7908 70.2493C87.4084 69.5868 88.047 68.9695 88.7077 68.3997C90.415 66.9464 92.256 65.222 94.4536 64.505L92.3309 68.3288L95.4139 64.3747H97.0384L99.1827 68.5671ZM88.5266 76.1494C90.7901 72.0357 96.0713 70.4762 100.323 72.6659C104.576 74.8556 106.188 79.965 103.924 84.0788C101.661 88.1925 96.3796 89.7521 92.1274 87.5624C87.8752 85.3726 86.2632 80.2633 88.5266 76.1494Z" fill="white"/>
</g>
<g clip-path="url(#clip1_1324_721)">
<path fill-rule="evenodd" clip-rule="evenodd" d="M35.2524 127.666V113.881C35.2552 112.997 35.6068 112.151 36.2305 111.526C36.8541 110.902 37.6992 110.55 38.5812 110.547H51.6321C52.5141 110.55 53.3591 110.902 53.9828 111.526C54.6065 112.151 54.9581 112.997 54.9609 113.881V127.666C54.9581 128.55 54.6065 129.396 53.9828 130.02C53.3591 130.645 52.5141 130.997 51.6321 131H38.5812C37.6992 130.997 36.8541 130.645 36.2305 130.02C35.6068 129.396 35.2552 128.55 35.2524 127.666ZM36.2321 91.1071L43.2366 97.6777H36.2321V91.1071ZM22.3695 111.843C22.1703 111.854 21.9835 111.944 21.8497 112.092C21.7158 112.24 21.6456 112.435 21.6544 112.634C21.6481 112.734 21.6618 112.833 21.6946 112.927C21.7273 113.021 21.7786 113.107 21.8452 113.181C21.9119 113.255 21.9926 113.315 22.0827 113.357C22.1727 113.399 22.2703 113.422 22.3695 113.426H31.1583V111.843H22.3695ZM22.3695 117.511C22.1703 117.523 21.9835 117.612 21.8497 117.76C21.7158 117.908 21.6456 118.103 21.6544 118.303C21.6481 118.402 21.6618 118.502 21.6946 118.595C21.7273 118.689 21.7786 118.776 21.8452 118.85C21.9119 118.923 21.9926 118.983 22.0827 119.025C22.1727 119.067 22.2703 119.09 22.3695 119.094H31.1583V117.511H22.3695ZM22.3695 100.503C22.1703 100.514 21.9835 100.603 21.8497 100.752C21.7158 100.9 21.6456 101.095 21.6544 101.294C21.6486 101.393 21.6626 101.493 21.6956 101.586C21.7285 101.68 21.7798 101.766 21.8464 101.84C21.9129 101.914 21.9935 101.973 22.0833 102.016C22.1731 102.058 22.2704 102.082 22.3695 102.086H30.4968C30.6951 102.074 30.8808 101.985 31.0143 101.837C31.1479 101.69 31.2188 101.497 31.2119 101.298C31.2177 101.198 31.2038 101.099 31.1709 101.005C31.1379 100.911 31.0867 100.825 31.0202 100.751C30.9537 100.677 30.8732 100.617 30.7833 100.574C30.6935 100.532 30.5961 100.508 30.4968 100.503H22.3695ZM22.3695 94.8346C22.1703 94.8458 21.9835 94.9351 21.8497 95.0832C21.7158 95.2314 21.6456 95.4264 21.6544 95.626C21.6481 95.7253 21.6618 95.8248 21.6946 95.9187C21.7273 96.0126 21.7786 96.099 21.8452 96.1728C21.9119 96.2465 21.9926 96.3062 22.0827 96.3482C22.1727 96.3902 22.2703 96.4137 22.3695 96.4173H26.839C27.0382 96.4062 27.225 96.3169 27.3589 96.1687C27.4928 96.0206 27.5629 95.8256 27.5541 95.626C27.5594 95.5269 27.5451 95.4278 27.512 95.3343C27.4788 95.2408 27.4275 95.1548 27.3611 95.0812C27.2946 95.0077 27.2142 94.948 27.1246 94.9057C27.035 94.8634 26.938 94.8392 26.839 94.8346H22.3695ZM22.3695 106.175C22.1703 106.186 21.9835 106.275 21.8497 106.423C21.7158 106.572 21.6456 106.767 21.6544 106.966C21.6491 107.065 21.6635 107.164 21.6966 107.258C21.7297 107.351 21.781 107.437 21.8475 107.511C21.914 107.584 21.9943 107.644 22.0839 107.686C22.1735 107.729 22.2706 107.753 22.3695 107.757H36.1141C36.3129 107.745 36.4992 107.656 36.6329 107.508C36.7666 107.36 36.837 107.166 36.8292 106.966C36.835 106.867 36.821 106.768 36.788 106.674C36.7551 106.58 36.7038 106.494 36.6372 106.42C36.5707 106.347 36.4901 106.287 36.4003 106.245C36.3105 106.203 36.2132 106.179 36.1141 106.175H22.3695ZM47.1412 98.6195C47.1414 98.3652 47.0588 98.1178 46.9059 97.9149C46.7529 97.7119 46.538 97.5645 46.2937 97.4951L35.9639 87.4297C35.8561 87.2952 35.7194 87.1868 35.5641 87.1124C35.4087 87.038 35.2386 86.9996 35.0664 87H17.0598C16.5038 87 15.9705 87.221 15.5769 87.6144C15.1834 88.0078 14.9619 88.5415 14.9609 89.0983V125.045C14.9604 125.321 15.0145 125.595 15.1201 125.85C15.2256 126.105 15.3806 126.336 15.5759 126.531C15.9709 126.923 16.504 127.143 17.0598 127.144H31.1905V124.798H17.3029V89.349H33.8901V98.8451C33.8901 99.1575 34.014 99.4571 34.2346 99.6781C34.4552 99.899 34.7544 100.023 35.0664 100.023H44.792V107.704H47.1412V98.6195ZM45.0852 114.572C47.1876 115.904 49.0863 116.534 50.7132 116.387C50.9992 122.145 48.8717 125.55 45.1066 126.972C41.4739 125.643 39.3214 122.385 39.4823 116.301C41.5008 116.452 43.5018 115.834 45.0852 114.572ZM45.1388 116.004C46.7586 117.028 48.2174 117.515 49.4724 117.4C49.6905 121.84 48.0422 124.462 45.1531 125.554C45.1362 125.544 45.1182 125.537 45.0995 125.532V116.029L45.1388 116.004Z" fill="white"/>
</g>
<path fill-rule="evenodd" clip-rule="evenodd" d="M84.3951 60.5865C83.8535 60.4685 82.2903 60.2231 80.9192 60.049C76.5874 59.4975 74.7478 59.2209 72.1221 58.7468C70.7169 58.4882 69.4622 58.2806 69.3376 58.2742C68.9794 58.2743 68.6732 58.7448 68.7589 59.1524C68.8263 59.4514 68.8636 59.4952 69.2266 59.6682C69.7411 59.9093 72.1482 60.5392 73.7452 60.8633C74.4212 61.0073 75.0177 61.1247 75.0732 61.1355C75.1288 61.1464 74.3505 61.2661 73.3497 61.3858C67.681 62.1113 63.2525 63.2331 58.2585 65.212C53.8428 66.9657 50.5382 68.6099 46.0189 71.3121C42.6556 73.3183 40.1687 75.155 36.1681 78.543C33.8288 80.5262 33.2206 81.1117 33.2134 81.3721C33.2046 81.6529 33.3694 81.7491 33.7077 81.6608C33.9915 81.5788 34.005 81.5635 33.9582 81.3643C33.9194 81.1559 33.9653 81.1039 35.0824 80.1503C36.6018 78.8327 39.7332 76.2955 40.9398 75.3882C42.2356 74.4289 45.974 72.0402 47.9968 70.8777C55.9935 66.3353 63.3261 63.679 71.0812 62.5439C74.0899 62.1035 79.4503 61.6724 80.0803 61.8194C80.309 61.8739 80.3009 61.8831 79.8159 62.0763C78.8179 62.4761 76.5638 63.5871 75.7448 64.0793C74.7973 64.6433 72.9642 65.9784 70.9103 67.5762C69.7852 68.4464 69.5201 68.6918 69.4556 68.9127C69.3015 69.4138 69.8266 69.9691 70.3232 69.8243C70.448 69.7873 71.1411 69.3148 71.8415 68.7726C76.2748 65.3739 77.5887 64.6156 81.8894 62.9185C82.9916 62.4744 83.9266 62.0845 83.9671 62.0385C84.013 61.9864 84.3577 62.0017 84.7343 62.0668C85.5074 62.193 85.8206 62.0716 85.8895 61.5933C85.9591 61.1266 85.5579 60.8492 84.3924 60.5896L84.3951 60.5865Z" fill="white"/>
<path fill-rule="evenodd" clip-rule="evenodd" d="M60.7792 127.044C61.333 127.068 62.9151 127.043 64.2959 126.981C68.6582 126.786 70.518 126.745 73.1861 126.765C74.6148 126.78 75.8866 126.771 76.0105 126.756C76.3634 126.695 76.5849 126.179 76.431 125.792C76.3136 125.509 76.2693 125.472 75.8821 125.363C75.3341 125.213 72.8548 125.003 71.226 124.956C70.5353 124.929 69.9276 124.915 69.871 124.914C69.8144 124.913 70.5609 124.662 71.5266 124.374C76.9887 122.692 81.1611 120.832 85.7447 118.031C89.7968 115.55 92.7727 113.367 96.7652 109.934C99.7373 107.383 101.875 105.15 105.239 101.129C107.206 98.7762 107.706 98.0957 107.668 97.8378C107.629 97.5596 107.45 97.4929 107.132 97.6376C106.866 97.7668 106.856 97.7842 106.936 97.9725C107.01 98.1712 106.973 98.2303 106.035 99.3603C104.762 100.918 102.109 103.952 101.075 105.051C99.9618 106.217 96.6854 109.208 94.8903 110.699C87.785 116.538 81.0126 120.405 73.5645 122.846C70.675 123.793 65.4665 125.131 64.8206 125.094C64.586 125.079 64.5924 125.069 65.0374 124.795C65.9526 124.231 67.9843 122.752 68.7075 122.128C69.5449 121.411 71.1236 119.783 72.8751 117.858C73.8354 116.809 74.0548 116.522 74.0806 116.293C74.1471 115.773 73.535 115.315 73.0704 115.543C72.9537 115.6 72.3512 116.184 71.7535 116.838C67.9645 120.943 66.7991 121.914 62.8506 124.319C61.8403 124.945 60.9854 125.488 60.9534 125.54C60.917 125.6 60.5748 125.643 60.1926 125.643C59.4092 125.651 59.1214 125.824 59.135 126.307C59.146 126.779 59.5886 126.983 60.7813 127.041L60.7792 127.044Z" fill="white"/>
<defs>
<clipPath id="clip0_1324_721">
<rect width="35" height="44" fill="white" transform="translate(78.9609 51)"/>
</clipPath>
<clipPath id="clip1_1324_721">
<rect width="40" height="44" fill="white" transform="translate(14.9609 87)"/>
</clipPath>
</defs>
</svg>
