<svg width="269" height="168" viewBox="0 0 269 168" fill="none" xmlns="http://www.w3.org/2000/svg">
<rect x="0.0195312" width="269" height="168" rx="7" fill="#7743DC"/>
<path d="M138.818 57.07C138.645 57.07 138.508 57.0233 138.408 56.93C138.315 56.8367 138.268 56.7 138.268 56.52V50.51C138.268 50.33 138.315 50.1933 138.408 50.1C138.508 50 138.648 49.95 138.828 49.95H142.388C142.535 49.95 142.641 49.9867 142.708 50.06C142.781 50.1267 142.818 50.2267 142.818 50.36C142.818 50.5 142.781 50.6067 142.708 50.68C142.641 50.7533 142.535 50.79 142.388 50.79H139.308V53.04H142.188C142.321 53.04 142.425 53.0767 142.498 53.15C142.578 53.2167 142.618 53.3167 142.618 53.45C142.618 53.59 142.578 53.6967 142.498 53.77C142.425 53.8433 142.321 53.88 142.188 53.88H139.308V56.52C139.308 56.8867 139.145 57.07 138.818 57.07ZM144.307 57.07C144.141 57.07 144.014 57.0267 143.927 56.94C143.841 56.8467 143.797 56.72 143.797 56.56V52.56C143.797 52.3933 143.841 52.2667 143.927 52.18C144.014 52.0933 144.134 52.05 144.287 52.05C144.447 52.05 144.567 52.0933 144.647 52.18C144.734 52.2667 144.777 52.3933 144.777 52.56V53.29H144.677C144.784 52.89 144.981 52.5867 145.267 52.38C145.554 52.1733 145.921 52.0533 146.367 52.02C146.487 52.0133 146.581 52.0433 146.647 52.11C146.721 52.1767 146.761 52.28 146.767 52.42C146.781 52.56 146.751 52.6733 146.677 52.76C146.604 52.84 146.491 52.8867 146.337 52.9L146.147 52.92C145.714 52.96 145.384 53.0967 145.157 53.33C144.931 53.5633 144.817 53.8833 144.817 54.29V56.56C144.817 56.72 144.774 56.8467 144.687 56.94C144.607 57.0267 144.481 57.07 144.307 57.07ZM149.78 57.09C149.286 57.09 148.86 56.9867 148.5 56.78C148.146 56.5733 147.87 56.28 147.67 55.9C147.47 55.52 147.37 55.0733 147.37 54.56C147.37 54.1667 147.426 53.8167 147.54 53.51C147.653 53.2033 147.813 52.94 148.02 52.72C148.233 52.4933 148.486 52.3233 148.78 52.21C149.08 52.09 149.413 52.03 149.78 52.03C150.266 52.03 150.686 52.1333 151.04 52.34C151.4 52.5467 151.68 52.84 151.88 53.22C152.08 53.5933 152.18 54.04 152.18 54.56C152.18 54.9467 152.123 55.2967 152.01 55.61C151.896 55.9233 151.733 56.19 151.52 56.41C151.313 56.63 151.06 56.8 150.76 56.92C150.466 57.0333 150.14 57.09 149.78 57.09ZM149.78 56.31C150.053 56.31 150.293 56.2433 150.5 56.11C150.706 55.9767 150.866 55.78 150.98 55.52C151.1 55.26 151.16 54.94 151.16 54.56C151.16 53.9867 151.033 53.5533 150.78 53.26C150.526 52.9667 150.193 52.82 149.78 52.82C149.5 52.82 149.256 52.8867 149.05 53.02C148.843 53.1467 148.68 53.34 148.56 53.6C148.446 53.86 148.39 54.18 148.39 54.56C148.39 55.1267 148.516 55.56 148.77 55.86C149.023 56.16 149.36 56.31 149.78 56.31ZM154.034 57.07C153.874 57.07 153.751 57.0267 153.664 56.94C153.577 56.8467 153.534 56.72 153.534 56.56V52.56C153.534 52.3933 153.577 52.2667 153.664 52.18C153.751 52.0933 153.871 52.05 154.024 52.05C154.184 52.05 154.304 52.0933 154.384 52.18C154.471 52.2667 154.514 52.3933 154.514 52.56V53.38L154.404 53.16C154.537 52.8067 154.744 52.53 155.024 52.33C155.304 52.13 155.641 52.03 156.034 52.03C156.441 52.03 156.771 52.1267 157.024 52.32C157.277 52.5133 157.451 52.81 157.544 53.21H157.404C157.531 52.8433 157.747 52.5567 158.054 52.35C158.361 52.1367 158.717 52.03 159.124 52.03C159.497 52.03 159.804 52.1033 160.044 52.25C160.284 52.39 160.464 52.6067 160.584 52.9C160.704 53.1867 160.764 53.55 160.764 53.99V56.56C160.764 56.72 160.717 56.8467 160.624 56.94C160.537 57.0267 160.414 57.07 160.254 57.07C160.094 57.07 159.971 57.0267 159.884 56.94C159.797 56.8467 159.754 56.72 159.754 56.56V54.04C159.754 53.6267 159.681 53.3233 159.534 53.13C159.394 52.9367 159.161 52.84 158.834 52.84C158.467 52.84 158.177 52.9667 157.964 53.22C157.751 53.4733 157.644 53.8233 157.644 54.27V56.56C157.644 56.72 157.601 56.8467 157.514 56.94C157.427 57.0267 157.304 57.07 157.144 57.07C156.984 57.07 156.857 57.0267 156.764 56.94C156.677 56.8467 156.634 56.72 156.634 56.56V54.04C156.634 53.6267 156.564 53.3233 156.424 53.13C156.284 52.9367 156.051 52.84 155.724 52.84C155.357 52.84 155.067 52.9667 154.854 53.22C154.647 53.4733 154.544 53.8233 154.544 54.27V56.56C154.544 56.9 154.374 57.07 154.034 57.07ZM168.483 57.09C167.769 57.09 167.159 56.9433 166.653 56.65C166.146 56.3567 165.756 55.94 165.483 55.4C165.216 54.8533 165.083 54.21 165.083 53.47C165.083 52.9167 165.159 52.42 165.313 51.98C165.466 51.5333 165.686 51.1533 165.973 50.84C166.266 50.52 166.623 50.2767 167.043 50.11C167.469 49.9433 167.949 49.86 168.483 49.86C168.876 49.86 169.253 49.9133 169.613 50.02C169.979 50.1267 170.296 50.28 170.563 50.48C170.676 50.5533 170.749 50.6433 170.783 50.75C170.823 50.85 170.829 50.9467 170.803 51.04C170.783 51.1333 170.739 51.2133 170.673 51.28C170.606 51.34 170.519 51.3733 170.413 51.38C170.313 51.3867 170.203 51.35 170.083 51.27C169.863 51.1033 169.619 50.98 169.353 50.9C169.086 50.82 168.806 50.78 168.513 50.78C168.006 50.78 167.579 50.8867 167.233 51.1C166.886 51.3067 166.623 51.61 166.443 52.01C166.263 52.41 166.173 52.8967 166.173 53.47C166.173 54.0433 166.263 54.5333 166.443 54.94C166.623 55.34 166.886 55.6467 167.233 55.86C167.579 56.0667 168.006 56.17 168.513 56.17C168.806 56.17 169.086 56.13 169.353 56.05C169.626 55.9633 169.883 55.8367 170.123 55.67C170.243 55.5967 170.349 55.5633 170.443 55.57C170.543 55.5767 170.626 55.61 170.693 55.67C170.759 55.73 170.803 55.8067 170.823 55.9C170.849 55.9867 170.846 56.08 170.813 56.18C170.786 56.2733 170.723 56.3533 170.623 56.42C170.349 56.64 170.026 56.8067 169.653 56.92C169.279 57.0333 168.889 57.09 168.483 57.09ZM173.565 57.09C173.225 57.09 172.918 57.0233 172.645 56.89C172.378 56.7567 172.168 56.5767 172.015 56.35C171.861 56.1233 171.785 55.8667 171.785 55.58C171.785 55.22 171.875 54.9367 172.055 54.73C172.241 54.5167 172.545 54.3667 172.965 54.28C173.391 54.1867 173.965 54.14 174.685 54.14H175.155V54.76H174.695C174.215 54.76 173.835 54.7833 173.555 54.83C173.275 54.8767 173.075 54.9567 172.955 55.07C172.841 55.1767 172.785 55.3267 172.785 55.52C172.785 55.7733 172.871 55.98 173.045 56.14C173.218 56.2933 173.458 56.37 173.765 56.37C174.011 56.37 174.228 56.3133 174.415 56.2C174.601 56.08 174.748 55.92 174.855 55.72C174.968 55.52 175.025 55.29 175.025 55.03V53.88C175.025 53.5 174.945 53.2267 174.785 53.06C174.625 52.8933 174.361 52.81 173.995 52.81C173.781 52.81 173.558 52.8367 173.325 52.89C173.098 52.9433 172.861 53.0333 172.615 53.16C172.501 53.2133 172.405 53.23 172.325 53.21C172.245 53.19 172.181 53.1467 172.135 53.08C172.088 53.0067 172.061 52.93 172.055 52.85C172.055 52.7633 172.075 52.68 172.115 52.6C172.161 52.52 172.238 52.46 172.345 52.42C172.638 52.28 172.928 52.18 173.215 52.12C173.501 52.06 173.771 52.03 174.025 52.03C174.471 52.03 174.838 52.1 175.125 52.24C175.418 52.38 175.635 52.5933 175.775 52.88C175.915 53.1667 175.985 53.5367 175.985 53.99V56.56C175.985 56.72 175.945 56.8467 175.865 56.94C175.785 57.0267 175.668 57.07 175.515 57.07C175.368 57.07 175.251 57.0267 175.165 56.94C175.078 56.8467 175.035 56.72 175.035 56.56V55.91H175.125C175.071 56.1567 174.971 56.37 174.825 56.55C174.685 56.7233 174.508 56.8567 174.295 56.95C174.081 57.0433 173.838 57.09 173.565 57.09ZM178.086 57.07C177.919 57.07 177.792 57.0267 177.706 56.94C177.619 56.8467 177.576 56.72 177.576 56.56V52.56C177.576 52.3933 177.619 52.2667 177.706 52.18C177.792 52.0933 177.912 52.05 178.066 52.05C178.226 52.05 178.346 52.0933 178.426 52.18C178.512 52.2667 178.556 52.3933 178.556 52.56V53.29H178.456C178.562 52.89 178.759 52.5867 179.046 52.38C179.332 52.1733 179.699 52.0533 180.146 52.02C180.266 52.0133 180.359 52.0433 180.426 52.11C180.499 52.1767 180.539 52.28 180.546 52.42C180.559 52.56 180.529 52.6733 180.456 52.76C180.382 52.84 180.269 52.8867 180.116 52.9L179.926 52.92C179.492 52.96 179.162 53.0967 178.936 53.33C178.709 53.5633 178.596 53.8833 178.596 54.29V56.56C178.596 56.72 178.552 56.8467 178.466 56.94C178.386 57.0267 178.259 57.07 178.086 57.07ZM183.648 58.89C183.288 58.89 182.938 58.8533 182.598 58.78C182.264 58.7067 181.961 58.5867 181.688 58.42C181.588 58.3667 181.521 58.3 181.488 58.22C181.454 58.1467 181.444 58.07 181.458 57.99C181.478 57.91 181.514 57.84 181.568 57.78C181.621 57.72 181.684 57.68 181.758 57.66C181.838 57.64 181.921 57.6533 182.008 57.7C182.301 57.86 182.578 57.9667 182.838 58.02C183.104 58.08 183.351 58.11 183.578 58.11C184.044 58.11 184.394 57.99 184.628 57.75C184.861 57.5167 184.978 57.17 184.978 56.71V55.69H185.068C184.968 56.0567 184.758 56.3467 184.438 56.56C184.118 56.7733 183.748 56.88 183.328 56.88C182.888 56.88 182.504 56.78 182.178 56.58C181.851 56.3733 181.598 56.09 181.418 55.73C181.238 55.3633 181.148 54.9367 181.148 54.45C181.148 54.0833 181.198 53.7533 181.298 53.46C181.404 53.1667 181.551 52.9133 181.738 52.7C181.931 52.4867 182.161 52.3233 182.428 52.21C182.701 52.09 183.001 52.03 183.328 52.03C183.754 52.03 184.124 52.1367 184.438 52.35C184.758 52.5633 184.964 52.8533 185.058 53.22L184.958 53.39V52.56C184.958 52.3933 185.001 52.2667 185.088 52.18C185.181 52.0933 185.304 52.05 185.458 52.05C185.618 52.05 185.741 52.0933 185.828 52.18C185.914 52.2667 185.958 52.3933 185.958 52.56V56.59C185.958 57.35 185.761 57.9233 185.368 58.31C184.974 58.6967 184.401 58.89 183.648 58.89ZM183.568 56.09C183.861 56.09 184.111 56.0233 184.318 55.89C184.524 55.7567 184.684 55.5667 184.798 55.32C184.911 55.0733 184.968 54.7833 184.968 54.45C184.968 53.95 184.841 53.5533 184.588 53.26C184.341 52.9667 184.001 52.82 183.568 52.82C183.281 52.82 183.034 52.8867 182.828 53.02C182.621 53.1533 182.458 53.3433 182.338 53.59C182.224 53.83 182.168 54.1167 182.168 54.45C182.168 54.9567 182.294 55.3567 182.548 55.65C182.801 55.9433 183.141 56.09 183.568 56.09ZM189.695 57.09C189.202 57.09 188.775 56.9867 188.415 56.78C188.062 56.5733 187.785 56.28 187.585 55.9C187.385 55.52 187.285 55.0733 187.285 54.56C187.285 54.1667 187.342 53.8167 187.455 53.51C187.569 53.2033 187.729 52.94 187.935 52.72C188.149 52.4933 188.402 52.3233 188.695 52.21C188.995 52.09 189.329 52.03 189.695 52.03C190.182 52.03 190.602 52.1333 190.955 52.34C191.315 52.5467 191.595 52.84 191.795 53.22C191.995 53.5933 192.095 54.04 192.095 54.56C192.095 54.9467 192.039 55.2967 191.925 55.61C191.812 55.9233 191.649 56.19 191.435 56.41C191.229 56.63 190.975 56.8 190.675 56.92C190.382 57.0333 190.055 57.09 189.695 57.09ZM189.695 56.31C189.969 56.31 190.209 56.2433 190.415 56.11C190.622 55.9767 190.782 55.78 190.895 55.52C191.015 55.26 191.075 54.94 191.075 54.56C191.075 53.9867 190.949 53.5533 190.695 53.26C190.442 52.9667 190.109 52.82 189.695 52.82C189.415 52.82 189.172 52.8867 188.965 53.02C188.759 53.1467 188.595 53.34 188.475 53.6C188.362 53.86 188.305 54.18 188.305 54.56C188.305 55.1267 188.432 55.56 188.685 55.86C188.939 56.16 189.275 56.31 189.695 56.31ZM198.346 57.09C197.946 57.09 197.61 57.02 197.336 56.88C197.063 56.74 196.86 56.5333 196.726 56.26C196.593 55.9867 196.526 55.6533 196.526 55.26V52.9H195.926C195.793 52.9 195.69 52.8667 195.616 52.8C195.543 52.7267 195.506 52.63 195.506 52.51C195.506 52.3833 195.543 52.2867 195.616 52.22C195.69 52.1533 195.793 52.12 195.926 52.12H196.526V51.09C196.526 50.9233 196.57 50.7967 196.656 50.71C196.75 50.6233 196.876 50.58 197.036 50.58C197.196 50.58 197.32 50.6233 197.406 50.71C197.493 50.7967 197.536 50.9233 197.536 51.09V52.12H198.706C198.84 52.12 198.943 52.1533 199.016 52.22C199.09 52.2867 199.126 52.3833 199.126 52.51C199.126 52.63 199.09 52.7267 199.016 52.8C198.943 52.8667 198.84 52.9 198.706 52.9H197.536V55.18C197.536 55.5333 197.61 55.8 197.756 55.98C197.91 56.16 198.156 56.25 198.496 56.25C198.616 56.25 198.72 56.24 198.806 56.22C198.9 56.1933 198.976 56.1767 199.036 56.17C199.11 56.17 199.17 56.1967 199.216 56.25C199.263 56.2967 199.286 56.39 199.286 56.53C199.286 56.63 199.266 56.7233 199.226 56.81C199.193 56.8967 199.13 56.9533 199.036 56.98C198.956 57.0067 198.846 57.03 198.706 57.05C198.573 57.0767 198.453 57.09 198.346 57.09ZM202.19 57.09C201.696 57.09 201.27 56.9867 200.91 56.78C200.556 56.5733 200.28 56.28 200.08 55.9C199.88 55.52 199.78 55.0733 199.78 54.56C199.78 54.1667 199.836 53.8167 199.95 53.51C200.063 53.2033 200.223 52.94 200.43 52.72C200.643 52.4933 200.896 52.3233 201.19 52.21C201.49 52.09 201.823 52.03 202.19 52.03C202.676 52.03 203.096 52.1333 203.45 52.34C203.81 52.5467 204.09 52.84 204.29 53.22C204.49 53.5933 204.59 54.04 204.59 54.56C204.59 54.9467 204.533 55.2967 204.42 55.61C204.306 55.9233 204.143 56.19 203.93 56.41C203.723 56.63 203.47 56.8 203.17 56.92C202.876 57.0333 202.55 57.09 202.19 57.09ZM202.19 56.31C202.463 56.31 202.703 56.2433 202.91 56.11C203.116 55.9767 203.276 55.78 203.39 55.52C203.51 55.26 203.57 54.94 203.57 54.56C203.57 53.9867 203.443 53.5533 203.19 53.26C202.936 52.9667 202.603 52.82 202.19 52.82C201.91 52.82 201.666 52.8867 201.46 53.02C201.253 53.1467 201.09 53.34 200.97 53.6C200.856 53.86 200.8 54.18 200.8 54.56C200.8 55.1267 200.926 55.56 201.18 55.86C201.433 56.16 201.77 56.31 202.19 56.31ZM209.401 57C209.234 57 209.104 56.9533 209.011 56.86C208.917 56.7667 208.871 56.6367 208.871 56.47V50.44C208.871 50.2667 208.914 50.1367 209.001 50.05C209.094 49.9567 209.224 49.91 209.391 49.91C209.557 49.91 209.684 49.9567 209.771 50.05C209.864 50.1367 209.911 50.2667 209.911 50.44V56.11H213.011C213.157 56.11 213.271 56.15 213.351 56.23C213.431 56.3033 213.471 56.41 213.471 56.55C213.471 56.69 213.431 56.8 213.351 56.88C213.271 56.96 213.157 57 213.011 57H209.401ZM214.978 57.06C214.818 57.06 214.695 57.0133 214.608 56.92C214.522 56.82 214.478 56.6833 214.478 56.51V52.61C214.478 52.4367 214.522 52.3033 214.608 52.21C214.695 52.1167 214.818 52.07 214.978 52.07C215.138 52.07 215.262 52.1167 215.348 52.21C215.442 52.3033 215.488 52.4367 215.488 52.61V56.51C215.488 56.6833 215.445 56.82 215.358 56.92C215.272 57.0133 215.145 57.06 214.978 57.06ZM214.978 51.03C214.778 51.03 214.622 50.98 214.508 50.88C214.402 50.78 214.348 50.64 214.348 50.46C214.348 50.2733 214.402 50.1333 214.508 50.04C214.622 49.94 214.778 49.89 214.978 49.89C215.178 49.89 215.332 49.94 215.438 50.04C215.552 50.1333 215.608 50.2733 215.608 50.46C215.608 50.64 215.552 50.78 215.438 50.88C215.332 50.98 215.178 51.03 214.978 51.03ZM218.67 57.09C218.33 57.09 218.023 57.0233 217.75 56.89C217.483 56.7567 217.273 56.5767 217.12 56.35C216.967 56.1233 216.89 55.8667 216.89 55.58C216.89 55.22 216.98 54.9367 217.16 54.73C217.347 54.5167 217.65 54.3667 218.07 54.28C218.497 54.1867 219.07 54.14 219.79 54.14H220.26V54.76H219.8C219.32 54.76 218.94 54.7833 218.66 54.83C218.38 54.8767 218.18 54.9567 218.06 55.07C217.947 55.1767 217.89 55.3267 217.89 55.52C217.89 55.7733 217.977 55.98 218.15 56.14C218.323 56.2933 218.563 56.37 218.87 56.37C219.117 56.37 219.333 56.3133 219.52 56.2C219.707 56.08 219.853 55.92 219.96 55.72C220.073 55.52 220.13 55.29 220.13 55.03V53.88C220.13 53.5 220.05 53.2267 219.89 53.06C219.73 52.8933 219.467 52.81 219.1 52.81C218.887 52.81 218.663 52.8367 218.43 52.89C218.203 52.9433 217.967 53.0333 217.72 53.16C217.607 53.2133 217.51 53.23 217.43 53.21C217.35 53.19 217.287 53.1467 217.24 53.08C217.193 53.0067 217.167 52.93 217.16 52.85C217.16 52.7633 217.18 52.68 217.22 52.6C217.267 52.52 217.343 52.46 217.45 52.42C217.743 52.28 218.033 52.18 218.32 52.12C218.607 52.06 218.877 52.03 219.13 52.03C219.577 52.03 219.943 52.1 220.23 52.24C220.523 52.38 220.74 52.5933 220.88 52.88C221.02 53.1667 221.09 53.5367 221.09 53.99V56.56C221.09 56.72 221.05 56.8467 220.97 56.94C220.89 57.0267 220.773 57.07 220.62 57.07C220.473 57.07 220.357 57.0267 220.27 56.94C220.183 56.8467 220.14 56.72 220.14 56.56V55.91H220.23C220.177 56.1567 220.077 56.37 219.93 56.55C219.79 56.7233 219.613 56.8567 219.4 56.95C219.187 57.0433 218.943 57.09 218.67 57.09ZM225.301 57.09C224.874 57.09 224.504 56.9833 224.191 56.77C223.878 56.55 223.668 56.26 223.561 55.9L223.671 55.72V56.56C223.671 56.72 223.628 56.8467 223.541 56.94C223.454 57.0267 223.334 57.07 223.181 57.07C223.021 57.07 222.898 57.0267 222.811 56.94C222.724 56.8467 222.681 56.72 222.681 56.56V50.39C222.681 50.2233 222.724 50.0967 222.811 50.01C222.898 49.9233 223.021 49.88 223.181 49.88C223.341 49.88 223.464 49.9233 223.551 50.01C223.644 50.0967 223.691 50.2233 223.691 50.39V53.19H223.571C223.678 52.8367 223.888 52.5567 224.201 52.35C224.514 52.1367 224.881 52.03 225.301 52.03C225.741 52.03 226.121 52.1333 226.441 52.34C226.761 52.5467 227.008 52.8367 227.181 53.21C227.361 53.5833 227.451 54.0333 227.451 54.56C227.451 55.0733 227.361 55.5233 227.181 55.91C227.008 56.29 226.758 56.5833 226.431 56.79C226.111 56.99 225.734 57.09 225.301 57.09ZM225.051 56.31C225.331 56.31 225.574 56.2433 225.781 56.11C225.988 55.9767 226.148 55.78 226.261 55.52C226.374 55.26 226.431 54.94 226.431 54.56C226.431 53.9867 226.304 53.5533 226.051 53.26C225.804 52.9667 225.471 52.82 225.051 52.82C224.778 52.82 224.534 52.8867 224.321 53.02C224.114 53.1467 223.954 53.34 223.841 53.6C223.728 53.86 223.671 54.18 223.671 54.56C223.671 55.1267 223.798 55.56 224.051 55.86C224.304 56.16 224.638 56.31 225.051 56.31ZM229.289 57.06C229.129 57.06 229.006 57.0133 228.919 56.92C228.833 56.82 228.789 56.6833 228.789 56.51V52.61C228.789 52.4367 228.833 52.3033 228.919 52.21C229.006 52.1167 229.129 52.07 229.289 52.07C229.449 52.07 229.573 52.1167 229.659 52.21C229.753 52.3033 229.799 52.4367 229.799 52.61V56.51C229.799 56.6833 229.756 56.82 229.669 56.92C229.583 57.0133 229.456 57.06 229.289 57.06ZM229.289 51.03C229.089 51.03 228.933 50.98 228.819 50.88C228.713 50.78 228.659 50.64 228.659 50.46C228.659 50.2733 228.713 50.1333 228.819 50.04C228.933 49.94 229.089 49.89 229.289 49.89C229.489 49.89 229.643 49.94 229.749 50.04C229.863 50.1333 229.919 50.2733 229.919 50.46C229.919 50.64 229.863 50.78 229.749 50.88C229.643 50.98 229.489 51.03 229.289 51.03ZM232.991 57.09C232.471 57.09 232.078 56.94 231.811 56.64C231.551 56.3333 231.421 55.8933 231.421 55.32V50.39C231.421 50.2233 231.464 50.0967 231.551 50.01C231.638 49.9233 231.761 49.88 231.921 49.88C232.081 49.88 232.204 49.9233 232.291 50.01C232.384 50.0967 232.431 50.2233 232.431 50.39V55.26C232.431 55.5933 232.498 55.8433 232.631 56.01C232.771 56.17 232.971 56.25 233.231 56.25C233.291 56.25 233.344 56.25 233.391 56.25C233.438 56.2433 233.484 56.2367 233.531 56.23C233.611 56.2233 233.668 56.2467 233.701 56.3C233.734 56.3467 233.751 56.4467 233.751 56.6C233.751 56.74 233.721 56.85 233.661 56.93C233.601 57.0033 233.504 57.05 233.371 57.07C233.311 57.0767 233.248 57.08 233.181 57.08C233.114 57.0867 233.051 57.09 232.991 57.09ZM235.178 57.06C235.018 57.06 234.894 57.0133 234.808 56.92C234.721 56.82 234.678 56.6833 234.678 56.51V52.61C234.678 52.4367 234.721 52.3033 234.808 52.21C234.894 52.1167 235.018 52.07 235.178 52.07C235.338 52.07 235.461 52.1167 235.548 52.21C235.641 52.3033 235.688 52.4367 235.688 52.61V56.51C235.688 56.6833 235.644 56.82 235.558 56.92C235.471 57.0133 235.344 57.06 235.178 57.06ZM235.178 51.03C234.978 51.03 234.821 50.98 234.708 50.88C234.601 50.78 234.548 50.64 234.548 50.46C234.548 50.2733 234.601 50.1333 234.708 50.04C234.821 49.94 234.978 49.89 235.178 49.89C235.378 49.89 235.531 49.94 235.638 50.04C235.751 50.1333 235.808 50.2733 235.808 50.46C235.808 50.64 235.751 50.78 235.638 50.88C235.531 50.98 235.378 51.03 235.178 51.03ZM239.389 57.09C238.989 57.09 238.653 57.02 238.379 56.88C238.106 56.74 237.903 56.5333 237.769 56.26C237.636 55.9867 237.569 55.6533 237.569 55.26V52.9H236.969C236.836 52.9 236.733 52.8667 236.659 52.8C236.586 52.7267 236.549 52.63 236.549 52.51C236.549 52.3833 236.586 52.2867 236.659 52.22C236.733 52.1533 236.836 52.12 236.969 52.12H237.569V51.09C237.569 50.9233 237.613 50.7967 237.699 50.71C237.793 50.6233 237.919 50.58 238.079 50.58C238.239 50.58 238.363 50.6233 238.449 50.71C238.536 50.7967 238.579 50.9233 238.579 51.09V52.12H239.749C239.883 52.12 239.986 52.1533 240.059 52.22C240.133 52.2867 240.169 52.3833 240.169 52.51C240.169 52.63 240.133 52.7267 240.059 52.8C239.986 52.8667 239.883 52.9 239.749 52.9H238.579V55.18C238.579 55.5333 238.653 55.8 238.799 55.98C238.953 56.16 239.199 56.25 239.539 56.25C239.659 56.25 239.763 56.24 239.849 56.22C239.943 56.1933 240.019 56.1767 240.079 56.17C240.153 56.17 240.213 56.1967 240.259 56.25C240.306 56.2967 240.329 56.39 240.329 56.53C240.329 56.63 240.309 56.7233 240.269 56.81C240.236 56.8967 240.173 56.9533 240.079 56.98C239.999 57.0067 239.889 57.03 239.749 57.05C239.616 57.0767 239.496 57.09 239.389 57.09ZM242.38 58.87C242.26 58.87 242.16 58.8367 242.08 58.77C242.007 58.71 241.963 58.6267 241.95 58.52C241.943 58.42 241.963 58.31 242.01 58.19L242.69 56.66V57.09L240.82 52.74C240.773 52.62 240.757 52.5067 240.77 52.4C240.783 52.2933 240.833 52.21 240.92 52.15C241.007 52.0833 241.123 52.05 241.27 52.05C241.397 52.05 241.497 52.08 241.57 52.14C241.643 52.2 241.71 52.3033 241.77 52.45L243.28 56.18H243L244.53 52.45C244.59 52.2967 244.66 52.1933 244.74 52.14C244.82 52.08 244.93 52.05 245.07 52.05C245.19 52.05 245.283 52.0833 245.35 52.15C245.423 52.21 245.467 52.2933 245.48 52.4C245.5 52.5 245.483 52.61 245.43 52.73L242.93 58.48C242.863 58.6333 242.787 58.7367 242.7 58.79C242.62 58.8433 242.513 58.87 242.38 58.87ZM246.737 58.01C246.664 58.1033 246.584 58.1567 246.497 58.17C246.417 58.1833 246.347 58.1667 246.287 58.12C246.227 58.0733 246.194 58.0067 246.187 57.92C246.18 57.84 246.217 57.75 246.297 57.65C246.417 57.5033 246.497 57.35 246.537 57.19C246.584 57.0367 246.607 56.9 246.607 56.78L246.647 57.04C246.447 57.04 246.284 56.9833 246.157 56.87C246.037 56.75 245.977 56.5933 245.977 56.4C245.977 56.2133 246.034 56.0633 246.147 55.95C246.26 55.83 246.414 55.77 246.607 55.77C246.807 55.77 246.964 55.84 247.077 55.98C247.197 56.1133 247.257 56.3067 247.257 56.56C247.257 56.7067 247.24 56.86 247.207 57.02C247.18 57.18 247.13 57.3433 247.057 57.51C246.984 57.6767 246.877 57.8433 246.737 58.01ZM157.074 71.07C156.907 71.07 156.777 71.0233 156.684 70.93C156.597 70.8367 156.554 70.7067 156.554 70.54V64.82H154.434C154.294 64.82 154.184 64.7833 154.104 64.71C154.024 64.63 153.984 64.52 153.984 64.38C153.984 64.24 154.024 64.1333 154.104 64.06C154.184 63.9867 154.294 63.95 154.434 63.95H159.704C159.851 63.95 159.964 63.9867 160.044 64.06C160.124 64.1333 160.164 64.24 160.164 64.38C160.164 64.52 160.124 64.63 160.044 64.71C159.964 64.7833 159.851 64.82 159.704 64.82H157.584V70.54C157.584 70.7067 157.541 70.8367 157.454 70.93C157.374 71.0233 157.247 71.07 157.074 71.07ZM161.928 71.07C161.768 71.07 161.645 71.0267 161.558 70.94C161.471 70.8467 161.428 70.72 161.428 70.56V64.39C161.428 64.2233 161.471 64.0967 161.558 64.01C161.645 63.9233 161.768 63.88 161.928 63.88C162.088 63.88 162.211 63.9233 162.298 64.01C162.391 64.0967 162.438 64.2233 162.438 64.39V67.16H162.298C162.445 66.7867 162.675 66.5067 162.988 66.32C163.301 66.1267 163.661 66.03 164.068 66.03C164.455 66.03 164.775 66.1033 165.028 66.25C165.288 66.39 165.481 66.6067 165.608 66.9C165.735 67.1867 165.798 67.55 165.798 67.99V70.56C165.798 70.72 165.755 70.8467 165.668 70.94C165.581 71.0267 165.458 71.07 165.298 71.07C165.131 71.07 165.005 71.0267 164.918 70.94C164.831 70.8467 164.788 70.72 164.788 70.56V68.05C164.788 67.63 164.705 67.3233 164.538 67.13C164.378 66.9367 164.125 66.84 163.778 66.84C163.371 66.84 163.045 66.9667 162.798 67.22C162.558 67.4733 162.438 67.8133 162.438 68.24V70.56C162.438 70.9 162.268 71.07 161.928 71.07ZM169.68 71.09C169.146 71.09 168.686 70.99 168.3 70.79C167.92 70.5833 167.623 70.2933 167.41 69.92C167.203 69.54 167.1 69.09 167.1 68.57C167.1 68.0633 167.203 67.62 167.41 67.24C167.616 66.86 167.9 66.5633 168.26 66.35C168.62 66.1367 169.03 66.03 169.49 66.03C169.83 66.03 170.133 66.0867 170.4 66.2C170.666 66.3067 170.893 66.4667 171.08 66.68C171.273 66.8867 171.416 67.14 171.51 67.44C171.61 67.74 171.66 68.0767 171.66 68.45C171.66 68.5633 171.626 68.65 171.56 68.71C171.493 68.7633 171.393 68.79 171.26 68.79H167.9V68.17H170.98L170.81 68.31C170.81 67.9767 170.76 67.6933 170.66 67.46C170.566 67.2267 170.423 67.05 170.23 66.93C170.043 66.8033 169.81 66.74 169.53 66.74C169.216 66.74 168.95 66.8133 168.73 66.96C168.516 67.1067 168.353 67.31 168.24 67.57C168.126 67.83 168.07 68.1333 168.07 68.48V68.54C168.07 69.1267 168.206 69.57 168.48 69.87C168.76 70.1633 169.163 70.31 169.69 70.31C169.89 70.31 170.1 70.2833 170.32 70.23C170.546 70.1767 170.76 70.0867 170.96 69.96C171.073 69.8933 171.173 69.8633 171.26 69.87C171.353 69.8767 171.426 69.9067 171.48 69.96C171.54 70.0133 171.576 70.08 171.59 70.16C171.603 70.24 171.59 70.3233 171.55 70.41C171.51 70.49 171.44 70.5633 171.34 70.63C171.113 70.7833 170.85 70.9 170.55 70.98C170.25 71.0533 169.96 71.09 169.68 71.09ZM179.067 71.09C178.354 71.09 177.744 70.9433 177.237 70.65C176.731 70.3567 176.341 69.94 176.067 69.4C175.801 68.8533 175.667 68.21 175.667 67.47C175.667 66.9167 175.744 66.42 175.897 65.98C176.051 65.5333 176.271 65.1533 176.557 64.84C176.851 64.52 177.207 64.2767 177.627 64.11C178.054 63.9433 178.534 63.86 179.067 63.86C179.461 63.86 179.837 63.9133 180.197 64.02C180.564 64.1267 180.881 64.28 181.147 64.48C181.261 64.5533 181.334 64.6433 181.367 64.75C181.407 64.85 181.414 64.9467 181.387 65.04C181.367 65.1333 181.324 65.2133 181.257 65.28C181.191 65.34 181.104 65.3733 180.997 65.38C180.897 65.3867 180.787 65.35 180.667 65.27C180.447 65.1033 180.204 64.98 179.937 64.9C179.671 64.82 179.391 64.78 179.097 64.78C178.591 64.78 178.164 64.8867 177.817 65.1C177.471 65.3067 177.207 65.61 177.027 66.01C176.847 66.41 176.757 66.8967 176.757 67.47C176.757 68.0433 176.847 68.5333 177.027 68.94C177.207 69.34 177.471 69.6467 177.817 69.86C178.164 70.0667 178.591 70.17 179.097 70.17C179.391 70.17 179.671 70.13 179.937 70.05C180.211 69.9633 180.467 69.8367 180.707 69.67C180.827 69.5967 180.934 69.5633 181.027 69.57C181.127 69.5767 181.211 69.61 181.277 69.67C181.344 69.73 181.387 69.8067 181.407 69.9C181.434 69.9867 181.431 70.08 181.397 70.18C181.371 70.2733 181.307 70.3533 181.207 70.42C180.934 70.64 180.611 70.8067 180.237 70.92C179.864 71.0333 179.474 71.09 179.067 71.09ZM184.524 71.09C184.03 71.09 183.604 70.9867 183.244 70.78C182.89 70.5733 182.614 70.28 182.414 69.9C182.214 69.52 182.114 69.0733 182.114 68.56C182.114 68.1667 182.17 67.8167 182.284 67.51C182.397 67.2033 182.557 66.94 182.764 66.72C182.977 66.4933 183.23 66.3233 183.524 66.21C183.824 66.09 184.157 66.03 184.524 66.03C185.01 66.03 185.43 66.1333 185.784 66.34C186.144 66.5467 186.424 66.84 186.624 67.22C186.824 67.5933 186.924 68.04 186.924 68.56C186.924 68.9467 186.867 69.2967 186.754 69.61C186.64 69.9233 186.477 70.19 186.264 70.41C186.057 70.63 185.804 70.8 185.504 70.92C185.21 71.0333 184.884 71.09 184.524 71.09ZM184.524 70.31C184.797 70.31 185.037 70.2433 185.244 70.11C185.45 69.9767 185.61 69.78 185.724 69.52C185.844 69.26 185.904 68.94 185.904 68.56C185.904 67.9867 185.777 67.5533 185.524 67.26C185.27 66.9667 184.937 66.82 184.524 66.82C184.244 66.82 184 66.8867 183.794 67.02C183.587 67.1467 183.424 67.34 183.304 67.6C183.19 67.86 183.134 68.18 183.134 68.56C183.134 69.1267 183.26 69.56 183.514 69.86C183.767 70.16 184.104 70.31 184.524 70.31ZM188.778 71.07C188.618 71.07 188.495 71.0267 188.408 70.94C188.321 70.8467 188.278 70.72 188.278 70.56V66.56C188.278 66.3933 188.321 66.2667 188.408 66.18C188.495 66.0933 188.615 66.05 188.768 66.05C188.928 66.05 189.048 66.0933 189.128 66.18C189.215 66.2667 189.258 66.3933 189.258 66.56V67.38L189.148 67.16C189.281 66.8067 189.488 66.53 189.768 66.33C190.048 66.13 190.385 66.03 190.778 66.03C191.185 66.03 191.515 66.1267 191.768 66.32C192.021 66.5133 192.195 66.81 192.288 67.21H192.148C192.275 66.8433 192.491 66.5567 192.798 66.35C193.105 66.1367 193.461 66.03 193.868 66.03C194.241 66.03 194.548 66.1033 194.788 66.25C195.028 66.39 195.208 66.6067 195.328 66.9C195.448 67.1867 195.508 67.55 195.508 67.99V70.56C195.508 70.72 195.461 70.8467 195.368 70.94C195.281 71.0267 195.158 71.07 194.998 71.07C194.838 71.07 194.715 71.0267 194.628 70.94C194.541 70.8467 194.498 70.72 194.498 70.56V68.04C194.498 67.6267 194.425 67.3233 194.278 67.13C194.138 66.9367 193.905 66.84 193.578 66.84C193.211 66.84 192.921 66.9667 192.708 67.22C192.495 67.4733 192.388 67.8233 192.388 68.27V70.56C192.388 70.72 192.345 70.8467 192.258 70.94C192.171 71.0267 192.048 71.07 191.888 71.07C191.728 71.07 191.601 71.0267 191.508 70.94C191.421 70.8467 191.378 70.72 191.378 70.56V68.04C191.378 67.6267 191.308 67.3233 191.168 67.13C191.028 66.9367 190.795 66.84 190.468 66.84C190.101 66.84 189.811 66.9667 189.598 67.22C189.391 67.4733 189.288 67.8233 189.288 68.27V70.56C189.288 70.9 189.118 71.07 188.778 71.07ZM197.62 72.87C197.46 72.87 197.337 72.8267 197.25 72.74C197.163 72.6533 197.12 72.5267 197.12 72.36V66.56C197.12 66.3933 197.163 66.2667 197.25 66.18C197.337 66.0933 197.457 66.05 197.61 66.05C197.77 66.05 197.893 66.0933 197.98 66.18C198.067 66.2667 198.11 66.3933 198.11 66.56V67.43L198 67.22C198.107 66.86 198.317 66.5733 198.63 66.36C198.943 66.14 199.313 66.03 199.74 66.03C200.173 66.03 200.55 66.1333 200.87 66.34C201.197 66.5467 201.447 66.8367 201.62 67.21C201.8 67.5833 201.89 68.0333 201.89 68.56C201.89 69.0733 201.8 69.5233 201.62 69.91C201.447 70.29 201.2 70.5833 200.88 70.79C200.56 70.99 200.18 71.09 199.74 71.09C199.32 71.09 198.953 70.9833 198.64 70.77C198.327 70.5567 198.117 70.2733 198.01 69.92H198.13V72.36C198.13 72.5267 198.083 72.6533 197.99 72.74C197.903 72.8267 197.78 72.87 197.62 72.87ZM199.49 70.31C199.77 70.31 200.013 70.2433 200.22 70.11C200.427 69.9767 200.587 69.78 200.7 69.52C200.813 69.26 200.87 68.94 200.87 68.56C200.87 67.9867 200.743 67.5533 200.49 67.26C200.243 66.9667 199.91 66.82 199.49 66.82C199.217 66.82 198.973 66.8867 198.76 67.02C198.553 67.1467 198.393 67.34 198.28 67.6C198.167 67.86 198.11 68.18 198.11 68.56C198.11 69.1267 198.237 69.56 198.49 69.86C198.743 70.16 199.077 70.31 199.49 70.31ZM203.738 71.07C203.572 71.07 203.445 71.0267 203.358 70.94C203.272 70.8467 203.228 70.72 203.228 70.56V66.56C203.228 66.3933 203.272 66.2667 203.358 66.18C203.445 66.0933 203.565 66.05 203.718 66.05C203.878 66.05 203.998 66.0933 204.078 66.18C204.165 66.2667 204.208 66.3933 204.208 66.56V67.29H204.108C204.215 66.89 204.412 66.5867 204.698 66.38C204.985 66.1733 205.352 66.0533 205.798 66.02C205.918 66.0133 206.012 66.0433 206.078 66.11C206.152 66.1767 206.192 66.28 206.198 66.42C206.212 66.56 206.182 66.6733 206.108 66.76C206.035 66.84 205.922 66.8867 205.768 66.9L205.578 66.92C205.145 66.96 204.815 67.0967 204.588 67.33C204.362 67.5633 204.248 67.8833 204.248 68.29V70.56C204.248 70.72 204.205 70.8467 204.118 70.94C204.038 71.0267 203.912 71.07 203.738 71.07ZM209.38 71.09C208.847 71.09 208.387 70.99 208 70.79C207.62 70.5833 207.324 70.2933 207.11 69.92C206.904 69.54 206.8 69.09 206.8 68.57C206.8 68.0633 206.904 67.62 207.11 67.24C207.317 66.86 207.6 66.5633 207.96 66.35C208.32 66.1367 208.73 66.03 209.19 66.03C209.53 66.03 209.834 66.0867 210.1 66.2C210.367 66.3067 210.594 66.4667 210.78 66.68C210.974 66.8867 211.117 67.14 211.21 67.44C211.31 67.74 211.36 68.0767 211.36 68.45C211.36 68.5633 211.327 68.65 211.26 68.71C211.194 68.7633 211.094 68.79 210.96 68.79H207.6V68.17H210.68L210.51 68.31C210.51 67.9767 210.46 67.6933 210.36 67.46C210.267 67.2267 210.124 67.05 209.93 66.93C209.744 66.8033 209.51 66.74 209.23 66.74C208.917 66.74 208.65 66.8133 208.43 66.96C208.217 67.1067 208.054 67.31 207.94 67.57C207.827 67.83 207.77 68.1333 207.77 68.48V68.54C207.77 69.1267 207.907 69.57 208.18 69.87C208.46 70.1633 208.864 70.31 209.39 70.31C209.59 70.31 209.8 70.2833 210.02 70.23C210.247 70.1767 210.46 70.0867 210.66 69.96C210.774 69.8933 210.874 69.8633 210.96 69.87C211.054 69.8767 211.127 69.9067 211.18 69.96C211.24 70.0133 211.277 70.08 211.29 70.16C211.304 70.24 211.29 70.3233 211.25 70.41C211.21 70.49 211.14 70.5633 211.04 70.63C210.814 70.7833 210.55 70.9 210.25 70.98C209.95 71.0533 209.66 71.09 209.38 71.09ZM213.162 71.07C213.002 71.07 212.878 71.0267 212.792 70.94C212.705 70.8467 212.662 70.72 212.662 70.56V64.39C212.662 64.2233 212.705 64.0967 212.792 64.01C212.878 63.9233 213.002 63.88 213.162 63.88C213.322 63.88 213.445 63.9233 213.532 64.01C213.625 64.0967 213.672 64.2233 213.672 64.39V67.16H213.532C213.678 66.7867 213.908 66.5067 214.222 66.32C214.535 66.1267 214.895 66.03 215.302 66.03C215.688 66.03 216.008 66.1033 216.262 66.25C216.522 66.39 216.715 66.6067 216.842 66.9C216.968 67.1867 217.032 67.55 217.032 67.99V70.56C217.032 70.72 216.988 70.8467 216.902 70.94C216.815 71.0267 216.692 71.07 216.532 71.07C216.365 71.07 216.238 71.0267 216.152 70.94C216.065 70.8467 216.022 70.72 216.022 70.56V68.05C216.022 67.63 215.938 67.3233 215.772 67.13C215.612 66.9367 215.358 66.84 215.012 66.84C214.605 66.84 214.278 66.9667 214.032 67.22C213.792 67.4733 213.672 67.8133 213.672 68.24V70.56C213.672 70.9 213.502 71.07 213.162 71.07ZM220.913 71.09C220.38 71.09 219.92 70.99 219.533 70.79C219.153 70.5833 218.857 70.2933 218.643 69.92C218.437 69.54 218.333 69.09 218.333 68.57C218.333 68.0633 218.437 67.62 218.643 67.24C218.85 66.86 219.133 66.5633 219.493 66.35C219.853 66.1367 220.263 66.03 220.723 66.03C221.063 66.03 221.367 66.0867 221.633 66.2C221.9 66.3067 222.127 66.4667 222.313 66.68C222.507 66.8867 222.65 67.14 222.743 67.44C222.843 67.74 222.893 68.0767 222.893 68.45C222.893 68.5633 222.86 68.65 222.793 68.71C222.727 68.7633 222.627 68.79 222.493 68.79H219.133V68.17H222.213L222.043 68.31C222.043 67.9767 221.993 67.6933 221.893 67.46C221.8 67.2267 221.657 67.05 221.463 66.93C221.277 66.8033 221.043 66.74 220.763 66.74C220.45 66.74 220.183 66.8133 219.963 66.96C219.75 67.1067 219.587 67.31 219.473 67.57C219.36 67.83 219.303 68.1333 219.303 68.48V68.54C219.303 69.1267 219.44 69.57 219.713 69.87C219.993 70.1633 220.397 70.31 220.923 70.31C221.123 70.31 221.333 70.2833 221.553 70.23C221.78 70.1767 221.993 70.0867 222.193 69.96C222.307 69.8933 222.407 69.8633 222.493 69.87C222.587 69.8767 222.66 69.9067 222.713 69.96C222.773 70.0133 222.81 70.08 222.823 70.16C222.837 70.24 222.823 70.3233 222.783 70.41C222.743 70.49 222.673 70.5633 222.573 70.63C222.347 70.7833 222.083 70.9 221.783 70.98C221.483 71.0533 221.193 71.09 220.913 71.09ZM224.694 71.07C224.534 71.07 224.411 71.0267 224.324 70.94C224.238 70.8467 224.194 70.72 224.194 70.56V66.56C224.194 66.3933 224.238 66.2667 224.324 66.18C224.411 66.0933 224.531 66.05 224.684 66.05C224.844 66.05 224.964 66.0933 225.044 66.18C225.131 66.2667 225.174 66.3933 225.174 66.56V67.34L225.064 67.16C225.211 66.7867 225.441 66.5067 225.754 66.32C226.068 66.1267 226.428 66.03 226.834 66.03C227.221 66.03 227.541 66.1033 227.794 66.25C228.054 66.39 228.248 66.6067 228.374 66.9C228.501 67.1867 228.564 67.55 228.564 67.99V70.56C228.564 70.72 228.521 70.8467 228.434 70.94C228.348 71.0267 228.224 71.07 228.064 71.07C227.898 71.07 227.771 71.0267 227.684 70.94C227.598 70.8467 227.554 70.72 227.554 70.56V68.05C227.554 67.63 227.471 67.3233 227.304 67.13C227.144 66.9367 226.891 66.84 226.544 66.84C226.138 66.84 225.811 66.9667 225.564 67.22C225.324 67.4733 225.204 67.8133 225.204 68.24V70.56C225.204 70.9 225.034 71.07 224.694 71.07ZM231.866 71.09C231.573 71.09 231.269 71.0567 230.956 70.99C230.649 70.9233 230.366 70.81 230.106 70.65C230.019 70.59 229.959 70.5233 229.926 70.45C229.893 70.3767 229.879 70.3033 229.886 70.23C229.899 70.15 229.929 70.0833 229.976 70.03C230.029 69.97 230.093 69.9333 230.166 69.92C230.246 69.9067 230.329 69.9233 230.416 69.97C230.676 70.1167 230.926 70.22 231.166 70.28C231.406 70.3333 231.643 70.36 231.876 70.36C232.229 70.36 232.496 70.2967 232.676 70.17C232.856 70.0433 232.946 69.8733 232.946 69.66C232.946 69.4867 232.886 69.3533 232.766 69.26C232.646 69.16 232.466 69.0833 232.226 69.03L231.276 68.84C230.863 68.7533 230.549 68.6 230.336 68.38C230.123 68.16 230.016 67.88 230.016 67.54C230.016 67.2333 230.099 66.9667 230.266 66.74C230.433 66.5133 230.666 66.34 230.966 66.22C231.266 66.0933 231.613 66.03 232.006 66.03C232.299 66.03 232.576 66.0667 232.836 66.14C233.096 66.2133 233.336 66.3233 233.556 66.47C233.643 66.5167 233.699 66.58 233.726 66.66C233.753 66.7333 233.756 66.8067 233.736 66.88C233.723 66.9533 233.689 67.02 233.636 67.08C233.583 67.1333 233.516 67.1667 233.436 67.18C233.363 67.1867 233.279 67.1667 233.186 67.12C232.986 66.9933 232.786 66.9033 232.586 66.85C232.393 66.7967 232.199 66.77 232.006 66.77C231.653 66.77 231.386 66.8367 231.206 66.97C231.033 67.0967 230.946 67.27 230.946 67.49C230.946 67.6567 230.999 67.7933 231.106 67.9C231.213 68.0067 231.379 68.0833 231.606 68.13L232.556 68.32C232.989 68.4067 233.316 68.5533 233.536 68.76C233.763 68.9667 233.876 69.2467 233.876 69.6C233.876 70.06 233.693 70.4233 233.326 70.69C232.959 70.9567 232.473 71.09 231.866 71.09ZM235.7 71.06C235.54 71.06 235.417 71.0133 235.33 70.92C235.243 70.82 235.2 70.6833 235.2 70.51V66.61C235.2 66.4367 235.243 66.3033 235.33 66.21C235.417 66.1167 235.54 66.07 235.7 66.07C235.86 66.07 235.983 66.1167 236.07 66.21C236.163 66.3033 236.21 66.4367 236.21 66.61V70.51C236.21 70.6833 236.167 70.82 236.08 70.92C235.993 71.0133 235.867 71.06 235.7 71.06ZM235.7 65.03C235.5 65.03 235.343 64.98 235.23 64.88C235.123 64.78 235.07 64.64 235.07 64.46C235.07 64.2733 235.123 64.1333 235.23 64.04C235.343 63.94 235.5 63.89 235.7 63.89C235.9 63.89 236.053 63.94 236.16 64.04C236.273 64.1333 236.33 64.2733 236.33 64.46C236.33 64.64 236.273 64.78 236.16 64.88C236.053 64.98 235.9 65.03 235.7 65.03ZM239.721 71.07C239.581 71.07 239.458 71.0333 239.351 70.96C239.251 70.8867 239.168 70.7733 239.101 70.62L237.431 66.74C237.378 66.62 237.358 66.5067 237.371 66.4C237.385 66.2933 237.435 66.21 237.521 66.15C237.608 66.0833 237.725 66.05 237.871 66.05C237.998 66.05 238.098 66.08 238.171 66.14C238.245 66.2 238.311 66.3033 238.371 66.45L239.881 70.17H239.601L241.141 66.45C241.201 66.3033 241.268 66.2 241.341 66.14C241.421 66.08 241.531 66.05 241.671 66.05C241.791 66.05 241.885 66.0833 241.951 66.15C242.025 66.21 242.068 66.2933 242.081 66.4C242.101 66.5 242.085 66.61 242.031 66.73L240.341 70.62C240.281 70.7733 240.198 70.8867 240.091 70.96C239.985 71.0333 239.861 71.07 239.721 71.07ZM245.429 71.09C244.896 71.09 244.436 70.99 244.049 70.79C243.669 70.5833 243.372 70.2933 243.159 69.92C242.952 69.54 242.849 69.09 242.849 68.57C242.849 68.0633 242.952 67.62 243.159 67.24C243.366 66.86 243.649 66.5633 244.009 66.35C244.369 66.1367 244.779 66.03 245.239 66.03C245.579 66.03 245.882 66.0867 246.149 66.2C246.416 66.3067 246.642 66.4667 246.829 66.68C247.022 66.8867 247.166 67.14 247.259 67.44C247.359 67.74 247.409 68.0767 247.409 68.45C247.409 68.5633 247.376 68.65 247.309 68.71C247.242 68.7633 247.142 68.79 247.009 68.79H243.649V68.17H246.729L246.559 68.31C246.559 67.9767 246.509 67.6933 246.409 67.46C246.316 67.2267 246.172 67.05 245.979 66.93C245.792 66.8033 245.559 66.74 245.279 66.74C244.966 66.74 244.699 66.8133 244.479 66.96C244.266 67.1067 244.102 67.31 243.989 67.57C243.876 67.83 243.819 68.1333 243.819 68.48V68.54C243.819 69.1267 243.956 69.57 244.229 69.87C244.509 70.1633 244.912 70.31 245.439 70.31C245.639 70.31 245.849 70.2833 246.069 70.23C246.296 70.1767 246.509 70.0867 246.709 69.96C246.822 69.8933 246.922 69.8633 247.009 69.87C247.102 69.8767 247.176 69.9067 247.229 69.96C247.289 70.0133 247.326 70.08 247.339 70.16C247.352 70.24 247.339 70.3233 247.299 70.41C247.259 70.49 247.189 70.5633 247.089 70.63C246.862 70.7833 246.599 70.9 246.299 70.98C245.999 71.0533 245.709 71.09 245.429 71.09ZM157.067 85.09C156.353 85.09 155.743 84.9433 155.237 84.65C154.73 84.3567 154.34 83.94 154.067 83.4C153.8 82.8533 153.667 82.21 153.667 81.47C153.667 80.9167 153.743 80.42 153.897 79.98C154.05 79.5333 154.27 79.1533 154.557 78.84C154.85 78.52 155.207 78.2767 155.627 78.11C156.053 77.9433 156.533 77.86 157.067 77.86C157.46 77.86 157.837 77.9133 158.197 78.02C158.563 78.1267 158.88 78.28 159.147 78.48C159.26 78.5533 159.333 78.6433 159.367 78.75C159.407 78.85 159.413 78.9467 159.387 79.04C159.367 79.1333 159.323 79.2133 159.257 79.28C159.19 79.34 159.103 79.3733 158.997 79.38C158.897 79.3867 158.787 79.35 158.667 79.27C158.447 79.1033 158.203 78.98 157.937 78.9C157.67 78.82 157.39 78.78 157.097 78.78C156.59 78.78 156.163 78.8867 155.817 79.1C155.47 79.3067 155.207 79.61 155.027 80.01C154.847 80.41 154.757 80.8967 154.757 81.47C154.757 82.0433 154.847 82.5333 155.027 82.94C155.207 83.34 155.47 83.6467 155.817 83.86C156.163 84.0667 156.59 84.17 157.097 84.17C157.39 84.17 157.67 84.13 157.937 84.05C158.21 83.9633 158.467 83.8367 158.707 83.67C158.827 83.5967 158.933 83.5633 159.027 83.57C159.127 83.5767 159.21 83.61 159.277 83.67C159.343 83.73 159.387 83.8067 159.407 83.9C159.433 83.9867 159.43 84.08 159.397 84.18C159.37 84.2733 159.307 84.3533 159.207 84.42C158.933 84.64 158.61 84.8067 158.237 84.92C157.863 85.0333 157.473 85.09 157.067 85.09ZM162.523 85.09C162.03 85.09 161.603 84.9867 161.243 84.78C160.89 84.5733 160.613 84.28 160.413 83.9C160.213 83.52 160.113 83.0733 160.113 82.56C160.113 82.1667 160.17 81.8167 160.283 81.51C160.396 81.2033 160.556 80.94 160.763 80.72C160.976 80.4933 161.23 80.3233 161.523 80.21C161.823 80.09 162.156 80.03 162.523 80.03C163.01 80.03 163.43 80.1333 163.783 80.34C164.143 80.5467 164.423 80.84 164.623 81.22C164.823 81.5933 164.923 82.04 164.923 82.56C164.923 82.9467 164.866 83.2967 164.753 83.61C164.64 83.9233 164.476 84.19 164.263 84.41C164.056 84.63 163.803 84.8 163.503 84.92C163.21 85.0333 162.883 85.09 162.523 85.09ZM162.523 84.31C162.796 84.31 163.036 84.2433 163.243 84.11C163.45 83.9767 163.61 83.78 163.723 83.52C163.843 83.26 163.903 82.94 163.903 82.56C163.903 81.9867 163.776 81.5533 163.523 81.26C163.27 80.9667 162.936 80.82 162.523 80.82C162.243 80.82 162 80.8867 161.793 81.02C161.586 81.1467 161.423 81.34 161.303 81.6C161.19 81.86 161.133 82.18 161.133 82.56C161.133 83.1267 161.26 83.56 161.513 83.86C161.766 84.16 162.103 84.31 162.523 84.31ZM168.059 85.07C167.919 85.07 167.796 85.0333 167.689 84.96C167.589 84.8867 167.506 84.7733 167.439 84.62L165.769 80.74C165.716 80.62 165.696 80.5067 165.709 80.4C165.723 80.2933 165.773 80.21 165.859 80.15C165.946 80.0833 166.063 80.05 166.209 80.05C166.336 80.05 166.436 80.08 166.509 80.14C166.583 80.2 166.649 80.3033 166.709 80.45L168.219 84.17H167.939L169.479 80.45C169.539 80.3033 169.606 80.2 169.679 80.14C169.759 80.08 169.869 80.05 170.009 80.05C170.129 80.05 170.223 80.0833 170.289 80.15C170.363 80.21 170.406 80.2933 170.419 80.4C170.439 80.5 170.423 80.61 170.369 80.73L168.679 84.62C168.619 84.7733 168.536 84.8867 168.429 84.96C168.323 85.0333 168.199 85.07 168.059 85.07ZM173.767 85.09C173.233 85.09 172.773 84.99 172.387 84.79C172.007 84.5833 171.71 84.2933 171.497 83.92C171.29 83.54 171.187 83.09 171.187 82.57C171.187 82.0633 171.29 81.62 171.497 81.24C171.703 80.86 171.987 80.5633 172.347 80.35C172.707 80.1367 173.117 80.03 173.577 80.03C173.917 80.03 174.22 80.0867 174.487 80.2C174.753 80.3067 174.98 80.4667 175.167 80.68C175.36 80.8867 175.503 81.14 175.597 81.44C175.697 81.74 175.747 82.0767 175.747 82.45C175.747 82.5633 175.713 82.65 175.647 82.71C175.58 82.7633 175.48 82.79 175.347 82.79H171.987V82.17H175.067L174.897 82.31C174.897 81.9767 174.847 81.6933 174.747 81.46C174.653 81.2267 174.51 81.05 174.317 80.93C174.13 80.8033 173.897 80.74 173.617 80.74C173.303 80.74 173.037 80.8133 172.817 80.96C172.603 81.1067 172.44 81.31 172.327 81.57C172.213 81.83 172.157 82.1333 172.157 82.48V82.54C172.157 83.1267 172.293 83.57 172.567 83.87C172.847 84.1633 173.25 84.31 173.777 84.31C173.977 84.31 174.187 84.2833 174.407 84.23C174.633 84.1767 174.847 84.0867 175.047 83.96C175.16 83.8933 175.26 83.8633 175.347 83.87C175.44 83.8767 175.513 83.9067 175.567 83.96C175.627 84.0133 175.663 84.08 175.677 84.16C175.69 84.24 175.677 84.3233 175.637 84.41C175.597 84.49 175.527 84.5633 175.427 84.63C175.2 84.7833 174.937 84.9 174.637 84.98C174.337 85.0533 174.047 85.09 173.767 85.09ZM177.558 85.07C177.391 85.07 177.265 85.0267 177.178 84.94C177.091 84.8467 177.048 84.72 177.048 84.56V80.56C177.048 80.3933 177.091 80.2667 177.178 80.18C177.265 80.0933 177.385 80.05 177.538 80.05C177.698 80.05 177.818 80.0933 177.898 80.18C177.985 80.2667 178.028 80.3933 178.028 80.56V81.29H177.928C178.035 80.89 178.231 80.5867 178.518 80.38C178.805 80.1733 179.171 80.0533 179.618 80.02C179.738 80.0133 179.831 80.0433 179.898 80.11C179.971 80.1767 180.011 80.28 180.018 80.42C180.031 80.56 180.001 80.6733 179.928 80.76C179.855 80.84 179.741 80.8867 179.588 80.9L179.398 80.92C178.965 80.96 178.635 81.0967 178.408 81.33C178.181 81.5633 178.068 81.8833 178.068 82.29V84.56C178.068 84.72 178.025 84.8467 177.938 84.94C177.858 85.0267 177.731 85.07 177.558 85.07ZM182.49 85.09C182.15 85.09 181.843 85.0233 181.57 84.89C181.303 84.7567 181.093 84.5767 180.94 84.35C180.786 84.1233 180.71 83.8667 180.71 83.58C180.71 83.22 180.8 82.9367 180.98 82.73C181.166 82.5167 181.47 82.3667 181.89 82.28C182.316 82.1867 182.89 82.14 183.61 82.14H184.08V82.76H183.62C183.14 82.76 182.76 82.7833 182.48 82.83C182.2 82.8767 182 82.9567 181.88 83.07C181.766 83.1767 181.71 83.3267 181.71 83.52C181.71 83.7733 181.796 83.98 181.97 84.14C182.143 84.2933 182.383 84.37 182.69 84.37C182.936 84.37 183.153 84.3133 183.34 84.2C183.526 84.08 183.673 83.92 183.78 83.72C183.893 83.52 183.95 83.29 183.95 83.03V81.88C183.95 81.5 183.87 81.2267 183.71 81.06C183.55 80.8933 183.286 80.81 182.92 80.81C182.706 80.81 182.483 80.8367 182.25 80.89C182.023 80.9433 181.786 81.0333 181.54 81.16C181.426 81.2133 181.33 81.23 181.25 81.21C181.17 81.19 181.106 81.1467 181.06 81.08C181.013 81.0067 180.986 80.93 180.98 80.85C180.98 80.7633 181 80.68 181.04 80.6C181.086 80.52 181.163 80.46 181.27 80.42C181.563 80.28 181.853 80.18 182.14 80.12C182.426 80.06 182.696 80.03 182.95 80.03C183.396 80.03 183.763 80.1 184.05 80.24C184.343 80.38 184.56 80.5933 184.7 80.88C184.84 81.1667 184.91 81.5367 184.91 81.99V84.56C184.91 84.72 184.87 84.8467 184.79 84.94C184.71 85.0267 184.593 85.07 184.44 85.07C184.293 85.07 184.176 85.0267 184.09 84.94C184.003 84.8467 183.96 84.72 183.96 84.56V83.91H184.05C183.996 84.1567 183.896 84.37 183.75 84.55C183.61 84.7233 183.433 84.8567 183.22 84.95C183.006 85.0433 182.763 85.09 182.49 85.09ZM188.711 86.89C188.351 86.89 188.001 86.8533 187.661 86.78C187.327 86.7067 187.024 86.5867 186.751 86.42C186.651 86.3667 186.584 86.3 186.551 86.22C186.517 86.1467 186.507 86.07 186.521 85.99C186.541 85.91 186.577 85.84 186.631 85.78C186.684 85.72 186.747 85.68 186.821 85.66C186.901 85.64 186.984 85.6533 187.071 85.7C187.364 85.86 187.641 85.9667 187.901 86.02C188.167 86.08 188.414 86.11 188.641 86.11C189.107 86.11 189.457 85.99 189.691 85.75C189.924 85.5167 190.041 85.17 190.041 84.71V83.69H190.131C190.031 84.0567 189.821 84.3467 189.501 84.56C189.181 84.7733 188.811 84.88 188.391 84.88C187.951 84.88 187.567 84.78 187.241 84.58C186.914 84.3733 186.661 84.09 186.481 83.73C186.301 83.3633 186.211 82.9367 186.211 82.45C186.211 82.0833 186.261 81.7533 186.361 81.46C186.467 81.1667 186.614 80.9133 186.801 80.7C186.994 80.4867 187.224 80.3233 187.491 80.21C187.764 80.09 188.064 80.03 188.391 80.03C188.817 80.03 189.187 80.1367 189.501 80.35C189.821 80.5633 190.027 80.8533 190.121 81.22L190.021 81.39V80.56C190.021 80.3933 190.064 80.2667 190.151 80.18C190.244 80.0933 190.367 80.05 190.521 80.05C190.681 80.05 190.804 80.0933 190.891 80.18C190.977 80.2667 191.021 80.3933 191.021 80.56V84.59C191.021 85.35 190.824 85.9233 190.431 86.31C190.037 86.6967 189.464 86.89 188.711 86.89ZM188.631 84.09C188.924 84.09 189.174 84.0233 189.381 83.89C189.587 83.7567 189.747 83.5667 189.861 83.32C189.974 83.0733 190.031 82.7833 190.031 82.45C190.031 81.95 189.904 81.5533 189.651 81.26C189.404 80.9667 189.064 80.82 188.631 80.82C188.344 80.82 188.097 80.8867 187.891 81.02C187.684 81.1533 187.521 81.3433 187.401 81.59C187.287 81.83 187.231 82.1167 187.231 82.45C187.231 82.9567 187.357 83.3567 187.611 83.65C187.864 83.9433 188.204 84.09 188.631 84.09ZM194.928 85.09C194.395 85.09 193.935 84.99 193.548 84.79C193.168 84.5833 192.871 84.2933 192.658 83.92C192.451 83.54 192.348 83.09 192.348 82.57C192.348 82.0633 192.451 81.62 192.658 81.24C192.865 80.86 193.148 80.5633 193.508 80.35C193.868 80.1367 194.278 80.03 194.738 80.03C195.078 80.03 195.381 80.0867 195.648 80.2C195.915 80.3067 196.141 80.4667 196.328 80.68C196.521 80.8867 196.665 81.14 196.758 81.44C196.858 81.74 196.908 82.0767 196.908 82.45C196.908 82.5633 196.875 82.65 196.808 82.71C196.741 82.7633 196.641 82.79 196.508 82.79H193.148V82.17H196.228L196.058 82.31C196.058 81.9767 196.008 81.6933 195.908 81.46C195.815 81.2267 195.671 81.05 195.478 80.93C195.291 80.8033 195.058 80.74 194.778 80.74C194.465 80.74 194.198 80.8133 193.978 80.96C193.765 81.1067 193.601 81.31 193.488 81.57C193.375 81.83 193.318 82.1333 193.318 82.48V82.54C193.318 83.1267 193.455 83.57 193.728 83.87C194.008 84.1633 194.411 84.31 194.938 84.31C195.138 84.31 195.348 84.2833 195.568 84.23C195.795 84.1767 196.008 84.0867 196.208 83.96C196.321 83.8933 196.421 83.8633 196.508 83.87C196.601 83.8767 196.675 83.9067 196.728 83.96C196.788 84.0133 196.825 84.08 196.838 84.16C196.851 84.24 196.838 84.3233 196.798 84.41C196.758 84.49 196.688 84.5633 196.588 84.63C196.361 84.7833 196.098 84.9 195.798 84.98C195.498 85.0533 195.208 85.09 194.928 85.09ZM201.846 85.07C201.686 85.07 201.559 85.0267 201.466 84.94C201.379 84.8467 201.336 84.72 201.336 84.56V80.9H200.776C200.649 80.9 200.549 80.8667 200.476 80.8C200.403 80.7267 200.366 80.63 200.366 80.51C200.366 80.3833 200.403 80.2867 200.476 80.22C200.549 80.1533 200.649 80.12 200.776 80.12H201.626L201.336 80.39V80.03C201.336 79.37 201.499 78.8733 201.826 78.54C202.153 78.2 202.629 78 203.256 77.94L203.566 77.92C203.679 77.9067 203.769 77.9233 203.836 77.97C203.903 78.0167 203.946 78.0767 203.966 78.15C203.986 78.2233 203.986 78.3 203.966 78.38C203.953 78.4533 203.919 78.52 203.866 78.58C203.813 78.64 203.746 78.6733 203.666 78.68L203.476 78.69C203.083 78.7233 202.796 78.8367 202.616 79.03C202.436 79.2167 202.346 79.5033 202.346 79.89V80.28L202.206 80.12H203.316C203.456 80.12 203.559 80.1533 203.626 80.22C203.699 80.2867 203.736 80.3833 203.736 80.51C203.736 80.63 203.699 80.7267 203.626 80.8C203.559 80.8667 203.456 80.9 203.316 80.9H202.346V84.56C202.346 84.9 202.179 85.07 201.846 85.07ZM206.696 85.09C206.203 85.09 205.776 84.9867 205.416 84.78C205.063 84.5733 204.786 84.28 204.586 83.9C204.386 83.52 204.286 83.0733 204.286 82.56C204.286 82.1667 204.343 81.8167 204.456 81.51C204.569 81.2033 204.729 80.94 204.936 80.72C205.149 80.4933 205.403 80.3233 205.696 80.21C205.996 80.09 206.329 80.03 206.696 80.03C207.183 80.03 207.603 80.1333 207.956 80.34C208.316 80.5467 208.596 80.84 208.796 81.22C208.996 81.5933 209.096 82.04 209.096 82.56C209.096 82.9467 209.039 83.2967 208.926 83.61C208.813 83.9233 208.649 84.19 208.436 84.41C208.229 84.63 207.976 84.8 207.676 84.92C207.383 85.0333 207.056 85.09 206.696 85.09ZM206.696 84.31C206.969 84.31 207.209 84.2433 207.416 84.11C207.623 83.9767 207.783 83.78 207.896 83.52C208.016 83.26 208.076 82.94 208.076 82.56C208.076 81.9867 207.949 81.5533 207.696 81.26C207.443 80.9667 207.109 80.82 206.696 80.82C206.416 80.82 206.173 80.8867 205.966 81.02C205.759 81.1467 205.596 81.34 205.476 81.6C205.363 81.86 205.306 82.18 205.306 82.56C205.306 83.1267 205.433 83.56 205.686 83.86C205.939 84.16 206.276 84.31 206.696 84.31ZM210.94 85.07C210.774 85.07 210.647 85.0267 210.56 84.94C210.474 84.8467 210.43 84.72 210.43 84.56V80.56C210.43 80.3933 210.474 80.2667 210.56 80.18C210.647 80.0933 210.767 80.05 210.92 80.05C211.08 80.05 211.2 80.0933 211.28 80.18C211.367 80.2667 211.41 80.3933 211.41 80.56V81.29H211.31C211.417 80.89 211.614 80.5867 211.9 80.38C212.187 80.1733 212.554 80.0533 213 80.02C213.12 80.0133 213.214 80.0433 213.28 80.11C213.354 80.1767 213.394 80.28 213.4 80.42C213.414 80.56 213.384 80.6733 213.31 80.76C213.237 80.84 213.124 80.8867 212.97 80.9L212.78 80.92C212.347 80.96 212.017 81.0967 211.79 81.33C211.564 81.5633 211.45 81.8833 211.45 82.29V84.56C211.45 84.72 211.407 84.8467 211.32 84.94C211.24 85.0267 211.114 85.07 210.94 85.07ZM220.607 85.09C219.841 85.09 219.194 84.9467 218.667 84.66C218.141 84.3667 217.741 83.95 217.467 83.41C217.201 82.87 217.067 82.2267 217.067 81.48C217.067 80.92 217.144 80.42 217.297 79.98C217.457 79.5333 217.684 79.1533 217.977 78.84C218.277 78.52 218.641 78.2767 219.067 78.11C219.501 77.9433 219.991 77.86 220.537 77.86C220.937 77.86 221.331 77.9133 221.717 78.02C222.104 78.12 222.457 78.2867 222.777 78.52C222.871 78.5867 222.931 78.6633 222.957 78.75C222.984 78.8367 222.984 78.9267 222.957 79.02C222.937 79.1067 222.894 79.1833 222.827 79.25C222.767 79.3167 222.691 79.3567 222.597 79.37C222.511 79.3833 222.414 79.3567 222.307 79.29C222.047 79.11 221.774 78.98 221.487 78.9C221.201 78.8133 220.884 78.77 220.537 78.77C220.017 78.77 219.577 78.8767 219.217 79.09C218.864 79.3033 218.597 79.6133 218.417 80.02C218.237 80.42 218.147 80.9067 218.147 81.48C218.147 82.3667 218.357 83.04 218.777 83.5C219.197 83.96 219.821 84.19 220.647 84.19C220.947 84.19 221.241 84.1633 221.527 84.11C221.821 84.05 222.101 83.9667 222.367 83.86L222.157 84.38V82.05H220.867C220.734 82.05 220.627 82.0167 220.547 81.95C220.474 81.8767 220.437 81.7767 220.437 81.65C220.437 81.5233 220.474 81.43 220.547 81.37C220.627 81.3033 220.734 81.27 220.867 81.27H222.597C222.737 81.27 222.844 81.3067 222.917 81.38C222.991 81.4533 223.027 81.56 223.027 81.7V84.22C223.027 84.34 223.004 84.4433 222.957 84.53C222.917 84.61 222.847 84.67 222.747 84.71C222.461 84.8233 222.124 84.9167 221.737 84.99C221.351 85.0567 220.974 85.09 220.607 85.09ZM226.282 85.09C225.762 85.09 225.369 84.94 225.102 84.64C224.842 84.3333 224.712 83.8933 224.712 83.32V78.39C224.712 78.2233 224.755 78.0967 224.842 78.01C224.929 77.9233 225.052 77.88 225.212 77.88C225.372 77.88 225.495 77.9233 225.582 78.01C225.675 78.0967 225.722 78.2233 225.722 78.39V83.26C225.722 83.5933 225.789 83.8433 225.922 84.01C226.062 84.17 226.262 84.25 226.522 84.25C226.582 84.25 226.635 84.25 226.682 84.25C226.729 84.2433 226.775 84.2367 226.822 84.23C226.902 84.2233 226.959 84.2467 226.992 84.3C227.025 84.3467 227.042 84.4467 227.042 84.6C227.042 84.74 227.012 84.85 226.952 84.93C226.892 85.0033 226.795 85.05 226.662 85.07C226.602 85.0767 226.539 85.08 226.472 85.08C226.405 85.0867 226.342 85.09 226.282 85.09ZM230.04 85.09C229.546 85.09 229.12 84.9867 228.76 84.78C228.406 84.5733 228.13 84.28 227.93 83.9C227.73 83.52 227.63 83.0733 227.63 82.56C227.63 82.1667 227.686 81.8167 227.8 81.51C227.913 81.2033 228.073 80.94 228.28 80.72C228.493 80.4933 228.746 80.3233 229.04 80.21C229.34 80.09 229.673 80.03 230.04 80.03C230.526 80.03 230.946 80.1333 231.3 80.34C231.66 80.5467 231.94 80.84 232.14 81.22C232.34 81.5933 232.44 82.04 232.44 82.56C232.44 82.9467 232.383 83.2967 232.27 83.61C232.156 83.9233 231.993 84.19 231.78 84.41C231.573 84.63 231.32 84.8 231.02 84.92C230.726 85.0333 230.4 85.09 230.04 85.09ZM230.04 84.31C230.313 84.31 230.553 84.2433 230.76 84.11C230.966 83.9767 231.126 83.78 231.24 83.52C231.36 83.26 231.42 82.94 231.42 82.56C231.42 81.9867 231.293 81.5533 231.04 81.26C230.786 80.9667 230.453 80.82 230.04 80.82C229.76 80.82 229.516 80.8867 229.31 81.02C229.103 81.1467 228.94 81.34 228.82 81.6C228.706 81.86 228.65 82.18 228.65 82.56C228.65 83.1267 228.776 83.56 229.03 83.86C229.283 84.16 229.62 84.31 230.04 84.31ZM236.394 85.09C235.967 85.09 235.597 84.9833 235.284 84.77C234.971 84.55 234.761 84.26 234.654 83.9L234.764 83.72V84.56C234.764 84.72 234.721 84.8467 234.634 84.94C234.547 85.0267 234.427 85.07 234.274 85.07C234.114 85.07 233.991 85.0267 233.904 84.94C233.817 84.8467 233.774 84.72 233.774 84.56V78.39C233.774 78.2233 233.817 78.0967 233.904 78.01C233.991 77.9233 234.114 77.88 234.274 77.88C234.434 77.88 234.557 77.9233 234.644 78.01C234.737 78.0967 234.784 78.2233 234.784 78.39V81.19H234.664C234.771 80.8367 234.981 80.5567 235.294 80.35C235.607 80.1367 235.974 80.03 236.394 80.03C236.834 80.03 237.214 80.1333 237.534 80.34C237.854 80.5467 238.101 80.8367 238.274 81.21C238.454 81.5833 238.544 82.0333 238.544 82.56C238.544 83.0733 238.454 83.5233 238.274 83.91C238.101 84.29 237.851 84.5833 237.524 84.79C237.204 84.99 236.827 85.09 236.394 85.09ZM236.144 84.31C236.424 84.31 236.667 84.2433 236.874 84.11C237.081 83.9767 237.241 83.78 237.354 83.52C237.467 83.26 237.524 82.94 237.524 82.56C237.524 81.9867 237.397 81.5533 237.144 81.26C236.897 80.9667 236.564 80.82 236.144 80.82C235.871 80.82 235.627 80.8867 235.414 81.02C235.207 81.1467 235.047 81.34 234.934 81.6C234.821 81.86 234.764 82.18 234.764 82.56C234.764 83.1267 234.891 83.56 235.144 83.86C235.397 84.16 235.731 84.31 236.144 84.31ZM241.442 85.09C241.102 85.09 240.796 85.0233 240.522 84.89C240.256 84.7567 240.046 84.5767 239.892 84.35C239.739 84.1233 239.662 83.8667 239.662 83.58C239.662 83.22 239.752 82.9367 239.932 82.73C240.119 82.5167 240.422 82.3667 240.842 82.28C241.269 82.1867 241.842 82.14 242.562 82.14H243.032V82.76H242.572C242.092 82.76 241.712 82.7833 241.432 82.83C241.152 82.8767 240.952 82.9567 240.832 83.07C240.719 83.1767 240.662 83.3267 240.662 83.52C240.662 83.7733 240.749 83.98 240.922 84.14C241.096 84.2933 241.336 84.37 241.642 84.37C241.889 84.37 242.106 84.3133 242.292 84.2C242.479 84.08 242.626 83.92 242.732 83.72C242.846 83.52 242.902 83.29 242.902 83.03V81.88C242.902 81.5 242.822 81.2267 242.662 81.06C242.502 80.8933 242.239 80.81 241.872 80.81C241.659 80.81 241.436 80.8367 241.202 80.89C240.976 80.9433 240.739 81.0333 240.492 81.16C240.379 81.2133 240.282 81.23 240.202 81.21C240.122 81.19 240.059 81.1467 240.012 81.08C239.966 81.0067 239.939 80.93 239.932 80.85C239.932 80.7633 239.952 80.68 239.992 80.6C240.039 80.52 240.116 80.46 240.222 80.42C240.516 80.28 240.806 80.18 241.092 80.12C241.379 80.06 241.649 80.03 241.902 80.03C242.349 80.03 242.716 80.1 243.002 80.24C243.296 80.38 243.512 80.5933 243.652 80.88C243.792 81.1667 243.862 81.5367 243.862 81.99V84.56C243.862 84.72 243.822 84.8467 243.742 84.94C243.662 85.0267 243.546 85.07 243.392 85.07C243.246 85.07 243.129 85.0267 243.042 84.94C242.956 84.8467 242.912 84.72 242.912 84.56V83.91H243.002C242.949 84.1567 242.849 84.37 242.702 84.55C242.562 84.7233 242.386 84.8567 242.172 84.95C241.959 85.0433 241.716 85.09 241.442 85.09ZM247.023 85.09C246.503 85.09 246.11 84.94 245.843 84.64C245.583 84.3333 245.453 83.8933 245.453 83.32V78.39C245.453 78.2233 245.497 78.0967 245.583 78.01C245.67 77.9233 245.793 77.88 245.953 77.88C246.113 77.88 246.237 77.9233 246.323 78.01C246.417 78.0967 246.463 78.2233 246.463 78.39V83.26C246.463 83.5933 246.53 83.8433 246.663 84.01C246.803 84.17 247.003 84.25 247.263 84.25C247.323 84.25 247.377 84.25 247.423 84.25C247.47 84.2433 247.517 84.2367 247.563 84.23C247.643 84.2233 247.7 84.2467 247.733 84.3C247.767 84.3467 247.783 84.4467 247.783 84.6C247.783 84.74 247.753 84.85 247.693 84.93C247.633 85.0033 247.537 85.05 247.403 85.07C247.343 85.0767 247.28 85.08 247.213 85.08C247.147 85.0867 247.083 85.09 247.023 85.09ZM218.776 99.07C218.609 99.07 218.479 99.0233 218.386 98.93C218.299 98.8367 218.256 98.7067 218.256 98.54V92.82H216.136C215.996 92.82 215.886 92.7833 215.806 92.71C215.726 92.63 215.686 92.52 215.686 92.38C215.686 92.24 215.726 92.1333 215.806 92.06C215.886 91.9867 215.996 91.95 216.136 91.95H221.406C221.553 91.95 221.666 91.9867 221.746 92.06C221.826 92.1333 221.866 92.24 221.866 92.38C221.866 92.52 221.826 92.63 221.746 92.71C221.666 92.7833 221.553 92.82 221.406 92.82H219.286V98.54C219.286 98.7067 219.243 98.8367 219.156 98.93C219.076 99.0233 218.949 99.07 218.776 99.07ZM222.478 99.07C222.311 99.07 222.184 99.0267 222.098 98.94C222.011 98.8467 221.968 98.72 221.968 98.56V94.56C221.968 94.3933 222.011 94.2667 222.098 94.18C222.184 94.0933 222.304 94.05 222.458 94.05C222.618 94.05 222.738 94.0933 222.818 94.18C222.904 94.2667 222.948 94.3933 222.948 94.56V95.29H222.848C222.954 94.89 223.151 94.5867 223.438 94.38C223.724 94.1733 224.091 94.0533 224.538 94.02C224.658 94.0133 224.751 94.0433 224.818 94.11C224.891 94.1767 224.931 94.28 224.938 94.42C224.951 94.56 224.921 94.6733 224.848 94.76C224.774 94.84 224.661 94.8867 224.508 94.9L224.318 94.92C223.884 94.96 223.554 95.0967 223.328 95.33C223.101 95.5633 222.988 95.8833 222.988 96.29V98.56C222.988 98.72 222.944 98.8467 222.858 98.94C222.778 99.0267 222.651 99.07 222.478 99.07ZM227.409 99.09C227.069 99.09 226.763 99.0233 226.489 98.89C226.223 98.7567 226.013 98.5767 225.859 98.35C225.706 98.1233 225.629 97.8667 225.629 97.58C225.629 97.22 225.719 96.9367 225.899 96.73C226.086 96.5167 226.389 96.3667 226.809 96.28C227.236 96.1867 227.809 96.14 228.529 96.14H228.999V96.76H228.539C228.059 96.76 227.679 96.7833 227.399 96.83C227.119 96.8767 226.919 96.9567 226.799 97.07C226.686 97.1767 226.629 97.3267 226.629 97.52C226.629 97.7733 226.716 97.98 226.889 98.14C227.063 98.2933 227.303 98.37 227.609 98.37C227.856 98.37 228.073 98.3133 228.259 98.2C228.446 98.08 228.593 97.92 228.699 97.72C228.813 97.52 228.869 97.29 228.869 97.03V95.88C228.869 95.5 228.789 95.2267 228.629 95.06C228.469 94.8933 228.206 94.81 227.839 94.81C227.626 94.81 227.403 94.8367 227.169 94.89C226.943 94.9433 226.706 95.0333 226.459 95.16C226.346 95.2133 226.249 95.23 226.169 95.21C226.089 95.19 226.026 95.1467 225.979 95.08C225.933 95.0067 225.906 94.93 225.899 94.85C225.899 94.7633 225.919 94.68 225.959 94.6C226.006 94.52 226.083 94.46 226.189 94.42C226.483 94.28 226.773 94.18 227.059 94.12C227.346 94.06 227.616 94.03 227.869 94.03C228.316 94.03 228.683 94.1 228.969 94.24C229.263 94.38 229.479 94.5933 229.619 94.88C229.759 95.1667 229.829 95.5367 229.829 95.99V98.56C229.829 98.72 229.789 98.8467 229.709 98.94C229.629 99.0267 229.513 99.07 229.359 99.07C229.213 99.07 229.096 99.0267 229.009 98.94C228.923 98.8467 228.879 98.72 228.879 98.56V97.91H228.969C228.916 98.1567 228.816 98.37 228.669 98.55C228.529 98.7233 228.353 98.8567 228.139 98.95C227.926 99.0433 227.683 99.09 227.409 99.09ZM231.921 99.07C231.761 99.07 231.637 99.0267 231.551 98.94C231.464 98.8467 231.421 98.72 231.421 98.56V94.56C231.421 94.3933 231.464 94.2667 231.551 94.18C231.637 94.0933 231.757 94.05 231.911 94.05C232.071 94.05 232.191 94.0933 232.271 94.18C232.357 94.2667 232.401 94.3933 232.401 94.56V95.34L232.291 95.16C232.437 94.7867 232.667 94.5067 232.981 94.32C233.294 94.1267 233.654 94.03 234.061 94.03C234.447 94.03 234.767 94.1033 235.021 94.25C235.281 94.39 235.474 94.6067 235.601 94.9C235.727 95.1867 235.791 95.55 235.791 95.99V98.56C235.791 98.72 235.747 98.8467 235.661 98.94C235.574 99.0267 235.451 99.07 235.291 99.07C235.124 99.07 234.997 99.0267 234.911 98.94C234.824 98.8467 234.781 98.72 234.781 98.56V96.05C234.781 95.63 234.697 95.3233 234.531 95.13C234.371 94.9367 234.117 94.84 233.771 94.84C233.364 94.84 233.037 94.9667 232.791 95.22C232.551 95.4733 232.431 95.8133 232.431 96.24V98.56C232.431 98.9 232.261 99.07 231.921 99.07ZM239.092 99.09C238.799 99.09 238.496 99.0567 238.182 98.99C237.876 98.9233 237.592 98.81 237.332 98.65C237.246 98.59 237.186 98.5233 237.152 98.45C237.119 98.3767 237.106 98.3033 237.112 98.23C237.126 98.15 237.156 98.0833 237.202 98.03C237.256 97.97 237.319 97.9333 237.392 97.92C237.472 97.9067 237.556 97.9233 237.642 97.97C237.902 98.1167 238.152 98.22 238.392 98.28C238.632 98.3333 238.869 98.36 239.102 98.36C239.456 98.36 239.722 98.2967 239.902 98.17C240.082 98.0433 240.172 97.8733 240.172 97.66C240.172 97.4867 240.112 97.3533 239.992 97.26C239.872 97.16 239.692 97.0833 239.452 97.03L238.502 96.84C238.089 96.7533 237.776 96.6 237.562 96.38C237.349 96.16 237.242 95.88 237.242 95.54C237.242 95.2333 237.326 94.9667 237.492 94.74C237.659 94.5133 237.892 94.34 238.192 94.22C238.492 94.0933 238.839 94.03 239.232 94.03C239.526 94.03 239.802 94.0667 240.062 94.14C240.322 94.2133 240.562 94.3233 240.782 94.47C240.869 94.5167 240.926 94.58 240.952 94.66C240.979 94.7333 240.982 94.8067 240.962 94.88C240.949 94.9533 240.916 95.02 240.862 95.08C240.809 95.1333 240.742 95.1667 240.662 95.18C240.589 95.1867 240.506 95.1667 240.412 95.12C240.212 94.9933 240.012 94.9033 239.812 94.85C239.619 94.7967 239.426 94.77 239.232 94.77C238.879 94.77 238.612 94.8367 238.432 94.97C238.259 95.0967 238.172 95.27 238.172 95.49C238.172 95.6567 238.226 95.7933 238.332 95.9C238.439 96.0067 238.606 96.0833 238.832 96.13L239.782 96.32C240.216 96.4067 240.542 96.5533 240.762 96.76C240.989 96.9667 241.102 97.2467 241.102 97.6C241.102 98.06 240.919 98.4233 240.552 98.69C240.186 98.9567 239.699 99.09 239.092 99.09ZM242.926 99.06C242.766 99.06 242.643 99.0133 242.556 98.92C242.469 98.82 242.426 98.6833 242.426 98.51V94.61C242.426 94.4367 242.469 94.3033 242.556 94.21C242.643 94.1167 242.766 94.07 242.926 94.07C243.086 94.07 243.209 94.1167 243.296 94.21C243.389 94.3033 243.436 94.4367 243.436 94.61V98.51C243.436 98.6833 243.393 98.82 243.306 98.92C243.219 99.0133 243.093 99.06 242.926 99.06ZM242.926 93.03C242.726 93.03 242.569 92.98 242.456 92.88C242.349 92.78 242.296 92.64 242.296 92.46C242.296 92.2733 242.349 92.1333 242.456 92.04C242.569 91.94 242.726 91.89 242.926 91.89C243.126 91.89 243.279 91.94 243.386 92.04C243.499 92.1333 243.556 92.2733 243.556 92.46C243.556 92.64 243.499 92.78 243.386 92.88C243.279 92.98 243.126 93.03 242.926 93.03ZM247.138 99.09C246.738 99.09 246.401 99.02 246.128 98.88C245.854 98.74 245.651 98.5333 245.518 98.26C245.384 97.9867 245.318 97.6533 245.318 97.26V94.9H244.718C244.584 94.9 244.481 94.8667 244.408 94.8C244.334 94.7267 244.298 94.63 244.298 94.51C244.298 94.3833 244.334 94.2867 244.408 94.22C244.481 94.1533 244.584 94.12 244.718 94.12H245.318V93.09C245.318 92.9233 245.361 92.7967 245.448 92.71C245.541 92.6233 245.668 92.58 245.828 92.58C245.988 92.58 246.111 92.6233 246.198 92.71C246.284 92.7967 246.328 92.9233 246.328 93.09V94.12H247.498C247.631 94.12 247.734 94.1533 247.808 94.22C247.881 94.2867 247.918 94.3833 247.918 94.51C247.918 94.63 247.881 94.7267 247.808 94.8C247.734 94.8667 247.631 94.9 247.498 94.9H246.328V97.18C246.328 97.5333 246.401 97.8 246.548 97.98C246.701 98.16 246.948 98.25 247.288 98.25C247.408 98.25 247.511 98.24 247.598 98.22C247.691 98.1933 247.768 98.1767 247.828 98.17C247.901 98.17 247.961 98.1967 248.008 98.25C248.054 98.2967 248.078 98.39 248.078 98.53C248.078 98.63 248.058 98.7233 248.018 98.81C247.984 98.8967 247.921 98.9533 247.828 98.98C247.748 99.0067 247.638 99.03 247.498 99.05C247.364 99.0767 247.244 99.09 247.138 99.09Z" fill="white"/>
<path d="M95.0178 32.128C94.7191 32.128 94.4898 32.0427 94.3298 31.872C94.1698 31.7013 94.0898 31.4667 94.0898 31.168V21.552C94.0898 21.2427 94.1751 21.008 94.3458 20.848C94.5164 20.6773 94.7511 20.592 95.0498 20.592C95.3164 20.592 95.5244 20.6453 95.6738 20.752C95.8338 20.848 95.9778 21.0187 96.1058 21.264L100.058 28.576H99.5458L103.498 21.264C103.626 21.0187 103.764 20.848 103.914 20.752C104.063 20.6453 104.271 20.592 104.538 20.592C104.836 20.592 105.066 20.6773 105.226 20.848C105.386 21.008 105.466 21.2427 105.466 21.552V31.168C105.466 31.4667 105.386 31.7013 105.226 31.872C105.076 32.0427 104.847 32.128 104.538 32.128C104.239 32.128 104.01 32.0427 103.85 31.872C103.69 31.7013 103.61 31.4667 103.61 31.168V23.76H103.962L100.602 29.888C100.495 30.0693 100.383 30.2027 100.266 30.288C100.148 30.3733 99.9884 30.416 99.7858 30.416C99.5831 30.416 99.4178 30.3733 99.2898 30.288C99.1618 30.192 99.0498 30.0587 98.9538 29.888L95.5618 23.744H95.9458V31.168C95.9458 31.4667 95.8658 31.7013 95.7058 31.872C95.5564 32.0427 95.3271 32.128 95.0178 32.128ZM107.9 32.128C107.644 32.128 107.436 32.0693 107.276 31.952C107.127 31.8347 107.036 31.68 107.004 31.488C106.972 31.2853 107.01 31.0613 107.116 30.816L111.34 21.456C111.479 21.1467 111.644 20.928 111.836 20.8C112.039 20.6613 112.268 20.592 112.524 20.592C112.77 20.592 112.988 20.6613 113.18 20.8C113.383 20.928 113.554 21.1467 113.692 21.456L117.932 30.816C118.05 31.0613 118.092 31.2853 118.06 31.488C118.028 31.6907 117.938 31.8507 117.788 31.968C117.639 32.0747 117.442 32.128 117.196 32.128C116.898 32.128 116.663 32.0587 116.492 31.92C116.332 31.7707 116.188 31.5467 116.06 31.248L115.02 28.832L115.884 29.392H109.132L109.996 28.832L108.972 31.248C108.834 31.5573 108.69 31.7813 108.54 31.92C108.391 32.0587 108.178 32.128 107.9 32.128ZM112.492 22.944L110.252 28.272L109.836 27.76H115.18L114.78 28.272L112.524 22.944H112.492ZM120.559 32.128C120.228 32.128 119.972 32.0373 119.791 31.856C119.62 31.664 119.535 31.4027 119.535 31.072V21.76C119.535 21.4187 119.625 21.1627 119.807 20.992C119.988 20.8107 120.244 20.72 120.575 20.72H124.431C125.668 20.72 126.623 21.0187 127.295 21.616C127.967 22.2027 128.303 23.0293 128.303 24.096C128.303 24.7893 128.148 25.3867 127.839 25.888C127.54 26.3893 127.103 26.7733 126.527 27.04C125.951 27.3067 125.252 27.44 124.431 27.44L124.575 27.2H125.103C125.54 27.2 125.919 27.3067 126.239 27.52C126.569 27.7333 126.857 28.0693 127.103 28.528L128.303 30.752C128.431 30.976 128.489 31.1947 128.479 31.408C128.468 31.6213 128.388 31.7973 128.239 31.936C128.089 32.064 127.871 32.128 127.583 32.128C127.295 32.128 127.06 32.0693 126.879 31.952C126.697 31.824 126.537 31.632 126.399 31.376L124.783 28.4C124.591 28.0373 124.361 27.7973 124.095 27.68C123.839 27.552 123.508 27.488 123.103 27.488H121.583V31.072C121.583 31.4027 121.497 31.664 121.327 31.856C121.156 32.0373 120.9 32.128 120.559 32.128ZM121.583 25.968H124.079C124.815 25.968 125.369 25.8187 125.743 25.52C126.127 25.2107 126.319 24.752 126.319 24.144C126.319 23.5467 126.127 23.0987 125.743 22.8C125.369 22.4907 124.815 22.336 124.079 22.336H121.583V25.968ZM131.367 32.128C131.037 32.128 130.781 32.0373 130.599 31.856C130.429 31.664 130.343 31.4027 130.343 31.072V21.648C130.343 21.3067 130.429 21.0453 130.599 20.864C130.781 20.6827 131.037 20.592 131.367 20.592C131.698 20.592 131.949 20.6827 132.119 20.864C132.301 21.0453 132.391 21.3067 132.391 21.648V31.072C132.391 31.4027 132.306 31.664 132.135 31.856C131.965 32.0373 131.709 32.128 131.367 32.128ZM135.659 32.128C135.35 32.128 135.11 32.0427 134.939 31.872C134.779 31.7013 134.699 31.456 134.699 31.136V21.616C134.699 21.2853 134.779 21.0347 134.939 20.864C135.11 20.6827 135.328 20.592 135.595 20.592C135.84 20.592 136.022 20.64 136.139 20.736C136.267 20.8213 136.416 20.9707 136.587 21.184L142.715 29.136H142.299V21.568C142.299 21.2587 142.379 21.0187 142.539 20.848C142.71 20.6773 142.95 20.592 143.259 20.592C143.568 20.592 143.803 20.6773 143.963 20.848C144.123 21.0187 144.203 21.2587 144.203 21.568V31.168C144.203 31.4667 144.128 31.7013 143.979 31.872C143.83 32.0427 143.627 32.128 143.371 32.128C143.126 32.128 142.928 32.08 142.779 31.984C142.64 31.888 142.486 31.7333 142.315 31.52L136.203 23.568H136.603V31.136C136.603 31.456 136.523 31.7013 136.363 31.872C136.203 32.0427 135.968 32.128 135.659 32.128ZM147.596 32C147.244 32 146.972 31.9093 146.78 31.728C146.598 31.536 146.508 31.264 146.508 30.912V21.808C146.508 21.456 146.598 21.1893 146.78 21.008C146.972 20.816 147.244 20.72 147.596 20.72H153.308C153.574 20.72 153.777 20.7893 153.916 20.928C154.065 21.0667 154.14 21.264 154.14 21.52C154.14 21.7867 154.065 21.9947 153.916 22.144C153.777 22.2827 153.574 22.352 153.308 22.352H148.476V25.456H152.956C153.233 25.456 153.441 25.5253 153.58 25.664C153.718 25.8027 153.788 26.0053 153.788 26.272C153.788 26.5387 153.718 26.7413 153.58 26.88C153.441 27.0187 153.233 27.088 152.956 27.088H148.476V30.368H153.308C153.574 30.368 153.777 30.4373 153.916 30.576C154.065 30.7147 154.14 30.9173 154.14 31.184C154.14 31.4507 154.065 31.6533 153.916 31.792C153.777 31.9307 153.574 32 153.308 32H147.596ZM161.102 32.128C160.772 32.128 160.516 32.0373 160.334 31.856C160.164 31.664 160.078 31.4027 160.078 31.072V21.648C160.078 21.3067 160.164 21.0453 160.334 20.864C160.516 20.6827 160.772 20.592 161.102 20.592C161.433 20.592 161.684 20.6827 161.854 20.864C162.036 21.0453 162.126 21.3067 162.126 21.648V31.072C162.126 31.4027 162.041 31.664 161.87 31.856C161.7 32.0373 161.444 32.128 161.102 32.128ZM165.394 32.128C165.085 32.128 164.845 32.0427 164.674 31.872C164.514 31.7013 164.434 31.456 164.434 31.136V21.616C164.434 21.2853 164.514 21.0347 164.674 20.864C164.845 20.6827 165.063 20.592 165.33 20.592C165.575 20.592 165.757 20.64 165.874 20.736C166.002 20.8213 166.151 20.9707 166.322 21.184L172.45 29.136H172.034V21.568C172.034 21.2587 172.114 21.0187 172.274 20.848C172.445 20.6773 172.685 20.592 172.994 20.592C173.303 20.592 173.538 20.6773 173.698 20.848C173.858 21.0187 173.938 21.2587 173.938 21.568V31.168C173.938 31.4667 173.863 31.7013 173.714 31.872C173.565 32.0427 173.362 32.128 173.106 32.128C172.861 32.128 172.663 32.08 172.514 31.984C172.375 31.888 172.221 31.7333 172.05 31.52L165.938 23.568H166.338V31.136C166.338 31.456 166.258 31.7013 166.098 31.872C165.938 32.0427 165.703 32.128 165.394 32.128ZM180.131 32.16C179.661 32.16 179.192 32.1227 178.723 32.048C178.253 31.984 177.811 31.8827 177.395 31.744C176.979 31.5947 176.605 31.4133 176.275 31.2C176.083 31.072 175.949 30.9173 175.875 30.736C175.8 30.5547 175.773 30.3787 175.795 30.208C175.827 30.0267 175.896 29.872 176.003 29.744C176.12 29.6053 176.264 29.52 176.435 29.488C176.605 29.456 176.792 29.504 176.995 29.632C177.464 29.9093 177.96 30.112 178.483 30.24C179.005 30.368 179.555 30.432 180.131 30.432C180.973 30.432 181.587 30.2933 181.971 30.016C182.355 29.728 182.547 29.36 182.547 28.912C182.547 28.5387 182.408 28.2453 182.131 28.032C181.864 27.8187 181.4 27.6427 180.739 27.504L178.979 27.136C177.965 26.9227 177.208 26.5653 176.707 26.064C176.216 25.552 175.971 24.88 175.971 24.048C175.971 23.5253 176.077 23.0507 176.291 22.624C176.504 22.1973 176.803 21.8293 177.187 21.52C177.581 21.2107 178.045 20.976 178.579 20.816C179.123 20.6453 179.72 20.56 180.371 20.56C181.011 20.56 181.619 20.64 182.195 20.8C182.771 20.96 183.288 21.1947 183.747 21.504C183.917 21.6213 184.029 21.7653 184.083 21.936C184.147 22.1067 184.163 22.2773 184.131 22.448C184.099 22.608 184.024 22.7467 183.907 22.864C183.789 22.9813 183.64 23.0507 183.459 23.072C183.288 23.0933 183.091 23.04 182.867 22.912C182.472 22.688 182.072 22.528 181.667 22.432C181.261 22.336 180.824 22.288 180.355 22.288C179.864 22.288 179.443 22.3573 179.091 22.496C178.739 22.6347 178.467 22.832 178.275 23.088C178.093 23.3333 178.003 23.6267 178.003 23.968C178.003 24.352 178.131 24.6613 178.387 24.896C178.643 25.12 179.08 25.296 179.699 25.424L181.443 25.792C182.499 26.016 183.283 26.368 183.795 26.848C184.317 27.328 184.579 27.968 184.579 28.768C184.579 29.28 184.472 29.744 184.259 30.16C184.056 30.576 183.757 30.9333 183.363 31.232C182.979 31.5307 182.515 31.76 181.971 31.92C181.427 32.08 180.813 32.16 180.131 32.16ZM190.865 32.16C190.086 32.16 189.398 32.0587 188.801 31.856C188.214 31.6533 187.718 31.3547 187.313 30.96C186.907 30.5547 186.603 30.0533 186.401 29.456C186.198 28.8587 186.097 28.1653 186.097 27.376V21.632C186.097 21.28 186.182 21.0187 186.353 20.848C186.534 20.6773 186.79 20.592 187.121 20.592C187.451 20.592 187.702 20.6773 187.873 20.848C188.054 21.0187 188.145 21.28 188.145 21.632V27.36C188.145 28.3733 188.374 29.136 188.833 29.648C189.302 30.1493 189.979 30.4 190.865 30.4C191.75 30.4 192.422 30.1493 192.881 29.648C193.339 29.136 193.569 28.3733 193.569 27.36V21.632C193.569 21.28 193.654 21.0187 193.825 20.848C194.006 20.6773 194.262 20.592 194.593 20.592C194.913 20.592 195.158 20.6773 195.329 20.848C195.51 21.0187 195.601 21.28 195.601 21.632V27.376C195.601 28.4213 195.419 29.3013 195.057 30.016C194.705 30.7307 194.177 31.2693 193.473 31.632C192.769 31.984 191.899 32.16 190.865 32.16ZM198.853 32.128C198.522 32.128 198.266 32.0373 198.085 31.856C197.914 31.664 197.829 31.4027 197.829 31.072V21.76C197.829 21.4187 197.92 21.1627 198.101 20.992C198.282 20.8107 198.538 20.72 198.869 20.72H202.725C203.962 20.72 204.917 21.0187 205.589 21.616C206.261 22.2027 206.597 23.0293 206.597 24.096C206.597 24.7893 206.442 25.3867 206.133 25.888C205.834 26.3893 205.397 26.7733 204.821 27.04C204.245 27.3067 203.546 27.44 202.725 27.44L202.869 27.2H203.397C203.834 27.2 204.213 27.3067 204.533 27.52C204.864 27.7333 205.152 28.0693 205.397 28.528L206.597 30.752C206.725 30.976 206.784 31.1947 206.773 31.408C206.762 31.6213 206.682 31.7973 206.533 31.936C206.384 32.064 206.165 32.128 205.877 32.128C205.589 32.128 205.354 32.0693 205.173 31.952C204.992 31.824 204.832 31.632 204.693 31.376L203.077 28.4C202.885 28.0373 202.656 27.7973 202.389 27.68C202.133 27.552 201.802 27.488 201.397 27.488H199.877V31.072C199.877 31.4027 199.792 31.664 199.621 31.856C199.45 32.0373 199.194 32.128 198.853 32.128ZM199.877 25.968H202.373C203.109 25.968 203.664 25.8187 204.037 25.52C204.421 25.2107 204.613 24.752 204.613 24.144C204.613 23.5467 204.421 23.0987 204.037 22.8C203.664 22.4907 203.109 22.336 202.373 22.336H199.877V25.968ZM208.547 32.128C208.291 32.128 208.083 32.0693 207.923 31.952C207.773 31.8347 207.683 31.68 207.651 31.488C207.619 31.2853 207.656 31.0613 207.763 30.816L211.987 21.456C212.125 21.1467 212.291 20.928 212.483 20.8C212.685 20.6613 212.915 20.592 213.171 20.592C213.416 20.592 213.635 20.6613 213.827 20.8C214.029 20.928 214.2 21.1467 214.339 21.456L218.579 30.816C218.696 31.0613 218.739 31.2853 218.707 31.488C218.675 31.6907 218.584 31.8507 218.435 31.968C218.285 32.0747 218.088 32.128 217.843 32.128C217.544 32.128 217.309 32.0587 217.139 31.92C216.979 31.7707 216.835 31.5467 216.707 31.248L215.667 28.832L216.531 29.392H209.779L210.643 28.832L209.619 31.248C209.48 31.5573 209.336 31.7813 209.187 31.92C209.037 32.0587 208.824 32.128 208.547 32.128ZM213.139 22.944L210.899 28.272L210.483 27.76H215.827L215.427 28.272L213.171 22.944H213.139ZM221.141 32.128C220.832 32.128 220.592 32.0427 220.421 31.872C220.261 31.7013 220.181 31.456 220.181 31.136V21.616C220.181 21.2853 220.261 21.0347 220.421 20.864C220.592 20.6827 220.81 20.592 221.077 20.592C221.322 20.592 221.504 20.64 221.621 20.736C221.749 20.8213 221.898 20.9707 222.069 21.184L228.197 29.136H227.781V21.568C227.781 21.2587 227.861 21.0187 228.021 20.848C228.192 20.6773 228.432 20.592 228.741 20.592C229.05 20.592 229.285 20.6773 229.445 20.848C229.605 21.0187 229.685 21.2587 229.685 21.568V31.168C229.685 31.4667 229.61 31.7013 229.461 31.872C229.312 32.0427 229.109 32.128 228.853 32.128C228.608 32.128 228.41 32.08 228.261 31.984C228.122 31.888 227.968 31.7333 227.797 31.52L221.685 23.568H222.085V31.136C222.085 31.456 222.005 31.7013 221.845 31.872C221.685 32.0427 221.45 32.128 221.141 32.128ZM237.238 32.16C236.064 32.16 235.056 31.9253 234.214 31.456C233.382 30.976 232.742 30.304 232.294 29.44C231.846 28.5653 231.622 27.536 231.622 26.352C231.622 25.4667 231.75 24.672 232.006 23.968C232.262 23.2533 232.63 22.6453 233.11 22.144C233.59 21.632 234.176 21.2427 234.87 20.976C235.574 20.6987 236.363 20.56 237.238 20.56C237.824 20.56 238.4 20.6347 238.966 20.784C239.531 20.9333 240.027 21.1467 240.454 21.424C240.678 21.5627 240.827 21.7333 240.902 21.936C240.976 22.128 240.992 22.32 240.95 22.512C240.907 22.6933 240.816 22.848 240.678 22.976C240.55 23.104 240.384 23.1787 240.182 23.2C239.99 23.2107 239.776 23.1413 239.542 22.992C239.211 22.7787 238.854 22.624 238.47 22.528C238.086 22.432 237.696 22.384 237.302 22.384C236.544 22.384 235.904 22.5387 235.382 22.848C234.859 23.1573 234.464 23.6053 234.198 24.192C233.931 24.7787 233.798 25.4987 233.798 26.352C233.798 27.1947 233.931 27.9147 234.198 28.512C234.464 29.1093 234.859 29.5627 235.382 29.872C235.904 30.1813 236.544 30.336 237.302 30.336C237.707 30.336 238.107 30.288 238.502 30.192C238.896 30.0853 239.27 29.9253 239.622 29.712C239.856 29.5733 240.064 29.5147 240.246 29.536C240.438 29.5467 240.598 29.6107 240.726 29.728C240.854 29.8453 240.939 29.9947 240.982 30.176C241.024 30.3467 241.014 30.528 240.95 30.72C240.886 30.9013 240.758 31.0613 240.566 31.2C240.139 31.5093 239.627 31.7493 239.03 31.92C238.443 32.08 237.846 32.16 237.238 32.16ZM243.793 32C243.441 32 243.169 31.9093 242.977 31.728C242.795 31.536 242.705 31.264 242.705 30.912V21.808C242.705 21.456 242.795 21.1893 242.977 21.008C243.169 20.816 243.441 20.72 243.793 20.72H249.505C249.771 20.72 249.974 20.7893 250.113 20.928C250.262 21.0667 250.337 21.264 250.337 21.52C250.337 21.7867 250.262 21.9947 250.113 22.144C249.974 22.2827 249.771 22.352 249.505 22.352H244.673V25.456H249.153C249.43 25.456 249.638 25.5253 249.777 25.664C249.915 25.8027 249.985 26.0053 249.985 26.272C249.985 26.5387 249.915 26.7413 249.777 26.88C249.638 27.0187 249.43 27.088 249.153 27.088H244.673V30.368H249.505C249.771 30.368 249.974 30.4373 250.113 30.576C250.262 30.7147 250.337 30.9173 250.337 31.184C250.337 31.4507 250.262 31.6533 250.113 31.792C249.974 31.9307 249.771 32 249.505 32H243.793Z" fill="white"/>
<mask id="mask0_1324_722" style="mask-type:alpha" maskUnits="userSpaceOnUse" x="20" y="47" width="69" height="69">
<rect x="20" y="47" width="68.8906" height="68.8906" fill="#D9D9D9"/>
</mask>
<g mask="url(#mask0_1324_722)">
<path d="M31.3396 101.538L25.8857 82.3061C25.7422 81.732 25.802 81.0623 26.0651 80.2968C26.3282 79.5314 26.8904 79.0051 27.7515 78.7181L31.4831 77.4264V64.2223C31.4831 62.6436 32.0452 61.2921 33.1695 60.1678C34.2937 59.0436 35.6452 58.4814 37.224 58.4814H45.8353V49.8701H63.0579V58.4814H71.6693C73.248 58.4814 74.5995 59.0436 75.7238 60.1678C76.848 61.2921 77.4102 62.6436 77.4102 64.2223V77.4264L81.1417 78.7181C82.1464 79.1008 82.7444 79.6629 82.9358 80.4044C83.1271 81.146 83.151 81.7799 83.0075 82.3061L77.5537 101.538C75.1616 101.538 72.9849 100.976 71.0234 99.8517C69.062 98.7274 67.3636 97.3759 65.9284 95.7972C64.4932 97.3759 62.7948 98.7274 60.8334 99.8517C58.8719 100.976 56.743 101.538 54.4466 101.538C52.1503 101.538 50.0214 100.976 48.0599 99.8517C46.0984 98.7274 44.4001 97.3759 42.9648 95.7972C41.5296 97.3759 39.8313 98.7274 37.8698 99.8517C35.9083 100.976 33.7316 101.538 31.3396 101.538ZM25.7422 113.02V107.279H31.4831C33.4924 107.279 35.4778 106.968 37.4392 106.346C39.4007 105.724 41.2426 104.791 42.9648 103.547C44.6871 104.791 46.529 105.7 48.4904 106.274C50.4519 106.848 52.4373 107.135 54.4466 107.135C56.4559 107.135 58.4413 106.848 60.4028 106.274C62.3643 105.7 64.2061 104.791 65.9284 103.547C67.6507 104.791 69.4925 105.724 71.454 106.346C73.4155 106.968 75.4008 107.279 77.4102 107.279H83.151V113.02H77.4102C75.4008 113.02 73.4394 112.781 71.5257 112.302C69.6121 111.824 67.7463 111.106 65.9284 110.149C64.1104 111.106 62.2327 111.824 60.2951 112.302C58.3576 112.781 56.4081 113.02 54.4466 113.02C52.4851 113.02 50.5356 112.781 48.5981 112.302C46.6605 111.824 44.7828 111.106 42.9648 110.149C41.1469 111.106 39.2811 111.824 37.3675 112.302C35.4539 112.781 33.4924 113.02 31.4831 113.02H25.7422ZM37.224 75.5606L54.4466 69.9632L71.6693 75.5606V64.2223H37.224V75.5606Z" fill="white"/>
</g>
<path d="M60.092 145L27.9923 137.171V141.488H13V116H38.235L62.9122 123.578C64.2088 123.964 65.3361 124.645 66.2942 125.621C67.2524 126.596 67.7314 128.083 67.7314 130.082H81.4607C83.6096 130.082 85.2366 130.747 86.342 132.078C87.4473 133.408 88 135.215 88 137.499V137.872L60.092 145ZM16.0993 138.914H24.7923V118.573H16.0993V138.914ZM59.7665 142.324L84.7768 135.994C84.6323 134.935 84.2835 134.113 83.7308 133.53C83.1782 132.947 82.4216 132.655 81.4607 132.655H61.8508C60.0946 132.655 58.3087 132.554 56.4931 132.353C54.6775 132.151 53.1266 131.877 51.8404 131.529L43.4494 129.374L44.8905 126.775L52.1658 128.911C53.7413 129.357 55.3619 129.664 57.0277 129.831C58.6936 129.998 61.1715 130.082 64.4619 130.082C64.4619 129.027 64.259 128.157 63.8536 127.473C63.4481 126.789 62.7986 126.308 61.905 126.029L37.8477 118.573H27.9923V134.411L59.7665 142.324Z" fill="white"/>
</svg>
