<svg width="19" height="19" viewBox="0 0 19 19" fill="none" xmlns="http://www.w3.org/2000/svg">
<g opacity="0.7" filter="url(#filter0_i_824_806)">
<circle cx="9.5" cy="9.5" r="9.5" fill="white"/>
</g>
<path d="M9.49929 12.3403L12.3393 9.50027L9.49929 6.66022L8.9047 7.25481L10.7183 9.06845H6.47656V9.93208H10.7183L8.9047 11.7457L9.49929 12.3403ZM9.50218 17.273C8.42734 17.273 7.41682 17.069 6.4706 16.6611C5.52439 16.2532 4.70131 15.6996 4.00136 15.0003C3.30142 14.301 2.74731 13.4787 2.33901 12.5334C1.93071 11.5881 1.72656 10.578 1.72656 9.50316C1.72656 8.42832 1.93052 7.41779 2.33843 6.47158C2.74635 5.52537 3.29996 4.70228 3.99924 4.00234C4.69853 3.3024 5.52083 2.74829 6.46616 2.33999C7.41149 1.93169 8.42157 1.72754 9.4964 1.72754C10.5712 1.72754 11.5818 1.93149 12.528 2.3394C13.4742 2.74733 14.2973 3.30093 14.9972 4.00022C15.6972 4.69951 16.2513 5.52181 16.6596 6.46713C17.0679 7.41247 17.272 8.42255 17.272 9.49737C17.272 10.5722 17.0681 11.5827 16.6602 12.529C16.2522 13.4752 15.6986 14.2982 14.9993 14.9982C14.3001 15.6981 13.4777 16.2522 12.5324 16.6605C11.5871 17.0688 10.577 17.273 9.50218 17.273ZM9.49929 16.4094C11.4281 16.4094 13.0618 15.74 14.4004 14.4014C15.7391 13.0628 16.4084 11.4291 16.4084 9.50027C16.4084 7.57148 15.7391 5.93777 14.4004 4.59913C13.0618 3.26049 11.4281 2.59118 9.49929 2.59118C7.5705 2.59118 5.93679 3.26049 4.59815 4.59913C3.25952 5.93777 2.5902 7.57148 2.5902 9.50027C2.5902 11.4291 3.25952 13.0628 4.59815 14.4014C5.93679 15.74 7.5705 16.4094 9.49929 16.4094Z" fill="#7743DC"/>
<defs>
<filter id="filter0_i_824_806" x="0" y="0" width="19" height="19" filterUnits="userSpaceOnUse" color-interpolation-filters="sRGB">
<feFlood flood-opacity="0" result="BackgroundImageFix"/>
<feBlend mode="normal" in="SourceGraphic" in2="BackgroundImageFix" result="shape"/>
<feColorMatrix in="SourceAlpha" type="matrix" values="0 0 0 0 0 0 0 0 0 0 0 0 0 0 0 0 0 0 127 0" result="hardAlpha"/>
<feMorphology radius="1" operator="dilate" in="SourceAlpha" result="effect1_innerShadow_824_806"/>
<feOffset/>
<feGaussianBlur stdDeviation="2"/>
<feComposite in2="hardAlpha" operator="arithmetic" k2="-1" k3="1"/>
<feColorMatrix type="matrix" values="0 0 0 0 0 0 0 0 0 0 0 0 0 0 0 0 0 0 0.64 0"/>
<feBlend mode="normal" in2="shape" result="effect1_innerShadow_824_806"/>
</filter>
</defs>
</svg>
