<svg width="450" height="282" viewBox="0 0 450 282" fill="none" xmlns="http://www.w3.org/2000/svg">
<rect width="450" height="281.055" rx="6" fill="#7743DC"/>
<rect x="276.675" y="103.925" width="169.65" height="137.025" rx="10.875" fill="white"/>
<path d="M425.138 81.4868H298.515C286.112 81.4868 276.02 91.5815 276.02 103.99V230.597C276.02 243.008 286.115 253.105 298.515 253.105H425.138C437.546 253.105 447.638 243.01 447.638 230.597V103.99C447.638 91.5815 437.546 81.4868 425.138 81.4868ZM370.63 125.109C372.981 125.109 375.308 125.572 377.48 126.471C379.652 127.37 381.626 128.689 383.288 130.351C384.95 132.013 386.269 133.987 387.168 136.159C388.068 138.331 388.53 140.659 388.53 143.009C388.53 152.889 380.512 160.915 370.63 160.915C360.747 160.915 352.729 152.889 352.729 143.009C352.729 140.659 353.192 138.331 354.091 136.159C354.991 133.987 356.309 132.013 357.972 130.351C359.634 128.689 361.607 127.37 363.779 126.471C365.951 125.572 368.279 125.109 370.63 125.109ZM417.615 224.251C416.288 224.251 415.013 223.993 413.85 223.525L397.912 219.091V234.977H342.589V219.091L326.657 223.525C325.46 224.006 324.181 224.253 322.891 224.251C321.04 224.25 319.223 223.745 317.637 222.791C316.05 221.837 314.752 220.47 313.883 218.835C313.014 217.2 312.606 215.36 312.702 213.511C312.799 211.662 313.396 209.874 314.43 208.338L339.987 173.296C342.76 169.495 346.634 165.262 354.804 165.262H385.697C393.864 165.262 397.741 169.498 400.512 173.296L426.065 208.338C427.205 210.023 427.813 212.011 427.81 214.045C427.808 216.75 426.733 219.344 424.821 221.257C422.908 223.171 420.315 224.247 417.61 224.251H417.615Z" fill="#7743DC"/>
<path d="M342.586 177.517V198.766L344.521 198.114C358.773 193.913 364.317 212.73 350.068 216.922L349.611 217.05L370.252 223.882L390.895 217.05L390.43 216.922C376.189 212.73 381.733 193.913 395.974 198.114L397.92 198.766V177.517L370.252 186.556L342.586 177.517Z" fill="#7743DC"/>
<g clip-path="url(#clip0_113_1524)">
<path fill-rule="evenodd" clip-rule="evenodd" d="M342.422 153.504C341.251 151.1 339.34 149.221 338.015 146.725C337.214 145.307 336.937 143.644 336.29 142.349C335.917 141.561 335.44 140.825 334.873 140.162C333.917 139.035 332.743 138.112 331.422 137.45C330.825 137.162 330.176 136.997 329.515 136.966C328.853 136.934 328.191 137.036 327.57 137.265C326.273 137.775 325.187 138.709 324.489 139.915C323.703 141.047 323.273 142.389 323.256 143.767C323.284 144.97 323.557 146.154 324.057 147.249C324.643 148.635 325.506 149.929 326.183 151.254L326.584 153.997C326.946 155.365 327.586 156.645 328.464 157.756C329.257 158.903 330.313 159.843 331.545 160.498C331.662 160.563 331.791 160.605 331.924 160.62C332.058 160.635 332.193 160.624 332.321 160.586C332.45 160.549 332.571 160.487 332.675 160.403C332.78 160.319 332.867 160.215 332.931 160.097C332.995 159.981 333.034 159.852 333.047 159.72C333.059 159.588 333.045 159.454 333.005 159.328C332.964 159.201 332.899 159.084 332.812 158.983C332.725 158.882 332.619 158.8 332.5 158.742C331.594 158.174 330.842 157.391 330.312 156.462C329.719 155.526 329.331 154.476 329.172 153.38C329.126 152.703 329.126 152.024 329.172 151.347C329.133 150.87 329.018 150.402 328.833 149.96C328.309 148.635 327.632 147.341 327.169 145.985C326.886 145.271 326.77 144.502 326.83 143.736C326.875 143.077 327.087 142.441 327.447 141.887C327.794 141.401 328.276 141.026 328.833 140.809C329.234 140.809 329.634 140.809 330.035 141.117C330.719 141.542 331.333 142.073 331.853 142.688C332.206 143.072 332.497 143.509 332.716 143.982C333.486 145.462 333.948 147.064 334.842 148.512C336.197 150.546 337.923 152.117 339.063 153.966C339.907 155.093 340.505 156.384 340.819 157.756C341.032 158.768 341.125 159.803 341.097 160.837C341.032 161.877 340.867 162.909 340.604 163.918C340.57 164.194 340.635 164.473 340.788 164.704C340.941 164.936 341.171 165.106 341.438 165.184C341.705 165.262 341.99 165.242 342.244 165.129C342.497 165.016 342.702 164.816 342.822 164.565C343.214 163.353 343.482 162.103 343.623 160.837C343.777 159.599 343.777 158.347 343.623 157.109C343.42 155.85 343.014 154.633 342.422 153.504Z" fill="white"/>
<path fill-rule="evenodd" clip-rule="evenodd" d="M312.934 133.907C313.192 134.56 313.617 135.134 314.167 135.571C314.402 135.748 314.677 135.865 314.968 135.91C315.45 135.938 315.934 135.938 316.416 135.91C317.587 135.91 321.685 136.157 323.41 136.095C323.878 136.097 324.341 135.993 324.763 135.79C325.184 135.588 325.554 135.291 325.844 134.924C325.973 134.504 326.045 134.069 326.06 133.63C326.11 132.932 326.11 132.232 326.06 131.535L325.598 127.467L327.323 127.745L329.141 128.022H330.497C330.969 128.065 331.443 128.065 331.915 128.022C332.326 127.914 332.721 127.748 333.085 127.529C333.31 127.355 333.497 127.136 333.635 126.887C333.773 126.638 333.858 126.364 333.887 126.081V125.064L334.071 121.983C334.127 121.1 334.127 120.215 334.071 119.333C334.078 118.626 333.886 117.932 333.517 117.33C333.352 117.063 333.12 116.843 332.845 116.692C332.569 116.54 332.26 116.463 331.945 116.467C331.452 116.467 330.158 116.745 330.066 116.745L325.69 117.7L326.06 112.986C326.125 112.299 326.125 111.608 326.06 110.921C326.008 110.664 325.904 110.419 325.756 110.202C325.608 109.985 325.418 109.8 325.197 109.658C324.974 109.536 324.736 109.443 324.489 109.38C324.038 109.334 323.584 109.334 323.133 109.38H316.724C316.174 109.435 315.628 109.528 315.091 109.658C314.822 109.744 314.575 109.888 314.368 110.08C314.16 110.271 313.997 110.506 313.889 110.767C313.73 111.306 313.668 111.87 313.704 112.431C313.704 113.386 313.982 114.434 314.043 115.112V116.837H313.242L310.346 116.652H308.867C308.37 116.693 307.892 116.863 307.48 117.145C306.725 117.677 306.171 118.447 305.909 119.333C305.624 120.271 305.499 121.25 305.539 122.229L305.878 125.619V126.574C305.936 126.87 306.051 127.153 306.217 127.406C306.497 127.816 306.879 128.145 307.326 128.361C307.88 128.581 308.46 128.726 309.052 128.792C309.819 128.885 310.595 128.885 311.363 128.792C311.794 128.792 312.225 128.638 312.688 128.577L312.379 131.042C312.411 132.02 312.599 132.987 312.934 133.907ZM311.547 125.619C311.003 125.579 310.466 125.475 309.945 125.311V124.756V121.921C310.192 119.24 308.62 119.61 313.766 119.086C314.176 119.04 314.589 119.04 314.998 119.086C315.203 119.266 315.466 119.365 315.738 119.364C315.873 119.364 316.006 119.337 316.13 119.283C316.254 119.23 316.365 119.152 316.458 119.053C316.55 118.955 316.622 118.839 316.667 118.712C316.713 118.586 316.732 118.451 316.724 118.316L317.094 115.235C317.094 114.68 317.094 113.879 317.279 113.109H321.284H323.225L323.256 118.624C323.229 118.767 323.229 118.913 323.256 119.056C323.309 119.324 323.464 119.56 323.688 119.716C323.912 119.871 324.189 119.933 324.458 119.888L330.436 120.226H330.682C330.528 120.843 330.251 121.551 330.22 121.89V124.818H329.234H324.735H324.52H324.365C324.233 124.813 324.102 124.836 323.979 124.884C323.855 124.931 323.743 125.003 323.648 125.095C323.553 125.187 323.478 125.297 323.427 125.419C323.375 125.541 323.349 125.671 323.349 125.804L322.917 131.411V132.182H316.755H316.139V131.904C316.056 131.497 315.994 131.086 315.954 130.672V127.19C316.078 127.009 316.143 126.794 316.139 126.574C316.084 126.269 315.92 125.995 315.676 125.804C315.583 125.642 315.448 125.508 315.285 125.416C315.123 125.324 314.939 125.277 314.752 125.28C314.484 125.285 314.23 125.396 314.043 125.588L311.547 125.619Z" fill="white"/>
<path fill-rule="evenodd" clip-rule="evenodd" d="M316.662 158.465C317.357 159.716 318.206 160.876 319.189 161.916C320.584 163.221 321.815 164.69 322.856 166.291C322.974 166.573 323.2 166.796 323.483 166.912C323.766 167.028 324.084 167.026 324.366 166.907C324.647 166.789 324.871 166.563 324.986 166.28C325.102 165.997 325.1 165.68 324.982 165.398C324.042 162.747 322.691 160.262 320.976 158.033C320.514 157.356 320.052 156.709 319.62 156.031C319.173 155.431 318.801 154.779 318.511 154.089C318.364 153.546 318.282 152.988 318.265 152.426C318.418 152.441 318.573 152.441 318.727 152.426C318.985 152.336 319.226 152.201 319.436 152.025C319.744 151.748 321.562 149.899 320.822 148.944C320.452 148.512 320.175 148.512 319.374 148.512C318.762 148.405 318.137 148.405 317.525 148.512C317.388 148.542 317.261 148.606 317.155 148.697C313.304 151.255 316.601 158.342 316.662 158.465Z" fill="white"/>
<path fill-rule="evenodd" clip-rule="evenodd" d="M354.778 109.442C354.606 106.566 353.739 103.775 352.251 101.308C350.3 98.3583 347.509 96.0615 344.24 94.7139C341.079 93.3784 337.648 92.8083 334.226 93.05C331.33 93.1526 328.512 94.0079 326.048 95.5316C323.584 97.0553 321.56 99.1947 320.175 101.739C318.772 99.2316 316.742 97.1304 314.286 95.64C311.829 94.1497 309.028 93.3211 306.155 93.2349C302.718 92.9346 299.261 93.522 296.115 94.941C292.97 96.3599 290.242 98.5628 288.192 101.339C286.711 103.802 285.825 106.577 285.603 109.442C285.247 113.547 285.697 117.681 286.928 121.613C289.435 128.556 293.431 134.867 298.637 140.101C302.734 144.5 307.64 148.067 313.088 150.608C314.721 151.316 315.276 149.468 314.228 148.512C309.14 145.859 304.618 142.237 300.917 137.851C296.264 132.847 292.743 126.899 290.595 120.411C289.712 117.538 289.296 114.542 289.363 111.537C289.306 108.672 289.985 105.839 291.335 103.311C292.971 100.962 295.18 99.0707 297.752 97.8144C300.324 96.5581 303.174 95.9788 306.032 96.1312C318.111 96.3777 318.665 105.375 319.528 105.714C319.635 105.76 319.75 105.783 319.867 105.783C319.983 105.783 320.099 105.76 320.206 105.714C320.308 105.759 320.418 105.782 320.529 105.782C320.641 105.782 320.751 105.759 320.853 105.714C321.747 105.437 322.332 96.4702 334.38 96.2545C337.265 96.2464 340.117 96.8778 342.73 98.1032C345.244 99.237 347.382 101.065 348.892 103.372C350.279 105.869 351 108.681 350.988 111.537C351.089 114.531 350.736 117.524 349.94 120.411C348.644 125.414 346.933 130.299 344.825 135.017C343.941 136.846 342.564 138.393 340.85 139.484C340.586 139.645 340.394 139.901 340.314 140.199C340.233 140.498 340.271 140.815 340.419 141.087C340.578 141.343 340.831 141.528 341.124 141.603C341.417 141.678 341.727 141.636 341.99 141.487C344.194 140.251 346 138.413 347.198 136.187C349.663 131.45 351.725 126.513 353.36 121.428C354.609 117.563 355.09 113.492 354.778 109.442Z" fill="white"/>
</g>
<path fill-rule="evenodd" clip-rule="evenodd" d="M425.5 263.705C430.583 263.705 434.705 259.583 434.705 254.5C434.705 249.416 430.583 245.295 425.5 245.295C420.416 245.295 416.295 249.416 416.295 254.5C416.295 259.583 420.416 263.705 425.5 263.705ZM425.932 251.25C426.202 250.981 426.639 250.981 426.909 251.25L429.67 254.012C429.94 254.281 429.94 254.719 429.67 254.988L426.909 257.749C426.639 258.019 426.202 258.019 425.932 257.749C425.663 257.48 425.663 257.043 425.932 256.773L427.515 255.19H421.818C421.437 255.19 421.128 254.881 421.128 254.5C421.128 254.119 421.437 253.81 421.818 253.81H427.515L425.932 252.227C425.663 251.957 425.663 251.52 425.932 251.25Z" fill="#D6C6F4"/>
<circle cx="425.5" cy="254.5" r="12.4615" stroke="#D6C6F4" stroke-width="2.07692"/>
<path d="M41.2244 46L35.5767 25.6364H38.8082L42.7756 41.4062H42.9645L47.0909 25.6364H50.2926L54.419 41.4162H54.608L58.5653 25.6364H61.8068L56.1491 46H53.0568L48.7713 30.7472H48.6122L44.3267 46H41.2244ZM64.6083 46V25.6364H67.6808V34.4858H77.8327V25.6364H80.9151V46H77.8327V37.1207H67.6808V46H64.6083ZM87.1097 46H83.8484L91.1765 25.6364H94.7262L102.054 46H98.793L93.0359 29.3352H92.8768L87.1097 46ZM87.6566 38.0256H98.2362V40.6108H87.6566V38.0256ZM101.585 28.2812V25.6364H117.344V28.2812H110.991V46H107.928V28.2812H101.585ZM131.31 25.6364V46H128.237V25.6364H131.31ZM146.891 30.9858C146.785 30.0445 146.347 29.3153 145.578 28.7983C144.809 28.2746 143.841 28.0128 142.675 28.0128C141.839 28.0128 141.117 28.1454 140.507 28.4105C139.897 28.669 139.423 29.027 139.085 29.4844C138.754 29.9351 138.588 30.4489 138.588 31.0256C138.588 31.5095 138.701 31.9271 138.926 32.2784C139.158 32.6297 139.46 32.9247 139.831 33.1634C140.209 33.3954 140.613 33.5909 141.044 33.75C141.475 33.9025 141.889 34.0284 142.287 34.1278L144.276 34.6449C144.925 34.804 145.591 35.0194 146.274 35.2912C146.957 35.563 147.59 35.9209 148.173 36.3651C148.757 36.8092 149.227 37.3594 149.585 38.0156C149.95 38.6719 150.132 39.4574 150.132 40.3722C150.132 41.5256 149.834 42.5497 149.237 43.4446C148.647 44.3395 147.789 45.0455 146.662 45.5625C145.542 46.0795 144.186 46.3381 142.595 46.3381C141.071 46.3381 139.751 46.0961 138.638 45.6122C137.524 45.1283 136.652 44.4422 136.023 43.554C135.393 42.6591 135.045 41.5985 134.979 40.3722H138.061C138.121 41.108 138.359 41.7211 138.777 42.2116C139.201 42.6955 139.741 43.0568 140.398 43.2955C141.061 43.5275 141.786 43.6435 142.575 43.6435C143.444 43.6435 144.216 43.5076 144.892 43.2358C145.575 42.9574 146.112 42.5729 146.503 42.0824C146.894 41.5852 147.089 41.0052 147.089 40.3423C147.089 39.7391 146.917 39.2453 146.572 38.8608C146.234 38.4763 145.774 38.1581 145.19 37.9062C144.614 37.6544 143.961 37.4323 143.232 37.2401L140.825 36.5838C139.195 36.1397 137.902 35.4867 136.947 34.625C136 33.7633 135.526 32.6231 135.526 31.2045C135.526 30.0312 135.844 29.0071 136.48 28.1321C137.116 27.2571 137.978 26.5777 139.065 26.0938C140.152 25.6032 141.379 25.358 142.744 25.358C144.123 25.358 145.339 25.5999 146.393 26.0838C147.454 26.5677 148.289 27.2339 148.899 28.0824C149.509 28.9242 149.827 29.892 149.854 30.9858H146.891ZM178.903 35.8182C178.903 37.9924 178.505 39.8617 177.71 41.4261C176.914 42.9839 175.824 44.1837 174.438 45.0256C173.059 45.8608 171.492 46.2784 169.735 46.2784C167.972 46.2784 166.397 45.8608 165.012 45.0256C163.633 44.1837 162.546 42.9806 161.751 41.4162C160.955 39.8518 160.558 37.9858 160.558 35.8182C160.558 33.6439 160.955 31.7779 161.751 30.2202C162.546 28.6558 163.633 27.456 165.012 26.6207C166.397 25.7789 167.972 25.358 169.735 25.358C171.492 25.358 173.059 25.7789 174.438 26.6207C175.824 27.456 176.914 28.6558 177.71 30.2202C178.505 31.7779 178.903 33.6439 178.903 35.8182ZM175.86 35.8182C175.86 34.161 175.592 32.7656 175.055 31.6321C174.524 30.492 173.795 29.6302 172.867 29.0469C171.946 28.4569 170.902 28.1619 169.735 28.1619C168.562 28.1619 167.514 28.4569 166.593 29.0469C165.672 29.6302 164.942 30.492 164.406 31.6321C163.875 32.7656 163.61 34.161 163.61 35.8182C163.61 37.4754 163.875 38.8741 164.406 40.0142C164.942 41.1477 165.672 42.0095 166.593 42.5994C167.514 43.1828 168.562 43.4744 169.735 43.4744C170.902 43.4744 171.946 43.1828 172.867 42.5994C173.795 42.0095 174.524 41.1477 175.055 40.0142C175.592 38.8741 175.86 37.4754 175.86 35.8182ZM182.733 46V25.6364H189.992C191.576 25.6364 192.889 25.9247 193.929 26.5014C194.97 27.0781 195.749 27.8669 196.266 28.8679C196.783 29.8622 197.042 30.9825 197.042 32.2287C197.042 33.4815 196.78 34.6084 196.256 35.6094C195.739 36.6037 194.957 37.3925 193.909 37.9759C192.869 38.5526 191.56 38.8409 189.982 38.8409H184.99V36.2358H189.703C190.704 36.2358 191.516 36.0634 192.14 35.7188C192.763 35.3674 193.22 34.8902 193.512 34.2869C193.803 33.6837 193.949 32.9976 193.949 32.2287C193.949 31.4598 193.803 30.777 193.512 30.1804C193.22 29.5838 192.759 29.1165 192.13 28.7784C191.507 28.4403 190.685 28.2713 189.664 28.2713H185.806V46H182.733ZM207.236 46H200.643V25.6364H207.445C209.44 25.6364 211.153 26.044 212.585 26.8594C214.017 27.6681 215.114 28.8314 215.876 30.3494C216.645 31.8608 217.03 33.6738 217.03 35.7884C217.03 37.9096 216.642 39.7325 215.866 41.2571C215.098 42.7817 213.984 43.955 212.526 44.777C211.067 45.5923 209.304 46 207.236 46ZM203.716 43.3153H207.067C208.618 43.3153 209.907 43.0237 210.935 42.4403C211.962 41.8504 212.731 40.9986 213.241 39.8849C213.752 38.7647 214.007 37.3991 214.007 35.7884C214.007 34.1908 213.752 32.8352 213.241 31.7216C212.738 30.608 211.985 29.7628 210.984 29.1861C209.983 28.6094 208.741 28.321 207.256 28.321H203.716V43.3153ZM222.571 43.4744C222.027 43.4744 221.56 43.2822 221.169 42.8977C220.778 42.5066 220.582 42.036 220.582 41.4858C220.582 40.9422 220.778 40.4782 221.169 40.0938C221.56 39.7027 222.027 39.5071 222.571 39.5071C223.114 39.5071 223.582 39.7027 223.973 40.0938C224.364 40.4782 224.559 40.9422 224.559 41.4858C224.559 41.8504 224.467 42.1851 224.281 42.4901C224.102 42.7884 223.863 43.027 223.565 43.206C223.267 43.3849 222.935 43.4744 222.571 43.4744ZM222.571 33.2727C222.027 33.2727 221.56 33.0805 221.169 32.696C220.778 32.3049 220.582 31.8343 220.582 31.2841C220.582 30.7405 220.778 30.2765 221.169 29.892C221.56 29.5009 222.027 29.3054 222.571 29.3054C223.114 29.3054 223.582 29.5009 223.973 29.892C224.364 30.2765 224.559 30.7405 224.559 31.2841C224.559 31.6487 224.467 31.9834 224.281 32.2884C224.102 32.5866 223.863 32.8253 223.565 33.0043C223.267 33.1832 222.935 33.2727 222.571 33.2727ZM236.19 46V25.6364H248.818V28.2812H239.263V34.4858H247.913V37.1207H239.263V46H236.19ZM265.692 25.6364H268.774V39.0298C268.774 40.455 268.439 41.7178 267.77 42.8182C267.1 43.9119 266.159 44.7737 264.946 45.4034C263.733 46.0265 262.311 46.3381 260.68 46.3381C259.056 46.3381 257.638 46.0265 256.425 45.4034C255.212 44.7737 254.27 43.9119 253.601 42.8182C252.931 41.7178 252.597 40.455 252.597 39.0298V25.6364H255.669V38.7812C255.669 39.7027 255.871 40.5213 256.276 41.2372C256.687 41.9531 257.267 42.5166 258.016 42.9276C258.765 43.3319 259.653 43.5341 260.68 43.5341C261.714 43.5341 262.606 43.3319 263.355 42.9276C264.111 42.5166 264.688 41.9531 265.085 41.2372C265.49 40.5213 265.692 39.7027 265.692 38.7812V25.6364ZM273.241 46V25.6364H276.314V43.3551H285.541V46H273.241ZM289.046 46V25.6364H292.118V43.3551H301.346V46H289.046ZM37.2372 80V59.6364H49.8651V62.2812H40.3097V68.4858H48.9602V71.1207H40.3097V80H37.2372ZM71.3324 69.8182C71.3324 71.9924 70.9347 73.8617 70.1392 75.4261C69.3438 76.9839 68.2533 78.1837 66.8679 79.0256C65.4891 79.8608 63.9214 80.2784 62.1648 80.2784C60.4015 80.2784 58.8272 79.8608 57.4418 79.0256C56.063 78.1837 54.9759 76.9806 54.1804 75.4162C53.3849 73.8518 52.9872 71.9858 52.9872 69.8182C52.9872 67.6439 53.3849 65.7779 54.1804 64.2202C54.9759 62.6558 56.063 61.456 57.4418 60.6207C58.8272 59.7789 60.4015 59.358 62.1648 59.358C63.9214 59.358 65.4891 59.7789 66.8679 60.6207C68.2533 61.456 69.3438 62.6558 70.1392 64.2202C70.9347 65.7779 71.3324 67.6439 71.3324 69.8182ZM68.2898 69.8182C68.2898 68.161 68.0213 66.7656 67.4844 65.6321C66.9541 64.492 66.2249 63.6302 65.2969 63.0469C64.3755 62.4569 63.3314 62.1619 62.1648 62.1619C60.9915 62.1619 59.9441 62.4569 59.0227 63.0469C58.1013 63.6302 57.3722 64.492 56.8352 65.6321C56.3049 66.7656 56.0398 68.161 56.0398 69.8182C56.0398 71.4754 56.3049 72.8741 56.8352 74.0142C57.3722 75.1477 58.1013 76.0095 59.0227 76.5994C59.9441 77.1828 60.9915 77.4744 62.1648 77.4744C63.3314 77.4744 64.3755 77.1828 65.2969 76.5994C66.2249 76.0095 66.9541 75.1477 67.4844 74.0142C68.0213 72.8741 68.2898 71.4754 68.2898 69.8182ZM75.163 80V59.6364H82.4215C83.9992 59.6364 85.3084 59.9081 86.3491 60.4517C87.3964 60.9953 88.1786 61.7476 88.6957 62.7088C89.2127 63.6634 89.4712 64.767 89.4712 66.0199C89.4712 67.2661 89.2094 68.3632 88.6857 69.3111C88.1687 70.2524 87.3865 70.9848 86.3391 71.5085C85.2984 72.0322 83.9892 72.294 82.4116 72.294H76.913V69.6491H82.1332C83.1275 69.6491 83.9362 69.5066 84.5593 69.2216C85.189 68.9366 85.6497 68.5223 85.9414 67.9787C86.2331 67.4351 86.3789 66.7822 86.3789 66.0199C86.3789 65.2509 86.2298 64.5848 85.9315 64.0213C85.6398 63.4579 85.1791 63.027 84.5494 62.7287C83.9263 62.4238 83.1076 62.2713 82.0934 62.2713H78.2354V80H75.163ZM85.2156 70.8125L90.2468 80H86.7468L81.815 70.8125H85.2156ZM93.2099 59.6364H96.9386L103.422 75.4659H103.66L110.143 59.6364H113.872V80H110.949V65.2642H110.76L104.754 79.9702H102.328L96.3221 65.2543H96.1332V80H93.2099V59.6364ZM127.469 80H124.208L131.536 59.6364H135.086L142.414 80H139.152L133.395 63.3352H133.236L127.469 80ZM128.016 72.0256H138.596V74.6108H128.016V72.0256ZM161.79 59.6364V80H158.967L148.616 65.0653H148.427V80H145.354V59.6364H148.198L158.559 74.5909H158.748V59.6364H161.79ZM172.865 80H166.272V59.6364H173.074C175.069 59.6364 176.782 60.044 178.214 60.8594C179.646 61.6681 180.743 62.8314 181.505 64.3494C182.274 65.8608 182.659 67.6738 182.659 69.7884C182.659 71.9096 182.271 73.7325 181.495 75.2571C180.726 76.7817 179.613 77.955 178.154 78.777C176.696 79.5923 174.933 80 172.865 80ZM169.345 77.3153H172.696C174.247 77.3153 175.536 77.0237 176.564 76.4403C177.591 75.8504 178.36 74.9986 178.87 73.8849C179.381 72.7647 179.636 71.3991 179.636 69.7884C179.636 68.1908 179.381 66.8352 178.87 65.7216C178.367 64.608 177.614 63.7628 176.613 63.1861C175.612 62.6094 174.369 62.321 172.885 62.321H169.345V77.3153ZM193.89 59.6364H197.618L204.101 75.4659H204.34L210.823 59.6364H214.551V80H211.628V65.2642H211.439L205.434 79.9702H203.007L197.002 65.2543H196.813V80H193.89V59.6364ZM219.018 80V59.6364H231.786V62.2812H222.091V68.4858H231.119V71.1207H222.091V77.3551H231.905V80H219.018ZM242.482 80H235.89V59.6364H242.691C244.686 59.6364 246.4 60.044 247.831 60.8594C249.263 61.6681 250.36 62.8314 251.123 64.3494C251.891 65.8608 252.276 67.6738 252.276 69.7884C252.276 71.9096 251.888 73.7325 251.113 75.2571C250.344 76.7817 249.23 77.955 247.772 78.777C246.313 79.5923 244.55 80 242.482 80ZM238.962 77.3153H242.313C243.864 77.3153 245.153 77.0237 246.181 76.4403C247.208 75.8504 247.977 74.9986 248.488 73.8849C248.998 72.7647 249.253 71.3991 249.253 69.7884C249.253 68.1908 248.998 66.8352 248.488 65.7216C247.984 64.608 247.231 63.7628 246.23 63.1861C245.23 62.6094 243.987 62.321 242.502 62.321H238.962V77.3153ZM259.169 59.6364V80H256.097V59.6364H259.169ZM280.557 66.2585H277.455C277.335 65.5956 277.113 65.0123 276.788 64.5085C276.464 64.0047 276.066 63.5772 275.595 63.2259C275.125 62.8745 274.598 62.6094 274.014 62.4304C273.438 62.2514 272.824 62.1619 272.175 62.1619C271.001 62.1619 269.951 62.4569 269.023 63.0469C268.101 63.6368 267.372 64.5019 266.835 65.642C266.305 66.7822 266.04 68.1742 266.04 69.8182C266.04 71.4754 266.305 72.8741 266.835 74.0142C267.372 75.1544 268.105 76.0161 269.033 76.5994C269.961 77.1828 271.005 77.4744 272.165 77.4744C272.808 77.4744 273.418 77.3883 273.994 77.2159C274.578 77.0369 275.105 76.7751 275.575 76.4304C276.046 76.0857 276.444 75.6648 276.768 75.1676C277.1 74.6638 277.329 74.0871 277.455 73.4375L280.557 73.4474C280.391 74.4484 280.07 75.3698 279.592 76.2116C279.122 77.0469 278.515 77.7694 277.773 78.3793C277.037 78.9825 276.195 79.4498 275.247 79.7812C274.299 80.1127 273.265 80.2784 272.145 80.2784C270.382 80.2784 268.811 79.8608 267.432 79.0256C266.053 78.1837 264.966 76.9806 264.17 75.4162C263.382 73.8518 262.987 71.9858 262.987 69.8182C262.987 67.6439 263.385 65.7779 264.18 64.2202C264.976 62.6558 266.063 61.456 267.442 60.6207C268.821 59.7789 270.388 59.358 272.145 59.358C273.225 59.358 274.233 59.5137 275.168 59.8253C276.109 60.1302 276.954 60.581 277.703 61.1776C278.452 61.7675 279.072 62.4901 279.562 63.3452C280.053 64.1937 280.384 65.1648 280.557 66.2585ZM285.817 80H282.555L289.884 59.6364H293.433L300.761 80H297.5L291.743 63.3352H291.584L285.817 80ZM286.364 72.0256H296.943V74.6108H286.364V72.0256ZM303.702 80V59.6364H306.775V77.3551H316.002V80H303.702ZM54.1506 100.259H51.0483C50.929 99.5956 50.7069 99.0123 50.3821 98.5085C50.0573 98.0047 49.6596 97.5772 49.1889 97.2259C48.7183 96.8745 48.1913 96.6094 47.608 96.4304C47.0313 96.2514 46.4181 96.1619 45.7685 96.1619C44.5952 96.1619 43.5445 96.4569 42.6165 97.0469C41.6951 97.6368 40.9659 98.5019 40.429 99.642C39.8987 100.782 39.6335 102.174 39.6335 103.818C39.6335 105.475 39.8987 106.874 40.429 108.014C40.9659 109.154 41.6984 110.016 42.6264 110.599C43.5545 111.183 44.5985 111.474 45.7585 111.474C46.4015 111.474 47.0114 111.388 47.5881 111.216C48.1714 111.037 48.6984 110.775 49.169 110.43C49.6397 110.086 50.0374 109.665 50.3622 109.168C50.6937 108.664 50.9223 108.087 51.0483 107.438L54.1506 107.447C53.9848 108.448 53.6634 109.37 53.1861 110.212C52.7154 111.047 52.1089 111.769 51.3665 112.379C50.6307 112.982 49.7888 113.45 48.8409 113.781C47.893 114.113 46.8589 114.278 45.7386 114.278C43.9754 114.278 42.4044 113.861 41.0256 113.026C39.6468 112.184 38.5597 110.981 37.7642 109.416C36.9754 107.852 36.581 105.986 36.581 103.818C36.581 101.644 36.9787 99.7779 37.7741 98.2202C38.5696 96.6558 39.6567 95.456 41.0355 94.6207C42.4143 93.7789 43.982 93.358 45.7386 93.358C46.8191 93.358 47.8267 93.5137 48.7614 93.8253C49.7027 94.1302 50.5478 94.581 51.2969 95.1776C52.0459 95.7675 52.6657 96.4901 53.1562 97.3452C53.6468 98.1937 53.9782 99.1648 54.1506 100.259ZM75.516 103.818C75.516 105.992 75.1183 107.862 74.3228 109.426C73.5273 110.984 72.4369 112.184 71.0515 113.026C69.6727 113.861 68.105 114.278 66.3484 114.278C64.5851 114.278 63.0108 113.861 61.6254 113.026C60.2466 112.184 59.1594 110.981 58.364 109.416C57.5685 107.852 57.1708 105.986 57.1708 103.818C57.1708 101.644 57.5685 99.7779 58.364 98.2202C59.1594 96.6558 60.2466 95.456 61.6254 94.6207C63.0108 93.7789 64.5851 93.358 66.3484 93.358C68.105 93.358 69.6727 93.7789 71.0515 94.6207C72.4369 95.456 73.5273 96.6558 74.3228 98.2202C75.1183 99.7779 75.516 101.644 75.516 103.818ZM72.4734 103.818C72.4734 102.161 72.2049 100.766 71.668 99.6321C71.1377 98.492 70.4085 97.6302 69.4805 97.0469C68.5591 96.4569 67.515 96.1619 66.3484 96.1619C65.1751 96.1619 64.1277 96.4569 63.2063 97.0469C62.2849 97.6302 61.5558 98.492 61.0188 99.6321C60.4885 100.766 60.2234 102.161 60.2234 103.818C60.2234 105.475 60.4885 106.874 61.0188 108.014C61.5558 109.148 62.2849 110.009 63.2063 110.599C64.1277 111.183 65.1751 111.474 66.3484 111.474C67.515 111.474 68.5591 111.183 69.4805 110.599C70.4085 110.009 71.1377 109.148 71.668 108.014C72.2049 106.874 72.4734 105.475 72.4734 103.818ZM80.1147 93.6364L85.7823 110.222H86.011L91.6786 93.6364H94.9996L87.6715 114H84.1218L76.7937 93.6364H80.1147ZM97.9403 114V93.6364H110.707V96.2812H101.013V102.486H110.041V105.121H101.013V111.355H110.827V114H97.9403ZM114.811 114V93.6364H122.07C123.648 93.6364 124.957 93.9081 125.998 94.4517C127.045 94.9953 127.827 95.7476 128.344 96.7088C128.861 97.6634 129.12 98.767 129.12 100.02C129.12 101.266 128.858 102.363 128.334 103.311C127.817 104.252 127.035 104.985 125.988 105.509C124.947 106.032 123.638 106.294 122.06 106.294H116.561V103.649H121.782C122.776 103.649 123.585 103.507 124.208 103.222C124.837 102.937 125.298 102.522 125.59 101.979C125.882 101.435 126.027 100.782 126.027 100.02C126.027 99.2509 125.878 98.5848 125.58 98.0213C125.288 97.4579 124.828 97.027 124.198 96.7287C123.575 96.4238 122.756 96.2713 121.742 96.2713H117.884V114H114.811ZM124.864 104.812L129.895 114H126.395L121.463 104.812H124.864ZM134.578 114H131.317L138.645 93.6364H142.195L149.523 114H146.262L140.505 97.3352H140.346L134.578 114ZM135.125 106.026H145.705V108.611H135.125V106.026ZM165.288 100.07C165.096 99.4664 164.837 98.9261 164.512 98.4489C164.194 97.965 163.813 97.554 163.369 97.2159C162.925 96.8712 162.418 96.6094 161.848 96.4304C161.284 96.2514 160.664 96.1619 159.988 96.1619C158.842 96.1619 157.807 96.4569 156.886 97.0469C155.965 97.6368 155.235 98.5019 154.699 99.642C154.168 100.776 153.903 102.164 153.903 103.808C153.903 105.459 154.172 106.854 154.708 107.994C155.245 109.134 155.981 110 156.916 110.589C157.85 111.179 158.914 111.474 160.108 111.474C161.215 111.474 162.179 111.249 163.001 110.798C163.83 110.348 164.469 109.711 164.92 108.889C165.377 108.061 165.606 107.086 165.606 105.966L166.402 106.115H160.575V103.58H168.579V105.896C168.579 107.607 168.215 109.091 167.485 110.351C166.763 111.604 165.762 112.571 164.483 113.254C163.21 113.937 161.752 114.278 160.108 114.278C158.265 114.278 156.647 113.854 155.255 113.006C153.87 112.157 152.789 110.954 152.014 109.396C151.238 107.832 150.85 105.976 150.85 103.828C150.85 102.204 151.076 100.746 151.527 99.4531C151.977 98.1605 152.61 97.0634 153.426 96.1619C154.248 95.2538 155.212 94.5611 156.319 94.0838C157.433 93.5999 158.649 93.358 159.968 93.358C161.069 93.358 162.093 93.5204 163.041 93.8452C163.995 94.17 164.844 94.6307 165.586 95.2273C166.335 95.8239 166.955 96.5331 167.446 97.3551C167.936 98.1705 168.268 99.0753 168.44 100.07H165.288ZM172.479 114V93.6364H185.246V96.2812H175.552V102.486H184.58V105.121H175.552V111.355H185.366V114H172.479ZM40.3097 127.636V148H37.2372V127.636H40.3097ZM61.2202 127.636V148H58.3963L48.0455 133.065H47.8565V148H44.7841V127.636H47.6278L57.9886 142.591H58.1776V127.636H61.2202ZM76.8086 132.986C76.7025 132.045 76.265 131.315 75.4961 130.798C74.7272 130.275 73.7594 130.013 72.5927 130.013C71.7575 130.013 71.0349 130.145 70.4251 130.411C69.8152 130.669 69.3413 131.027 69.0032 131.484C68.6718 131.935 68.506 132.449 68.506 133.026C68.506 133.509 68.6187 133.927 68.8441 134.278C69.0761 134.63 69.3777 134.925 69.7489 135.163C70.1268 135.395 70.5311 135.591 70.962 135.75C71.3929 135.902 71.8072 136.028 72.2049 136.128L74.1935 136.645C74.8432 136.804 75.5094 137.019 76.1921 137.291C76.8749 137.563 77.5079 137.921 78.0913 138.365C78.6746 138.809 79.1452 139.359 79.5032 140.016C79.8678 140.672 80.0501 141.457 80.0501 142.372C80.0501 143.526 79.7518 144.55 79.1552 145.445C78.5652 146.339 77.7068 147.045 76.5799 147.562C75.4596 148.08 74.104 148.338 72.5131 148.338C70.9885 148.338 69.6694 148.096 68.5558 147.612C67.4421 147.128 66.5704 146.442 65.9407 145.554C65.311 144.659 64.9629 143.598 64.8967 142.372H67.979C68.0387 143.108 68.2773 143.721 68.695 144.212C69.1192 144.696 69.6594 145.057 70.3157 145.295C70.9786 145.527 71.7044 145.643 72.4933 145.643C73.3616 145.643 74.1339 145.508 74.81 145.236C75.4928 144.957 76.0297 144.573 76.4208 144.082C76.8119 143.585 77.0075 143.005 77.0075 142.342C77.0075 141.739 76.8351 141.245 76.4904 140.861C76.1523 140.476 75.6916 140.158 75.1083 139.906C74.5316 139.654 73.8787 139.432 73.1495 139.24L70.7433 138.584C69.1126 138.14 67.82 137.487 66.8654 136.625C65.9175 135.763 65.4435 134.623 65.4435 133.205C65.4435 132.031 65.7617 131.007 66.3981 130.132C67.0344 129.257 67.8962 128.578 68.9833 128.094C70.0704 127.603 71.2968 127.358 72.6623 127.358C74.0411 127.358 75.2575 127.6 76.3114 128.084C77.372 128.568 78.2073 129.234 78.8171 130.082C79.427 130.924 79.7451 131.892 79.7717 132.986H76.8086ZM96.8168 127.636H99.8991V141.03C99.8991 142.455 99.5644 143.718 98.8949 144.818C98.2254 145.912 97.2841 146.774 96.071 147.403C94.858 148.027 93.4361 148.338 91.8054 148.338C90.1813 148.338 88.7628 148.027 87.5497 147.403C86.3366 146.774 85.3954 145.912 84.7259 144.818C84.0563 143.718 83.7216 142.455 83.7216 141.03V127.636H86.794V140.781C86.794 141.703 86.9962 142.521 87.4006 143.237C87.8116 143.953 88.3916 144.517 89.1406 144.928C89.8897 145.332 90.7779 145.534 91.8054 145.534C92.8395 145.534 93.7311 145.332 94.4801 144.928C95.2358 144.517 95.8125 143.953 96.2102 143.237C96.6146 142.521 96.8168 141.703 96.8168 140.781V127.636ZM104.366 148V127.636H111.625C113.202 127.636 114.511 127.908 115.552 128.452C116.6 128.995 117.382 129.748 117.899 130.709C118.416 131.663 118.674 132.767 118.674 134.02C118.674 135.266 118.413 136.363 117.889 137.311C117.372 138.252 116.59 138.985 115.542 139.509C114.502 140.032 113.192 140.294 111.615 140.294H106.116V137.649H111.336C112.331 137.649 113.139 137.507 113.762 137.222C114.392 136.937 114.853 136.522 115.145 135.979C115.436 135.435 115.582 134.782 115.582 134.02C115.582 133.251 115.433 132.585 115.135 132.021C114.843 131.458 114.382 131.027 113.752 130.729C113.129 130.424 112.311 130.271 111.297 130.271H107.439V148H104.366ZM114.419 138.812L119.45 148H115.95L111.018 138.812H114.419ZM124.133 148H120.872L128.2 127.636H131.75L139.078 148H135.816L130.059 131.335H129.9L124.133 148ZM124.68 140.026H135.26V142.611H124.68V140.026ZM158.455 127.636V148H155.631L145.28 133.065H145.091V148H142.018V127.636H144.862L155.223 142.591H155.412V127.636H158.455ZM179.85 134.259H176.748C176.628 133.596 176.406 133.012 176.081 132.509C175.757 132.005 175.359 131.577 174.888 131.226C174.417 130.875 173.891 130.609 173.307 130.43C172.73 130.251 172.117 130.162 171.468 130.162C170.294 130.162 169.244 130.457 168.316 131.047C167.394 131.637 166.665 132.502 166.128 133.642C165.598 134.782 165.333 136.174 165.333 137.818C165.333 139.475 165.598 140.874 166.128 142.014C166.665 143.154 167.398 144.016 168.326 144.599C169.254 145.183 170.298 145.474 171.458 145.474C172.101 145.474 172.711 145.388 173.287 145.216C173.871 145.037 174.398 144.775 174.868 144.43C175.339 144.086 175.737 143.665 176.061 143.168C176.393 142.664 176.622 142.087 176.748 141.438L179.85 141.447C179.684 142.448 179.363 143.37 178.885 144.212C178.415 145.047 177.808 145.769 177.066 146.379C176.33 146.982 175.488 147.45 174.54 147.781C173.592 148.113 172.558 148.278 171.438 148.278C169.675 148.278 168.104 147.861 166.725 147.026C165.346 146.184 164.259 144.981 163.463 143.416C162.675 141.852 162.28 139.986 162.28 137.818C162.28 135.644 162.678 133.778 163.473 132.22C164.269 130.656 165.356 129.456 166.735 128.621C168.114 127.779 169.681 127.358 171.438 127.358C172.518 127.358 173.526 127.514 174.461 127.825C175.402 128.13 176.247 128.581 176.996 129.178C177.745 129.768 178.365 130.49 178.855 131.345C179.346 132.194 179.677 133.165 179.85 134.259ZM183.526 148V127.636H196.293V130.281H186.599V136.486H195.627V139.121H186.599V145.355H196.413V148H183.526Z" fill="white"/>
<path d="M38.5568 193L35.3295 181.364H37.1761L39.4432 190.375H39.5511L41.9091 181.364H43.7386L46.0966 190.381H46.2045L48.4659 181.364H50.3182L47.0852 193H45.3182L42.8693 184.284H42.7784L40.3295 193H38.5568ZM53.4815 187.818V193H51.7827V181.364H53.4588V185.693H53.5668C53.7713 185.223 54.0838 184.85 54.5043 184.574C54.9247 184.297 55.474 184.159 56.152 184.159C56.7505 184.159 57.2732 184.282 57.7202 184.528C58.1709 184.775 58.5194 185.142 58.7656 185.631C59.0156 186.116 59.1406 186.722 59.1406 187.449V193H57.4418V187.653C57.4418 187.013 57.277 186.517 56.9474 186.165C56.6179 185.809 56.1596 185.631 55.5724 185.631C55.1709 185.631 54.8111 185.716 54.4929 185.886C54.1785 186.057 53.9304 186.307 53.7486 186.636C53.5705 186.962 53.4815 187.356 53.4815 187.818ZM63.9474 193.193C63.3944 193.193 62.8944 193.091 62.4474 192.886C62.0005 192.678 61.6463 192.377 61.3849 191.983C61.1274 191.589 60.9986 191.106 60.9986 190.534C60.9986 190.042 61.0933 189.636 61.2827 189.318C61.4721 189 61.7277 188.748 62.0497 188.562C62.3717 188.377 62.7315 188.237 63.1293 188.142C63.527 188.047 63.9323 187.975 64.3452 187.926C64.8679 187.866 65.2921 187.816 65.6179 187.778C65.9437 187.737 66.1804 187.67 66.3281 187.58C66.4759 187.489 66.5497 187.341 66.5497 187.136V187.097C66.5497 186.6 66.4096 186.216 66.1293 185.943C65.8527 185.67 65.4399 185.534 64.8906 185.534C64.3187 185.534 63.8679 185.661 63.5384 185.915C63.2126 186.165 62.9872 186.443 62.8622 186.75L61.2656 186.386C61.455 185.856 61.7315 185.428 62.0952 185.102C62.4626 184.773 62.8849 184.534 63.3622 184.386C63.8395 184.235 64.3414 184.159 64.8679 184.159C65.2164 184.159 65.5857 184.201 65.9759 184.284C66.3698 184.364 66.7372 184.511 67.0781 184.727C67.4228 184.943 67.705 185.252 67.9247 185.653C68.1444 186.051 68.2543 186.568 68.2543 187.205V193H66.5952V191.807H66.527C66.4171 192.027 66.2524 192.242 66.0327 192.455C65.813 192.667 65.5308 192.843 65.1861 192.983C64.8414 193.123 64.4285 193.193 63.9474 193.193ZM64.3168 191.83C64.7865 191.83 65.188 191.737 65.5213 191.551C65.8584 191.366 66.1141 191.123 66.2884 190.824C66.4664 190.521 66.5554 190.197 66.5554 189.852V188.727C66.4948 188.788 66.3774 188.845 66.2031 188.898C66.0327 188.947 65.8376 188.991 65.6179 189.028C65.3982 189.062 65.1842 189.095 64.9759 189.125C64.7675 189.152 64.5933 189.174 64.4531 189.193C64.1236 189.235 63.8224 189.305 63.5497 189.403C63.2808 189.502 63.0649 189.644 62.902 189.83C62.7429 190.011 62.6634 190.254 62.6634 190.557C62.6634 190.977 62.8187 191.295 63.1293 191.511C63.4399 191.723 63.8357 191.83 64.3168 191.83ZM74.5909 184.273V185.636H69.8239V184.273H74.5909ZM71.1023 182.182H72.8011V190.438C72.8011 190.767 72.8504 191.015 72.9489 191.182C73.0473 191.345 73.1742 191.456 73.3295 191.517C73.4886 191.574 73.661 191.602 73.8466 191.602C73.983 191.602 74.1023 191.593 74.2045 191.574C74.3068 191.555 74.3864 191.54 74.4432 191.528L74.75 192.932C74.6515 192.97 74.5114 193.008 74.3295 193.045C74.1477 193.087 73.9205 193.11 73.6477 193.114C73.2008 193.121 72.7841 193.042 72.3977 192.875C72.0114 192.708 71.6989 192.451 71.4602 192.102C71.2216 191.754 71.1023 191.316 71.1023 190.79V182.182ZM82.5966 181.364V193H80.8409V181.364H82.5966ZM91.5568 186.403L90.017 186.676C89.9527 186.479 89.8504 186.292 89.7102 186.114C89.5739 185.936 89.3883 185.79 89.1534 185.676C88.9186 185.562 88.625 185.506 88.2727 185.506C87.7917 185.506 87.3902 185.614 87.0682 185.83C86.7462 186.042 86.5852 186.316 86.5852 186.653C86.5852 186.945 86.6932 187.18 86.9091 187.358C87.125 187.536 87.4735 187.682 87.9545 187.795L89.3409 188.114C90.1439 188.299 90.7424 188.585 91.1364 188.972C91.5303 189.358 91.7273 189.86 91.7273 190.477C91.7273 191 91.5758 191.466 91.2727 191.875C90.9735 192.28 90.5549 192.598 90.017 192.83C89.483 193.061 88.8636 193.176 88.1591 193.176C87.1818 193.176 86.3845 192.968 85.767 192.551C85.1496 192.131 84.7708 191.534 84.6307 190.761L86.2727 190.511C86.375 190.939 86.5852 191.263 86.9034 191.483C87.2216 191.699 87.6364 191.807 88.1477 191.807C88.7045 191.807 89.1496 191.691 89.483 191.46C89.8163 191.225 89.983 190.939 89.983 190.602C89.983 190.33 89.8807 190.1 89.6761 189.915C89.4754 189.729 89.1667 189.589 88.75 189.494L87.2727 189.17C86.4583 188.985 85.8561 188.689 85.4659 188.284C85.0795 187.879 84.8864 187.366 84.8864 186.744C84.8864 186.229 85.0303 185.778 85.3182 185.392C85.6061 185.006 86.0038 184.705 86.5114 184.489C87.0189 184.269 87.6004 184.159 88.2557 184.159C89.1989 184.159 89.9413 184.364 90.483 184.773C91.0246 185.178 91.3826 185.722 91.5568 186.403ZM108.074 187.182C108.074 188.424 107.847 189.492 107.392 190.386C106.938 191.277 106.314 191.962 105.523 192.443C104.735 192.92 103.839 193.159 102.835 193.159C101.828 193.159 100.928 192.92 100.136 192.443C99.3485 191.962 98.7273 191.275 98.2727 190.381C97.8182 189.487 97.5909 188.42 97.5909 187.182C97.5909 185.939 97.8182 184.873 98.2727 183.983C98.7273 183.089 99.3485 182.403 100.136 181.926C100.928 181.445 101.828 181.205 102.835 181.205C103.839 181.205 104.735 181.445 105.523 181.926C106.314 182.403 106.938 183.089 107.392 183.983C107.847 184.873 108.074 185.939 108.074 187.182ZM106.335 187.182C106.335 186.235 106.182 185.437 105.875 184.79C105.572 184.138 105.155 183.646 104.625 183.312C104.098 182.975 103.502 182.807 102.835 182.807C102.165 182.807 101.566 182.975 101.04 183.312C100.513 183.646 100.097 184.138 99.7898 184.79C99.4867 185.437 99.3352 186.235 99.3352 187.182C99.3352 188.129 99.4867 188.928 99.7898 189.58C100.097 190.227 100.513 190.72 101.04 191.057C101.566 191.39 102.165 191.557 102.835 191.557C103.502 191.557 104.098 191.39 104.625 191.057C105.155 190.72 105.572 190.227 105.875 189.58C106.182 188.928 106.335 188.129 106.335 187.182ZM110.263 193V181.364H114.411C115.316 181.364 116.066 181.528 116.661 181.858C117.255 182.187 117.7 182.638 117.996 183.21C118.291 183.778 118.439 184.419 118.439 185.131C118.439 185.847 118.289 186.491 117.99 187.062C117.695 187.631 117.248 188.081 116.649 188.415C116.054 188.744 115.306 188.909 114.405 188.909H111.553V187.42H114.246C114.818 187.42 115.282 187.322 115.638 187.125C115.994 186.924 116.255 186.652 116.422 186.307C116.589 185.962 116.672 185.57 116.672 185.131C116.672 184.691 116.589 184.301 116.422 183.96C116.255 183.619 115.992 183.352 115.632 183.159C115.276 182.966 114.806 182.869 114.223 182.869H112.018V193H110.263ZM124.264 193H120.497V181.364H124.384C125.524 181.364 126.503 181.597 127.321 182.062C128.139 182.525 128.766 183.189 129.202 184.057C129.641 184.92 129.861 185.956 129.861 187.165C129.861 188.377 129.639 189.419 129.196 190.29C128.757 191.161 128.12 191.831 127.287 192.301C126.454 192.767 125.446 193 124.264 193ZM122.253 191.466H124.168C125.054 191.466 125.791 191.299 126.378 190.966C126.965 190.629 127.404 190.142 127.696 189.506C127.988 188.866 128.134 188.085 128.134 187.165C128.134 186.252 127.988 185.477 127.696 184.841C127.408 184.205 126.978 183.722 126.406 183.392C125.834 183.062 125.124 182.898 124.276 182.898H122.253V191.466ZM133.027 191.557C132.716 191.557 132.449 191.447 132.226 191.227C132.002 191.004 131.891 190.735 131.891 190.42C131.891 190.11 132.002 189.845 132.226 189.625C132.449 189.402 132.716 189.29 133.027 189.29C133.338 189.29 133.605 189.402 133.828 189.625C134.052 189.845 134.163 190.11 134.163 190.42C134.163 190.629 134.11 190.82 134.004 190.994C133.902 191.165 133.766 191.301 133.595 191.403C133.425 191.506 133.235 191.557 133.027 191.557ZM133.027 185.727C132.716 185.727 132.449 185.617 132.226 185.398C132.002 185.174 131.891 184.905 131.891 184.591C131.891 184.28 132.002 184.015 132.226 183.795C132.449 183.572 132.716 183.46 133.027 183.46C133.338 183.46 133.605 183.572 133.828 183.795C134.052 184.015 134.163 184.28 134.163 184.591C134.163 184.799 134.11 184.991 134.004 185.165C133.902 185.335 133.766 185.472 133.595 185.574C133.425 185.676 133.235 185.727 133.027 185.727ZM140.81 193V181.364H148.026V182.875H142.565V186.42H147.509V187.926H142.565V193H140.81ZM155.03 189.381V184.273H156.734V193H155.064V191.489H154.973C154.772 191.955 154.45 192.343 154.007 192.653C153.568 192.96 153.02 193.114 152.365 193.114C151.804 193.114 151.308 192.991 150.876 192.744C150.448 192.494 150.111 192.125 149.865 191.636C149.623 191.148 149.501 190.544 149.501 189.824V184.273H151.2V189.619C151.2 190.214 151.365 190.687 151.695 191.04C152.024 191.392 152.452 191.568 152.979 191.568C153.297 191.568 153.613 191.489 153.928 191.33C154.246 191.17 154.509 190.93 154.717 190.608C154.929 190.286 155.034 189.877 155.03 189.381ZM160.716 181.364V193H159.017V181.364H160.716ZM164.7 181.364V193H163.001V181.364H164.7ZM171.357 193V181.364H178.572V182.875H173.112V186.42H178.055V187.926H173.112V193H171.357ZM183.631 193.176C182.813 193.176 182.098 192.989 181.489 192.614C180.879 192.239 180.405 191.714 180.068 191.04C179.731 190.366 179.562 189.578 179.562 188.676C179.562 187.771 179.731 186.979 180.068 186.301C180.405 185.623 180.879 185.097 181.489 184.722C182.098 184.347 182.813 184.159 183.631 184.159C184.449 184.159 185.163 184.347 185.773 184.722C186.383 185.097 186.856 185.623 187.193 186.301C187.53 186.979 187.699 187.771 187.699 188.676C187.699 189.578 187.53 190.366 187.193 191.04C186.856 191.714 186.383 192.239 185.773 192.614C185.163 192.989 184.449 193.176 183.631 193.176ZM183.636 191.75C184.167 191.75 184.606 191.61 184.955 191.33C185.303 191.049 185.561 190.676 185.727 190.21C185.898 189.744 185.983 189.231 185.983 188.67C185.983 188.114 185.898 187.602 185.727 187.136C185.561 186.667 185.303 186.29 184.955 186.006C184.606 185.722 184.167 185.58 183.636 185.58C183.102 185.58 182.659 185.722 182.307 186.006C181.958 186.29 181.699 186.667 181.528 187.136C181.362 187.602 181.278 188.114 181.278 188.67C181.278 189.231 181.362 189.744 181.528 190.21C181.699 190.676 181.958 191.049 182.307 191.33C182.659 191.61 183.102 191.75 183.636 191.75ZM189.595 193V184.273H191.237V185.659H191.328C191.487 185.189 191.768 184.82 192.169 184.551C192.574 184.278 193.033 184.142 193.544 184.142C193.65 184.142 193.775 184.146 193.919 184.153C194.067 184.161 194.182 184.17 194.266 184.182V185.807C194.197 185.788 194.076 185.767 193.902 185.744C193.728 185.718 193.554 185.705 193.379 185.705C192.978 185.705 192.62 185.79 192.305 185.96C191.995 186.127 191.749 186.36 191.567 186.659C191.385 186.955 191.294 187.292 191.294 187.67V193H189.595ZM195.736 193V184.273H197.366V185.693H197.474C197.656 185.212 197.954 184.837 198.366 184.568C198.779 184.295 199.274 184.159 199.849 184.159C200.433 184.159 200.921 184.295 201.315 184.568C201.713 184.841 202.007 185.216 202.196 185.693H202.287C202.495 185.227 202.827 184.856 203.281 184.58C203.736 184.299 204.277 184.159 204.906 184.159C205.698 184.159 206.344 184.407 206.844 184.903C207.348 185.4 207.599 186.148 207.599 187.148V193H205.901V187.307C205.901 186.716 205.74 186.288 205.418 186.023C205.096 185.758 204.711 185.625 204.264 185.625C203.711 185.625 203.281 185.795 202.974 186.136C202.668 186.473 202.514 186.907 202.514 187.438V193H200.821V187.199C200.821 186.725 200.673 186.345 200.378 186.057C200.082 185.769 199.698 185.625 199.224 185.625C198.902 185.625 198.605 185.71 198.332 185.881C198.063 186.047 197.846 186.28 197.679 186.58C197.516 186.879 197.435 187.225 197.435 187.619V193H195.736ZM215.23 193H213.366L217.554 181.364H219.582L223.77 193H221.906L218.616 183.477H218.526L215.23 193ZM215.543 188.443H221.588V189.92H215.543V188.443ZM227.013 187.818V193H225.314V184.273H226.945V185.693H227.053C227.253 185.231 227.568 184.86 227.996 184.58C228.428 184.299 228.971 184.159 229.626 184.159C230.221 184.159 230.742 184.284 231.189 184.534C231.636 184.78 231.982 185.148 232.229 185.636C232.475 186.125 232.598 186.729 232.598 187.449V193H230.899V187.653C230.899 187.021 230.734 186.527 230.405 186.17C230.075 185.811 229.623 185.631 229.047 185.631C228.653 185.631 228.303 185.716 227.996 185.886C227.693 186.057 227.452 186.307 227.274 186.636C227.1 186.962 227.013 187.356 227.013 187.818ZM238.143 193.17C237.439 193.17 236.81 192.991 236.257 192.631C235.708 192.267 235.276 191.75 234.962 191.08C234.651 190.405 234.496 189.597 234.496 188.653C234.496 187.71 234.653 186.903 234.967 186.233C235.286 185.562 235.721 185.049 236.274 184.693C236.827 184.337 237.454 184.159 238.155 184.159C238.696 184.159 239.132 184.25 239.462 184.432C239.795 184.61 240.053 184.818 240.234 185.057C240.42 185.295 240.564 185.506 240.666 185.688H240.768V181.364H242.467V193H240.808V191.642H240.666C240.564 191.828 240.416 192.04 240.223 192.278C240.034 192.517 239.772 192.725 239.439 192.903C239.106 193.081 238.674 193.17 238.143 193.17ZM238.518 191.722C239.007 191.722 239.42 191.593 239.757 191.335C240.098 191.074 240.356 190.712 240.53 190.25C240.708 189.788 240.797 189.25 240.797 188.636C240.797 188.03 240.71 187.5 240.536 187.045C240.361 186.591 240.106 186.237 239.768 185.983C239.431 185.729 239.015 185.602 238.518 185.602C238.007 185.602 237.581 185.735 237.24 186C236.899 186.265 236.642 186.627 236.467 187.085C236.297 187.544 236.212 188.061 236.212 188.636C236.212 189.22 236.299 189.744 236.473 190.21C236.647 190.676 236.905 191.045 237.246 191.318C237.59 191.587 238.015 191.722 238.518 191.722ZM36.2784 200.364H38.4091L42.1136 209.409H42.25L45.9545 200.364H48.0852V212H46.4148V203.58H46.3068L42.875 211.983H41.4886L38.0568 203.574H37.9489V212H36.2784V200.364ZM54.2628 212.176C53.4029 212.176 52.6624 211.992 52.0412 211.625C51.4238 211.254 50.9465 210.733 50.6094 210.062C50.276 209.388 50.1094 208.598 50.1094 207.693C50.1094 206.799 50.276 206.011 50.6094 205.33C50.9465 204.648 51.4162 204.116 52.0185 203.733C52.6245 203.35 53.3329 203.159 54.1435 203.159C54.6359 203.159 55.1132 203.241 55.5753 203.403C56.0374 203.566 56.4522 203.822 56.8196 204.17C57.187 204.519 57.4768 204.972 57.6889 205.528C57.901 206.081 58.0071 206.754 58.0071 207.545V208.148H51.0696V206.875H56.3423C56.3423 206.428 56.2514 206.032 56.0696 205.688C55.8878 205.339 55.6321 205.064 55.3026 204.864C54.9768 204.663 54.5942 204.562 54.1548 204.562C53.6776 204.562 53.2609 204.68 52.9048 204.915C52.5526 205.146 52.2798 205.449 52.0866 205.824C51.8973 206.195 51.8026 206.598 51.8026 207.034V208.028C51.8026 208.612 51.9048 209.108 52.1094 209.517C52.3177 209.926 52.6075 210.239 52.9787 210.455C53.3499 210.667 53.7836 210.773 54.2798 210.773C54.6018 210.773 54.8954 210.727 55.1605 210.636C55.4257 210.542 55.6548 210.402 55.848 210.216C56.0412 210.03 56.1889 209.801 56.2912 209.528L57.8991 209.818C57.7704 210.292 57.5393 210.706 57.206 211.062C56.8764 211.415 56.4616 211.689 55.9616 211.886C55.4654 212.08 54.8991 212.176 54.2628 212.176ZM63.1591 212.17C62.4545 212.17 61.8258 211.991 61.2727 211.631C60.7235 211.267 60.2917 210.75 59.9773 210.08C59.6667 209.405 59.5114 208.597 59.5114 207.653C59.5114 206.71 59.6686 205.903 59.983 205.233C60.3011 204.562 60.7367 204.049 61.2898 203.693C61.8428 203.337 62.4697 203.159 63.1705 203.159C63.7121 203.159 64.1477 203.25 64.4773 203.432C64.8106 203.61 65.0682 203.818 65.25 204.057C65.4356 204.295 65.5795 204.506 65.6818 204.688H65.7841V200.364H67.483V212H65.8239V210.642H65.6818C65.5795 210.828 65.4318 211.04 65.2386 211.278C65.0492 211.517 64.7879 211.725 64.4545 211.903C64.1212 212.081 63.6894 212.17 63.1591 212.17ZM63.5341 210.722C64.0227 210.722 64.4356 210.593 64.7727 210.335C65.1136 210.074 65.3712 209.712 65.5455 209.25C65.7235 208.788 65.8125 208.25 65.8125 207.636C65.8125 207.03 65.7254 206.5 65.5511 206.045C65.3769 205.591 65.1212 205.237 64.7841 204.983C64.447 204.729 64.0303 204.602 63.5341 204.602C63.0227 204.602 62.5966 204.735 62.2557 205C61.9148 205.265 61.6572 205.627 61.483 206.085C61.3125 206.544 61.2273 207.061 61.2273 207.636C61.2273 208.22 61.3144 208.744 61.4886 209.21C61.6629 209.676 61.9205 210.045 62.2614 210.318C62.6061 210.587 63.0303 210.722 63.5341 210.722ZM69.9077 212V203.273H71.6065V212H69.9077ZM70.7656 201.926C70.4702 201.926 70.2164 201.828 70.0043 201.631C69.7959 201.43 69.6918 201.191 69.6918 200.915C69.6918 200.634 69.7959 200.396 70.0043 200.199C70.2164 199.998 70.4702 199.898 70.7656 199.898C71.0611 199.898 71.313 199.998 71.5213 200.199C71.7334 200.396 71.8395 200.634 71.8395 200.915C71.8395 201.191 71.7334 201.43 71.5213 201.631C71.313 201.828 71.0611 201.926 70.7656 201.926ZM77.5682 212.176C76.7235 212.176 75.9962 211.985 75.3864 211.602C74.7803 211.216 74.3144 210.684 73.9886 210.006C73.6629 209.328 73.5 208.551 73.5 207.676C73.5 206.79 73.6667 206.008 74 205.33C74.3333 204.648 74.803 204.116 75.4091 203.733C76.0152 203.35 76.7292 203.159 77.5511 203.159C78.214 203.159 78.8049 203.282 79.3239 203.528C79.8428 203.771 80.2614 204.112 80.5795 204.551C80.9015 204.991 81.0928 205.504 81.1534 206.091H79.5C79.4091 205.682 79.2008 205.33 78.875 205.034C78.553 204.739 78.1212 204.591 77.5795 204.591C77.1061 204.591 76.6913 204.716 76.3352 204.966C75.983 205.212 75.7083 205.564 75.5114 206.023C75.3144 206.477 75.2159 207.015 75.2159 207.636C75.2159 208.273 75.3125 208.822 75.5057 209.284C75.6989 209.746 75.9716 210.104 76.3239 210.358C76.6799 210.612 77.0985 210.739 77.5795 210.739C77.9015 210.739 78.1932 210.68 78.4545 210.562C78.7197 210.441 78.9413 210.269 79.1193 210.045C79.3011 209.822 79.428 209.553 79.5 209.239H81.1534C81.0928 209.803 80.9091 210.307 80.6023 210.75C80.2955 211.193 79.8845 211.542 79.3693 211.795C78.858 212.049 78.2576 212.176 77.5682 212.176ZM85.5099 212.193C84.9569 212.193 84.4569 212.091 84.0099 211.886C83.563 211.678 83.2088 211.377 82.9474 210.983C82.6899 210.589 82.5611 210.106 82.5611 209.534C82.5611 209.042 82.6558 208.636 82.8452 208.318C83.0346 208 83.2902 207.748 83.6122 207.562C83.9342 207.377 84.294 207.237 84.6918 207.142C85.0895 207.047 85.4948 206.975 85.9077 206.926C86.4304 206.866 86.8546 206.816 87.1804 206.778C87.5062 206.737 87.7429 206.67 87.8906 206.58C88.0384 206.489 88.1122 206.341 88.1122 206.136V206.097C88.1122 205.6 87.9721 205.216 87.6918 204.943C87.4152 204.67 87.0024 204.534 86.4531 204.534C85.8812 204.534 85.4304 204.661 85.1009 204.915C84.7751 205.165 84.5497 205.443 84.4247 205.75L82.8281 205.386C83.0175 204.856 83.294 204.428 83.6577 204.102C84.0251 203.773 84.4474 203.534 84.9247 203.386C85.402 203.235 85.9039 203.159 86.4304 203.159C86.7789 203.159 87.1482 203.201 87.5384 203.284C87.9323 203.364 88.2997 203.511 88.6406 203.727C88.9853 203.943 89.2675 204.252 89.4872 204.653C89.7069 205.051 89.8168 205.568 89.8168 206.205V212H88.1577V210.807H88.0895C87.9796 211.027 87.8149 211.242 87.5952 211.455C87.3755 211.667 87.0933 211.843 86.7486 211.983C86.4039 212.123 85.991 212.193 85.5099 212.193ZM85.8793 210.83C86.349 210.83 86.7505 210.737 87.0838 210.551C87.4209 210.366 87.6766 210.123 87.8509 209.824C88.0289 209.521 88.1179 209.197 88.1179 208.852V207.727C88.0573 207.788 87.9399 207.845 87.7656 207.898C87.5952 207.947 87.4001 207.991 87.1804 208.028C86.9607 208.062 86.7467 208.095 86.5384 208.125C86.33 208.152 86.1558 208.174 86.0156 208.193C85.6861 208.235 85.3849 208.305 85.1122 208.403C84.8433 208.502 84.6274 208.644 84.4645 208.83C84.3054 209.011 84.2259 209.254 84.2259 209.557C84.2259 209.977 84.3812 210.295 84.6918 210.511C85.0024 210.723 85.3982 210.83 85.8793 210.83ZM93.7784 200.364V212H92.0795V200.364H93.7784ZM110.099 204.148H108.327C108.259 203.769 108.132 203.436 107.946 203.148C107.76 202.86 107.533 202.616 107.264 202.415C106.995 202.214 106.694 202.062 106.361 201.96C106.031 201.858 105.681 201.807 105.31 201.807C104.639 201.807 104.039 201.975 103.509 202.312C102.982 202.65 102.565 203.144 102.259 203.795C101.955 204.447 101.804 205.242 101.804 206.182C101.804 207.129 101.955 207.928 102.259 208.58C102.565 209.231 102.984 209.723 103.514 210.057C104.045 210.39 104.641 210.557 105.304 210.557C105.671 210.557 106.02 210.508 106.349 210.409C106.683 210.307 106.984 210.157 107.253 209.96C107.522 209.763 107.749 209.523 107.935 209.239C108.124 208.951 108.255 208.621 108.327 208.25L110.099 208.256C110.005 208.828 109.821 209.354 109.548 209.835C109.279 210.312 108.933 210.725 108.509 211.074C108.088 211.419 107.607 211.686 107.065 211.875C106.524 212.064 105.933 212.159 105.293 212.159C104.285 212.159 103.387 211.92 102.599 211.443C101.812 210.962 101.19 210.275 100.736 209.381C100.285 208.487 100.06 207.42 100.06 206.182C100.06 204.939 100.287 203.873 100.741 202.983C101.196 202.089 101.817 201.403 102.605 200.926C103.393 200.445 104.289 200.205 105.293 200.205C105.91 200.205 106.486 200.294 107.02 200.472C107.558 200.646 108.041 200.903 108.469 201.244C108.897 201.581 109.251 201.994 109.531 202.483C109.812 202.968 110.001 203.523 110.099 204.148ZM115.74 212.176C114.922 212.176 114.208 211.989 113.598 211.614C112.988 211.239 112.515 210.714 112.178 210.04C111.84 209.366 111.672 208.578 111.672 207.676C111.672 206.771 111.84 205.979 112.178 205.301C112.515 204.623 112.988 204.097 113.598 203.722C114.208 203.347 114.922 203.159 115.74 203.159C116.558 203.159 117.272 203.347 117.882 203.722C118.492 204.097 118.965 204.623 119.303 205.301C119.64 205.979 119.808 206.771 119.808 207.676C119.808 208.578 119.64 209.366 119.303 210.04C118.965 210.714 118.492 211.239 117.882 211.614C117.272 211.989 116.558 212.176 115.74 212.176ZM115.746 210.75C116.276 210.75 116.715 210.61 117.064 210.33C117.412 210.049 117.67 209.676 117.837 209.21C118.007 208.744 118.092 208.231 118.092 207.67C118.092 207.114 118.007 206.602 117.837 206.136C117.67 205.667 117.412 205.29 117.064 205.006C116.715 204.722 116.276 204.58 115.746 204.58C115.212 204.58 114.768 204.722 114.416 205.006C114.068 205.29 113.808 205.667 113.638 206.136C113.471 206.602 113.388 207.114 113.388 207.67C113.388 208.231 113.471 208.744 113.638 209.21C113.808 209.676 114.068 210.049 114.416 210.33C114.768 210.61 115.212 210.75 115.746 210.75ZM128.874 203.273L125.709 212H123.891L120.72 203.273H122.544L124.754 209.989H124.845L127.05 203.273H128.874ZM133.935 212.176C133.075 212.176 132.334 211.992 131.713 211.625C131.096 211.254 130.618 210.733 130.281 210.062C129.948 209.388 129.781 208.598 129.781 207.693C129.781 206.799 129.948 206.011 130.281 205.33C130.618 204.648 131.088 204.116 131.69 203.733C132.296 203.35 133.005 203.159 133.815 203.159C134.308 203.159 134.785 203.241 135.247 203.403C135.709 203.566 136.124 203.822 136.491 204.17C136.859 204.519 137.149 204.972 137.361 205.528C137.573 206.081 137.679 206.754 137.679 207.545V208.148H130.741V206.875H136.014C136.014 206.428 135.923 206.032 135.741 205.688C135.56 205.339 135.304 205.064 134.974 204.864C134.649 204.663 134.266 204.562 133.827 204.562C133.349 204.562 132.933 204.68 132.577 204.915C132.224 205.146 131.952 205.449 131.759 205.824C131.569 206.195 131.474 206.598 131.474 207.034V208.028C131.474 208.612 131.577 209.108 131.781 209.517C131.99 209.926 132.279 210.239 132.651 210.455C133.022 210.667 133.455 210.773 133.952 210.773C134.274 210.773 134.567 210.727 134.832 210.636C135.098 210.542 135.327 210.402 135.52 210.216C135.713 210.03 135.861 209.801 135.963 209.528L137.571 209.818C137.442 210.292 137.211 210.706 136.878 211.062C136.548 211.415 136.134 211.689 135.634 211.886C135.137 212.08 134.571 212.176 133.935 212.176ZM139.564 212V203.273H141.206V204.659H141.297C141.456 204.189 141.736 203.82 142.138 203.551C142.543 203.278 143.001 203.142 143.513 203.142C143.619 203.142 143.744 203.146 143.888 203.153C144.036 203.161 144.151 203.17 144.234 203.182V204.807C144.166 204.788 144.045 204.767 143.871 204.744C143.696 204.718 143.522 204.705 143.348 204.705C142.946 204.705 142.589 204.79 142.274 204.96C141.964 205.127 141.717 205.36 141.536 205.659C141.354 205.955 141.263 206.292 141.263 206.67V212H139.564ZM148.166 212.193C147.613 212.193 147.113 212.091 146.666 211.886C146.219 211.678 145.865 211.377 145.604 210.983C145.346 210.589 145.217 210.106 145.217 209.534C145.217 209.042 145.312 208.636 145.501 208.318C145.691 208 145.946 207.748 146.268 207.562C146.59 207.377 146.95 207.237 147.348 207.142C147.746 207.047 148.151 206.975 148.564 206.926C149.087 206.866 149.511 206.816 149.837 206.778C150.162 206.737 150.399 206.67 150.547 206.58C150.695 206.489 150.768 206.341 150.768 206.136V206.097C150.768 205.6 150.628 205.216 150.348 204.943C150.071 204.67 149.659 204.534 149.109 204.534C148.537 204.534 148.087 204.661 147.757 204.915C147.431 205.165 147.206 205.443 147.081 205.75L145.484 205.386C145.674 204.856 145.95 204.428 146.314 204.102C146.681 203.773 147.104 203.534 147.581 203.386C148.058 203.235 148.56 203.159 149.087 203.159C149.435 203.159 149.804 203.201 150.195 203.284C150.589 203.364 150.956 203.511 151.297 203.727C151.642 203.943 151.924 204.252 152.143 204.653C152.363 205.051 152.473 205.568 152.473 206.205V212H150.814V210.807H150.746C150.636 211.027 150.471 211.242 150.251 211.455C150.032 211.667 149.75 211.843 149.405 211.983C149.06 212.123 148.647 212.193 148.166 212.193ZM148.536 210.83C149.005 210.83 149.407 210.737 149.74 210.551C150.077 210.366 150.333 210.123 150.507 209.824C150.685 209.521 150.774 209.197 150.774 208.852V207.727C150.714 207.788 150.596 207.845 150.422 207.898C150.251 207.947 150.056 207.991 149.837 208.028C149.617 208.062 149.403 208.095 149.195 208.125C148.986 208.152 148.812 208.174 148.672 208.193C148.342 208.235 148.041 208.305 147.768 208.403C147.5 208.502 147.284 208.644 147.121 208.83C146.962 209.011 146.882 209.254 146.882 209.557C146.882 209.977 147.037 210.295 147.348 210.511C147.659 210.723 148.054 210.83 148.536 210.83ZM158.395 215.455C157.702 215.455 157.105 215.364 156.605 215.182C156.109 215 155.704 214.759 155.389 214.46C155.075 214.161 154.84 213.833 154.685 213.477L156.145 212.875C156.247 213.042 156.384 213.218 156.554 213.403C156.728 213.593 156.963 213.754 157.259 213.886C157.558 214.019 157.942 214.085 158.412 214.085C159.056 214.085 159.588 213.928 160.009 213.614C160.429 213.303 160.639 212.807 160.639 212.125V210.409H160.531C160.429 210.595 160.281 210.801 160.088 211.028C159.899 211.256 159.637 211.453 159.304 211.619C158.971 211.786 158.537 211.869 158.003 211.869C157.313 211.869 156.692 211.708 156.139 211.386C155.59 211.061 155.154 210.581 154.832 209.949C154.514 209.312 154.355 208.53 154.355 207.602C154.355 206.674 154.512 205.879 154.827 205.216C155.145 204.553 155.58 204.045 156.134 203.693C156.687 203.337 157.313 203.159 158.014 203.159C158.556 203.159 158.993 203.25 159.327 203.432C159.66 203.61 159.92 203.818 160.105 204.057C160.295 204.295 160.44 204.506 160.543 204.688H160.668V203.273H162.332V212.193C162.332 212.943 162.158 213.559 161.81 214.04C161.461 214.521 160.99 214.877 160.395 215.108C159.804 215.339 159.137 215.455 158.395 215.455ZM158.378 210.46C158.866 210.46 159.279 210.347 159.616 210.119C159.957 209.888 160.215 209.559 160.389 209.131C160.567 208.699 160.656 208.182 160.656 207.58C160.656 206.992 160.569 206.475 160.395 206.028C160.221 205.581 159.965 205.233 159.628 204.983C159.291 204.729 158.874 204.602 158.378 204.602C157.866 204.602 157.44 204.735 157.099 205C156.759 205.261 156.501 205.617 156.327 206.068C156.156 206.519 156.071 207.023 156.071 207.58C156.071 208.152 156.158 208.653 156.332 209.085C156.507 209.517 156.764 209.854 157.105 210.097C157.45 210.339 157.874 210.46 158.378 210.46ZM168.372 212.176C167.512 212.176 166.772 211.992 166.151 211.625C165.533 211.254 165.056 210.733 164.719 210.062C164.385 209.388 164.219 208.598 164.219 207.693C164.219 206.799 164.385 206.011 164.719 205.33C165.056 204.648 165.526 204.116 166.128 203.733C166.734 203.35 167.442 203.159 168.253 203.159C168.745 203.159 169.223 203.241 169.685 203.403C170.147 203.566 170.562 203.822 170.929 204.17C171.296 204.519 171.586 204.972 171.798 205.528C172.01 206.081 172.116 206.754 172.116 207.545V208.148H165.179V206.875H170.452C170.452 206.428 170.361 206.032 170.179 205.688C169.997 205.339 169.741 205.064 169.412 204.864C169.086 204.663 168.704 204.562 168.264 204.562C167.787 204.562 167.37 204.68 167.014 204.915C166.662 205.146 166.389 205.449 166.196 205.824C166.007 206.195 165.912 206.598 165.912 207.034V208.028C165.912 208.612 166.014 209.108 166.219 209.517C166.427 209.926 166.717 210.239 167.088 210.455C167.459 210.667 167.893 210.773 168.389 210.773C168.711 210.773 169.005 210.727 169.27 210.636C169.535 210.542 169.764 210.402 169.957 210.216C170.151 210.03 170.298 209.801 170.401 209.528L172.009 209.818C171.88 210.292 171.649 210.706 171.315 211.062C170.986 211.415 170.571 211.689 170.071 211.886C169.575 212.08 169.009 212.176 168.372 212.176ZM38.0341 219.364V231H36.2784V219.364H38.0341ZM42.1534 225.818V231H40.4545V222.273H42.0852V223.693H42.1932C42.3939 223.231 42.7083 222.86 43.1364 222.58C43.5682 222.299 44.1117 222.159 44.767 222.159C45.3617 222.159 45.8826 222.284 46.3295 222.534C46.7765 222.78 47.1231 223.148 47.3693 223.636C47.6155 224.125 47.7386 224.729 47.7386 225.449V231H46.0398V225.653C46.0398 225.021 45.875 224.527 45.5455 224.17C45.2159 223.811 44.7633 223.631 44.1875 223.631C43.7936 223.631 43.4432 223.716 43.1364 223.886C42.8333 224.057 42.5928 224.307 42.4148 224.636C42.2405 224.962 42.1534 225.356 42.1534 225.818ZM56.5568 224.403L55.017 224.676C54.9527 224.479 54.8504 224.292 54.7102 224.114C54.5739 223.936 54.3883 223.79 54.1534 223.676C53.9186 223.562 53.625 223.506 53.2727 223.506C52.7917 223.506 52.3902 223.614 52.0682 223.83C51.7462 224.042 51.5852 224.316 51.5852 224.653C51.5852 224.945 51.6932 225.18 51.9091 225.358C52.125 225.536 52.4735 225.682 52.9545 225.795L54.3409 226.114C55.1439 226.299 55.7424 226.585 56.1364 226.972C56.5303 227.358 56.7273 227.86 56.7273 228.477C56.7273 229 56.5758 229.466 56.2727 229.875C55.9735 230.28 55.5549 230.598 55.017 230.83C54.483 231.061 53.8636 231.176 53.1591 231.176C52.1818 231.176 51.3845 230.968 50.767 230.551C50.1496 230.131 49.7708 229.534 49.6307 228.761L51.2727 228.511C51.375 228.939 51.5852 229.263 51.9034 229.483C52.2216 229.699 52.6364 229.807 53.1477 229.807C53.7045 229.807 54.1496 229.691 54.483 229.46C54.8163 229.225 54.983 228.939 54.983 228.602C54.983 228.33 54.8807 228.1 54.6761 227.915C54.4754 227.729 54.1667 227.589 53.75 227.494L52.2727 227.17C51.4583 226.985 50.8561 226.689 50.4659 226.284C50.0795 225.879 49.8864 225.366 49.8864 224.744C49.8864 224.229 50.0303 223.778 50.3182 223.392C50.6061 223.006 51.0038 222.705 51.5114 222.489C52.0189 222.269 52.6004 222.159 53.2557 222.159C54.1989 222.159 54.9413 222.364 55.483 222.773C56.0246 223.178 56.3826 223.722 56.5568 224.403ZM64.1236 227.381V222.273H65.8281V231H64.1577V229.489H64.0668C63.866 229.955 63.544 230.343 63.1009 230.653C62.6615 230.96 62.1141 231.114 61.4588 231.114C60.8982 231.114 60.402 230.991 59.9702 230.744C59.5421 230.494 59.205 230.125 58.9588 229.636C58.7164 229.148 58.5952 228.544 58.5952 227.824V222.273H60.294V227.619C60.294 228.214 60.4588 228.687 60.7884 229.04C61.1179 229.392 61.5459 229.568 62.0724 229.568C62.3906 229.568 62.7069 229.489 63.0213 229.33C63.3395 229.17 63.6027 228.93 63.8111 228.608C64.0232 228.286 64.1274 227.877 64.1236 227.381ZM68.1108 231V222.273H69.7528V223.659H69.8438C70.0028 223.189 70.2831 222.82 70.6847 222.551C71.09 222.278 71.5483 222.142 72.0597 222.142C72.1657 222.142 72.2907 222.146 72.4347 222.153C72.5824 222.161 72.6979 222.17 72.7812 222.182V223.807C72.7131 223.788 72.5919 223.767 72.4176 223.744C72.2434 223.718 72.0691 223.705 71.8949 223.705C71.4934 223.705 71.1354 223.79 70.821 223.96C70.5104 224.127 70.2642 224.36 70.0824 224.659C69.9006 224.955 69.8097 225.292 69.8097 225.67V231H68.1108ZM76.7131 231.193C76.16 231.193 75.66 231.091 75.2131 230.886C74.7661 230.678 74.4119 230.377 74.1506 229.983C73.893 229.589 73.7642 229.106 73.7642 228.534C73.7642 228.042 73.8589 227.636 74.0483 227.318C74.2377 227 74.4934 226.748 74.8153 226.562C75.1373 226.377 75.4972 226.237 75.8949 226.142C76.2926 226.047 76.6979 225.975 77.1108 225.926C77.6335 225.866 78.0578 225.816 78.3835 225.778C78.7093 225.737 78.946 225.67 79.0938 225.58C79.2415 225.489 79.3153 225.341 79.3153 225.136V225.097C79.3153 224.6 79.1752 224.216 78.8949 223.943C78.6184 223.67 78.2055 223.534 77.6562 223.534C77.0843 223.534 76.6335 223.661 76.304 223.915C75.9782 224.165 75.7528 224.443 75.6278 224.75L74.0312 224.386C74.2206 223.856 74.4972 223.428 74.8608 223.102C75.2282 222.773 75.6506 222.534 76.1278 222.386C76.6051 222.235 77.107 222.159 77.6335 222.159C77.982 222.159 78.3513 222.201 78.7415 222.284C79.1354 222.364 79.5028 222.511 79.8438 222.727C80.1884 222.943 80.4706 223.252 80.6903 223.653C80.91 224.051 81.0199 224.568 81.0199 225.205V231H79.3608V229.807H79.2926C79.1828 230.027 79.018 230.242 78.7983 230.455C78.5786 230.667 78.2964 230.843 77.9517 230.983C77.607 231.123 77.1941 231.193 76.7131 231.193ZM77.0824 229.83C77.5521 229.83 77.9536 229.737 78.2869 229.551C78.6241 229.366 78.8797 229.123 79.054 228.824C79.232 228.521 79.321 228.197 79.321 227.852V226.727C79.2604 226.788 79.143 226.845 78.9688 226.898C78.7983 226.947 78.6032 226.991 78.3835 227.028C78.1638 227.062 77.9498 227.095 77.7415 227.125C77.5331 227.152 77.3589 227.174 77.2188 227.193C76.8892 227.235 76.5881 227.305 76.3153 227.403C76.0464 227.502 75.8305 227.644 75.6676 227.83C75.5085 228.011 75.429 228.254 75.429 228.557C75.429 228.977 75.5843 229.295 75.8949 229.511C76.2055 229.723 76.6013 229.83 77.0824 229.83ZM84.9815 225.818V231H83.2827V222.273H84.9134V223.693H85.0213C85.2221 223.231 85.5365 222.86 85.9645 222.58C86.3963 222.299 86.9399 222.159 87.5952 222.159C88.1899 222.159 88.7107 222.284 89.1577 222.534C89.6046 222.78 89.9512 223.148 90.1974 223.636C90.4437 224.125 90.5668 224.729 90.5668 225.449V231H88.8679V225.653C88.8679 225.021 88.7031 224.527 88.3736 224.17C88.044 223.811 87.5914 223.631 87.0156 223.631C86.6217 223.631 86.2713 223.716 85.9645 223.886C85.6615 224.057 85.4209 224.307 85.2429 224.636C85.0687 224.962 84.9815 225.356 84.9815 225.818ZM96.5213 231.176C95.6766 231.176 94.9493 230.985 94.3395 230.602C93.7334 230.216 93.2675 229.684 92.9418 229.006C92.616 228.328 92.4531 227.551 92.4531 226.676C92.4531 225.79 92.6198 225.008 92.9531 224.33C93.2865 223.648 93.7562 223.116 94.3622 222.733C94.9683 222.35 95.6823 222.159 96.5043 222.159C97.1671 222.159 97.758 222.282 98.277 222.528C98.7959 222.771 99.2145 223.112 99.5327 223.551C99.8546 223.991 100.046 224.504 100.107 225.091H98.4531C98.3622 224.682 98.1539 224.33 97.8281 224.034C97.5062 223.739 97.0743 223.591 96.5327 223.591C96.0592 223.591 95.6444 223.716 95.2884 223.966C94.9361 224.212 94.6615 224.564 94.4645 225.023C94.2675 225.477 94.169 226.015 94.169 226.636C94.169 227.273 94.2656 227.822 94.4588 228.284C94.652 228.746 94.9247 229.104 95.277 229.358C95.633 229.612 96.0516 229.739 96.5327 229.739C96.8546 229.739 97.1463 229.68 97.4077 229.562C97.6728 229.441 97.8944 229.269 98.0724 229.045C98.2543 228.822 98.3812 228.553 98.4531 228.239H100.107C100.046 228.803 99.8622 229.307 99.5554 229.75C99.2486 230.193 98.8376 230.542 98.3224 230.795C97.8111 231.049 97.2107 231.176 96.5213 231.176ZM105.685 231.176C104.825 231.176 104.084 230.992 103.463 230.625C102.846 230.254 102.368 229.733 102.031 229.062C101.698 228.388 101.531 227.598 101.531 226.693C101.531 225.799 101.698 225.011 102.031 224.33C102.368 223.648 102.838 223.116 103.44 222.733C104.046 222.35 104.755 222.159 105.565 222.159C106.058 222.159 106.535 222.241 106.997 222.403C107.459 222.566 107.874 222.822 108.241 223.17C108.609 223.519 108.899 223.972 109.111 224.528C109.323 225.081 109.429 225.754 109.429 226.545V227.148H102.491V225.875H107.764C107.764 225.428 107.673 225.032 107.491 224.688C107.31 224.339 107.054 224.064 106.724 223.864C106.399 223.663 106.016 223.562 105.577 223.562C105.099 223.562 104.683 223.68 104.327 223.915C103.974 224.146 103.702 224.449 103.509 224.824C103.319 225.195 103.224 225.598 103.224 226.034V227.028C103.224 227.612 103.327 228.108 103.531 228.517C103.74 228.926 104.029 229.239 104.401 229.455C104.772 229.667 105.205 229.773 105.702 229.773C106.024 229.773 106.317 229.727 106.582 229.636C106.848 229.542 107.077 229.402 107.27 229.216C107.463 229.03 107.611 228.801 107.713 228.528L109.321 228.818C109.192 229.292 108.961 229.706 108.628 230.062C108.298 230.415 107.884 230.689 107.384 230.886C106.887 231.08 106.321 231.176 105.685 231.176Z" fill="white"/>
<defs>
<clipPath id="clip0_113_1524">
<rect width="73.95" height="73.95" fill="white" transform="translate(283.2 93.0498)"/>
</clipPath>
</defs>
</svg>
