<svg width="215" height="46" viewBox="0 0 215 46" fill="none" xmlns="http://www.w3.org/2000/svg">
<line x1="170.5" y1="45.2792" x2="170.5" y2="0.372244" stroke="#9EA3A5"/>
<mask id="mask0_1676_1852" style="mask-type:luminance" maskUnits="userSpaceOnUse" x="180" y="10" width="35" height="29">
<path d="M214.463 10H180V39H214.463V10Z" fill="white"/>
</mask>
<g mask="url(#mask0_1676_1852)">
<mask id="mask1_1676_1852" style="mask-type:luminance" maskUnits="userSpaceOnUse" x="180" y="10" width="35" height="29">
<path d="M180 10H214.463V39H180V10Z" fill="white"/>
</mask>
<g mask="url(#mask1_1676_1852)">
<path d="M210.327 26.047L210.199 25.7397L207.976 20.358L207.884 20.1335C207.744 19.6827 207.39 18.8043 207.21 18.3746L200.962 25.5609C200.891 26.078 200.752 26.583 200.547 27.0622C200.081 28.2268 199.309 29.239 198.315 29.9888C197.321 30.7385 196.144 31.1969 194.911 31.314C193.678 31.4312 192.437 31.2025 191.324 30.653C190.21 30.1034 189.266 29.254 188.596 28.1975C188.224 27.6172 187.942 26.9823 187.76 26.3152C187.462 25.2262 187.432 24.0792 187.675 22.976L185.765 20.0496L184.088 17.4826L187.736 21.9263L187.914 22.1429C187.997 21.9058 188.095 21.674 188.206 21.4485C188.378 21.092 188.581 20.7515 188.813 20.4312C188.941 20.2527 189.077 20.0807 189.221 19.9159C189.922 19.1134 190.799 18.4887 191.78 18.0921C192.762 17.6955 193.822 17.5379 194.874 17.632C195.927 17.7261 196.943 18.0692 197.841 18.6339C198.74 19.1986 199.495 19.9692 200.047 20.8837C200.071 20.9257 200.097 20.9673 200.12 21.0094C200.729 22.0592 201.049 23.2556 201.047 24.4738C201.047 24.5383 201.047 24.6032 201.045 24.6676L207.21 18.3775V18.3761C206.981 17.875 206.723 17.388 206.437 16.9176C206.413 16.8757 206.388 16.8345 206.362 16.794C204.76 14.1952 202.387 12.1797 199.584 11.038C196.781 9.89631 193.693 9.68735 190.766 10.4412C187.838 11.1951 185.222 12.8729 183.295 15.2329C181.367 17.5928 180.227 20.5131 180.039 23.5728C179.852 26.6326 180.626 29.6738 182.25 32.2583C183.874 34.8428 186.265 36.8372 189.078 37.954C191.89 39.0707 194.979 39.2523 197.9 38.4725C200.821 37.6927 203.423 35.9917 205.33 33.6147L207.553 38.9999L214.464 36.0582L210.327 26.047Z" fill="url(#paint0_linear_1676_1852)"/>
<path d="M194.269 38.9842C191.447 38.9842 188.688 38.1347 186.341 36.5432C183.995 34.9517 182.166 32.6897 181.086 30.0432C180.006 27.3967 179.724 24.4844 180.274 21.6748C180.825 18.8653 182.184 16.2845 184.179 14.2589C186.175 12.2333 188.717 10.8538 191.485 10.2949C194.253 9.73605 197.121 10.0228 199.729 11.119C202.336 12.2152 204.565 14.0716 206.132 16.4534C207.7 18.8352 208.537 21.6354 208.537 24.5001C208.533 28.3402 207.028 32.0217 204.353 34.7371C201.678 37.4524 198.052 38.9798 194.269 38.9842ZM194.269 17.6464C192.933 17.6464 191.628 18.0483 190.517 18.8015C189.407 19.5546 188.541 20.625 188.03 21.8776C187.519 23.13 187.386 24.5081 187.646 25.8377C187.907 27.1672 188.55 28.3885 189.494 29.347C190.439 30.3056 191.642 30.9583 192.952 31.2227C194.261 31.4872 195.619 31.3514 196.853 30.8326C198.087 30.3138 199.141 29.4353 199.883 28.3081C200.625 27.1808 201.021 25.8557 201.021 24.5001C201.019 22.6829 200.307 20.941 199.041 19.656C197.775 18.3712 196.059 17.6484 194.269 17.6464Z" fill="url(#paint1_linear_1676_1852)"/>
<path d="M212.47 13.0082L207.21 18.3762L206.74 18.8553L201.045 24.6684L200.575 25.1474L198.413 27.3533L196.027 29.7893L195.025 30.8104L193.466 28.9108L192.818 28.1198L187.913 22.143L187.735 21.9264L184.087 17.4824L188.751 20.3937L188.813 20.4319L195.024 24.311L199.576 21.3618L200.12 21.01L205.891 17.2715L206.436 16.918L212.47 13.0082Z" fill="#1EBEAB"/>
</g>
</g>
<mask id="mask2_1676_1852" style="mask-type:alpha" maskUnits="userSpaceOnUse" x="29" y="14" width="8" height="9">
<path d="M36.1707 14.0615H29.3975V22.8183H36.1707V14.0615Z" fill="white"/>
</mask>
<g mask="url(#mask2_1676_1852)">
<path d="M34.6685 22.6107C34.7384 22.6107 34.7732 22.6107 34.8082 22.576C35.0177 22.5068 35.1922 22.3337 35.2271 22.126L36.2745 14.9961C36.3094 14.6845 36.0999 14.4076 35.7857 14.373C35.4715 14.3384 35.1922 14.5461 35.1573 14.8576L34.2844 20.707L30.444 16.1036C30.2345 15.8614 29.8854 15.8267 29.641 16.0344C29.3966 16.242 29.3616 16.5882 29.5711 16.8304L34.2496 22.4376C34.3194 22.5414 34.4939 22.6107 34.6685 22.6107Z" fill="#FD7350"/>
</g>
<mask id="mask3_1676_1852" style="mask-type:alpha" maskUnits="userSpaceOnUse" x="0" y="25" width="8" height="9">
<path d="M7.05245 25.1367H0V33.4436H7.05245V25.1367Z" fill="white"/>
</mask>
<g mask="url(#mask3_1676_1852)">
<path d="M0.592677 33.4089C0.871986 33.4089 1.11637 33.2013 1.15129 32.9244L2.05903 27.0751L5.86458 31.713C6.07405 31.9553 6.42319 31.9899 6.66757 31.7822C6.91201 31.5746 6.94688 31.2285 6.7374 30.9861L2.16377 25.379C2.02412 25.206 1.77973 25.1368 1.57025 25.206C1.36077 25.2753 1.1862 25.4483 1.15129 25.6559L0.0340667 32.7514C-0.000846946 33.0628 0.208635 33.3397 0.522849 33.4089C0.557763 33.4089 0.557763 33.4089 0.592677 33.4089Z" fill="#FD7350"/>
</g>
<mask id="mask4_1676_1852" style="mask-type:alpha" maskUnits="userSpaceOnUse" x="1" y="25" width="35" height="16">
<path d="M35.472 25.5869H1.0127V40.8853H35.472V25.5869Z" fill="white"/>
</mask>
<g mask="url(#mask4_1676_1852)">
<path d="M18.1899 40.9199C26.604 40.9199 33.866 34.6898 35.0879 26.4176C35.1228 26.1061 34.9134 25.8292 34.5991 25.7946C34.2849 25.7254 34.0056 25.9677 33.9707 26.2791C32.8535 33.9976 26.0454 39.8124 18.1899 39.8124C10.4042 39.8124 3.63107 34.0668 2.44402 26.4176C2.40911 26.1061 2.09488 25.8985 1.78067 25.933C1.46645 25.9677 1.25697 26.2791 1.29188 26.5907C2.58367 34.7244 9.84561 40.9199 18.1899 40.9199Z" fill="#FD7350"/>
</g>
<mask id="mask5_1676_1852" style="mask-type:alpha" maskUnits="userSpaceOnUse" x="1" y="7" width="35" height="16">
<path d="M35.472 7H1.0127V22.8522H35.472V7Z" fill="white"/>
</mask>
<g mask="url(#mask5_1676_1852)">
<path d="M1.7807 22.7483C2.06 22.7483 2.3044 22.5407 2.33931 22.2292C3.21214 14.1992 10.0202 8.10757 18.1899 8.10757C26.0454 8.10757 32.8186 13.9223 33.9707 21.6408C34.0056 21.9523 34.3198 22.16 34.5991 22.1253C34.9134 22.0908 35.1229 21.7792 35.0879 21.5024C33.866 13.2301 26.604 7 18.1899 7C9.46162 7 2.16475 13.507 1.22209 22.1253C1.18717 22.4369 1.43157 22.7138 1.71087 22.7483C1.74578 22.7483 1.7807 22.7483 1.7807 22.7483Z" fill="#FD7350"/>
</g>
<mask id="mask6_1676_1852" style="mask-type:alpha" maskUnits="userSpaceOnUse" x="6" y="12" width="24" height="27">
<path d="M29.8514 12.9541H6.11035V38.5668H29.8514V12.9541Z" fill="white"/>
</mask>
<g mask="url(#mask6_1676_1852)">
<path d="M28.1408 26.5219C26.6046 32.4059 23.2529 36.1786 18.1207 37.6669C12.9885 36.144 9.63678 32.4059 8.10057 26.5219C7.15795 22.853 7.22778 19.4265 7.2976 18.3189C12.0807 18.1804 16.0608 15.3769 18.0858 13.9232C20.1108 15.3769 24.0909 18.1804 28.874 18.3189C29.0136 19.4611 29.0835 22.853 28.1408 26.5219ZM29.7468 17.8689C29.7119 17.6612 29.5373 17.4883 29.3278 17.4883C24.5448 17.4883 20.6344 14.6847 18.5048 13.1617L18.3651 13.0925C18.2254 12.9887 18.016 12.9887 17.8763 13.0925L17.7715 13.1617C15.8164 14.5808 11.7316 17.4883 6.91351 17.4883C6.70411 17.4883 6.49459 17.6612 6.49459 17.8689C6.49459 18.042 6.07563 22.1262 7.26265 26.7296C8.86867 32.8904 12.5695 36.9747 18.016 38.5322C18.0508 38.5322 18.0858 38.5322 18.1207 38.5322C18.1556 38.5322 18.1905 38.5322 18.2254 38.5322C23.6719 36.9747 27.3727 32.8904 28.9787 26.7296C30.1658 22.1262 29.7817 18.042 29.7468 17.8689Z" fill="#7743DC"/>
</g>
<path d="M22.8686 22.4377L17.3522 29.5331C17.2125 29.7061 17.0031 29.8446 16.7587 29.8792C16.7237 29.8792 16.6889 29.8792 16.654 29.8792C16.4445 29.8792 16.2699 29.81 16.0954 29.6716L13.3023 27.4218C12.9183 27.1102 12.8833 26.5911 13.1626 26.2104C13.4768 25.8296 14.0354 25.795 14.3846 26.1065L16.4794 27.8025L21.472 21.3993C21.7513 21.0186 22.3099 20.9493 22.6939 21.2262C23.1129 21.5378 23.1827 22.057 22.8686 22.4377ZM18.1203 15.6191C16.2699 16.9344 12.8485 19.2188 8.79848 19.4611C8.69378 22.2992 8.8683 33.2712 18.1203 36.0748C27.3724 33.2365 27.5469 22.2646 27.4421 19.4611C23.3922 19.1842 19.9708 16.9344 18.1203 15.6191Z" fill="#7743DC"/>
<path d="M43.9212 34.3094C41.8962 32.3712 40.8838 29.6715 40.8838 26.1411C40.8838 23.7528 41.3726 21.6416 42.3152 19.8071C43.2578 17.9727 44.6195 16.5536 46.4001 15.5498C48.1457 14.5461 50.2056 14.0615 52.5099 14.0615C54.3952 14.0615 56.1758 14.4076 57.9214 15.0653L57.0137 19.3918C55.4775 18.6996 53.9762 18.3534 52.5448 18.3534C50.4849 18.3534 48.8789 19.011 47.657 20.3609C46.4699 21.6761 45.8764 23.476 45.8764 25.6911C45.8764 27.9409 46.5048 29.706 47.7617 30.9521C49.0185 32.1982 50.7642 32.8211 52.9987 32.8211C54.465 32.8211 55.8965 32.5788 57.2581 32.1289L57.9912 36.2477C56.3503 36.8708 54.465 37.1822 52.3703 37.1822C48.7742 37.2169 45.9811 36.2477 43.9212 34.3094Z" fill="#292C4E"/>
<path d="M64.8339 35.7632C63.2628 34.7941 62.0409 33.4443 61.203 31.7137C60.3301 29.9831 59.9111 27.9756 59.9111 25.6912C59.9111 23.4068 60.3301 21.3993 61.203 19.6342C62.0409 17.9036 63.2628 16.5191 64.8339 15.5845C66.4051 14.6155 68.2205 14.1309 70.2804 14.1309C72.3054 14.1309 74.1209 14.6155 75.6919 15.55C77.2631 16.5191 78.4501 17.8343 79.323 19.5649C80.1609 21.2955 80.6147 23.2683 80.6147 25.5528C80.6147 27.8717 80.1958 29.8792 79.323 31.6445C78.485 33.4096 77.2631 34.7595 75.6919 35.7286C74.1209 36.6978 72.3403 37.1823 70.2804 37.1823C68.1856 37.2169 66.3701 36.7324 64.8339 35.7632ZM74.3303 30.9522C75.3778 29.637 75.8665 27.8717 75.8665 25.6912C75.8665 24.2721 75.6221 22.9915 75.1683 21.8839C74.7144 20.7763 74.0161 19.911 73.1782 19.3226C72.3054 18.7342 71.3278 18.4228 70.2106 18.4228C69.0934 18.4228 68.1158 18.7342 67.2429 19.3226C66.3701 19.911 65.7068 20.7763 65.2529 21.8839C64.799 22.9915 64.5546 24.2721 64.5546 25.6912C64.5546 27.1103 64.799 28.3909 65.2529 29.4985C65.7068 30.6061 66.3701 31.4368 67.2429 32.0598C68.0808 32.6482 69.0934 32.9597 70.2106 32.9597C71.9213 32.9251 73.3179 32.2674 74.3303 30.9522Z" fill="#292C4E"/>
<path d="M82.7793 14.4072H88.191L93.5322 31.4708L98.8394 14.4072H103.902L96.3253 36.7664H90.3904L82.7793 14.4072Z" fill="#292C4E"/>
<path d="M105.787 14.4077C106.451 14.373 107.742 14.373 109.592 14.373C111.478 14.373 112.735 14.373 113.433 14.4077C116.016 14.5115 117.937 15.1345 119.194 16.2767C120.451 17.4189 121.079 18.9764 121.079 20.9147C121.079 22.576 120.66 23.9605 119.822 25.1374C118.984 26.2796 117.797 27.041 116.296 27.3871C116.784 27.7678 117.238 28.287 117.762 28.9447C118.251 29.6022 118.949 30.6406 119.822 32.0251C120.765 33.4788 121.672 35.0709 122.65 36.7669H116.959L113.119 29.7061C112.7 28.9792 112.351 28.4947 112.002 28.3216C111.687 28.1486 111.198 28.0447 110.535 28.0447V36.7669H105.822V14.4077H105.787ZM112.595 24.3066C113.747 24.3066 114.655 24.0298 115.318 23.4413C115.981 22.8529 116.331 22.0915 116.331 21.0878C116.331 20.1878 116.051 19.4956 115.457 19.0456C114.865 18.5611 114.026 18.3534 112.874 18.3534H110.5V24.3413H112.595V24.3066Z" fill="#292C4E"/>
<path d="M123.384 35.3127C126.98 29.7402 130.576 24.2023 134.137 18.6299H123.663V14.4072H140.141C140.141 14.8918 140.141 15.3763 140.141 15.8955C136.58 21.4334 133.019 27.0059 129.423 32.5438H140.141V36.7664H123.384C123.384 36.2819 123.384 35.7973 123.384 35.3127Z" fill="#292C4E"/>
<path d="M149.044 27.4559L141.503 14.4072H147.019L151.593 23.2332L156.132 14.4072H161.544L153.967 27.4559V36.7664H149.044V27.4559Z" fill="#292C4E"/>
<defs>
<linearGradient id="paint0_linear_1676_1852" x1="211.639" y1="30.6872" x2="192.969" y2="19.793" gradientUnits="userSpaceOnUse">
<stop offset="0.103576" stop-color="#1E1DCC"/>
<stop offset="0.900646" stop-color="#C2C2FF" stop-opacity="0.54"/>
</linearGradient>
<linearGradient id="paint1_linear_1676_1852" x1="183.848" y1="15.4975" x2="217.985" y2="33.1603" gradientUnits="userSpaceOnUse">
<stop offset="0.250218" stop-color="#0000FF"/>
<stop offset="1" stop-color="#1D1CCB" stop-opacity="0"/>
</linearGradient>
</defs>
</svg>
