<svg width="72" height="109" viewBox="0 0 72 109" fill="none" xmlns="http://www.w3.org/2000/svg">
<path fill-rule="evenodd" clip-rule="evenodd" d="M36.8186 96.4533C37.016 96.0176 37.118 95.5451 37.118 95.0673C37.118 94.5894 37.016 94.117 36.8186 93.6812C36.688 93.401 36.4832 93.1614 36.2261 92.988C35.9689 92.8146 35.6692 92.7141 35.3589 92.6971C34.3687 92.6971 33.5639 93.7597 33.5639 95.0692C33.5639 96.3788 34.3529 97.4414 35.3589 97.4414C35.6696 97.424 35.9696 97.3229 36.2268 97.1488C36.484 96.9747 36.6886 96.7343 36.8186 96.4533ZM36.8186 79.374H43.4895V102.727H37.2801V100.441C36.215 101.892 34.8184 103.432 32.7276 103.432C29.7649 103.432 26.8101 99.6841 26.8101 95.0614C26.8101 90.4387 29.7097 86.6864 32.7276 86.6864C34.9447 86.6864 35.8402 87.8078 36.9014 89.2585L36.8186 79.374Z" fill="#2E3192"/>
<path fill-rule="evenodd" clip-rule="evenodd" d="M53.2574 96.3588C53.4543 95.923 53.5561 95.4506 53.5561 94.9728C53.5561 94.495 53.4543 94.0226 53.2574 93.5868C52.9339 92.9869 52.5946 92.5987 51.7977 92.5987C51.0009 92.5987 50.0028 93.6613 50.0028 94.9748C50.0028 96.2882 51.0048 97.3508 51.7977 97.3508C52.5907 97.3508 52.93 96.9587 53.2574 96.3627M53.5099 87.2938H60.0664V102.726H53.8373L53.8728 100.425C52.8116 101.875 51.3441 103.307 48.697 103.307C46.0499 103.307 43.4975 99.6798 43.4975 95.0728C43.4265 90.1991 46.0815 86.8664 49.415 86.9056C51.352 86.9056 52.4487 87.7957 53.5099 89.2581V87.2938Z" fill="#2E3192"/>
<path fill-rule="evenodd" clip-rule="evenodd" d="M16.9832 79.0332C17.4746 79.0008 17.9676 79.0691 18.4314 79.2337C18.8952 79.3983 19.3201 79.6559 19.6797 79.9904C20.0394 80.3249 20.326 80.7292 20.522 81.1783C20.718 81.6274 20.8192 82.1117 20.8192 82.6012C20.8192 83.0907 20.718 83.575 20.522 84.0241C20.326 84.4732 20.0394 84.8776 19.6797 85.212C19.3201 85.5465 18.8952 85.8041 18.4314 85.9687C17.9676 86.1334 17.4746 86.2016 16.9832 86.1692C16.4917 86.2016 15.9988 86.1334 15.535 85.9687C15.0711 85.8041 14.6462 85.5465 14.2866 85.212C13.927 84.8776 13.6403 84.4732 13.4443 84.0241C13.2483 83.575 13.1472 83.0907 13.1472 82.6012C13.1472 82.1117 13.2483 81.6274 13.4443 81.1783C13.6403 80.7292 13.927 80.3249 14.2866 79.9904C14.6462 79.6559 15.0711 79.3983 15.535 79.2337C15.9988 79.0691 16.4917 79.0008 16.9832 79.0332Z" fill="#849DAA"/>
<path d="M20.5297 87.126H13.4445V102.527H20.5297V87.126Z" fill="#849DAA"/>
<path fill-rule="evenodd" clip-rule="evenodd" d="M21.2832 87.1254H27.9897V89.2544C27.9897 88.9682 28.6683 88.3722 28.8616 88.1722C29.1864 87.8411 29.5492 87.549 29.9425 87.3018C30.8206 86.7681 31.8423 86.5149 32.8697 86.5765V94.1672C32.4908 93.8372 32.0362 93.6046 31.5458 93.4898C31.0554 93.375 30.5442 93.3814 30.0569 93.5085C28.8063 94.0849 28.045 94.3947 27.9858 98.8958V102.527H21.2793L21.2832 87.1254Z" fill="#849DAA"/>
<path fill-rule="evenodd" clip-rule="evenodd" d="M9.34961 64.208H62.6464V74.6101H9.34961V64.208Z" fill="#2E3192"/>
<path fill-rule="evenodd" clip-rule="evenodd" d="M14.415 71.0738C14.4156 70.9033 14.3834 70.7343 14.3203 70.5758C14.2633 70.4341 14.1848 70.3019 14.0876 70.1838C13.9986 70.0788 13.898 69.9841 13.7877 69.9015C13.693 69.8309 13.5928 69.7679 13.4879 69.7133C13.4133 69.672 13.3354 69.6366 13.2552 69.6074C13.2249 69.5924 13.1932 69.5806 13.1605 69.5721H13.2591C13.3299 69.5565 13.3997 69.5369 13.4682 69.5133C13.5596 69.4802 13.648 69.4395 13.7325 69.3917C13.8267 69.3398 13.9141 69.2766 13.9929 69.2035C14.0776 69.1253 14.1472 69.0323 14.198 68.9291C14.2536 68.814 14.2832 68.6882 14.2848 68.5605C14.2943 68.3618 14.2464 68.1645 14.1467 67.992C14.0526 67.8288 13.9165 67.6935 13.7522 67.5999C13.5857 67.4992 13.4048 67.4238 13.2157 67.3764C13.0155 67.3244 12.8108 67.2916 12.6043 67.2784C12.4085 67.2662 12.2122 67.2662 12.0164 67.2784C11.7613 67.3044 11.5082 67.3476 11.259 67.4078C11.0845 67.4477 10.9131 67.5001 10.7462 67.5646C10.6668 67.5886 10.5921 67.6257 10.5252 67.6744L10.8487 68.2037C10.864 68.1745 10.884 68.148 10.9079 68.1253C10.9557 68.0698 11.0071 68.0174 11.0618 67.9685C11.1378 67.9013 11.2196 67.841 11.3064 67.7881C11.4108 67.7215 11.5235 67.6688 11.6417 67.6313C11.7761 67.5836 11.9172 67.5571 12.0598 67.5529C12.1832 67.5492 12.3061 67.5678 12.4228 67.6077C12.5368 67.6449 12.6426 67.7035 12.7344 67.7803C12.8302 67.8605 12.9047 67.9628 12.9514 68.0783C13.0072 68.2123 13.0328 68.3568 13.0264 68.5017C13.0229 68.6498 12.9921 68.796 12.9356 68.933C12.8939 69.032 12.8321 69.1214 12.7542 69.1957C12.6919 69.2527 12.6197 69.2979 12.5411 69.329C12.4847 69.355 12.425 69.3735 12.3636 69.3839H12.2926H11.3734V69.7211H12.3005H12.3794C12.4453 69.7365 12.5089 69.7602 12.5687 69.7917C12.6549 69.8399 12.7312 69.9037 12.7936 69.9799C12.8792 70.088 12.9422 70.2119 12.979 70.3445C13.0364 70.5392 13.063 70.7416 13.0579 70.9444C13.0623 71.1308 13.0288 71.3162 12.9593 71.4894C12.9001 71.6382 12.8085 71.7721 12.691 71.8815C12.579 71.9903 12.4444 72.0732 12.2965 72.1246C12.1464 72.1794 11.987 72.2047 11.8271 72.1991C11.6548 72.1963 11.4846 72.1604 11.3261 72.0932C11.1882 72.0374 11.0613 71.9577 10.9513 71.858C10.8525 71.7654 10.7651 71.6614 10.6909 71.5482C10.6245 71.4492 10.5677 71.3442 10.5213 71.2345C10.4862 71.154 10.4559 71.0716 10.4306 70.9875C10.4306 70.917 10.4029 70.8778 10.399 70.866L9.93744 71.4659L10.044 71.5796C10.137 71.6744 10.2358 71.7634 10.3398 71.8462C10.4847 71.9645 10.639 72.0707 10.8014 72.1638C10.9952 72.2717 11.2002 72.3585 11.4129 72.4226C11.652 72.4946 11.9007 72.5303 12.1506 72.5284C12.3602 72.5268 12.5696 72.5137 12.7778 72.4892C12.985 72.4657 13.1897 72.4237 13.3893 72.3638C13.5764 72.3063 13.7534 72.2203 13.914 72.1089C14.0687 71.9991 14.1946 71.8538 14.2809 71.6855C14.3751 71.4899 14.4211 71.2748 14.415 71.0581M32.8499 71.0111C32.847 70.6938 32.7358 70.3868 32.5343 70.1406C32.4505 70.0362 32.3537 69.9427 32.2464 69.8622C32.155 69.7928 32.0587 69.7299 31.9584 69.674C31.8861 69.6334 31.811 69.598 31.7335 69.5682C31.7047 69.5531 31.6743 69.5412 31.6428 69.5329H31.7374C31.8058 69.5177 31.873 69.4981 31.9386 69.4741C32.0279 69.4436 32.1138 69.4042 32.1951 69.3565C32.2867 69.3043 32.3715 69.2411 32.4475 69.1683C32.5277 69.0903 32.5932 68.9986 32.6409 68.8977C32.6958 68.7825 32.7241 68.6566 32.7237 68.5292C32.7371 68.3413 32.6978 68.1535 32.61 67.9866C32.5222 67.8198 32.3895 67.6804 32.2266 67.5842C32.0678 67.4858 31.8949 67.4118 31.7138 67.3647C31.5223 67.3156 31.327 67.2828 31.1299 67.2666C30.9407 67.257 30.7511 67.257 30.5618 67.2666C30.3186 67.2938 30.0774 67.337 29.8399 67.396C29.6709 67.4371 29.5048 67.4895 29.3428 67.5529C29.2668 67.5778 29.1959 67.6163 29.1338 67.6666L29.4375 68.192C29.455 68.1642 29.4747 68.138 29.4967 68.1135C29.5409 68.0561 29.5912 68.0036 29.6466 67.9567C29.7201 67.8898 29.7993 67.8295 29.8833 67.7763C29.9832 67.7106 30.0904 67.6567 30.2028 67.6156C30.3296 67.5704 30.4627 67.5453 30.5973 67.5411C30.7165 67.5366 30.8355 67.5539 30.9485 67.5921C31.0607 67.6299 31.164 67.6899 31.2522 67.7685C31.3449 67.8482 31.4167 67.9491 31.4613 68.0626C31.5158 68.1969 31.54 68.3414 31.5323 68.486C31.5297 68.6338 31.5003 68.7799 31.4455 68.9173C31.4044 69.0157 31.344 69.1049 31.268 69.18C31.2091 69.2384 31.1395 69.285 31.0629 69.3172C31.0098 69.3406 30.9542 69.3577 30.8972 69.3682H30.8262H29.9346V69.7054H30.8262H30.9011C31.059 69.7409 31.1989 69.8313 31.2956 69.9603C31.3792 70.0685 31.4396 70.1926 31.4731 70.3249C31.5287 70.5186 31.5553 70.7195 31.552 70.9209C31.5556 71.1085 31.5221 71.295 31.4534 71.4698C31.3964 71.6168 31.3091 71.7504 31.197 71.8619C31.0846 71.9702 30.95 72.0531 30.8025 72.105C30.66 72.1575 30.5085 72.1815 30.3567 72.1756C30.191 72.171 30.0276 72.135 29.8754 72.0697C29.7434 72.01 29.6221 71.9292 29.5164 71.8305C29.4222 71.7382 29.3389 71.6356 29.2679 71.5247C29.2046 71.4265 29.1505 71.3229 29.1061 71.2149C29.073 71.1341 29.044 71.0517 29.0194 70.9679C29.0065 70.9283 28.9973 70.8876 28.9917 70.8464L28.546 71.4424L28.6446 71.5561C28.7077 71.6266 28.8063 71.7129 28.9286 71.8227C29.0685 71.9378 29.2176 72.0414 29.3744 72.1324C29.5598 72.238 29.7554 72.3247 29.9583 72.3912C30.1875 72.4592 30.4252 72.4948 30.6644 72.4971C30.8617 72.4971 31.0589 72.4971 31.2641 72.4579C31.4639 72.437 31.661 72.3949 31.8519 72.3324C32.032 72.2758 32.2013 72.1896 32.3529 72.0775C32.5036 71.9677 32.6243 71.8221 32.704 71.6541C32.797 71.4582 32.8416 71.2432 32.8342 71.0267M50.4959 72.203C50.6787 72.1164 50.8266 71.9708 50.9155 71.79C51.0043 71.6091 51.0288 71.4036 50.9851 71.2071C51.0193 70.953 50.9529 70.6956 50.7998 70.4893C50.6467 70.283 50.4189 70.1439 50.1645 70.1014C50.0003 70.0633 49.8321 70.0448 49.6635 70.0465H48.2117C47.9632 70.0465 47.6121 69.9407 47.5924 69.6231C47.5826 69.5417 47.5908 69.4592 47.6161 69.3812C47.6415 69.3032 47.6835 69.2315 47.7394 69.1712C47.7952 69.1109 47.8635 69.0633 47.9396 69.0316C48.0157 69 48.0977 68.9851 48.1802 68.9879C48.9692 68.9526 49.7345 68.9683 50.5472 68.9683V67.6391H52.0739V72.3951H53.3126V67.6509H54.0464V67.1804H53.2574C53.2337 67.102 53.2021 67.0039 53.1548 66.8863C53.0918 66.7197 53.0153 66.5584 52.926 66.404C52.8135 66.2156 52.6813 66.0395 52.5315 65.8787C52.3613 65.6939 52.1677 65.5317 51.9555 65.3964C51.7177 65.2708 51.4624 65.1809 51.1981 65.1298C50.8736 65.0371 50.5376 64.9909 50.2 64.9925C50.0817 64.9925 49.9515 64.9925 49.8055 65.0161C49.1664 65.0866 48.5707 65.3689 48.5668 66.2198C48.565 66.3528 48.585 66.4852 48.626 66.6119C48.6536 66.7003 48.6978 66.7828 48.7561 66.8549C48.7962 66.9026 48.8411 66.946 48.8903 66.9843L48.9613 67.0314H50.1014L50.0383 66.9843C49.9926 66.9417 49.9516 66.8944 49.916 66.8432C49.8604 66.7585 49.8178 66.6659 49.7897 66.5687C49.7484 66.4556 49.727 66.3362 49.7266 66.2158C49.7164 66.0366 49.7503 65.8577 49.8252 65.6944C49.8853 65.5764 49.9841 65.4823 50.1053 65.4278C50.2301 65.3755 50.3645 65.3501 50.4998 65.3533C50.6763 65.3533 50.8503 65.3936 51.0087 65.4709C51.1589 65.5448 51.2929 65.6474 51.4032 65.7728C51.5137 65.8943 51.6084 65.9335 51.6833 66.0865C51.7584 66.2315 51.8217 66.3823 51.8727 66.5374C51.9169 66.6659 51.9538 66.7968 51.9831 66.9294C52.0029 67.0157 52.0186 67.0902 52.0305 67.1569H45.7619V67.6274H49.3952V68.6154H47.7975C47.6655 68.6158 47.5337 68.6249 47.403 68.6429C47.2685 68.66 47.1362 68.6916 47.0085 68.737C46.8872 68.7786 46.7728 68.838 46.6692 68.9134C46.5711 68.9866 46.4903 69.0803 46.4325 69.1879C46.3721 69.3318 46.3425 69.4867 46.3457 69.6427C46.3457 69.7878 46.3852 69.7878 46.4444 69.8936C46.506 70.001 46.5909 70.0934 46.6929 70.1642C46.8013 70.2386 46.9194 70.298 47.044 70.3406C47.1729 70.3808 47.3048 70.411 47.4385 70.4308C47.5773 70.4466 47.7169 70.4545 47.8567 70.4543H49.1388C49.2197 70.4544 49.2999 70.469 49.3755 70.4974C49.5293 70.5728 49.6561 70.6934 49.7386 70.8427C49.8212 70.9921 49.8556 71.1631 49.8371 71.3326C49.7148 72.7754 46.7797 72.2814 46.2195 70.8385L45.825 71.3639C46.7876 72.9323 49.6595 72.7715 50.5274 72.2187L50.4959 72.203ZM61.9363 67.6626V67.1725H56.295V67.6626H56.9025V70.7797C56.8991 70.8228 56.8991 70.8661 56.9025 70.9091C56.9153 71.0133 56.9337 71.1167 56.9578 71.2189C56.9921 71.3615 57.0397 71.5006 57.0998 71.6345C57.1717 71.7965 57.2631 71.9492 57.372 72.0893C57.4975 72.2501 57.6465 72.3915 57.8138 72.5088C58.016 72.6453 58.2383 72.7498 58.4726 72.8186C58.7703 72.9033 59.0783 72.9468 59.3879 72.948C59.5547 72.9574 59.722 72.9574 59.8889 72.948L60.3465 72.9009L60.6858 72.846L60.8317 72.8147V72.1991C60.8057 72.2268 60.7781 72.253 60.7489 72.2775C60.6789 72.3335 60.6051 72.3846 60.528 72.4304C60.413 72.4914 60.2912 72.5388 60.165 72.5716C60.0039 72.6113 59.8379 72.6285 59.6719 72.6225C59.4563 72.6199 59.2427 72.5801 59.0407 72.5049C58.8838 72.4439 58.7394 72.3549 58.6147 72.2422C58.5092 72.1474 58.4199 72.0361 58.3503 71.9129C58.2921 71.8086 58.2458 71.6981 58.2123 71.5835C58.19 71.501 58.1729 71.4172 58.161 71.3326C58.1579 71.3 58.1579 71.2671 58.161 71.2345V67.6744H59.9638V70.0269C59.9638 70.0269 59.9638 70.0583 59.9638 70.1132C59.9461 70.178 59.9224 70.241 59.8928 70.3014C59.869 70.374 59.83 70.4408 59.7784 70.4974C59.7206 70.556 59.6437 70.5921 59.5615 70.5994C59.4969 70.6018 59.4328 70.5869 59.376 70.5562C59.3207 70.5275 59.2702 70.4904 59.2261 70.4465C59.1827 70.3994 59.1472 70.3602 59.1196 70.3288C59.106 70.3117 59.0942 70.2933 59.0841 70.2739V70.9013L59.2419 70.9287C59.3792 70.947 59.5177 70.9549 59.6561 70.9523C60.1019 70.9248 61.1631 70.768 61.171 69.8191V67.6744L61.9363 67.6626ZM33.1379 67.1686V67.6274H34.0058V69.4623H32.8026V69.7917H34.0453V72.3755H35.2288V67.643H36.6647V72.3755H37.8482V67.643H40.7123L40.7951 67.6744C40.8555 67.707 40.9135 67.7436 40.9687 67.7842C41.0486 67.8423 41.1203 67.9109 41.1818 67.9881C41.2554 68.0832 41.3139 68.189 41.3553 68.3017C41.4082 68.4476 41.4349 68.6015 41.4342 68.7566C41.4383 68.913 41.4073 69.0683 41.3435 69.2114C41.2895 69.3313 41.2069 69.4362 41.1029 69.5172C41.0052 69.5989 40.8946 69.6638 40.7754 69.7093C40.66 69.7507 40.5412 69.7822 40.4204 69.8034C40.3106 69.8211 40.2 69.8329 40.089 69.8387H39.8444H39.7458H38.6254V70.1916H39.1698C39.1698 70.1916 39.1698 70.2504 39.1698 70.321C39.1698 70.3916 39.1698 70.4817 39.1698 70.5915C39.1629 70.7104 39.1629 70.8295 39.1698 70.9483C39.1833 71.0809 39.2084 71.2121 39.2448 71.3404C39.2796 71.4609 39.3343 71.5748 39.4065 71.6776C39.515 71.8417 39.6481 71.9885 39.801 72.1128C39.9207 72.2052 40.0537 72.2792 40.1955 72.3324C40.2979 72.3746 40.4053 72.4036 40.515 72.4187C40.582 72.4229 40.6492 72.4229 40.7162 72.4187H42.7519V71.7521L42.6966 71.8109C42.6531 71.8609 42.6026 71.9044 42.5467 71.9403C42.4657 71.9941 42.3783 72.0376 42.2864 72.0697C42.1582 72.1072 42.0254 72.127 41.8919 72.1285H41.4974C41.4621 72.1349 41.4261 72.1349 41.3908 72.1285C41.3647 72.133 41.338 72.133 41.3119 72.1285C41.2571 72.1135 41.2042 72.0925 41.1541 72.0658C41.0743 72.0211 41.0002 71.9671 40.9332 71.905C40.8341 71.8105 40.7443 71.7068 40.665 71.5953C40.5712 71.462 40.5017 71.3134 40.4598 71.1561C40.4224 71.0098 40.4 70.86 40.3928 70.7092C40.3845 70.5917 40.3845 70.4738 40.3928 70.3563C40.3902 70.3053 40.3902 70.2543 40.3928 70.2034C40.4364 70.2212 40.4839 70.2279 40.5308 70.223C40.6346 70.2298 40.7387 70.2298 40.8425 70.223C40.9845 70.21 41.1255 70.1878 41.2646 70.1563C41.4221 70.1204 41.5765 70.0719 41.7262 70.0112C41.8771 69.9493 42.0191 69.8675 42.1483 69.7681C42.2768 69.6697 42.3829 69.5454 42.4599 69.4035C42.5453 69.2482 42.5913 69.0746 42.5941 68.8977C42.6039 68.7236 42.5866 68.549 42.5428 68.3802C42.5107 68.2569 42.4573 68.1402 42.385 68.0351C42.3279 67.9568 42.2587 67.8879 42.1798 67.8312C42.1245 67.79 42.065 67.7545 42.0023 67.7254L41.9155 67.6901H43.4935V67.2313L33.1379 67.1686ZM14.7148 67.1686V67.6509H15.6261V69.4937H14.3677V69.8191H15.6261V72.3755H16.8648V67.6705H18.1036V72.3755H19.3344V67.6705H23.8317V68.5527H21.8592C21.7274 68.554 21.5957 68.5619 21.4647 68.5762C21.331 68.5897 21.1989 68.616 21.0702 68.6546C20.9497 68.6895 20.8353 68.7424 20.7309 68.8115C20.6326 68.8779 20.5515 68.9666 20.4942 69.0702C20.4326 69.1916 20.4027 69.3264 20.4074 69.4623C20.4076 69.5916 20.4416 69.7186 20.5061 69.8309C20.5682 69.9336 20.6532 70.0208 20.7546 70.0857C20.8628 70.153 20.9796 70.2058 21.1018 70.2426C21.2304 70.2829 21.3624 70.3118 21.4963 70.3288C21.6272 70.3441 21.7589 70.3519 21.8908 70.3524H23.165C23.2434 70.3523 23.3215 70.3615 23.3977 70.3798C23.4799 70.4016 23.5565 70.4404 23.6226 70.4935C23.6996 70.5535 23.7583 70.6336 23.7922 70.7248C23.8398 70.85 23.8626 70.9832 23.8593 71.1169C23.8672 71.2568 23.8268 71.3951 23.7449 71.509C23.673 71.6131 23.5751 71.6969 23.4609 71.7521C23.3358 71.8117 23.203 71.854 23.0664 71.8776C22.9205 71.9023 22.7725 71.9128 22.6245 71.9089C22.3262 71.9077 22.0288 71.8761 21.7369 71.8148C21.5125 71.7654 21.2943 71.6918 21.086 71.5953C20.9259 71.5183 20.775 71.4236 20.6363 71.313C20.5339 71.2282 20.4401 71.1336 20.3562 71.0307C20.3008 70.9607 20.252 70.8859 20.2102 70.8072L20.1589 70.7092L19.9262 71.4228L20.0169 71.4737L20.1984 71.5796L20.3956 71.6933L20.5929 71.7913L20.7507 71.8619L20.9321 71.9403C20.9415 71.9789 20.9533 72.0169 20.9676 72.054L21.0781 72.3246C21.1294 72.4343 21.1846 72.5559 21.2477 72.6853C21.3108 72.8147 21.3858 72.9401 21.4647 73.0774C21.5416 73.1984 21.6273 73.3137 21.7211 73.4224C21.7967 73.4952 21.8886 73.549 21.9894 73.5792C22.1183 73.6185 22.2503 73.6473 22.3839 73.6655C22.5417 73.6655 22.7034 73.6969 22.877 73.7008H23.382L23.8277 73.6812L24.1512 73.6498L24.2893 73.6302V73.0264L24.2183 73.0813C24.1608 73.1203 24.1001 73.1544 24.0368 73.1832C23.9492 73.2289 23.8565 73.2644 23.7607 73.2891C23.6474 73.319 23.5308 73.3348 23.4135 73.3361C23.3226 73.3329 23.2325 73.3185 23.1453 73.293C23.0695 73.2685 22.9967 73.2356 22.9283 73.195C22.876 73.165 22.827 73.1295 22.7823 73.0891C22.7571 73.0684 22.7346 73.0447 22.7153 73.0185L22.3208 72.2344C22.3579 72.2512 22.3984 72.2592 22.4391 72.2579C22.5416 72.2631 22.6443 72.2631 22.7468 72.2579C22.877 72.2579 23.019 72.2579 23.1808 72.2579C23.3425 72.2579 23.5082 72.2265 23.6778 72.1991C23.8464 72.171 24.0125 72.1304 24.1749 72.0775C24.3343 72.0428 24.4839 71.9731 24.6128 71.8737C24.8732 71.611 25.0073 71.5678 25.0467 71.1444C25.0657 70.952 25.0273 70.7584 24.9363 70.5876C24.8635 70.447 24.7546 70.328 24.6207 70.2426C24.4869 70.1575 24.3384 70.0976 24.1828 70.0661C24.0234 70.0314 23.8607 70.0143 23.6976 70.0152H22.3208C22.245 70.0149 22.1695 70.0057 22.0959 69.9877C22.0238 69.9702 21.9556 69.9396 21.8947 69.8975C21.8343 69.8574 21.7843 69.8037 21.7487 69.7407C21.7138 69.6674 21.6988 69.5863 21.7053 69.5055C21.706 69.3995 21.7375 69.296 21.7961 69.2075C21.8434 69.1369 21.9087 69.08 21.9854 69.0428C22.0595 69.0099 22.1379 68.9874 22.2182 68.9761C22.2865 68.9719 22.355 68.9719 22.4233 68.9761H25.0191V67.6744H25.8831V67.1843H25.3071C24.4905 67.1843 24.6128 65.2905 25.3387 65.2905H25.9383V64.8984H25.0467C23.5832 64.8984 23.4688 66.2668 24.4392 67.1765C24.4392 67.1765 16.8175 67.1765 14.7503 67.1765" fill="white"/>
<path fill-rule="evenodd" clip-rule="evenodd" d="M36.0059 5.5752C38.3137 5.5752 40.1876 7.66109 40.1876 10.2293C40.1876 12.7974 38.3137 14.899 36.0059 14.899C33.6981 14.899 31.8242 12.817 31.8242 10.2489C31.8242 7.6807 33.6981 5.5948 36.0059 5.5948" fill="#ED1C24"/>
<path fill-rule="evenodd" clip-rule="evenodd" d="M25.4215 18.5342H28.3882V61.2324H10.5963L25.4215 18.5342Z" fill="#849DAA"/>
<path d="M41.0279 18.6553H30.6526V61.3809H41.0279V18.6553Z" fill="#2E3192"/>
<path fill-rule="evenodd" clip-rule="evenodd" d="M46.2629 18.5342H43.2923V61.2324H61.0842L46.2629 18.5342Z" fill="#849DAA"/>
</svg>
