<svg width="164" height="39" viewBox="0 0 164 39" fill="none" xmlns="http://www.w3.org/2000/svg">
<g clip-path="url(#clip0_1428_710)">
<mask id="mask0_1428_710" style="mask-type:luminance" maskUnits="userSpaceOnUse" x="0" y="0" width="47" height="39">
<path d="M46.7965 0H0V38.9557H46.7965V0Z" fill="white"/>
</mask>
<g mask="url(#mask0_1428_710)">
<mask id="mask1_1428_710" style="mask-type:luminance" maskUnits="userSpaceOnUse" x="0" y="0" width="47" height="39">
<path d="M0 0H46.7965V38.9557H0V0Z" fill="white"/>
</mask>
<g mask="url(#mask1_1428_710)">
<path d="M41.1804 21.5564L41.0065 21.1436L37.9876 13.9145L37.863 13.6129C37.6722 13.0073 37.1915 11.8273 36.9472 11.2502L28.4636 20.9034C28.3673 21.5981 28.1776 22.2764 27.9002 22.9201C27.2673 24.4845 26.219 25.8443 24.8696 26.8514C23.52 27.8585 21.9211 28.4743 20.247 28.6316C18.5729 28.789 16.888 28.4818 15.3759 27.7436C13.8636 27.0054 12.5823 25.8644 11.6715 24.4452C11.1667 23.6656 10.7841 22.8128 10.537 21.9167C10.1315 20.4538 10.0916 18.9131 10.4209 17.4311L7.82774 13.5001L5.55115 10.0519L10.5037 16.0211L10.7453 16.3121C10.8591 15.9936 10.9916 15.6822 11.142 15.3793C11.3761 14.9003 11.652 14.443 11.9664 14.0128C12.1398 13.773 12.3249 13.542 12.521 13.3206C13.4728 12.2425 14.6629 11.4034 15.996 10.8706C17.3291 10.3378 18.7678 10.1261 20.197 10.2525C21.6263 10.3789 23.0061 10.8399 24.2259 11.5985C25.4456 12.3571 26.4713 13.3921 27.2208 14.6206C27.2538 14.677 27.2894 14.7329 27.3199 14.7894C28.1468 16.1996 28.5816 17.8068 28.579 19.4432C28.579 19.5298 28.579 19.617 28.5763 19.7035L36.9476 11.2541V11.2521C36.6361 10.579 36.2855 9.92478 35.8976 9.29288C35.8652 9.23659 35.8313 9.18124 35.7957 9.12691C33.6205 5.6359 30.3977 2.92851 26.5916 1.39488C22.7857 -0.138763 18.5932 -0.419464 14.6181 0.593221C10.6432 1.60591 7.09092 3.85968 4.47334 7.02981C1.85577 10.1999 0.307993 14.1227 0.0530589 18.2328C-0.201874 22.343 0.849194 26.4283 3.05481 29.9C5.26042 33.3718 8.5067 36.0509 12.3258 37.551C16.145 39.0512 20.3398 39.2951 24.3058 38.2476C28.272 37.2 31.8045 34.9151 34.3943 31.7222L37.4133 38.956L46.7967 35.0045L41.1804 21.5564Z" fill="url(#paint0_linear_1428_710)"/>
<path d="M19.3749 38.9346C15.543 38.9346 11.797 37.7934 8.61085 35.6556C5.42466 33.5178 2.94132 30.4792 1.47487 26.9241C0.00842058 23.3691 -0.37529 19.4571 0.372265 15.683C1.11982 11.9089 2.96506 8.44214 5.67466 5.72115C8.38425 3.00016 11.8365 1.14712 15.5948 0.39636C19.3533 -0.3544 23.2488 0.0308386 26.7891 1.50336C30.3294 2.97589 33.3555 5.46955 35.4844 8.66903C37.6134 11.8685 38.7498 15.63 38.7499 19.4781C38.7442 24.6365 36.701 29.5819 33.0688 33.2294C29.4365 36.8769 24.5118 38.9286 19.3749 38.9346ZM19.3749 10.2715C17.5615 10.2715 15.7888 10.8115 14.2811 11.8232C12.7733 12.8349 11.5981 14.2728 10.9042 15.9553C10.2102 17.6376 10.0287 19.4889 10.3825 21.2749C10.7363 23.0609 11.6096 24.7014 12.8919 25.989C14.1742 27.2767 15.8079 28.1534 17.5865 28.5086C19.365 28.8638 21.2086 28.6815 22.8839 27.9846C24.5592 27.2876 25.9911 26.1075 26.9986 24.5934C28.006 23.0792 28.5437 21.2991 28.5435 19.4781C28.5407 17.0371 27.5738 14.6971 25.8549 12.9711C24.1361 11.2451 21.8057 10.2743 19.3749 10.2715Z" fill="url(#paint1_linear_1428_710)"/>
<path d="M44.0899 4.04102L36.9475 11.2519L36.3088 11.8955L28.5761 19.7041L27.9379 20.3477L25.003 23.3108L21.7622 26.583L20.4013 27.9546L18.2851 25.403L17.4049 24.3405L10.7451 16.3118L10.5035 16.0208L5.54941 10.0513L11.8822 13.962L11.9662 14.0133L20.401 19.2241L26.5821 15.2625L27.3197 14.7898L35.157 9.76795L35.897 9.29301L44.0899 4.04102Z" fill="#1EBEAB"/>
</g>
</g>
<path d="M60.4477 19.3538C60.4477 20.5238 60.31 21.5899 60.0346 22.5521C59.7592 23.5075 59.3397 24.3313 58.7758 25.0236C58.2185 25.7159 57.5104 26.2489 56.6515 26.6227C55.7925 26.9896 54.7763 27.1731 53.6026 27.1731C52.4289 27.1731 51.4127 26.9896 50.5537 26.6227C49.6948 26.2489 48.9834 25.7159 48.4195 25.0236C47.8622 24.3313 47.4458 23.504 47.1704 22.5418C46.8951 21.5795 46.7574 20.5099 46.7574 19.3331C46.7574 17.7615 47 16.3943 47.4852 15.2313C47.977 14.0614 48.731 13.1545 49.7473 12.5106C50.7635 11.8668 52.0553 11.5449 53.6223 11.5449C55.1827 11.5449 56.4646 11.8668 57.4677 12.5106C58.4774 13.1545 59.2249 14.0614 59.7101 15.2313C60.2018 16.4012 60.4477 17.7753 60.4477 19.3538ZM49.9538 19.3538C49.9538 20.413 50.0783 21.3267 50.3275 22.0952C50.5832 22.8568 50.9799 23.4451 51.5176 23.8605C52.0553 24.2689 52.7502 24.4732 53.6026 24.4732C54.4681 24.4732 55.1696 24.2689 55.7072 23.8605C56.2449 23.4451 56.635 22.8568 56.8776 22.0952C57.1267 21.3267 57.2514 20.413 57.2514 19.3538C57.2514 17.7615 56.9694 16.5085 56.4055 15.5947C55.8417 14.681 54.9139 14.2241 53.6223 14.2241C52.7633 14.2241 52.0618 14.4318 51.5176 14.8471C50.9799 15.2556 50.5832 15.8439 50.3275 16.6124C50.0783 17.3739 49.9538 18.2877 49.9538 19.3538Z" fill="#0000FF"/>
<path d="M76.1837 26.9658H72.3087L66.0536 15.481H65.9651C65.9914 15.9587 66.0143 16.4398 66.0339 16.9244C66.0536 17.409 66.0733 17.8935 66.093 18.3781C66.1127 18.8558 66.1323 19.3369 66.152 19.8215V26.9658H63.4277V11.7842H67.2732L73.5183 23.1548H73.5872C73.5742 22.6841 73.5577 22.2168 73.538 21.7529C73.5183 21.2892 73.4987 20.8254 73.479 20.3615C73.4659 19.8977 73.4527 19.4339 73.4398 18.97V11.7842H76.1837V26.9658Z" fill="#0000FF"/>
<path d="M88.0938 26.9658H79.8127V11.7842H88.0938V14.4218H82.8616V17.7551H87.7299V20.3927H82.8616V24.3075H88.0938V26.9658Z" fill="#0000FF"/>
<path d="M99.9056 26.9656L98.8631 23.3519H93.6209L92.5785 26.9656H89.2936L94.3685 11.7217H98.096L103.19 26.9656H99.9056ZM98.1352 20.652L97.0927 17.1214C97.0271 16.886 96.9386 16.5849 96.8273 16.218C96.7223 15.8442 96.6141 15.4668 96.5026 15.0861C96.3978 14.6985 96.3125 14.3627 96.2469 14.0789C96.1814 14.3627 96.0896 14.7158 95.9715 15.1381C95.8601 15.5534 95.752 15.9481 95.647 16.3219C95.5421 16.6957 95.4667 16.9622 95.4208 17.1214L94.3882 20.652H98.1352Z" fill="#0000FF"/>
<path d="M113.497 22.7492C113.497 23.6492 113.291 24.4314 112.878 25.096C112.465 25.7605 111.862 26.2729 111.068 26.6329C110.281 26.9929 109.324 27.1728 108.196 27.1728C107.698 27.1728 107.21 27.1382 106.731 27.0689C106.259 26.9998 105.803 26.8994 105.364 26.7679C104.931 26.6294 104.518 26.4598 104.125 26.2591V23.2683C104.807 23.5868 105.515 23.8742 106.249 24.1303C106.983 24.3864 107.711 24.5145 108.432 24.5145C108.931 24.5145 109.331 24.4452 109.632 24.3068C109.941 24.1683 110.163 23.9779 110.301 23.7356C110.439 23.4933 110.508 23.2165 110.508 22.9049C110.508 22.5242 110.386 22.1988 110.144 21.9288C109.901 21.6589 109.567 21.4062 109.141 21.1708C108.721 20.9354 108.246 20.6828 107.715 20.4127C107.38 20.2466 107.016 20.0458 106.623 19.8104C106.229 19.5681 105.856 19.274 105.502 18.9278C105.148 18.5817 104.856 18.1628 104.626 17.6713C104.403 17.1729 104.292 16.5775 104.292 15.8852C104.292 14.9784 104.489 14.203 104.882 13.5592C105.275 12.9154 105.836 12.4239 106.564 12.0846C107.298 11.7385 108.164 11.5654 109.16 11.5654C109.908 11.5654 110.619 11.6589 111.294 11.8458C111.976 12.0258 112.688 12.2889 113.429 12.635L112.445 15.1376C111.783 14.8537 111.189 14.6357 110.665 14.4833C110.14 14.3242 109.606 14.2445 109.062 14.2445C108.682 14.2445 108.357 14.3103 108.088 14.4418C107.819 14.5664 107.616 14.7465 107.478 14.9819C107.341 15.2102 107.272 15.4768 107.272 15.7814C107.272 16.1415 107.37 16.446 107.567 16.6952C107.77 16.9375 108.072 17.1729 108.472 17.4013C108.878 17.6298 109.383 17.8963 109.986 18.2009C110.721 18.5678 111.347 18.952 111.865 19.3535C112.389 19.7482 112.793 20.2155 113.075 20.7554C113.357 21.2885 113.497 21.953 113.497 22.7492Z" fill="#0000FF"/>
<path d="M124.591 22.7492C124.591 23.6492 124.385 24.4314 123.972 25.096C123.559 25.7605 122.955 26.2729 122.162 26.6329C121.375 26.9929 120.418 27.1728 119.29 27.1728C118.792 27.1728 118.303 27.1382 117.825 27.0689C117.353 26.9998 116.897 26.8994 116.458 26.7679C116.025 26.6294 115.612 26.4598 115.219 26.2591V23.2683C115.901 23.5868 116.609 23.8742 117.343 24.1303C118.077 24.3864 118.805 24.5145 119.526 24.5145C120.025 24.5145 120.425 24.4452 120.726 24.3068C121.034 24.1683 121.257 23.9779 121.395 23.7356C121.533 23.4933 121.601 23.2165 121.601 22.9049C121.601 22.5242 121.48 22.1988 121.238 21.9288C120.995 21.6589 120.661 21.4062 120.234 21.1708C119.815 20.9354 119.34 20.6828 118.808 20.4127C118.474 20.2466 118.11 20.0458 117.717 19.8104C117.323 19.5681 116.95 19.274 116.595 18.9278C116.241 18.5817 115.95 18.1628 115.72 17.6713C115.497 17.1729 115.386 16.5775 115.386 15.8852C115.386 14.9784 115.582 14.203 115.976 13.5592C116.369 12.9154 116.93 12.4239 117.658 12.0846C118.392 11.7385 119.257 11.5654 120.254 11.5654C121.002 11.5654 121.713 11.6589 122.388 11.8458C123.07 12.0258 123.782 12.2889 124.522 12.635L123.539 15.1376C122.877 14.8537 122.283 14.6357 121.759 14.4833C121.234 14.3242 120.7 14.2445 120.156 14.2445C119.775 14.2445 119.451 14.3103 119.182 14.4418C118.913 14.5664 118.71 14.7465 118.572 14.9819C118.435 15.2102 118.366 15.4768 118.366 15.7814C118.366 16.1415 118.464 16.446 118.661 16.6952C118.864 16.9375 119.166 17.1729 119.566 17.4013C119.972 17.6298 120.477 17.8963 121.08 18.2009C121.815 18.5678 122.441 18.952 122.959 19.3535C123.483 19.7482 123.886 20.2155 124.168 20.7554C124.45 21.2885 124.591 21.953 124.591 22.7492Z" fill="#0000FF"/>
<path d="M138.901 11.7842V21.6076C138.901 22.6529 138.681 23.5979 138.242 24.4425C137.81 25.2801 137.151 25.9447 136.265 26.4362C135.387 26.9277 134.279 27.1735 132.941 27.1735C131.04 27.1735 129.591 26.6612 128.594 25.6366C127.598 24.612 127.099 23.2552 127.099 21.5661V11.7842H130.138V21.078C130.138 22.331 130.381 23.2103 130.866 23.7156C131.351 24.2209 132.069 24.4736 133.02 24.4736C133.689 24.4736 134.23 24.3524 134.643 24.1102C135.062 23.8679 135.37 23.494 135.567 22.9887C135.764 22.4834 135.862 21.8395 135.862 21.0573V11.7842H138.901Z" fill="#0000FF"/>
<path d="M146.612 11.7842C147.917 11.7842 148.992 11.9503 149.837 12.2826C150.69 12.6149 151.322 13.1168 151.736 13.7883C152.149 14.4598 152.355 15.3079 152.355 16.3325C152.355 17.0248 152.231 17.6305 151.981 18.1497C151.733 18.6688 151.405 19.1085 150.999 19.4684C150.591 19.8284 150.153 20.1227 149.68 20.3512L153.909 26.9658H150.525L147.093 21.1403H145.471V26.9658H142.422V11.7842H146.612ZM146.395 14.4218H145.471V18.5235H146.454C147.465 18.5235 148.185 18.347 148.617 17.9939C149.057 17.634 149.278 17.1078 149.278 16.4156C149.278 15.6955 149.04 15.1833 148.569 14.8787C148.104 14.5741 147.379 14.4218 146.395 14.4218Z" fill="#0000FF"/>
<path d="M164 26.9658H155.719V11.7842H164V14.4218H158.767V17.7551H163.636V20.3927H158.767V24.3075H164V26.9658Z" fill="#0000FF"/>
</g>
<defs>
<linearGradient id="paint0_linear_1428_710" x1="42.9619" y1="27.7896" x2="17.7496" y2="12.9186" gradientUnits="userSpaceOnUse">
<stop offset="0.103576" stop-color="#1E1DCC"/>
<stop offset="0.900646" stop-color="#C2C2FF" stop-opacity="0.54"/>
</linearGradient>
<linearGradient id="paint1_linear_1428_710" x1="5.22508" y1="7.38493" x2="51.366" y2="31.5177" gradientUnits="userSpaceOnUse">
<stop offset="0.250218" stop-color="#0000FF"/>
<stop offset="1" stop-color="#1D1CCB" stop-opacity="0"/>
</linearGradient>
<clipPath id="clip0_1428_710">
<rect width="164" height="39" fill="white"/>
</clipPath>
</defs>
</svg>
